<?xml version="1.0" encoding="utf-8"?>
<!-- Generator: Adobe Illustrator 22.0.0, SVG Export Plug-In . SVG Version: 6.00 Build 0)  -->
<svg version="1.1" id="Layer_1" xmlns="http://www.w3.org/2000/svg" xmlns:xlink="http://www.w3.org/1999/xlink" x="0px" y="0px"
	 viewBox="0 0 3000 2000" style="enable-background:new 0 0 3000 2000;" xml:space="preserve">
<style type="text/css">
	.st0{opacity:0.4;}
	.st1{fill:#FFFFFF;}
	.st2{fill:#B8B8B8;}
	.st3{fill:#CCB193;}
	.st4{opacity:0.5;}
	.st5{fill:none;stroke:#FFFFFF;stroke-miterlimit:10;}
</style>
<g>
	<rect width="3000" height="2000"/>
</g>
<g class="st0">
	<g>
		<path class="st1" d="M68.6,1736h22.2v3.3h-9.3v25.5H78v-25.5h-9.3V1736z"/>
		<path class="st1" d="M90.2,1743.8h3.6l6.4,16.7l6.2-16.7h3.6l-9.6,24.5c-1.3,3.4-2.1,4.7-5,4.7h-4v-3.1h3c1.9,0,2.3-0.5,3-2.5
			l1-2.5L90.2,1743.8z"/>
		<path class="st1" d="M133.1,1754.3c0,6.4-4.3,10.7-10.1,10.7c-3.5,0-5.9-1.4-7.2-3.4v11.4h-3.4v-29.1h2.9l0.5,3.4
			c1.4-1.9,3.7-3.6,7.2-3.6C128.9,1743.6,133.1,1747.5,133.1,1754.3z M129.7,1754.3c0-4.6-2.8-7.7-6.9-7.7c-4.1,0-6.9,3.2-6.9,7.6
			c0,4.6,2.8,7.8,6.9,7.8C126.9,1762,129.7,1758.8,129.7,1754.3z"/>
		<path class="st1" d="M136.3,1754.3c0-6.4,4.3-10.7,10.4-10.7c6.1,0,10.4,4.4,10.4,10.7s-4.3,10.7-10.4,10.7
			C140.5,1765,136.3,1760.6,136.3,1754.3z M153.6,1754.3c0-4.5-2.8-7.7-6.9-7.7c-4.1,0-6.9,3.2-6.9,7.7c0,4.5,2.8,7.7,6.9,7.7
			C150.8,1762,153.6,1758.7,153.6,1754.3z"/>
		<path class="st1" d="M177.8,1743.8h2.9v19.9c0,6-3.2,9.5-10.4,9.5c-5.3,0-9.1-2.5-9.6-7.1h3.4c0.6,2.6,2.9,4.1,6.4,4.1
			c4.4,0,6.8-2.1,6.8-6.6v-2.5c-1.4,2.4-3.7,3.9-7.2,3.9c-5.8,0-10.1-3.9-10.1-10.7c0-6.4,4.3-10.7,10.1-10.7c3.5,0,5.9,1.5,7.2,3.9
			L177.8,1743.8z M177.4,1754.3c0-4.6-2.8-7.8-6.9-7.8c-4.1,0-6.9,3.2-6.9,7.7c0,4.6,2.8,7.7,6.9,7.7
			C174.6,1762,177.4,1758.8,177.4,1754.3z"/>
		<path class="st1" d="M196,1743.8v3.3h-1.7c-4.4,0-5.6,3.7-5.6,7v10.7h-3.4v-20.9h2.9l0.5,3.2c1-1.6,2.6-3.2,6.3-3.2H196z"/>
		<path class="st1" d="M217.7,1761.7v3.1h-1.8c-2.8,0-3.7-1.2-3.8-3.2c-1.3,1.9-3.4,3.5-7,3.5c-4.6,0-7.7-2.3-7.7-6.1
			c0-4.2,2.9-6.5,8.4-6.5h6.2v-1.4c0-2.7-1.9-4.4-5.2-4.4c-3,0-4.9,1.4-5.3,3.5H198c0.5-4.1,3.8-6.5,8.9-6.5c5.3,0,8.4,2.7,8.4,7.6
			v9.2c0,1.1,0.4,1.4,1.4,1.4H217.7z M211.9,1755.2h-6.5c-3,0-4.7,1.1-4.7,3.5c0,2.1,1.8,3.4,4.6,3.4c4.2,0,6.6-2.4,6.6-5.9V1755.2z
			"/>
		<path class="st1" d="M240.9,1754.3c0,6.4-4.3,10.7-10.1,10.7c-3.5,0-5.9-1.4-7.2-3.4v11.4h-3.4v-29.1h2.9l0.5,3.4
			c1.4-1.9,3.7-3.6,7.2-3.6C236.7,1743.6,240.9,1747.5,240.9,1754.3z M237.5,1754.3c0-4.6-2.8-7.7-6.9-7.7c-4.1,0-6.9,3.2-6.9,7.6
			c0,4.6,2.8,7.8,6.9,7.8C234.7,1762,237.5,1758.8,237.5,1754.3z"/>
		<path class="st1" d="M263.5,1753.1v11.7h-3.4v-11.5c0-4.4-2.1-6.7-5.7-6.7c-3.9,0-6.3,2.9-6.3,7.6v10.5h-3.4V1736h3.4v11.2
			c1.2-2,3.4-3.7,6.9-3.7C259.7,1743.6,263.5,1746.1,263.5,1753.1z"/>
		<path class="st1" d="M265,1743.8h3.6l6.4,16.7l6.2-16.7h3.6l-9.6,24.5c-1.3,3.4-2.1,4.7-5,4.7h-4v-3.1h3c1.9,0,2.3-0.5,3-2.5
			l1-2.5L265,1743.8z"/>
		<path class="st1" d="M69.6,1795.9c0-8.7,5.4-14.6,13.7-14.6c6.4,0,11,3.7,12.1,9.6h-3.8c-1.1-4-4.1-6.4-8.5-6.4
			c-6,0-9.9,4.7-9.9,11.3c0,6.6,3.7,11.3,9.7,11.3c4.4,0,7.5-2.3,8.6-6.4h3.8c-1.1,6-5.8,9.6-12.3,9.6
			C74.7,1810.6,69.6,1804.7,69.6,1795.9z"/>
		<path class="st1" d="M98.4,1799.8c0-6.4,4.3-10.7,10.4-10.7c6.1,0,10.4,4.4,10.4,10.7s-4.3,10.7-10.4,10.7
			C102.6,1810.6,98.4,1806.2,98.4,1799.8z M115.7,1799.8c0-4.5-2.8-7.7-6.9-7.7c-4.1,0-6.9,3.2-6.9,7.7c0,4.5,2.8,7.7,6.9,7.7
			C112.9,1807.6,115.7,1804.3,115.7,1799.8z"/>
		<path class="st1" d="M154.3,1798.2v12.1h-3.4v-11.9c0-4.1-1.8-6.2-5-6.2c-3.5,0-5.6,2.6-5.6,6.9v11.2H137v-11.9
			c0-4.1-1.8-6.2-5-6.2c-3.4,0-5.5,2.9-5.5,7.1v11H123v-20.9h2.9l0.5,2.9c1.1-1.5,2.9-3.1,6.1-3.1c2.9,0,5.4,1.3,6.6,4
			c1.3-2.3,3.5-4,7.3-4C150.7,1789.1,154.3,1791.6,154.3,1798.2z"/>
		<path class="st1" d="M158.6,1781.6h3.4v28.7h-3.4V1781.6z"/>
		<path class="st1" d="M166.1,1783.7c0-1.3,0.9-2.2,2.2-2.2c1.2,0,2.2,0.9,2.2,2.2c0,1.3-0.9,2.2-2.2,2.2
			C167,1785.9,166.1,1784.9,166.1,1783.7z M166.5,1789.4h3.4v20.9h-3.4V1789.4z"/>
		<path class="st1" d="M194.1,1807.2v3.1h-1.8c-2.8,0-3.7-1.2-3.8-3.2c-1.3,1.9-3.4,3.5-7,3.5c-4.6,0-7.7-2.3-7.7-6.1
			c0-4.2,2.9-6.5,8.4-6.5h6.2v-1.4c0-2.7-1.9-4.4-5.2-4.4c-3,0-4.9,1.4-5.3,3.5h-3.4c0.5-4.1,3.8-6.5,8.9-6.5c5.3,0,8.4,2.7,8.4,7.6
			v9.2c0,1.1,0.4,1.4,1.4,1.4H194.1z M188.3,1800.8h-6.5c-3,0-4.7,1.1-4.7,3.5c0,2.1,1.8,3.4,4.6,3.4c4.2,0,6.6-2.4,6.6-5.9V1800.8z
			"/>
		<path class="st1" d="M215.4,1798.7v11.7H212v-11.5c0-4.4-2-6.6-5.7-6.6c-3.9,0-6.3,2.9-6.3,7.6v10.5h-3.4v-20.9h2.9l0.5,2.8
			c1.2-1.6,3.4-3.1,6.9-3.1C211.7,1789.1,215.4,1791.7,215.4,1798.7z"/>
		<path class="st1" d="M218.7,1799.9c0-6.4,4.1-10.8,10.2-10.8c5.1,0,8.4,2.9,9.2,7.5h-3.5c-0.6-2.8-2.7-4.5-5.7-4.5
			c-4,0-6.7,3.2-6.7,7.8s2.7,7.7,6.7,7.7c3,0,5-1.7,5.7-4.4h3.6c-0.8,4.5-4.2,7.4-9.3,7.4C222.7,1810.6,218.7,1806.4,218.7,1799.9z"
			/>
		<path class="st1" d="M241.1,1799.8c0-6.4,4-10.7,9.9-10.7c5.9,0,9.8,3.7,9.9,9.9c0,0.5,0,0.9-0.1,1.4h-16.3v0.3
			c0.1,4,2.6,6.8,6.6,6.8c3,0,5.3-1.6,6-4.3h3.4c-0.8,4.2-4.3,7.3-9.1,7.3C245.2,1810.6,241.1,1806.3,241.1,1799.8z M257.4,1797.7
			c-0.3-3.6-2.8-5.6-6.3-5.6c-3.1,0-5.9,2.2-6.2,5.6H257.4z"/>
		<path class="st1" d="M278,1810.6c-8.1,0-13.7-6.2-13.7-14.6c0-8.5,5.6-14.6,13.7-14.6c8.1,0,13.7,6.2,13.7,14.6
			C291.7,1804.4,286.1,1810.6,278,1810.6z M278,1807.3c6,0,10.1-4.7,10.1-11.3c0-6.6-4.1-11.3-10.1-11.3c-6,0-10.1,4.7-10.1,11.3
			C267.9,1802.6,272,1807.3,278,1807.3z"/>
		<path class="st1" d="M314.4,1798.7v11.7h-3.4v-11.5c0-4.4-2-6.6-5.7-6.6c-3.9,0-6.3,2.9-6.3,7.6v10.5h-3.4v-20.9h2.9l0.5,2.8
			c1.2-1.6,3.4-3.1,6.9-3.1C310.7,1789.1,314.4,1791.7,314.4,1798.7z"/>
		<path class="st1" d="M317.8,1799.8c0-6.4,4-10.7,9.9-10.7c5.9,0,9.8,3.7,9.9,9.9c0,0.5,0,0.9-0.1,1.4h-16.3v0.3
			c0.1,4,2.6,6.8,6.6,6.8c3,0,5.3-1.6,6-4.3h3.4c-0.8,4.2-4.3,7.3-9.1,7.3C321.9,1810.6,317.8,1806.3,317.8,1799.8z M334,1797.7
			c-0.3-3.6-2.8-5.6-6.3-5.6c-3.1,0-5.9,2.2-6.2,5.6H334z"/>
		<path class="st1" d="M355.3,1800.9c0.3,3.9,3.3,6.4,7.7,6.4c3.9,0,6.6-1.8,6.6-4.9c0-3.6-3.5-4.3-7.9-5c-4.6-0.8-9.4-2.3-9.4-7.9
			c0-4.9,4-8.2,9.8-8.2c6.4,0,10.3,3.6,10.7,8.7h-3.7c-0.4-3.3-3.1-5.5-7-5.5c-3.7,0-6.2,1.6-6.2,4.7c0,3.4,3.5,4.1,7.8,4.9
			c4.7,0.8,9.5,2.3,9.5,7.9c0,5-4.2,8.5-10.2,8.5c-7,0-11.1-4-11.3-9.6H355.3z"/>
		<path class="st1" d="M396.7,1807.2v3.1h-1.8c-2.8,0-3.7-1.2-3.8-3.2c-1.3,1.9-3.4,3.5-7,3.5c-4.6,0-7.7-2.3-7.7-6.1
			c0-4.2,2.9-6.5,8.4-6.5h6.2v-1.4c0-2.7-1.9-4.4-5.2-4.4c-3,0-4.9,1.4-5.3,3.5H377c0.5-4.1,3.8-6.5,8.9-6.5c5.3,0,8.4,2.7,8.4,7.6
			v9.2c0,1.1,0.4,1.4,1.4,1.4H396.7z M391,1800.8h-6.5c-3,0-4.7,1.1-4.7,3.5c0,2.1,1.8,3.4,4.6,3.4c4.2,0,6.6-2.4,6.6-5.9V1800.8z"
			/>
		<path class="st1" d="M418,1798.7v11.7h-3.4v-11.5c0-4.4-2-6.6-5.7-6.6c-3.9,0-6.3,2.9-6.3,7.6v10.5h-3.4v-20.9h2.9l0.5,2.8
			c1.2-1.6,3.4-3.1,6.9-3.1C414.3,1789.1,418,1791.7,418,1798.7z"/>
		<path class="st1" d="M424.9,1803.4c0.1,2.5,2.3,4.3,5.8,4.3c3,0,5-1.3,5-3.2c0-2.6-2.3-2.8-5.4-3.2c-4.7-0.6-8.4-1.5-8.4-5.9
			c0-3.8,3.5-6.3,8.2-6.3c4.8,0,8.2,2.3,8.5,6.6h-3.4c-0.2-2.1-2.2-3.7-5.1-3.7c-2.9,0-4.9,1.2-4.9,3.2c0,2.3,2.2,2.6,5.3,3
			c4.8,0.6,8.6,1.5,8.6,6.1c0,3.9-3.7,6.3-8.4,6.3c-5.4,0-9.2-2.5-9.2-7.1H424.9z"/>
		<path class="st1" d="M70.6,1827.2h11c5.7,0,9.6,3.4,9.6,8.8c0,4-2.4,7.1-6.1,8.2l6.4,11.7h-4l-6.1-11h-7.2v11h-3.6V1827.2z
			 M74.2,1830.4v11.1h7.1c3.8,0,6.2-2.2,6.2-5.6s-2.4-5.5-6.2-5.5H74.2z"/>
		<path class="st1" d="M93.4,1845.4c0-6.4,4-10.7,9.9-10.7c5.9,0,9.8,3.7,9.9,9.9c0,0.5,0,0.9-0.1,1.4H96.9v0.3
			c0.1,4,2.6,6.8,6.6,6.8c3,0,5.3-1.6,6-4.3h3.4c-0.8,4.2-4.3,7.3-9.1,7.3C97.5,1856.1,93.4,1851.8,93.4,1845.4z M109.7,1843.3
			c-0.3-3.6-2.8-5.6-6.3-5.6c-3.1,0-5.9,2.2-6.2,5.6H109.7z"/>
		<path class="st1" d="M134.1,1835h2.9v19.9c0,6-3.2,9.5-10.4,9.5c-5.3,0-9.1-2.5-9.6-7.1h3.4c0.6,2.6,2.9,4.1,6.4,4.1
			c4.4,0,6.8-2.1,6.8-6.6v-2.5c-1.4,2.4-3.7,3.9-7.2,3.9c-5.8,0-10.1-3.9-10.1-10.7c0-6.4,4.3-10.7,10.1-10.7c3.5,0,5.9,1.5,7.2,3.9
			L134.1,1835z M133.7,1845.5c0-4.6-2.8-7.8-6.9-7.8c-4.1,0-6.9,3.2-6.9,7.7c0,4.6,2.8,7.7,6.9,7.7
			C130.9,1853.1,133.7,1850,133.7,1845.5z"/>
		<path class="st1" d="M156.2,1835h3.4v20.9h-2.9l-0.5-2.8c-1.2,1.6-3.2,3-6.7,3c-4.6,0-8.3-2.6-8.3-9.5V1835h3.4v11.5
			c0,4.4,2,6.7,5.5,6.7c3.8,0,6.1-2.9,6.1-7.6V1835z"/>
		<path class="st1" d="M164.2,1827.2h3.4v28.7h-3.4V1827.2z"/>
		<path class="st1" d="M191.8,1852.8v3.1h-1.8c-2.8,0-3.7-1.2-3.8-3.2c-1.3,1.9-3.4,3.5-7,3.5c-4.6,0-7.7-2.3-7.7-6.1
			c0-4.2,2.9-6.5,8.4-6.5h6.2v-1.4c0-2.7-1.9-4.4-5.2-4.4c-3,0-4.9,1.4-5.3,3.5H172c0.5-4.1,3.8-6.5,8.9-6.5c5.3,0,8.4,2.7,8.4,7.6
			v9.2c0,1.1,0.4,1.4,1.4,1.4H191.8z M186,1846.3h-6.5c-3,0-4.7,1.1-4.7,3.5c0,2.1,1.8,3.4,4.6,3.4c4.2,0,6.6-2.4,6.6-5.9V1846.3z"
			/>
		<path class="st1" d="M205,1835v3.3h-1.7c-4.4,0-5.6,3.7-5.6,7v10.7h-3.4V1835h2.9l0.5,3.2c1-1.6,2.6-3.2,6.3-3.2H205z"/>
		<path class="st1" d="M216.9,1845.8l14.7-18.6h3.9v18.6h4.6v3.2h-4.6v7h-3.4v-7h-15.1V1845.8z M220.7,1845.7h11.2v-14.3
			L220.7,1845.7z"/>
		<path class="st1" d="M242.2,1840.9c0-8.2,4.4-14,10.9-14c6.4,0,10.9,5.8,10.9,14v1.3c0,8.6-4.4,14-10.9,14
			c-6.5,0-10.9-5.4-10.9-14V1840.9z M260.5,1841c0-6.8-3-10.9-7.4-10.9c-4.5,0-7.4,4.1-7.4,10.9v1.1c0,6.8,3,10.9,7.4,10.9
			c4.4,0,7.4-4.1,7.4-10.9V1841z"/>
		<path class="st1" d="M267.5,1840.9c0-8.2,4.4-14,10.9-14c6.4,0,10.9,5.8,10.9,14v1.3c0,8.6-4.4,14-10.9,14
			c-6.5,0-10.9-5.4-10.9-14V1840.9z M285.8,1841c0-6.8-3-10.9-7.4-10.9c-4.5,0-7.4,4.1-7.4,10.9v1.1c0,6.8,3,10.9,7.4,10.9
			c4.4,0,7.4-4.1,7.4-10.9V1841z"/>
		<path class="st1" d="M293.4,1845.6v-2.8h13.7v2.8H293.4z"/>
		<path class="st1" d="M331.2,1846.3c0,6.4-4.7,9.8-10.1,9.8c-6.4,0-10.1-4.1-10.4-9.2h3.4c0.3,3.3,2.8,6.1,7,6.1
			c3.4,0,6.5-2.3,6.5-6.7c0-3.9-2.5-6.6-6.5-6.6c-1.8,0-5.3,0.5-6.5,3.9l-3.3-0.1l0.9-16.3h17.2v3.2h-14l-0.7,9.1
			c1.8-2.1,4.2-2.8,6.9-2.8C327.3,1836.6,331.2,1840.6,331.2,1846.3z"/>
		<path class="st1" d="M334.3,1840.9c0-8.2,4.4-14,10.9-14c6.4,0,10.9,5.8,10.9,14v1.3c0,8.6-4.4,14-10.9,14
			c-6.5,0-10.9-5.4-10.9-14V1840.9z M352.6,1841c0-6.8-3-10.9-7.4-10.9c-4.5,0-7.4,4.1-7.4,10.9v1.1c0,6.8,3,10.9,7.4,10.9
			c4.4,0,7.4-4.1,7.4-10.9V1841z"/>
		<path class="st1" d="M359.6,1840.9c0-8.2,4.4-14,10.9-14c6.4,0,10.9,5.8,10.9,14v1.3c0,8.6-4.4,14-10.9,14
			c-6.5,0-10.9-5.4-10.9-14V1840.9z M377.9,1841c0-6.8-3-10.9-7.4-10.9c-4.5,0-7.4,4.1-7.4,10.9v1.1c0,6.8,3,10.9,7.4,10.9
			c4.4,0,7.4-4.1,7.4-10.9V1841z"/>
	</g>
</g>
<g>
	<g>
		<path class="st2" d="M1235.9,329l94.8-248.4h36.6l94.4,248.4h-33l-26.3-67.1h-108.2l-26.3,67.1H1235.9z M1303.3,233.9h89.8
			L1348,114.3L1303.3,233.9z"/>
		<path class="st2" d="M1646.8,302.4V329h-16c-24.1,0-32.3-10.3-32.6-28c-11.4,16.3-29.5,30.2-60.7,30.2
			c-39.7,0-66.7-19.9-66.7-52.9c0-36.2,25.2-56.4,72.8-56.4h53.2v-12.4c0-23.4-16.7-37.6-45.1-37.6c-25.6,0-42.6,12.1-46.1,30.5
			h-29.1c4.3-35.5,33-56.4,76.7-56.4c46.1,0,72.8,23.1,72.8,65.3v79.1c0,9.6,3.5,12.1,11.7,12.1H1646.8z M1596.8,246.3h-56.1
			c-25.9,0-40.5,9.6-40.5,30.2c0,17.7,15.3,29.8,39.4,29.8c36.2,0,57.1-20.9,57.1-51.1V246.3z"/>
		<path class="st2" d="M1669.9,80.6h88c52.9,0,82.3,25.6,82.3,65.7c0,28.4-15.6,45.8-39,53.9c26.3,5,49.3,22,49.3,57.8
			c0,44-31.2,71-90.1,71h-90.5V80.6z M1700.8,108.6v79.9h58.6c31.9,0,50-14.9,50-40.1c0-24.8-17.7-39.7-50-39.7H1700.8z
			 M1700.8,216.1V301h59.6c38.3,0,58.6-16,58.6-41.5c0-28-21.6-43.3-58.6-43.3H1700.8z"/>
		<path class="st2" d="M2059.6,238.5c0,55.4-36.9,92.6-86.9,92.6c-30.5,0-51.1-12.4-62.1-29.8l-3.9,27.7h-25.2V80.6h29.1v96.5
			c12.1-16.7,31.6-31.2,62.1-31.2C2022.6,145.9,2059.6,179.6,2059.6,238.5z M2029.7,238.5c0-39.4-24.1-66.7-60-66.7
			c-35.5,0-59.6,27.3-59.6,66c0,39.7,24.1,67.4,59.6,67.4C2005.6,305.2,2029.7,277.9,2029.7,238.5z"/>
		<path class="st2" d="M2084.4,204.8c0-75.2,46.5-126.3,118.5-126.3c55,0,95.1,31.9,104.3,83.4h-32.6c-9.6-34.4-35.8-55-73.1-55
			c-52.2,0-85.5,40.5-85.5,97.9c0,57.1,31.9,97.9,84.1,97.9c38.3,0,64.9-20.2,74.2-55h32.7c-9.2,51.5-50.4,83.4-106.5,83.4
			C2129.1,331.1,2084.4,280.7,2084.4,204.8z"/>
		<path class="st2" d="M2330,238.9c0-55.4,35.8-93,88.4-93c44.4,0,72.4,24.8,79.8,64.6h-30.5c-5.3-24.1-23.1-38.7-49.7-38.7
			c-34.8,0-58.2,27.7-58.2,67.1c0,39.4,23.4,66.4,58.2,66.4c25.9,0,43.7-14.9,49.3-38h30.9c-7.1,39-36.6,63.9-80.6,63.9
			C2364.8,331.1,2330,295.3,2330,238.9z"/>
		<path class="st2" d="M2530.8,329V80.6h79.5c77.7,0,124.9,49.7,124.9,124.2c0,74.2-47.2,124.2-124.9,124.2H2530.8z M2561.7,300.6
			h48.6c60.3,0,93.3-38,93.3-95.8c0-58.2-33-95.8-93.3-95.8h-48.6V300.6z"/>
		<path class="st2" d="M2909.2,80.6h29.1V329h-25.2l-3.9-29.1c-12.1,16.7-31.6,31.2-62.1,31.2c-50,0-86.9-33.7-86.9-92.6
			c0-55.4,36.9-92.6,86.9-92.6c30.5,0,51.1,12.4,62.1,29.8V80.6z M2909.5,239.2c0-39.7-24.1-67.4-59.6-67.4c-35.8,0-60,27.3-60,66.7
			s24.1,66.7,60,66.7C2885.4,305.2,2909.5,277.9,2909.5,239.2z"/>
	</g>
</g>
<g>
	<g>
		<path class="st2" d="M74.1,406.9h158.3v28.4H105v79.5h106.1v28.4H105V627h132v28.4H74.1V406.9z"/>
		<path class="st2" d="M249.4,564.9c0-55,34.8-92.6,85.9-92.6c51.1,0,84.5,32.3,85.9,85.9c0,3.9-0.4,8.2-0.7,12.4H280v2.5
			c1.1,34.4,22.7,58.6,57.1,58.6c25.6,0,45.4-13.5,51.5-36.9H418c-7.1,36.2-36.9,62.8-78.8,62.8
			C284.9,657.5,249.4,620.2,249.4,564.9z M390,546.4c-2.8-31.2-24.1-48.6-54.3-48.6c-26.6,0-51.1,19.2-53.9,48.6H390z"/>
		<path class="st2" d="M455.3,406.9h154.4v28.4H486.2v83h102.2v28.4H486.2v108.6h-30.9V406.9z"/>
		<path class="st2" d="M613.6,474.4h32.6v-20.2c0-31.9,13.5-47.2,47.2-47.2h33v26.6h-31.2c-14.6,0-19.9,6-19.9,19.9v20.9h51.1V501
			h-51.1v154.4h-29.1V501h-32.6V474.4z"/>
		<path class="st2" d="M738.8,531.1c0-75.2,46.5-126.3,118.5-126.3c55,0,96.5,31.9,105,83h-33c-8.5-34.4-35.1-54.7-72.8-54.7
			c-52.2,0-86.2,40.5-86.2,97.9c0,57.5,34.1,97.9,85.5,97.9c45.8,0,78.8-27.3,78.8-71.3v-8.5h-74.5v-28.4h104.7v134.5h-26.6
			l-2.1-36.2c-11.4,18.1-38,38.3-80.6,38.3C786.8,657.5,738.8,606.4,738.8,531.1z"/>
		<path class="st2" d="M1151.9,474.4h25.2v172.1c0,52.2-27.7,82-89.8,82c-46.1,0-78.4-21.6-83-61.4h29.8c5,22.7,25.2,35.5,55.4,35.5
			c38,0,58.6-17.7,58.6-57.1v-21.3c-12.1,20.6-31.6,33.4-62.1,33.4c-50,0-86.9-33.7-86.9-92.6c0-55.4,36.9-92.6,86.9-92.6
			c30.5,0,50.8,13.1,62.1,33.4L1151.9,474.4z M1148.4,565.6c0-39.7-24.1-67.4-59.6-67.4c-35.8,0-60,27.3-60,66.7s24.1,66.7,60,66.7
			C1124.3,631.6,1148.4,604.2,1148.4,565.6z"/>
		<path class="st2" d="M1217.6,406.9h30.9v107.9h128.5V406.9h30.9v248.4h-30.9V543.2h-128.5v112.1h-30.9V406.9z"/>
		<path class="st2" d="M1610.4,554.6v100.8h-29.1v-99c0-37.6-18.1-57.5-49.3-57.5c-33.7,0-54.7,25.2-54.7,66v90.5h-29.1V406.9h29.1
			v97.2c10.6-17,29.1-31.9,59.6-31.9C1577.4,472.2,1610.4,494.6,1610.4,554.6z"/>
		<path class="st2" d="M1648.4,406.9h30.9v248.4h-30.9V406.9z"/>
		<path class="st2" d="M1715.8,425c0-11,8.2-18.8,18.8-18.8s18.8,7.8,18.8,18.8c0,11-8.2,18.8-18.8,18.8S1715.8,436,1715.8,425z
			 M1719.8,474.4h29.1v181h-29.1V474.4z"/>
		<path class="st2" d="M1834.4,406.9h30.9v189.9c0,38.3-20.2,58.6-58.6,58.6h-32.3V627h28.4c22.4,0,31.6-10.3,31.6-32.6V406.9z"/>
		<path class="st2" d="M1865.3,699.7h22.7c14.6,0,19.9-6,19.9-19.9V474.4h29.1v204.8c0,31.9-13.5,47.2-47.2,47.2h-24.5V699.7z
			 M1903.6,425c0-11,8.2-18.8,18.8-18.8s18.8,7.8,18.8,18.8c0,11-8.2,18.8-18.8,18.8S1903.6,436,1903.6,425z"/>
	</g>
</g>
<g>
	<g>
		<path class="st2" d="M73.1,724.9H104v140.9l125.3-140.9h37.6l-90.9,104.7L274,973.3h-36.9L153.3,853L104,908.7v64.6H73.1V724.9z"
			/>
		<path class="st2" d="M291.7,724.9h29.1v163.6l90.9-96.2h35.8l-70.6,74.9l75.6,106.1h-35.1l-60-85.2l-36.6,37.6v47.6h-29.1V724.9z"
			/>
		<path class="st2" d="M473.8,973.3V724.9h30.9v220h113.2v28.4H473.8z"/>
		<path class="st2" d="M641.3,724.9h29.1v248.4h-29.1V724.9z"/>
		<path class="st2" d="M710.9,724.9h39l88,206.2l86.9-206.2h38.3v248.4H933V777.4l-82.3,195.9h-27.3L741,777.4v195.9h-30.2V724.9z"
			/>
		<path class="st2" d="M1274.1,869v104.3H1245V870.8c0-35.5-15.6-53.9-42.9-53.9c-30.2,0-48.6,22.7-48.6,59.6v96.9h-29.1V870.8
			c0-35.5-16-53.9-43.7-53.9c-29.8,0-47.9,24.8-47.9,61v95.5h-29.1v-181h25.2l3.9,24.8c9.6-13.1,24.8-27,52.9-27
			c25.2,0,46.8,11.4,57.1,34.4c11-19.5,30.5-34.4,62.8-34.4C1243.2,790.2,1274.1,811.8,1274.1,869z"/>
		<path class="st2" d="M1312,973.3V724.9h28.4l133.4,191.6V724.9h30.2v248.4h-28.4l-133.4-191.6v191.6H1312z"/>
		<path class="st2" d="M1706.3,872.5v100.8h-29.1v-99c0-37.6-17.4-57.5-49-57.5c-34.1,0-54.7,25.2-54.7,66v90.5h-29.1v-181h25.2
			l3.9,24.5c10.6-13.8,29.1-26.6,59.6-26.6C1674,790.2,1706.3,812.6,1706.3,872.5z"/>
	</g>
</g>
<g>
	<g>
		<path class="st2" d="M1735.5,1281.6c-69.9,0-118.5-53.2-118.5-126.3s48.6-126.3,118.5-126.3s118.5,53.2,118.5,126.3
			S1805.4,1281.6,1735.5,1281.6z M1735.5,1253.2c51.8,0,86.9-40.8,86.9-97.9c0-57.1-35.1-97.9-86.9-97.9
			c-51.8,0-86.9,40.8-86.9,97.9C1648.5,1212.4,1683.7,1253.2,1735.5,1253.2z"/>
		<path class="st2" d="M1878.9,1189c0-55,36.9-92.6,89.8-92.6c52.9,0,89.8,37.6,89.8,92.6s-36.9,92.6-89.8,92.6
			C1915.8,1281.6,1878.9,1244,1878.9,1189z M2028.6,1189c0-38.7-24.1-66.7-60-66.7s-60,28-60,66.7c0,38.7,24.1,66.7,60,66.7
			S2028.6,1227.6,2028.6,1189z"/>
		<path class="st2" d="M2092.5,1031h95.5c49.7,0,82.3,29.8,82.3,76.3s-32.6,76.7-82.3,76.7h-64.6v95.5h-30.9V1031z M2123.4,1059.4
			v96.2h61.8c32.6,0,53.6-18.8,53.6-48.3s-20.6-47.9-53.2-47.9H2123.4z"/>
		<path class="st2" d="M2473.7,1189c0,55.4-36.9,92.6-86.9,92.6c-30.5,0-51.1-12.4-62.1-29.8v98.7h-29.1v-252h25.2l3.9,29.1
			c12.1-16.7,31.6-31.2,62.1-31.2C2436.7,1096.3,2473.7,1130,2473.7,1189z M2443.8,1189c0-39.4-24.1-66.7-60-66.7
			c-35.5,0-59.6,27.3-59.6,66c0,39.7,24.1,67.4,59.6,67.4C2419.7,1255.7,2443.8,1228.4,2443.8,1189z"/>
		<path class="st2" d="M2750.8,1251.1v28.4h-22.7c-18.8,0-28.7-5-37.6-17l-2.5-3.5c-19.2,14.6-43.7,22.7-71,22.7
			c-69.9,0-118.5-53.2-118.5-126.3s48.6-126.3,118.5-126.3s118.5,53.2,118.5,126.3c0,33-9.9,61.8-27.3,83.8
			c6.7,8.9,12.8,12.1,23.4,12.1H2750.8z M2670.3,1234.7l-6.7-9.2c-6.7-8.9-12.8-12.4-21.6-12.4h-20.9v-28.4h25.9
			c16.7,0,25.6,5.3,34.4,17.4l7.8,10.6c9.6-15.6,14.9-35.5,14.9-57.5c0-57.1-35.1-97.9-86.9-97.9c-51.8,0-86.9,40.8-86.9,97.9
			c0,57.1,35.1,97.9,86.9,97.9C2638,1253.2,2656.1,1246.5,2670.3,1234.7z"/>
		<path class="st2" d="M2914.8,1098.5h25.2v252h-29.1v-100.1c-12.1,16.7-31.6,31.2-62.1,31.2c-50,0-86.9-33.7-86.9-92.6
			c0-55.4,36.9-92.6,86.9-92.6c30.5,0,51.1,12.4,62.1,29.8L2914.8,1098.5z M2911.2,1189.7c0-39.7-24.1-67.4-59.6-67.4
			c-35.8,0-60,27.3-60,66.7c0,39.4,24.1,66.7,60,66.7C2887.1,1255.7,2911.2,1228.4,2911.2,1189.7z"/>
	</g>
</g>
<g>
	<g>
		<path class="st3" d="M75.6,1191.5l126.7-161.1h33.4v160.4h40.1v27.3h-40.1v60.7h-29.8v-60.7H75.6V1191.5z M109,1190.8h96.9v-123.9
			L109,1190.8z"/>
		<path class="st3" d="M466.3,1195.7c0,55-40.5,84.8-86.9,84.8c-55.4,0-87.3-35.8-89.8-79.1h29.5c2.8,28.7,24.5,52.5,60.3,52.5
			c29.1,0,56.4-19.5,56.4-57.8c0-33.7-21.6-57.5-56.1-57.5c-15.3,0-45.8,4.3-56.4,33.7l-28.7-0.7l8.2-141.2h148.7v27.3H330.1
			l-5.7,78.4c15.3-18.1,36.6-23.8,59.6-23.8C432.6,1112.3,466.3,1146.4,466.3,1195.7z"/>
		<path class="st3" d="M489.1,1155.6c0-78.1,35.1-127.4,94.4-127.4c45.1,0,75.9,27,82,68.5h-29.8c-5.7-25.2-23.4-42.2-53.6-42.2
			c-43.3,0-67.1,39.4-67.1,95.5c0,3.5,0,6,0.4,12.1c0.4-1.4,0.7-3.5,2.1-6.7c11-24.5,35.8-40.8,69.2-40.8c49,0,83.4,32.3,83.4,83
			c0,47.9-35.1,83.4-86.2,83.4c-34.4,0-59.6-15.6-75.2-41.2C496.2,1218.1,489.1,1188.3,489.1,1155.6z M584.5,1140.7
			c-34.4,0-57.8,23.4-57.8,57.5c0,33.4,22.7,56.4,56.8,56.4c34.4,0,56.8-23.8,56.8-57.1C640.2,1164.5,618.9,1140.7,584.5,1140.7z"/>
		<path class="st3" d="M676.4,1030.4h175.3v20.9l-122.1,227.5h-32.3l121.7-221.1H676.4V1030.4z"/>
		<path class="st3" d="M1042,1212.1c0,40.1-34.4,68.8-90.5,68.8c-56.1,0-90.5-28.7-90.5-68.8c0-33.7,21.6-55.4,49.7-61.8
			c-23.8-5.3-42.6-26.3-42.6-56.1c0-39,32.6-66,83.4-66s83.4,27,83.4,66c0,28.4-18.5,50.7-42.6,56.1
			C1020,1156.7,1042,1178,1042,1212.1z M1011.5,1209.9c0-26.3-24.5-45.1-60-45.1c-35.5,0-60,18.8-60,45.1c0,26.6,24.8,45.4,60,45.4
			C987,1255.4,1011.5,1236.6,1011.5,1209.9z M951.5,1135.1c31.9,0,52.9-16.3,52.9-40.8c0-24.1-20.9-40.5-52.9-40.5
			s-52.9,16.3-52.9,40.5C898.6,1118.7,919.5,1135.1,951.5,1135.1z"/>
		<path class="st3" d="M1071.1,1212.4h29.8c5.7,25.2,23.4,42.2,53.6,42.2c43.3,0,67.1-39.4,67.1-95.5c0-3.5,0-6-0.4-12.1
			c-0.4,1.4-0.7,3.5-2.1,6.7c-11,24.5-35.8,40.8-69.2,40.8c-49,0-83.4-32.3-83.4-83c0-47.9,35.1-83.4,86.2-83.4
			c34.4,0,59.6,15.6,75.2,41.2c12.4,21.6,19.5,51.5,19.5,84.1c0,78.1-35.1,127.4-94.4,127.4
			C1108,1280.9,1077.1,1253.9,1071.1,1212.4z M1209.8,1110.9c0-33.4-22.7-56.4-56.8-56.4c-34.4,0-56.8,23.8-56.8,57.1
			c0,33,21.3,56.8,55.7,56.8C1186.4,1168.4,1209.8,1145,1209.8,1110.9z"/>
	</g>
</g>
<g>
	<g>
		<path class="st2" d="M72.1,1328.2h95.1c49.7,0,82.7,29.8,82.7,76.3c0,34.8-20.9,61.8-52.9,70.6l55.7,101.5H218l-52.5-95.5H103
			v95.5H72.1V1328.2z M103,1356.6v96.2h61.8c32.6,0,53.6-19.2,53.6-48.3s-20.9-47.9-53.2-47.9H103z"/>
		<path class="st2" d="M373.1,1395.7v28.4h-14.6c-38,0-48.3,31.6-48.3,60.3v92.3h-29.1v-181h25.2l3.9,27.3
			c8.5-13.8,22.4-27.3,54.7-27.3H373.1z"/>
		<path class="st2" d="M421,1495.4c2.5,33.4,28.4,55.4,66.4,55.4c33.4,0,57.1-15.3,57.1-42.2c0-30.9-30.5-37.3-68.1-43.7
			c-40.1-6.7-81.3-19.9-81.3-68.1c0-42.2,34.4-70.6,84.8-70.6c55.4,0,89.4,30.9,92.3,75.6h-31.9c-3.5-28.7-26.6-47.6-60.3-47.6
			c-32.3,0-53.9,14.2-53.9,40.8c0,29.8,30.2,35.8,67.4,42.2c40.5,6.7,82,20.2,82,68.5c0,42.9-36.2,73.1-88.4,73.1
			c-60.7,0-96.2-34.4-97.9-83.4H421z"/>
		<path class="st2" d="M626.8,1517c1.1,21.3,19.9,36.9,50,36.9c25.6,0,43.7-11,43.7-27.7c0-22.7-19.9-24.5-46.8-27.7
			c-40.5-5-72.8-13.1-72.8-50.7c0-33,30.2-54.7,71-54.3c41.2,0.4,71,19.5,73.8,57.1h-29.8c-2.1-18.5-19.2-32.3-44-32.3
			c-25.2,0-42.2,10.6-42.2,27.3c0,19.9,19.2,22.4,45.4,25.6c41.2,5,74.2,12.8,74.2,52.9c0,33.7-32.3,54.7-72.4,54.7
			c-46.8,0-79.1-22-79.9-61.8H626.8z"/>
		<path class="st2" d="M740.4,1328.2h192v28.4h-80.6v220h-30.9v-220h-80.6V1328.2z"/>
		<path class="st2" d="M965.7,1422.3h-32.6v-26.6h32.6v-50.7h29.1v50.7h46.8v26.6h-46.8v106.8c0,15.3,5.3,20.9,20.9,20.9h28.7v26.6
			h-31.6c-34.8,0-47.2-15.3-47.2-47.2V1422.3z"/>
		<path class="st2" d="M1069,1328.2h30.9v144.1c0,51.5,20.6,78.1,63.5,78.1c43.7,0,64.2-26.6,64.2-78.1v-144.1h30.9v142.3
			c0,71-33,108.2-95.1,108.2s-94.4-37.3-94.4-108.2V1328.2z"/>
		<path class="st2" d="M1424.3,1395.7h29.1v181h-25.2l-3.9-24.1c-10.6,13.5-28,26.3-57.8,26.3c-39.7,0-71.3-22.4-71.3-82.3v-100.8
			h29.1v99c0,37.6,17,57.5,47.2,57.5c33,0,52.9-25.2,52.9-66V1395.7z"/>
		<path class="st2" d="M1472.9,1328.2h32.6l75.9,211.9l75.6-211.9h31.9l-89.4,248.4h-37.3L1472.9,1328.2z"/>
		<path class="st2" d="M1680.8,1395.7h31.2l54.7,148l54.3-148h30.5l-67.8,181h-35.1L1680.8,1395.7z"/>
	</g>
</g>
<g>
	<g>
		<path class="st2" d="M1203.2,1609.5h32.3l58.2,208.7l61-208.7h31.2l58.9,208.7l58.6-208.7h31.9l-72.8,248.4h-36.9l-56.8-197
			l-56.4,197h-36.9L1203.2,1609.5z"/>
		<path class="st2" d="M1535,1676.9h30.5l45.1,147.3l47.6-147.3h27l45.1,147.3l47.2-147.3h29.5l-60.3,181h-31.9l-43.7-134.5
			l-45.4,134.5h-31.9L1535,1676.9z"/>
		<path class="st2" d="M1895.2,1730.5l-78.4-121h36.2l62.1,96.2l62.1-96.2h35.5l-78.4,118.9l83.8,129.5h-36.6l-67.4-104l-66.7,104
			h-35.8L1895.2,1730.5z"/>
		<path class="st2" d="M2089.4,1764.9l-64.2-88h34.8l47.9,67.1l48.6-67.1h33l-64.6,88l69.2,93h-34.8l-52.9-72.8l-52.9,72.8h-33
			L2089.4,1764.9z"/>
		<path class="st2" d="M2183.8,1609.5h36.2l73.1,123.1l74.2-123.1h34.8l-93.7,156.5v91.9h-30.9V1766L2183.8,1609.5z"/>
		<path class="st2" d="M2391.7,1676.9h30.9l55.7,144.4l53.9-144.4h30.9l-83.4,211.5c-11.4,29.1-18.1,40.5-43.7,40.5h-34.8v-26.6
			h25.9c16.7,0,19.5-4.3,26.3-21.3l8.9-22L2391.7,1676.9z"/>
		<path class="st2" d="M2574.8,1609.5h185.3v22.4l-148.3,197.7h153v28.4h-194.5v-22.4l148.3-197.7h-143.7V1609.5z"/>
		<path class="st2" d="M2783.9,1676.9H2928v22l-110,132.4h114.6v26.6h-153.3v-22l109.7-132.4h-105V1676.9z"/>
	</g>
</g>
<g>
	<g>
		<path class="st3" d="M2255.4,525.5c0-70.6,38.3-120.7,94.4-120.7c55.7,0,94,50,94,120.7v11.4c0,74.2-38.3,120.7-94,120.7
			c-56.1,0-94.4-46.5-94.4-120.7V525.5z M2413.7,526.5c0-58.9-25.6-94.4-63.9-94.4c-38.7,0-64.2,35.5-64.2,94.4v9.2
			c0,58.9,25.6,94.4,64.2,94.4c38.3,0,63.9-35.5,63.9-94.4V526.5z"/>
		<path class="st3" d="M2514.9,406.9h29.1v248.4h-29.8V477.2c-3.5,3.2-9.2,4.6-17,4.6H2457v-26.6h40.5c11.7,0,17.4-8.9,17.4-21.3
			V406.9z"/>
		<path class="st3" d="M2572.7,630.2l96.5-83.8c23.1-19.9,42.2-39,42.2-66c0-31.2-21.3-49-54.3-49c-31.9,0-53.2,21.3-53.2,55.4v4.6
			h-29.8V485c0-46.8,33-80.2,83-80.2c53.6,0,84.8,29.5,84.8,74.2c0,37.3-24.1,60.7-53.6,85.9l-74.5,63.2h129.9v27.3h-171.1V630.2z"
			/>
		<path class="st3" d="M2939.3,586.5c0,42.2-35.5,71-89.4,71s-88.7-29.5-88.7-78.8h29.5c0.4,32.6,25.9,52.2,61,52.2
			c32.3,0,57.1-18.1,57.1-46.5c0-25.9-21.3-42.6-60-42.6h-21.3v-25.9h19.5c36.9,0,55.4-18.5,55.4-43.7c0-25.2-22.7-40.8-52.5-40.8
			c-31.2,0-53.9,18.8-54.3,47.2h-29.5c0.4-43.7,34.4-73.8,83.4-73.8c51.1,0,83.4,26.6,83.4,65.7c0,31.2-16.3,49.3-40.1,55.7
			C2915.5,530.4,2939.3,548.5,2939.3,586.5z"/>
	</g>
</g>
<g class="st4">
	<line class="st5" x1="0" y1="80.5" x2="3000" y2="80.5"/>
	<line class="st5" x1="0" y1="328.5" x2="3000" y2="328.5"/>
	<line class="st5" x1="0" y1="406.9" x2="3000" y2="406.9"/>
	<line class="st5" x1="0" y1="654.5" x2="3000" y2="654.5"/>
	<line class="st5" x1="0" y1="724.5" x2="3000" y2="724.5"/>
	<line class="st5" x1="0" y1="972.5" x2="3000" y2="972.5"/>
	<line class="st5" x1="0" y1="1030.5" x2="3000" y2="1030.5"/>
	<line class="st5" x1="0" y1="1278.5" x2="3000" y2="1278.5"/>
	<line class="st5" x1="0" y1="1327.5" x2="3000" y2="1327.5"/>
	<line class="st5" x1="0" y1="1576.5" x2="3000" y2="1576.5"/>
	<line class="st5" x1="0" y1="1608.5" x2="3000" y2="1608.5"/>
	<line class="st5" x1="480" y1="1857.5" x2="3000" y2="1857.5"/>
</g>
</svg>
