<?xml version="1.0" encoding="utf-8"?>
<!-- Generator: Adobe Illustrator 22.0.0, SVG Export Plug-In . SVG Version: 6.00 Build 0)  -->
<svg version="1.1" id="Layer_1" xmlns="http://www.w3.org/2000/svg" xmlns:xlink="http://www.w3.org/1999/xlink" x="0px" y="0px"
	 viewBox="0 0 3000 2000" style="enable-background:new 0 0 3000 2000;" xml:space="preserve">
<style type="text/css">
	.st0{fill:#101010;}
	.st1{fill:#8E8E8E;}
	.st2{fill:#303030;}
	.st3{fill:#DCDCDC;}
	.st4{fill:#F5F5F5;}
	.st5{fill:#FFFFFF;}
	.st6{fill:#CCB193;}
	.st7{fill:#8F7C67;}
	.st8{fill:#DBC8B3;}
	.st9{fill:#E6D8C9;}
</style>
<g>
	<g>
		<rect x="0" width="3000" height="2000"/>
	</g>
	<g>
		<rect class="st0" width="1195" height="1267"/>
	</g>
	<g>
		<rect x="1195" class="st1" width="1195" height="1267"/>
	</g>
	<g>
		<rect y="1267" width="2776" height="122.2"/>
	</g>
	<g>
		<rect y="1389.2" class="st0" width="2776" height="122.2"/>
	</g>
	<g>
		<rect y="1511.3" class="st2" width="2776" height="122.2"/>
	</g>
	<g>
		<rect y="1633.5" class="st1" width="2776" height="122.2"/>
	</g>
	<g>
		<rect y="1755.7" class="st3" width="2776" height="122.2"/>
	</g>
	<g>
		<rect y="1877.8" class="st4" width="2776" height="122.2"/>
	</g>
	<g>
		<rect x="2390" class="st5" width="386" height="1267"/>
	</g>
	<g>
		<rect x="2776" class="st6" width="224" height="1267"/>
	</g>
	<g>
		<rect x="2776" y="1267" class="st7" width="224" height="244"/>
	</g>
	<g>
		<rect x="2776" y="1512" class="st8" width="224" height="244"/>
	</g>
	<g>
		<rect x="2776" y="1756" class="st9" width="224" height="244"/>
	</g>
	<g>
		<path class="st0" d="M2794.6,65.2c0-8.5,5.2-14.2,13.4-14.2c6.2,0,10.7,3.6,11.8,9.4h-3.7c-1.1-3.9-4-6.2-8.2-6.2
			c-5.9,0-9.6,4.6-9.6,11c0,6.4,3.6,11,9.5,11c4.3,0,7.3-2.3,8.4-6.2h3.7c-1,5.8-5.7,9.4-12,9.4
			C2799.7,79.5,2794.6,73.8,2794.6,65.2z"/>
		<path class="st0" d="M2834.4,51.2h10.7c5.6,0,9.3,3.4,9.3,8.6c0,3.9-2.4,7-6,8l6.3,11.4h-3.9l-5.9-10.8h-7v10.8h-3.5V51.2z
			 M2837.9,54.4v10.8h7c3.7,0,6-2.2,6-5.4c0-3.3-2.4-5.4-6-5.4H2837.9z"/>
		<path class="st0" d="M2858.8,51.2h9.9c6,0,9.3,2.9,9.3,7.4c0,3.2-1.8,5.2-4.4,6.1c3,0.6,5.6,2.5,5.6,6.5c0,5-3.5,8-10.2,8h-10.2
			V51.2z M2862.3,54.4v9h6.6c3.6,0,5.6-1.7,5.6-4.5c0-2.8-2-4.5-5.6-4.5H2862.3z M2862.3,66.5v9.6h6.7c4.3,0,6.6-1.8,6.6-4.7
			c0-3.2-2.4-4.9-6.6-4.9H2862.3z"/>
	</g>
	<g>
		<path class="st0" d="M2794.6,1329.2c0-8.5,5.2-14.2,13.4-14.2c6.2,0,10.7,3.6,11.8,9.4h-3.7c-1.1-3.9-4-6.2-8.2-6.2
			c-5.9,0-9.6,4.6-9.6,11c0,6.4,3.6,11,9.5,11c4.3,0,7.3-2.3,8.4-6.2h3.7c-1,5.8-5.7,9.4-12,9.4
			C2799.7,1343.5,2794.6,1337.8,2794.6,1329.2z"/>
		<path class="st0" d="M2834.4,1343.2v-28h9c8.8,0,14.1,5.6,14.1,14c0,8.4-5.3,14-14.1,14H2834.4z M2837.9,1340h5.5
			c6.8,0,10.5-4.3,10.5-10.8c0-6.6-3.7-10.8-10.5-10.8h-5.5V1340z"/>
		<path class="st0" d="M2861.8,1315.2h10.7c5.6,0,9.3,3.4,9.3,8.6c0,3.9-2.4,7-6,8l6.3,11.4h-3.9l-5.9-10.8h-7v10.8h-3.5V1315.2z
			 M2865.3,1318.4v10.8h7c3.7,0,6-2.2,6-5.4s-2.4-5.4-6-5.4H2865.3z"/>
		<path class="st0" d="M2886.3,1315.2h9.9c6,0,9.3,2.9,9.3,7.4c0,3.2-1.8,5.2-4.4,6.1c3,0.6,5.6,2.5,5.6,6.5c0,5-3.5,8-10.2,8h-10.2
			V1315.2z M2889.8,1318.4v9h6.6c3.6,0,5.6-1.7,5.6-4.5c0-2.8-2-4.5-5.6-4.5H2889.8z M2889.8,1330.5v9.6h6.7c4.3,0,6.6-1.8,6.6-4.7
			c0-3.2-2.4-4.9-6.6-4.9H2889.8z"/>
	</g>
	<g>
		<path class="st0" d="M2794.6,1575.2c0-8.5,5.2-14.2,13.4-14.2c6.2,0,10.7,3.6,11.8,9.4h-3.7c-1.1-3.9-4-6.2-8.2-6.2
			c-5.9,0-9.6,4.6-9.6,11c0,6.4,3.6,11,9.5,11c4.3,0,7.3-2.3,8.4-6.2h3.7c-1,5.8-5.7,9.4-12,9.4
			C2799.7,1589.5,2794.6,1583.8,2794.6,1575.2z"/>
		<path class="st0" d="M2834.4,1589.2v-28h3.5v24.8h12.8v3.2H2834.4z"/>
		<path class="st0" d="M2854.2,1561.2h10.7c5.6,0,9.3,3.4,9.3,8.6c0,3.9-2.4,7-6,8l6.3,11.4h-3.9l-5.9-10.8h-7v10.8h-3.5V1561.2z
			 M2857.6,1564.4v10.8h7c3.7,0,6-2.2,6-5.4s-2.4-5.4-6-5.4H2857.6z"/>
		<path class="st0" d="M2878.6,1561.2h9.9c6,0,9.3,2.9,9.3,7.4c0,3.2-1.8,5.2-4.4,6.1c3,0.6,5.6,2.5,5.6,6.5c0,5-3.5,8-10.2,8h-10.2
			V1561.2z M2882.1,1564.4v9h6.6c3.6,0,5.6-1.7,5.6-4.5c0-2.8-2-4.5-5.6-4.5H2882.1z M2882.1,1576.5v9.6h6.7c4.3,0,6.6-1.8,6.6-4.7
			c0-3.2-2.4-4.9-6.6-4.9H2882.1z"/>
	</g>
	<g>
		<path class="st0" d="M2794.6,1819.2c0-8.5,5.2-14.2,13.4-14.2c6.2,0,10.7,3.6,11.8,9.4h-3.7c-1.1-3.9-4-6.2-8.2-6.2
			c-5.9,0-9.6,4.6-9.6,11c0,6.4,3.6,11,9.5,11c4.3,0,7.3-2.3,8.4-6.2h3.7c-1,5.8-5.7,9.4-12,9.4
			C2799.7,1833.5,2794.6,1827.8,2794.6,1819.2z"/>
		<path class="st0" d="M2834.4,1833.2v-28h3.5v24.8h12.8v3.2H2834.4z"/>
		<path class="st0" d="M2854.2,1805.2h10.7c5.6,0,9.3,3.4,9.3,8.6c0,3.9-2.4,7-6,8l6.3,11.4h-3.9l-5.9-10.8h-7v10.8h-3.5V1805.2z
			 M2857.6,1808.4v10.8h7c3.7,0,6-2.2,6-5.4s-2.4-5.4-6-5.4H2857.6z"/>
		<path class="st0" d="M2878.6,1805.2h10.7c5.6,0,9.3,3.4,9.3,8.6c0,3.9-2.4,7-6,8l6.3,11.4h-3.9l-5.9-10.8h-7v10.8h-3.5V1805.2z
			 M2882.1,1808.4v10.8h7c3.7,0,6-2.2,6-5.4s-2.4-5.4-6-5.4H2882.1z"/>
		<path class="st0" d="M2903,1805.2h9.9c6,0,9.3,2.9,9.3,7.4c0,3.2-1.8,5.2-4.4,6.1c3,0.6,5.6,2.5,5.6,6.5c0,5-3.5,8-10.2,8H2903
			V1805.2z M2906.5,1808.4v9h6.6c3.6,0,5.6-1.7,5.6-4.5c0-2.8-2-4.5-5.6-4.5H2906.5z M2906.5,1820.5v9.6h6.7c4.3,0,6.6-1.8,6.6-4.7
			c0-3.2-2.4-4.9-6.6-4.9H2906.5z"/>
	</g>
	<g>
		<path class="st0" d="M2418,65.2c0-8.5,5.2-14.2,13.4-14.2c6.2,0,10.7,3.6,11.8,9.4h-3.7c-1.1-3.9-4-6.2-8.2-6.2
			c-5.9,0-9.6,4.6-9.6,11c0,6.4,3.6,11,9.5,11c4.3,0,7.3-2.3,8.4-6.2h3.7c-1,5.8-5.7,9.4-12,9.4C2423.1,79.5,2418,73.8,2418,65.2z"
			/>
		<path class="st0" d="M2455.7,51.2h3.6l6.6,23.5l6.9-23.5h3.5l6.6,23.5l6.6-23.5h3.6l-8.2,28h-4.2l-6.4-22.2l-6.4,22.2h-4.2
			L2455.7,51.2z"/>
		<path class="st0" d="M2514.3,67.9v11.4h-3.3V68.1c0-4.2-2-6.5-5.6-6.5c-3.8,0-6.2,2.8-6.2,7.4v10.2h-3.3v-28h3.3v11
			c1.2-1.9,3.3-3.6,6.7-3.6C2510.6,58.6,2514.3,61.1,2514.3,67.9z"/>
		<path class="st0" d="M2518.1,53.3c0-1.2,0.9-2.1,2.1-2.1c1.2,0,2.1,0.9,2.1,2.1s-0.9,2.1-2.1,2.1
			C2519,55.4,2518.1,54.5,2518.1,53.3z M2518.5,58.8h3.3v20.4h-3.3V58.8z"/>
		<path class="st0" d="M2527.8,61.8h-3.7v-3h3.7v-5.7h3.3v5.7h5.3v3h-5.3v12c0,1.7,0.6,2.4,2.4,2.4h3.2v3h-3.6
			c-3.9,0-5.3-1.7-5.3-5.3V61.8z"/>
		<path class="st0" d="M2538.3,69c0-6.2,3.9-10.4,9.7-10.4s9.5,3.6,9.7,9.7c0,0.4,0,0.9-0.1,1.4h-15.8v0.3c0.1,3.9,2.6,6.6,6.4,6.6
			c2.9,0,5.1-1.5,5.8-4.2h3.3c-0.8,4.1-4.2,7.1-8.9,7.1C2542.3,79.5,2538.3,75.3,2538.3,69z M2554.1,66.9c-0.3-3.5-2.7-5.5-6.1-5.5
			c-3,0-5.8,2.2-6.1,5.5H2554.1z"/>
	</g>
	<g>
		<path class="st0" d="M1228.4,65.2c0-8.5,5.2-14.2,13.4-14.2c6.2,0,10.7,3.6,11.8,9.4h-3.7c-1.1-3.9-4-6.2-8.2-6.2
			c-5.9,0-9.6,4.6-9.6,11c0,6.4,3.6,11,9.5,11c4.3,0,7.3-2.3,8.4-6.2h3.7c-1,5.8-5.7,9.4-12,9.4
			C1233.4,79.5,1228.4,73.8,1228.4,65.2z"/>
		<path class="st0" d="M1267.1,65.2c0-8.5,5.2-14.2,13.4-14.2c6.2,0,10.9,3.6,11.8,9.4h-3.7c-1-3.9-4-6.2-8.2-6.2
			c-5.9,0-9.7,4.6-9.7,11s3.8,11,9.6,11c5.2,0,8.9-3.1,8.9-8v-1h-8.4v-3.2h11.8v15.2h-3l-0.2-4.1c-1.3,2-4.3,4.3-9.1,4.3
			C1272.5,79.5,1267.1,73.7,1267.1,65.2z"/>
		<path class="st0" d="M1307.9,58.8V62h-1.6c-4.3,0-5.4,3.6-5.4,6.8v10.4h-3.3V58.8h2.8l0.4,3.1c1-1.6,2.5-3.1,6.2-3.1H1307.9z"/>
		<path class="st0" d="M1308.9,69c0-6.2,3.9-10.4,9.7-10.4s9.5,3.6,9.7,9.7c0,0.4,0,0.9-0.1,1.4h-15.8v0.3c0.1,3.9,2.6,6.6,6.4,6.6
			c2.9,0,5.1-1.5,5.8-4.2h3.3c-0.8,4.1-4.2,7.1-8.9,7.1C1312.9,79.5,1308.9,75.3,1308.9,69z M1324.7,66.9c-0.3-3.5-2.7-5.5-6.1-5.5
			c-3,0-5.8,2.2-6.1,5.5H1324.7z"/>
		<path class="st0" d="M1329.1,58.8h3.5l6.3,16.3l6.1-16.3h3.5l-9.4,23.8c-1.3,3.3-2,4.6-4.9,4.6h-3.9v-3h2.9c1.9,0,2.2-0.5,3-2.4
			l1-2.5L1329.1,58.8z"/>
	</g>
	<g>
		<path class="st5" d="M32.5,65.2c0-8.5,5.2-14.2,13.4-14.2c6.2,0,10.7,3.6,11.8,9.4h-3.7c-1.1-3.9-4-6.2-8.2-6.2
			c-5.9,0-9.6,4.6-9.6,11c0,6.4,3.6,11,9.5,11c4.3,0,7.3-2.3,8.4-6.2h3.7c-1,5.8-5.7,9.4-12,9.4C37.5,79.5,32.5,73.8,32.5,65.2z"/>
		<path class="st5" d="M72.2,51.2h9.9c6,0,9.3,2.9,9.3,7.4c0,3.2-1.8,5.2-4.4,6.1c3,0.6,5.6,2.5,5.6,6.5c0,5-3.5,8-10.2,8H72.2V51.2
			z M75.7,54.4v9h6.6c3.6,0,5.6-1.7,5.6-4.5c0-2.8-2-4.5-5.6-4.5H75.7z M75.7,66.5v9.6h6.7c4.3,0,6.6-1.8,6.6-4.7
			c0-3.2-2.4-4.9-6.6-4.9H75.7z"/>
		<path class="st5" d="M96.5,51.2h3.3v28h-3.3V51.2z"/>
		<path class="st5" d="M123.3,76.2v3h-1.8c-2.7,0-3.6-1.2-3.7-3.2c-1.3,1.8-3.3,3.4-6.8,3.4c-4.5,0-7.5-2.2-7.5-6
			c0-4.1,2.8-6.4,8.2-6.4h6v-1.4c0-2.6-1.9-4.2-5.1-4.2c-2.9,0-4.8,1.4-5.2,3.4h-3.3c0.5-4,3.7-6.4,8.6-6.4c5.2,0,8.2,2.6,8.2,7.4
			v8.9c0,1.1,0.4,1.4,1.3,1.4H123.3z M117.7,69.9h-6.3c-2.9,0-4.6,1.1-4.6,3.4c0,2,1.7,3.4,4.4,3.4c4.1,0,6.4-2.4,6.4-5.8V69.9z"/>
		<path class="st5" d="M124.9,69.1c0-6.2,4-10.5,10-10.5c5,0,8.2,2.8,9,7.3h-3.4c-0.6-2.7-2.6-4.4-5.6-4.4c-3.9,0-6.6,3.1-6.6,7.6
			c0,4.4,2.6,7.5,6.6,7.5c2.9,0,4.9-1.7,5.6-4.3h3.5c-0.8,4.4-4.1,7.2-9.1,7.2C128.8,79.5,124.9,75.4,124.9,69.1z"/>
		<path class="st5" d="M147.4,51.2h3.3v18.4L161,58.8h4l-8,8.4l8.5,12h-4l-6.8-9.6l-4.1,4.2v5.4h-3.3V51.2z"/>
	</g>
	<g>
		<path class="st5" d="M32.5,1446.2c0-8.5,5.2-14.2,13.4-14.2c6.2,0,10.7,3.6,11.8,9.4h-3.7c-1.1-3.9-4-6.2-8.2-6.2
			c-5.9,0-9.6,4.6-9.6,11c0,6.4,3.6,11,9.5,11c4.3,0,7.3-2.3,8.4-6.2h3.7c-1,5.8-5.7,9.4-12,9.4
			C37.5,1460.5,32.5,1454.8,32.5,1446.2z"/>
		<path class="st5" d="M72.2,1432.2h9.9c6,0,9.3,2.9,9.3,7.4c0,3.2-1.8,5.2-4.4,6.1c3,0.6,5.6,2.5,5.6,6.5c0,5-3.5,8-10.2,8H72.2
			V1432.2z M75.7,1435.4v9h6.6c3.6,0,5.6-1.7,5.6-4.5c0-2.8-2-4.5-5.6-4.5H75.7z M75.7,1447.5v9.6h6.7c4.3,0,6.6-1.8,6.6-4.7
			c0-3.2-2.4-4.9-6.6-4.9H75.7z"/>
		<path class="st5" d="M96.5,1432.2h3.3v28h-3.3V1432.2z"/>
		<path class="st5" d="M123.3,1457.2v3h-1.8c-2.7,0-3.6-1.2-3.7-3.2c-1.3,1.8-3.3,3.4-6.8,3.4c-4.5,0-7.5-2.2-7.5-6
			c0-4.1,2.8-6.4,8.2-6.4h6v-1.4c0-2.6-1.9-4.2-5.1-4.2c-2.9,0-4.8,1.4-5.2,3.4h-3.3c0.5-4,3.7-6.4,8.6-6.4c5.2,0,8.2,2.6,8.2,7.4
			v8.9c0,1.1,0.4,1.4,1.3,1.4H123.3z M117.7,1450.9h-6.3c-2.9,0-4.6,1.1-4.6,3.4c0,2,1.7,3.4,4.4,3.4c4.1,0,6.4-2.4,6.4-5.8V1450.9z
			"/>
		<path class="st5" d="M124.9,1450.1c0-6.2,4-10.5,10-10.5c5,0,8.2,2.8,9,7.3h-3.4c-0.6-2.7-2.6-4.4-5.6-4.4c-3.9,0-6.6,3.1-6.6,7.6
			c0,4.4,2.6,7.5,6.6,7.5c2.9,0,4.9-1.7,5.6-4.3h3.5c-0.8,4.4-4.1,7.2-9.1,7.2C128.8,1460.5,124.9,1456.4,124.9,1450.1z"/>
		<path class="st5" d="M147.4,1432.2h3.3v18.4l10.2-10.8h4l-8,8.4l8.5,12h-4l-6.8-9.6l-4.1,4.2v5.4h-3.3V1432.2z"/>
	</g>
	<g>
		<path class="st5" d="M32.5,1575.2c0-8.5,5.2-14.2,13.4-14.2c6.2,0,10.7,3.6,11.8,9.4h-3.7c-1.1-3.9-4-6.2-8.2-6.2
			c-5.9,0-9.6,4.6-9.6,11c0,6.4,3.6,11,9.5,11c4.3,0,7.3-2.3,8.4-6.2h3.7c-1,5.8-5.7,9.4-12,9.4
			C37.5,1589.5,32.5,1583.8,32.5,1575.2z"/>
		<path class="st5" d="M72.2,1561.2h9.9c6,0,9.3,2.9,9.3,7.4c0,3.2-1.8,5.2-4.4,6.1c3,0.6,5.6,2.5,5.6,6.5c0,5-3.5,8-10.2,8H72.2
			V1561.2z M75.7,1564.4v9h6.6c3.6,0,5.6-1.7,5.6-4.5c0-2.8-2-4.5-5.6-4.5H75.7z M75.7,1576.5v9.6h6.7c4.3,0,6.6-1.8,6.6-4.7
			c0-3.2-2.4-4.9-6.6-4.9H75.7z"/>
		<path class="st5" d="M96.5,1561.2h3.3v28h-3.3V1561.2z"/>
		<path class="st5" d="M123.3,1586.2v3h-1.8c-2.7,0-3.6-1.2-3.7-3.2c-1.3,1.8-3.3,3.4-6.8,3.4c-4.5,0-7.5-2.2-7.5-6
			c0-4.1,2.8-6.4,8.2-6.4h6v-1.4c0-2.6-1.9-4.2-5.1-4.2c-2.9,0-4.8,1.4-5.2,3.4h-3.3c0.5-4,3.7-6.4,8.6-6.4c5.2,0,8.2,2.6,8.2,7.4
			v8.9c0,1.1,0.4,1.4,1.3,1.4H123.3z M117.7,1579.9h-6.3c-2.9,0-4.6,1.1-4.6,3.4c0,2,1.7,3.4,4.4,3.4c4.1,0,6.4-2.4,6.4-5.8V1579.9z
			"/>
		<path class="st5" d="M124.9,1579.1c0-6.2,4-10.5,10-10.5c5,0,8.2,2.8,9,7.3h-3.4c-0.6-2.7-2.6-4.4-5.6-4.4c-3.9,0-6.6,3.1-6.6,7.6
			c0,4.4,2.6,7.5,6.6,7.5c2.9,0,4.9-1.7,5.6-4.3h3.5c-0.8,4.4-4.1,7.2-9.1,7.2C128.8,1589.5,124.9,1585.4,124.9,1579.1z"/>
		<path class="st5" d="M147.4,1561.2h3.3v18.4l10.2-10.8h4l-8,8.4l8.5,12h-4l-6.8-9.6l-4.1,4.2v5.4h-3.3V1561.2z"/>
	</g>
	<g>
		<path class="st5" d="M32.5,1695.2c0-8.5,5.2-14.2,13.4-14.2c6.2,0,10.7,3.6,11.8,9.4h-3.7c-1.1-3.9-4-6.2-8.2-6.2
			c-5.9,0-9.6,4.6-9.6,11c0,6.4,3.6,11,9.5,11c4.3,0,7.3-2.3,8.4-6.2h3.7c-1,5.8-5.7,9.4-12,9.4
			C37.5,1709.5,32.5,1703.8,32.5,1695.2z"/>
		<path class="st5" d="M72.2,1709.2v-28h9c8.8,0,14.1,5.6,14.1,14c0,8.4-5.3,14-14.1,14H72.2z M75.7,1706h5.5
			c6.8,0,10.5-4.3,10.5-10.8c0-6.6-3.7-10.8-10.5-10.8h-5.5V1706z"/>
		<path class="st5" d="M118.3,1706.2v3h-1.8c-2.7,0-3.6-1.2-3.7-3.2c-1.3,1.8-3.3,3.4-6.8,3.4c-4.5,0-7.5-2.2-7.5-6
			c0-4.1,2.8-6.4,8.2-6.4h6v-1.4c0-2.6-1.9-4.2-5.1-4.2c-2.9,0-4.8,1.4-5.2,3.4h-3.3c0.5-4,3.7-6.4,8.6-6.4c5.2,0,8.2,2.6,8.2,7.4
			v8.9c0,1.1,0.4,1.4,1.3,1.4H118.3z M112.6,1699.9h-6.3c-2.9,0-4.6,1.1-4.6,3.4c0,2,1.7,3.4,4.4,3.4c4.1,0,6.4-2.4,6.4-5.8V1699.9z
			"/>
		<path class="st5" d="M131.2,1688.8v3.2h-1.6c-4.3,0-5.4,3.6-5.4,6.8v10.4h-3.3v-20.4h2.8l0.4,3.1c1-1.6,2.5-3.1,6.2-3.1H131.2z"/>
		<path class="st5" d="M134,1681.2h3.3v18.4l10.2-10.8h4l-8,8.4l8.5,12h-4l-6.8-9.6l-4.1,4.2v5.4H134V1681.2z"/>
		<path class="st5" d="M164.4,1695.2c0-8.5,5.2-14.2,13.4-14.2c6.2,0,10.9,3.6,11.8,9.4h-3.7c-1-3.9-4-6.2-8.2-6.2
			c-5.9,0-9.7,4.6-9.7,11c0,6.5,3.8,11,9.6,11c5.2,0,8.9-3.1,8.9-8v-1H178v-3.2h11.8v15.2h-3l-0.2-4.1c-1.3,2-4.3,4.3-9.1,4.3
			C169.8,1709.5,164.4,1703.7,164.4,1695.2z"/>
		<path class="st5" d="M205.2,1688.8v3.2h-1.6c-4.3,0-5.4,3.6-5.4,6.8v10.4h-3.3v-20.4h2.8l0.4,3.1c1-1.6,2.5-3.1,6.2-3.1H205.2z"/>
		<path class="st5" d="M206.1,1699c0-6.2,3.9-10.4,9.7-10.4s9.5,3.6,9.7,9.7c0,0.4,0,0.9-0.1,1.4h-15.8v0.3c0.1,3.9,2.6,6.6,6.4,6.6
			c2.9,0,5.1-1.5,5.8-4.2h3.3c-0.8,4.1-4.2,7.1-8.9,7.1C210.1,1709.5,206.1,1705.3,206.1,1699z M222,1696.9
			c-0.3-3.5-2.7-5.5-6.1-5.5c-3,0-5.8,2.2-6.1,5.5H222z"/>
		<path class="st5" d="M226.3,1688.8h3.5l6.3,16.3l6.1-16.3h3.5l-9.4,23.8c-1.3,3.3-2,4.6-4.9,4.6h-3.9v-3h2.9c1.9,0,2.2-0.5,3-2.4
			l1-2.5L226.3,1688.8z"/>
	</g>
	<g>
		<g>
			<path class="st0" d="M32.5,1819.2c0-8.5,5.2-14.2,13.4-14.2c6.2,0,10.7,3.6,11.8,9.4h-3.7c-1.1-3.9-4-6.2-8.2-6.2
				c-5.9,0-9.6,4.6-9.6,11c0,6.4,3.6,11,9.5,11c4.3,0,7.3-2.3,8.4-6.2h3.7c-1,5.8-5.7,9.4-12,9.4
				C37.5,1833.5,32.5,1827.8,32.5,1819.2z"/>
			<path class="st0" d="M72.2,1833.2v-28h3.5v24.8h12.8v3.2H72.2z"/>
			<path class="st0" d="M91.1,1807.3c0-1.2,0.9-2.1,2.1-2.1c1.2,0,2.1,0.9,2.1,2.1c0,1.2-0.9,2.1-2.1,2.1
				C92,1809.4,91.1,1808.5,91.1,1807.3z M91.5,1812.8h3.3v20.4h-3.3V1812.8z"/>
			<path class="st0" d="M115.8,1812.8h2.8v19.4c0,5.9-3.1,9.2-10.1,9.2c-5.2,0-8.8-2.4-9.4-6.9h3.4c0.6,2.6,2.8,4,6.2,4
				c4.3,0,6.6-2,6.6-6.4v-2.4c-1.4,2.3-3.6,3.8-7,3.8c-5.6,0-9.8-3.8-9.8-10.4c0-6.2,4.2-10.4,9.8-10.4c3.4,0,5.7,1.5,7,3.8
				L115.8,1812.8z M115.4,1823.1c0-4.5-2.7-7.6-6.7-7.6c-4,0-6.8,3.1-6.8,7.5s2.7,7.5,6.8,7.5
				C112.7,1830.5,115.4,1827.5,115.4,1823.1z"/>
			<path class="st0" d="M141.4,1821.9v11.4h-3.3v-11.2c0-4.2-2-6.5-5.6-6.5c-3.8,0-6.2,2.8-6.2,7.4v10.2h-3.3v-28h3.3v11
				c1.2-1.9,3.3-3.6,6.7-3.6C137.7,1812.6,141.4,1815.1,141.4,1821.9z"/>
			<path class="st0" d="M147.1,1815.8h-3.7v-3h3.7v-5.7h3.3v5.7h5.3v3h-5.3v12c0,1.7,0.6,2.4,2.4,2.4h3.2v3h-3.6
				c-3.9,0-5.3-1.7-5.3-5.3V1815.8z"/>
			<path class="st0" d="M168.8,1819.2c0-8.5,5.2-14.2,13.4-14.2c6.2,0,10.9,3.6,11.8,9.4h-3.7c-1-3.9-4-6.2-8.2-6.2
				c-5.9,0-9.7,4.6-9.7,11c0,6.5,3.8,11,9.6,11c5.2,0,8.9-3.1,8.9-8v-1h-8.4v-3.2h11.8v15.2h-3l-0.2-4.1c-1.3,2-4.3,4.3-9.1,4.3
				C174.2,1833.5,168.8,1827.7,168.8,1819.2z"/>
			<path class="st0" d="M209.6,1812.8v3.2h-1.6c-4.3,0-5.4,3.6-5.4,6.8v10.4h-3.3v-20.4h2.8l0.4,3.1c1-1.6,2.5-3.1,6.2-3.1H209.6z"
				/>
			<path class="st0" d="M210.5,1823c0-6.2,3.9-10.4,9.7-10.4s9.5,3.6,9.7,9.7c0,0.4,0,0.9-0.1,1.4H214v0.3c0.1,3.9,2.6,6.6,6.4,6.6
				c2.9,0,5.1-1.5,5.8-4.2h3.3c-0.8,4.1-4.2,7.1-8.9,7.1C214.5,1833.5,210.5,1829.3,210.5,1823z M226.4,1820.9
				c-0.3-3.5-2.7-5.5-6.1-5.5c-3,0-5.8,2.2-6.1,5.5H226.4z"/>
			<path class="st0" d="M230.7,1812.8h3.5l6.3,16.3l6.1-16.3h3.5l-9.4,23.8c-1.3,3.3-2,4.6-4.9,4.6h-3.9v-3h2.9c1.9,0,2.2-0.5,3-2.4
				l1-2.5L230.7,1812.8z"/>
		</g>
	</g>
	<g>
		<g>
			<path class="st0" d="M32.5,1943.2c0-8.5,5.2-14.2,13.4-14.2c6.2,0,10.7,3.6,11.8,9.4h-3.7c-1.1-3.9-4-6.2-8.2-6.2
				c-5.9,0-9.6,4.6-9.6,11c0,6.4,3.6,11,9.5,11c4.3,0,7.3-2.3,8.4-6.2h3.7c-1,5.8-5.7,9.4-12,9.4
				C37.5,1957.5,32.5,1951.8,32.5,1943.2z"/>
			<path class="st0" d="M72.2,1957.2v-28h3.5v24.8h12.8v3.2H72.2z"/>
			<path class="st0" d="M91.1,1931.3c0-1.2,0.9-2.1,2.1-2.1c1.2,0,2.1,0.9,2.1,2.1c0,1.2-0.9,2.1-2.1,2.1
				C92,1933.4,91.1,1932.5,91.1,1931.3z M91.5,1936.8h3.3v20.4h-3.3V1936.8z"/>
			<path class="st0" d="M115.8,1936.8h2.8v19.4c0,5.9-3.1,9.2-10.1,9.2c-5.2,0-8.8-2.4-9.4-6.9h3.4c0.6,2.6,2.8,4,6.2,4
				c4.3,0,6.6-2,6.6-6.4v-2.4c-1.4,2.3-3.6,3.8-7,3.8c-5.6,0-9.8-3.8-9.8-10.4c0-6.2,4.2-10.4,9.8-10.4c3.4,0,5.7,1.5,7,3.8
				L115.8,1936.8z M115.4,1947.1c0-4.5-2.7-7.6-6.7-7.6c-4,0-6.8,3.1-6.8,7.5s2.7,7.5,6.8,7.5
				C112.7,1954.5,115.4,1951.5,115.4,1947.1z"/>
			<path class="st0" d="M141.4,1945.9v11.4h-3.3v-11.2c0-4.2-2-6.5-5.6-6.5c-3.8,0-6.2,2.8-6.2,7.4v10.2h-3.3v-28h3.3v11
				c1.2-1.9,3.3-3.6,6.7-3.6C137.7,1936.6,141.4,1939.1,141.4,1945.9z"/>
			<path class="st0" d="M147.1,1939.8h-3.7v-3h3.7v-5.7h3.3v5.7h5.3v3h-5.3v12c0,1.7,0.6,2.4,2.4,2.4h3.2v3h-3.6
				c-3.9,0-5.3-1.7-5.3-5.3V1939.8z"/>
			<path class="st0" d="M157.6,1947c0-6.2,3.9-10.4,9.7-10.4s9.5,3.6,9.7,9.7c0,0.4,0,0.9-0.1,1.4H161v0.3c0.1,3.9,2.6,6.6,6.4,6.6
				c2.9,0,5.1-1.5,5.8-4.2h3.3c-0.8,4.1-4.2,7.1-8.9,7.1C161.6,1957.5,157.6,1953.3,157.6,1947z M173.4,1944.9
				c-0.3-3.5-2.7-5.5-6.1-5.5c-3,0-5.8,2.2-6.1,5.5H173.4z"/>
			<path class="st0" d="M191.1,1936.8v3.2h-1.6c-4.3,0-5.4,3.6-5.4,6.8v10.4h-3.3v-20.4h2.8l0.4,3.1c1-1.6,2.5-3.1,6.2-3.1H191.1z"
				/>
			<path class="st0" d="M203.8,1943.2c0-8.5,5.2-14.2,13.4-14.2c6.2,0,10.9,3.6,11.8,9.4h-3.7c-1-3.9-4-6.2-8.2-6.2
				c-5.9,0-9.7,4.6-9.7,11c0,6.5,3.8,11,9.6,11c5.2,0,8.9-3.1,8.9-8v-1h-8.4v-3.2h11.8v15.2h-3l-0.2-4.1c-1.3,2-4.3,4.3-9.1,4.3
				C209.2,1957.5,203.8,1951.7,203.8,1943.2z"/>
			<path class="st0" d="M244.6,1936.8v3.2H243c-4.3,0-5.4,3.6-5.4,6.8v10.4h-3.3v-20.4h2.8l0.4,3.1c1-1.6,2.5-3.1,6.2-3.1H244.6z"/>
			<path class="st0" d="M245.6,1947c0-6.2,3.9-10.4,9.7-10.4s9.5,3.6,9.7,9.7c0,0.4,0,0.9-0.1,1.4H249v0.3c0.1,3.9,2.6,6.6,6.4,6.6
				c2.9,0,5.1-1.5,5.8-4.2h3.3c-0.8,4.1-4.2,7.1-8.9,7.1C249.6,1957.5,245.6,1953.3,245.6,1947z M261.4,1944.9
				c-0.3-3.5-2.7-5.5-6.1-5.5c-3,0-5.8,2.2-6.1,5.5H261.4z"/>
			<path class="st0" d="M265.8,1936.8h3.5l6.3,16.3l6.1-16.3h3.5l-9.4,23.8c-1.3,3.3-2,4.6-4.9,4.6h-3.9v-3h2.9c1.9,0,2.2-0.5,3-2.4
				l1-2.5L265.8,1936.8z"/>
		</g>
	</g>
	<g>
		<path class="st5" d="M33.5,1315.2h9.9c6,0,9.3,2.9,9.3,7.4c0,3.2-1.8,5.2-4.4,6.1c3,0.6,5.6,2.5,5.6,6.5c0,5-3.5,8-10.2,8H33.5
			V1315.2z M37,1318.4v9h6.6c3.6,0,5.6-1.7,5.6-4.5c0-2.8-2-4.5-5.6-4.5H37z M37,1330.5v9.6h6.7c4.3,0,6.6-1.8,6.6-4.7
			c0-3.2-2.4-4.9-6.6-4.9H37z"/>
		<path class="st5" d="M57.8,1315.2H61v28h-3.3V1315.2z"/>
		<path class="st5" d="M84.6,1340.2v3h-1.8c-2.7,0-3.6-1.2-3.7-3.2c-1.3,1.8-3.3,3.4-6.8,3.4c-4.5,0-7.5-2.2-7.5-6
			c0-4.1,2.8-6.4,8.2-6.4h6v-1.4c0-2.6-1.9-4.2-5.1-4.2c-2.9,0-4.8,1.4-5.2,3.4h-3.3c0.5-4,3.7-6.4,8.6-6.4c5.2,0,8.2,2.6,8.2,7.4
			v8.9c0,1.1,0.4,1.4,1.3,1.4H84.6z M79,1333.9h-6.3c-2.9,0-4.6,1.1-4.6,3.4c0,2,1.7,3.4,4.4,3.4c4.1,0,6.4-2.4,6.4-5.8V1333.9z"/>
		<path class="st5" d="M86.2,1333.1c0-6.2,4-10.5,10-10.5c5,0,8.2,2.8,9,7.3h-3.4c-0.6-2.7-2.6-4.4-5.6-4.4c-3.9,0-6.6,3.1-6.6,7.6
			c0,4.4,2.6,7.5,6.6,7.5c2.9,0,4.9-1.7,5.6-4.3h3.5c-0.8,4.4-4.1,7.2-9.1,7.2C90.1,1343.5,86.2,1339.4,86.2,1333.1z"/>
		<path class="st5" d="M108.7,1315.2h3.3v18.4l10.2-10.8h4l-8,8.4l8.5,12h-4l-6.8-9.6l-4.1,4.2v5.4h-3.3V1315.2z"/>
	</g>
</g>
</svg>
