<?xml version="1.0" encoding="utf-8"?>
<!-- Generator: Adobe Illustrator 22.0.0, SVG Export Plug-In . SVG Version: 6.00 Build 0)  -->
<svg version="1.1" id="Layer_1" xmlns="http://www.w3.org/2000/svg" xmlns:xlink="http://www.w3.org/1999/xlink" x="0px" y="0px"
	 viewBox="0 0 3000 2000" style="enable-background:new 0 0 3000 2000;" xml:space="preserve">
<style type="text/css">
	.st0{fill:#E7E7E7;}
	.st1{fill:#101010;}
	.st2{opacity:0.2;}
</style>
<g>
	<rect class="st0" width="3000" height="2000"/>
</g>
<g>
	<g>
		<path class="st1" d="M69.6,1067.4c0-83.8,51.5-140.1,133-140.1c62.9,0,108.2,37.8,117.2,96H273c-9-34.6-35-56.3-72.4-56.3
			c-52.3,0-84.6,41.3-84.6,100.3c0,58.6,31.5,100.3,83.4,100.3c38.2,0,64.5-21.2,73.2-56.3h46.8c-8.7,58.2-55.5,96-119.6,96
			C119.6,1207.5,69.6,1152,69.6,1067.4z"/>
		<path class="st1" d="M345,1104.4c0-61.4,41.3-103.1,102.7-103.1s102.7,41.7,102.7,103.1c0,61.8-41.3,103.1-102.7,103.1
			S345,1166.2,345,1104.4z M507.1,1104.4c0-38.9-23.6-66.9-59.4-66.9s-59,27.9-59,66.9s23.2,66.9,59,66.9S507.1,1143.3,507.1,1104.4
			z"/>
		<path class="st1" d="M891.8,1089.1v116.1h-42.5v-113.3c0-35.4-14.6-53.9-42.1-53.9c-29.1,0-47.6,22-47.6,58.2v109h-42.9v-113.3
			c0-35.4-14.6-53.9-42.5-53.9c-29.1,0-47.2,23.6-47.2,59.4v107.8h-42.5v-201.4h37l4.7,26.4c11.4-14.9,28.7-28.3,59-28.7
			c26.4,0,50,10.6,62.2,36.6c13-22,35.8-36.6,68.9-36.6C858,1001.3,891.8,1025.3,891.8,1089.1z"/>
		<path class="st1" d="M1133.4,1104.4c0,62.2-40.1,103.1-95.2,103.1c-31.1,0-52.7-12.6-65.3-30.7v107h-42.5v-280.1h37l5.1,29.9
			c13.4-17.7,34.2-32.3,65.7-32.3C1093.2,1001.3,1133.4,1039.9,1133.4,1104.4z M1090.1,1104.4c0-39.7-23.6-66.9-59-66.9
			s-58.6,27.1-58.6,66.1c0,40.1,23.2,68.1,58.6,68.1C1066.5,1171.7,1090.1,1143.7,1090.1,1104.4z"/>
		<path class="st1" d="M1167.6,929.7h42.5v275.4h-42.5V929.7z"/>
		<path class="st1" d="M1247.4,949.8c0-15,11.4-25.6,26-25.6s26,10.6,26,25.6s-11.4,25.6-26,25.6S1247.4,964.7,1247.4,949.8z
			 M1251.7,1003.7h42.5v201.4h-42.5V1003.7z"/>
		<path class="st1" d="M1528.7,1168.1v37h-22.4c-27.5,0-37-12.2-37-32.3c-13.4,20.5-33.8,34.6-66.5,34.6c-44.1,0-74.8-21.6-74.8-59
			c0-41.3,29.9-64.5,86.2-64.5h50.8v-12.2c0-22.4-16.1-36.2-44.1-36.2c-25.2,0-42.1,11.8-45.2,29.5H1334
			c4.3-39.3,38.2-63.7,88.9-63.7c53.5,0,84.2,25.6,84.2,73.2v80.7c0,10.2,4.3,13,13,13L1528.7,1168.1L1528.7,1168.1z M1465,1115.4
			h-52.7c-26.4,0-40.9,9.8-40.9,30.3c0,16.9,14.2,28.7,37.4,28.7c35.4,0,55.9-20.9,56.3-51.9v-7.1H1465z"/>
		<path class="st1" d="M1739.2,1093v112.1h-42.9v-108.6c0-38.2-16.1-58.6-48-58.6c-33.8,0-53.9,24.8-53.9,65.7v101.5h-42.5v-201.4
			h37l4.7,26.4c12.6-15.7,31.9-28.7,64.5-28.7C1702.6,1001.3,1739.2,1025.7,1739.2,1093z"/>
		<path class="st1" d="M1768.7,1104.8c0-62.2,40.1-103.5,101.1-103.5c51.9,0,84.2,28.7,92.5,74.4h-44.5
			c-5.5-23.6-22.4-38.2-48.8-38.2c-34.2,0-56.7,27.5-56.7,67.3c0,39.3,22.4,66.5,56.7,66.5c26,0,43.3-15,48.4-38.2h44.9
			c-7.9,45.6-42.1,74.4-93.6,74.4C1807.6,1207.5,1768.7,1167.7,1768.7,1104.8z"/>
		<path class="st1" d="M1987.4,1104.8c0-62.2,39.7-103.5,99.1-103.5c58.2,0,97.2,37,98.4,96c0,5.1-0.4,10.6-1.2,16.1h-151.9v2.8
			c1.2,34.2,22.8,56.7,56.3,56.7c26,0,44.9-13,50.8-35.4h42.5c-7.1,39.7-40.9,70-90.9,70C2027.1,1207.5,1987.4,1166.6,1987.4,1104.8
			z M2140.8,1082.4c-3.5-29.9-24.4-46.8-53.9-46.8c-27.1,0-50.4,18.1-53.5,46.8H2140.8z"/>
		<path class="st1" d="M2346.6,1207.5c-79.1,0-133.8-59.4-133.8-140.1s54.7-140.1,133.8-140.1s133.8,59.4,133.8,140.1
			S2425.7,1207.5,2346.6,1207.5z M2346.6,1167.7c52.3,0,87.3-42.1,87.3-100.3c0-58.2-35-100.3-87.3-100.3s-87.3,42.1-87.3,100.3
			C2259.2,1125.6,2294.3,1167.7,2346.6,1167.7z"/>
		<path class="st1" d="M2703,1093v112.1h-42.9v-108.6c0-38.2-16.1-58.6-48-58.6c-33.8,0-53.9,24.8-53.9,65.7v101.5h-42.5v-201.4h37
			l4.7,26.4c12.6-15.7,31.9-28.7,64.5-28.7C2666.4,1001.3,2703,1025.7,2703,1093z"/>
		<path class="st1" d="M2732.5,1104.8c0-62.2,39.7-103.5,99.1-103.5c58.2,0,97.2,37,98.4,96c0,5.1-0.4,10.6-1.2,16.1H2777v2.8
			c1.2,34.2,22.8,56.7,56.3,56.7c26,0,44.9-13,50.8-35.4h42.5c-7.1,39.7-40.9,70-90.9,70C2772.2,1207.5,2732.5,1166.6,2732.5,1104.8
			z M2885.9,1082.4c-3.5-29.9-24.4-46.8-53.9-46.8c-27.1,0-50.4,18.1-53.5,46.8H2885.9z"/>
	</g>
</g>
<g>
	<g>
		<path class="st1" d="M1581.9,1759.7c4.3,58,49.4,96.8,118.7,96.8c58.7,0,101-26.1,101-73.5c0-52.2-51.6-63.6-130-77.7
			c-82-14.1-159.7-40.3-159.7-138.5c0-86.1,70.6-144.8,175.9-144.8c113,0,183.6,61.5,187.2,152.6h-81.3
			c-6.3-50.1-45.9-84.1-106-84.1c-55.8,0-94.7,24-94.7,70.6c0,50.9,50.9,61.5,128.6,74.9c82,14.9,161.8,41,161.1,138.5
			c0,89.1-74.2,150.4-183,150.4c-122.9,0-197.1-67.8-200-166.7L1581.9,1759.7z"/>
		<path class="st1" d="M2254.3,1854.4v66.4H2214c-49.4,0-66.4-21.9-66.4-58c-24,36.7-60.8,62.2-119.4,62.2
			c-79.1,0-134.2-38.8-134.2-106c0-74.2,53.7-115.9,154.7-115.9h91.1v-21.9c0-40.3-28.9-65-79.1-65c-45.3,0-75.6,21.2-81.3,53h-74.9
			c7.8-70.6,68.6-114.4,159.7-114.4c96,0,151.2,45.9,151.2,131.4v144.8c0,18.4,7.8,23.3,23.3,23.3H2254.3z M2139.9,1759.7h-94.7
			c-47.3,0-73.5,17.7-73.5,54.4c0,30.4,25.4,51.6,67.1,51.6c63.6,0,100.3-37.5,101-93.2L2139.9,1759.7L2139.9,1759.7z"/>
		<path class="st1" d="M2603.7,1719.4v201.3h-77v-195c0-68.6-28.9-105.3-86.1-105.3c-60.8,0-96.8,44.5-96.8,118v182.3h-76.3V1559
			h66.4l8.4,47.3c22.6-28.3,57.2-51.6,115.9-51.6C2538.1,1554.8,2603.7,1598.6,2603.7,1719.4z"/>
		<path class="st1" d="M2693.1,1801.4c2.8,37.5,35.3,64.3,90.4,64.3c47.3,0,78.4-18.4,78.4-47.3c0-38.8-33.2-41.7-89.1-48.8
			c-82.6-9.9-147.6-27.6-147.6-102.5c0-68.6,61.5-113,148.4-112.4c89.1,0,151.9,41,156.8,115.2h-74.9c-4.3-33.2-35.3-56.5-80.5-56.5
			s-74.9,18.4-74.9,47.3c0,33.9,34.6,38.2,86.9,43.8c82.6,9.9,149.8,26.8,149.8,107.4c0,69.2-65.7,113-153.3,113
			c-96.8,0-163.2-45.3-165.3-123.6H2693.1z"/>
	</g>
</g>
<rect x="1499.9" y="1349.6" class="st1" width="1437.3" height="21"/>
<rect x="69.6" y="866" class="st1" width="2860.4" height="8"/>
<g>
	<g>
		<path class="st1" d="M291.4,107.9h40.3c24.2,0,37.7,11.7,37.7,30c0,13-7.1,20.9-17.9,24.7c12,2.3,22.6,10.1,22.6,26.5
			c0,20.1-14.3,32.5-41.2,32.5h-41.4V107.9H291.4z M305.6,120.7v36.5h26.8c14.6,0,22.9-6.8,22.9-18.3c0-11.4-8.1-18.2-22.9-18.2
			H305.6z M305.6,169.9v38.8h27.3c17.5,0,26.8-7.3,26.8-19c0-12.8-9.9-19.8-26.8-19.8H305.6z"/>
		<path class="st1" d="M386.9,180.2c0-25.2,15.9-42.4,39.3-42.4s38.6,14.8,39.3,39.3c0,1.8-0.2,3.7-0.3,5.7h-64.3v1.1
			c0.5,15.8,10.4,26.8,26.1,26.8c11.7,0,20.8-6.2,23.5-16.9H464c-3.2,16.6-16.9,28.7-36,28.7C403.2,222.5,386.9,205.5,386.9,180.2z
			 M451.2,171.7c-1.3-14.3-11-22.2-24.8-22.2c-12.2,0-23.4,8.8-24.7,22.2H451.2z"/>
		<path class="st1" d="M490.7,194.3c0.5,9.7,9.1,16.9,22.9,16.9c11.7,0,20-5,20-12.7c0-10.4-9.1-11.2-21.4-12.7
			c-18.5-2.3-33.3-6-33.3-23.2c0-15.1,13.8-25,32.5-24.8c18.8,0.2,32.5,8.9,33.8,26.1h-13.6c-1-8.4-8.8-14.8-20.1-14.8
			c-11.5,0-19.3,4.9-19.3,12.5c0,9.1,8.8,10.2,20.8,11.7c18.8,2.3,33.9,5.8,33.9,24.2c0,15.4-14.8,25-33.1,25
			c-21.4,0-36.2-10.1-36.5-28.3h13.4V194.3z"/>
		<path class="st1" d="M643,180.2c0,25.3-16.9,42.4-39.8,42.4c-14,0-23.4-5.7-28.4-13.6v45h-13.3V138.8H573l1.8,13.3
			c5.5-7.6,14.5-14.3,28.4-14.3C626.1,137.8,643,153.2,643,180.2z M629.3,180.2c0-18-11-30.5-27.4-30.5c-16.2,0-27.3,12.5-27.3,30.2
			c0,18.2,11,30.9,27.3,30.9C618.3,210.7,629.3,198.2,629.3,180.2z"/>
		<path class="st1" d="M655.3,180.2c0-25.2,16.9-42.4,41.1-42.4c24.2,0,41.1,17.2,41.1,42.4s-16.9,42.4-41.1,42.4
			C672.2,222.5,655.3,205.3,655.3,180.2z M723.8,180.2c0-17.7-11-30.5-27.4-30.5S669,162.5,669,180.2s11,30.5,27.4,30.5
			S723.8,197.9,723.8,180.2z"/>
		<path class="st1" d="M752.7,107.9H766v74.9l41.6-44H824L791.7,173l34.6,48.6h-16.1l-27.4-39l-16.7,17.2v21.8h-13.3L752.7,107.9
			L752.7,107.9z"/>
		<path class="st1" d="M828.1,180.2c0-25.2,15.9-42.4,39.3-42.4s38.6,14.8,39.3,39.3c0,1.8-0.2,3.7-0.3,5.7H842v1.1
			c0.5,15.8,10.4,26.8,26.1,26.8c11.7,0,20.8-6.2,23.5-16.9h13.5c-3.2,16.6-16.9,28.7-36,28.7C844.3,222.5,828.1,205.5,828.1,180.2z
			 M892.4,171.7c-1.3-14.3-11-22.2-24.8-22.2c-12.2,0-23.4,8.8-24.7,22.2H892.4z"/>
		<path class="st1" d="M955.7,138.8h14.9v-9.3c0-14.6,6.2-21.6,21.6-21.6h15.1v12.2H993c-6.7,0-9.1,2.8-9.1,9.1v9.6h23.4V151H984
			v70.6h-13.3V151h-14.9L955.7,138.8L955.7,138.8z"/>
		<path class="st1" d="M1010.3,180.2c0-25.2,16.9-42.4,41.1-42.4c24.2,0,41.1,17.2,41.1,42.4s-16.9,42.4-41.1,42.4
			C1027.2,222.5,1010.3,205.3,1010.3,180.2z M1078.8,180.2c0-17.7-11-30.5-27.4-30.5s-27.4,12.8-27.4,30.5s11,30.5,27.4,30.5
			S1078.8,197.9,1078.8,180.2z"/>
		<path class="st1" d="M1181.7,175.5v46.1h-13.3v-45.3c0-17.2-8-26.3-22.4-26.3c-15.6,0-25,11.5-25,30.2v41.4h-13.3v-82.8h11.5
			l1.8,11.2c4.9-6.3,13.3-12.2,27.3-12.2C1167,137.8,1181.7,148,1181.7,175.5z"/>
		<path class="st1" d="M1205,150.9h-15v-12.2h14.9v-23.2h13.3v23.2h21.4v12.2h-21.4v48.9c0,7,2.4,9.6,9.6,9.6h13.2v12.2h-14.5
			c-15.9,0-21.6-7-21.6-21.6L1205,150.9L1205,150.9z"/>
	</g>
</g>
<rect x="291.4" y="79" class="st1" width="2638.6" height="3"/>
<g>
	<g>
		<g>
			<g>
				<g>
					<path class="st1" d="M146.2,225.4c-30.3,0-54.9-24.8-54.9-54.9s24.8-54.9,54.9-54.9s54.9,24.8,54.9,54.9
						C201,200.6,176.5,225.4,146.2,225.4z M146.2,138.6c-17.6,0-31.9,14.3-31.9,31.9s14.3,31.7,31.9,31.7s31.9-14.3,31.9-31.9
						S163.6,138.6,146.2,138.6z"/>
				</g>
				<g>
					<path class="st1" d="M73,133.8v-22.9c17.6,0,31.9-14.3,31.9-31.9H128C127.8,109.3,103.3,133.8,73,133.8z"/>
				</g>
			</g>
		</g>
	</g>
</g>
<g>
	<g class="st2">
		<g>
			<path class="st1" d="M86.4,1493.4l67-67l207.9,207.9c23.1,23.1,53.9,35.8,86.5,35.8h219.5v94.8H447.8
				c-58,0-112.6-22.6-153.6-63.6L86.4,1493.4z"/>
		</g>
		<g>
			<polygon class="st1" points="72.5,1812.3 72.5,1412.5 472.3,1412.5 472.3,1507.3 167.3,1507.3 167.3,1812.3 			"/>
		</g>
	</g>
	<g>
		<g>
			<path class="st1" d="M167.2,1662.9v-94.8h219.5c58,0,112.6,22.6,153.6,63.6l207.9,207.9l-67,67l-207.9-207.9
				c-23.1-23.1-53.9-35.8-86.5-35.8L167.2,1662.9L167.2,1662.9z"/>
		</g>
		<g>
			<polygon class="st1" points="362.2,1920.5 362.2,1825.7 667.2,1825.7 667.2,1520.7 762,1520.7 762,1920.5 			"/>
		</g>
	</g>
</g>
</svg>
