<?xml version="1.0" encoding="utf-8"?>
<!-- Generator: Adobe Illustrator 22.0.0, SVG Export Plug-In . SVG Version: 6.00 Build 0)  -->
<svg version="1.1" id="Layer_1" xmlns="http://www.w3.org/2000/svg" xmlns:xlink="http://www.w3.org/1999/xlink" x="0px" y="0px"
	 viewBox="0 0 3000 2000" style="enable-background:new 0 0 3000 2000;" xml:space="preserve">
<style type="text/css">
	.st0{fill:#B8B8B8;}
</style>
<rect width="3000" height="2000"/>
<g>
	<g>
		<path class="st0" d="M2096.8,593.4l22.5-60.2h11.8l22.4,60.2h-10.6l-5.7-14.9h-24.7l-5.6,14.9H2096.8z M2115.3,570.1h19.2
			l-9.6-26.2L2115.3,570.1z"/>
		<path class="st0" d="M2159.7,533.2h22.1c13.2,0,20.8,6,20.8,15.9c0,7.1-4,11.4-10.3,13.2c7.1,1.1,12.6,5.3,12.6,13.9
			c0,10.7-7.8,17.2-22.4,17.2h-22.9V533.2z M2169.6,541.4v17.3h12.5c6.8,0,10.7-3.3,10.7-8.7c0-5.3-3.8-8.6-10.7-8.6H2169.6z
			 M2169.6,566.9V585h13.1c7.9,0,12.1-3.4,12.1-8.9c0-5.9-4.5-9.2-12.1-9.2H2169.6z"/>
		<path class="st0" d="M2211.3,563.3c0-18.3,11.3-30.6,29.1-30.6c13.8,0,23.6,8.3,25.6,21h-10.2c-2-7.6-7.7-12.3-15.8-12.3
			c-11.4,0-18.5,9-18.5,21.9c0,12.8,6.9,21.9,18.2,21.9c8.3,0,14.1-4.6,16-12.3h10.2c-1.9,12.7-12.1,21-26.1,21
			C2222.2,593.9,2211.3,581.8,2211.3,563.3z"/>
		<path class="st0" d="M2274,593.4v-60.2h20.5c18.8,0,30.7,12.1,30.7,30s-11.9,30.2-30.7,30.2H2274z M2283.9,584.8h10.6
			c13.2,0,20.5-8.7,20.5-21.6s-7.3-21.4-20.5-21.4h-10.6V584.8z"/>
		<path class="st0" d="M2333.8,533.2h39.3v8.8h-29.4v16.7h24.2v8.5h-24.2v17.5h30.4v8.8h-40.3V533.2z"/>
		<path class="st0" d="M2382.2,533.2h38.4v8.8h-28.5v17.5h23.6v8.5h-23.6v25.4h-9.9V533.2z"/>
		<path class="st0" d="M2423.6,563.3c0-18.3,11.3-30.6,29.2-30.6c13.9,0,24.1,8.3,25.9,21h-10.2c-1.8-7.7-7.6-12.3-15.9-12.3
			c-11.4,0-18.8,9-18.8,21.9c0,12.9,7.2,21.9,18.7,21.9c9.3,0,16.8-5.2,17.3-15v-1.5h-16.7v-8.3h26.1v32.9h-7.7l-0.9-8.1
			c-2.9,4.3-9.1,8.6-18.7,8.6C2435.2,593.9,2423.6,581.6,2423.6,563.3z"/>
		<path class="st0" d="M2490.2,533.2h9.9v25.3h27.9v-25.3h9.9v60.2h-9.9v-26.1h-27.9v26.1h-9.9V533.2z"/>
		<path class="st0" d="M2548.9,533.2h9.9v60.2h-9.9V533.2z"/>
		<path class="st0" d="M2580.8,533.2h9.9v45.2c0,9.6-5.4,15-15,15h-9.3v-8.8h7c5.2,0,7.4-2.4,7.4-7.7V533.2z"/>
		<path class="st0" d="M2601.7,533.2h9.9v31l27.6-31h12l-22.1,25.3l23.7,34.9h-12l-18.9-27.6l-10.4,11.7v15.9h-9.9V533.2z"/>
		<path class="st0" d="M2658.3,593.4v-60.2h9.9v51.4h25.9v8.8H2658.3z"/>
		<path class="st0" d="M2701.3,533.2h12.8l19.3,47.4l18.9-47.4h12.6v60.2h-9.5v-44.3l-18.1,44.3h-8.3l-18.1-44.3v44.3h-9.5V533.2z"
			/>
		<path class="st0" d="M2775.8,593.4v-60.2h9l29.3,42.6v-42.6h9.7v60.2h-9l-29.3-42.6v42.6H2775.8z"/>
		<path class="st0" d="M2128.5,668.1c-17.3,0-29.2-13-29.2-30.6s11.9-30.6,29.2-30.6c17.3,0,29.2,13,29.2,30.6
			S2145.8,668.1,2128.5,668.1z M2128.5,659.4c11.4,0,19.1-9.2,19.1-21.9s-7.7-21.9-19.1-21.9s-19.1,9.2-19.1,21.9
			S2117,659.4,2128.5,659.4z"/>
		<path class="st0" d="M2166.4,607.4h23.7c12.6,0,20.8,7.5,20.8,19.2c0,11.6-8.3,19.2-20.8,19.2h-13.8v21.8h-9.9V607.4z M2176.3,616
			v21.1h13c7,0,11.6-4.1,11.6-10.6c0-6.5-4.5-10.6-11.5-10.6H2176.3z"/>
		<path class="st0" d="M2277.7,658.8v8.8h-5.8c-4.9,0-7.1-1.4-9.3-4.2l-0.3-0.3c-4.6,3.3-10.4,5.1-16.9,5.1
			c-17.3,0-29.2-13-29.2-30.6s12-30.6,29.2-30.6s29.2,13,29.2,30.6c0,7.7-2.2,14.5-6.3,19.7c1.1,1.1,2.3,1.6,4.1,1.6H2277.7z
			 M2256.7,655.7l-1.3-1.7c-1.5-2-2.8-2.9-4.8-2.9h-5.3v-8.6h6.4c4.5,0,6.4,1.5,8.5,4.2l1.8,2.3c1.6-3.3,2.5-7.2,2.5-11.5
			c0-12.7-7.7-21.9-19.1-21.9s-19.1,9.2-19.1,21.9s7.7,21.9,19.1,21.9C2249.8,659.4,2253.6,658,2256.7,655.7z"/>
		<path class="st0" d="M2283.7,607.4h23.7c12.6,0,21,7.5,21,19.2c0,8.1-4.6,14.5-11.7,17l12.7,24h-11l-11.6-21.8h-13.2v21.8h-9.9
			V607.4z M2293.6,616v21.1h13.1c7,0,11.6-4.1,11.6-10.6s-4.6-10.6-11.6-10.6H2293.6z"/>
		<path class="st0" d="M2344.3,648c0.5,7,6,11.8,14.4,11.8c7.1,0,12.3-3.2,12.3-8.9c0-6.4-6.3-7.7-15.8-9.5
			c-10-1.7-19.4-4.9-19.4-16.8c0-10.5,8.6-17.6,21.4-17.6c13.8,0,22.4,7.5,22.8,18.6h-9.9c-0.8-6.1-5.6-10.2-12.9-10.2
			c-6.8,0-11.5,2.9-11.5,8.6c0,6.2,6.2,7.5,15.6,9.1c10,1.8,19.7,5,19.6,16.8c0,10.8-9,18.3-22.3,18.3c-15,0-24-8.3-24.3-20.3
			L2344.3,648z"/>
		<path class="st0" d="M2383.4,607.4h47v8.8h-18.6v51.4h-9.9v-51.4h-18.6V607.4z"/>
		<path class="st0" d="M2437.3,607.4h9.9v34.9c0,11.2,4.3,17,13.8,17c9.6,0,13.9-5.8,13.9-17v-34.9h9.9v34.4
			c0,17.1-8.2,26.3-23.8,26.3c-15.6,0-23.6-9.2-23.6-26.3V607.4z"/>
		<path class="st0" d="M2490.3,607.4h10.5l16.6,48.3l16.8-48.3h10.2l-21.1,60.2h-11.9L2490.3,607.4z"/>
		<path class="st0" d="M2544.9,607.4l10.2-0.1l12.8,47.7l13.4-47.6h9.4l13.1,47.6l12.9-47.6h10.1l-17.3,60.2H2598l-12.3-44.3
			l-12.1,44.3H2562L2544.9,607.4z"/>
		<path class="st0" d="M2646.2,636.8l-18.8-29.4h11.7l13.5,21.4l13.8-21.4h11.2l-18.8,29l20,31.2h-11.8l-14.7-23.1l-14.8,23.1h-11.2
			L2646.2,636.8z"/>
		<path class="st0" d="M2677.9,607.4h11.6l15.8,27.5l16.2-27.5h11.1l-22.4,37.9v22.3h-9.9v-22.3L2677.9,607.4z"/>
		<path class="st0" d="M2735.7,607.4h46.3v6.8l-33.7,44.7h34.6v8.7h-48.1v-6.8l33.7-44.7h-32.8V607.4z"/>
		<path class="st0" d="M2142.7,733.7v8.1h-4.9c-6,0-8.1-2.7-8.1-7c-2.9,4.5-7.4,7.6-14.5,7.6c-9.6,0-16.3-4.7-16.3-12.9
			c0-9,6.5-14.1,18.8-14.1h11.1v-2.7c0-4.9-3.5-7.9-9.6-7.9c-5.5,0-9.2,2.6-9.9,6.4h-9.1c0.9-8.6,8.3-13.9,19.4-13.9
			c11.7,0,18.4,5.6,18.4,16v17.6c0,2.2,0.9,2.8,2.8,2.8H2142.7z M2128.8,722.2h-11.5c-5.8,0-8.9,2.1-8.9,6.6c0,3.7,3.1,6.3,8.2,6.3
			c7.7,0,12.2-4.6,12.3-11.3V722.2z"/>
		<path class="st0" d="M2192.2,719.8c0,13.5-8.8,22.5-20.8,22.5c-6.9,0-11.6-2.9-14.4-6.9l-1.1,6.4h-8.1v-60.2h9.3v22.7
			c2.9-4,7.5-7,14.3-7C2183.4,697.3,2192.2,705.6,2192.2,719.8z M2182.7,719.8c0-8.6-5.2-14.6-12.9-14.6c-7.7,0-12.8,6-12.8,14.5
			c0,8.7,5.1,14.8,12.8,14.8C2177.6,734.5,2182.7,728.5,2182.7,719.8z"/>
		<path class="st0" d="M2198,719.9c0-13.6,8.8-22.6,22.1-22.6c11.3,0,18.4,6.3,20.2,16.2h-9.7c-1.2-5.2-4.9-8.3-10.7-8.3
			c-7.5,0-12.4,6-12.4,14.7c0,8.6,4.9,14.5,12.4,14.5c5.7,0,9.5-3.3,10.6-8.3h9.8c-1.7,10-9.2,16.2-20.5,16.2
			C2206.5,742.3,2198,733.6,2198,719.9z"/>
		<path class="st0" d="M2280.9,681.6h9.3v60.2h-8.1l-1.1-6.6c-2.8,3.9-7.4,7.1-14.4,7.1c-12,0-20.8-8.4-20.8-22.5
			c0-13.6,8.9-22.5,20.8-22.5c6.7,0,11.4,2.8,14.3,6.6V681.6z M2281,720c0-8.8-5.1-14.8-12.8-14.8s-12.8,6-12.8,14.6
			c0,8.7,5.1,14.7,12.8,14.7S2281,728.5,2281,720z"/>
		<path class="st0" d="M2297.7,719.9c0-13.6,8.7-22.6,21.7-22.6c12.7,0,21.2,8.1,21.5,21c0,1.1-0.1,2.3-0.3,3.5h-33.2v0.6
			c0.3,7.5,5,12.4,12.3,12.4c5.7,0,9.8-2.8,11.1-7.7h9.3c-1.5,8.7-8.9,15.3-19.9,15.3C2306.3,742.3,2297.7,733.4,2297.7,719.9z
			 M2331.2,715c-0.8-6.5-5.3-10.2-11.8-10.2c-5.9,0-11,4-11.7,10.2H2331.2z"/>
		<path class="st0" d="M2390.2,689.8c-3,0-4.3,1.3-4.3,4.3v3.7h11.9v8.2h-11.9v35.8h-9.3V706h-16.2v35.8h-9.4V706h-7.7v-8.2h7.7
			v-4.4c0-7.7,3.8-11.8,12.3-11.8h7.8v8.2h-6.5c-3,0-4.2,1.3-4.2,4.3v3.7h16.2v-4.4c0-7.7,3.8-11.8,12.3-11.8h8.9v8.2H2390.2z"/>
		<path class="st0" d="M2435.5,697.8h8.1V740c0,11.9-6.7,19.5-22.5,19.5c-11.7,0-19.9-5.4-20.7-15.3h9.5c1.1,4.9,5.4,7.7,11.9,7.7
			c8.1,0,12.6-3.9,12.6-12.3v-4.9c-2.9,4.4-7.5,7.2-14.4,7.2c-12,0-20.8-8.3-20.8-22.4c0-13.5,8.9-22.4,20.8-22.4
			c6.9,0,11.6,3,14.4,7.4L2435.5,697.8z M2434.4,719.8c0-8.7-5.1-14.7-12.8-14.7s-12.8,6-12.8,14.5c0,8.6,5.1,14.5,12.8,14.5
			S2434.4,728.2,2434.4,719.8z"/>
		<path class="st0" d="M2493.7,717.3v24.5h-9.3v-23.7c0-8.3-3.7-12.8-10.6-12.8c-7.3,0-11.8,5.4-11.8,14.3v22.3h-9.3v-60.2h9.3v22.5
			c2.8-3.8,7-6.9,13.8-6.9C2485.7,697.3,2493.7,702.6,2493.7,717.3z"/>
		<path class="st0" d="M2501.1,686c0-3.3,2.5-5.6,5.7-5.6c3.2,0,5.7,2.3,5.7,5.6c0,3.3-2.5,5.6-5.7,5.6
			C2503.6,691.6,2501.1,689.3,2501.1,686z M2502.1,697.8h9.3v44h-9.3V697.8z"/>
		<path class="st0" d="M2511.4,750.8h5c3.3,0,4.6-1.5,4.6-4.8v-48.2h9.3v48.9c0,7.9-3.8,12.3-12,12.3h-6.9V750.8z M2520,686
			c0-3.3,2.5-5.6,5.7-5.6c3.2,0,5.7,2.3,5.7,5.6c0,3.3-2.5,5.6-5.7,5.6C2522.5,691.6,2520,689.3,2520,686z"/>
		<path class="st0" d="M2533.5,750.8h2.1c3.3,0,4.6-1.5,4.6-4.8v-48.2h9.3v48.9c0,7.9-3.8,12.3-12,12.3h-4V750.8z M2539.1,686
			c0-3.3,2.5-5.6,5.7-5.6c3.2,0,5.7,2.3,5.7,5.6c0,3.3-2.5,5.6-5.7,5.6C2541.6,691.6,2539.1,689.3,2539.1,686z"/>
		<path class="st0" d="M2558.6,681.6h9.3v37.5l19.9-21.3h10.9l-16.6,17.8l17.6,26.2h-11l-13-19.4l-7.9,8.3v11.2h-9.3V681.6z"/>
		<path class="st0" d="M2604.3,681.6h9.3v60.2h-9.3V681.6z"/>
		<path class="st0" d="M2689.8,716.4v25.4h-9.3V717c0-7.7-3.2-11.8-9.2-11.8c-6.4,0-10.4,4.8-10.4,12.7v23.8h-9.4V717
			c0-7.7-3.2-11.8-9.3-11.8c-6.4,0-10.3,5.2-10.3,13v23.6h-9.3v-44h8.1l1,5.8c2.5-3.3,6.3-6.2,12.9-6.3c5.8,0,10.9,2.3,13.6,8
			c2.8-4.8,7.8-8,15-8C2682.4,697.3,2689.8,702.5,2689.8,716.4z"/>
		<path class="st0" d="M2739.2,717.3v24.5h-9.4v-23.7c0-8.3-3.5-12.8-10.5-12.8c-7.4,0-11.8,5.4-11.8,14.4v22.2h-9.3v-44h8.1l1,5.8
			c2.8-3.4,7-6.3,14.1-6.3C2731.2,697.3,2739.2,702.6,2739.2,717.3z"/>
		<path class="st0" d="M2099,794c0-13.4,9-22.5,22.4-22.5s22.4,9.1,22.4,22.5c0,13.5-9,22.5-22.4,22.5S2099,807.5,2099,794z
			 M2134.4,794c0-8.5-5.2-14.6-13-14.6s-12.9,6.1-12.9,14.6s5.1,14.6,12.9,14.6S2134.4,802.5,2134.4,794z"/>
		<path class="st0" d="M2195.7,794c0,13.6-8.8,22.5-20.8,22.5c-6.8,0-11.5-2.8-14.3-6.7v23.4h-9.3V772h8.1l1.1,6.5
			c2.9-3.9,7.5-7,14.4-7C2186.9,771.5,2195.7,779.9,2195.7,794z M2186.2,794c0-8.7-5.2-14.6-12.9-14.6c-7.7,0-12.8,5.9-12.8,14.4
			c0,8.8,5.1,14.9,12.8,14.9C2181.1,808.7,2186.2,802.6,2186.2,794z"/>
		<path class="st0" d="M2237.8,772h8.1v61.2h-9.3v-23.7c-2.9,4-7.5,7-14.3,7c-12,0-20.8-8.3-20.8-22.5c0-13.5,8.9-22.5,20.8-22.5
			c6.9,0,11.7,2.8,14.4,6.8L2237.8,772z M2236.7,794.1c0-8.7-5.1-14.7-12.8-14.7s-12.8,5.9-12.8,14.6c0,8.6,5.1,14.7,12.8,14.7
			S2236.7,802.6,2236.7,794.1z"/>
		<path class="st0" d="M2279.3,772v8.7h-4.1c-8.3,0-10.9,6.4-10.9,13.2V816h-9.3v-44h8.3l1,6.6c2.2-3.7,5.8-6.6,13-6.6H2279.3z"/>
		<path class="st0" d="M2291.6,801.5c0.3,4.6,4.3,7.8,11,7.8c5.8,0,9.5-2.2,9.5-5.8c0-4.7-4-5.1-10.8-5.9c-10.1-1.2-18-3.4-18-12.5
			c0-8.3,7.5-13.8,18.1-13.7c10.8,0,18.5,5,19.1,14h-9.1c-0.5-4-4.3-6.9-9.8-6.9s-9.1,2.2-9.1,5.8c0,4.1,4.2,4.6,10.6,5.3
			c10.1,1.2,18.2,3.3,18.2,13.1c0,8.4-8,13.8-18.7,13.8c-11.8,0-19.9-5.5-20.1-15H2291.6z"/>
		<path class="st0" d="M2378.8,807.9v8.2h-8.9c-8.4,0-12-4-12-11.9v-23.9H2341v23c0,3.4,1.2,4.7,4.6,4.7h5.8v8.2h-7.7
			c-8.4,0-12-4-12-11.9v-23.9h-7.7V772h7.7v-12.3h9.4V772h16.9v-12.3h9.3V772h10.7v8.2h-10.7v23c0,3.4,1.3,4.7,4.6,4.7H2378.8z"/>
		<path class="st0" d="M2414.9,772h9.3v44h-8.2l-1-5.6c-2.8,3.4-6.8,6.1-13.6,6.1c-9.4,0-17.4-5-17.4-20V772h9.3v23.5
			c0,8.6,3.4,13,10.2,13c7,0,11.3-5.3,11.3-14.4V772z"/>
		<path class="st0" d="M2428.9,772h10l12.1,34l11.9-34h9.8l-16.2,44h-11.3L2428.9,772z"/>
		<path class="st0" d="M2473.1,772h9.8l10.1,33.7L2503,772h8.5l9.6,33.7l10.4-33.7h9.5l-14.6,44h-10l-9.3-29.9l-9.6,29.9h-10.1
			L2473.1,772z"/>
		<path class="st0" d="M2556.6,793.5L2541,772h10.8l10.5,14.9l10.7-14.9h10.2l-15.6,21.5l16.6,22.5h-10.8l-11.5-16l-11.6,16h-10.2
			L2556.6,793.5z"/>
		<path class="st0" d="M2583.1,772h9.9l12.3,33.4l11.9-33.4h9.9l-19.9,50.9c-2.8,7.1-4.6,10.3-11.1,10.3h-10V825h6.5
			c3.6,0,4.5-0.9,5.8-4.5l1.7-4.3L2583.1,772z"/>
		<path class="st0" d="M2627.3,772h9.9l12.3,33.4l11.9-33.4h9.9l-19.9,50.9c-2.8,7.1-4.6,10.3-11.1,10.3h-10V825h6.5
			c3.6,0,4.5-0.9,5.8-4.5l1.7-4.3L2627.3,772z"/>
		<path class="st0" d="M2673.8,772h36v6.6l-24.6,29.2h25.7v8.2h-38.2v-6.6l24.6-29.2h-23.6V772z"/>
		<path class="st0" d="M2099.4,877.3c0-17.5,9.7-29.2,23.7-29.2s23.7,11.8,23.7,29.2v2.8c0,18.1-9.7,29.2-23.7,29.2
			s-23.7-11.1-23.7-29.2V877.3z M2137.2,877.7c0-13.4-5.7-21.2-14.1-21.2s-14.1,7.8-14.1,21.2v2.1c0,13.5,5.7,21.2,14.1,21.2
			s14.1-7.7,14.1-21.2V877.7z"/>
		<path class="st0" d="M2164.5,848.6h9.4v60.2h-9.5v-41.3c-0.9,0.5-2.1,0.8-3.8,0.8h-9.8v-8.2h9.4c3.1,0,4.4-2.2,4.4-5.4V848.6z"/>
		<path class="st0" d="M2181.3,901.1l23.1-19.7c5.4-4.6,9.5-8.8,9.5-14.5c0-6.9-4.6-10.7-11.4-10.7c-6.9,0-11.5,4.6-11.5,12.1v1
			h-9.5v-1.5c0-11.4,8.3-19.8,21.1-19.8c13.5,0,21.1,7.4,21.1,18.4c0,8.9-5.4,14.5-12.7,20.6l-16,13.3h29.1v8.3h-42.6V901.1z"/>
		<path class="st0" d="M2273,891.9c0,10.3-8.7,17.4-22.3,17.4s-22.3-7.1-22.3-19.5h9.4c0.2,7.4,5.8,11.6,13.4,11.6
			c6.8,0,12-3.9,12-10.1c0-5.6-4.4-9.2-12.7-9.2h-5.5v-7.9h5c7.9,0,11.9-4,11.9-9.5s-4.9-8.8-11.2-8.8c-6.8,0-11.7,4.1-11.9,10.4
			h-9.3c0.1-10.8,8.8-18.3,21.1-18.3c13,0,20.9,6.4,20.9,16.1c0,7.4-4.3,11.8-10.1,13.3C2267.5,878.7,2273,882.9,2273,891.9z"/>
		<path class="st0" d="M2277.3,886.8l28.9-38.2h11.2v38h9.1v8.3h-9.1v13.9h-9.4v-13.9h-30.7V886.8z M2287.1,886.6h20.9V859
			L2287.1,886.6z"/>
		<path class="st0" d="M2374.7,888.6c0,13.5-10.1,20.6-21.8,20.6c-13.7,0-21.8-8.7-22.4-19.4h9.5c0.7,6.3,5.2,11.4,13,11.4
			c6.2,0,12.1-4.3,12.1-12.6c0-7.3-4.7-12.6-12.1-12.6c-3.6,0-9.7,1.2-12.1,7.4l-9.2-0.2l1.9-34.6h37.6v8.3h-28.9l-1,16.3
			c3.4-3.6,7.9-5.1,13.4-5.1C2366.5,868.2,2374.7,876.5,2374.7,888.6z"/>
		<path class="st0" d="M2380.4,879.1c0-19.5,9-31,23.7-31c11.1,0,19.2,6.4,20.6,17h-9.5c-1.3-5.6-5.3-9.1-11.8-9.1
			c-9.3,0-14.4,8.1-14.4,20.5c0,0.7,0,1.2,0.1,2.3c0.2-0.3,0.3-0.9,0.6-1.5c2.8-5.2,8.4-8.7,15.6-8.7c12,0,20.3,8.1,20.3,20.3
			c0,11.9-8.8,20.3-21.6,20.3c-8.3,0-14.6-3.6-18.7-9.7C2382.3,894.3,2380.4,887.2,2380.4,879.1z M2404.3,876.6
			c-7.3,0-12.4,5.1-12.4,12.6c0,7.3,4.9,12.4,12.2,12.4c7.3,0,12.1-5.2,12.1-12.5C2416.2,881.7,2411.6,876.6,2404.3,876.6z"/>
		<path class="st0" d="M2428,848.6h43.2v6.4l-28.2,53.8h-10.2l28-51.8H2428V848.6z"/>
		<path class="st0" d="M2518.9,892.4c0,10-8.4,16.9-22.6,16.9s-22.5-7-22.5-16.9c0-8.3,5.5-13.3,11.9-14.8
			c-5.5-1.4-10.3-6.2-10.3-13.5c0-9.4,8.1-16,20.9-16c12.9,0,21,6.6,21,16c0,7-4.8,12.1-10.4,13.4
			C2513.3,878.9,2518.9,883.9,2518.9,892.4z M2509.2,891.9c0-5.8-5.2-10.1-12.9-10.1c-7.6,0-12.8,4.2-12.8,10.1
			c0,5.8,5.2,10.1,12.8,10.1C2504,902,2509.2,897.7,2509.2,891.9z M2485.1,864.3c0,5.3,4.5,8.9,11.3,8.9c6.9,0,11.3-3.6,11.3-8.9
			c0-5.2-4.5-8.9-11.3-8.9C2489.5,855.5,2485.1,859.1,2485.1,864.3z"/>
		<path class="st0" d="M2525.8,892.3h9.4c1.3,5.5,5.3,9.1,11.8,9.1c9.5,0,14.5-8.3,14.5-20.5c0-0.7,0-1.3-0.1-2.4
			c-0.3,0.5-0.4,1-0.9,1.8c-2.8,5.1-8.3,8.3-15.3,8.3c-11.9,0-20.3-7.8-20.3-20.1c0-11.8,8.8-20.3,21.6-20.3
			c8.3,0,14.4,3.5,18.4,9.5c3.4,5.2,5.3,12.5,5.3,20.7c0,19.3-8.7,31-23.7,31C2534.9,909.3,2527.2,902.9,2525.8,892.3z
			 M2558.8,868.2c0-7.3-4.9-12.3-12.2-12.3s-12.1,5.2-12.1,12.5c0,7.2,4.6,12.4,11.9,12.4C2553.7,880.8,2558.8,875.7,2558.8,868.2z"
			/>
	</g>
	<g>
		<path class="st0" d="M1616.4,526.8h80.9l121.6,299l119.4-299h79.2v379.9h-60.2V627.2l-114,279.5h-52.6l-114-279.5v279.5h-60.2
			V526.8z"/>
		<path class="st0" d="M1880.2,1223.9c0,85.2-63.5,130.2-137.8,130.2c-86.3,0-137.3-54.8-141.1-122.6h59.7
			c4.3,39.6,33.1,72.2,81.9,72.2c39.1,0,76.5-27.1,76.5-79.8c0-46.1-29.8-79.2-76.5-79.2c-22.8,0-61.3,7.6-76.5,46.7l-58.1-1.1
			l11.9-218.7h237.2v52.6H1675l-6.5,103.1c21.2-22.8,49.9-32,84.7-32C1828.6,1095.3,1880.2,1147.4,1880.2,1223.9z"/>
		<path class="st0" d="M1916.5,1152.8c0-110.2,61.3-184.5,149.8-184.5c88.5,0,149.8,74.3,149.8,184.5v17.4
			c0,114.5-61.3,184.5-149.8,184.5c-88.5,0-149.8-70-149.8-184.5V1152.8z M2155.3,1155c0-84.7-35.8-134-89-134
			c-53.2,0-89,49.4-89,134v13c0,85.2,35.8,134,89,134c53.2,0,89-48.8,89-134V1155z"/>
	</g>
</g>
<g>
	<g>
		<path class="st0" d="M765.9,1611.6l22-60.2h15.5l21.8,60.2h-13.8l-4.6-13.2h-22.9l-4.6,13.2H765.9z M787.4,1588.1h15.9l-8-22.9
			L787.4,1588.1z"/>
		<path class="st0" d="M830.8,1551.5h22.9c13.9,0,22,5.8,22,15.9c0,7.6-4.5,11.9-11.3,13.3c8,1,13.5,5.2,13.5,13.8
			c0,10.5-8.3,17.1-23,17.1h-24V1551.5z M843.7,1561.6v14.6H854c5.5,0,8.8-2.8,8.8-7.3c0-4.5-3.2-7.3-8.8-7.3H843.7z M843.7,1586.2
			v15.2h11.2c6.2,0,9.7-2.8,9.7-7.5c0-4.9-3.6-7.7-9.7-7.7H843.7z"/>
		<path class="st0" d="M883.1,1581.6c0-18.5,11.3-30.6,29.5-30.6c14.3,0,24.3,8.9,25.9,22h-13.1c-1.5-6.7-6.4-11.1-13.5-11.1
			c-9.8,0-15.6,8.1-15.6,19.7c0,11.5,5.8,19.7,15.5,19.7c7.3,0,12.1-4.4,13.7-11.1h13c-1.5,13.1-11.9,22-26.6,22
			C894,1612.2,883.1,1600,883.1,1581.6z"/>
		<path class="st0" d="M945.7,1611.6v-60.2h21.9c18.7,0,31.2,12.3,31.2,30c0,17.6-12.5,30.2-31.2,30.2H945.7z M958.6,1600.9h9
			c11.5,0,18-8,18-19.4c0-11.5-6.4-19.3-18-19.3h-9V1600.9z"/>
		<path class="st0" d="M1006.7,1551.5h40.4v11.1h-27.5v13.5h22.4v10.6h-22.4v13.9h28.5v11.1h-41.4V1551.5z"/>
		<path class="st0" d="M1055.7,1551.5h39.7v11.1h-26.8v14.1h22v10.6h-22v24.4h-12.9V1551.5z"/>
		<path class="st0" d="M1097.9,1581.6c0-18.5,11.3-30.6,29.8-30.6c14.5,0,24.8,8.9,26.3,21.9h-12.9c-1.5-6.6-6.4-11-13.8-11
			c-10.1,0-16.3,8.1-16.3,19.7s6,19.7,16.3,19.7c6.9,0,13.8-3.6,15-12v-0.8h-15v-10.2h26.9v33.4h-9l-1.3-7.2
			c-3.2,4.2-9,7.7-17.5,7.7C1109.3,1612.2,1097.9,1600,1097.9,1581.6z"/>
		<path class="st0" d="M1164.7,1551.5h12.9v24.2h23.9v-24.2h12.9v60.2h-12.9v-24.8h-23.9v24.8h-12.9V1551.5z"/>
		<path class="st0" d="M1224.6,1551.5h12.9v60.2h-12.9V1551.5z"/>
		<path class="st0" d="M1258.6,1551.5h12.9v44.2c0,10.1-5.8,16-16,16h-11.1v-11.1h7.1c5.1,0,7-2.4,7-7.4V1551.5z"/>
		<path class="st0" d="M1281.8,1551.5h12.9v27.3l24.1-27.3h15.6l-22.3,25.1l23.7,35.1h-15.5l-17.4-25.6l-8.3,9.5v16.2h-12.9V1551.5z
			"/>
		<path class="st0" d="M1340.5,1611.6v-60.2h12.9v49.1h23.9v11.1H1340.5z"/>
		<path class="st0" d="M1384.2,1551.5h16.9l16.7,44.2l16.2-44.2h16.6v60.2h-12.3v-40.3l-15.6,40.3h-10.5l-15.6-40.3v40.3h-12.3
			V1551.5z"/>
		<path class="st0" d="M1460.9,1611.6v-60.2h11.7l25.5,37.9v-37.9h12.7v60.2h-11.8l-25.5-37.9v37.9H1460.9z"/>
		<path class="st0" d="M798.2,1686.4c-17.7,0-29.8-13.1-29.8-30.6s12.1-30.6,29.8-30.6s29.8,13.1,29.8,30.6
			S815.9,1686.4,798.2,1686.4z M798.2,1675.5c10.1,0,16.6-8.3,16.6-19.7s-6.5-19.7-16.6-19.7c-10.1,0-16.7,8.3-16.7,19.7
			S788,1675.5,798.2,1675.5z"/>
		<path class="st0" d="M835.8,1625.7h24.5c13.1,0,21.7,7.8,21.7,20c0,12.1-8.7,19.9-21.7,19.9h-11.6v20.2h-12.9V1625.7z
			 M848.7,1636.4v18.5h10.4c6,0,9.9-3.5,9.9-9.2c0-5.8-3.9-9.3-9.9-9.3H848.7z"/>
		<path class="st0" d="M948.8,1674.8v11.1h-6.2c-5.2,0-7.3-1.5-9.4-4c-4.6,2.9-10.2,4.6-16.5,4.6c-17.7,0-29.8-13.1-29.8-30.6
			s12.1-30.6,29.8-30.6s29.8,13.1,29.8,30.6c0,7.1-2,13.6-5.6,18.7c0.5,0.2,1.1,0.3,1.9,0.3H948.8z M916.7,1675.5
			c3.5,0,6.6-1,9.2-2.8l-0.9-1c-1.3-1.7-2.4-2.7-4.3-2.7h-5.6V1658h6.5c5.1,0,6.8,1.8,8.9,4.4l1.4,1.7c0.9-2.5,1.4-5.3,1.4-8.3
			c0-11.3-6.5-19.7-16.6-19.7c-10.1,0-16.7,8.3-16.7,19.7S906.6,1675.5,916.7,1675.5z"/>
		<path class="st0" d="M955,1625.7h24.5c13.2,0,22.1,7.8,22.1,20c0,7.7-4,13.9-10.3,16.9l11.9,23.2h-14.3l-10.1-20.2h-10.8v20.2H955
			V1625.7z M967.9,1636.4v18.5h10.6c6.1,0,10-3.6,10-9.2c0-5.7-3.9-9.3-10-9.3H967.9z"/>
		<path class="st0" d="M1019.4,1666.3c0.4,5.8,5.1,9.9,12.5,9.9c5.9,0,10.3-2.6,10.3-7.3c0-5.1-4.9-6.1-15-8.1
			c-10.1-1.9-19.1-5.2-19.1-17.4c0-10.7,8.9-18.2,22.4-18.2c14.2,0,23.2,7.4,23.4,18.9h-12.6c-0.6-5.1-4.5-8.6-10.7-8.6
			c-5.5,0-9.5,2.3-9.5,7c0,4.9,4.7,5.9,14.7,7.8c10.3,1.9,19.4,5,19.3,17.1c-0.1,11.3-9.4,19-23.5,19c-15.3,0-24.8-8.1-24.9-20.3
			L1019.4,1666.3z"/>
		<path class="st0" d="M1057,1625.7h47.7v11.1h-17.5v49.1h-12.9v-49.1H1057V1625.7z"/>
		<path class="st0" d="M1111.2,1625.7h12.9v34.9c0,9.5,3.5,14.7,11.8,14.7c8.3,0,11.9-5.2,11.9-14.7v-34.9h12.9v34.2
			c0,17.1-8.5,26.5-24.8,26.5c-16.2,0-24.7-9.4-24.7-26.5V1625.7z"/>
		<path class="st0" d="M1165.3,1625.7h13.7l14.4,44.5l14.8-44.5h13.3l-20.4,60.2h-15.4L1165.3,1625.7z"/>
		<path class="st0" d="M1221,1625.7l13.4-0.1l11.1,44l11.8-43.9h11.6l11.4,43.9l11.3-43.9h13.1l-16.8,60.2h-14.8l-10.5-40l-10.1,40
			h-14.8L1221,1625.7z"/>
		<path class="st0" d="M1323,1655.1l-18.7-29.4h15.3l11.7,19.1l12.1-19.1h14.4l-18.7,29.2l19.6,30.9h-15.4l-12.6-20.6l-13.1,20.6
			h-14.4L1323,1655.1z"/>
		<path class="st0" d="M1357.3,1625.7h15l13.5,24.7l14.2-24.7h14.4l-22.1,37.8v22.4h-12.9v-22.4L1357.3,1625.7z"/>
		<path class="st0" d="M1416.6,1625.7h47.9v8.5l-30.9,40.7h31.6v11h-49.4v-8.5l30.9-40.7h-30.1V1625.7z"/>
		<path class="st0" d="M813.3,1749.9v10.2h-6.2c-6.3,0-8.3-3-8.2-7.2c-3.1,4.9-7.6,7.7-14.4,7.7c-9.5,0-16.4-4.6-16.4-13
			c0-9.4,7-14.7,20.3-14.7h8.8v-2.1c0-4-2.8-6.5-7.9-6.5c-4.7,0-7.9,2.1-8.4,5.4h-11.7c0.9-8.6,8.8-14.3,20.5-14.3
			c12.4,0,19.5,5.5,19.5,16.1v15.6c0,2.3,0.9,2.8,2.8,2.8H813.3z M797.2,1741h-8.9c-5.1,0-8,2.1-8,5.8c0,3.1,2.5,5.1,6.5,5.1
			c6.4,0,10.2-4,10.3-10V1741z"/>
		<path class="st0" d="M863.9,1737.9c0,13.7-8.6,22.7-20.5,22.7c-6.4,0-10.7-2.8-13.6-6.5l-1.2,6H818v-60.2h12.1v21.6
			c2.9-3.5,7.2-6.1,13.3-6.1C855.4,1715.4,863.9,1723.9,863.9,1737.9z M851.7,1738c0-7.6-4.3-12.7-10.9-12.7
			c-6.6,0-10.7,5.2-10.7,12.6c0,7.6,4.1,12.8,10.7,12.8C847.4,1750.7,851.7,1745.6,851.7,1738z"/>
		<path class="st0" d="M868.9,1738c0-13.7,8.9-22.6,23-22.6c12,0,19.5,6.5,21.2,17h-12.6c-1-4.4-4-7.1-8.8-7.1
			c-6.4,0-10.4,5.2-10.4,12.7c0,7.6,4,12.7,10.4,12.7c4.7,0,7.9-2.8,8.8-7.3h12.7c-1.7,10.6-9.7,17.2-21.8,17.2
			C877.4,1760.6,868.9,1751.9,868.9,1738z"/>
		<path class="st0" d="M951.6,1699.9h12.1v60.2h-10.6l-1.2-6.1c-2.9,3.8-7.2,6.6-13.6,6.6c-11.9,0-20.5-8.7-20.5-22.7
			c0-13.7,8.7-22.5,20.5-22.5c6.1,0,10.5,2.4,13.3,6V1699.9z M951.8,1738.1c0-7.6-4.1-12.8-10.7-12.8c-6.6,0-10.8,5.2-10.8,12.7
			s4.2,12.7,10.8,12.7C947.7,1750.7,951.8,1745.6,951.8,1738.1z"/>
		<path class="st0" d="M970.5,1738.1c0-13.8,9-22.7,22.7-22.7c13.2,0,22.2,8.3,22.4,21.2c0,1.3-0.1,2.8-0.3,4.1h-32.1v0.6
			c0.3,6.3,4.3,10.1,10.4,10.1c4.9,0,8.3-2.1,9.4-6.3h12c-1.4,8.6-9,15.5-20.8,15.5C979.3,1760.6,970.5,1751.7,970.5,1738.1z
			 M1003.3,1732.8c-0.9-5.4-4.6-8.4-10.1-8.4c-5.2,0-9.2,3.2-9.9,8.4H1003.3z"/>
		<path class="st0" d="M1067.9,1710.2c-2.5,0-3.6,1.1-3.6,3.6v2.1h11.1v10.2h-11.1v34h-12.1v-34h-15v34h-12.1v-34h-7.3v-10.2h7.3
			v-3.9c0-7.7,4.4-12.1,13.3-12.1h8.5v10.3h-6.1c-2.5,0-3.6,1.1-3.6,3.6v2.1h15v-3.9c0-7.7,4.4-12.1,13.3-12.1h9.9v10.3H1067.9z"/>
		<path class="st0" d="M1112,1715.9h10.7v42.9c0,10.9-6.7,19-23.6,19c-12.3,0-20.7-5.6-21.3-15.8h12.2c1.1,4.2,4.5,6.6,10.1,6.6
			c6.8,0,10.8-3.4,10.8-10.2v-4.6c-2.9,3.7-7.3,6.1-13.5,6.1c-11.9,0.1-20.5-8.6-20.5-22.3c0-13.5,8.7-22.3,20.5-22.3
			c6.4,0,10.8,2.8,13.8,6.7L1112,1715.9z M1110.7,1737.7c0-7.4-4.1-12.6-10.7-12.6c-6.6,0-10.8,5.2-10.8,12.6s4.2,12.5,10.8,12.5
			C1106.5,1750.1,1110.7,1745,1110.7,1737.7z"/>
		<path class="st0" d="M1174.1,1735.6v24.5H1162v-23.5c0-7.2-2.9-11.3-8.9-11.3c-6.2,0-9.9,4.5-9.9,12v22.7H1131v-60.2h12.1v21.4
			c2.8-3.4,6.8-5.9,13.1-5.9C1166,1715.4,1174.1,1720.6,1174.1,1735.6z"/>
		<path class="st0" d="M1180.8,1704.4c0-4,3.1-6.9,7-6.9c4,0,7,2.9,7,6.9c0,3.9-3.1,6.8-7,6.8
			C1183.9,1711.2,1180.8,1708.2,1180.8,1704.4z M1181.8,1715.9h12.2v44.2h-12.2V1715.9z"/>
		<path class="st0" d="M1194.1,1767h4.2c3,0,4.4-1.5,4.4-4.9v-46.3h12.1v48c0,8.2-4.3,13.4-12.7,13.4h-8V1767z M1201.8,1704.4
			c0-4,3.1-6.9,7-6.9c4,0,7,2.9,7,6.9c0,3.9-3.1,6.8-7,6.8C1204.9,1711.2,1201.8,1708.2,1201.8,1704.4z"/>
		<path class="st0" d="M1217.8,1767h1.7c3,0,4.4-1.5,4.4-4.9v-46.3h12.1v48c0,8.2-4.3,13.4-12.7,13.4h-5.5V1767z M1222.8,1704.4
			c0-4,3.1-6.9,7-6.9c4,0,7,2.9,7,6.9c0,3.9-3.1,6.8-7,6.8C1225.9,1711.2,1222.8,1708.2,1222.8,1704.4z"/>
		<path class="st0" d="M1244.4,1699.9h12.1v34.7l17.3-18.7h13.7l-15.9,17.4l16.8,26.8h-14l-11.2-17.9l-6.6,7.1v10.7h-12.1V1699.9z"
			/>
		<path class="st0" d="M1292.2,1699.9h12.1v60.2h-12.1V1699.9z"/>
		<path class="st0" d="M1382,1734.7v25.4h-12.1v-24.7c0-6.6-2.4-10.1-7.7-10.1c-5.2,0-8.8,3.9-8.8,10.6v24.2h-12.1v-24.7
			c0-6.6-2.4-10.1-7.7-10.1c-5.2,0-8.7,4-8.7,10.7v24.1h-12.1v-44.2h10.6l1.1,5.5c2.7-3.4,6.5-5.9,13-6c5.4-0.1,10.5,1.9,13.2,7.5
			c3.1-4.7,8.3-7.5,15-7.5C1374.8,1715.4,1382,1720.5,1382,1734.7z"/>
		<path class="st0" d="M1432.7,1735.6v24.5h-12.1v-23.3c0-7.5-2.8-11.4-8.9-11.4c-6.3,0-9.9,4.5-9.9,12.1v22.6h-12.1v-44.2h10.6
			l1.1,5.5c2.8-3.4,6.9-6,13.7-6C1424.5,1715.4,1432.7,1720.5,1432.7,1735.6z"/>
		<path class="st0" d="M768.1,1812.2c0-13.6,9.2-22.6,23.3-22.6s23.3,9,23.3,22.6c0,13.7-9.2,22.6-23.3,22.6
			S768.1,1825.8,768.1,1812.2z M802.4,1812.2c0-7.5-4.2-12.7-11-12.7s-10.9,5.2-10.9,12.7s4.1,12.7,10.9,12.7
			S802.4,1819.7,802.4,1812.2z"/>
		<path class="st0" d="M867.3,1812.3c0,13.8-8.6,22.5-20.5,22.5c-6.1,0-10.5-2.5-13.3-6.1v22.8h-12.1v-61.4H832l1.2,6.1
			c2.8-3.8,7.3-6.6,13.6-6.6C858.7,1789.5,867.3,1798.4,867.3,1812.3z M855,1812.1c0-7.5-4.3-12.6-10.9-12.6
			c-6.6,0-10.7,5.2-10.7,12.6c0,7.6,4.1,12.8,10.7,12.8C850.7,1824.9,855,1819.7,855,1812.1z"/>
		<path class="st0" d="M907.6,1790.1h10.6v61.4h-12.1v-22.9c-2.9,3.6-7.2,6.2-13.3,6.2c-11.8,0-20.5-8.5-20.5-22.5
			c0-13.7,8.7-22.8,20.5-22.7c6.3,0,10.7,2.7,13.6,6.4L907.6,1790.1z M906.2,1812.2c0-7.6-4.1-12.7-10.7-12.7
			c-6.6,0-10.8,5.2-10.8,12.6c0,7.6,4.2,12.8,10.8,12.8C902.1,1824.9,906.2,1819.7,906.2,1812.2z"/>
		<path class="st0" d="M953.5,1790.1v11h-4.8c-7.2,0-10,4.8-10,11.5v21.7h-12.1v-44.2h11l1.1,6.6c2.4-4,5.8-6.6,12.7-6.6H953.5z"/>
		<path class="st0" d="M967.8,1819.6c0.4,3.9,3.8,6.5,9.7,6.5c5.1,0,8.2-1.6,8.2-4.7c0-3.6-3-3.9-10.1-4.8
			c-10.3-1.2-18.3-3.5-18.3-12.6c0-8.8,7.7-14.5,19-14.4c11.9,0,20,5.2,20.6,14.3h-11.6c-0.3-3.5-3.7-5.7-8.6-5.7
			c-4.7,0-7.8,1.7-7.8,4.6c0,3.4,3.8,3.7,10.1,4.5c10.1,1,18.6,3.4,18.6,13.3c0,8.8-8.3,14.4-20.1,14.4c-12.3,0-20.6-5.8-21.1-15.2
			H967.8z"/>
		<path class="st0" d="M1057.4,1824.1v10.2h-10c-8.4,0-12.7-4.2-12.7-12.6v-21.3h-15.5v19.3c0,3.1,1.2,4.4,4.3,4.4h5.2v10.2h-8.9
			c-8.4,0-12.6-4.2-12.6-12.6v-21.3h-7.3v-10.2h7.3v-12.4h12.1v12.4h15.5v-12.4h12.2v12.4h10.1v10.2h-10.1v19.3
			c0,3.1,1.2,4.4,4.3,4.4H1057.4z"/>
		<path class="st0" d="M1092.5,1790.1h12.1v44.2h-10.7l-1.1-5.3c-2.8,3.4-6.7,5.8-13,5.8c-9.1,0-17.5-4.6-17.5-20.2v-24.5h12.1v22.9
			c0,7.9,2.6,11.8,8.6,11.8s9.5-4.4,9.5-12.6V1790.1z"/>
		<path class="st0" d="M1108.8,1790.1h13l10.7,31.8l10.5-31.8h12.7l-15.9,44.2h-15L1108.8,1790.1z"/>
		<path class="st0" d="M1154.9,1790.1h12.8l8.9,31.1l8.3-31.1h10.9l8.1,31.2l9-31.2h12.4l-14.5,44.2h-12.9l-7.7-26.7l-7.9,26.7
			h-12.9L1154.9,1790.1z"/>
		<path class="st0" d="M1239.8,1811.8l-15.6-21.7h13.8l9.1,13.1l9.4-13.1h13.1l-15.6,21.7l16.4,22.5h-13.8l-10.1-13.8l-10.1,13.8
			h-13L1239.8,1811.8z"/>
		<path class="st0" d="M1268.2,1790.1h12.9l10.7,31.5l10.5-31.5h13l-19.6,50.5c-2.8,7.3-5,10.9-11.9,10.9h-11.8v-10.2h6.7
			c3.1,0,4.1-0.8,5.3-3.8l1.1-2.9L1268.2,1790.1z"/>
		<path class="st0" d="M1314.7,1790.1h12.9l10.7,31.5l10.5-31.5h13l-19.6,50.5c-2.8,7.3-5,10.9-11.9,10.9h-11.8v-10.2h6.7
			c3.1,0,4.1-0.8,5.3-3.8l1.1-2.9L1314.7,1790.1z"/>
		<path class="st0" d="M1364.1,1790.1h37.4v8.3l-22.1,25.7h23.1v10.2h-39.5v-8.3l22.1-25.7h-21.1V1790.1z"/>
		<path class="st0" d="M768.6,1895.6c0-18,10.2-29.2,24.8-29.2c14.6,0,24.8,11.3,24.8,29.2v2.8c0,18.3-10.2,29.2-24.8,29.2
			c-14.5,0-24.8-10.9-24.8-29.2V1895.6z M805.8,1896c0-12.4-5.1-19.2-12.5-19.2c-7.3,0-12.4,6.8-12.4,19.2v1.9
			c0,12.5,5.1,19.2,12.4,19.2c7.4,0,12.5-6.7,12.5-19.2V1896z"/>
		<path class="st0" d="M835.4,1866.9h12.1v60.2h-12.4v-38.9c-0.9,0.3-2,0.3-3.3,0.3h-10.1v-10.2h8.9c3.4,0,4.6-2.3,4.6-5.8V1866.9z"
			/>
		<path class="st0" d="M854.5,1917.5l22.9-18.9c5.2-4.3,8.5-7.9,8.5-12.8c0-5.9-3.9-9-9.4-9c-5.8,0-9.7,4-9.7,10.5v0.9h-12.5v-1.7
			c0-11.3,8.5-20.1,22.3-20.1c14.1,0,21.8,7.7,21.8,18.9c0,8.9-4.8,14.3-12.4,20.4l-13.5,11h26.2v10.4h-44.2V1917.5z"/>
		<path class="st0" d="M948.7,1910.1c0,10.4-8.9,17.5-23.1,17.5s-23.2-7.2-23.2-20.1h12.3c0.2,6.8,5,10.4,11.5,10.4
			c5.6,0,10-3.2,10-8.6c0-4.7-3.5-7.7-10.5-7.7h-5.9v-9.9h5.2c6.6,0,10-3.4,10-8.1c0-4.9-4.1-7.5-9.3-7.5c-5.8,0-10,3.6-10.1,9.2
			h-12.1c0.2-11.3,9.3-18.9,22.4-18.9c13.6,0,21.7,6.4,21.7,16.2c0,7.3-4.6,11.6-10.5,13.2C943.5,1897.1,948.7,1901.3,948.7,1910.1z
			"/>
		<path class="st0" d="M952.8,1903.9l26.6-37.1h15v37h8.3v10.3h-8.3v12.9h-12.1v-12.9h-29.5V1903.9z M964.6,1903.9h17.6v-24.7
			L964.6,1903.9z"/>
		<path class="st0" d="M1052.4,1906.7c0,13.8-10.3,20.9-22.8,20.9c-13.9,0-22.5-8.9-23-19.9h12.3c0.6,5.4,4.4,9.7,10.8,9.7
			c5.2,0,10.2-3.6,10.2-10.7c0-6.4-4-10.8-10.3-10.8c-3.4,0-8,1.3-10.1,6.3h-12l1.7-35.2h39.5v10.4h-28.3l-0.7,13.2
			c3-2.8,7-4.4,12.3-4.4C1044.2,1886.1,1052.4,1894.4,1052.4,1906.7z"/>
		<path class="st0" d="M1057.5,1897.6c0-20.1,9.6-31.2,24.8-31.2c11.3,0,20.1,6.4,21.5,17.5h-12.2c-1.1-4.8-4.9-7.5-10.2-7.5
			c-7.7,0-12.1,6.2-12.1,17.3v1.5c0.3-0.4,0.4-0.8,0.8-1.3c2.8-4.3,8-7,14.2-7c12.1,0,20.4,8.3,20.4,20.4c0,12.3-9,20.5-22.4,20.5
			c-8.4,0-14.9-3.4-19.1-9.5C1059.4,1913.1,1057.5,1905.9,1057.5,1897.6z M1082.1,1896.4c-6.1,0-10.3,4.3-10.3,10.7
			c0,6.4,4,10.7,10.1,10.7s10.1-4.4,10.1-10.7C1092.1,1900.8,1088.2,1896.4,1082.1,1896.4z"/>
		<path class="st0" d="M1106.5,1866.9h44.1v8l-26.5,52.2h-13.4l26.3-49.7h-30.5V1866.9z"/>
		<path class="st0" d="M1199.3,1910.3c0,10.3-8.4,17.3-23.4,17.3c-15,0-23.4-7-23.4-17.3c0-8.5,5.7-13.2,11.9-14.6
			c-5.3-1.5-10.3-5.8-10.3-13.4c0-9.3,8.3-15.9,21.8-15.9s21.8,6.6,21.8,15.9c0,7-4.9,11.8-10.3,13.3
			C1193.6,1897,1199.3,1901.7,1199.3,1910.3z M1186.8,1909.9c0-5.2-4.4-9.1-10.8-9.1c-6.4,0-10.7,3.9-10.7,9.1
			c0,5.2,4.4,8.9,10.7,8.9C1182.4,1918.8,1186.8,1915,1186.8,1909.9z M1166.5,1882.9c0,4.6,3.7,7.8,9.4,7.8c5.8,0,9.5-3.2,9.5-7.8
			c0-4.6-3.7-7.7-9.5-7.7C1170.2,1875.2,1166.5,1878.3,1166.5,1882.9z"/>
		<path class="st0" d="M1204.8,1910.1h12.2c1,4.7,4.7,7.5,10.2,7.5c8,0,12.3-6.4,12.3-17.3c0-0.4,0-0.9-0.1-1.5l-1.3,1.9
			c-2.9,4-7.7,6.3-13.4,6.3c-12.2,0-20.5-7.8-20.5-20.1c0-11.9,9-20.5,22.4-20.5c8.1,0,14.4,3.2,18.6,8.8c3.9,5.2,6.1,12.5,6.1,21.1
			c0,19.9-8.9,31.3-24.8,31.3C1214.2,1927.6,1206.2,1921.2,1204.8,1910.1z M1237,1886.7c0-6.4-4.1-10.6-10.2-10.6
			s-10.1,4.3-10.1,10.6c0,6.4,3.9,10.7,10,10.7S1237,1893.1,1237,1886.7z"/>
	</g>
	<g>
		<path class="st0" d="M73,1101.5h144.4c87.9,0,138.9,36.9,138.9,100.4c0,47.8-28.2,74.9-71.6,84.1c50.5,6.5,85.2,33.1,85.2,87.4
			c0,66.2-52.1,108-145.4,108H73V1101.5z M154.4,1165.6v92.3h65.1c34.7,0,55.4-17.9,55.4-46.1c0-28.2-20.1-46.1-55.4-46.1H154.4z
			 M154.4,1320.8v96.1H225c39.1,0,61.3-17.9,61.3-47.2c0-30.9-22.8-48.8-61.3-48.8H154.4z"/>
		<path class="st0" d="M73,1546.3h278.4v50.5l-167.1,329.4H99.6l166.1-313.7H73V1546.3z"/>
		<path class="st0" d="M365.5,1727.6c0-113.4,64.6-184.5,156.3-184.5c92.3,0,156.8,71.1,156.8,184.5v17.4
			c0,115.6-64.6,184.5-156.8,184.5c-91.7,0-156.3-68.9-156.3-184.5V1727.6z M600.5,1730.3c0-78.1-32-121-78.7-121
			c-46.1,0-78.1,42.9-78.1,121v11.9c0,78.7,32,121,78.1,121c46.7,0,78.7-42.3,78.7-121V1730.3z"/>
	</g>
</g>
<g>
	<g>
		<path class="st0" d="M912.6,146.3l23-60.2h8.9l22.9,60.2h-8l-6.4-16.2h-26.2l-6.4,16.2H912.6z M928.9,123.3h21.8l-10.9-29
			L928.9,123.3z"/>
		<path class="st0" d="M974,86.1h21.3c12.8,0,19.9,6.2,19.9,15.9c0,6.9-3.8,11.1-9.5,13.1c6.4,1.2,11.9,5.3,11.9,14
			c0,10.7-7.6,17.2-21.8,17.2H974V86.1z M981.5,92.9v19.3h14.2c7.7,0,12.1-3.6,12.1-9.7c0-6-4.3-9.6-12.1-9.6H981.5z M981.5,119
			v20.5H996c9.3,0,14.2-3.9,14.2-10.1c0-6.8-5.2-10.5-14.2-10.5H981.5z"/>
		<path class="st0" d="M1024.9,116.2c0-18.2,11.3-30.6,28.7-30.6c13.3,0,23,7.7,25.3,20.2h-7.9c-2.3-8.3-8.7-13.3-17.7-13.3
			c-12.6,0-20.7,9.8-20.7,23.7c0,13.8,7.7,23.7,20.4,23.7c9.3,0,15.7-4.9,18-13.3h7.9c-2.2,12.5-12.2,20.2-25.8,20.2
			C1035.8,146.8,1024.9,134.6,1024.9,116.2z"/>
		<path class="st0" d="M1087.8,146.3V86.1h19.3c18.8,0,30.3,12,30.3,30.1c0,18-11.4,30.1-30.3,30.1H1087.8z M1095.3,139.4h11.8
			c14.6,0,22.6-9.2,22.6-23.2c0-14.1-8-23.2-22.6-23.2h-11.8V139.4z"/>
		<path class="st0" d="M1146.8,86.1h38.3V93h-30.9v19.3h25.7v6.9h-25.7v20.3h32v6.9h-39.5V86.1z"/>
		<path class="st0" d="M1194.7,86.1h37.4V93h-29.9v20.1h24.8v6.9h-24.8v26.3h-7.5V86.1z"/>
		<path class="st0" d="M1235.4,116.2c0-18.2,11.3-30.6,28.7-30.6c13.3,0,23.4,7.7,25.4,20.1h-8c-2.1-8.3-8.5-13.2-17.6-13.2
			c-12.6,0-20.9,9.8-20.9,23.7s8.3,23.7,20.7,23.7c11.1,0,19.1-6.6,19.1-17.3v-2.1h-18.1v-6.9h25.4v32.6h-6.4l-0.5-8.8
			c-2.8,4.4-9.2,9.3-19.5,9.3C1247.1,146.8,1235.4,134.5,1235.4,116.2z"/>
		<path class="st0" d="M1301.9,86.1h7.5v26.1h31.1V86.1h7.5v60.2h-7.5v-27.2h-31.1v27.2h-7.5V86.1z"/>
		<path class="st0" d="M1359.7,86.1h7.5v60.2h-7.5V86.1z"/>
		<path class="st0" d="M1389.8,86.1h7.5v46c0,9.3-4.9,14.2-14.2,14.2h-7.8v-6.9h6.9c5.4,0,7.7-2.5,7.7-7.9V86.1z"/>
		<path class="st0" d="M1408.9,86.1h7.5v34.1l30.3-34.1h9.1l-22,25.4l23.7,34.8h-8.9l-20.3-29.1l-11.9,13.5v15.6h-7.5V86.1z"/>
		<path class="st0" d="M1463.8,146.3V86.1h7.5v53.3h27.4v6.9H1463.8z"/>
		<path class="st0" d="M1506.2,86.1h9.5l21.3,49.9l21.1-49.9h9.3v60.2h-7.3V98.9l-19.9,47.5h-6.6l-19.9-47.5v47.5h-7.3V86.1z"/>
		<path class="st0" d="M1579.1,146.3V86.1h6.9l32.3,46.4V86.1h7.3v60.2h-6.9l-32.3-46.4v46.4H1579.1z"/>
		<path class="st0" d="M943.9,221.1c-16.9,0-28.7-12.9-28.7-30.6s11.8-30.6,28.7-30.6s28.7,12.9,28.7,30.6S960.9,221.1,943.9,221.1z
			 M943.9,214.2c12.6,0,21.1-9.9,21.1-23.7s-8.5-23.7-21.1-23.7c-12.6,0-21.1,9.9-21.1,23.7S931.4,214.2,943.9,214.2z"/>
		<path class="st0" d="M982.1,160.4h23.1c12,0,19.9,7.2,19.9,18.5c0,11.3-7.9,18.6-19.9,18.6h-15.6v23.1h-7.5V160.4z M989.6,167.2
			v23.3h15c7.9,0,13-4.6,13-11.7s-5-11.6-12.9-11.6H989.6z"/>
		<path class="st0" d="M1092.1,213.7v6.9h-5.5c-4.6,0-7-1.2-9.1-4.1l-0.6-0.9c-4.6,3.5-10.6,5.5-17.2,5.5
			c-16.9,0-28.7-12.9-28.7-30.6s11.8-30.6,28.7-30.6s28.7,12.9,28.7,30.6c0,8-2.4,15-6.6,20.3c1.6,2.1,3.1,2.9,5.7,2.9H1092.1z
			 M1072.5,209.7l-1.6-2.2c-1.6-2.1-3.1-3-5.2-3h-5.1v-6.9h6.3c4,0,6.2,1.3,8.3,4.2l1.9,2.6c2.3-3.8,3.6-8.6,3.6-13.9
			c0-13.8-8.5-23.7-21.1-23.7c-12.6,0-21.1,9.9-21.1,23.7s8.5,23.7,21.1,23.7C1064.7,214.2,1069.1,212.5,1072.5,209.7z"/>
		<path class="st0" d="M1098.2,160.4h23c12,0,20,7.2,20,18.5c0,8.4-5.1,15-12.8,17.1l13.5,24.6h-8.4l-12.7-23.1h-15.1v23.1h-7.5
			V160.4z M1105.6,167.2v23.3h15c7.9,0,13-4.6,13-11.7s-5.1-11.6-12.9-11.6H1105.6z"/>
		<path class="st0" d="M1155.7,200.9c0.6,8.1,6.9,13.4,16.1,13.4c8.1,0,13.8-3.7,13.8-10.2c0-7.5-7.4-9-16.5-10.6
			c-9.7-1.6-19.7-4.8-19.7-16.5c0-10.2,8.3-17.1,20.5-17.1c13.4,0,21.7,7.5,22.4,18.3h-7.7c-0.9-7-6.4-11.5-14.6-11.5
			c-7.8,0-13.1,3.4-13.1,9.9c0,7.2,7.3,8.7,16.3,10.2c9.8,1.6,19.9,4.9,19.9,16.6c0,10.4-8.8,17.7-21.4,17.7
			c-14.7,0-23.3-8.3-23.7-20.2H1155.7z"/>
		<path class="st0" d="M1195.8,160.4h46.5v6.9h-19.5v53.3h-7.5v-53.3h-19.5V160.4z"/>
		<path class="st0" d="M1249.5,160.4h7.5v34.9c0,12.5,5,18.9,15.4,18.9c10.6,0,15.6-6.4,15.6-18.9v-34.9h7.5v34.5
			c0,17.2-8,26.2-23,26.2c-15,0-22.9-9-22.9-26.2V160.4z"/>
		<path class="st0" d="M1301.7,160.4h7.9l18.4,51.3l18.3-51.3h7.7l-21.7,60.2h-9L1301.7,160.4z"/>
		<path class="st0" d="M1355.4,160.4h7.8l14.1,50.5l14.8-50.5h7.6l14.3,50.5l14.2-50.5h7.7l-17.6,60.2h-8.9l-13.8-47.7l-13.7,47.7
			h-8.9L1355.4,160.4z"/>
		<path class="st0" d="M1456.2,189.7l-19-29.3h8.8l15,23.3l15-23.3h8.6l-19,28.8l20.3,31.4h-8.9l-16.3-25.2l-16.2,25.2h-8.7
			L1456.2,189.7z"/>
		<path class="st0" d="M1486,160.4h8.8l17.7,29.8l18-29.8h8.4l-22.7,37.9v22.3h-7.5v-22.3L1486,160.4z"/>
		<path class="st0" d="M1542.5,160.4h44.9v5.4l-35.9,47.9h37.1v6.9h-47.1v-5.4l35.9-47.9h-34.8V160.4z"/>
		<path class="st0" d="M957.4,288.3v6.4h-3.9c-5.8,0-7.8-2.5-7.9-6.8c-2.8,4-7.1,7.3-14.7,7.3c-9.6,0-16.2-4.8-16.2-12.8
			c0-8.8,6.1-13.7,17.6-13.7h12.9v-3c0-5.7-4-9.1-10.9-9.1c-6.2,0-10.3,2.9-11.2,7.4h-7c1-8.6,8-13.7,18.6-13.7
			c11.2,0,17.6,5.6,17.6,15.8v19.2c0,2.3,0.9,2.9,2.8,2.9H957.4z M945.3,274.7h-13.6c-6.3,0-9.8,2.3-9.8,7.3c0,4.3,3.7,7.2,9.5,7.2
			c8.8,0,13.8-5.1,13.8-12.4V274.7z"/>
		<path class="st0" d="M1006,272.8c0,13.4-8.9,22.4-21.1,22.4c-7.4,0-12.4-3-15-7.2l-0.9,6.7h-6.1v-60.2h7V258c2.9-4,7.7-7.6,15-7.6
			C997.1,250.4,1006,258.6,1006,272.8z M998.8,272.8c0-9.5-5.8-16.2-14.5-16.2c-8.6,0-14.4,6.6-14.4,16c0,9.6,5.8,16.3,14.4,16.3
			C992.9,289,998.8,282.4,998.8,272.8z"/>
		<path class="st0" d="M1012.5,272.9c0-13.4,8.7-22.5,21.4-22.5c10.7,0,17.5,6,19.3,15.6h-7.4c-1.3-5.8-5.6-9.4-12-9.4
			c-8.4,0-14.1,6.7-14.1,16.2s5.7,16.1,14.1,16.1c6.3,0,10.6-3.6,11.9-9.2h7.5c-1.7,9.5-8.9,15.5-19.5,15.5
			C1021,295.3,1012.5,286.6,1012.5,272.9z"/>
		<path class="st0" d="M1095.6,234.6h7v60.2h-6.1l-0.9-7c-2.9,4-7.7,7.6-15,7.6c-12.1,0-21.1-8.2-21.1-22.4
			c0-13.4,8.9-22.4,21.1-22.4c7.4,0,12.4,3,15,7.2V234.6z M1095.7,273c0-9.6-5.8-16.3-14.4-16.3c-8.7,0-14.5,6.6-14.5,16.2
			s5.8,16.2,14.5,16.2C1089.8,289,1095.7,282.4,1095.7,273z"/>
		<path class="st0" d="M1110.7,272.8c0-13.3,8.4-22.4,20.8-22.4c12.4,0,20.5,7.8,20.8,20.8c0,0.9-0.1,2-0.2,3h-34v0.6
			c0.3,8.3,5.5,14.2,13.8,14.2c6.2,0,11-3.3,12.5-8.9h7.1c-1.7,8.8-8.9,15.2-19.1,15.2C1119.3,295.3,1110.7,286.2,1110.7,272.8z
			 M1144.8,268.4c-0.7-7.6-5.8-11.8-13.2-11.8c-6.4,0-12.4,4.6-13.1,11.8H1144.8z"/>
		<path class="st0" d="M1199.3,241c-3.5,0-4.8,1.5-4.8,4.8v5.1h12.4v6.4h-12.4v37.4h-7v-37.4h-17.2v37.4h-7v-37.4h-7.9v-6.4h7.9V246
			c0-7.7,3.3-11.4,11.4-11.4h7.2v6.4h-6.8c-3.5,0-4.8,1.5-4.8,4.8v5.1h17.2V246c0-7.7,3.3-11.4,11.4-11.4h8.1v6.4H1199.3z"/>
		<path class="st0" d="M1245.5,250.9h6.1v41.7c0,12.6-6.7,19.9-21.8,19.9c-11.2,0-19-5.2-20.1-14.9h7.2c1.2,5.5,6.1,8.6,13.4,8.6
			c9.2,0,14.2-4.3,14.2-13.8v-5.2c-2.9,5-7.7,8.1-15,8.1c-12.1,0-21.1-8.2-21.1-22.4c0-13.4,8.9-22.4,21.1-22.4
			c7.4,0,12.3,3.2,15,8.1L1245.5,250.9z M1244.6,273c0-9.6-5.8-16.3-14.4-16.3c-8.7,0-14.5,6.6-14.5,16.2s5.8,16.2,14.5,16.2
			C1238.8,289,1244.6,282.4,1244.6,273z"/>
		<path class="st0" d="M1300.5,270.3v24.4h-7v-24c0-9.1-4.4-13.9-11.9-13.9c-8.2,0-13.2,6.1-13.2,16v21.9h-7v-60.2h7v23.6
			c2.6-4.1,7-7.7,14.4-7.7C1292.5,250.4,1300.5,255.8,1300.5,270.3z"/>
		<path class="st0" d="M1308.6,239c0-2.7,2-4.6,4.6-4.6s4.6,1.9,4.6,4.6c0,2.7-2,4.6-4.6,4.6S1308.6,241.6,1308.6,239z
			 M1309.6,250.9h7v43.8h-7V250.9z"/>
		<path class="st0" d="M1316.4,305.5h5.5c3.5,0,4.8-1.5,4.8-4.8v-49.8h7v49.6c0,7.7-3.3,11.4-11.4,11.4h-5.9V305.5z M1325.7,239
			c0-2.7,2-4.6,4.6-4.6s4.6,1.9,4.6,4.6c0,2.7-2,4.6-4.6,4.6S1325.7,241.6,1325.7,239z"/>
		<path class="st0" d="M1337.1,305.5h2.5c3.5,0,4.8-1.5,4.8-4.8v-49.8h7v49.6c0,7.7-3.3,11.4-11.4,11.4h-2.9V305.5z M1343.5,239
			c0-2.7,2-4.6,4.6-4.6s4.6,1.9,4.6,4.6c0,2.7-2,4.6-4.6,4.6S1343.5,241.6,1343.5,239z"/>
		<path class="st0" d="M1361.1,234.6h7v39.6l22-23.3h8.7l-17.1,18.1l18.3,25.7h-8.5l-14.5-20.6l-8.9,9.1v11.5h-7V234.6z"/>
		<path class="st0" d="M1405.1,234.6h7v60.2h-7V234.6z"/>
		<path class="st0" d="M1487.2,269.5v25.3h-7v-24.8c0-8.6-3.8-13.1-10.4-13.1c-7.3,0-11.8,5.5-11.8,14.4v23.5h-7v-24.8
			c0-8.6-3.9-13.1-10.6-13.1c-7.2,0-11.6,6-11.6,14.8v23.1h-7v-43.8h6.1l0.9,6c2.3-3.2,6-6.5,12.8-6.5c6.1,0,11.3,2.8,13.8,8.3
			c2.7-4.7,7.4-8.3,15.2-8.3C1479.8,250.4,1487.2,255.6,1487.2,269.5z"/>
		<path class="st0" d="M1535.5,270.3v24.4h-7v-24c0-9.1-4.2-13.9-11.9-13.9c-8.3,0-13.2,6.1-13.2,16v21.9h-7v-43.8h6.1l0.9,5.9
			c2.6-3.4,7-6.4,14.4-6.4C1527.6,250.4,1535.5,255.8,1535.5,270.3z"/>
		<path class="st0" d="M914.9,347.1c0-13.3,8.9-22.4,21.8-22.4c12.8,0,21.8,9.1,21.8,22.4s-8.9,22.4-21.8,22.4
			C923.8,369.5,914.9,360.4,914.9,347.1z M951.2,347.1c0-9.4-5.8-16.2-14.5-16.2c-8.7,0-14.5,6.8-14.5,16.2s5.8,16.2,14.5,16.2
			C945.3,363.2,951.2,356.4,951.2,347.1z"/>
		<path class="st0" d="M1009.6,347.1c0,13.4-8.9,22.4-21.1,22.4c-7.4,0-12.4-3-15-7.2v23.9h-7v-61h6.1l0.9,7c2.9-4,7.7-7.6,15-7.6
			C1000.7,324.6,1009.6,332.8,1009.6,347.1z M1002.4,347.1c0-9.5-5.8-16.2-14.5-16.2c-8.6,0-14.4,6.6-14.4,16
			c0,9.6,5.8,16.3,14.4,16.3C996.6,363.2,1002.4,356.6,1002.4,347.1z"/>
		<path class="st0" d="M1053.2,325.1h6.1v61h-7v-24.2c-2.9,4-7.7,7.6-15,7.6c-12.1,0-21.1-8.2-21.1-22.4c0-13.4,8.9-22.4,21.1-22.4
			c7.4,0,12.4,3,15,7.2L1053.2,325.1z M1052.3,347.2c0-9.6-5.8-16.3-14.4-16.3c-8.7,0-14.5,6.6-14.5,16.2s5.8,16.2,14.5,16.2
			C1046.5,363.2,1052.3,356.6,1052.3,347.2z"/>
		<path class="st0" d="M1091.2,325.1v6.9h-3.5c-9.2,0-11.7,7.7-11.7,14.6V369h-7v-43.8h6.1l0.9,6.6c2.1-3.4,5.4-6.6,13.2-6.6H1091.2
			z"/>
		<path class="st0" d="M1101.8,354.5c0.3,5.2,4.8,8.9,12.1,8.9c6.2,0,10.6-2.7,10.6-6.7c0-5.5-4.8-5.9-11.3-6.7
			c-9.8-1.2-17.6-3.2-17.6-12.3c0-8,7.3-13.2,17.2-13.2c10,0.1,17.2,4.7,17.9,13.8h-7.2c-0.5-4.5-4.6-7.8-10.7-7.8
			c-6.1,0-10.2,2.6-10.2,6.6c0,4.8,4.6,5.4,11,6.2c10,1.2,18,3.1,18,12.8c0,8.2-7.8,13.2-17.5,13.2c-11.3,0-19.2-5.3-19.3-15H1101.8
			z"/>
		<path class="st0" d="M1187.1,362.5v6.4h-8.1c-8.4,0-11.4-3.7-11.4-11.4v-26h-18.1v25.9c0,3.7,1.3,5.1,4.8,5.1h6.3v6.4h-6.7
			c-8.4,0-11.4-3.7-11.4-11.4v-26h-7.9v-6.4h7.9v-12.3h7v12.3h18.1v-12.3h7v12.3h11.1v6.4h-11.1v25.9c0,3.7,1.3,5.1,4.8,5.1H1187.1z
			"/>
		<path class="st0" d="M1223.9,325.1h7V369h-6.1l-0.9-5.8c-2.6,3.3-6.8,6.4-14,6.4c-9.6,0-17.3-5.4-17.3-19.9v-24.4h7v24
			c0,9.1,4.1,13.9,11.4,13.9c8,0,12.8-6.1,12.8-16V325.1z"/>
		<path class="st0" d="M1236.2,325.1h7.6L1257,361l13.2-35.8h7.4l-16.4,43.8h-8.5L1236.2,325.1z"/>
		<path class="st0" d="M1278.8,325.1h7.4l10.9,35.7l11.5-35.7h6.5l10.9,35.7l11.4-35.7h7.1L1330,369h-7.7l-10.6-32.6l-11,32.6h-7.7
			L1278.8,325.1z"/>
		<path class="st0" d="M1361.2,346.5l-15.6-21.3h8.4l11.6,16.2l11.8-16.2h8l-15.6,21.3l16.8,22.5h-8.4l-12.8-17.6l-12.8,17.6h-8
			L1361.2,346.5z"/>
		<path class="st0" d="M1386.2,325.1h7.5l13.5,35l13.1-35h7.5l-20.2,51.2c-2.8,7-4.4,9.8-10.6,9.8h-8.4v-6.4h6.3c4,0,4.7-1,6.4-5.2
			l2.1-5.3L1386.2,325.1z"/>
		<path class="st0" d="M1428.7,325.1h7.5l13.5,35l13.1-35h7.5l-20.2,51.2c-2.8,7-4.4,9.8-10.6,9.8h-8.4v-6.4h6.3c4,0,4.7-1,6.4-5.2
			l2.1-5.3L1428.7,325.1z"/>
		<path class="st0" d="M1473,325.1h34.9v5.3l-26.7,32.1h27.8v6.4h-37.1v-5.3l26.6-32.1H1473V325.1z"/>
		<path class="st0" d="M915.3,430.3c0-17.1,9.3-29.2,22.9-29.2c13.5,0,22.8,12.1,22.8,29.2v2.8c0,18-9.3,29.2-22.8,29.2
			c-13.6,0-22.9-11.3-22.9-29.2V430.3z M953.7,430.5c0-14.3-6.2-22.9-15.5-22.9c-9.4,0-15.6,8.6-15.6,22.9v2.2
			c0,14.3,6.2,22.9,15.6,22.9c9.3,0,15.5-8.6,15.5-22.9V430.5z"/>
		<path class="st0" d="M979,401.6h7v60.2h-7.2v-43.2c-0.9,0.8-2.2,1.1-4.1,1.1H965v-6.4h9.8c2.8,0,4.2-2.1,4.2-5.2V401.6z"/>
		<path class="st0" d="M993.9,455.6l23.4-20.3c5.6-4.8,10.2-9.5,10.2-16c0-7.6-5.2-11.9-13.2-11.9c-7.7,0-12.9,5.2-12.9,13.4v1.1
			h-7.2v-1.5c0-11.3,8-19.4,20.1-19.4c13,0,20.5,7.1,20.5,18c0,9-5.8,14.7-13,20.8l-18.1,15.3h31.5v6.6h-41.4V455.6z"/>
		<path class="st0" d="M1083.5,445.1c0,10.2-8.6,17.2-21.7,17.2c-13.1,0-21.5-7.1-21.5-19.1h7.1c0.1,7.9,6.3,12.6,14.8,12.6
			c7.8,0,13.8-4.4,13.8-11.3c0-6.3-5.2-10.3-14.5-10.3h-5.2V428h4.7c8.9,0,13.4-4.5,13.4-10.6c0-6.1-5.5-9.9-12.7-9.9
			c-7.6,0-13.1,4.6-13.2,11.4h-7.1c0.1-10.6,8.3-17.9,20.2-17.9c12.4,0,20.2,6.4,20.2,15.9c0,7.6-4,11.9-9.7,13.5
			C1077.8,431.5,1083.5,435.9,1083.5,445.1z"/>
		<path class="st0" d="M1088.1,440.6l30.7-39h8.1v38.9h9.7v6.6h-9.7v14.7h-7.2V447h-31.6V440.6z M1096.2,440.4h23.5v-30
			L1096.2,440.4z"/>
		<path class="st0" d="M1183.6,441.6c0,13.3-9.8,20.5-21.1,20.5c-13.4,0-21.1-8.7-21.8-19.2h7.1c0.7,7,5.9,12.7,14.6,12.7
			c7,0,13.7-4.7,13.7-14c0-8.2-5.2-13.9-13.6-13.9c-3.7,0-11.1,1-13.7,8.2l-7-0.2l2-34.2h36v6.6h-29.4l-1.4,19
			c3.7-4.4,8.9-5.8,14.4-5.8C1175.4,421.4,1183.6,429.7,1183.6,441.6z"/>
		<path class="st0" d="M1190,431.9c0-18.9,8.5-30.9,22.9-30.9c10.9,0,18.4,6.5,19.9,16.6h-7.2c-1.4-6.1-5.7-10.2-13-10.2
			c-10.5,0-16.2,9.5-16.2,23.1c0,0.9,0,1.5,0.1,2.9c0.1-0.3,0.2-0.9,0.5-1.6c2.7-5.9,8.7-9.9,16.8-9.9c11.9,0,20.2,7.8,20.2,20.1
			c0,11.6-8.5,20.2-20.9,20.2c-8.3,0-14.4-3.8-18.2-10C1191.7,447,1190,439.8,1190,431.9z M1213.1,428.3c-8.3,0-14,5.7-14,13.9
			c0,8.1,5.5,13.7,13.8,13.7c8.3,0,13.8-5.8,13.8-13.8C1226.6,434.1,1221.4,428.3,1213.1,428.3z"/>
		<path class="st0" d="M1236.2,401.6h42.5v5.1l-29.6,55.1h-7.8l29.5-53.6h-34.6V401.6z"/>
		<path class="st0" d="M1325.6,445.6c0,9.7-8.3,16.7-21.9,16.7s-21.9-7-21.9-16.7c0-8.2,5.2-13.4,12-15c-5.8-1.3-10.3-6.4-10.3-13.6
			c0-9.5,7.9-16,20.2-16c12.3,0,20.2,6.5,20.2,16c0,6.9-4.5,12.3-10.3,13.6C1320.3,432.2,1325.6,437.3,1325.6,445.6z M1318.2,445.1
			c0-6.4-5.9-10.9-14.5-10.9s-14.5,4.6-14.5,10.9c0,6.4,6,11,14.5,11C1312.3,456.1,1318.2,451.5,1318.2,445.1z M1303.7,426.9
			c7.7,0,12.8-4,12.8-9.9c0-5.8-5.1-9.8-12.8-9.8s-12.8,4-12.8,9.8C1290.9,423,1296,426.9,1303.7,426.9z"/>
		<path class="st0" d="M1333.5,445.7h7.2c1.4,6.1,5.7,10.2,13,10.2c10.5,0,16.2-9.5,16.2-23.1c0-0.9,0-1.5-0.1-2.9
			c-0.1,0.3-0.2,0.9-0.5,1.6c-2.7,5.9-8.7,9.9-16.8,9.9c-11.9,0-20.2-7.8-20.2-20.1c0-11.6,8.5-20.2,20.9-20.2
			c8.3,0,14.4,3.8,18.2,10c3,5.2,4.7,12.5,4.7,20.4c0,18.9-8.5,30.9-22.9,30.9C1342.5,462.3,1335,455.7,1333.5,445.7z M1367.1,421.1
			c0-8.1-5.5-13.7-13.8-13.7c-8.3,0-13.8,5.8-13.8,13.8c0,8,5.2,13.8,13.5,13.8S1367.1,429.3,1367.1,421.1z"/>
	</g>
	<g>
		<path class="st0" d="M559.8,79.7h145.4c76,0,126.4,45.6,126.4,116.7c0,53.2-32,94.4-80.9,108L836,459.6h-53.2l-80.3-146H607v146
			h-47.2V79.7z M607,123.2v147.1h94.4c49.9,0,81.9-29.3,81.9-73.8s-32-73.3-81.4-73.3H607z"/>
		<path class="st0" d="M529.9,770.9l193.7-246.4h51v245.3H836v41.8h-61.3v92.8h-45.6v-92.8H529.9V770.9z M580.9,769.8h148.2V580.4
			L580.9,769.8z"/>
		<path class="st0" d="M1132.9,777.4c0,84.1-61.9,129.7-133,129.7c-84.7,0-133.5-54.8-137.3-121h45c4.3,44,37.4,80.3,92.3,80.3
			c44.5,0,86.3-29.8,86.3-88.5c0-51.6-33.1-87.9-85.7-87.9c-23.3,0-70,6.5-86.3,51.6l-44-1.1l12.5-216h227.4v41.8H924.5l-8.7,119.9
			c23.3-27.7,55.9-36.4,91.2-36.4C1081.3,649.9,1132.9,702,1132.9,777.4z"/>
	</g>
</g>
<rect x="426" y="1101.5" class="st0" width="1085" height="20"/>
<rect x="1602.1" y="1408" class="st0" width="1334.9" height="8"/>
<rect x="1666" y="79.7" class="st0" width="1271" height="3"/>
</svg>
