<?xml version="1.0" encoding="utf-8"?>
<!-- Generator: Adobe Illustrator 22.0.0, SVG Export Plug-In . SVG Version: 6.00 Build 0)  -->
<svg version="1.1" id="Layer_1" xmlns="http://www.w3.org/2000/svg" xmlns:xlink="http://www.w3.org/1999/xlink" x="0px" y="0px"
	 viewBox="0 0 3000 2000" style="enable-background:new 0 0 3000 2000;" xml:space="preserve">
<style type="text/css">
	.st0{fill:#E7E7E7;}
	.st1{fill:#D3D3D3;}
	.st2{fill:#010101;}
	.st3{fill:none;stroke:#666666;stroke-miterlimit:10;}
	.st4{fill:none;stroke:#4D4D4D;stroke-miterlimit:10;}
</style>
<g>
	<rect class="st0" width="3000" height="2000"/>
</g>
<rect x="377" class="st1" width="206" height="2000"/>
<rect class="st1" width="99" height="2000"/>
<rect x="1904" class="st1" width="62.8" height="2000"/>
<g>
	<path class="st2" d="M360.4,125.6c31.4,31.4,48.4,72.6,48.4,120.9s-16.9,89.5-48.4,120.9s-72.6,48.4-120.9,48.4
		s-89.5-16.9-120.9-48.4s-48.4-72.6-48.4-120.9S87,157,118.5,125.6S191,77.2,239.4,77.2C285.4,74.8,324.1,91.7,360.4,125.6z
		 M99.1,604.5h278.2v1320.7H99.1V604.5z"/>
	<path class="st2" d="M1903.6,1685.7v241.9H1756c-87.1,0-150-16.9-186.2-55.6c-36.3-36.3-58.1-89.5-58.1-157.2
		c-101.6,152.4-244.3,227.4-437.8,227.4c-150,0-266.1-33.9-355.6-104s-135.5-164.5-135.5-285.4c0-135.5,48.4-241.9,142.7-312
		c96.8-72.6,234.6-108.8,423.3-108.8h333.8v-80c0-75-26.6-133-77.4-174.2c-50.8-43.5-123.4-62.9-215.3-62.9
		c-79.8,0-147.5,16.9-200.8,50.8c-50.8,33.9-82.2,82.2-94.3,140.3H621.6c14.5-133,72.6-234.6,174.2-307.2
		c104-72.6,239.5-108.8,406.4-108.8c179,0,312,41.1,411.2,123.4c96.8,82.2,142.7,200.8,142.7,355.6v522.5c0,62.9,29,91.9,89.5,91.9
		h58.1L1903.6,1685.7L1903.6,1685.7z M1485.1,1337.4h-345.9c-87.1,0-152.4,16.9-198.3,50.8s-70.1,82.2-70.1,150
		c0,58.1,24.2,104,65.3,137.9c43.5,33.9,104,50.8,179,50.8c116.1,0,203.2-31.4,270.9-91.9c62.9-62.9,96.8-142.7,101.6-246.7v-50.8
		C1487.5,1337.4,1485.1,1337.4,1485.1,1337.4z"/>
	<path class="st2" d="M3037.3,734.3c96.2,96.2,149.2,247.8,149.2,461.9v724.1h-279.1V1213c0-125.1-26.5-218.9-79.4-286.3
		c-55.3-65-132.3-96.2-233.4-96.2c-108.3,0-194.9,36.1-257.4,115.5s-93.8,180.4-93.8,315.2v664h-276.7V606.8h240.6l31.3,170.8
		c101-125.1,240.6-187.6,421-187.6C2811.2,592.4,2936.3,640.5,3037.3,734.3z"/>
</g>
<line class="st3" x1="0" y1="605" x2="3000" y2="605"/>
<line class="st3" x1="0" y1="1006.5" x2="3000" y2="1006.5"/>
<line class="st3" x1="0" y1="831.6" x2="3000" y2="831.6"/>
<line class="st3" x1="0" y1="814.1" x2="3000" y2="814.1"/>
<line class="st3" x1="0" y1="1131.5" x2="3000" y2="1131.5"/>
<line class="st3" x1="0" y1="1337.5" x2="3000" y2="1337.5"/>
<line class="st3" x1="0" y1="1683.5" x2="3000" y2="1683.5"/>
<line class="st3" x1="0" y1="1726.9" x2="3000" y2="1726.9"/>
<line class="st3" x1="0" y1="1925" x2="3000" y2="1925"/>
<line class="st3" x1="0" y1="1942.1" x2="3000" y2="1942.1"/>
<line class="st3" x1="0" y1="416" x2="3000" y2="416"/>
<line class="st3" x1="0" y1="590.5" x2="3000" y2="590.5"/>
<line class="st3" x1="0" y1="77" x2="3000" y2="77"/>
<line class="st3" x1="377.3" y1="0" x2="377.3" y2="2000"/>
<line class="st3" x1="408.5" y1="0" x2="408.5" y2="2000"/>
<line class="st4" x1="70.1" y1="0" x2="70.1" y2="2000"/>
<line class="st4" x1="99.1" y1="0" x2="99.1" y2="2000"/>
<line class="st3" x1="582.9" y1="0" x2="582.9" y2="2000"/>
<line class="st3" x1="622.7" y1="0" x2="622.7" y2="2000"/>
<line class="st3" x1="893.1" y1="3.3" x2="893.1" y2="2003.3"/>
<line class="st3" x1="870.7" y1="3.3" x2="870.7" y2="2003.3"/>
<line class="st3" x1="1755.8" y1="0" x2="1755.8" y2="2000"/>
<line class="st3" x1="1482.1" y1="0" x2="1482.1" y2="2000"/>
<line class="st3" x1="1487.5" y1="0" x2="1487.5" y2="2000"/>
<line class="st3" x1="1903.6" y1="0" x2="1903.6" y2="2000"/>
<line class="st3" x1="1966.8" y1="0" x2="1966.8" y2="2000"/>
<line class="st3" x1="2242.9" y1="0" x2="2242.9" y2="2000"/>
<line class="st3" x1="2905" y1="0" x2="2905" y2="2000"/>
</svg>
