<?xml version="1.0" encoding="utf-8"?>
<!-- Generator: Adobe Illustrator 22.0.0, SVG Export Plug-In . SVG Version: 6.00 Build 0)  -->
<svg version="1.1" id="Layer_1" xmlns="http://www.w3.org/2000/svg" xmlns:xlink="http://www.w3.org/1999/xlink" x="0px" y="0px"
	 viewBox="0 0 1920 1280" style="enable-background:new 0 0 1920 1280;" xml:space="preserve">
<style type="text/css">
	.st0{fill:#ECEDED;}
	.st1{fill:#FFFFFF;}
	.st2{opacity:0.5;fill:#105434;enable-background:new    ;}
	.st3{opacity:0.8;fill:#0C4329;enable-background:new    ;}
	.st4{fill:#082919;}
	.st5{fill:#755D3B;}
	.st6{fill:#C39C63;}
	.st7{fill:#9C7C4F;}
	.st8{opacity:0.8;}
	.st9{fill:#0C4329;}
	.st10{opacity:0.5;}
	.st11{fill:#105434;}
	.st12{opacity:0.5;fill:#C39C63;enable-background:new    ;}
	.st13{fill:none;}
	.st14{fill:#080808;}
	.st15{enable-background:new    ;}
	.st16{opacity:0.5;fill:none;stroke:#080808;stroke-miterlimit:10;}
</style>
<g>
	<rect class="st0" width="1920" height="1280"/>
	<g>
		<path class="st1" d="M1750.4,218.8H169.6c-15.5,0-28.1,12.6-28.1,28.1v786.3c0,15.5,12.6,28.1,28.1,28.1h1580.8
			c15.5,0,28.1-12.6,28.1-28.1V246.8C1778.5,231.3,1765.9,218.8,1750.4,218.8z"/>
		<g>
			<path class="st2" d="M271.4,474.9c0,44.3,35.9,80.2,80.2,80.2s80.2-35.9,80.2-80.2L271.4,474.9L271.4,474.9z"/>
			<path class="st3" d="M271.4,474.9h80.2v-80.2C307.3,394.7,271.4,430.6,271.4,474.9z"/>
			<path class="st4" d="M351.6,394.7v80.2h80.2C431.8,430.6,395.9,394.7,351.6,394.7z"/>
			<polygon class="st5" points="617.2,394.7 537,394.7 537,555.1 617.2,555.1 617.2,474.9 			"/>
			<rect x="617.2" y="394.7" class="st6" width="80.2" height="80.2"/>
			<rect x="617.2" y="474.9" class="st7" width="80.2" height="80.2"/>
			<rect x="805.6" y="508" class="st2" width="184.5" height="24.1"/>
			<rect x="805.6" y="462.9" class="st4" width="214.6" height="24.1"/>
			<rect x="805.6" y="417.7" class="st3" width="128.3" height="24.1"/>
			<rect x="1256.6" y="417.2" class="st3" width="24.1" height="137.9"/>
			<rect x="1211.6" y="394.7" class="st4" width="24.1" height="160.4"/>
			<rect x="1166.4" y="459.1" class="st2" width="24.1" height="96"/>
			<g>
				<g>
					<path class="st4" d="M815.6,866.3c-1.2,0-2.5-0.7-3.1-1.8c-0.9-1.7-0.3-3.8,1.4-4.8l84.5-45.8l31.6,9.9l70.7-65.8
						c1.4-1.3,3.6-1.2,5,0.2c1.3,1.4,1.2,3.6-0.2,5l-73.7,68.6l-32.6-10.2L817.3,866C816.7,866.2,816.2,866.3,815.6,866.3z"/>
				</g>
			</g>
			<g class="st8">
				<g>
					<path class="st9" d="M896.8,852.4l-81.9-18.2c-1.9-0.4-3.1-2.3-2.7-4.2c0.4-1.9,2.3-3.1,4.2-2.7l80.5,17.9l109.6-20.9
						c1.9-0.4,3.7,0.9,4.1,2.8c0.4,1.9-0.9,3.7-2.8,4.1L896.8,852.4z"/>
				</g>
			</g>
			<g class="st10">
				<g>
					<path class="st11" d="M815.6,882.4c-1.6,0-3.1-1.1-3.4-2.8c-0.4-1.9,0.8-3.8,2.7-4.2l68.1-14.8l30-32.1l42.3,18.1l52.5-46.6
						c1.4-1.3,3.7-1.2,5,0.3c1.3,1.4,1.2,3.7-0.3,5l-55.8,49.6l-41.9-18L886.6,867l-70.3,15.3C816.1,882.3,815.8,882.4,815.6,882.4z
						"/>
				</g>
			</g>
			<path class="st5" d="M1560.5,438.9c9.2,9.2,14.9,22,14.9,36c0,28.2-22.9,51.1-51.1,51.1c-14.1,0-26.8-5.7-36-14.9l-20.6,20.6
				c14.5,14.4,34.5,23.4,56.6,23.4c44.3,0,80.2-35.9,80.2-80.2c0-22.1-8.9-42.1-23.4-56.6L1560.5,438.9z"/>
			<path class="st12" d="M1473.1,474.9H1444c0,22.2,9,42.3,23.6,56.8l20.6-20.6C1478.8,501.9,1473.1,489.1,1473.1,474.9z"/>
			<path class="st6" d="M1524.2,423.8c14.2,0,27,5.8,36.3,15.1l20.6-20.6c-14.5-14.6-34.6-23.6-56.8-23.6c-0.2,0-0.3,0-0.5,0v29.1
				C1523.9,423.8,1524,423.8,1524.2,423.8z"/>
			<path class="st7" d="M1523.7,423.8v-29.1c-44.1,0.3-79.7,36.1-79.7,80.2h29.1C1473.1,446.8,1495.7,424,1523.7,423.8z"/>
			<g>
				<g>
					<path class="st4" d="M1211.5,822.9h-45.1c-1.9,0-3.5-1.6-3.5-3.5s1.6-3.5,3.5-3.5h45.1c1.9,0,3.5,1.6,3.5,3.5
						S1213.4,822.9,1211.5,822.9z"/>
				</g>
			</g>
			<g class="st8">
				<g>
					<path class="st9" d="M1361.9,822.9h-53.1c-1.9,0-3.5-1.6-3.5-3.5s1.6-3.5,3.5-3.5h53.1c1.9,0,3.5,1.6,3.5,3.5
						S1363.8,822.9,1361.9,822.9z"/>
				</g>
			</g>
			<g class="st8">
				<g>
					<path class="st9" d="M1279.7,851.8c-17.7,0-32.1-14.4-32.1-32.1s14.4-32.1,32.1-32.1s32.1,14.4,32.1,32.1
						S1297.4,851.8,1279.7,851.8z M1279.7,794.6c-13.8,0-25.1,11.2-25.1,25.1s11.2,25.1,25.1,25.1c13.8,0,25.1-11.2,25.1-25.1
						S1293.5,794.6,1279.7,794.6z"/>
				</g>
			</g>
			<g class="st10">
				<g>
					<path class="st11" d="M1240.1,851.8c-17.7,0-32.1-14.4-32.1-32.1s14.4-32.1,32.1-32.1s32.1,14.4,32.1,32.1
						S1257.8,851.8,1240.1,851.8z M1240.1,794.6c-13.8,0-25.1,11.2-25.1,25.1s11.2,25.1,25.1,25.1c13.8,0,25.1-11.2,25.1-25.1
						S1253.9,794.6,1240.1,794.6z"/>
				</g>
			</g>
			<circle class="st4" cx="1125.8" cy="819.7" r="40.6"/>
			<circle class="st4" cx="323.1" cy="845.8" r="48.6"/>
			<circle class="st3" cx="389.7" cy="776.1" r="31.1"/>
			<circle class="st2" cx="409.3" cy="845.8" r="19.6"/>
			<polygon class="st6" points="653.3,807.2 669.3,825.5 715,837.7 715,764.9 663.8,760 602.7,807.7 636.9,816.8 			"/>
			<polygon class="st6" points="551,837.3 571.6,814 550.5,805.2 519.4,819.7 519.4,833.9 			"/>
			<polygon class="st5" points="602.7,807.7 582.1,802.2 571.6,814 586.6,820.2 			"/>
			<polygon class="st5" points="519.4,833.9 519.4,854.6 607.2,834.2 636.9,816.8 602.7,807.7 586.6,820.2 571.6,814 551,837.3 			
				"/>
			<polygon class="st5" points="669.3,825.5 715,877.6 715,837.7 			"/>
			<polygon class="st7" points="669.3,825.5 653.3,807.2 636.9,816.8 607.2,834.2 519.4,854.6 519.4,879.4 715,879.4 715,877.6 			
				"/>
			<g>
				<g>
					<g>
						<rect x="1424.8" y="822" class="st6" width="24.4" height="30.2"/>
					</g>
					<g>
						<rect x="1494.6" y="822" class="st6" width="24.4" height="77.9"/>
					</g>
					<g>
						<rect x="1599.2" y="822" class="st6" width="24.4" height="46.5"/>
					</g>
				</g>
			</g>
			<g>
				<g>
					<g>
						<rect x="1564.3" y="762.7" class="st5" width="24.4" height="59.3"/>
					</g>
					<g>
						<rect x="1529.4" y="739.5" class="st5" width="24.4" height="82.5"/>
					</g>
					<rect x="1459.7" y="774.4" class="st5" width="24.4" height="47.7"/>
				</g>
			</g>
			<line class="st13" x1="1399.8" y1="822" x2="1648.6" y2="822"/>
			<g>
				<path class="st14" d="M321.8,600.9V590h3.7c0.9,0,1.6,0.2,2.1,0.5s1,0.7,1.2,1.2c0.3,0.5,0.4,1.1,0.4,1.8c0,0.6-0.1,1.2-0.4,1.8
					c-0.3,0.5-0.7,0.9-1.2,1.3c-0.5,0.3-1.2,0.5-2.1,0.5h-2.6v-1.2h2.6c0.6,0,1.1-0.1,1.4-0.3s0.6-0.5,0.8-0.8
					c0.2-0.3,0.2-0.7,0.2-1.2c0-0.4-0.1-0.8-0.2-1.2c-0.2-0.3-0.4-0.6-0.8-0.8s-0.8-0.3-1.4-0.3h-2.3v9.8h-1.4L321.8,600.9
					L321.8,600.9z"/>
				<path class="st14" d="M331.1,591.3c-0.2,0-0.5-0.1-0.6-0.2c-0.2-0.2-0.3-0.4-0.3-0.6c0-0.2,0.1-0.4,0.3-0.6
					c0.2-0.2,0.4-0.2,0.6-0.2s0.5,0.1,0.6,0.2c0.2,0.2,0.3,0.4,0.3,0.6c0,0.2-0.1,0.4-0.3,0.6C331.6,591.2,331.4,591.3,331.1,591.3z
					 M330.5,600.9v-8.2h1.2v8.2H330.5z"/>
				<path class="st14" d="M336.8,601c-0.8,0-1.5-0.2-2-0.5c-0.6-0.4-1-0.8-1.3-1.5c-0.3-0.6-0.5-1.4-0.5-2.2s0.2-1.6,0.5-2.2
					c0.3-0.6,0.7-1.1,1.3-1.5c0.6-0.4,1.2-0.5,1.9-0.5c0.4,0,0.8,0.1,1.3,0.2c0.4,0.1,0.8,0.4,1.1,0.7c0.3,0.3,0.6,0.7,0.8,1.3
					c0.2,0.5,0.3,1.2,0.3,1.9v0.5h-6.3v-1.1h5.6l-0.6,0.4c0-0.5-0.1-1-0.3-1.5c-0.2-0.4-0.4-0.8-0.8-1c-0.3-0.2-0.8-0.4-1.3-0.4
					s-0.9,0.1-1.3,0.4c-0.4,0.2-0.6,0.6-0.8,1c-0.2,0.4-0.3,0.8-0.3,1.3v0.7c0,0.6,0.1,1.1,0.3,1.6c0.2,0.4,0.5,0.8,0.9,1
					s0.8,0.3,1.3,0.3c0.3,0,0.6,0,0.9-0.1s0.5-0.2,0.7-0.4s0.3-0.4,0.4-0.7l1.2,0.4c-0.1,0.4-0.3,0.8-0.6,1.1
					c-0.3,0.3-0.7,0.6-1.1,0.7C337.9,600.9,337.4,601,336.8,601z"/>
				<path class="st14" d="M348.2,601c-0.8,0-1.4-0.2-2-0.5c-0.6-0.4-1-0.9-1.3-1.5s-0.5-1.4-0.5-2.2s0.2-1.6,0.5-2.2
					s0.7-1.1,1.3-1.5c0.6-0.4,1.2-0.5,1.9-0.5c0.6,0,1.1,0.1,1.6,0.3s0.8,0.5,1.1,0.9c0.3,0.4,0.5,0.8,0.5,1.4H350
					c-0.1-0.3-0.2-0.5-0.3-0.7c-0.2-0.2-0.4-0.4-0.7-0.5c-0.3-0.1-0.6-0.2-1-0.2c-0.5,0-0.9,0.1-1.3,0.4c-0.4,0.3-0.7,0.6-0.9,1.1
					c-0.2,0.5-0.3,1-0.3,1.6s0.1,1.2,0.3,1.7c0.2,0.5,0.5,0.8,0.9,1.1s0.8,0.4,1.3,0.4s0.9-0.1,1.3-0.4c0.4-0.3,0.6-0.6,0.7-1.1h1.3
					c-0.1,0.5-0.2,0.9-0.5,1.3c-0.3,0.4-0.7,0.7-1.1,0.9C349.4,600.9,348.8,601,348.2,601z"/>
				<path class="st14" d="M353.9,595.9v4.9h-1.2v-10.9h1.2v4h0.1c0.2-0.4,0.5-0.8,0.9-1c0.4-0.3,0.9-0.4,1.5-0.4s1,0.1,1.5,0.3
					c0.4,0.2,0.7,0.6,1,1c0.2,0.5,0.4,1,0.4,1.7v5.2H358v-5.1c0-0.7-0.2-1.2-0.5-1.5c-0.3-0.4-0.8-0.5-1.4-0.5
					c-0.4,0-0.8,0.1-1.1,0.3s-0.6,0.4-0.8,0.8C354,595,353.9,595.4,353.9,595.9z"/>
				<path class="st14" d="M363.2,601c-0.5,0-1-0.1-1.4-0.3s-0.8-0.5-1-0.9s-0.4-0.8-0.4-1.4c0-0.5,0.1-0.9,0.3-1.1
					c0.2-0.3,0.4-0.5,0.7-0.7c0.3-0.2,0.7-0.3,1-0.4c0.4-0.1,0.8-0.1,1.1-0.2c0.5-0.1,0.9-0.1,1.2-0.1c0.3,0,0.5-0.1,0.7-0.2
					c0.1-0.1,0.2-0.2,0.2-0.4l0,0c0-0.5-0.1-0.9-0.4-1.2s-0.7-0.4-1.3-0.4c-0.6,0-1.1,0.1-1.4,0.4s-0.6,0.5-0.7,0.8l-1.2-0.4
					c0.2-0.5,0.5-0.9,0.9-1.2s0.8-0.5,1.2-0.6c0.4-0.1,0.8-0.2,1.3-0.2c0.3,0,0.6,0,0.9,0.1s0.7,0.2,1,0.4s0.6,0.5,0.8,0.9
					c0.2,0.4,0.3,0.9,0.3,1.6v5.4h-1.3v-1.1h-0.1c-0.1,0.2-0.2,0.4-0.4,0.6c-0.2,0.2-0.5,0.4-0.8,0.5S363.7,601,363.2,601z
					 M363.4,599.9c0.5,0,0.9-0.1,1.3-0.3c0.3-0.2,0.6-0.4,0.8-0.8c0.2-0.3,0.3-0.6,0.3-1v-1.2c-0.1,0.1-0.2,0.1-0.3,0.2
					c-0.2,0.1-0.4,0.1-0.6,0.1s-0.5,0.1-0.7,0.1s-0.4,0-0.5,0.1c-0.3,0-0.6,0.1-0.9,0.2c-0.3,0.1-0.5,0.2-0.7,0.4s-0.3,0.4-0.3,0.8
					c0,0.4,0.2,0.8,0.5,1C362.5,599.8,362.9,599.9,363.4,599.9z"/>
				<path class="st14" d="M368.6,600.9v-8.2h1.2v1.2h0.1c0.2-0.4,0.4-0.7,0.8-1s0.8-0.4,1.3-0.4c0.1,0,0.2,0,0.3,0
					c0.1,0,0.2,0,0.3,0v1.3c0,0-0.1,0-0.3,0c-0.2,0-0.3,0-0.5,0c-0.4,0-0.8,0.1-1.1,0.2c-0.3,0.2-0.6,0.4-0.7,0.7
					c-0.2,0.3-0.3,0.6-0.3,1v5.2H368.6z"/>
				<path class="st14" d="M377.6,592.6v1.1h-4.2v-1.1H377.6z M374.6,590.7h1.2v7.8c0,0.4,0.1,0.7,0.3,0.9c0.2,0.2,0.5,0.3,0.8,0.3
					c0.1,0,0.2,0,0.3,0c0.1,0,0.2,0,0.3,0l0.3,1.1c-0.1,0-0.3,0.1-0.4,0.1c-0.2,0-0.3,0-0.5,0c-0.7,0-1.2-0.2-1.6-0.6
					c-0.4-0.4-0.6-0.9-0.6-1.5L374.6,590.7L374.6,590.7z"/>
			</g>
			<g>
				<path class="st14" d="M586.1,600.9h-1.4l4-10.9h1.4l4,10.9h-1.4l-3.3-9.2h-0.1L586.1,600.9z M586.7,596.6h5.6v1.2h-5.6V596.6z"
					/>
				<path class="st14" d="M595,600.9v-8.2h1.2v1.2h0.1c0.2-0.4,0.4-0.7,0.8-1c0.4-0.3,0.8-0.4,1.3-0.4c0.1,0,0.2,0,0.3,0
					s0.2,0,0.3,0v1.3c0,0-0.1,0-0.3,0s-0.3,0-0.5,0c-0.4,0-0.8,0.1-1.1,0.2c-0.3,0.2-0.6,0.4-0.7,0.7c-0.2,0.3-0.3,0.6-0.3,1v5.2
					H595z"/>
				<path class="st14" d="M603.1,601c-0.8,0-1.5-0.2-2-0.5c-0.6-0.4-1-0.8-1.3-1.5c-0.3-0.6-0.5-1.4-0.5-2.2s0.2-1.6,0.5-2.2
					c0.3-0.6,0.7-1.1,1.3-1.5s1.2-0.5,1.9-0.5c0.4,0,0.8,0.1,1.3,0.2c0.4,0.1,0.8,0.4,1.1,0.7s0.6,0.7,0.8,1.3
					c0.2,0.5,0.3,1.2,0.3,1.9v0.5h-6.3v-1.1h5.6l-0.6,0.4c0-0.5-0.1-1-0.3-1.5c-0.2-0.4-0.4-0.8-0.8-1c-0.3-0.2-0.8-0.4-1.3-0.4
					s-0.9,0.1-1.3,0.4c-0.4,0.2-0.6,0.6-0.8,1s-0.3,0.8-0.3,1.3v0.7c0,0.6,0.1,1.1,0.3,1.6c0.2,0.4,0.5,0.8,0.9,1s0.8,0.3,1.3,0.3
					c0.3,0,0.6,0,0.9-0.1c0.3-0.1,0.5-0.2,0.7-0.4s0.3-0.4,0.4-0.7l1.2,0.4c-0.1,0.4-0.3,0.8-0.6,1.1s-0.7,0.6-1.1,0.7
					C604.1,600.9,603.6,601,603.1,601z"/>
				<path class="st14" d="M610,601c-0.5,0-1-0.1-1.4-0.3s-0.8-0.5-1-0.9s-0.4-0.8-0.4-1.4c0-0.5,0.1-0.9,0.3-1.1
					c0.2-0.3,0.4-0.5,0.7-0.7s0.7-0.3,1-0.4c0.4-0.1,0.8-0.1,1.1-0.2c0.5-0.1,0.9-0.1,1.2-0.1s0.5-0.1,0.7-0.2
					c0.1-0.1,0.2-0.2,0.2-0.4l0,0c0-0.5-0.1-0.9-0.4-1.2c-0.3-0.3-0.7-0.4-1.3-0.4s-1.1,0.1-1.4,0.4c-0.3,0.3-0.6,0.5-0.7,0.8
					l-1.2-0.4c0.2-0.5,0.5-0.9,0.9-1.2s0.8-0.5,1.2-0.6s0.8-0.2,1.3-0.2c0.3,0,0.6,0,0.9,0.1c0.3,0.1,0.7,0.2,1,0.4s0.6,0.5,0.8,0.9
					s0.3,0.9,0.3,1.6v5.4h-1.3v-1.1h-0.1c-0.1,0.2-0.2,0.4-0.4,0.6c-0.2,0.2-0.5,0.4-0.8,0.5S610.5,601,610,601z M610.2,599.9
					c0.5,0,0.9-0.1,1.3-0.3c0.3-0.2,0.6-0.4,0.8-0.8c0.2-0.3,0.3-0.6,0.3-1v-1.2c-0.1,0.1-0.2,0.1-0.3,0.2c-0.2,0.1-0.4,0.1-0.6,0.1
					c-0.2,0-0.5,0.1-0.7,0.1s-0.4,0-0.5,0.1c-0.3,0-0.6,0.1-0.9,0.2c-0.3,0.1-0.5,0.2-0.7,0.4s-0.3,0.4-0.3,0.8c0,0.4,0.2,0.8,0.5,1
					S609.7,599.9,610.2,599.9z"/>
				<path class="st14" d="M618.9,600.9v-8.2h1.2v1.3h0.1c0.2-0.4,0.4-0.8,0.8-1s0.8-0.4,1.4-0.4c0.5,0,1,0.1,1.3,0.4s0.6,0.6,0.8,1
					h0.1c0.2-0.4,0.5-0.8,1-1c0.4-0.3,0.9-0.4,1.5-0.4c0.7,0,1.3,0.2,1.8,0.7s0.7,1.2,0.7,2.1v5.5h-1.3v-5.5c0-0.6-0.2-1-0.5-1.3
					s-0.7-0.4-1.2-0.4c-0.6,0-1,0.2-1.3,0.5c-0.3,0.4-0.5,0.8-0.5,1.3v5.3h-1.3v-5.6c0-0.5-0.1-0.8-0.4-1.1
					c-0.3-0.3-0.7-0.4-1.2-0.4c-0.3,0-0.6,0.1-0.9,0.3s-0.5,0.4-0.7,0.7s-0.3,0.7-0.3,1.1v5.1L618.9,600.9L618.9,600.9z"/>
				<path class="st14" d="M633.7,601c-0.5,0-1-0.1-1.4-0.3s-0.8-0.5-1-0.9s-0.4-0.8-0.4-1.4c0-0.5,0.1-0.9,0.3-1.1
					c0.2-0.3,0.4-0.5,0.7-0.7s0.7-0.3,1-0.4c0.4-0.1,0.8-0.1,1.1-0.2c0.5-0.1,0.9-0.1,1.2-0.1s0.5-0.1,0.7-0.2
					c0.1-0.1,0.2-0.2,0.2-0.4l0,0c0-0.5-0.1-0.9-0.4-1.2c-0.3-0.3-0.7-0.4-1.3-0.4s-1.1,0.1-1.4,0.4c-0.3,0.3-0.6,0.5-0.7,0.8
					l-1.2-0.4c0.2-0.5,0.5-0.9,0.9-1.2s0.8-0.5,1.2-0.6s0.8-0.2,1.3-0.2c0.3,0,0.6,0,0.9,0.1c0.3,0.1,0.7,0.2,1,0.4s0.6,0.5,0.8,0.9
					s0.3,0.9,0.3,1.6v5.4h-1.3v-1.1h-0.1c-0.1,0.2-0.2,0.4-0.4,0.6c-0.2,0.2-0.5,0.4-0.8,0.5S634.2,601,633.7,601z M633.9,599.9
					c0.5,0,0.9-0.1,1.3-0.3c0.3-0.2,0.6-0.4,0.8-0.8c0.2-0.3,0.3-0.6,0.3-1v-1.2c-0.1,0.1-0.2,0.1-0.3,0.2c-0.2,0.1-0.4,0.1-0.6,0.1
					c-0.2,0-0.5,0.1-0.7,0.1s-0.4,0-0.5,0.1c-0.3,0-0.6,0.1-0.9,0.2c-0.3,0.1-0.5,0.2-0.7,0.4s-0.3,0.4-0.3,0.8c0,0.4,0.2,0.8,0.5,1
					C633,599.8,633.4,599.9,633.9,599.9z"/>
				<path class="st14" d="M639.1,603.9v-11.3h1.2v1.3h0.1c0.1-0.1,0.2-0.3,0.4-0.5s0.4-0.4,0.7-0.6c0.3-0.2,0.7-0.3,1.3-0.3
					c0.7,0,1.3,0.2,1.8,0.5s0.9,0.8,1.2,1.5c0.3,0.6,0.4,1.4,0.4,2.2c0,0.9-0.1,1.6-0.4,2.3c-0.3,0.6-0.7,1.1-1.2,1.5
					c-0.5,0.3-1.1,0.5-1.8,0.5c-0.5,0-0.9-0.1-1.3-0.3c-0.3-0.2-0.6-0.4-0.7-0.6c-0.2-0.2-0.3-0.4-0.4-0.6h-0.1v4.3L639.1,603.9
					L639.1,603.9z M642.7,599.9c0.5,0,1-0.1,1.3-0.4c0.4-0.3,0.6-0.7,0.8-1.1c0.2-0.5,0.3-1,0.3-1.6s-0.1-1.1-0.3-1.6
					s-0.4-0.8-0.8-1.1c-0.3-0.3-0.8-0.4-1.3-0.4s-0.9,0.1-1.3,0.4c-0.3,0.3-0.6,0.6-0.8,1.1s-0.3,1-0.3,1.6s0.1,1.2,0.3,1.6
					c0.2,0.5,0.4,0.8,0.8,1.1S642.2,599.9,642.7,599.9z"/>
			</g>
			<g>
				<path class="st14" d="M872.9,601c-0.9,0-1.8-0.2-2.5-0.7s-1.3-1.1-1.7-1.9c-0.4-0.8-0.6-1.8-0.6-3s0.2-2.2,0.6-3
					c0.4-0.8,1-1.5,1.7-1.9s1.6-0.7,2.5-0.7s1.8,0.2,2.5,0.7s1.3,1.1,1.7,1.9c0.4,0.8,0.6,1.8,0.6,3s-0.2,2.1-0.6,3
					c-0.4,0.8-1,1.5-1.7,1.9C874.7,600.8,873.9,601,872.9,601z M872.9,599.8c0.7,0,1.3-0.2,1.8-0.5s1-0.8,1.3-1.5s0.5-1.4,0.5-2.4
					s-0.2-1.8-0.5-2.4c-0.3-0.7-0.7-1.1-1.3-1.5c-0.5-0.3-1.1-0.5-1.8-0.5s-1.3,0.2-1.8,0.5s-1,0.8-1.3,1.5s-0.5,1.5-0.5,2.4
					s0.2,1.7,0.5,2.4s0.7,1.1,1.3,1.5C871.7,599.6,872.3,599.8,872.9,599.8z"/>
				<path class="st14" d="M879.1,600.9v-8.2h1.2v1.2h0.1c0.2-0.4,0.4-0.7,0.8-1c0.4-0.3,0.8-0.4,1.3-0.4c0.1,0,0.2,0,0.3,0
					s0.2,0,0.3,0v1.3c0,0-0.1,0-0.3,0s-0.3,0-0.5,0c-0.4,0-0.8,0.1-1.1,0.2c-0.3,0.2-0.6,0.4-0.7,0.7c-0.2,0.3-0.3,0.6-0.3,1v5.2
					H879.1z"/>
				<path class="st14" d="M886.8,601c-0.7,0-1.3-0.2-1.8-0.5s-0.9-0.8-1.2-1.5c-0.3-0.6-0.4-1.4-0.4-2.3c0-0.9,0.1-1.6,0.4-2.2
					c0.3-0.6,0.7-1.1,1.2-1.5c0.5-0.3,1.1-0.5,1.8-0.5c0.5,0,1,0.1,1.3,0.3s0.5,0.4,0.7,0.6c0.2,0.2,0.3,0.4,0.4,0.5h0.1v-4h1.2
					v10.9h-1.2v-1.3h-0.1c-0.1,0.1-0.2,0.3-0.4,0.6c-0.2,0.2-0.4,0.4-0.7,0.6C887.8,600.9,887.4,601,886.8,601z M887,599.9
					c0.5,0,0.9-0.1,1.3-0.4c0.3-0.3,0.6-0.6,0.8-1.1s0.3-1,0.3-1.6s-0.1-1.2-0.3-1.6c-0.2-0.5-0.4-0.8-0.8-1.1
					c-0.4-0.3-0.8-0.4-1.3-0.4s-1,0.1-1.3,0.4c-0.4,0.3-0.6,0.6-0.8,1.1s-0.3,1-0.3,1.6s0.1,1.1,0.3,1.6s0.4,0.9,0.8,1.1
					C886,599.8,886.5,599.9,887,599.9z"/>
				<path class="st14" d="M895.6,601c-0.8,0-1.5-0.2-2-0.5c-0.6-0.4-1-0.8-1.3-1.5c-0.3-0.6-0.5-1.4-0.5-2.2s0.2-1.6,0.5-2.2
					c0.3-0.6,0.7-1.1,1.3-1.5s1.2-0.5,1.9-0.5c0.4,0,0.8,0.1,1.3,0.2c0.4,0.1,0.8,0.4,1.1,0.7s0.6,0.7,0.8,1.3
					c0.2,0.5,0.3,1.2,0.3,1.9v0.5h-6.3v-1.1h5.6l-0.6,0.4c0-0.5-0.1-1-0.3-1.5c-0.2-0.4-0.4-0.8-0.8-1c-0.3-0.2-0.8-0.4-1.3-0.4
					s-0.9,0.1-1.3,0.4c-0.4,0.2-0.6,0.6-0.8,1s-0.3,0.8-0.3,1.3v0.7c0,0.6,0.1,1.1,0.3,1.6c0.2,0.4,0.5,0.8,0.9,1s0.8,0.3,1.3,0.3
					c0.3,0,0.6,0,0.9-0.1c0.3-0.1,0.5-0.2,0.7-0.4s0.3-0.4,0.4-0.7l1.2,0.4c-0.1,0.4-0.3,0.8-0.6,1.1s-0.7,0.6-1.1,0.7
					C896.7,600.9,896.2,601,895.6,601z"/>
				<path class="st14" d="M900.2,600.9v-8.2h1.2v1.2h0.1c0.2-0.4,0.4-0.7,0.8-1c0.4-0.3,0.8-0.4,1.3-0.4c0.1,0,0.2,0,0.3,0
					s0.2,0,0.3,0v1.3c0,0-0.1,0-0.3,0s-0.3,0-0.5,0c-0.4,0-0.8,0.1-1.1,0.2c-0.3,0.2-0.6,0.4-0.7,0.7c-0.2,0.3-0.3,0.6-0.3,1v5.2
					H900.2z"/>
				<path class="st14" d="M908.3,601c-0.8,0-1.5-0.2-2-0.5c-0.6-0.4-1-0.8-1.3-1.5c-0.3-0.6-0.5-1.4-0.5-2.2s0.2-1.6,0.5-2.2
					c0.3-0.6,0.7-1.1,1.3-1.5s1.2-0.5,1.9-0.5c0.4,0,0.8,0.1,1.3,0.2c0.4,0.1,0.8,0.4,1.1,0.7s0.6,0.7,0.8,1.3
					c0.2,0.5,0.3,1.2,0.3,1.9v0.5h-6.3v-1.1h5.6l-0.6,0.4c0-0.5-0.1-1-0.3-1.5c-0.2-0.4-0.4-0.8-0.8-1c-0.3-0.2-0.8-0.4-1.3-0.4
					s-0.9,0.1-1.3,0.4c-0.4,0.2-0.6,0.6-0.8,1s-0.3,0.8-0.3,1.3v0.7c0,0.6,0.1,1.1,0.3,1.6c0.2,0.4,0.5,0.8,0.9,1s0.8,0.3,1.3,0.3
					c0.3,0,0.6,0,0.9-0.1c0.3-0.1,0.5-0.2,0.7-0.4s0.3-0.4,0.4-0.7l1.2,0.4c-0.1,0.4-0.3,0.8-0.6,1.1s-0.7,0.6-1.1,0.7
					C909.4,600.9,908.9,601,908.3,601z"/>
				<path class="st14" d="M916,601c-0.7,0-1.3-0.2-1.8-0.5s-0.9-0.8-1.2-1.5c-0.3-0.6-0.4-1.4-0.4-2.3c0-0.9,0.1-1.6,0.4-2.2
					c0.3-0.6,0.7-1.1,1.2-1.5c0.5-0.3,1.1-0.5,1.8-0.5c0.5,0,1,0.1,1.3,0.3s0.5,0.4,0.7,0.6c0.2,0.2,0.3,0.4,0.4,0.5h0.1v-4h1.2
					v10.9h-1.2v-1.3h-0.1c-0.1,0.1-0.2,0.3-0.4,0.6c-0.2,0.2-0.4,0.4-0.7,0.6C916.9,600.9,916.5,601,916,601z M916.1,599.9
					c0.5,0,0.9-0.1,1.3-0.4c0.3-0.3,0.6-0.6,0.8-1.1s0.3-1,0.3-1.6s-0.1-1.2-0.3-1.6c-0.2-0.5-0.4-0.8-0.8-1.1
					c-0.4-0.3-0.8-0.4-1.3-0.4s-1,0.1-1.3,0.4c-0.4,0.3-0.6,0.6-0.8,1.1s-0.3,1-0.3,1.6s0.1,1.1,0.3,1.6s0.4,0.9,0.8,1.1
					C915.2,599.8,915.6,599.9,916.1,599.9z"/>
				<path class="st14" d="M928.6,601c-0.5,0-0.9-0.1-1.3-0.3c-0.3-0.2-0.6-0.4-0.7-0.6c-0.2-0.2-0.3-0.4-0.4-0.6h-0.1v1.3h-1.2
					v-10.9h1.2v4h0.1c0.1-0.1,0.2-0.3,0.4-0.5s0.4-0.4,0.7-0.6c0.3-0.2,0.7-0.3,1.3-0.3c0.7,0,1.3,0.2,1.8,0.5s0.9,0.8,1.2,1.5
					c0.3,0.6,0.4,1.4,0.4,2.2c0,0.9-0.1,1.6-0.4,2.3c-0.3,0.6-0.7,1.1-1.2,1.5C929.9,600.9,929.3,601,928.6,601z M928.4,599.9
					c0.5,0,1-0.1,1.3-0.4c0.4-0.3,0.6-0.7,0.8-1.1c0.2-0.5,0.3-1,0.3-1.6s-0.1-1.1-0.3-1.6s-0.4-0.8-0.8-1.1
					c-0.3-0.3-0.8-0.4-1.3-0.4s-0.9,0.1-1.3,0.4c-0.3,0.3-0.6,0.6-0.8,1.1s-0.3,1-0.3,1.6s0.1,1.2,0.3,1.6c0.2,0.5,0.4,0.8,0.8,1.1
					S927.9,599.9,928.4,599.9z"/>
				<path class="st14" d="M935.7,601c-0.5,0-1-0.1-1.4-0.3s-0.8-0.5-1-0.9s-0.4-0.8-0.4-1.4c0-0.5,0.1-0.9,0.3-1.1
					c0.2-0.3,0.4-0.5,0.7-0.7s0.7-0.3,1-0.4c0.4-0.1,0.8-0.1,1.1-0.2c0.5-0.1,0.9-0.1,1.2-0.1s0.5-0.1,0.7-0.2
					c0.1-0.1,0.2-0.2,0.2-0.4l0,0c0-0.5-0.1-0.9-0.4-1.2c-0.3-0.3-0.7-0.4-1.3-0.4s-1.1,0.1-1.4,0.4c-0.3,0.3-0.6,0.5-0.7,0.8
					l-1.2-0.4c0.2-0.5,0.5-0.9,0.9-1.2s0.8-0.5,1.2-0.6s0.8-0.2,1.3-0.2c0.3,0,0.6,0,0.9,0.1c0.3,0.1,0.7,0.2,1,0.4s0.6,0.5,0.8,0.9
					s0.3,0.9,0.3,1.6v5.4h-1.3v-1.1h-0.1c-0.1,0.2-0.2,0.4-0.4,0.6c-0.2,0.2-0.5,0.4-0.8,0.5S936.2,601,935.7,601z M935.9,599.9
					c0.5,0,0.9-0.1,1.3-0.3c0.3-0.2,0.6-0.4,0.8-0.8c0.2-0.3,0.3-0.6,0.3-1v-1.2c-0.1,0.1-0.2,0.1-0.3,0.2c-0.2,0.1-0.4,0.1-0.6,0.1
					c-0.2,0-0.5,0.1-0.7,0.1s-0.4,0-0.5,0.1c-0.3,0-0.6,0.1-0.9,0.2c-0.3,0.1-0.5,0.2-0.7,0.4s-0.3,0.4-0.3,0.8c0,0.4,0.2,0.8,0.5,1
					C935,599.8,935.4,599.9,935.9,599.9z"/>
				<path class="st14" d="M941.1,600.9v-8.2h1.2v1.2h0.1c0.2-0.4,0.4-0.7,0.8-1c0.4-0.3,0.8-0.4,1.3-0.4c0.1,0,0.2,0,0.3,0
					s0.2,0,0.3,0v1.3c0,0-0.1,0-0.3,0s-0.3,0-0.5,0c-0.4,0-0.8,0.1-1.1,0.2c-0.3,0.2-0.6,0.4-0.7,0.7c-0.2,0.3-0.3,0.6-0.3,1v5.2
					H941.1z"/>
				<path class="st14" d="M951.8,594.5l-1.1,0.3c-0.1-0.3-0.3-0.5-0.6-0.8s-0.7-0.4-1.2-0.4s-0.9,0.1-1.2,0.3s-0.5,0.5-0.5,0.9
					c0,0.3,0.1,0.6,0.3,0.7c0.2,0.2,0.6,0.3,1.1,0.5l1.2,0.3c0.7,0.2,1.3,0.4,1.6,0.8c0.4,0.4,0.5,0.8,0.5,1.4
					c0,0.5-0.1,0.9-0.4,1.3c-0.3,0.4-0.6,0.7-1.1,0.9s-1,0.3-1.7,0.3c-0.8,0-1.5-0.2-2.1-0.6c-0.5-0.4-0.9-0.9-1-1.6l1.2-0.3
					c0.1,0.4,0.3,0.8,0.6,1s0.7,0.3,1.3,0.3s1-0.1,1.4-0.4c0.3-0.3,0.5-0.6,0.5-0.9c0-0.6-0.4-1-1.2-1.2L948,597
					c-0.8-0.2-1.3-0.5-1.7-0.8c-0.4-0.4-0.5-0.8-0.5-1.4c0-0.5,0.1-0.9,0.4-1.2c0.3-0.4,0.6-0.6,1.1-0.8s1-0.3,1.5-0.3
					c0.8,0,1.5,0.2,1.9,0.5C951.2,593.4,951.6,593.9,951.8,594.5z"/>
			</g>
			<g>
				<path class="st14" d="M1186.6,600.9V590h1.3v9.8h5.1v1.2L1186.6,600.9L1186.6,600.9z"/>
				<path class="st14" d="M1194.8,591.3c-0.2,0-0.5-0.1-0.6-0.2c-0.2-0.2-0.3-0.4-0.3-0.6c0-0.2,0.1-0.4,0.3-0.6
					c0.2-0.2,0.4-0.2,0.6-0.2s0.5,0.1,0.6,0.2c0.2,0.2,0.3,0.4,0.3,0.6c0,0.2-0.1,0.4-0.3,0.6
					C1195.3,591.2,1195.1,591.3,1194.8,591.3z M1194.2,600.9v-8.2h1.2v8.2H1194.2z"/>
				<path class="st14" d="M1198.3,595.9v4.9h-1.2v-8.2h1.2v1.3h0.1c0.2-0.4,0.5-0.8,0.9-1c0.4-0.3,0.9-0.4,1.5-0.4s1,0.1,1.5,0.3
					c0.4,0.2,0.7,0.6,1,1c0.2,0.5,0.3,1,0.3,1.7v5.2h-1.2v-5.1c0-0.6-0.2-1.1-0.5-1.5s-0.8-0.5-1.4-0.5c-0.4,0-0.8,0.1-1.1,0.3
					s-0.6,0.4-0.8,0.8C1198.4,595,1198.3,595.4,1198.3,595.9z"/>
				<path class="st14" d="M1208.6,601c-0.8,0-1.5-0.2-2-0.5s-1-0.8-1.3-1.5c-0.3-0.6-0.5-1.4-0.5-2.2s0.2-1.6,0.5-2.2
					c0.3-0.6,0.7-1.1,1.3-1.5c0.6-0.4,1.2-0.5,1.9-0.5c0.4,0,0.8,0.1,1.3,0.2c0.4,0.1,0.8,0.4,1.1,0.7c0.3,0.3,0.6,0.7,0.8,1.3
					c0.2,0.5,0.3,1.2,0.3,1.9v0.5h-6.3v-1.1h5.6l-0.6,0.4c0-0.5-0.1-1-0.3-1.5c-0.2-0.4-0.4-0.8-0.8-1c-0.3-0.2-0.8-0.4-1.3-0.4
					s-0.9,0.1-1.3,0.4c-0.4,0.2-0.6,0.6-0.8,1c-0.2,0.4-0.3,0.8-0.3,1.3v0.7c0,0.6,0.1,1.1,0.3,1.6c0.2,0.4,0.5,0.8,0.9,1
					s0.8,0.3,1.3,0.3c0.3,0,0.6,0,0.9-0.1s0.5-0.2,0.7-0.4s0.3-0.4,0.4-0.7l1.2,0.4c-0.1,0.4-0.3,0.8-0.6,1.1
					c-0.3,0.3-0.7,0.6-1.1,0.7C1209.7,600.9,1209.2,601,1208.6,601z"/>
				<path class="st14" d="M1215.6,601c-0.5,0-1-0.1-1.4-0.3s-0.8-0.5-1-0.9c-0.3-0.4-0.4-0.8-0.4-1.4c0-0.5,0.1-0.9,0.3-1.1
					c0.2-0.3,0.4-0.5,0.7-0.7c0.3-0.2,0.7-0.3,1-0.4c0.4-0.1,0.8-0.1,1.1-0.2c0.5-0.1,0.9-0.1,1.2-0.1c0.3,0,0.5-0.1,0.7-0.2
					c0.1-0.1,0.2-0.2,0.2-0.4l0,0c0-0.5-0.1-0.9-0.4-1.2s-0.7-0.4-1.3-0.4c-0.6,0-1.1,0.1-1.4,0.4c-0.3,0.3-0.6,0.5-0.7,0.8
					l-1.2-0.4c0.2-0.5,0.5-0.9,0.9-1.2s0.8-0.5,1.2-0.6c0.4-0.1,0.8-0.2,1.3-0.2c0.3,0,0.6,0,0.9,0.1s0.7,0.2,1,0.4s0.6,0.5,0.8,0.9
					c0.2,0.4,0.3,0.9,0.3,1.6v5.4h-1.3v-1.1h-0.1c-0.1,0.2-0.2,0.4-0.4,0.6c-0.2,0.2-0.5,0.4-0.8,0.5
					C1216.5,601,1216.1,601,1215.6,601z M1215.8,599.9c0.5,0,0.9-0.1,1.3-0.3c0.3-0.2,0.6-0.4,0.8-0.8c0.2-0.3,0.3-0.6,0.3-1v-1.2
					c-0.1,0.1-0.2,0.1-0.3,0.2c-0.2,0.1-0.4,0.1-0.6,0.1s-0.5,0.1-0.7,0.1s-0.4,0-0.5,0.1c-0.3,0-0.6,0.1-0.9,0.2
					c-0.3,0.1-0.5,0.2-0.7,0.4s-0.3,0.4-0.3,0.8c0,0.4,0.2,0.8,0.5,1C1214.9,599.8,1215.3,599.9,1215.8,599.9z"/>
				<path class="st14" d="M1221,600.9v-8.2h1.2v1.2h0.1c0.2-0.4,0.4-0.7,0.8-1s0.8-0.4,1.3-0.4c0.1,0,0.2,0,0.3,0s0.2,0,0.3,0v1.3
					c0,0-0.1,0-0.3,0c-0.2,0-0.3,0-0.5,0c-0.4,0-0.8,0.1-1.1,0.2c-0.3,0.2-0.6,0.4-0.7,0.7c-0.2,0.3-0.3,0.6-0.3,1v5.2H1221z"/>
				<path class="st14" d="M1233.1,601c-0.5,0-0.9-0.1-1.3-0.3c-0.3-0.2-0.6-0.4-0.7-0.6c-0.2-0.2-0.3-0.4-0.4-0.6h-0.1v1.3h-1.2
					v-10.9h1.2v4h0.1c0.1-0.1,0.2-0.3,0.4-0.5s0.4-0.4,0.7-0.6c0.3-0.2,0.7-0.3,1.3-0.3c0.7,0,1.3,0.2,1.8,0.5s0.9,0.8,1.2,1.5
					c0.3,0.6,0.4,1.4,0.4,2.2c0,0.9-0.1,1.6-0.4,2.3c-0.3,0.6-0.7,1.1-1.2,1.5C1234.4,600.9,1233.8,601,1233.1,601z M1233,599.9
					c0.5,0,1-0.1,1.3-0.4c0.4-0.3,0.6-0.7,0.8-1.1c0.2-0.5,0.3-1,0.3-1.6s-0.1-1.1-0.3-1.6c-0.2-0.5-0.4-0.8-0.8-1.1
					s-0.8-0.4-1.3-0.4s-0.9,0.1-1.3,0.4c-0.3,0.3-0.6,0.6-0.8,1.1c-0.2,0.5-0.3,1-0.3,1.6s0.1,1.2,0.3,1.6c0.2,0.5,0.4,0.8,0.8,1.1
					C1232,599.8,1232.5,599.9,1233,599.9z"/>
				<path class="st14" d="M1240.3,601c-0.5,0-1-0.1-1.4-0.3s-0.8-0.5-1-0.9c-0.3-0.4-0.4-0.8-0.4-1.4c0-0.5,0.1-0.9,0.3-1.1
					c0.2-0.3,0.4-0.5,0.7-0.7c0.3-0.2,0.7-0.3,1-0.4c0.4-0.1,0.8-0.1,1.1-0.2c0.5-0.1,0.9-0.1,1.2-0.1c0.3,0,0.5-0.1,0.7-0.2
					c0.1-0.1,0.2-0.2,0.2-0.4l0,0c0-0.5-0.1-0.9-0.4-1.2s-0.7-0.4-1.3-0.4c-0.6,0-1.1,0.1-1.4,0.4c-0.3,0.3-0.6,0.5-0.7,0.8
					l-1.2-0.4c0.2-0.5,0.5-0.9,0.9-1.2s0.8-0.5,1.2-0.6c0.4-0.1,0.8-0.2,1.3-0.2c0.3,0,0.6,0,0.9,0.1s0.7,0.2,1,0.4s0.6,0.5,0.8,0.9
					c0.2,0.4,0.3,0.9,0.3,1.6v5.4h-1.3v-1.1h-0.1c-0.1,0.2-0.2,0.4-0.4,0.6c-0.2,0.2-0.5,0.4-0.8,0.5
					C1241.1,601,1240.7,601,1240.3,601z M1240.4,599.9c0.5,0,0.9-0.1,1.3-0.3c0.3-0.2,0.6-0.4,0.8-0.8c0.2-0.3,0.3-0.6,0.3-1v-1.2
					c-0.1,0.1-0.2,0.1-0.3,0.2c-0.2,0.1-0.4,0.1-0.6,0.1s-0.5,0.1-0.7,0.1s-0.4,0-0.5,0.1c-0.3,0-0.6,0.1-0.9,0.2
					c-0.3,0.1-0.5,0.2-0.7,0.4s-0.3,0.4-0.3,0.8c0,0.4,0.2,0.8,0.5,1C1239.5,599.8,1239.9,599.9,1240.4,599.9z"/>
				<path class="st14" d="M1245.6,600.9v-8.2h1.2v1.2h0.1c0.2-0.4,0.4-0.7,0.8-1s0.8-0.4,1.3-0.4c0.1,0,0.2,0,0.3,0s0.2,0,0.3,0v1.3
					c0,0-0.1,0-0.3,0c-0.2,0-0.3,0-0.5,0c-0.4,0-0.8,0.1-1.1,0.2c-0.3,0.2-0.6,0.4-0.7,0.7c-0.2,0.3-0.3,0.6-0.3,1v5.2H1245.6z"/>
				<path class="st14" d="M1256.3,594.5l-1.1,0.3c-0.1-0.3-0.3-0.5-0.6-0.8c-0.3-0.3-0.7-0.4-1.2-0.4s-0.9,0.1-1.2,0.3
					c-0.3,0.2-0.5,0.5-0.5,0.9c0,0.3,0.1,0.6,0.3,0.7c0.2,0.2,0.6,0.3,1.1,0.5l1.2,0.3c0.7,0.2,1.3,0.4,1.6,0.8s0.5,0.8,0.5,1.4
					c0,0.5-0.1,0.9-0.4,1.3c-0.3,0.4-0.6,0.7-1.1,0.9s-1,0.3-1.7,0.3c-0.8,0-1.5-0.2-2.1-0.6c-0.5-0.4-0.9-0.9-1-1.6l1.2-0.3
					c0.1,0.4,0.3,0.8,0.6,1c0.3,0.2,0.7,0.3,1.3,0.3c0.6,0,1-0.1,1.4-0.4s0.5-0.6,0.5-0.9c0-0.6-0.4-1-1.2-1.2l-1.4-0.3
					c-0.8-0.2-1.3-0.5-1.7-0.8c-0.4-0.4-0.5-0.8-0.5-1.4c0-0.5,0.1-0.9,0.4-1.2c0.3-0.4,0.6-0.6,1.1-0.8s1-0.3,1.5-0.3
					c0.8,0,1.5,0.2,1.9,0.5C1255.8,593.4,1256.1,593.9,1256.3,594.5z"/>
			</g>
			<g>
				<path class="st14" d="M1505.7,589.9v10.9h-1.3v-10.9H1505.7z M1507.8,600.9h-2.6v-1.2h2.5c0.9,0,1.7-0.2,2.3-0.5
					c0.6-0.3,1-0.8,1.3-1.5c0.3-0.6,0.4-1.4,0.4-2.3c0-0.9-0.1-1.6-0.4-2.3c-0.3-0.6-0.7-1.1-1.3-1.5c-0.6-0.3-1.3-0.5-2.1-0.5h-2.7
					v-1.2h2.8c1.1,0,2,0.2,2.7,0.7c0.8,0.4,1.3,1.1,1.7,1.9c0.4,0.8,0.6,1.8,0.6,2.9c0,1.1-0.2,2.1-0.6,2.9c-0.4,0.8-1,1.5-1.8,1.9
					S1508.9,600.9,1507.8,600.9z"/>
				<path class="st14" d="M1517.7,601c-0.7,0-1.4-0.2-1.9-0.5s-1-0.8-1.3-1.5c-0.3-0.6-0.5-1.4-0.5-2.2c0-0.9,0.2-1.6,0.5-2.2
					c0.3-0.6,0.7-1.1,1.3-1.5s1.2-0.5,1.9-0.5c0.7,0,1.4,0.2,2,0.5c0.6,0.4,1,0.8,1.3,1.5c0.3,0.6,0.5,1.4,0.5,2.2s-0.2,1.6-0.5,2.2
					c-0.3,0.6-0.7,1.1-1.3,1.5C1519.1,600.9,1518.4,601,1517.7,601z M1517.7,599.9c0.6,0,1-0.1,1.4-0.4c0.4-0.3,0.6-0.7,0.8-1.1
					c0.2-0.5,0.3-1,0.3-1.5c0-0.6-0.1-1.1-0.3-1.5c-0.2-0.5-0.4-0.9-0.8-1.1c-0.4-0.3-0.8-0.4-1.4-0.4s-1,0.1-1.4,0.4
					c-0.4,0.3-0.6,0.7-0.8,1.1c-0.2,0.5-0.3,1-0.3,1.5s0.1,1.1,0.3,1.5c0.2,0.5,0.4,0.9,0.8,1.1
					C1516.6,599.8,1517.1,599.9,1517.7,599.9z"/>
				<path class="st14" d="M1523.9,595.9v4.9h-1.2v-8.2h1.2v1.3h0.1c0.2-0.4,0.5-0.8,0.9-1c0.4-0.3,0.9-0.4,1.5-0.4s1,0.1,1.5,0.3
					c0.4,0.2,0.7,0.6,1,1c0.2,0.5,0.3,1,0.3,1.7v5.2h-1.2v-5.1c0-0.6-0.2-1.1-0.5-1.5s-0.8-0.5-1.4-0.5c-0.4,0-0.8,0.1-1.1,0.3
					c-0.3,0.2-0.6,0.4-0.8,0.8C1524,595,1523.9,595.4,1523.9,595.9z"/>
				<path class="st14" d="M1535.9,597.5v-4.9h1.2v8.2h-1.2v-1.4h-0.1c-0.2,0.4-0.5,0.8-0.9,1.1s-0.9,0.4-1.5,0.4
					c-0.5,0-1-0.1-1.4-0.3s-0.7-0.6-0.9-1c-0.2-0.5-0.3-1-0.3-1.7v-5.2h1.2v5.1c0,0.6,0.2,1.1,0.5,1.4c0.3,0.4,0.8,0.5,1.3,0.5
					c0.3,0,0.6-0.1,1-0.2c0.3-0.2,0.6-0.4,0.8-0.7S1535.9,598,1535.9,597.5z"/>
				<path class="st14" d="M1542.3,592.6v1.1h-4.2v-1.1H1542.3z M1539.3,590.7h1.2v7.8c0,0.4,0.1,0.7,0.3,0.9
					c0.2,0.2,0.5,0.3,0.8,0.3c0.1,0,0.2,0,0.3,0c0.1,0,0.2,0,0.3,0l0.3,1.1c-0.1,0-0.3,0.1-0.4,0.1c-0.2,0-0.3,0-0.5,0
					c-0.7,0-1.2-0.2-1.6-0.6c-0.4-0.4-0.6-0.9-0.6-1.5v-8.1H1539.3z"/>
			</g>
			<g>
				<path class="st14" d="M324.7,945.8v-10.9h3.8c0.8,0,1.4,0.1,1.9,0.4c0.5,0.3,0.9,0.6,1.1,1.1c0.2,0.4,0.4,0.9,0.4,1.5
					c0,0.5-0.1,0.9-0.2,1.2c-0.2,0.3-0.4,0.5-0.7,0.7c-0.3,0.2-0.6,0.3-0.9,0.4v0.1c0.3,0,0.7,0.1,1,0.4c0.3,0.2,0.6,0.5,0.8,0.9
					c0.2,0.4,0.3,0.9,0.3,1.5c0,0.5-0.1,1-0.4,1.5c-0.2,0.4-0.6,0.8-1.2,1c-0.5,0.3-1.2,0.4-2.1,0.4h-3.8L324.7,945.8L324.7,945.8z
					 M326,939.6h2.5c0.4,0,0.8-0.1,1.1-0.2c0.3-0.2,0.6-0.4,0.8-0.7c0.2-0.3,0.3-0.6,0.3-1c0-0.5-0.2-0.9-0.5-1.2s-0.9-0.5-1.6-0.5
					H326V939.6z M326,944.6h2.6c0.9,0,1.5-0.2,1.8-0.5c0.4-0.3,0.5-0.7,0.5-1.2c0-0.4-0.1-0.7-0.3-1c-0.2-0.3-0.5-0.6-0.8-0.8
					s-0.8-0.3-1.2-0.3H326V944.6z"/>
				<path class="st14" d="M338.8,942.4v-4.9h1.2v8.2h-1.2v-1.4h-0.1c-0.2,0.4-0.5,0.8-0.9,1.1s-0.9,0.4-1.5,0.4
					c-0.5,0-1-0.1-1.4-0.3s-0.7-0.6-0.9-1c-0.2-0.5-0.3-1-0.3-1.7v-5.2h1.2v5.1c0,0.6,0.2,1.1,0.5,1.4c0.3,0.4,0.8,0.5,1.3,0.5
					c0.3,0,0.6-0.1,1-0.2c0.3-0.2,0.6-0.4,0.8-0.7C338.7,943.3,338.8,942.9,338.8,942.4z"/>
				<path class="st14" d="M345.4,945.9c-0.5,0-0.9-0.1-1.3-0.3c-0.3-0.2-0.6-0.4-0.7-0.6c-0.2-0.2-0.3-0.4-0.4-0.6h-0.1v1.3h-1.2
					v-10.9h1.2v4h0.1c0.1-0.1,0.2-0.3,0.4-0.5s0.4-0.4,0.7-0.6c0.3-0.2,0.7-0.3,1.3-0.3c0.7,0,1.3,0.2,1.8,0.5s0.9,0.8,1.2,1.5
					c0.3,0.6,0.4,1.4,0.4,2.2c0,0.9-0.1,1.6-0.4,2.3c-0.3,0.6-0.7,1.1-1.2,1.5C346.7,945.8,346.1,945.9,345.4,945.9z M345.2,944.8
					c0.5,0,1-0.1,1.3-0.4c0.4-0.3,0.6-0.7,0.8-1.1c0.2-0.5,0.3-1,0.3-1.6s-0.1-1.1-0.3-1.6c-0.2-0.5-0.4-0.8-0.8-1.1
					c-0.3-0.3-0.8-0.4-1.3-0.4s-0.9,0.1-1.3,0.4c-0.3,0.3-0.6,0.6-0.8,1.1s-0.3,1-0.3,1.6s0.1,1.2,0.3,1.6c0.2,0.5,0.4,0.8,0.8,1.1
					C344.3,944.7,344.7,944.8,345.2,944.8z"/>
				<path class="st14" d="M353.8,945.9c-0.5,0-0.9-0.1-1.3-0.3c-0.3-0.2-0.6-0.4-0.7-0.6c-0.2-0.2-0.3-0.4-0.4-0.6h-0.1v1.3h-1.2
					v-10.9h1.2v4h0.1c0.1-0.1,0.2-0.3,0.4-0.5s0.4-0.4,0.7-0.6c0.3-0.2,0.7-0.3,1.3-0.3c0.7,0,1.3,0.2,1.8,0.5s0.9,0.8,1.2,1.5
					s0.4,1.4,0.4,2.2c0,0.9-0.1,1.6-0.4,2.3c-0.3,0.6-0.7,1.1-1.2,1.5C355.1,945.8,354.5,945.9,353.8,945.9z M353.7,944.8
					c0.5,0,1-0.1,1.3-0.4c0.4-0.3,0.6-0.7,0.8-1.1c0.2-0.5,0.3-1,0.3-1.6s-0.1-1.1-0.3-1.6c-0.2-0.5-0.4-0.8-0.8-1.1
					c-0.3-0.3-0.8-0.4-1.3-0.4s-0.9,0.1-1.3,0.4c-0.3,0.3-0.6,0.6-0.8,1.1s-0.3,1-0.3,1.6s0.1,1.2,0.3,1.6c0.2,0.5,0.4,0.8,0.8,1.1
					C352.7,944.7,353.2,944.8,353.7,944.8z"/>
				<path class="st14" d="M359.8,934.8v10.9h-1.2v-10.9H359.8z"/>
				<path class="st14" d="M364.8,945.9c-0.8,0-1.5-0.2-2-0.5c-0.6-0.4-1-0.8-1.3-1.5c-0.3-0.6-0.5-1.4-0.5-2.2s0.2-1.6,0.5-2.2
					c0.3-0.6,0.7-1.1,1.3-1.5c0.6-0.4,1.2-0.5,1.9-0.5c0.4,0,0.8,0.1,1.3,0.2c0.4,0.1,0.8,0.4,1.1,0.7c0.3,0.3,0.6,0.7,0.8,1.3
					s0.3,1.2,0.3,1.9v0.5h-6.3V941h5.6l-0.6,0.4c0-0.5-0.1-1-0.3-1.5c-0.2-0.4-0.4-0.8-0.8-1c-0.3-0.2-0.8-0.4-1.3-0.4
					s-0.9,0.1-1.3,0.4c-0.4,0.2-0.6,0.6-0.8,1c-0.2,0.4-0.3,0.8-0.3,1.3v0.7c0,0.6,0.1,1.1,0.3,1.6c0.2,0.4,0.5,0.8,0.9,1
					s0.8,0.3,1.3,0.3c0.3,0,0.6,0,0.9-0.1s0.5-0.2,0.7-0.4s0.3-0.4,0.4-0.7l1.2,0.4c-0.1,0.4-0.3,0.8-0.6,1.1
					c-0.3,0.3-0.7,0.6-1.1,0.7C365.9,945.8,365.4,945.9,364.8,945.9z"/>
				<path class="st14" d="M375.2,939.4l-1.1,0.3c-0.1-0.3-0.3-0.5-0.6-0.8c-0.3-0.3-0.7-0.4-1.2-0.4s-0.9,0.1-1.2,0.3
					c-0.3,0.2-0.5,0.5-0.5,0.9c0,0.3,0.1,0.6,0.3,0.7c0.2,0.2,0.6,0.3,1.1,0.5l1.2,0.3c0.7,0.2,1.3,0.4,1.6,0.8
					c0.4,0.4,0.5,0.8,0.5,1.4c0,0.5-0.1,0.9-0.4,1.3c-0.3,0.4-0.6,0.7-1.1,0.9s-1,0.3-1.7,0.3c-0.8,0-1.5-0.2-2.1-0.6
					c-0.5-0.4-0.9-0.9-1-1.6l1.2-0.3c0.1,0.4,0.3,0.8,0.6,1c0.3,0.2,0.7,0.3,1.3,0.3c0.6,0,1-0.1,1.4-0.4c0.3-0.3,0.5-0.6,0.5-0.9
					c0-0.6-0.4-1-1.2-1.2l-1.4-0.3c-0.8-0.2-1.3-0.5-1.7-0.8c-0.4-0.4-0.5-0.8-0.5-1.4c0-0.5,0.1-0.9,0.4-1.2
					c0.3-0.4,0.6-0.6,1.1-0.8s1-0.3,1.5-0.3c0.8,0,1.5,0.2,1.9,0.5S375,938.8,375.2,939.4z"/>
			</g>
			<g>
				<path class="st14" d="M577.2,945.9c-0.8,0-1.5-0.1-2-0.4c-0.6-0.3-1-0.6-1.3-1.1s-0.5-1-0.6-1.6h1.4c0,0.4,0.2,0.8,0.4,1
					c0.2,0.3,0.6,0.5,0.9,0.6c0.4,0.1,0.8,0.2,1.2,0.2c0.5,0,1-0.1,1.4-0.2c0.4-0.2,0.7-0.4,1-0.7c0.2-0.3,0.4-0.6,0.4-1
					s-0.1-0.7-0.3-0.9s-0.5-0.4-0.8-0.6c-0.3-0.1-0.7-0.3-1.1-0.4l-1.3-0.4c-0.9-0.2-1.5-0.6-2-1.1s-0.7-1.1-0.7-1.8
					c0-0.6,0.2-1.1,0.5-1.6s0.8-0.8,1.3-1.1c0.6-0.3,1.2-0.4,1.9-0.4s1.3,0.1,1.9,0.4c0.5,0.3,1,0.6,1.3,1s0.5,0.9,0.5,1.5h-1.3
					c-0.1-0.5-0.3-1-0.8-1.3s-1-0.4-1.7-0.4c-0.5,0-0.9,0.1-1.3,0.2c-0.4,0.2-0.6,0.4-0.8,0.6c-0.2,0.3-0.3,0.6-0.3,0.9
					c0,0.4,0.1,0.7,0.4,0.9c0.2,0.2,0.5,0.4,0.9,0.6c0.3,0.1,0.6,0.2,0.9,0.3l1.1,0.3c0.3,0.1,0.6,0.2,1,0.3s0.7,0.3,1,0.5
					s0.6,0.5,0.8,0.9s0.3,0.8,0.3,1.3c0,0.6-0.2,1.1-0.5,1.6s-0.8,0.9-1.3,1.1C578.8,945.8,578,945.9,577.2,945.9z"/>
				<path class="st14" d="M586,937.5v1.1h-4.2v-1.1H586z M583,935.6h1.2v7.8c0,0.4,0.1,0.7,0.3,0.9s0.5,0.3,0.8,0.3
					c0.1,0,0.2,0,0.3,0s0.2,0,0.3,0l0.3,1.1c-0.1,0-0.3,0.1-0.4,0.1c-0.2,0-0.3,0-0.5,0c-0.7,0-1.2-0.2-1.6-0.6
					c-0.4-0.4-0.6-0.9-0.6-1.5L583,935.6L583,935.6z"/>
				<path class="st14" d="M589.6,945.9c-0.5,0-1-0.1-1.4-0.3s-0.8-0.5-1-0.9s-0.4-0.8-0.4-1.4c0-0.5,0.1-0.9,0.3-1.1
					c0.2-0.3,0.4-0.5,0.7-0.7s0.7-0.3,1-0.4c0.4-0.1,0.8-0.1,1.1-0.2c0.5-0.1,0.9-0.1,1.2-0.1s0.5-0.1,0.7-0.2
					c0.1-0.1,0.2-0.2,0.2-0.4l0,0c0-0.5-0.1-0.9-0.4-1.2c-0.3-0.3-0.7-0.4-1.3-0.4s-1.1,0.1-1.4,0.4c-0.3,0.3-0.6,0.5-0.7,0.8
					l-1.2-0.4c0.2-0.5,0.5-0.9,0.9-1.2s0.8-0.5,1.2-0.6s0.8-0.2,1.3-0.2c0.3,0,0.6,0,0.9,0.1c0.3,0.1,0.7,0.2,1,0.4s0.6,0.5,0.8,0.9
					s0.3,0.9,0.3,1.6v5.4h-1.3v-1.1H592c-0.1,0.2-0.2,0.4-0.4,0.6c-0.2,0.2-0.5,0.4-0.8,0.5C590.5,945.9,590.1,945.9,589.6,945.9z
					 M589.8,944.8c0.5,0,0.9-0.1,1.3-0.3c0.3-0.2,0.6-0.4,0.8-0.8c0.2-0.3,0.3-0.6,0.3-1v-1.2c-0.1,0.1-0.2,0.1-0.3,0.2
					s-0.4,0.1-0.6,0.1c-0.2,0-0.5,0.1-0.7,0.1s-0.4,0-0.5,0.1c-0.3,0-0.6,0.1-0.9,0.2c-0.3,0.1-0.5,0.2-0.7,0.4s-0.3,0.4-0.3,0.8
					c0,0.4,0.2,0.8,0.5,1C588.9,944.7,589.3,944.8,589.8,944.8z"/>
				<path class="st14" d="M598.3,945.9c-0.8,0-1.4-0.2-2-0.5c-0.6-0.4-1-0.9-1.3-1.5s-0.5-1.4-0.5-2.2s0.2-1.6,0.5-2.2
					c0.3-0.6,0.7-1.1,1.3-1.5s1.2-0.5,1.9-0.5c0.6,0,1.1,0.1,1.6,0.3s0.8,0.5,1.1,0.9s0.5,0.8,0.5,1.4h-1.3
					c-0.1-0.2-0.2-0.5-0.3-0.7c-0.2-0.2-0.4-0.4-0.7-0.5s-0.6-0.2-1-0.2c-0.5,0-0.9,0.1-1.3,0.4c-0.4,0.3-0.7,0.6-0.9,1.1
					s-0.3,1-0.3,1.6s0.1,1.2,0.3,1.7s0.5,0.8,0.9,1.1s0.8,0.4,1.3,0.4s0.9-0.1,1.3-0.4c0.4-0.3,0.6-0.6,0.7-1.1h1.3
					c-0.1,0.5-0.2,0.9-0.5,1.3c-0.3,0.4-0.7,0.7-1.1,0.9C599.5,945.8,598.9,945.9,598.3,945.9z"/>
				<path class="st14" d="M602.7,945.8v-10.9h1.2v10.9H602.7z M603.9,942.8v-1.6h0.3l3.6-3.7h1.6l-3.8,3.9h-0.1L603.9,942.8z
					 M607.9,945.8l-3.2-4.1l0.9-0.9l3.9,4.9L607.9,945.8L607.9,945.8z"/>
				<path class="st14" d="M613.3,945.9c-0.8,0-1.5-0.2-2-0.5c-0.6-0.4-1-0.8-1.3-1.5c-0.3-0.6-0.5-1.4-0.5-2.2s0.2-1.6,0.5-2.2
					c0.3-0.6,0.7-1.1,1.3-1.5s1.2-0.5,1.9-0.5c0.4,0,0.8,0.1,1.3,0.2c0.4,0.1,0.8,0.4,1.1,0.7s0.6,0.7,0.8,1.3
					c0.2,0.5,0.3,1.2,0.3,1.9v0.5h-6.3V941h5.6l-0.6,0.4c0-0.5-0.1-1-0.3-1.5c-0.2-0.4-0.4-0.8-0.8-1c-0.3-0.2-0.8-0.4-1.3-0.4
					s-0.9,0.1-1.3,0.4c-0.4,0.2-0.6,0.6-0.8,1s-0.3,0.8-0.3,1.3v0.7c0,0.6,0.1,1.1,0.3,1.6c0.2,0.4,0.5,0.8,0.9,1s0.8,0.3,1.3,0.3
					c0.3,0,0.6,0,0.9-0.1c0.3-0.1,0.5-0.2,0.7-0.4s0.3-0.4,0.4-0.7l1.2,0.4c-0.1,0.4-0.3,0.8-0.6,1.1s-0.7,0.6-1.1,0.7
					C614.4,945.8,613.9,945.9,613.3,945.9z"/>
				<path class="st14" d="M621,945.9c-0.7,0-1.3-0.2-1.8-0.5s-0.9-0.8-1.2-1.5c-0.3-0.6-0.4-1.4-0.4-2.3c0-0.9,0.1-1.6,0.4-2.2
					c0.3-0.6,0.7-1.1,1.2-1.5s1.1-0.5,1.8-0.5c0.5,0,1,0.1,1.3,0.3s0.5,0.4,0.7,0.6c0.2,0.2,0.3,0.4,0.4,0.5h0.1v-4h1.2v10.9h-1.2
					v-1.3h-0.1c-0.1,0.1-0.2,0.3-0.4,0.6c-0.2,0.2-0.4,0.4-0.7,0.6C621.9,945.8,621.5,945.9,621,945.9z M621.1,944.8
					c0.5,0,0.9-0.1,1.3-0.4c0.3-0.3,0.6-0.6,0.8-1.1s0.3-1,0.3-1.6s-0.1-1.2-0.3-1.6s-0.4-0.8-0.8-1.1c-0.4-0.3-0.8-0.4-1.3-0.4
					s-1,0.1-1.3,0.4c-0.4,0.3-0.6,0.6-0.8,1.1s-0.3,1-0.3,1.6s0.1,1.1,0.3,1.6s0.4,0.9,0.8,1.1C620.2,944.7,620.6,944.8,621.1,944.8
					z"/>
				<path class="st14" d="M632.3,945.9c-0.5,0-1-0.1-1.4-0.3s-0.8-0.5-1-0.9s-0.4-0.8-0.4-1.4c0-0.5,0.1-0.9,0.3-1.1
					c0.2-0.3,0.4-0.5,0.7-0.7s0.7-0.3,1-0.4c0.4-0.1,0.8-0.1,1.1-0.2c0.5-0.1,0.9-0.1,1.2-0.1s0.5-0.1,0.7-0.2
					c0.1-0.1,0.2-0.2,0.2-0.4l0,0c0-0.5-0.1-0.9-0.4-1.2c-0.3-0.3-0.7-0.4-1.3-0.4s-1.1,0.1-1.4,0.4c-0.3,0.3-0.6,0.5-0.7,0.8
					l-1.2-0.4c0.2-0.5,0.5-0.9,0.9-1.2s0.8-0.5,1.2-0.6s0.8-0.2,1.3-0.2c0.3,0,0.6,0,0.9,0.1c0.3,0.1,0.7,0.2,1,0.4s0.6,0.5,0.8,0.9
					s0.3,0.9,0.3,1.6v5.4h-1.3v-1.1h-0.1c-0.1,0.2-0.2,0.4-0.4,0.6c-0.2,0.2-0.5,0.4-0.8,0.5C633.2,945.9,632.8,945.9,632.3,945.9z
					 M632.5,944.8c0.5,0,0.9-0.1,1.3-0.3c0.3-0.2,0.6-0.4,0.8-0.8c0.2-0.3,0.3-0.6,0.3-1v-1.2c-0.1,0.1-0.2,0.1-0.3,0.2
					c-0.2,0.1-0.4,0.1-0.6,0.1c-0.2,0-0.5,0.1-0.7,0.1s-0.4,0-0.5,0.1c-0.3,0-0.6,0.1-0.9,0.2c-0.3,0.1-0.5,0.2-0.7,0.4
					s-0.3,0.4-0.3,0.8c0,0.4,0.2,0.8,0.5,1C631.6,944.7,632,944.8,632.5,944.8z"/>
				<path class="st14" d="M637.7,945.8v-8.2h1.2v1.2h0.1c0.2-0.4,0.4-0.7,0.8-1c0.4-0.3,0.8-0.4,1.3-0.4c0.1,0,0.2,0,0.3,0
					s0.2,0,0.3,0v1.3c0,0-0.1,0-0.3,0s-0.3,0-0.5,0c-0.4,0-0.8,0.1-1.1,0.2c-0.3,0.2-0.6,0.4-0.7,0.7c-0.2,0.3-0.3,0.6-0.3,1v5.2
					H637.7z"/>
				<path class="st14" d="M645.7,945.9c-0.8,0-1.5-0.2-2-0.5c-0.6-0.4-1-0.8-1.3-1.5c-0.3-0.6-0.5-1.4-0.5-2.2s0.2-1.6,0.5-2.2
					c0.3-0.6,0.7-1.1,1.3-1.5s1.2-0.5,1.9-0.5c0.4,0,0.8,0.1,1.3,0.2c0.4,0.1,0.8,0.4,1.1,0.7s0.6,0.7,0.8,1.3
					c0.2,0.5,0.3,1.2,0.3,1.9v0.5h-6.3V941h5.6l-0.6,0.4c0-0.5-0.1-1-0.3-1.5c-0.2-0.4-0.4-0.8-0.8-1c-0.3-0.2-0.8-0.4-1.3-0.4
					s-0.9,0.1-1.3,0.4c-0.4,0.2-0.6,0.6-0.8,1s-0.3,0.8-0.3,1.3v0.7c0,0.6,0.1,1.1,0.3,1.6c0.2,0.4,0.5,0.8,0.9,1s0.8,0.3,1.3,0.3
					c0.3,0,0.6,0,0.9-0.1c0.3-0.1,0.5-0.2,0.7-0.4s0.3-0.4,0.4-0.7l1.2,0.4c-0.1,0.4-0.3,0.8-0.6,1.1s-0.7,0.6-1.1,0.7
					C646.8,945.8,646.3,945.9,645.7,945.9z"/>
				<path class="st14" d="M652.7,945.9c-0.5,0-1-0.1-1.4-0.3s-0.8-0.5-1-0.9s-0.4-0.8-0.4-1.4c0-0.5,0.1-0.9,0.3-1.1
					c0.2-0.3,0.4-0.5,0.7-0.7s0.7-0.3,1-0.4c0.4-0.1,0.8-0.1,1.1-0.2c0.5-0.1,0.9-0.1,1.2-0.1s0.5-0.1,0.7-0.2
					c0.1-0.1,0.2-0.2,0.2-0.4l0,0c0-0.5-0.1-0.9-0.4-1.2c-0.3-0.3-0.7-0.4-1.3-0.4s-1.1,0.1-1.4,0.4c-0.3,0.3-0.6,0.5-0.7,0.8
					l-1.2-0.4c0.2-0.5,0.5-0.9,0.9-1.2s0.8-0.5,1.2-0.6s0.8-0.2,1.3-0.2c0.3,0,0.6,0,0.9,0.1c0.3,0.1,0.7,0.2,1,0.4s0.6,0.5,0.8,0.9
					s0.3,0.9,0.3,1.6v5.4h-1.3v-1.1h-0.1c-0.1,0.2-0.2,0.4-0.4,0.6c-0.2,0.2-0.5,0.4-0.8,0.5C653.6,945.9,653.2,945.9,652.7,945.9z
					 M652.9,944.8c0.5,0,0.9-0.1,1.3-0.3c0.3-0.2,0.6-0.4,0.8-0.8c0.2-0.3,0.3-0.6,0.3-1v-1.2c-0.1,0.1-0.2,0.1-0.3,0.2
					c-0.2,0.1-0.4,0.1-0.6,0.1c-0.2,0-0.5,0.1-0.7,0.1s-0.4,0-0.5,0.1c-0.3,0-0.6,0.1-0.9,0.2c-0.3,0.1-0.5,0.2-0.7,0.4
					s-0.3,0.4-0.3,0.8c0,0.4,0.2,0.8,0.5,1C652,944.7,652.4,944.8,652.9,944.8z"/>
			</g>
			<g>
				<path class="st14" d="M881.8,945.8h-1.4l4-10.9h1.4l4,10.9h-1.4l-3.3-9.2H885L881.8,945.8z M882.3,941.5h5.6v1.2h-5.6V941.5z"/>
				<path class="st14" d="M890.6,945.8v-8.2h1.2v1.2h0.1c0.2-0.4,0.4-0.7,0.8-1c0.4-0.3,0.8-0.4,1.3-0.4c0.1,0,0.2,0,0.3,0
					s0.2,0,0.3,0v1.3c0,0-0.1,0-0.3,0s-0.3,0-0.5,0c-0.4,0-0.8,0.1-1.1,0.2c-0.3,0.2-0.6,0.4-0.7,0.7c-0.2,0.3-0.3,0.6-0.3,1v5.2
					H890.6z"/>
				<path class="st14" d="M898.7,945.9c-0.8,0-1.5-0.2-2-0.5c-0.6-0.4-1-0.8-1.3-1.5c-0.3-0.6-0.5-1.4-0.5-2.2s0.2-1.6,0.5-2.2
					c0.3-0.6,0.7-1.1,1.3-1.5s1.2-0.5,1.9-0.5c0.4,0,0.8,0.1,1.3,0.2c0.4,0.1,0.8,0.4,1.1,0.7s0.6,0.7,0.8,1.3
					c0.2,0.5,0.3,1.2,0.3,1.9v0.5h-6.3V941h5.6l-0.6,0.4c0-0.5-0.1-1-0.3-1.5c-0.2-0.4-0.4-0.8-0.8-1c-0.3-0.2-0.8-0.4-1.3-0.4
					s-0.9,0.1-1.3,0.4c-0.4,0.2-0.6,0.6-0.8,1s-0.3,0.8-0.3,1.3v0.7c0,0.6,0.1,1.1,0.3,1.6c0.2,0.4,0.5,0.8,0.9,1s0.8,0.3,1.3,0.3
					c0.3,0,0.6,0,0.9-0.1c0.3-0.1,0.5-0.2,0.7-0.4s0.3-0.4,0.4-0.7l1.2,0.4c-0.1,0.4-0.3,0.8-0.6,1.1s-0.7,0.6-1.1,0.7
					C899.8,945.8,899.3,945.9,898.7,945.9z"/>
				<path class="st14" d="M905.7,945.9c-0.5,0-1-0.1-1.4-0.3s-0.8-0.5-1-0.9s-0.4-0.8-0.4-1.4c0-0.5,0.1-0.9,0.3-1.1
					c0.2-0.3,0.4-0.5,0.7-0.7s0.7-0.3,1-0.4c0.4-0.1,0.8-0.1,1.1-0.2c0.5-0.1,0.9-0.1,1.2-0.1s0.5-0.1,0.7-0.2
					c0.1-0.1,0.2-0.2,0.2-0.4l0,0c0-0.5-0.1-0.9-0.4-1.2c-0.3-0.3-0.7-0.4-1.3-0.4s-1.1,0.1-1.4,0.4c-0.3,0.3-0.6,0.5-0.7,0.8
					l-1.2-0.4c0.2-0.5,0.5-0.9,0.9-1.2s0.8-0.5,1.2-0.6s0.8-0.2,1.3-0.2c0.3,0,0.6,0,0.9,0.1c0.3,0.1,0.7,0.2,1,0.4s0.6,0.5,0.8,0.9
					s0.3,0.9,0.3,1.6v5.4h-1.3v-1.1h-0.1c-0.1,0.2-0.2,0.4-0.4,0.6c-0.2,0.2-0.5,0.4-0.8,0.5C906.6,945.9,906.2,945.9,905.7,945.9z
					 M905.9,944.8c0.5,0,0.9-0.1,1.3-0.3c0.3-0.2,0.6-0.4,0.8-0.8c0.2-0.3,0.3-0.6,0.3-1v-1.2c-0.1,0.1-0.2,0.1-0.3,0.2
					s-0.4,0.1-0.6,0.1c-0.2,0-0.5,0.1-0.7,0.1s-0.4,0-0.5,0.1c-0.3,0-0.6,0.1-0.9,0.2c-0.3,0.1-0.5,0.2-0.7,0.4s-0.3,0.4-0.3,0.8
					c0,0.4,0.2,0.8,0.5,1S905.4,944.8,905.9,944.8z"/>
				<path class="st14" d="M914.6,945.8v-8.2h1.2v1.3h0.1c0.2-0.4,0.4-0.8,0.8-1c0.4-0.2,0.8-0.4,1.4-0.4c0.5,0,1,0.1,1.3,0.4
					c0.4,0.2,0.6,0.6,0.8,1h0.1c0.2-0.4,0.5-0.8,1-1c0.4-0.3,0.9-0.4,1.5-0.4c0.7,0,1.3,0.2,1.8,0.7s0.7,1.2,0.7,2.1v5.5H924v-5.5
					c0-0.6-0.2-1-0.5-1.3s-0.7-0.4-1.2-0.4c-0.6,0-1,0.2-1.3,0.5c-0.3,0.4-0.5,0.8-0.5,1.3v5.3h-1.3v-5.6c0-0.5-0.1-0.8-0.4-1.1
					c-0.3-0.3-0.7-0.4-1.2-0.4c-0.3,0-0.6,0.1-0.9,0.3c-0.3,0.2-0.5,0.4-0.7,0.7s-0.3,0.7-0.3,1.1v5.1L914.6,945.8L914.6,945.8z"/>
				<path class="st14" d="M929.4,945.9c-0.5,0-1-0.1-1.4-0.3s-0.8-0.5-1-0.9s-0.4-0.8-0.4-1.4c0-0.5,0.1-0.9,0.3-1.1
					c0.2-0.3,0.4-0.5,0.7-0.7s0.7-0.3,1-0.4c0.4-0.1,0.8-0.1,1.1-0.2c0.5-0.1,0.9-0.1,1.2-0.1s0.5-0.1,0.7-0.2
					c0.1-0.1,0.2-0.2,0.2-0.4l0,0c0-0.5-0.1-0.9-0.4-1.2c-0.3-0.3-0.7-0.4-1.3-0.4s-1.1,0.1-1.4,0.4c-0.3,0.3-0.6,0.5-0.7,0.8
					l-1.2-0.4c0.2-0.5,0.5-0.9,0.9-1.2s0.8-0.5,1.2-0.6s0.8-0.2,1.3-0.2c0.3,0,0.6,0,0.9,0.1c0.3,0.1,0.7,0.2,1,0.4s0.6,0.5,0.8,0.9
					s0.3,0.9,0.3,1.6v5.4h-1.3v-1.1h-0.1c-0.1,0.2-0.2,0.4-0.4,0.6c-0.2,0.2-0.5,0.4-0.8,0.5C930.3,945.9,929.9,945.9,929.4,945.9z
					 M929.6,944.8c0.5,0,0.9-0.1,1.3-0.3c0.3-0.2,0.6-0.4,0.8-0.8c0.2-0.3,0.3-0.6,0.3-1v-1.2c-0.1,0.1-0.2,0.1-0.3,0.2
					s-0.4,0.1-0.6,0.1c-0.2,0-0.5,0.1-0.7,0.1s-0.4,0-0.5,0.1c-0.3,0-0.6,0.1-0.9,0.2c-0.3,0.1-0.5,0.2-0.7,0.4s-0.3,0.4-0.3,0.8
					c0,0.4,0.2,0.8,0.5,1C928.7,944.7,929.1,944.8,929.6,944.8z"/>
				<path class="st14" d="M934.8,948.8v-11.3h1.2v1.3h0.1c0.1-0.1,0.2-0.3,0.4-0.5s0.4-0.4,0.7-0.6c0.3-0.2,0.7-0.3,1.3-0.3
					c0.7,0,1.3,0.2,1.8,0.5s0.9,0.8,1.2,1.5c0.3,0.6,0.4,1.4,0.4,2.2c0,0.9-0.1,1.6-0.4,2.3c-0.3,0.6-0.7,1.1-1.2,1.5
					c-0.5,0.3-1.1,0.5-1.8,0.5c-0.5,0-0.9-0.1-1.3-0.3c-0.3-0.2-0.6-0.4-0.7-0.6c-0.2-0.2-0.3-0.4-0.4-0.6H936v4.3L934.8,948.8
					L934.8,948.8z M938.3,944.8c0.5,0,1-0.1,1.3-0.4c0.4-0.3,0.6-0.7,0.8-1.1c0.2-0.5,0.3-1,0.3-1.6s-0.1-1.1-0.3-1.6
					s-0.4-0.8-0.8-1.1c-0.3-0.3-0.8-0.4-1.3-0.4s-0.9,0.1-1.3,0.4c-0.3,0.3-0.6,0.6-0.8,1.1s-0.3,1-0.3,1.6s0.1,1.2,0.3,1.6
					c0.2,0.5,0.4,0.8,0.8,1.1C937.4,944.7,937.8,944.8,938.3,944.8z"/>
			</g>
			<g>
				<path class="st14" d="M1195.6,936v-1.2h8.2v1.2h-3.4v9.8h-1.3V936H1195.6z"/>
				<path class="st14" d="M1205.6,936.2c-0.2,0-0.5-0.1-0.6-0.2c-0.2-0.2-0.3-0.4-0.3-0.6c0-0.2,0.1-0.4,0.3-0.6
					c0.2-0.2,0.4-0.2,0.6-0.2s0.5,0.1,0.6,0.2c0.2,0.2,0.3,0.4,0.3,0.6c0,0.2-0.1,0.4-0.3,0.6
					C1206.1,936.1,1205.9,936.2,1205.6,936.2z M1205,945.8v-8.2h1.2v8.2H1205z"/>
				<path class="st14" d="M1207.9,945.8v-8.2h1.2v1.3h0.1c0.2-0.4,0.4-0.8,0.8-1s0.8-0.4,1.4-0.4c0.5,0,1,0.1,1.3,0.4
					c0.4,0.2,0.6,0.6,0.8,1h0.1c0.2-0.4,0.5-0.8,1-1c0.4-0.3,0.9-0.4,1.5-0.4c0.7,0,1.3,0.2,1.8,0.7s0.7,1.2,0.7,2.1v5.5h-1.3v-5.5
					c0-0.6-0.2-1-0.5-1.3s-0.7-0.4-1.2-0.4c-0.6,0-1,0.2-1.3,0.5c-0.3,0.4-0.5,0.8-0.5,1.3v5.3h-1.3v-5.6c0-0.5-0.1-0.8-0.4-1.1
					s-0.7-0.4-1.2-0.4c-0.3,0-0.6,0.1-0.9,0.3s-0.5,0.4-0.7,0.7s-0.3,0.7-0.3,1.1v5.1L1207.9,945.8L1207.9,945.8z"/>
				<path class="st14" d="M1223.7,945.9c-0.8,0-1.5-0.2-2-0.5c-0.6-0.4-1-0.8-1.3-1.5c-0.3-0.6-0.5-1.4-0.5-2.2s0.2-1.6,0.5-2.2
					c0.3-0.6,0.7-1.1,1.3-1.5c0.6-0.4,1.2-0.5,1.9-0.5c0.4,0,0.8,0.1,1.3,0.2c0.4,0.1,0.8,0.4,1.1,0.7c0.3,0.3,0.6,0.7,0.8,1.3
					c0.2,0.5,0.3,1.2,0.3,1.9v0.5h-6.3V941h5.6l-0.6,0.4c0-0.5-0.1-1-0.3-1.5c-0.2-0.4-0.4-0.8-0.8-1c-0.3-0.2-0.8-0.4-1.3-0.4
					s-0.9,0.1-1.3,0.4s-0.6,0.6-0.8,1c-0.2,0.4-0.3,0.8-0.3,1.3v0.7c0,0.6,0.1,1.1,0.3,1.6c0.2,0.4,0.5,0.8,0.9,1s0.8,0.3,1.3,0.3
					c0.3,0,0.6,0,0.9-0.1s0.5-0.2,0.7-0.4s0.3-0.4,0.4-0.7l1.2,0.4c-0.1,0.4-0.3,0.8-0.6,1.1c-0.3,0.3-0.7,0.6-1.1,0.7
					C1224.7,945.8,1224.2,945.9,1223.7,945.9z"/>
				<path class="st14" d="M1229.5,934.8v10.9h-1.2v-10.9H1229.5z"/>
				<path class="st14" d="M1231.8,936.2c-0.2,0-0.5-0.1-0.6-0.2c-0.2-0.2-0.3-0.4-0.3-0.6c0-0.2,0.1-0.4,0.3-0.6
					c0.2-0.2,0.4-0.2,0.6-0.2s0.5,0.1,0.6,0.2c0.2,0.2,0.3,0.4,0.3,0.6c0,0.2-0.1,0.4-0.3,0.6C1232.2,936.1,1232,936.2,1231.8,936.2
					z M1231.1,945.8v-8.2h1.2v8.2H1231.1z"/>
				<path class="st14" d="M1235.2,940.8v4.9h-1.2v-8.2h1.2v1.3h0.1c0.2-0.4,0.5-0.8,0.9-1c0.4-0.3,0.9-0.4,1.5-0.4s1,0.1,1.5,0.3
					c0.4,0.2,0.7,0.6,1,1c0.2,0.5,0.3,1,0.3,1.7v5.2h-1.2v-5.1c0-0.6-0.2-1.1-0.5-1.5s-0.8-0.5-1.4-0.5c-0.4,0-0.8,0.1-1.1,0.3
					c-0.3,0.2-0.6,0.4-0.8,0.8C1235.3,939.9,1235.2,940.3,1235.2,940.8z"/>
				<path class="st14" d="M1245.5,945.9c-0.8,0-1.5-0.2-2-0.5c-0.6-0.4-1-0.8-1.3-1.5c-0.3-0.6-0.5-1.4-0.5-2.2s0.2-1.6,0.5-2.2
					c0.3-0.6,0.7-1.1,1.3-1.5c0.6-0.4,1.2-0.5,1.9-0.5c0.4,0,0.8,0.1,1.3,0.2c0.4,0.1,0.8,0.4,1.1,0.7c0.3,0.3,0.6,0.7,0.8,1.3
					c0.2,0.5,0.3,1.2,0.3,1.9v0.5h-6.3V941h5.6l-0.6,0.4c0-0.5-0.1-1-0.3-1.5c-0.2-0.4-0.4-0.8-0.8-1c-0.3-0.2-0.8-0.4-1.3-0.4
					s-0.9,0.1-1.3,0.4c-0.4,0.2-0.6,0.6-0.8,1c-0.2,0.4-0.3,0.8-0.3,1.3v0.7c0,0.6,0.1,1.1,0.3,1.6c0.2,0.4,0.5,0.8,0.9,1
					s0.8,0.3,1.3,0.3c0.3,0,0.6,0,0.9-0.1s0.5-0.2,0.7-0.4s0.3-0.4,0.4-0.7l1.2,0.4c-0.1,0.4-0.3,0.8-0.6,1.1
					c-0.3,0.3-0.7,0.6-1.1,0.7C1246.6,945.8,1246.1,945.9,1245.5,945.9z"/>
			</g>
			<g>
				<path class="st14" d="M1512.7,945.8l-3-10.9h1.3l2.3,8.9h0.1l2.3-8.9h1.5l2.3,8.9h0.1l2.3-8.9h1.4l-3,10.9h-1.4l-2.4-8.7h-0.1
					l-2.4,8.7H1512.7z"/>
				<path class="st14" d="M1525.9,945.9c-0.5,0-1-0.1-1.4-0.3s-0.8-0.5-1-0.9c-0.3-0.4-0.4-0.8-0.4-1.4c0-0.5,0.1-0.9,0.3-1.1
					c0.2-0.3,0.4-0.5,0.7-0.7c0.3-0.2,0.7-0.3,1-0.4c0.4-0.1,0.8-0.1,1.1-0.2c0.5-0.1,0.9-0.1,1.2-0.1c0.3,0,0.5-0.1,0.7-0.2
					c0.1-0.1,0.2-0.2,0.2-0.4l0,0c0-0.5-0.1-0.9-0.4-1.2s-0.7-0.4-1.3-0.4c-0.6,0-1.1,0.1-1.4,0.4c-0.3,0.3-0.6,0.5-0.7,0.8
					l-1.2-0.4c0.2-0.5,0.5-0.9,0.9-1.2s0.8-0.5,1.2-0.6c0.4-0.1,0.8-0.2,1.3-0.2c0.3,0,0.6,0,0.9,0.1s0.7,0.2,1,0.4s0.6,0.5,0.8,0.9
					c0.2,0.4,0.3,0.9,0.3,1.6v5.4h-1.3v-1.1h-0.1c-0.1,0.2-0.2,0.4-0.4,0.6c-0.2,0.2-0.5,0.4-0.8,0.5
					C1526.8,945.9,1526.4,945.9,1525.9,945.9z M1526.1,944.8c0.5,0,0.9-0.1,1.3-0.3c0.3-0.2,0.6-0.4,0.8-0.8c0.2-0.3,0.3-0.6,0.3-1
					v-1.2c-0.1,0.1-0.2,0.1-0.3,0.2c-0.2,0.1-0.4,0.1-0.6,0.1s-0.5,0.1-0.7,0.1s-0.4,0-0.5,0.1c-0.3,0-0.6,0.1-0.9,0.2
					c-0.3,0.1-0.5,0.2-0.7,0.4s-0.3,0.4-0.3,0.8c0,0.4,0.2,0.8,0.5,1C1525.1,944.7,1525.6,944.8,1526.1,944.8z"/>
				<path class="st14" d="M1534.8,937.5v1.1h-4.2v-1.1H1534.8z M1531.8,935.6h1.2v7.8c0,0.4,0.1,0.7,0.3,0.9
					c0.2,0.2,0.5,0.3,0.8,0.3c0.1,0,0.2,0,0.3,0c0.1,0,0.2,0,0.3,0l0.3,1.1c-0.1,0-0.3,0.1-0.4,0.1c-0.2,0-0.3,0-0.5,0
					c-0.7,0-1.2-0.2-1.6-0.6c-0.4-0.4-0.6-0.9-0.6-1.5v-8.1H1531.8z"/>
				<path class="st14" d="M1539.4,945.9c-0.8,0-1.5-0.2-2-0.5c-0.6-0.4-1-0.8-1.3-1.5c-0.3-0.6-0.5-1.4-0.5-2.2s0.2-1.6,0.5-2.2
					c0.3-0.6,0.7-1.1,1.3-1.5c0.6-0.4,1.2-0.5,1.9-0.5c0.4,0,0.8,0.1,1.3,0.2c0.4,0.1,0.8,0.4,1.1,0.7c0.3,0.3,0.6,0.7,0.8,1.3
					s0.3,1.2,0.3,1.9v0.5h-6.3V941h5.6l-0.6,0.4c0-0.5-0.1-1-0.3-1.5c-0.2-0.4-0.4-0.8-0.8-1c-0.3-0.2-0.8-0.4-1.3-0.4
					s-0.9,0.1-1.3,0.4s-0.6,0.6-0.8,1c-0.2,0.4-0.3,0.8-0.3,1.3v0.7c0,0.6,0.1,1.1,0.3,1.6c0.2,0.4,0.5,0.8,0.9,1s0.8,0.3,1.3,0.3
					c0.3,0,0.6,0,0.9-0.1s0.5-0.2,0.7-0.4s0.3-0.4,0.4-0.7l1.2,0.4c-0.1,0.4-0.3,0.8-0.6,1.1c-0.3,0.3-0.7,0.6-1.1,0.7
					C1540.4,945.8,1539.9,945.9,1539.4,945.9z"/>
				<path class="st14" d="M1543.9,945.8v-8.2h1.2v1.2h0.1c0.2-0.4,0.4-0.7,0.8-1s0.8-0.4,1.3-0.4c0.1,0,0.2,0,0.3,0
					c0.1,0,0.2,0,0.3,0v1.3c0,0-0.1,0-0.3,0c-0.2,0-0.3,0-0.5,0c-0.4,0-0.8,0.1-1.1,0.2c-0.3,0.2-0.6,0.4-0.7,0.7
					c-0.2,0.3-0.3,0.6-0.3,1v5.2H1543.9z"/>
				<path class="st14" d="M1553,937.5v1.1h-4.4v-1.1H1553z M1549.9,945.8v-9.3c0-0.5,0.1-0.9,0.3-1.2c0.2-0.3,0.5-0.5,0.9-0.7
					s0.7-0.2,1.1-0.2c0.3,0,0.6,0,0.8,0.1c0.2,0.1,0.3,0.1,0.4,0.1l-0.4,1.1c-0.1,0-0.2-0.1-0.3-0.1c-0.1,0-0.3,0-0.4,0
					c-0.4,0-0.7,0.1-0.9,0.3c-0.2,0.2-0.3,0.5-0.3,0.9v9L1549.9,945.8L1549.9,945.8z"/>
				<path class="st14" d="M1556.2,945.9c-0.5,0-1-0.1-1.4-0.3s-0.8-0.5-1-0.9c-0.3-0.4-0.4-0.8-0.4-1.4c0-0.5,0.1-0.9,0.3-1.1
					c0.2-0.3,0.4-0.5,0.7-0.7c0.3-0.2,0.7-0.3,1-0.4c0.4-0.1,0.8-0.1,1.1-0.2c0.5-0.1,0.9-0.1,1.2-0.1c0.3,0,0.5-0.1,0.7-0.2
					c0.1-0.1,0.2-0.2,0.2-0.4l0,0c0-0.5-0.1-0.9-0.4-1.2s-0.7-0.4-1.3-0.4c-0.6,0-1.1,0.1-1.4,0.4c-0.3,0.3-0.6,0.5-0.7,0.8
					l-1.2-0.4c0.2-0.5,0.5-0.9,0.9-1.2s0.8-0.5,1.2-0.6c0.4-0.1,0.8-0.2,1.3-0.2c0.3,0,0.6,0,0.9,0.1s0.7,0.2,1,0.4s0.6,0.5,0.8,0.9
					c0.2,0.4,0.3,0.9,0.3,1.6v5.4h-1.3v-1.1h-0.1c-0.1,0.2-0.2,0.4-0.4,0.6c-0.2,0.2-0.5,0.4-0.8,0.5
					C1557.1,945.9,1556.7,945.9,1556.2,945.9z M1556.4,944.8c0.5,0,0.9-0.1,1.3-0.3c0.3-0.2,0.6-0.4,0.8-0.8c0.2-0.3,0.3-0.6,0.3-1
					v-1.2c-0.1,0.1-0.2,0.1-0.3,0.2c-0.2,0.1-0.4,0.1-0.6,0.1s-0.5,0.1-0.7,0.1s-0.4,0-0.5,0.1c-0.3,0-0.6,0.1-0.9,0.2
					c-0.3,0.1-0.5,0.2-0.7,0.4s-0.3,0.4-0.3,0.8c0,0.4,0.2,0.8,0.5,1C1555.5,944.7,1555.9,944.8,1556.4,944.8z"/>
				<path class="st14" d="M1562.9,934.8v10.9h-1.2v-10.9H1562.9z"/>
				<path class="st14" d="M1565.7,934.8v10.9h-1.2v-10.9H1565.7z"/>
			</g>
		</g>
	</g>
	<g class="st15">
		<path class="st14" d="M882.9,270.4H880c-0.1-0.5-0.2-0.9-0.5-1.3c-0.2-0.4-0.5-0.7-0.8-0.9c-0.3-0.3-0.7-0.5-1.1-0.6
			c-0.4-0.1-0.9-0.2-1.4-0.2c-0.9,0-1.6,0.2-2.3,0.7s-1.2,1.1-1.6,1.9c-0.4,0.8-0.6,1.9-0.6,3.1s0.2,2.3,0.6,3.1s0.9,1.5,1.6,1.9
			c0.7,0.4,1.4,0.6,2.3,0.6c0.5,0,0.9-0.1,1.3-0.2c0.4-0.1,0.8-0.3,1.1-0.6s0.6-0.6,0.9-0.9c0.2-0.4,0.4-0.8,0.5-1.3h2.9
			c-0.1,0.8-0.3,1.5-0.7,2.1c-0.4,0.7-0.8,1.3-1.4,1.8c-0.6,0.5-1.3,0.9-2,1.2s-1.6,0.4-2.6,0.4c-1.4,0-2.7-0.3-3.8-1
			s-2-1.6-2.6-2.8c-0.6-1.2-1-2.7-1-4.4c0-1.7,0.3-3.2,1-4.4s1.5-2.2,2.6-2.8c1.1-0.7,2.4-1,3.8-1c0.9,0,1.7,0.1,2.5,0.4
			s1.4,0.6,2,1.1s1.1,1.1,1.5,1.8C882.5,268.7,882.8,269.5,882.9,270.4z"/>
		<path class="st14" d="M894.3,269.4c-0.1-0.7-0.4-1.2-0.9-1.6s-1.2-0.6-2.1-0.6c-0.6,0-1.1,0.1-1.6,0.3c-0.4,0.2-0.8,0.4-1,0.7
			c-0.2,0.3-0.3,0.7-0.4,1.1c0,0.3,0.1,0.6,0.2,0.9c0.2,0.2,0.4,0.5,0.6,0.6s0.6,0.3,0.9,0.4c0.3,0.1,0.6,0.2,1,0.3l1.5,0.4
			c0.6,0.1,1.2,0.3,1.7,0.6c0.6,0.2,1.1,0.5,1.5,0.9s0.8,0.8,1.1,1.3s0.4,1.1,0.4,1.8c0,0.9-0.2,1.8-0.7,2.5s-1.2,1.3-2.1,1.7
			c-0.9,0.4-2,0.6-3.3,0.6c-1.2,0-2.3-0.2-3.2-0.6s-1.6-0.9-2.1-1.7c-0.5-0.7-0.8-1.6-0.8-2.7h2.9c0,0.6,0.2,1,0.5,1.4
			s0.7,0.6,1.2,0.8c0.5,0.2,1,0.3,1.6,0.3s1.2-0.1,1.7-0.3s0.9-0.5,1.1-0.8c0.3-0.3,0.4-0.7,0.4-1.2c0-0.4-0.1-0.8-0.4-1
			c-0.2-0.3-0.6-0.5-1-0.7s-0.9-0.4-1.5-0.5l-1.8-0.5c-1.3-0.3-2.4-0.9-3.1-1.5c-0.8-0.7-1.1-1.6-1.1-2.8c0-0.9,0.3-1.8,0.8-2.5
			s1.2-1.3,2.1-1.7c0.9-0.4,1.9-0.6,3-0.6s2.1,0.2,3,0.6s1.5,0.9,2,1.6s0.7,1.5,0.8,2.4h-2.9V269.4z"/>
		<path class="st14" d="M913.6,270.4h-2.9c-0.1-0.5-0.2-0.9-0.5-1.3c-0.2-0.4-0.5-0.7-0.8-0.9c-0.3-0.3-0.7-0.5-1.1-0.6
			c-0.4-0.1-0.9-0.2-1.4-0.2c-0.9,0-1.6,0.2-2.3,0.7s-1.2,1.1-1.6,1.9c-0.4,0.8-0.6,1.9-0.6,3.1s0.2,2.3,0.6,3.1s0.9,1.5,1.6,1.9
			c0.7,0.4,1.4,0.6,2.3,0.6c0.5,0,0.9-0.1,1.3-0.2c0.4-0.1,0.8-0.3,1.1-0.6s0.6-0.6,0.9-0.9c0.2-0.4,0.4-0.8,0.5-1.3h2.9
			c-0.1,0.8-0.3,1.5-0.7,2.1c-0.4,0.7-0.8,1.3-1.4,1.8c-0.6,0.5-1.3,0.9-2,1.2s-1.6,0.4-2.6,0.4c-1.4,0-2.7-0.3-3.8-1
			s-2-1.6-2.6-2.8c-0.6-1.2-1-2.7-1-4.4c0-1.7,0.3-3.2,1-4.4s1.5-2.2,2.6-2.8c1.1-0.7,2.4-1,3.8-1c0.9,0,1.7,0.1,2.5,0.4
			s1.4,0.6,2,1.1s1.1,1.1,1.5,1.8C913.2,268.7,913.4,269.5,913.6,270.4z"/>
		<path class="st14" d="M924.6,265v16h-2.9v-16H924.6z"/>
		<path class="st14" d="M930.4,274v7h-2.8v-12h2.7v2h0.1c0.3-0.7,0.7-1.2,1.3-1.6s1.4-0.6,2.3-0.6c0.8,0,1.6,0.2,2.2,0.5
			s1.1,0.9,1.4,1.5c0.3,0.7,0.5,1.5,0.5,2.4v7.6h-2.8v-7.2c0-0.8-0.2-1.4-0.6-1.9s-1-0.7-1.7-0.7c-0.5,0-0.9,0.1-1.3,0.3
			s-0.7,0.5-0.9,0.9C930.5,272.9,930.4,273.4,930.4,274z"/>
		<path class="st14" d="M947.1,269v2.2H940V269H947.1z M941.8,281v-13.1c0-0.8,0.2-1.5,0.5-2s0.8-0.9,1.4-1.2
			c0.6-0.3,1.2-0.4,1.9-0.4c0.5,0,0.9,0,1.3,0.1c0.4,0.1,0.7,0.1,0.8,0.2l-0.6,2.2c-0.1,0-0.3-0.1-0.5-0.1s-0.4-0.1-0.6-0.1
			c-0.5,0-0.9,0.1-1.1,0.4c-0.2,0.3-0.3,0.6-0.3,1.1V281H941.8z"/>
		<path class="st14" d="M954.1,281.2c-1.2,0-2.2-0.3-3-0.8s-1.5-1.2-2-2.2c-0.5-0.9-0.7-2-0.7-3.3s0.2-2.3,0.7-3.3
			c0.5-0.9,1.1-1.7,2-2.2s1.9-0.8,3-0.8s2.2,0.3,3,0.8s1.5,1.2,2,2.2c0.5,0.9,0.7,2,0.7,3.3s-0.2,2.3-0.7,3.3
			c-0.5,0.9-1.1,1.6-2,2.2S955.3,281.2,954.1,281.2z M954.1,279c0.6,0,1.2-0.2,1.6-0.5c0.4-0.4,0.7-0.8,1-1.4s0.3-1.3,0.3-2
			s-0.1-1.4-0.3-2s-0.5-1.1-1-1.4c-0.4-0.4-1-0.5-1.6-0.5c-0.7,0-1.2,0.2-1.6,0.5s-0.8,0.8-1,1.4s-0.3,1.3-0.3,2s0.1,1.4,0.3,2
			s0.5,1.1,1,1.4S953.5,279,954.1,279z"/>
		<path class="st14" d="M967.5,285.7c-1,0-1.9-0.1-2.6-0.4s-1.3-0.6-1.8-1.1s-0.8-1-0.9-1.5l2.5-0.6c0.1,0.2,0.3,0.4,0.5,0.7
			s0.5,0.4,0.9,0.6s0.8,0.2,1.4,0.2c0.8,0,1.5-0.2,2-0.6s0.8-1,0.8-1.9v-2.3h-0.1c-0.1,0.3-0.4,0.6-0.6,0.9s-0.6,0.6-1.1,0.8
			s-1,0.3-1.7,0.3c-0.9,0-1.8-0.2-2.5-0.7s-1.3-1.1-1.8-2s-0.7-2-0.7-3.3s0.2-2.4,0.7-3.3s1-1.6,1.8-2.1s1.6-0.7,2.5-0.7
			c0.7,0,1.3,0.1,1.7,0.4s0.8,0.5,1.1,0.9s0.5,0.6,0.6,0.9h0.2v-2h2.8v12.2c0,1-0.2,1.8-0.7,2.5s-1.2,1.2-2,1.5
			S968.5,285.7,967.5,285.7z M967.5,278.6c0.6,0,1.1-0.1,1.5-0.4s0.7-0.7,1-1.3s0.3-1.2,0.3-2s-0.1-1.4-0.3-2s-0.5-1-1-1.3
			s-0.9-0.5-1.5-0.5s-1.2,0.2-1.6,0.5s-0.7,0.8-1,1.3s-0.3,1.2-0.3,1.9c0,0.7,0.1,1.4,0.3,1.9s0.5,1,1,1.3S966.9,278.6,967.5,278.6z
			"/>
		<path class="st14" d="M976,281v-12h2.7v2h0.1c0.2-0.7,0.6-1.2,1.1-1.6s1.1-0.6,1.8-0.6c0.2,0,0.3,0,0.5,0s0.4,0,0.5,0.1v2.6
			c-0.1,0-0.3-0.1-0.6-0.1s-0.5-0.1-0.7-0.1c-0.5,0-1,0.1-1.4,0.3s-0.7,0.5-1,0.9s-0.4,0.8-0.4,1.4v7.1L976,281L976,281z"/>
		<path class="st14" d="M988,281.2c-0.8,0-1.4-0.1-2.1-0.4s-1.1-0.7-1.4-1.2s-0.5-1.2-0.5-2c0-0.7,0.1-1.2,0.4-1.7s0.6-0.8,1-1.1
			s0.9-0.5,1.5-0.6s1.1-0.2,1.7-0.3c0.7-0.1,1.3-0.1,1.7-0.2s0.8-0.2,1-0.3s0.3-0.3,0.3-0.6l0,0c0-0.6-0.2-1-0.5-1.4
			s-0.9-0.5-1.5-0.5c-0.7,0-1.2,0.2-1.6,0.5s-0.7,0.7-0.8,1.1l-2.6-0.4c0.2-0.7,0.6-1.3,1-1.8s1.1-0.9,1.8-1.1s1.5-0.4,2.3-0.4
			c0.6,0,1.2,0.1,1.7,0.2s1.1,0.4,1.6,0.7s0.9,0.7,1.1,1.3s0.4,1.2,0.4,2v8h-2.7v-1.6h-0.1c-0.2,0.3-0.4,0.6-0.7,0.9
			s-0.7,0.5-1.2,0.7S988.6,281.2,988,281.2z M988.7,279.2c0.6,0,1.1-0.1,1.5-0.3s0.7-0.5,1-0.9s0.3-0.8,0.3-1.2v-1.4
			c-0.1,0.1-0.2,0.1-0.4,0.2s-0.4,0.1-0.7,0.2s-0.5,0.1-0.8,0.1s-0.5,0.1-0.7,0.1c-0.4,0.1-0.8,0.2-1.1,0.3s-0.6,0.3-0.8,0.5
			s-0.3,0.5-0.3,0.9c0,0.5,0.2,0.9,0.6,1.2S988.1,279.2,988.7,279.2z"/>
		<path class="st14" d="M997.1,285.5V269h2.8v2h0.2c0.1-0.3,0.4-0.6,0.6-0.9s0.6-0.6,1.1-0.9s1-0.4,1.7-0.4c0.9,0,1.8,0.2,2.5,0.7
			s1.3,1.2,1.8,2.1s0.7,2,0.7,3.4c0,1.3-0.2,2.4-0.6,3.4s-1,1.6-1.8,2.1s-1.6,0.7-2.5,0.7c-0.7,0-1.3-0.1-1.7-0.3s-0.8-0.5-1.1-0.8
			s-0.5-0.6-0.6-0.9h-0.1v6.4h-3V285.5z M999.9,275c0,0.8,0.1,1.5,0.3,2s0.5,1,1,1.4s0.9,0.5,1.5,0.5s1.1-0.2,1.6-0.5s0.7-0.8,1-1.4
			s0.3-1.3,0.3-2s-0.1-1.4-0.3-2s-0.5-1-1-1.4s-0.9-0.5-1.6-0.5c-0.6,0-1.1,0.2-1.5,0.5s-0.7,0.8-1,1.3S999.9,274.2,999.9,275z"/>
		<path class="st14" d="M1013.7,274v7h-2.8v-16h2.8v6h0.1c0.3-0.7,0.7-1.2,1.3-1.6s1.3-0.6,2.3-0.6c0.8,0,1.6,0.2,2.2,0.5
			s1.1,0.9,1.4,1.5s0.5,1.5,0.5,2.5v7.6h-2.8v-7.2c0-0.8-0.2-1.4-0.6-1.9s-1-0.7-1.7-0.7c-0.5,0-0.9,0.1-1.3,0.3s-0.7,0.5-0.9,0.9
			S1013.7,273.4,1013.7,274z"/>
		<path class="st14" d="M1025.8,267.3c-0.5,0-0.8-0.1-1.2-0.4s-0.5-0.7-0.5-1.1s0.2-0.8,0.5-1.1c0.3-0.3,0.7-0.4,1.2-0.4
			c0.4,0,0.8,0.1,1.2,0.4s0.5,0.7,0.5,1.1s-0.2,0.8-0.5,1.1S1026.2,267.3,1025.8,267.3z M1024.4,281v-12h2.8v12H1024.4z"/>
		<path class="st14" d="M1035.3,281.2c-1.2,0-2.2-0.3-3.1-0.8s-1.5-1.3-2-2.2s-0.7-2-0.7-3.2s0.2-2.3,0.7-3.2s1.1-1.7,2-2.2
			s1.9-0.8,3-0.8c1,0,1.8,0.2,2.6,0.5c0.8,0.4,1.4,0.9,1.8,1.5s0.7,1.4,0.8,2.3h-2.7c-0.1-0.6-0.4-1.1-0.8-1.4
			c-0.4-0.4-1-0.6-1.6-0.6s-1.1,0.2-1.5,0.5s-0.8,0.8-1,1.3s-0.4,1.3-0.4,2.1c0,0.8,0.1,1.5,0.4,2.1c0.2,0.6,0.6,1,1,1.4
			c0.4,0.3,0.9,0.5,1.5,0.5c0.4,0,0.8-0.1,1.1-0.2c0.3-0.2,0.6-0.4,0.8-0.7c0.2-0.3,0.4-0.7,0.5-1.1h2.7c-0.1,0.8-0.3,1.6-0.8,2.3
			c-0.4,0.7-1,1.2-1.8,1.5C1037.2,281.1,1036.3,281.2,1035.3,281.2z"/>
		<path class="st14" d="M1052.3,272.2l-2.6,0.3c-0.1-0.3-0.2-0.5-0.4-0.7s-0.4-0.4-0.7-0.6c-0.3-0.1-0.7-0.2-1.1-0.2
			c-0.6,0-1.1,0.1-1.5,0.4s-0.6,0.6-0.6,1c0,0.3,0.1,0.6,0.4,0.9c0.3,0.2,0.7,0.4,1.3,0.5l2,0.4c1.1,0.2,2,0.6,2.5,1.2
			s0.8,1.2,0.8,2.1c0,0.8-0.2,1.4-0.7,2c-0.4,0.6-1,1-1.8,1.3s-1.7,0.5-2.7,0.5c-1.5,0-2.7-0.3-3.5-0.9c-0.9-0.6-1.4-1.5-1.6-2.6
			l2.8-0.3c0.1,0.5,0.4,1,0.8,1.2s0.9,0.4,1.6,0.4s1.2-0.1,1.6-0.4s0.6-0.6,0.6-1c0-0.3-0.1-0.6-0.4-0.9c-0.3-0.2-0.7-0.4-1.2-0.5
			l-2-0.4c-1.2-0.2-2-0.6-2.6-1.2s-0.8-1.3-0.8-2.2c0-0.7,0.2-1.4,0.6-1.9s1-1,1.7-1.3s1.6-0.4,2.5-0.4c1.4,0,2.5,0.3,3.3,0.9
			C1051.6,270.3,1052.1,271.2,1052.3,272.2z"/>
	</g>
</g>
<line class="st16" x1="209" y1="319" x2="1711" y2="319"/>
</svg>
