<?xml version="1.0" encoding="utf-8"?>
<!-- Generator: Adobe Illustrator 22.0.0, SVG Export Plug-In . SVG Version: 6.00 Build 0)  -->
<svg version="1.1" id="Layer_1" xmlns="http://www.w3.org/2000/svg" xmlns:xlink="http://www.w3.org/1999/xlink" x="0px" y="0px"
	 viewBox="0 0 3000 2000" style="enable-background:new 0 0 3000 2000;" xml:space="preserve">
<style type="text/css">
	.st0{fill:#181818;}
	.st1{opacity:8.000000e-02;fill:#FFFFFF;enable-background:new    ;}
	.st2{fill:#105434;}
	.st3{fill:#FFFFFF;}
	.st4{opacity:0.3;fill:none;stroke:#ECEDED;stroke-width:0.9434;stroke-miterlimit:10;enable-background:new    ;}
	.st5{fill:none;stroke:#C6C6C6;stroke-miterlimit:10;}
	.st6{opacity:0.6;}
	.st7{fill:#ECEDED;}
</style>
<rect class="st0" width="3000" height="2000"/>
<g>
	<rect x="258.1" y="918.7" class="st1" width="125.8" height="198.1"/>
	<rect x="1982.9" y="1206.3" class="st1" width="759.8" height="80.3"/>
	<rect x="1982.9" y="661.6" class="st1" width="759.8" height="80.3"/>
	<rect x="1982.9" y="742" class="st1" width="110.5" height="464.2"/>
	<rect x="2637.1" y="742.5" class="st1" width="106.2" height="464.2"/>
	<path class="st2" d="M2148.1,1233.7c-1.6-9.3-9.1-14.7-18.6-14.7c-12.8,0-21.8,9.8-21.8,27.4c0,17.9,9.1,27.4,21.7,27.4
		c9.3,0,16.8-5.2,18.6-14.3l14.3,0.1c-2.2,14.9-14.5,26.9-33.1,26.9c-20.6,0-35.8-14.9-35.8-40.1c0-25.3,15.4-40.1,35.8-40.1
		c17.3,0,30.7,10.1,33.1,27.4L2148.1,1233.7L2148.1,1233.7z"/>
	<path class="st2" d="M2148.1,689c-1.6-9.3-9.1-14.7-18.6-14.7c-12.8,0-21.8,9.8-21.8,27.4c0,17.9,9.1,27.4,21.7,27.4
		c9.3,0,16.8-5.2,18.6-14.3l14.3,0.1c-2.2,14.9-14.5,26.9-33.1,26.9c-20.6,0-35.8-14.9-35.8-40.1c0-25.3,15.4-40.1,35.8-40.1
		c17.3,0,30.7,10.1,33.1,27.4L2148.1,689L2148.1,689z"/>
	<path class="st2" d="M2622.9,689c-1.6-9.3-9.1-14.7-18.6-14.7c-12.8,0-21.8,9.8-21.8,27.4c0,17.9,9.1,27.4,21.7,27.4
		c9.3,0,16.8-5.2,18.6-14.3l14.3,0.1c-2.2,14.9-14.5,26.9-33.1,26.9c-20.6,0-35.8-14.9-35.8-40.1c0-25.3,15.4-40.1,35.8-40.1
		c17.3,0,30.7,10.1,33.1,27.4L2622.9,689L2622.9,689z"/>
	<path class="st2" d="M2622.9,1233.7c-1.6-9.3-9.1-14.7-18.6-14.7c-12.8,0-21.8,9.8-21.8,27.4c0,17.9,9.1,27.4,21.7,27.4
		c9.3,0,16.8-5.2,18.6-14.3l14.3,0.1c-2.2,14.9-14.5,26.9-33.1,26.9c-20.6,0-35.8-14.9-35.8-40.1c0-25.3,15.4-40.1,35.8-40.1
		c17.3,0,30.7,10.1,33.1,27.4L2622.9,1233.7L2622.9,1233.7z"/>
	<rect x="258" y="1117.2" class="st1" width="1331.8" height="108.3"/>
	<rect x="258" y="810.8" class="st1" width="1331.8" height="108.3"/>
	<rect x="1464" y="919" class="st1" width="125.8" height="198.1"/>
	<g>
		<g>
			<path class="st3" d="M697.9,1010.8c-2.6-14.6-14.2-23.1-29.1-23.1c-20,0-34.1,15.4-34.1,43c0,28.1,14.2,43,34.1,43
				c14.6,0,26.4-8.1,29.2-22.4l22.4,0.1c-3.4,23.4-22.7,42.2-51.8,42.2c-32.3,0-56.1-23.4-56.1-62.9c0-39.6,24.1-62.9,56.1-62.9
				c27.1,0,48.1,15.8,51.8,43L697.9,1010.8L697.9,1010.8z"/>
			<path class="st3" d="M727.4,1066.1c0-20.7,17-26,34.8-27.9c16.2-1.7,22.7-2,22.7-8.2v-0.4c0-9-5.5-14.2-15.5-14.2
				c-10.6,0-16.7,5.4-18.8,11.7l-20.2-2.9c4.8-16.7,19.6-25.3,38.9-25.3c17.5,0,37.3,7.3,37.3,31.6v61.4h-20.8v-12.6h-0.7
				c-3.9,7.7-12.6,14.5-27,14.5C740.6,1093.8,727.4,1084.2,727.4,1066.1z M785,1059v-10.8c-2.8,2.3-14.2,3.7-19.8,4.5
				c-9.7,1.4-16.9,4.8-16.9,13.1c0,8,6.5,12.1,15.5,12.1C776.8,1077.9,785,1069.2,785,1059z"/>
			<path class="st3" d="M873.3,1026.5c-1.7-6-6.9-11.5-16.9-11.5c-9,0-15.9,4.3-15.8,10.5c-0.1,5.3,3.6,8.5,13,10.6l15.7,3.3
				c17.3,3.8,25.8,11.8,25.8,24.9c-0.1,17.4-16.3,29.3-39.2,29.3c-22.5,0-36.7-10-39.4-26.8l21.1-2c1.9,8.3,8.3,12.6,18.2,12.6
				c10.3,0,17.1-4.7,17.1-11c0-5.2-3.9-8.6-12.4-10.5l-15.7-3.3c-17.6-3.6-25.9-12.5-25.8-25.9c-0.1-17,15-27.9,37.1-27.9
				c21.5,0,34,9.9,36.9,25.5L873.3,1026.5z"/>
			<path class="st3" d="M904,975.3c0-6.5,5.6-11.8,12.6-11.8c6.9,0,12.5,5.3,12.5,11.8s-5.6,11.7-12.5,11.7
				C909.6,987.1,904,981.8,904,975.3z M905.7,1000.1h21.6v91.8h-21.6V1000.1z"/>
			<path class="st3" d="M964.8,1091.9h-21.6v-91.8h20.7v15.6h1.1c4.2-10.2,13.6-16.8,27.4-16.8c18.9,0,31.5,12.6,31.4,34.6v58.5
				h-21.6v-55.1c0-12.3-6.7-19.6-17.9-19.6c-11.4,0-19.4,7.7-19.4,20.9v53.7H964.8z"/>
			<path class="st3" d="M1034.3,1046.4c0-28.5,17.1-47.5,44-47.5s44,19,44,47.5c0,28.4-17.1,47.3-44,47.3
				C1051.4,1093.7,1034.3,1074.8,1034.3,1046.4z M1100.3,1046.3c0-16.8-7.3-30.2-21.9-30.2c-14.9,0-22.2,13.4-22.2,30.2
				s7.3,30.1,22.2,30.1C1093,1076.4,1100.3,1063.1,1100.3,1046.3z"/>
			<path class="st3" d="M1216.9,1010.8c-2.6-14.6-14.2-23.1-29.1-23.1c-20,0-34.1,15.4-34.1,43c0,28.1,14.2,43,34.1,43
				c14.6,0,26.4-8.1,29.2-22.4l22.4,0.1c-3.4,23.4-22.7,42.2-51.8,42.2c-32.3,0-56.1-23.4-56.1-62.9c0-39.6,24.1-62.9,56.1-62.9
				c27.1,0,48.1,15.8,51.8,43L1216.9,1010.8L1216.9,1010.8z"/>
			<path class="st3" d="M1247.4,1046.4c0-28.5,17.1-47.5,44-47.5s44,19,44,47.5c0,28.4-17.1,47.3-44,47.3
				C1264.5,1093.7,1247.4,1074.8,1247.4,1046.4z M1313.5,1046.3c0-16.8-7.3-30.2-21.9-30.2c-14.9,0-22.2,13.4-22.2,30.2
				s7.3,30.1,22.2,30.1C1306.2,1076.4,1313.5,1063.1,1313.5,1046.3z"/>
			<path class="st3" d="M1344.6,975.3c0-6.5,5.6-11.8,12.6-11.8c6.9,0,12.5,5.3,12.5,11.8s-5.6,11.7-12.5,11.7
				C1350.2,987.1,1344.6,981.8,1344.6,975.3z M1346.2,1000.1h21.6v91.8h-21.6V1000.1z"/>
			<path class="st3" d="M1405.3,1091.9h-21.6v-91.8h20.7v15.6h1.1c4.2-10.2,13.6-16.8,27.4-16.8c18.9,0,31.5,12.6,31.4,34.6v58.5
				h-21.6v-55.1c0-12.3-6.7-19.6-17.9-19.6c-11.4,0-19.4,7.7-19.4,20.9L1405.3,1091.9L1405.3,1091.9z"/>
		</g>
		<g>
			<path class="st3" d="M481.9,919.4c-54.1,0-98.2,44.1-98.2,98.2s44,98.2,98.2,98.2c54.1,0,98.2-44,98.2-98.2
				C580.1,963.4,536.1,919.4,481.9,919.4z M543.4,956.8l5.8-6.1c11.5,11.5,20,26,24.4,42.1l-8.3,2c-3.4,0.8-7.5-1-9.3-4l-13.8-24
				C540.5,963.8,541.1,959.3,543.4,956.8z M481.9,922.6c8.4,0,16.6,1.1,24.3,3.2l-2.4,8.2c-1,3.3-4.6,6-8.1,6H468
				c-3.5,0-7.1-2.7-8.1-6l-2.4-8.2C465.4,923.7,473.5,922.6,481.9,922.6z M414.6,950.6l5.8,6.1c2.4,2.5,2.9,7,1.2,10l-13.8,24
				c-1.7,3-5.9,4.8-9.3,4l-8.3-2C394.6,976.6,403.1,962.2,414.6,950.6z M420.4,1078.4l-5.8,6.1c-11.5-11.5-20-26-24.4-42.1l8.3-2
				c3.4-0.8,7.5,1,9.3,4l13.8,24C423.4,1071.4,422.8,1075.9,420.4,1078.4z M481.9,1112.6c-8.4,0-16.6-1.1-24.3-3.2l2.4-8.2
				c1-3.3,4.6-6,8.1-6h27.7c3.5,0,7.1,2.7,8.1,6l2.4,8.2C498.5,1111.5,490.3,1112.6,481.9,1112.6z M481.9,1088.8
				c-39.3,0-71.2-31.9-71.2-71.2s31.9-71.2,71.2-71.2s71.2,31.9,71.2,71.2S521.2,1088.8,481.9,1088.8z M549.3,1084.5l-5.8-6.1
				c-2.4-2.5-2.9-7-1.2-10l13.9-24c1.7-3,5.9-4.8,9.2-4l8.3,2C569.3,1058.6,560.7,1073,549.3,1084.5z"/>
			<path class="st3" d="M481.9,952.2c-36.1,0-65.3,29.3-65.3,65.3c0,36.1,29.3,65.3,65.3,65.3c36.1,0,65.3-29.3,65.3-65.3
				C547.3,981.5,518,952.2,481.9,952.2z M518.9,1048.3c-0.4,0.8-1.5,1.3-2.4,1.1l-29.6-5.7c-0.9-0.2-1.2,0.3-0.7,1l15.6,22.7
				c0.5,0.7,0.2,1.3-0.7,1.3h-38.5c-0.9,0-1.2-0.6-0.7-1.3l15.6-22.7c0.5-0.7,0.2-1.2-0.7-1l-29.1,5.6c-0.9,0.2-2-0.3-2.4-1.1
				l-11.7-20.2c-0.4-0.8-0.4-2,0.2-2.7l47-58.5c0.6-0.7,1.5-0.7,2,0l46.8,58.4c0.6,0.7,0.7,1.9,0.2,2.7L518.9,1048.3z"/>
		</g>
	</g>
	<g>
		<g>
			<path class="st3" d="M2148.1,1153.3c-1.6-9.3-9.1-14.7-18.6-14.7c-12.8,0-21.8,9.8-21.8,27.4c0,17.9,9.1,27.4,21.7,27.4
				c9.3,0,16.8-5.2,18.6-14.3l14.3,0.1c-2.2,14.9-14.5,26.9-33.1,26.9c-20.6,0-35.8-14.9-35.8-40.1c0-25.3,15.4-40.1,35.8-40.1
				c17.3,0,30.7,10.1,33.1,27.4L2148.1,1153.3L2148.1,1153.3z"/>
			<path class="st3" d="M2166.9,1188.6c0-13.2,10.9-16.6,22.2-17.8c10.3-1.1,14.5-1.3,14.5-5.3v-0.2c0-5.8-3.5-9-9.9-9
				c-6.8,0-10.6,3.4-12,7.4l-12.9-1.8c3.1-10.7,12.5-16.2,24.8-16.2c11.2,0,23.8,4.7,23.8,20.1v39.2h-13.3v-8.1h-0.5
				c-2.5,4.9-8,9.2-17.2,9.2C2175.3,1206.2,2166.9,1200.1,2166.9,1188.6z M2203.7,1184v-6.9c-1.8,1.4-9,2.4-12.7,2.9
				c-6.2,0.9-10.8,3.1-10.8,8.4c0,5.1,4.1,7.7,9.9,7.7C2198.4,1196.1,2203.7,1190.5,2203.7,1184z"/>
			<path class="st3" d="M2260,1163.3c-1.1-3.9-4.4-7.3-10.8-7.3c-5.8,0-10.1,2.7-10.1,6.7c0,3.4,2.3,5.5,8.3,6.8l10,2.1
				c11.1,2.4,16.4,7.5,16.5,15.9c0,11.1-10.4,18.7-25,18.7c-14.4,0-23.4-6.4-25.1-17.1l13.5-1.3c1.2,5.3,5.3,8,11.6,8
				c6.6,0,10.9-3,10.9-7c0-3.3-2.5-5.5-7.9-6.7l-10-2.1c-11.3-2.3-16.5-8-16.5-16.5c0-10.8,9.6-17.8,23.7-17.8
				c13.7,0,21.7,6.3,23.6,16.2L2260,1163.3z"/>
			<path class="st3" d="M2279.6,1130.7c0-4.2,3.6-7.5,8-7.5s8,3.4,8,7.5s-3.6,7.5-8,7.5C2283.2,1138.1,2279.6,1134.8,2279.6,1130.7z
				 M2280.7,1146.4h13.8v58.6h-13.8V1146.4z"/>
			<path class="st3" d="M2318.4,1205h-13.8v-58.6h13.2v10h0.7c2.7-6.5,8.7-10.7,17.5-10.7c12.1,0,20.1,8,20.1,22v37.3h-13.8v-35.2
				c0-7.8-4.3-12.5-11.4-12.5c-7.3,0-12.4,4.9-12.4,13.4v34.3H2318.4z"/>
			<path class="st3" d="M2362.7,1176c0-18.2,10.9-30.3,28.1-30.3c17.2,0,28.1,12.1,28.1,30.3c0,18.1-10.9,30.2-28.1,30.2
				C2373.6,1206.2,2362.7,1194.1,2362.7,1176z M2404.9,1175.9c0-10.7-4.7-19.3-14-19.3c-9.5,0-14.2,8.6-14.2,19.3
				c0,10.7,4.7,19.2,14.2,19.2C2400.2,1195.1,2404.9,1186.6,2404.9,1175.9z"/>
			<path class="st3" d="M2479.3,1153.3c-1.6-9.3-9.1-14.7-18.6-14.7c-12.8,0-21.8,9.8-21.8,27.4c0,17.9,9.1,27.4,21.7,27.4
				c9.3,0,16.8-5.2,18.6-14.3l14.3,0.1c-2.2,14.9-14.5,26.9-33.1,26.9c-20.6,0-35.8-14.9-35.8-40.1c0-25.3,15.4-40.1,35.8-40.1
				c17.3,0,30.7,10.1,33.1,27.4L2479.3,1153.3L2479.3,1153.3z"/>
			<path class="st3" d="M2498.8,1176c0-18.2,10.9-30.3,28.1-30.3c17.2,0,28.1,12.1,28.1,30.3c0,18.1-10.9,30.2-28.1,30.2
				S2498.8,1194.1,2498.8,1176z M2540.9,1175.9c0-10.7-4.7-19.3-14-19.3c-9.5,0-14.2,8.6-14.2,19.3c0,10.7,4.7,19.2,14.2,19.2
				C2536.3,1195.1,2540.9,1186.6,2540.9,1175.9z"/>
			<path class="st3" d="M2560.8,1130.7c0-4.2,3.6-7.5,8-7.5s8,3.4,8,7.5s-3.6,7.5-8,7.5C2564.3,1138.1,2560.8,1134.8,2560.8,1130.7z
				 M2561.8,1146.4h13.8v58.6h-13.8V1146.4z"/>
			<path class="st3" d="M2599.5,1205h-13.8v-58.6h13.2v10h0.7c2.7-6.5,8.7-10.7,17.5-10.7c12.1,0,20.1,8,20.1,22v37.3h-13.8v-35.2
				c0-7.8-4.3-12.5-11.4-12.5c-7.3,0-12.4,4.9-12.4,13.4v34.3H2599.5z"/>
		</g>
		<g>
			<path class="st3" d="M2362,742.7c-86.4,0-156.7,70.3-156.7,156.7s70.3,156.7,156.7,156.7s156.7-70.3,156.7-156.7
				S2448.4,742.7,2362,742.7z M2460.2,802.3l9.3-9.8c18.3,18.4,31.9,41.4,38.9,67.2l-13.2,3.2c-5.4,1.3-12-1.6-14.8-6.3l-22.1-38.3
				C2455.5,813.5,2456.4,806.3,2460.2,802.3z M2362,747.8c13.4,0,26.4,1.8,38.8,5l-3.8,13.1c-1.6,5.3-7.3,9.6-12.9,9.6h-44.2
				c-5.5,0-11.3-4.3-12.9-9.6l-3.8-13.1C2335.6,749.5,2348.6,747.8,2362,747.8z M2254.6,792.5l9.3,9.8c3.8,4,4.7,11.2,1.9,16
				l-22.1,38.3c-2.8,4.8-9.4,7.6-14.8,6.3l-13.2-3.2C2222.7,834,2236.3,810.9,2254.6,792.5z M2263.9,996.4l-9.3,9.8
				c-18.3-18.4-31.9-41.4-38.9-67.2l13.2-3.2c5.4-1.3,12,1.6,14.8,6.3l22.1,38.3C2268.5,985.2,2267.7,992.4,2263.9,996.4z
				 M2362,1050.9c-13.4,0-26.4-1.8-38.8-5l3.8-13.1c1.6-5.3,7.3-9.6,12.9-9.6h44.2c5.5,0,11.3,4.3,12.9,9.6l3.8,13.1
				C2388.4,1049.2,2375.4,1050.9,2362,1050.9z M2362,1013c-62.7,0-113.6-50.9-113.6-113.6s50.9-113.6,113.6-113.6
				c62.7,0,113.6,50.9,113.6,113.6S2424.7,1013,2362,1013z M2469.5,1006.2l-9.3-9.8c-3.8-4-4.7-11.2-1.9-16l22.1-38.3
				c2.8-4.8,9.4-7.6,14.8-6.3l13.2,3.2C2501.4,964.8,2487.7,987.8,2469.5,1006.2z"/>
			<path class="st3" d="M2362,795.1c-57.6,0-104.3,46.7-104.3,104.3s46.7,104.3,104.3,104.3s104.3-46.7,104.3-104.3
				S2419.6,795.1,2362,795.1z M2421,948.4c-0.7,1.2-2.4,2-3.8,1.8l-47.3-9.2c-1.4-0.3-1.9,0.4-1.1,1.6l24.9,36.3
				c0.8,1.2,0.3,2.1-1.1,2.1h-61.4c-1.4,0-1.9-0.9-1.1-2.1l24.9-36.3c0.8-1.2,0.3-1.9-1.1-1.6l-46.4,9c-1.4,0.3-3.1-0.5-3.8-1.7
				l-18.7-32.2c-0.7-1.2-0.6-3.1,0.3-4.2l74.9-93.4c0.9-1.1,2.3-1.1,3.2,0l74.7,93.1c0.9,1.1,1.1,3,0.4,4.3L2421,948.4z"/>
		</g>
	</g>
	<line class="st4" x1="1748.4" y1="354.4" x2="1748.4" y2="1645.6"/>
	<line class="st5" x1="2486" y1="661.9" x2="1982.1" y2="1286.9"/>
	<line class="st5" x1="2238.3" y1="662.6" x2="2740.4" y2="1286.2"/>
	<g class="st6">
		<path class="st7" d="M760.7,1590.2h2.8v13.8h17.1v-13.8h2.8v30.2h-2.8v-13.9h-17.1v13.9h-2.8V1590.2z"/>
		<path class="st7" d="M789,1609.2c0-6.9,4.1-11.7,10-11.7s10,4.8,10,11.7c0,6.9-4.1,11.7-10,11.7S789,1616.1,789,1609.2z
			 M806.3,1609.2c0-5.1-2.6-9.3-7.3-9.3s-7.3,4.3-7.3,9.3c0,5.1,2.6,9.3,7.3,9.3S806.3,1614.3,806.3,1609.2z"/>
		<path class="st7" d="M814,1597.8h2.5v3.5h0.2c0.9-2.3,3.3-3.8,6.2-3.8c0.4,0,1,0,1.4,0v2.7c-0.2,0-0.9-0.1-1.6-0.1
			c-3.5,0-6.1,2.4-6.1,5.8v14.6H814V1597.8z"/>
		<path class="st7" d="M827.6,1592c0-1,0.9-1.9,2-1.9s2,0.9,2,1.9s-0.9,1.9-2,1.9S827.6,1593,827.6,1592z M828.3,1597.8h2.6v22.6
			h-2.6V1597.8z"/>
		<path class="st7" d="M835.7,1618.3l13.1-17.9v-0.2h-12.5v-2.5h15.9v2.2l-12.9,17.8v0.2h13.3v2.5h-16.9L835.7,1618.3L835.7,1618.3z
			"/>
		<path class="st7" d="M855.2,1609.2c0-6.9,4.1-11.7,10-11.7s10,4.8,10,11.7c0,6.9-4.1,11.7-10,11.7S855.2,1616.1,855.2,1609.2z
			 M872.5,1609.2c0-5.1-2.6-9.3-7.3-9.3s-7.3,4.3-7.3,9.3c0,5.1,2.6,9.3,7.3,9.3S872.5,1614.3,872.5,1609.2z"/>
		<path class="st7" d="M882.9,1620.4h-2.6v-22.6h2.5v3.6h0.2c1.1-2.3,3.3-3.8,6.7-3.8c4.6,0,7.7,2.9,7.7,8.3v14.7h-2.6v-14.5
			c0-3.7-2.2-6-5.7-6c-3.6,0-6.2,2.4-6.2,6.4L882.9,1620.4L882.9,1620.4z"/>
		<path class="st7" d="M911.6,1600h-4.8v14.4c0,2.8,1.6,3.7,3.4,3.7c0.7,0,1.2-0.1,1.5-0.2l0.6,2.4c-0.5,0.2-1.2,0.4-2.3,0.4
			c-2.9,0-5.8-1.9-5.8-5.6V1600h-3.4v-2.3h3.4v-5.4h2.6v5.4h4.8V1600z"/>
		<path class="st7" d="M915.4,1614.1c0-4.5,3.6-5.9,8.7-6.5c3.8-0.5,5.9-0.5,5.9-2.2v-0.5c0-3.1-1.9-5-5.3-5c-3.3,0-5.3,1.7-6.1,3.6
			l-2.5-0.9c1.5-3.7,5.1-5.1,8.6-5.1s8,1.5,8,7.6v15.4h-2.6v-3.6h-0.2c-0.9,2-3.2,4.1-7,4.1C918.8,1620.9,915.4,1618.4,915.4,1614.1
			z M930.1,1611.7v-3.3c-0.8,0.8-4.1,1.2-5.9,1.4c-3.8,0.5-6.1,1.6-6.1,4.4c0,2.7,2.2,4.3,5.2,4.3
			C927.4,1618.5,930.1,1615.4,930.1,1611.7z"/>
		<path class="st7" d="M941.5,1620.4h-2.6v-30.2h2.6V1620.4z"/>
		<path class="st7" d="M968.9,1620.4h-2.8l-8.3-22.6h2.8l6.7,19.2h0.2l6.7-19.2h2.8L968.9,1620.4z"/>
		<path class="st7" d="M979.4,1609.2c0-6.9,4.1-11.8,9.9-11.8c4.9,0,9.6,3.6,9.6,11.1v1.3H982c0.1,5.2,3.1,8.6,7.7,8.6
			c3.2,0,5.3-1.7,6.1-3.7l2.5,0.8c-1,2.8-4.1,5.3-8.6,5.3C983.3,1620.9,979.4,1616.1,979.4,1609.2z M996.2,1607.5
			c0-4.4-2.8-7.7-6.9-7.7c-4.1,0-7,3.5-7.3,7.7H996.2z"/>
		<path class="st7" d="M1003.9,1597.8h2.5v3.5h0.2c0.9-2.3,3.3-3.8,6.2-3.8c0.4,0,1,0,1.4,0v2.7c-0.2,0-0.9-0.1-1.6-0.1
			c-3.5,0-6.1,2.4-6.1,5.8v14.6h-2.6L1003.9,1597.8L1003.9,1597.8z"/>
		<path class="st7" d="M1030.6,1603.4c-0.7-2-2.2-3.6-5.3-3.6c-3.1,0-5.2,1.6-5.2,3.9c0,2,1.3,3.1,4.1,3.8l3.4,0.8
			c3.8,0.9,5.7,2.9,5.7,6c0,3.8-3.4,6.6-8.4,6.6c-4.4,0-7.4-2-8.2-5.8l2.5-0.6c0.6,2.7,2.6,4.1,5.7,4.1c3.5,0,5.7-1.8,5.7-4.1
			c0-1.8-1.2-3.1-3.7-3.7l-3.7-0.9c-3.9-0.9-5.8-3-5.8-6c0-3.7,3.3-6.3,7.9-6.3c4.1,0,6.6,2,7.7,5.3L1030.6,1603.4z"/>
		<path class="st7" d="M1037.7,1592c0-1,0.9-1.9,2-1.9s2,0.9,2,1.9s-0.9,1.9-2,1.9S1037.7,1593,1037.7,1592z M1038.3,1597.8h2.6
			v22.6h-2.6V1597.8z"/>
		<path class="st7" d="M1046,1609.2c0-6.9,4.1-11.7,10-11.7s10,4.8,10,11.7c0,6.9-4.1,11.7-10,11.7
			C1050.1,1620.9,1046,1616.1,1046,1609.2z M1063.3,1609.2c0-5.1-2.6-9.3-7.3-9.3c-4.7,0-7.3,4.3-7.3,9.3c0,5.1,2.6,9.3,7.3,9.3
			C1060.7,1618.5,1063.3,1614.3,1063.3,1609.2z"/>
		<path class="st7" d="M1073.6,1620.4h-2.6v-22.6h2.5v3.6h0.2c1.1-2.3,3.3-3.8,6.7-3.8c4.6,0,7.7,2.9,7.7,8.3v14.7h-2.6v-14.5
			c0-3.7-2.2-6-5.7-6c-3.6,0-6.2,2.4-6.2,6.4V1620.4z"/>
	</g>
	<g class="st6">
		<path class="st7" d="M2235.5,1616.8h0.3l9.4-26.6h2.9l-11,30.2h-2.9l-11-30.2h2.9L2235.5,1616.8z"/>
		<path class="st7" d="M2248.8,1609.2c0-6.9,4.1-11.8,9.9-11.8c4.9,0,9.6,3.6,9.6,11.1v1.3h-16.9c0.1,5.2,3.1,8.6,7.7,8.6
			c3.2,0,5.3-1.7,6.1-3.7l2.5,0.8c-1,2.8-4.1,5.3-8.6,5.3C2252.7,1620.9,2248.8,1616.1,2248.8,1609.2z M2265.6,1607.5
			c0-4.4-2.8-7.7-6.9-7.7c-4.1,0-7,3.5-7.3,7.7H2265.6z"/>
		<path class="st7" d="M2273.3,1597.8h2.5v3.5h0.2c0.9-2.3,3.3-3.8,6.2-3.8c0.4,0,1,0,1.4,0v2.7c-0.2,0-0.9-0.1-1.6-0.1
			c-3.5,0-6.1,2.4-6.1,5.8v14.6h-2.6L2273.3,1597.8L2273.3,1597.8z"/>
		<path class="st7" d="M2297.4,1600h-4.8v14.4c0,2.8,1.6,3.7,3.4,3.7c0.7,0,1.2-0.1,1.5-0.2l0.6,2.4c-0.5,0.2-1.2,0.4-2.3,0.4
			c-2.9,0-5.8-1.9-5.8-5.6V1600h-3.4v-2.3h3.4v-5.4h2.6v5.4h4.8V1600z"/>
		<path class="st7" d="M2301.8,1592c0-1,0.9-1.9,2-1.9s2,0.9,2,1.9s-0.9,1.9-2,1.9S2301.8,1593,2301.8,1592z M2302.4,1597.8h2.6
			v22.6h-2.6V1597.8z"/>
		<path class="st7" d="M2310.1,1609.2c0-6.8,4-11.7,10-11.7c4.5,0,8,2.8,8.7,7h-2.7c-0.6-2.6-2.7-4.6-6-4.6c-4.3,0-7.4,3.8-7.4,9.3
			s2.9,9.4,7.4,9.4c3,0,5.4-1.8,6-4.7h2.7c-0.6,4.1-3.9,7.1-8.6,7.1C2314.1,1620.9,2310.1,1615.9,2310.1,1609.2z"/>
		<path class="st7" d="M2332.7,1614.1c0-4.5,3.6-5.9,8.7-6.5c3.8-0.5,5.9-0.5,5.9-2.2v-0.5c0-3.1-1.9-5-5.3-5
			c-3.3,0-5.3,1.7-6.1,3.6l-2.5-0.9c1.5-3.7,5.1-5.1,8.6-5.1s8,1.5,8,7.6v15.4h-2.6v-3.6h-0.2c-0.9,2-3.2,4.1-7,4.1
			C2336,1620.9,2332.7,1618.4,2332.7,1614.1z M2347.3,1611.7v-3.3c-0.8,0.8-4.1,1.2-5.9,1.4c-3.8,0.5-6.1,1.6-6.1,4.4
			c0,2.7,2.2,4.3,5.2,4.3C2344.7,1618.5,2347.3,1615.4,2347.3,1611.7z"/>
		<path class="st7" d="M2358.7,1620.4h-2.6v-30.2h2.6V1620.4z"/>
		<path class="st7" d="M2386.2,1620.4h-2.8l-8.3-22.6h2.8l6.7,19.2h0.2l6.7-19.2h2.8L2386.2,1620.4z"/>
		<path class="st7" d="M2396.6,1609.2c0-6.9,4.1-11.8,9.9-11.8c4.9,0,9.6,3.6,9.6,11.1v1.3h-16.9c0.1,5.2,3.1,8.6,7.7,8.6
			c3.2,0,5.3-1.7,6.1-3.7l2.5,0.8c-1,2.8-4.1,5.3-8.6,5.3C2400.6,1620.9,2396.6,1616.1,2396.6,1609.2z M2413.4,1607.5
			c0-4.4-2.8-7.7-6.9-7.7c-4.1,0-7,3.5-7.3,7.7H2413.4z"/>
		<path class="st7" d="M2421.1,1597.8h2.5v3.5h0.2c0.9-2.3,3.3-3.8,6.2-3.8c0.4,0,1,0,1.4,0v2.7c-0.2,0-0.9-0.1-1.6-0.1
			c-3.5,0-6.1,2.4-6.1,5.8v14.6h-2.6L2421.1,1597.8L2421.1,1597.8z"/>
		<path class="st7" d="M2447.9,1603.4c-0.7-2-2.2-3.6-5.3-3.6s-5.2,1.6-5.2,3.9c0,2,1.3,3.1,4.1,3.8l3.4,0.8c3.8,0.9,5.7,2.9,5.7,6
			c0,3.8-3.4,6.6-8.4,6.6c-4.4,0-7.4-2-8.2-5.8l2.5-0.6c0.6,2.7,2.6,4.1,5.7,4.1c3.5,0,5.7-1.8,5.7-4.1c0-1.8-1.2-3.1-3.7-3.7
			l-3.7-0.9c-3.9-0.9-5.8-3-5.8-6c0-3.7,3.3-6.3,7.9-6.3c4.1,0,6.6,2,7.7,5.3L2447.9,1603.4z"/>
		<path class="st7" d="M2454.9,1592c0-1,0.9-1.9,2-1.9s2,0.9,2,1.9s-0.9,1.9-2,1.9S2454.9,1593,2454.9,1592z M2455.6,1597.8h2.6
			v22.6h-2.6V1597.8z"/>
		<path class="st7" d="M2463.2,1609.2c0-6.9,4.1-11.7,10-11.7s10,4.8,10,11.7c0,6.9-4.1,11.7-10,11.7S2463.2,1616.1,2463.2,1609.2z
			 M2480.5,1609.2c0-5.1-2.6-9.3-7.3-9.3s-7.3,4.3-7.3,9.3c0,5.1,2.6,9.3,7.3,9.3S2480.5,1614.3,2480.5,1609.2z"/>
		<path class="st7" d="M2490.9,1620.4h-2.6v-22.6h2.5v3.6h0.2c1.1-2.3,3.3-3.8,6.7-3.8c4.6,0,7.7,2.9,7.7,8.3v14.7h-2.6v-14.5
			c0-3.7-2.2-6-5.7-6c-3.6,0-6.2,2.4-6.2,6.4L2490.9,1620.4L2490.9,1620.4z"/>
	</g>
	<line class="st5" x1="2093.3" y1="661.5" x2="2093.3" y2="1286.5"/>
	<line class="st5" x1="1464.2" y1="811" x2="1464.2" y2="1225.5"/>
	<line class="st5" x1="384.2" y1="811" x2="384.2" y2="1225.5"/>
	<line class="st5" x1="2637.2" y1="662" x2="2637.2" y2="1287"/>
	<line class="st5" x1="2743.2" y1="741.5" x2="1982.7" y2="741.5"/>
	<line class="st5" x1="2743.2" y1="1205.5" x2="1982.7" y2="1205.5"/>
	<line class="st5" x1="1590.2" y1="1117.2" x2="256.7" y2="1117.2"/>
	<line class="st5" x1="1590.2" y1="918.2" x2="256.7" y2="918.2"/>
	<g>
		<path class="st2" d="M1507,1139.8c-14.6,2.6-23.1,14.2-23.1,29.1c0,20,15.4,34.1,43,34.1c28.1,0,43-14.2,43-34.1
			c0-14.6-8.1-26.4-22.4-29.2l0.1-22.4c23.4,3.4,42.2,22.7,42.2,51.8c0,32.3-23.4,56.1-62.9,56.1c-39.6,0-62.9-24.1-62.9-56.1
			c0-27.1,15.8-48.1,43-51.8L1507,1139.8L1507,1139.8z"/>
		<path class="st2" d="M1507,833.4c-14.6,2.6-23.1,14.2-23.1,29.1c0,20,15.4,34.1,43,34.1c28.1,0,43-14.2,43-34.1
			c0-14.6-8.1-26.4-22.4-29.2l0.1-22.4c23.4,3.4,42.2,22.7,42.2,51.8c0,32.3-23.4,56.1-62.9,56.1c-39.6,0-62.9-24.1-62.9-56.1
			c0-27.1,15.8-48.1,43-51.8L1507,833.4L1507,833.4z"/>
		<path class="st2" d="M301.1,1139.3c-14.6,2.6-23.1,14.2-23.1,29.1c0,20,15.4,34.1,43,34.1c28.1,0,43-14.2,43-34.1
			c0-14.6-8.1-26.4-22.4-29.2l0.1-22.4c23.4,3.4,42.2,22.7,42.2,51.8c0,32.3-23.4,56.1-62.9,56.1c-39.6,0-62.9-24.1-62.9-56.1
			c0-27.1,15.8-48.1,43-51.8L301.1,1139.3L301.1,1139.3z"/>
		<path class="st2" d="M301.1,832.9c-14.6,2.6-23.1,14.2-23.1,29.1c0,20,15.4,34.1,43,34.1c28.1,0,43-14.2,43-34.1
			c0-14.6-8.1-26.4-22.4-29.2l0.1-22.4c23.4,3.4,42.2,22.7,42.2,51.8c0,32.3-23.4,56.1-62.9,56.1c-39.6,0-62.9-24.1-62.9-56.1
			c0-27.1,15.8-48.1,43-51.8L301.1,832.9L301.1,832.9z"/>
	</g>
</g>
</svg>
