<?xml version="1.0" encoding="utf-8"?>
<!-- Generator: Adobe Illustrator 22.0.0, SVG Export Plug-In . SVG Version: 6.00 Build 0)  -->
<svg version="1.1" id="Layer_1" xmlns="http://www.w3.org/2000/svg" xmlns:xlink="http://www.w3.org/1999/xlink" x="0px" y="0px"
	 viewBox="0 0 3000 2122.6" style="enable-background:new 0 0 3000 2122.6;" xml:space="preserve">
<style type="text/css">
	.st0{fill:#ECEDED;}
	.st1{fill:#8F8E8C;}
	.st2{fill:#FFFFFF;}
	.st3{fill:#105434;}
	.st4{fill:#0C4329;}
	.st5{fill:#082919;}
	.st6{fill:#C39C63;}
	.st7{fill:#9C7C4F;}
	.st8{fill:#755D3B;}
	.st9{fill:#080808;}
	.st10{fill:#393736;}
</style>
<g>
	<rect class="st0" width="3000" height="2122.6"/>
	<g>
		<rect x="1611.2" class="st0" width="620.7" height="1060.9"/>
	</g>
	<g>
		<rect x="1611.2" y="1060.9" class="st1" width="620.7" height="679.6"/>
	</g>
	<g>
		<rect x="2230.2" class="st2" width="769.8" height="1060.9"/>
	</g>
	<g>
		<rect class="st3" width="807.3" height="1354.8"/>
	</g>
	<g>
		<rect y="1352.6" class="st4" width="807.3" height="386.7"/>
	</g>
	<g>
		<rect y="1735.9" class="st5" width="807.3" height="386.7"/>
	</g>
	<g>
		<rect x="807.4" class="st6" width="807.3" height="1354.8"/>
	</g>
	<g>
		<rect x="807.4" y="1352.6" class="st7" width="807.3" height="386.7"/>
	</g>
	<g>
		<rect x="807.4" y="1735.9" class="st8" width="807.3" height="386.7"/>
	</g>
	<g>
		<path class="st9" d="M1782.5,443.6h5.5v12.8h14v-12.8h5.5v30.2h-5.5V461h-14v12.8h-5.5V443.6z"/>
		<path class="st9" d="M1813.2,443.6h19.6v4.6h-14.2v8.2h13.1v4.6h-13.1v8.2h14.3v4.6h-19.8V443.6z"/>
		<path class="st9" d="M1849.4,454.7h0.2l6.7-11.1h6.2l-9.3,15.1l9.4,15.1h-6.3l-6.7-11h-0.2l-6.7,11h-6.3l9.5-15.1l-9.4-15.1h6.3
			L1849.4,454.7z"/>
		<path class="st9" d="M1891.4,465.1h-8.3l-1.4,8.7h-2.3l1.4-8.7h-4.8l0.4-2.3h4.8l1.4-8.2h-4.8l0.4-2.3h4.8l1.4-8.7h2.3l-1.4,8.7
			h8.3l1.4-8.7h2.3l-1.4,8.7h4.8l-0.4,2.3h-4.8l-1.4,8.2h4.8l-0.4,2.3h-4.8l-1.4,8.7h-2.3L1891.4,465.1z M1891.7,462.9l1.4-8.2h-8.3
			l-1.4,8.2H1891.7z"/>
		<path class="st9" d="M1905.2,443.6h17.5v2.5h-14.8v11.4h13.8v2.5h-13.8v11.4h15.1v2.5h-17.8V443.6z"/>
		<path class="st9" d="M1950.5,453.1c-0.8-4.1-4.5-7.3-9.2-7.3c-5.7,0-10.4,4.6-10.4,12.9c0,8.4,4.7,12.9,10.4,12.9
			c4.7,0,8.3-3.1,9.2-7.3h2.8c-1,5.5-5.5,9.8-12,9.8c-7.6,0-13-6.1-13-15.5c0-9.4,5.4-15.5,13-15.5c6.4,0,11,4.3,12,9.8H1950.5z"/>
		<path class="st9" d="M1959.5,443.6h17.5v2.5h-14.8v11.4h13.8v2.5h-13.8v11.4h15.1v2.5h-17.8V443.6z"/>
		<path class="st9" d="M1983.9,473.8v-30.2h9.4c8.6,0,13.7,5.6,13.7,15c0,9.5-5.2,15.2-14.3,15.2H1983.9z M1992.6,471.4
			c7.8,0,11.8-4.8,11.8-12.7c0-7.8-3.9-12.5-11.2-12.5h-6.5v25.2H1992.6z"/>
		<path class="st9" d="M2013.5,443.6h17.5v2.5h-14.8v11.4h13.8v2.5h-13.8v11.4h15.1v2.5h-17.8V443.6z"/>
		<path class="st9" d="M2037.9,473.8v-30.2h9.4c8.6,0,13.7,5.6,13.7,15c0,9.5-5.2,15.2-14.3,15.2H2037.9z M2046.6,471.4
			c7.8,0,11.8-4.8,11.8-12.7c0-7.8-3.9-12.5-11.2-12.5h-6.5v25.2H2046.6z"/>
		<path class="st9" d="M1744.7,511.6h11.3c6.9,0,10.6,3.9,10.6,9.7c0,4.1-1.9,7.1-5.4,8.6l6.5,12h-6.1l-5.9-11.1h-5.6v11.1h-5.5
			V511.6z M1755.3,526.2c4.1,0,5.9-1.7,5.9-4.9s-1.8-5.1-5.9-5.1h-5v10H1755.3z"/>
		<path class="st9" d="M1784.7,516.1c-4.9,0-8.4,3.8-8.4,10.6c0,6.8,3.5,10.6,8.5,10.6c4.5,0,7.4-2.7,7.5-7h-7V526h12.2v3.6
			c0,7.8-5.4,12.6-12.8,12.6c-8.3,0-14-5.9-14-15.5c0-9.7,5.9-15.5,13.8-15.5c6.7,0,11.8,4.1,12.7,10.1h-5.6
			C1790.8,518,1788.3,516.1,1784.7,516.1z"/>
		<path class="st9" d="M1802.7,511.6h11.6c6.5,0,9.8,3.3,9.8,7.8c0,3.7-2.3,5.7-5.3,6.4v0.3c3.2,0.2,6.5,2.8,6.5,7.4
			c0,4.7-3.4,8.2-10.3,8.2h-12.2V511.6z M1813.5,524.4c2.8,0,5-1.7,5-4.3c0-2.3-1.7-4-4.9-4h-5.5v8.3H1813.5z M1814,537.2
			c4,0,5.6-1.7,5.6-4.1c0-2.7-2.1-4.8-5.5-4.8h-6v8.8H1814z"/>
		<path class="st9" d="M1841.6,539.7l9.9-11.1c3.8-4.3,5.4-6.5,5.4-9.3c0-3.4-2.7-5.7-6.2-5.7c-3.7,0-6.2,2.6-6.2,6.2h-2.6
			c0-5,3.8-8.6,8.9-8.6c5.1,0,8.7,3.6,8.7,8.2c0,3.3-1.5,5.9-6.5,11.4l-7.5,8.4v0.2h14.9v2.5h-18.8V539.7z"/>
		<path class="st9" d="M1866.7,534.2h2.8c0.1,3.3,3.2,5.5,7,5.5c4.2,0,7.1-2.5,7.1-6c0-3.7-2.9-6.2-7.7-6.2h-1.8V525h1.8
			c3.9,0,6.7-2.3,6.7-5.8c0-3.3-2.4-5.6-6-5.6c-3.5,0-6.4,2.2-6.5,5.5h-2.7c0.1-4.7,4.2-8,9.2-8c5.3,0,8.7,3.6,8.7,8
			c0,3.4-2,6-5.2,7v0.2c3.8,0.8,6.2,3.6,6.2,7.4c0,4.8-4.1,8.5-9.8,8.5C1870.9,542.2,1866.9,538.9,1866.7,534.2z"/>
		<path class="st9" d="M1892.2,527.9c0-9.8,3.4-16.8,10.4-16.8c4.9,0,8.2,3.3,8.8,8h-2.7c-0.6-3.2-2.7-5.5-6.1-5.5
			c-5,0-7.8,4.8-7.8,13.2h0.2c1.4-2.7,4.3-4.4,7.5-4.4c5,0,9.2,4.2,9.2,9.8c0,5.4-3.8,9.9-9.6,9.9
			C1897.1,542.1,1892.2,538.5,1892.2,527.9z M1909,532.3c0-4.1-3-7.4-6.9-7.4c-4,0-7.2,3.6-6.9,7.5c0.3,4.2,3.1,7.3,6.9,7.3
			C1906.1,539.7,1909,536.4,1909,532.3z"/>
		<path class="st9" d="M1920.5,539.2c-0.5,3.2-1.8,7.8-2.5,9.9h-2c0.4-2,1.2-5.9,1.7-9.8l0.2-1.7h2.9L1920.5,539.2z"/>
		<path class="st9" d="M1938.9,539.7l9.9-11.1c3.8-4.3,5.4-6.5,5.4-9.3c0-3.4-2.7-5.7-6.2-5.7c-3.7,0-6.2,2.6-6.2,6.2h-2.6
			c0-5,3.8-8.6,8.9-8.6c5.1,0,8.7,3.6,8.7,8.2c0,3.3-1.5,5.9-6.5,11.4l-7.5,8.4v0.2h14.9v2.5h-18.8V539.7z"/>
		<path class="st9" d="M1964,534.2h2.8c0.1,3.3,3.2,5.5,7,5.5c4.2,0,7.1-2.5,7.1-6c0-3.7-2.9-6.2-7.7-6.2h-1.8V525h1.8
			c3.9,0,6.7-2.3,6.7-5.8c0-3.3-2.4-5.6-6-5.6c-3.5,0-6.4,2.2-6.5,5.5h-2.7c0.1-4.7,4.2-8,9.2-8c5.3,0,8.7,3.6,8.7,8
			c0,3.4-2,6-5.2,7v0.2c3.8,0.8,6.2,3.6,6.2,7.4c0,4.8-4.1,8.5-9.8,8.5C1968.2,542.2,1964.1,538.9,1964,534.2z"/>
		<path class="st9" d="M2004.5,514.2V514h-15.8v-2.5h18.7v2.6l-13.7,27.6h-2.9L2004.5,514.2z"/>
		<path class="st9" d="M2012.1,539.2c-0.5,3.2-1.8,7.8-2.5,9.9h-2c0.4-2,1.2-5.9,1.7-9.8l0.2-1.7h2.9L2012.1,539.2z"/>
		<path class="st9" d="M2030.4,539.7l9.9-11.1c3.8-4.3,5.4-6.5,5.4-9.3c0-3.4-2.7-5.7-6.2-5.7c-3.7,0-6.2,2.6-6.2,6.2h-2.6
			c0-5,3.8-8.6,8.9-8.6c5.1,0,8.7,3.6,8.7,8.2c0,3.3-1.5,5.9-6.5,11.4l-7.5,8.4v0.2h14.9v2.5h-18.8V539.7z"/>
		<path class="st9" d="M2055.5,534.2h2.8c0.1,3.3,3.2,5.5,7,5.5c4.2,0,7.1-2.5,7.1-6c0-3.7-2.9-6.2-7.7-6.2h-1.8V525h1.8
			c3.9,0,6.7-2.3,6.7-5.8c0-3.3-2.4-5.6-6-5.6c-3.5,0-6.4,2.2-6.5,5.5h-2.7c0.1-4.7,4.2-8,9.2-8c5.3,0,8.7,3.6,8.7,8
			c0,3.4-2,6-5.2,7v0.2c3.8,0.8,6.2,3.6,6.2,7.4c0,4.8-4.1,8.5-9.8,8.5C2059.8,542.2,2055.7,538.9,2055.5,534.2z"/>
		<path class="st9" d="M2096.1,514.2V514h-15.8v-2.5h18.7v2.6l-13.7,27.6h-2.9L2096.1,514.2z"/>
		<path class="st9" d="M1795.2,589.7c-0.6-3.6-3.5-5.7-7.2-5.7c-4.9,0-8.4,3.8-8.4,10.6c0,6.9,3.5,10.6,8.4,10.6
			c3.6,0,6.5-2,7.2-5.5l5.5,0c-0.8,5.8-5.6,10.4-12.8,10.4c-8,0-13.8-5.8-13.8-15.5c0-9.8,5.9-15.5,13.8-15.5
			c6.7,0,11.9,3.9,12.8,10.6H1795.2z"/>
		<path class="st9" d="M1812.2,579.5l9,21.9h0.4l9-21.9h6.7v30.2h-5.2v-20.7h-0.3l-8.3,20.7h-3.9l-8.3-20.7h-0.3v20.8h-5.2v-30.2
			H1812.2z"/>
		<path class="st9" d="M1847,579.5l7.4,13.4h0.3l7.4-13.4h6.2l-11,18.9v11.3h-5.5v-11.3l-11-18.9H1847z"/>
		<path class="st9" d="M1871.9,579.5h5.5v13.9h0.4l11.8-13.9h6.7l-11.7,13.5l11.8,16.6h-6.6l-9-12.9l-3.3,4v9h-5.5V579.5z"/>
		<path class="st9" d="M1911,594.6c0-9.7,3.8-15.5,10.1-15.5s10.1,5.8,10.1,15.5c0,9.8-3.7,15.5-10.1,15.5S1911,604.4,1911,594.6z
			 M1928.5,594.6c0-8.3-2.8-13.1-7.4-13.1s-7.4,4.8-7.4,13.1c0,8.3,2.8,13,7.4,13S1928.5,602.9,1928.5,594.6z"/>
		<path class="st9" d="M1939.9,607.1c-0.5,3.2-1.8,7.8-2.5,9.9h-2c0.4-2,1.2-5.9,1.7-9.8l0.2-1.7h2.9L1939.9,607.1z"/>
		<path class="st9" d="M1957.5,594.6c0-9.7,3.8-15.5,10.1-15.5s10.1,5.8,10.1,15.5c0,9.8-3.7,15.5-10.1,15.5
			S1957.5,604.4,1957.5,594.6z M1975,594.6c0-8.3-2.8-13.1-7.4-13.1s-7.4,4.8-7.4,13.1c0,8.3,2.8,13,7.4,13S1975,602.9,1975,594.6z"
			/>
		<path class="st9" d="M1986.5,607.1c-0.5,3.2-1.8,7.8-2.5,9.9h-2c0.4-2,1.2-5.9,1.7-9.8l0.2-1.7h2.9L1986.5,607.1z"/>
		<path class="st9" d="M2004.1,594.6c0-9.7,3.8-15.5,10.1-15.5s10.1,5.8,10.1,15.5c0,9.8-3.7,15.5-10.1,15.5
			S2004.1,604.4,2004.1,594.6z M2021.6,594.6c0-8.3-2.8-13.1-7.4-13.1s-7.4,4.8-7.4,13.1c0,8.3,2.8,13,7.4,13
			S2021.6,602.9,2021.6,594.6z"/>
		<path class="st9" d="M2033,607.1c-0.5,3.2-1.8,7.8-2.5,9.9h-2c0.4-2,1.2-5.9,1.7-9.8l0.2-1.7h2.9L2033,607.1z"/>
		<path class="st9" d="M2066,582.2V582h-15.8v-2.5h18.7v2.6l-13.7,27.6h-2.9L2066,582.2z"/>
	</g>
	<g>
		<g>
			<path class="st2" d="M1786.7,1313.9h5.5v12.8h14v-12.8h5.5v30.2h-5.5v-12.8h-14v12.8h-5.5V1313.9z"/>
			<path class="st2" d="M1817.3,1313.9h19.6v4.6h-14.2v8.2h13.1v4.6h-13.1v8.2h14.3v4.6h-19.8V1313.9z"/>
			<path class="st2" d="M1853.6,1325h0.2l6.7-11.1h6.2l-9.3,15.1l9.4,15.1h-6.3l-6.7-11h-0.2l-6.7,11h-6.3l9.5-15.1l-9.4-15.1h6.3
				L1853.6,1325z"/>
			<path class="st2" d="M1895.5,1335.4h-8.3l-1.4,8.7h-2.3l1.4-8.7h-4.8l0.4-2.3h4.8l1.4-8.2h-4.8l0.4-2.3h4.8l1.4-8.7h2.3l-1.4,8.7
				h8.3l1.4-8.7h2.3l-1.4,8.7h4.8l-0.4,2.3h-4.8l-1.4,8.2h4.8l-0.4,2.3h-4.8l-1.4,8.7h-2.3L1895.5,1335.4z M1895.9,1333.1l1.4-8.2
				h-8.3l-1.4,8.2H1895.9z"/>
			<path class="st2" d="M1908,1336.2c0-3.7,2.6-7,6-7.7v-0.2c-3-0.9-5-3.7-4.9-6.9c0-4.5,3.8-7.9,8.9-7.9c5,0,8.9,3.4,8.9,7.9
				c0,3.2-2,6.1-4.9,6.9v0.2c3.4,0.7,6,4,6,7.7c0,4.8-4.2,8.4-10,8.4C1912.2,1344.5,1908,1341,1908,1336.2z M1925.2,1336
				c0-3.6-3.1-6.3-7.3-6.3c-4.2,0-7.3,2.7-7.3,6.3c0,3.5,2.9,6,7.3,6C1922.3,1342,1925.2,1339.5,1925.2,1336z M1924.2,1321.6
				c0-3.3-2.6-5.6-6.2-5.6c-3.6,0-6.2,2.3-6.2,5.6c0,3.3,2.7,5.8,6.2,5.8C1921.5,1327.4,1924.2,1324.9,1924.2,1321.6z"/>
			<path class="st2" d="M1934.5,1313.9h17.5v2.5h-14.7v11.4h13.3v2.5h-13.3v13.9h-2.8V1313.9z"/>
			<path class="st2" d="M1957.3,1336.2c0-3.7,2.6-7,6-7.7v-0.2c-3-0.9-5-3.7-4.9-6.9c0-4.5,3.8-7.9,8.9-7.9c5,0,8.9,3.4,8.9,7.9
				c0,3.2-2,6.1-4.9,6.9v0.2c3.4,0.7,6,4,6,7.7c0,4.8-4.2,8.4-10,8.4C1961.5,1344.5,1957.3,1341,1957.3,1336.2z M1974.6,1336
				c0-3.6-3.1-6.3-7.3-6.3c-4.2,0-7.3,2.7-7.3,6.3c0,3.5,2.9,6,7.3,6C1971.6,1342,1974.5,1339.5,1974.6,1336z M1973.5,1321.6
				c0-3.3-2.6-5.6-6.2-5.6c-3.6,0-6.2,2.3-6.2,5.6c0,3.3,2.7,5.8,6.2,5.8C1970.8,1327.4,1973.5,1324.9,1973.5,1321.6z"/>
			<path class="st2" d="M1983.8,1313.9h17.5v2.5h-14.8v11.4h13.8v2.5h-13.8v11.4h15.1v2.5h-17.8V1313.9z"/>
			<path class="st2" d="M2007,1336.2c0-3.7,2.6-7,6-7.7v-0.2c-3-0.9-5-3.7-4.9-6.9c0-4.5,3.8-7.9,8.9-7.9c5,0,8.9,3.4,8.9,7.9
				c0,3.2-2,6.1-4.9,6.9v0.2c3.4,0.7,6,4,6,7.7c0,4.8-4.2,8.4-10,8.4C2011.1,1344.5,2006.9,1341,2007,1336.2z M2024.2,1336
				c0-3.6-3.1-6.3-7.3-6.3c-4.2,0-7.3,2.7-7.3,6.3c0,3.5,2.9,6,7.3,6C2021.2,1342,2024.2,1339.5,2024.2,1336z M2023.1,1321.6
				c0-3.3-2.6-5.6-6.2-5.6c-3.6,0-6.2,2.3-6.2,5.6c0,3.3,2.7,5.8,6.2,5.8C2020.4,1327.4,2023.1,1324.9,2023.1,1321.6z"/>
			<path class="st2" d="M2054.3,1323.4c-0.8-4.1-4.5-7.3-9.2-7.3c-5.7,0-10.4,4.6-10.4,12.9c0,8.4,4.7,12.9,10.4,12.9
				c4.7,0,8.3-3.1,9.2-7.3h2.8c-1,5.5-5.5,9.8-12,9.8c-7.6,0-13-6.1-13-15.5c0-9.4,5.4-15.5,13-15.5c6.4,0,11,4.3,12,9.8H2054.3z"/>
			<path class="st2" d="M1750,1381.8h11.3c6.9,0,10.6,3.9,10.6,9.7c0,4.1-1.9,7.1-5.4,8.6l6.5,12h-6.1l-5.9-11.1h-5.6v11.1h-5.5
				V1381.8z M1760.5,1396.4c4.1,0,5.9-1.7,5.9-4.9c0-3.2-1.8-5.1-5.9-5.1h-5v10H1760.5z"/>
			<path class="st2" d="M1789.9,1386.3c-4.9,0-8.4,3.8-8.4,10.6c0,6.8,3.5,10.6,8.5,10.6c4.5,0,7.4-2.7,7.5-7h-7v-4.3h12.2v3.6
				c0,7.8-5.4,12.6-12.8,12.6c-8.3,0-14-5.9-14-15.5c0-9.7,5.9-15.5,13.8-15.5c6.7,0,11.8,4.1,12.7,10.1h-5.6
				C1796,1388.3,1793.6,1386.3,1789.9,1386.3z"/>
			<path class="st2" d="M1807.9,1381.8h11.6c6.5,0,9.8,3.3,9.8,7.8c0,3.7-2.3,5.7-5.3,6.4v0.3c3.2,0.2,6.5,2.8,6.5,7.4
				c0,4.7-3.4,8.2-10.3,8.2h-12.2V1381.8z M1818.8,1394.7c2.8,0,5-1.7,5-4.3c0-2.3-1.7-4-4.9-4h-5.5v8.3H1818.8z M1819.3,1407.5
				c4,0,5.6-1.7,5.6-4.1c0-2.7-2.1-4.8-5.5-4.8h-6v8.8H1819.3z"/>
			<path class="st2" d="M1856.2,1412h-2.8v-27.3h-0.2l-7.1,4.7v-2.9l7.1-4.7h2.9V1412z"/>
			<path class="st2" d="M1864.4,1403.3l13.5-21.5h3.3v21.2h4v2.5h-4v6.5h-2.6v-6.5h-14.1V1403.3z M1878.5,1385.6h-0.2l-10.8,17.3
				v0.2h11V1385.6z"/>
			<path class="st2" d="M1890.9,1404.5h2.8c0.1,3.3,3.2,5.5,7,5.5c4.2,0,7.1-2.5,7.1-6c0-3.7-2.9-6.2-7.7-6.2h-1.8v-2.5h1.8
				c3.9,0,6.7-2.3,6.7-5.8c0-3.3-2.4-5.6-6-5.6c-3.5,0-6.4,2.2-6.5,5.5h-2.7c0.1-4.7,4.2-8,9.2-8c5.3,0,8.7,3.6,8.7,8
				c0,3.4-2,6-5.2,7v0.2c3.8,0.8,6.2,3.6,6.2,7.4c0,4.8-4.1,8.5-9.8,8.5C1895.1,1412.4,1891.1,1409.2,1890.9,1404.5z"/>
			<path class="st2" d="M1919.9,1409.5c-0.5,3.2-1.8,7.8-2.5,9.9h-2c0.4-2,1.2-5.9,1.7-9.8l0.2-1.7h2.9L1919.9,1409.5z"/>
			<path class="st2" d="M1947.6,1412h-2.8v-27.3h-0.2l-7.1,4.7v-2.9l7.1-4.7h2.9V1412z"/>
			<path class="st2" d="M1955.8,1403.3l13.5-21.5h3.3v21.2h4v2.5h-4v6.5h-2.6v-6.5h-14.1V1403.3z M1969.9,1385.6h-0.2l-10.8,17.3
				v0.2h11V1385.6z"/>
			<path class="st2" d="M1982.4,1410l9.9-11.1c3.8-4.3,5.4-6.5,5.4-9.3c0-3.4-2.7-5.7-6.2-5.7c-3.7,0-6.2,2.6-6.2,6.2h-2.6
				c0-5,3.8-8.6,8.9-8.6c5.1,0,8.7,3.6,8.7,8.2c0,3.3-1.5,5.9-6.5,11.4l-7.5,8.4v0.2h14.9v2.5h-18.8V1410z"/>
			<path class="st2" d="M2011.7,1409.5c-0.5,3.2-1.8,7.8-2.5,9.9h-2c0.4-2,1.2-5.9,1.7-9.8l0.2-1.7h2.9L2011.7,1409.5z"/>
			<path class="st2" d="M2039.4,1412h-2.8v-27.3h-0.2l-7.1,4.7v-2.9l7.1-4.7h2.9V1412z"/>
			<path class="st2" d="M2047.6,1403.3l13.5-21.5h3.3v21.2h4v2.5h-4v6.5h-2.6v-6.5h-14.1V1403.3z M2061.7,1385.6h-0.2l-10.8,17.3
				v0.2h11V1385.6z"/>
			<path class="st2" d="M2073.4,1396.9c0-9.7,3.8-15.5,10.1-15.5c6.3,0,10.1,5.8,10.1,15.5c0,9.8-3.7,15.5-10.1,15.5
				C2077.1,1412.4,2073.4,1406.7,2073.4,1396.9z M2090.9,1396.9c0-8.3-2.8-13.1-7.4-13.1c-4.6,0-7.4,4.8-7.4,13.1
				c0,8.3,2.8,13,7.4,13C2088.1,1410,2090.9,1405.2,2090.9,1396.9z"/>
			<path class="st2" d="M1784.1,1460c-0.6-3.6-3.5-5.7-7.2-5.7c-4.9,0-8.4,3.8-8.4,10.6c0,6.9,3.5,10.6,8.4,10.6
				c3.6,0,6.5-2,7.2-5.5l5.5,0c-0.8,5.8-5.6,10.4-12.8,10.4c-8,0-13.8-5.8-13.8-15.5c0-9.8,5.9-15.5,13.8-15.5
				c6.7,0,11.9,3.9,12.8,10.6H1784.1z"/>
			<path class="st2" d="M1801.2,1449.8l9,21.9h0.4l9-21.9h6.7v30.2h-5.2v-20.7h-0.3l-8.3,20.7h-3.9l-8.3-20.7h-0.3v20.8h-5.2v-30.2
				H1801.2z"/>
			<path class="st2" d="M1836,1449.8l7.4,13.4h0.3l7.4-13.4h6.2l-11,18.9v11.3h-5.5v-11.3l-11-18.9H1836z"/>
			<path class="st2" d="M1860.9,1449.8h5.5v13.9h0.4l11.8-13.9h6.7l-11.7,13.5l11.8,16.6h-6.6l-9-12.9l-3.3,4v9h-5.5V1449.8z"/>
			<path class="st2" d="M1899.9,1464.9c0-9.7,3.8-15.5,10.1-15.5c6.3,0,10.1,5.8,10.1,15.5c0,9.8-3.7,15.5-10.1,15.5
				C1903.7,1480.4,1899.9,1474.6,1899.9,1464.9z M1917.4,1464.9c0-8.3-2.8-13.1-7.4-13.1s-7.4,4.8-7.4,13.1c0,8.3,2.8,13,7.4,13
				C1914.7,1477.9,1917.4,1473.1,1917.4,1464.9z"/>
			<path class="st2" d="M1928.9,1477.4c-0.5,3.2-1.8,7.8-2.5,9.9h-2c0.4-2,1.2-5.9,1.7-9.8l0.2-1.7h2.9L1928.9,1477.4z"/>
			<path class="st2" d="M1956.5,1480h-2.8v-27.3h-0.2l-7.1,4.7v-2.9l7.1-4.7h2.9V1480z"/>
			<path class="st2" d="M1967.9,1477.4c-0.5,3.2-1.8,7.8-2.5,9.9h-2c0.4-2,1.2-5.9,1.7-9.8l0.2-1.7h2.9L1967.9,1477.4z"/>
			<path class="st2" d="M1986.3,1477.9l9.9-11.1c3.8-4.3,5.4-6.5,5.4-9.3c0-3.4-2.7-5.7-6.2-5.7c-3.7,0-6.2,2.6-6.2,6.2h-2.6
				c0-5,3.8-8.6,8.9-8.6c5.1,0,8.7,3.6,8.7,8.2c0,3.3-1.5,5.9-6.5,11.4l-7.5,8.4v0.2h14.9v2.5h-18.8V1477.9z"/>
			<path class="st2" d="M2015.6,1477.4c-0.5,3.2-1.8,7.8-2.5,9.9h-2c0.4-2,1.2-5.9,1.7-9.8l0.2-1.7h2.9L2015.6,1477.4z"/>
			<path class="st2" d="M2033.2,1471.2l13.5-21.5h3.3v21.2h4v2.5h-4v6.5h-2.6v-6.5h-14.1V1471.2z M2047.3,1453.5h-0.2l-10.8,17.3
				v0.2h11V1453.5z"/>
			<path class="st2" d="M2059,1471.2l13.5-21.5h3.3v21.2h4v2.5h-4v6.5h-2.6v-6.5H2059V1471.2z M2073.1,1453.5h-0.2l-10.8,17.3v0.2
				h11V1453.5z"/>
		</g>
	</g>
	<g>
		<path class="st2" d="M1072.2,590.6h5.5v12.8h14v-12.8h5.5v30.2h-5.5v-12.8h-14v12.8h-5.5V590.6z"/>
		<path class="st2" d="M1102.9,590.6h19.6v4.6h-14.2v8.2h13.1v4.6h-13.1v8.2h14.3v4.6h-19.8V590.6z"/>
		<path class="st2" d="M1139.1,601.6h0.2l6.7-11.1h6.2l-9.3,15.1l9.4,15.1h-6.3l-6.7-11h-0.2l-6.7,11h-6.3l9.5-15.1l-9.4-15.1h6.3
			L1139.1,601.6z"/>
		<path class="st2" d="M1181.1,612.1h-8.3l-1.4,8.7h-2.3l1.4-8.7h-4.8l0.4-2.3h4.8l1.4-8.2h-4.8l0.4-2.3h4.8l1.4-8.7h2.3l-1.4,8.7
			h8.3l1.4-8.7h2.3l-1.4,8.7h4.8l-0.4,2.3h-4.8l-1.4,8.2h4.8l-0.4,2.3h-4.8l-1.4,8.7h-2.3L1181.1,612.1z M1181.5,609.8l1.4-8.2h-8.3
			l-1.4,8.2H1181.5z"/>
		<path class="st2" d="M1215.8,600c-0.8-4.1-4.5-7.3-9.2-7.3c-5.7,0-10.4,4.6-10.4,12.9c0,8.4,4.7,12.9,10.4,12.9
			c4.7,0,8.3-3.1,9.2-7.3h2.8c-1,5.5-5.5,9.8-12,9.8c-7.6,0-13-6.1-13-15.5c0-9.4,5.4-15.5,13-15.5c6.4,0,11,4.3,12,9.8H1215.8z"/>
		<path class="st2" d="M1224.1,613.2h2.8c0.1,3.3,3.2,5.5,7,5.5c4.2,0,7.1-2.5,7.1-6c0-3.7-2.9-6.2-7.7-6.2h-1.8V604h1.8
			c3.9,0,6.7-2.3,6.7-5.8c0-3.3-2.4-5.6-6-5.6c-3.5,0-6.4,2.2-6.5,5.5h-2.7c0.1-4.7,4.2-8,9.2-8c5.3,0,8.7,3.6,8.7,8
			c0,3.4-2,6-5.2,7v0.2c3.8,0.8,6.2,3.6,6.2,7.4c0,4.8-4.1,8.5-9.8,8.5C1228.4,621.2,1224.3,617.9,1224.1,613.2z"/>
		<path class="st2" d="M1269.1,604.4c0,9.9-3.4,16.8-10.4,16.8c-4.9,0-8.2-3.3-8.8-8h2.7c0.5,3.2,2.7,5.5,6.1,5.5
			c4.9,0,7.8-4.8,7.8-13.3h-0.2c-1.4,2.7-4.3,4.4-7.5,4.4c-5,0-9.2-4.2-9.2-9.8c0-5.4,3.8-9.9,9.6-9.8
			C1264.1,590.2,1269.1,593.8,1269.1,604.4z M1252.3,600c0,4.1,2.9,7.4,6.9,7.4c4,0,7.2-3.6,6.9-7.5c-0.3-4.1-3.1-7.2-6.9-7.2
			C1255.2,592.6,1252.3,595.9,1252.3,600z"/>
		<path class="st2" d="M1296.7,600c-0.8-4.1-4.5-7.3-9.2-7.3c-5.7,0-10.4,4.6-10.4,12.9c0,8.4,4.7,12.9,10.4,12.9
			c4.7,0,8.3-3.1,9.2-7.3h2.8c-1,5.5-5.5,9.8-12,9.8c-7.6,0-13-6.1-13-15.5c0-9.4,5.4-15.5,13-15.5c6.4,0,11,4.3,12,9.8H1296.7z"/>
		<path class="st2" d="M1304.6,606.9c0-9.8,3.4-16.8,10.4-16.8c4.9,0,8.2,3.3,8.8,8h-2.7c-0.6-3.2-2.7-5.5-6.1-5.5
			c-5,0-7.8,4.8-7.8,13.2h0.2c1.4-2.7,4.3-4.4,7.5-4.4c5,0,9.2,4.2,9.2,9.8c0,5.4-3.8,9.9-9.6,9.9
			C1309.6,621.1,1304.6,617.5,1304.6,606.9z M1321.5,611.3c0-4.1-3-7.4-6.9-7.4c-4,0-7.2,3.6-6.9,7.5c0.3,4.2,3.1,7.3,6.9,7.3
			C1318.5,618.7,1321.5,615.4,1321.5,611.3z"/>
		<path class="st2" d="M1330.2,613.2h2.8c0.1,3.3,3.2,5.5,7,5.5c4.2,0,7.1-2.5,7.1-6c0-3.7-2.9-6.2-7.7-6.2h-1.8V604h1.8
			c3.9,0,6.7-2.3,6.7-5.8c0-3.3-2.4-5.6-6-5.6c-3.5,0-6.4,2.2-6.5,5.5h-2.7c0.1-4.7,4.2-8,9.2-8c5.3,0,8.7,3.6,8.7,8
			c0,3.4-2,6-5.2,7v0.2c3.8,0.8,6.2,3.6,6.2,7.4c0,4.8-4.1,8.5-9.8,8.5C1334.4,621.2,1330.3,617.9,1330.2,613.2z"/>
		<path class="st2" d="M1051.5,658.5h11.3c6.9,0,10.6,3.9,10.6,9.7c0,4.1-1.9,7.1-5.4,8.6l6.5,12h-6.1l-5.9-11.1h-5.6v11.1h-5.5
			V658.5z M1062,673.1c4.1,0,5.9-1.7,5.9-4.9s-1.8-5.1-5.9-5.1h-5v10H1062z"/>
		<path class="st2" d="M1091.4,663c-4.9,0-8.4,3.8-8.4,10.6c0,6.8,3.5,10.6,8.5,10.6c4.5,0,7.4-2.7,7.5-7h-7v-4.3h12.2v3.6
			c0,7.8-5.4,12.6-12.8,12.6c-8.3,0-14-5.9-14-15.5c0-9.7,5.9-15.5,13.8-15.5c6.7,0,11.8,4.1,12.7,10.1h-5.6
			C1097.5,664.9,1095.1,663,1091.4,663z"/>
		<path class="st2" d="M1109.4,658.5h11.6c6.5,0,9.8,3.3,9.8,7.8c0,3.7-2.3,5.7-5.3,6.4v0.3c3.2,0.2,6.5,2.8,6.5,7.4
			c0,4.7-3.4,8.2-10.3,8.2h-12.2V658.5z M1120.3,671.3c2.8,0,5-1.7,5-4.3c0-2.3-1.7-4-4.9-4h-5.5v8.3H1120.3z M1120.8,684.1
			c4,0,5.6-1.7,5.6-4.1c0-2.7-2.1-4.8-5.5-4.8h-6v8.8H1120.8z"/>
		<path class="st2" d="M1157.7,688.7h-2.8v-27.3h-0.2l-7.1,4.7v-2.9l7.1-4.7h2.9V688.7z"/>
		<path class="st2" d="M1185.7,672.3c0,9.9-3.4,16.8-10.4,16.8c-4.9,0-8.2-3.3-8.8-8h2.7c0.5,3.2,2.7,5.5,6.1,5.5
			c4.9,0,7.8-4.8,7.8-13.3h-0.2c-1.4,2.7-4.3,4.4-7.5,4.4c-5,0-9.2-4.2-9.2-9.8c0-5.4,3.8-9.9,9.6-9.8
			C1180.7,658.1,1185.7,661.7,1185.7,672.3z M1168.8,667.9c0,4.1,2.9,7.4,6.9,7.4c4,0,7.2-3.6,6.9-7.5c-0.3-4.1-3.1-7.2-6.9-7.2
			C1171.8,660.6,1168.8,663.9,1168.8,667.9z"/>
		<path class="st2" d="M1191.7,681.1h2.7c0.2,3.2,2.8,5.5,6.2,5.5c4.1,0,7-3.2,7-7.4c0-4.4-3.1-7.5-7.1-7.5c-2,0-4.1,0.8-5.4,1.8
			l-2.8-0.4l1.8-14.7h14.9v2.5h-12.6l-1.2,10.1h0.1c1.3-1.1,3.3-1.9,5.5-1.9c5.3,0,9.4,4.1,9.4,10c0,5.7-4.1,9.9-9.6,9.9
			C1195.5,689.1,1191.8,685.8,1191.7,681.1z"/>
		<path class="st2" d="M1219.2,686.1c-0.5,3.2-1.8,7.8-2.5,9.9h-2c0.4-2,1.2-5.9,1.7-9.8l0.2-1.7h2.9L1219.2,686.1z"/>
		<path class="st2" d="M1246.9,688.7h-2.8v-27.3h-0.2l-7.1,4.7v-2.9l7.1-4.7h2.9V688.7z"/>
		<path class="st2" d="M1255.8,681.1h2.7c0.2,3.2,2.8,5.5,6.2,5.5c4.1,0,7-3.2,7-7.4c0-4.4-3.1-7.5-7.1-7.5c-2,0-4.1,0.8-5.4,1.8
			l-2.8-0.4l1.8-14.7h14.9v2.5h-12.6l-1.2,10.1h0.1c1.3-1.1,3.3-1.9,5.5-1.9c5.3,0,9.4,4.1,9.4,10c0,5.7-4.1,9.9-9.6,9.9
			C1259.7,689.1,1255.9,685.8,1255.8,681.1z"/>
		<path class="st2" d="M1279.9,674.8c0-9.8,3.4-16.8,10.4-16.8c4.9,0,8.2,3.3,8.8,8h-2.7c-0.6-3.2-2.7-5.5-6.1-5.5
			c-5,0-7.8,4.8-7.8,13.2h0.2c1.4-2.7,4.3-4.4,7.5-4.4c5,0,9.2,4.2,9.2,9.8c0,5.4-3.8,9.9-9.6,9.9
			C1284.9,689.1,1279.9,685.5,1279.9,674.8z M1296.8,679.2c0-4.1-3-7.4-6.9-7.4c-4,0-7.2,3.6-6.9,7.5c0.3,4.2,3.1,7.3,6.9,7.3
			C1293.8,686.6,1296.8,683.3,1296.8,679.2z"/>
		<path class="st2" d="M1308.3,686.1c-0.5,3.2-1.8,7.8-2.5,9.9h-2c0.4-2,1.2-5.9,1.7-9.8l0.2-1.7h2.9L1308.3,686.1z"/>
		<path class="st2" d="M1345.7,672.3c0,9.9-3.4,16.8-10.4,16.8c-4.9,0-8.2-3.3-8.8-8h2.7c0.5,3.2,2.7,5.5,6.1,5.5
			c4.9,0,7.8-4.8,7.8-13.3h-0.2c-1.4,2.7-4.3,4.4-7.5,4.4c-5,0-9.2-4.2-9.2-9.8c0-5.4,3.8-9.9,9.6-9.8
			C1340.7,658.1,1345.7,661.7,1345.7,672.3z M1328.8,667.9c0,4.1,2.9,7.4,6.9,7.4c4,0,7.2-3.6,6.9-7.5c-0.3-4.1-3.1-7.2-6.9-7.2
			C1331.8,660.6,1328.8,663.9,1328.8,667.9z"/>
		<path class="st2" d="M1370.8,672.3c0,9.9-3.4,16.8-10.4,16.8c-4.9,0-8.2-3.3-8.8-8h2.7c0.5,3.2,2.7,5.5,6.1,5.5
			c4.9,0,7.8-4.8,7.8-13.3h-0.2c-1.4,2.7-4.3,4.4-7.5,4.4c-5,0-9.2-4.2-9.2-9.8c0-5.4,3.8-9.9,9.6-9.8
			C1365.8,658.1,1370.8,661.7,1370.8,672.3z M1353.9,667.9c0,4.1,2.9,7.4,6.9,7.4c4,0,7.2-3.6,6.9-7.5c-0.3-4.1-3.1-7.2-6.9-7.2
			C1356.9,660.6,1353.9,663.9,1353.9,667.9z"/>
		<path class="st2" d="M1045.7,736.6c-0.6-3.6-3.5-5.7-7.2-5.7c-4.9,0-8.4,3.8-8.4,10.6c0,6.9,3.5,10.6,8.4,10.6
			c3.6,0,6.5-2,7.2-5.5l5.5,0c-0.8,5.8-5.6,10.4-12.8,10.4c-8,0-13.8-5.8-13.8-15.5c0-9.8,5.9-15.5,13.8-15.5
			c6.7,0,11.9,3.9,12.8,10.6H1045.7z"/>
		<path class="st2" d="M1062.7,726.4l9,21.9h0.4l9-21.9h6.7v30.2h-5.2v-20.7h-0.3l-8.3,20.7h-3.9l-8.3-20.7h-0.3v20.8h-5.2v-30.2
			H1062.7z"/>
		<path class="st2" d="M1097.6,726.4l7.4,13.4h0.3l7.4-13.4h6.2l-11,18.9v11.3h-5.5v-11.3l-11-18.9H1097.6z"/>
		<path class="st2" d="M1122.5,726.4h5.5v13.9h0.4l11.8-13.9h6.7l-11.7,13.5l11.8,16.6h-6.6l-9-12.9l-3.3,4v9h-5.5V726.4z"/>
		<path class="st2" d="M1161.5,741.5c0-9.7,3.8-15.5,10.1-15.5c6.3,0,10.1,5.8,10.1,15.5c0,9.8-3.7,15.5-10.1,15.5
			C1165.2,757,1161.5,751.3,1161.5,741.5z M1179,741.5c0-8.3-2.8-13.1-7.4-13.1s-7.4,4.8-7.4,13.1c0,8.3,2.8,13,7.4,13
			C1176.2,754.5,1179,749.8,1179,741.5z"/>
		<path class="st2" d="M1190.4,754.1c-0.5,3.2-1.8,7.8-2.5,9.9h-2c0.4-2,1.2-5.9,1.7-9.8l0.2-1.7h2.9L1190.4,754.1z"/>
		<path class="st2" d="M1208.8,754.6l9.9-11.1c3.8-4.3,5.4-6.5,5.4-9.3c0-3.4-2.7-5.7-6.2-5.7c-3.7,0-6.2,2.6-6.2,6.2h-2.6
			c0-5,3.8-8.6,8.9-8.6c5.1,0,8.7,3.6,8.7,8.2c0,3.3-1.5,5.9-6.5,11.4l-7.5,8.4v0.2h14.9v2.5h-18.8V754.6z"/>
		<path class="st2" d="M1233.2,741.5c0-9.7,3.8-15.5,10.1-15.5s10.1,5.8,10.1,15.5c0,9.8-3.7,15.5-10.1,15.5
			C1236.9,757,1233.2,751.3,1233.2,741.5z M1250.7,741.5c0-8.3-2.8-13.1-7.4-13.1s-7.4,4.8-7.4,13.1c0,8.3,2.8,13,7.4,13
			S1250.7,749.8,1250.7,741.5z"/>
		<path class="st2" d="M1262.1,754.1c-0.5,3.2-1.8,7.8-2.5,9.9h-2c0.4-2,1.2-5.9,1.7-9.8l0.2-1.7h2.9L1262.1,754.1z"/>
		<path class="st2" d="M1279.8,747.9l13.5-21.5h3.3v21.2h4v2.5h-4v6.5h-2.6v-6.5h-14.1V747.9z M1293.8,730.2h-0.2l-10.8,17.3v0.2h11
			V730.2z"/>
		<path class="st2" d="M1325.3,740.2c0,9.9-3.4,16.8-10.4,16.8c-4.9,0-8.2-3.3-8.8-8h2.7c0.5,3.2,2.7,5.5,6.1,5.5
			c4.9,0,7.8-4.8,7.8-13.3h-0.2c-1.4,2.7-4.3,4.4-7.5,4.4c-5,0-9.2-4.2-9.2-9.8c0-5.4,3.8-9.9,9.6-9.8
			C1320.4,726.1,1325.3,729.7,1325.3,740.2z M1308.5,735.9c0,4.1,2.9,7.4,6.9,7.4c4,0,7.2-3.6,6.9-7.5c-0.3-4.1-3.1-7.2-6.9-7.2
			C1311.4,728.5,1308.5,731.8,1308.5,735.9z"/>
		<path class="st2" d="M1334.3,754.1c-0.5,3.2-1.8,7.8-2.5,9.9h-2c0.4-2,1.2-5.9,1.7-9.8l0.2-1.7h2.9L1334.3,754.1z"/>
		<path class="st2" d="M1352.7,754.6l9.9-11.1c3.8-4.3,5.4-6.5,5.4-9.3c0-3.4-2.7-5.7-6.2-5.7c-3.7,0-6.2,2.6-6.2,6.2h-2.6
			c0-5,3.8-8.6,8.9-8.6c5.1,0,8.7,3.6,8.7,8.2c0,3.3-1.5,5.9-6.5,11.4l-7.5,8.4v0.2h14.9v2.5h-18.8V754.6z"/>
		<path class="st2" d="M1376.4,747.9l13.5-21.5h3.3v21.2h4v2.5h-4v6.5h-2.6v-6.5h-14.1V747.9z M1390.5,730.2h-0.2l-10.8,17.3v0.2h11
			V730.2z"/>
	</g>
	<g>
		<path class="st2" d="M273,590.6h5.5v12.8h14v-12.8h5.5v30.2h-5.5v-12.8h-14v12.8H273V590.6z"/>
		<path class="st2" d="M303.7,590.6h19.6v4.6h-14.2v8.2h13.1v4.6h-13.1v8.2h14.3v4.6h-19.8V590.6z"/>
		<path class="st2" d="M339.9,601.6h0.2l6.7-11.1h6.2l-9.3,15.1l9.4,15.1h-6.3l-6.7-11h-0.2l-6.7,11h-6.3l9.5-15.1l-9.4-15.1h6.3
			L339.9,601.6z"/>
		<path class="st2" d="M381.9,612.1h-8.3l-1.4,8.7h-2.3l1.4-8.7h-4.8l0.4-2.3h4.8l1.4-8.2h-4.8l0.4-2.3h4.8l1.4-8.7h2.3l-1.4,8.7
			h8.3l1.4-8.7h2.3l-1.4,8.7h4.8l-0.4,2.3h-4.8l-1.4,8.2h4.8l-0.4,2.3h-4.8l-1.4,8.7h-2.3L381.9,612.1z M382.2,609.8l1.4-8.2h-8.3
			l-1.4,8.2H382.2z"/>
		<path class="st2" d="M404.3,620.8h-2.8v-27.3h-0.2l-7.1,4.7v-2.9l7.1-4.7h2.9V620.8z"/>
		<path class="st2" d="M412.6,605.7c0-9.7,3.8-15.5,10.1-15.5s10.1,5.8,10.1,15.5c0,9.8-3.7,15.5-10.1,15.5S412.6,615.4,412.6,605.7
			z M430.1,605.7c0-8.3-2.8-13.1-7.4-13.1s-7.4,4.8-7.4,13.1c0,8.3,2.8,13,7.4,13S430.1,613.9,430.1,605.7z"/>
		<path class="st2" d="M438.5,613.2h2.7c0.2,3.2,2.8,5.5,6.2,5.5c4.1,0,7-3.2,7-7.4c0-4.4-3.1-7.5-7.1-7.5c-2,0-4.1,0.8-5.4,1.8
			l-2.8-0.4l1.8-14.7h14.9v2.5h-12.6l-1.2,10.1h0.1c1.3-1.1,3.3-1.9,5.5-1.9c5.3,0,9.4,4.1,9.4,10c0,5.7-4.1,9.9-9.6,9.9
			C442.4,621.2,438.6,617.8,438.5,613.2z"/>
		<path class="st2" d="M462.4,612l13.5-21.5h3.3v21.2h4v2.5h-4v6.5h-2.6v-6.5h-14.1V612z M476.5,594.3h-0.2l-10.8,17.3v0.2h11V594.3
			z"/>
		<path class="st2" d="M488.9,613.2h2.8c0.1,3.3,3.2,5.5,7,5.5c4.2,0,7.1-2.5,7.1-6c0-3.7-2.9-6.2-7.7-6.2h-1.8V604h1.8
			c3.9,0,6.7-2.3,6.7-5.8c0-3.3-2.4-5.6-6-5.6c-3.5,0-6.4,2.2-6.5,5.5h-2.7c0.1-4.7,4.2-8,9.2-8c5.3,0,8.7,3.6,8.7,8
			c0,3.4-2,6-5.2,7v0.2c3.8,0.8,6.2,3.6,6.2,7.4c0,4.8-4.1,8.5-9.8,8.5C493.1,621.2,489,617.9,488.9,613.2z"/>
		<path class="st2" d="M514.1,612l13.5-21.5h3.3v21.2h4v2.5h-4v6.5h-2.6v-6.5h-14.1V612z M528.2,594.3H528l-10.8,17.3v0.2h11V594.3z
			"/>
		<path class="st2" d="M265.2,658.5h11.3c6.9,0,10.6,3.9,10.6,9.7c0,4.1-1.9,7.1-5.4,8.6l6.5,12h-6.1l-5.9-11.1h-5.6v11.1h-5.5
			V658.5z M275.7,673.1c4.1,0,5.9-1.7,5.9-4.9s-1.8-5.1-5.9-5.1h-5v10H275.7z"/>
		<path class="st2" d="M305.2,663c-4.9,0-8.4,3.8-8.4,10.6c0,6.8,3.5,10.6,8.5,10.6c4.5,0,7.4-2.7,7.5-7h-7v-4.3h12.2v3.6
			c0,7.8-5.4,12.6-12.8,12.6c-8.3,0-14-5.9-14-15.5c0-9.7,5.9-15.5,13.8-15.5c6.7,0,11.8,4.1,12.7,10.1h-5.6
			C311.3,664.9,308.8,663,305.2,663z"/>
		<path class="st2" d="M323.2,658.5h11.6c6.5,0,9.8,3.3,9.8,7.8c0,3.7-2.3,5.7-5.3,6.4v0.3c3.2,0.2,6.5,2.8,6.5,7.4
			c0,4.7-3.4,8.2-10.3,8.2h-12.2V658.5z M334,671.3c2.8,0,5-1.7,5-4.3c0-2.3-1.7-4-4.9-4h-5.5v8.3H334z M334.5,684.1
			c4,0,5.6-1.7,5.6-4.1c0-2.7-2.1-4.8-5.5-4.8h-6v8.8H334.5z"/>
		<path class="st2" d="M371.4,688.7h-2.8v-27.3h-0.2l-7.1,4.7v-2.9l7.1-4.7h2.9V688.7z"/>
		<path class="st2" d="M379.9,674.8c0-9.8,3.4-16.8,10.4-16.8c4.9,0,8.2,3.3,8.8,8h-2.7c-0.6-3.2-2.7-5.5-6.1-5.5
			c-5,0-7.8,4.8-7.8,13.2h0.2c1.4-2.7,4.3-4.4,7.5-4.4c5,0,9.2,4.2,9.2,9.8c0,5.4-3.8,9.9-9.6,9.9
			C384.9,689.1,379.9,685.5,379.9,674.8z M396.8,679.2c0-4.1-3-7.4-6.9-7.4c-4,0-7.2,3.6-6.9,7.5c0.3,4.2,3.1,7.3,6.9,7.3
			C393.8,686.6,396.8,683.3,396.8,679.2z"/>
		<path class="st2" d="M408.3,686.1c-0.5,3.2-1.8,7.8-2.5,9.9h-2c0.4-2,1.2-5.9,1.7-9.8l0.2-1.7h2.9L408.3,686.1z"/>
		<path class="st2" d="M426,680.7c0-3.7,2.6-7,6-7.7v-0.2c-3-0.9-5-3.7-4.9-6.9c0-4.5,3.8-7.9,8.9-7.9c5,0,8.9,3.4,8.9,7.9
			c0,3.2-2,6.1-4.9,6.9v0.2c3.4,0.7,6,4,6,7.7c0,4.8-4.2,8.4-10,8.4C430.2,689.1,426,685.5,426,680.7z M443.2,680.6
			c0-3.6-3.1-6.3-7.3-6.3c-4.2,0-7.3,2.7-7.3,6.3c0,3.5,2.9,6,7.3,6C440.3,686.6,443.2,684.1,443.2,680.6z M442.2,666.2
			c0-3.3-2.6-5.6-6.2-5.6c-3.6,0-6.2,2.3-6.2,5.6c0,3.3,2.7,5.8,6.2,5.8C439.5,671.9,442.1,669.5,442.2,666.2z"/>
		<path class="st2" d="M451.1,680l13.5-21.5h3.3v21.2h4v2.5h-4v6.5h-2.6v-6.5h-14.1V680z M465.2,662.3H465l-10.8,17.3v0.2h11V662.3z
			"/>
		<path class="st2" d="M480.4,686.1c-0.5,3.2-1.8,7.8-2.5,9.9h-2c0.4-2,1.2-5.9,1.7-9.8l0.2-1.7h2.9L480.4,686.1z"/>
		<path class="st2" d="M498.7,681.1h2.7c0.2,3.2,2.8,5.5,6.2,5.5c4.1,0,7-3.2,7-7.4c0-4.4-3.1-7.5-7.1-7.5c-2,0-4.1,0.8-5.4,1.8
			l-2.8-0.4l1.8-14.7H516v2.5h-12.6l-1.2,10.1h0.1c1.3-1.1,3.3-1.9,5.5-1.9c5.3,0,9.4,4.1,9.4,10c0,5.7-4.1,9.9-9.6,9.9
			C502.5,689.1,498.8,685.8,498.7,681.1z"/>
		<path class="st2" d="M523.2,686.7l9.9-11.1c3.8-4.3,5.4-6.5,5.4-9.3c0-3.4-2.7-5.7-6.2-5.7c-3.7,0-6.2,2.6-6.2,6.2h-2.6
			c0-5,3.8-8.6,8.9-8.6c5.1,0,8.7,3.6,8.7,8.2c0,3.3-1.5,5.9-6.5,11.4l-7.5,8.4v0.2H542v2.5h-18.8V686.7z"/>
		<path class="st2" d="M242.9,736.6c-0.6-3.6-3.5-5.7-7.2-5.7c-4.9,0-8.4,3.8-8.4,10.6c0,6.9,3.5,10.6,8.4,10.6c3.6,0,6.5-2,7.2-5.5
			l5.5,0c-0.8,5.8-5.6,10.4-12.8,10.4c-8,0-13.8-5.8-13.8-15.5c0-9.8,5.9-15.5,13.8-15.5c6.7,0,11.9,3.9,12.8,10.6H242.9z"/>
		<path class="st2" d="M259.9,726.4l9,21.9h0.4l9-21.9h6.7v30.2h-5.2v-20.7h-0.3l-8.3,20.7h-3.9l-8.3-20.7h-0.3v20.8h-5.2v-30.2
			H259.9z"/>
		<path class="st2" d="M294.7,726.4l7.4,13.4h0.3l7.4-13.4h6.2l-11,18.9v11.3h-5.5v-11.3l-11-18.9H294.7z"/>
		<path class="st2" d="M319.7,726.4h5.5v13.9h0.4l11.8-13.9h6.7L332.3,740l11.8,16.6h-6.6l-9-12.9l-3.3,4v9h-5.5V726.4z"/>
		<path class="st2" d="M358.8,748.7c0-3.7,2.6-7,6-7.7v-0.2c-3-0.9-5-3.7-4.9-6.9c0-4.5,3.8-7.9,8.9-7.9c5,0,8.9,3.4,8.9,7.9
			c0,3.2-2,6.1-4.9,6.9v0.2c3.4,0.7,6,4,6,7.7c0,4.8-4.2,8.4-10,8.4C363,757,358.8,753.5,358.8,748.7z M376,748.5
			c0-3.6-3.1-6.3-7.3-6.3c-4.2,0-7.3,2.7-7.3,6.3c0,3.5,2.9,6,7.3,6C373,754.5,376,752,376,748.5z M375,734.1c0-3.3-2.6-5.6-6.2-5.6
			c-3.6,0-6.2,2.3-6.2,5.6c0,3.3,2.7,5.8,6.2,5.8C372.3,739.9,374.9,737.4,375,734.1z"/>
		<path class="st2" d="M393.9,756.6h-2.8v-27.3H391l-7.1,4.7v-2.9l7.1-4.7h2.9V756.6z"/>
		<path class="st2" d="M405.3,754.1c-0.5,3.2-1.8,7.8-2.5,9.9h-2c0.4-2,1.2-5.9,1.7-9.8l0.2-1.7h2.9L405.3,754.1z"/>
		<path class="st2" d="M423,741.5c0-9.7,3.8-15.5,10.1-15.5s10.1,5.8,10.1,15.5c0,9.8-3.7,15.5-10.1,15.5S423,751.3,423,741.5z
			 M440.5,741.5c0-8.3-2.8-13.1-7.4-13.1s-7.4,4.8-7.4,13.1c0,8.3,2.8,13,7.4,13S440.5,749.8,440.5,741.5z"/>
		<path class="st2" d="M451.9,754.1c-0.5,3.2-1.8,7.8-2.5,9.9h-2c0.4-2,1.2-5.9,1.7-9.8l0.2-1.7h2.9L451.9,754.1z"/>
		<path class="st2" d="M470.2,749.1h2.8c0.1,3.3,3.2,5.5,7,5.5c4.2,0,7.1-2.5,7.1-6c0-3.7-2.9-6.2-7.7-6.2h-1.8v-2.5h1.8
			c3.9,0,6.7-2.3,6.7-5.8c0-3.3-2.4-5.6-6-5.6c-3.5,0-6.4,2.2-6.5,5.5h-2.7c0.1-4.7,4.2-8,9.2-8c5.3,0,8.7,3.6,8.7,8
			c0,3.4-2,6-5.2,7v0.2c3.8,0.8,6.2,3.6,6.2,7.4c0,4.8-4.1,8.5-9.8,8.5C474.4,757,470.4,753.8,470.2,749.1z"/>
		<path class="st2" d="M495.5,748.7c0-3.7,2.6-7,6-7.7v-0.2c-3-0.9-5-3.7-4.9-6.9c0-4.5,3.8-7.9,8.9-7.9c5,0,8.9,3.4,8.9,7.9
			c0,3.2-2,6.1-4.9,6.9v0.2c3.4,0.7,6,4,6,7.7c0,4.8-4.2,8.4-10,8.4C499.7,757,495.5,753.5,495.5,748.7z M512.7,748.5
			c0-3.6-3.1-6.3-7.3-6.3c-4.2,0-7.3,2.7-7.3,6.3c0,3.5,2.9,6,7.3,6C509.8,754.5,512.7,752,512.7,748.5z M511.7,734.1
			c0-3.3-2.6-5.6-6.2-5.6c-3.6,0-6.2,2.3-6.2,5.6c0,3.3,2.7,5.8,6.2,5.8C509,739.9,511.7,737.4,511.7,734.1z"/>
		<path class="st2" d="M524.4,754.1c-0.5,3.2-1.8,7.8-2.5,9.9h-2c0.4-2,1.2-5.9,1.7-9.8l0.2-1.7h2.9L524.4,754.1z"/>
		<path class="st2" d="M542.3,742.8c0-9.8,3.4-16.8,10.4-16.8c4.9,0,8.2,3.3,8.8,8h-2.7c-0.6-3.2-2.7-5.5-6.1-5.5
			c-5,0-7.8,4.8-7.8,13.2h0.2c1.4-2.7,4.3-4.4,7.5-4.4c5,0,9.2,4.2,9.2,9.8c0,5.4-3.8,9.9-9.6,9.9
			C547.3,757,542.3,753.4,542.3,742.8z M559.2,747.1c0-4.1-3-7.4-6.9-7.4c-4,0-7.2,3.6-6.9,7.5c0.3,4.2,3.1,7.3,6.9,7.3
			C556.2,754.5,559.2,751.2,559.2,747.1z"/>
		<path class="st2" d="M582.5,729.1v-0.2h-15.8v-2.5h18.7v2.6l-13.7,27.6h-2.9L582.5,729.1z"/>
	</g>
	<g>
		<path class="st2" d="M267.2,1459.2h5.5v12.8h14v-12.8h5.5v30.2h-5.5v-12.8h-14v12.8h-5.5V1459.2z"/>
		<path class="st2" d="M297.9,1459.2h19.6v4.6h-14.2v8.2h13.1v4.6h-13.1v8.2h14.3v4.6h-19.8V1459.2z"/>
		<path class="st2" d="M334.2,1470.2h0.2l6.7-11.1h6.2l-9.3,15.1l9.4,15.1h-6.3l-6.7-11h-0.2l-6.7,11h-6.3l9.5-15.1l-9.4-15.1h6.3
			L334.2,1470.2z"/>
		<path class="st2" d="M376.1,1480.7h-8.3l-1.4,8.7h-2.3l1.4-8.7h-4.8l0.4-2.3h4.8l1.4-8.2h-4.8l0.4-2.3h4.8l1.4-8.7h2.3l-1.4,8.7
			h8.3l1.4-8.7h2.3l-1.4,8.7h4.8l-0.4,2.3h-4.8l-1.4,8.2h4.8l-0.4,2.3h-4.8l-1.4,8.7h-2.3L376.1,1480.7z M376.5,1478.4l1.4-8.2h-8.3
			l-1.4,8.2H376.5z"/>
		<path class="st2" d="M388.5,1474.3c0-9.7,3.8-15.5,10.1-15.5s10.1,5.8,10.1,15.5c0,9.8-3.7,15.5-10.1,15.5
			S388.5,1484,388.5,1474.3z M406,1474.3c0-8.3-2.8-13.1-7.4-13.1s-7.4,4.8-7.4,13.1c0,8.3,2.8,13,7.4,13S406,1482.5,406,1474.3z"/>
		<path class="st2" d="M436,1468.6c-0.8-4.1-4.5-7.3-9.2-7.3c-5.7,0-10.4,4.6-10.4,12.9c0,8.4,4.7,12.9,10.4,12.9
			c4.7,0,8.3-3.1,9.2-7.3h2.8c-1,5.5-5.5,9.8-12,9.8c-7.6,0-13-6.1-13-15.5s5.4-15.5,13-15.5c6.4,0,11,4.3,12,9.8H436z"/>
		<path class="st2" d="M443.7,1480.6l13.5-21.5h3.3v21.2h4v2.5h-4v6.5h-2.6v-6.5h-14.1V1480.6z M457.8,1462.9h-0.2l-10.8,17.3v0.2
			h11V1462.9z"/>
		<path class="st2" d="M470.2,1481.8h2.8c0.1,3.3,3.2,5.5,7,5.5c4.2,0,7.1-2.5,7.1-6c0-3.7-2.9-6.2-7.7-6.2h-1.8v-2.5h1.8
			c3.9,0,6.7-2.3,6.7-5.8c0-3.3-2.4-5.6-6-5.6c-3.5,0-6.4,2.2-6.5,5.5h-2.7c0.1-4.7,4.2-8,9.2-8c5.3,0,8.7,3.6,8.7,8
			c0,3.4-2,6-5.2,7v0.2c3.8,0.8,6.2,3.6,6.2,7.4c0,4.8-4.1,8.5-9.8,8.5C474.4,1489.8,470.4,1486.5,470.2,1481.8z"/>
		<path class="st2" d="M496.1,1487.3l9.9-11.1c3.8-4.3,5.4-6.5,5.4-9.3c0-3.4-2.7-5.7-6.2-5.7c-3.7,0-6.2,2.6-6.2,6.2h-2.6
			c0-5,3.8-8.6,8.9-8.6c5.1,0,8.7,3.6,8.7,8.2c0,3.3-1.5,5.9-6.5,11.4l-7.5,8.4v0.2h14.9v2.5h-18.8V1487.3z"/>
		<path class="st2" d="M540.3,1473c0,9.9-3.4,16.8-10.4,16.8c-4.9,0-8.2-3.3-8.8-8h2.7c0.5,3.2,2.7,5.5,6.1,5.5
			c4.9,0,7.8-4.8,7.8-13.3h-0.2c-1.4,2.7-4.3,4.4-7.5,4.4c-5,0-9.2-4.2-9.2-9.8c0-5.4,3.8-9.9,9.6-9.8
			C535.4,1458.8,540.3,1462.4,540.3,1473z M523.5,1468.6c0,4.1,2.9,7.4,6.9,7.4c4,0,7.2-3.6,6.9-7.5c-0.3-4.1-3.1-7.2-6.9-7.2
			C526.4,1461.2,523.5,1464.5,523.5,1468.6z"/>
		<path class="st2" d="M270.7,1527.1h11.3c6.9,0,10.6,3.9,10.6,9.7c0,4.1-1.9,7.1-5.4,8.6l6.5,12h-6.1l-5.9-11.1h-5.6v11.1h-5.5
			V1527.1z M281.2,1541.7c4.1,0,5.9-1.7,5.9-4.9c0-3.2-1.8-5.1-5.9-5.1h-5v10H281.2z"/>
		<path class="st2" d="M310.7,1531.6c-4.9,0-8.4,3.8-8.4,10.6c0,6.8,3.5,10.6,8.5,10.6c4.5,0,7.4-2.7,7.5-7h-7v-4.3h12.2v3.6
			c0,7.8-5.4,12.6-12.8,12.6c-8.3,0-14-5.9-14-15.5c0-9.7,5.9-15.5,13.8-15.5c6.7,0,11.8,4.1,12.7,10.1h-5.6
			C316.8,1533.5,314.3,1531.6,310.7,1531.6z"/>
		<path class="st2" d="M328.7,1527.1h11.6c6.5,0,9.8,3.3,9.8,7.8c0,3.7-2.3,5.7-5.3,6.4v0.3c3.2,0.2,6.5,2.8,6.5,7.4
			c0,4.7-3.4,8.2-10.3,8.2h-12.2V1527.1z M339.5,1539.9c2.8,0,5-1.7,5-4.3c0-2.3-1.7-4-4.9-4h-5.5v8.3H339.5z M340,1552.7
			c4,0,5.6-1.7,5.6-4.1c0-2.7-2.1-4.8-5.5-4.8h-6v8.8H340z"/>
		<path class="st2" d="M376.9,1557.3h-2.8V1530H374l-7.1,4.7v-2.9l7.1-4.7h2.9V1557.3z"/>
		<path class="st2" d="M385.9,1555.3l9.9-11.1c3.8-4.3,5.4-6.5,5.4-9.3c0-3.4-2.7-5.7-6.2-5.7c-3.7,0-6.2,2.6-6.2,6.2h-2.6
			c0-5,3.8-8.6,8.9-8.6c5.1,0,8.7,3.6,8.7,8.2c0,3.3-1.5,5.9-6.5,11.4l-7.5,8.4v0.2h14.9v2.5h-18.8V1555.3z"/>
		<path class="st2" d="M415.2,1554.7c-0.5,3.2-1.8,7.8-2.5,9.9h-2c0.4-2,1.2-5.9,1.7-9.8l0.2-1.7h2.9L415.2,1554.7z"/>
		<path class="st2" d="M433.1,1543.5c0-9.8,3.4-16.8,10.4-16.8c4.9,0,8.2,3.3,8.8,8h-2.7c-0.6-3.2-2.7-5.5-6.1-5.5
			c-5,0-7.8,4.8-7.8,13.2h0.2c1.4-2.7,4.3-4.4,7.5-4.4c5,0,9.2,4.2,9.2,9.8c0,5.4-3.8,9.9-9.6,9.9
			C438.1,1557.7,433.1,1554.1,433.1,1543.5z M450,1547.8c0-4.1-3-7.4-6.9-7.4c-4,0-7.2,3.6-6.9,7.5c0.3,4.2,3.1,7.3,6.9,7.3
			C447,1555.2,450,1551.9,450,1547.8z"/>
		<path class="st2" d="M473.3,1529.8v-0.2h-15.8v-2.5h18.7v2.6l-13.7,27.6h-2.9L473.3,1529.8z"/>
		<path class="st2" d="M480.9,1554.7c-0.5,3.2-1.8,7.8-2.5,9.9h-2c0.4-2,1.2-5.9,1.7-9.8l0.2-1.7h2.9L480.9,1554.7z"/>
		<path class="st2" d="M498.5,1548.6l13.5-21.5h3.3v21.2h4v2.5h-4v6.5h-2.6v-6.5h-14.1V1548.6z M512.6,1530.9h-0.2l-10.8,17.3v0.2
			h11V1530.9z"/>
		<path class="st2" d="M533.9,1557.3h-2.8V1530H531l-7.1,4.7v-2.9l7.1-4.7h2.9V1557.3z"/>
		<path class="st2" d="M239.6,1605.2c-0.6-3.6-3.5-5.7-7.2-5.7c-4.9,0-8.4,3.8-8.4,10.6c0,6.9,3.5,10.6,8.4,10.6
			c3.6,0,6.5-2,7.2-5.5l5.5,0c-0.8,5.8-5.6,10.4-12.8,10.4c-8,0-13.8-5.8-13.8-15.5c0-9.8,5.9-15.5,13.8-15.5
			c6.7,0,11.9,3.9,12.8,10.6H239.6z"/>
		<path class="st2" d="M256.6,1595l9,21.9h0.4l9-21.9h6.7v30.2h-5.2v-20.7H276l-8.3,20.7h-3.9l-8.3-20.7h-0.3v20.8h-5.2V1595H256.6z
			"/>
		<path class="st2" d="M291.4,1595l7.4,13.4h0.3l7.4-13.4h6.2l-11,18.9v11.3h-5.5V1614l-11-18.9H291.4z"/>
		<path class="st2" d="M316.3,1595h5.5v13.9h0.4L334,1595h6.7l-11.7,13.5l11.8,16.6h-6.6l-9-12.9l-3.3,4v9h-5.5V1595z"/>
		<path class="st2" d="M355.5,1617.3c0-3.7,2.6-7,6-7.7v-0.2c-3-0.9-5-3.7-4.9-6.9c0-4.5,3.8-7.9,8.9-7.9c5,0,8.9,3.4,8.9,7.9
			c0,3.2-2,6.1-4.9,6.9v0.2c3.4,0.7,6,4,6,7.7c0,4.8-4.2,8.4-10,8.4C359.6,1625.6,355.4,1622.1,355.5,1617.3z M372.7,1617.1
			c0-3.6-3.1-6.3-7.3-6.3c-4.2,0-7.3,2.7-7.3,6.3c0,3.5,2.9,6,7.3,6C369.7,1623.2,372.7,1620.6,372.7,1617.1z M371.6,1602.7
			c0-3.3-2.6-5.6-6.2-5.6c-3.6,0-6.2,2.3-6.2,5.6c0,3.3,2.7,5.8,6.2,5.8C368.9,1608.5,371.6,1606,371.6,1602.7z"/>
		<path class="st2" d="M381.3,1623.2l9.9-11.1c3.8-4.3,5.4-6.5,5.4-9.3c0-3.4-2.7-5.7-6.2-5.7c-3.7,0-6.2,2.6-6.2,6.2h-2.6
			c0-5,3.8-8.6,8.9-8.6c5.1,0,8.7,3.6,8.7,8.2c0,3.3-1.5,5.9-6.5,11.4l-7.5,8.4v0.2H400v2.5h-18.8V1623.2z"/>
		<path class="st2" d="M410.6,1622.7c-0.5,3.2-1.8,7.8-2.5,9.9h-2c0.4-2,1.2-5.9,1.7-9.8l0.2-1.7h2.9L410.6,1622.7z"/>
		<path class="st2" d="M428.3,1610.1c0-9.7,3.8-15.5,10.1-15.5s10.1,5.8,10.1,15.5c0,9.8-3.7,15.5-10.1,15.5
			S428.3,1619.9,428.3,1610.1z M445.8,1610.1c0-8.3-2.8-13.1-7.4-13.1s-7.4,4.8-7.4,13.1c0,8.3,2.8,13,7.4,13
			S445.8,1618.4,445.8,1610.1z"/>
		<path class="st2" d="M457.2,1622.7c-0.5,3.2-1.8,7.8-2.5,9.9h-2c0.4-2,1.2-5.9,1.7-9.8l0.2-1.7h2.9L457.2,1622.7z"/>
		<path class="st2" d="M475.5,1617.7h2.8c0.1,3.3,3.2,5.5,7,5.5c4.2,0,7.1-2.5,7.1-6c0-3.7-2.9-6.2-7.7-6.2h-1.8v-2.5h1.8
			c3.9,0,6.7-2.3,6.7-5.8c0-3.3-2.4-5.6-6-5.6c-3.5,0-6.4,2.2-6.5,5.5h-2.7c0.1-4.7,4.2-8,9.2-8c5.3,0,8.7,3.6,8.7,8
			c0,3.4-2,6-5.2,7v0.2c3.8,0.8,6.2,3.6,6.2,7.4c0,4.8-4.1,8.5-9.8,8.5C479.7,1625.6,475.7,1622.4,475.5,1617.7z"/>
		<path class="st2" d="M520.5,1608.8c0,9.9-3.4,16.8-10.4,16.8c-4.9,0-8.2-3.3-8.8-8h2.7c0.5,3.2,2.7,5.5,6.1,5.5
			c4.9,0,7.8-4.8,7.8-13.3h-0.2c-1.4,2.7-4.3,4.4-7.5,4.4c-5,0-9.2-4.2-9.2-9.8c0-5.4,3.8-9.9,9.6-9.8
			C515.5,1594.7,520.5,1598.3,520.5,1608.8z M503.6,1604.5c0,4.1,2.9,7.4,6.9,7.4c4,0,7.2-3.6,6.9-7.5c-0.3-4.1-3.1-7.2-6.9-7.2
			C506.6,1597.1,503.6,1600.4,503.6,1604.5z"/>
		<path class="st2" d="M529.5,1622.7c-0.5,3.2-1.8,7.8-2.5,9.9h-2c0.4-2,1.2-5.9,1.7-9.8l0.2-1.7h2.9L529.5,1622.7z"/>
		<path class="st2" d="M562.4,1597.7v-0.2h-15.8v-2.5h18.7v2.6l-13.7,27.6h-2.9L562.4,1597.7z"/>
		<path class="st2" d="M567.9,1616.5l13.5-21.5h3.3v21.2h4v2.5h-4v6.5h-2.6v-6.5h-14.1V1616.5z M581.9,1598.8h-0.2l-10.8,17.3v0.2
			h11V1598.8z"/>
	</g>
	<g>
		<path class="st2" d="M273.8,1842.4h5.5v12.8h14v-12.8h5.5v30.2h-5.5v-12.8h-14v12.8h-5.5V1842.4z"/>
		<path class="st2" d="M304.4,1842.4h19.6v4.6h-14.2v8.2h13.1v4.6h-13.1v8.2h14.3v4.6h-19.8V1842.4z"/>
		<path class="st2" d="M340.7,1853.5h0.2l6.7-11.1h6.2l-9.3,15.1l9.4,15.1h-6.3l-6.7-11h-0.2l-6.7,11h-6.3l9.5-15.1l-9.4-15.1h6.3
			L340.7,1853.5z"/>
		<path class="st2" d="M382.6,1863.9h-8.3l-1.4,8.7h-2.3l1.4-8.7h-4.8l0.4-2.3h4.8l1.4-8.2h-4.8l0.4-2.3h4.8l1.4-8.7h2.3l-1.4,8.7
			h8.3l1.4-8.7h2.3l-1.4,8.7h4.8l-0.4,2.3h-4.8l-1.4,8.2h4.8l-0.4,2.3h-4.8l-1.4,8.7h-2.3L382.6,1863.9z M383,1861.7l1.4-8.2H376
			l-1.4,8.2H383z"/>
		<path class="st2" d="M395.1,1857.5c0-9.7,3.8-15.5,10.1-15.5s10.1,5.8,10.1,15.5c0,9.8-3.7,15.5-10.1,15.5
			S395.1,1867.3,395.1,1857.5z M412.6,1857.5c0-8.3-2.8-13.1-7.4-13.1s-7.4,4.8-7.4,13.1c0,8.3,2.8,13,7.4,13
			S412.6,1865.8,412.6,1857.5z"/>
		<path class="st2" d="M420.4,1864.7c0-3.7,2.6-7,6-7.7v-0.2c-3-0.9-5-3.7-4.9-6.9c0-4.5,3.8-7.9,8.9-7.9c5,0,8.9,3.4,8.9,7.9
			c0,3.2-2,6.1-4.9,6.9v0.2c3.4,0.7,6,4,6,7.7c0,4.8-4.2,8.4-10,8.4C424.6,1873,420.4,1869.5,420.4,1864.7z M437.6,1864.6
			c0-3.6-3.1-6.3-7.3-6.3c-4.2,0-7.3,2.7-7.3,6.3c0,3.5,2.9,6,7.3,6C434.7,1870.6,437.6,1868.1,437.6,1864.6z M436.6,1850.1
			c0-3.3-2.6-5.6-6.2-5.6c-3.6,0-6.2,2.3-6.2,5.6c0,3.3,2.7,5.8,6.2,5.8C433.9,1855.9,436.6,1853.4,436.6,1850.1z"/>
		<path class="st2" d="M446.2,1870.6l9.9-11.1c3.8-4.3,5.4-6.5,5.4-9.3c0-3.4-2.7-5.7-6.2-5.7c-3.7,0-6.2,2.6-6.2,6.2h-2.6
			c0-5,3.8-8.6,8.9-8.6c5.1,0,8.7,3.6,8.7,8.2c0,3.3-1.5,5.9-6.5,11.4l-7.5,8.4v0.2H465v2.5h-18.8V1870.6z"/>
		<path class="st2" d="M490.4,1856.2c0,9.9-3.4,16.8-10.4,16.8c-4.9,0-8.2-3.3-8.8-8h2.7c0.5,3.2,2.7,5.5,6.1,5.5
			c4.9,0,7.8-4.8,7.8-13.3h-0.2c-1.4,2.7-4.3,4.4-7.5,4.4c-5,0-9.2-4.2-9.2-9.8c0-5.4,3.8-9.9,9.6-9.8
			C485.4,1842.1,490.4,1845.7,490.4,1856.2z M473.5,1851.9c0,4.1,2.9,7.4,6.9,7.4c4,0,7.2-3.6,6.9-7.5c-0.3-4.1-3.1-7.2-6.9-7.2
			C476.5,1844.5,473.5,1847.8,473.5,1851.9z"/>
		<path class="st2" d="M505.8,1872.6H503v-27.3h-0.2l-7.1,4.7v-2.9l7.1-4.7h2.9V1872.6z"/>
		<path class="st2" d="M533.8,1856.2c0,9.9-3.4,16.8-10.4,16.8c-4.9,0-8.2-3.3-8.8-8h2.7c0.5,3.2,2.7,5.5,6.1,5.5
			c4.9,0,7.8-4.8,7.8-13.3H531c-1.4,2.7-4.3,4.4-7.5,4.4c-5,0-9.2-4.2-9.2-9.8c0-5.4,3.8-9.9,9.6-9.8
			C528.8,1842.1,533.8,1845.7,533.8,1856.2z M516.9,1851.9c0,4.1,2.9,7.4,6.9,7.4c4,0,7.2-3.6,6.9-7.5c-0.3-4.1-3.1-7.2-6.9-7.2
			C519.9,1844.5,516.9,1847.8,516.9,1851.9z"/>
		<path class="st2" d="M278,1910.4h11.3c6.9,0,10.6,3.9,10.6,9.7c0,4.1-1.9,7.1-5.4,8.6l6.5,12H295l-5.9-11.1h-5.6v11.1H278V1910.4z
			 M288.5,1925c4.1,0,5.9-1.7,5.9-4.9c0-3.2-1.8-5.1-5.9-5.1h-5v10H288.5z"/>
		<path class="st2" d="M317.9,1914.9c-4.9,0-8.4,3.8-8.4,10.6c0,6.8,3.5,10.6,8.5,10.6c4.5,0,7.4-2.7,7.5-7h-7v-4.3h12.2v3.6
			c0,7.8-5.4,12.6-12.8,12.6c-8.3,0-14-5.9-14-15.5c0-9.7,5.9-15.5,13.8-15.5c6.7,0,11.8,4.1,12.7,10.1H325
			C324.1,1916.8,321.6,1914.9,317.9,1914.9z"/>
		<path class="st2" d="M335.9,1910.4h11.6c6.5,0,9.8,3.3,9.8,7.8c0,3.7-2.3,5.7-5.3,6.4v0.3c3.2,0.2,6.5,2.8,6.5,7.4
			c0,4.7-3.4,8.2-10.3,8.2h-12.2V1910.4z M346.8,1923.2c2.8,0,5-1.7,5-4.3c0-2.3-1.7-4-4.9-4h-5.5v8.3H346.8z M347.3,1936
			c4,0,5.6-1.7,5.6-4.1c0-2.7-2.1-4.8-5.5-4.8h-6v8.8H347.3z"/>
		<path class="st2" d="M374.2,1932.6c0-3.7,2.6-7,6-7.7v-0.2c-3-0.9-5-3.7-4.9-6.9c0-4.5,3.8-7.9,8.9-7.9c5,0,8.9,3.4,8.9,7.9
			c0,3.2-2,6.1-4.9,6.9v0.2c3.4,0.7,6,4,6,7.7c0,4.8-4.2,8.4-10,8.4C378.4,1941,374.2,1937.4,374.2,1932.6z M391.4,1932.5
			c0-3.6-3.1-6.3-7.3-6.3c-4.2,0-7.3,2.7-7.3,6.3c0,3.5,2.9,6,7.3,6C388.5,1938.5,391.4,1936,391.4,1932.5z M390.4,1918
			c0-3.3-2.6-5.6-6.2-5.6c-3.6,0-6.2,2.3-6.2,5.6c0,3.3,2.7,5.8,6.2,5.8C387.7,1923.8,390.4,1921.4,390.4,1918z"/>
		<path class="st2" d="M403.2,1938c-0.5,3.2-1.8,7.8-2.5,9.9h-2c0.4-2,1.2-5.9,1.7-9.8l0.2-1.7h2.9L403.2,1938z"/>
		<path class="st2" d="M420.8,1931.8l13.5-21.5h3.3v21.2h4v2.5h-4v6.5h-2.6v-6.5h-14.1V1931.8z M434.9,1914.1h-0.2l-10.8,17.3v0.2
			h11V1914.1z"/>
		<path class="st2" d="M456.2,1940.6h-2.8v-27.3h-0.2l-7.1,4.7v-2.9l7.1-4.7h2.9V1940.6z"/>
		<path class="st2" d="M467.6,1938c-0.5,3.2-1.8,7.8-2.5,9.9h-2c0.4-2,1.2-5.9,1.7-9.8l0.2-1.7h2.9L467.6,1938z"/>
		<path class="st2" d="M486,1938.5l9.9-11.1c3.8-4.3,5.4-6.5,5.4-9.3c0-3.4-2.7-5.7-6.2-5.7c-3.7,0-6.2,2.6-6.2,6.2h-2.6
			c0-5,3.8-8.6,8.9-8.6c5.1,0,8.7,3.6,8.7,8.2c0,3.3-1.5,5.9-6.5,11.4l-7.5,8.4v0.2h14.9v2.5H486V1938.5z"/>
		<path class="st2" d="M511,1933h2.7c0.2,3.2,2.8,5.5,6.2,5.5c4.1,0,7-3.2,7-7.4c0-4.4-3.1-7.5-7.1-7.5c-2,0-4.1,0.8-5.4,1.8
			l-2.8-0.4l1.8-14.7h14.9v2.5h-12.6l-1.2,10.1h0.1c1.3-1.1,3.3-1.9,5.5-1.9c5.3,0,9.4,4.1,9.4,10c0,5.7-4.1,9.9-9.6,9.9
			C514.9,1941,511.1,1937.6,511,1933z"/>
		<path class="st2" d="M237.9,1988.5c-0.6-3.6-3.5-5.7-7.2-5.7c-4.9,0-8.4,3.8-8.4,10.6c0,6.9,3.5,10.6,8.4,10.6
			c3.6,0,6.5-2,7.2-5.5l5.5,0c-0.8,5.8-5.6,10.4-12.8,10.4c-8,0-13.8-5.8-13.8-15.5c0-9.8,5.9-15.5,13.8-15.5
			c6.7,0,11.9,3.9,12.8,10.6H237.9z"/>
		<path class="st2" d="M254.9,1978.3l9,21.9h0.4l9-21.9h6.7v30.2h-5.2v-20.7h-0.3l-8.3,20.7h-3.9l-8.3-20.7h-0.3v20.8h-5.2v-30.2
			H254.9z"/>
		<path class="st2" d="M289.8,1978.3l7.4,13.4h0.3l7.4-13.4h6.2l-11,18.9v11.3h-5.5v-11.3l-11-18.9H289.8z"/>
		<path class="st2" d="M314.7,1978.3h5.5v13.9h0.4l11.8-13.9h6.7l-11.7,13.5l11.8,16.6h-6.6l-9-12.9l-3.3,4v9h-5.5V1978.3z"/>
		<path class="st2" d="M353.8,2000.5c0-3.7,2.6-7,6-7.7v-0.2c-3-0.9-5-3.7-4.9-6.9c0-4.5,3.8-7.9,8.9-7.9c5,0,8.9,3.4,8.9,7.9
			c0,3.2-2,6.1-4.9,6.9v0.2c3.4,0.7,6,4,6,7.7c0,4.8-4.2,8.4-10,8.4C358,2008.9,353.8,2005.3,353.8,2000.5z M371,2000.4
			c0-3.6-3.1-6.3-7.3-6.3c-4.2,0-7.3,2.7-7.3,6.3c0,3.5,2.9,6,7.3,6C368.1,2006.4,371,2003.9,371,2000.4z M370,1985.9
			c0-3.3-2.6-5.6-6.2-5.6c-3.6,0-6.2,2.3-6.2,5.6c0,3.3,2.7,5.8,6.2,5.8C367.3,1991.7,370,1989.3,370,1985.9z"/>
		<path class="st2" d="M378.9,1993.4c0-9.7,3.8-15.5,10.1-15.5s10.1,5.8,10.1,15.5c0,9.8-3.7,15.5-10.1,15.5
			S378.9,2003.2,378.9,1993.4z M396.4,1993.4c0-8.3-2.8-13.1-7.4-13.1s-7.4,4.8-7.4,13.1c0,8.3,2.8,13,7.4,13
			S396.4,2001.7,396.4,1993.4z"/>
		<path class="st2" d="M407.8,2005.9c-0.5,3.2-1.8,7.8-2.5,9.9h-2c0.4-2,1.2-5.9,1.7-9.8l0.2-1.7h2.9L407.8,2005.9z"/>
		<path class="st2" d="M425.5,1993.4c0-9.7,3.8-15.5,10.1-15.5s10.1,5.8,10.1,15.5c0,9.8-3.7,15.5-10.1,15.5
			S425.5,2003.2,425.5,1993.4z M443,1993.4c0-8.3-2.8-13.1-7.4-13.1s-7.4,4.8-7.4,13.1c0,8.3,2.8,13,7.4,13S443,2001.7,443,1993.4z"
			/>
		<path class="st2" d="M454.4,2005.9c-0.5,3.2-1.8,7.8-2.5,9.9h-2c0.4-2,1.2-5.9,1.7-9.8l0.2-1.7h2.9L454.4,2005.9z"/>
		<path class="st2" d="M472.7,2000.9h2.8c0.1,3.3,3.2,5.5,7,5.5c4.2,0,7.1-2.5,7.1-6c0-3.7-2.9-6.2-7.7-6.2h-1.8v-2.5h1.8
			c3.9,0,6.7-2.3,6.7-5.8c0-3.3-2.4-5.6-6-5.6c-3.5,0-6.4,2.2-6.5,5.5h-2.7c0.1-4.7,4.2-8,9.2-8c5.3,0,8.7,3.6,8.7,8
			c0,3.4-2,6-5.2,7v0.2c3.8,0.8,6.2,3.6,6.2,7.4c0,4.8-4.1,8.5-9.8,8.5C476.9,2008.9,472.9,2005.6,472.7,2000.9z"/>
		<path class="st2" d="M517.7,1992.1c0,9.9-3.4,16.8-10.4,16.8c-4.9,0-8.2-3.3-8.8-8h2.7c0.5,3.2,2.7,5.5,6.1,5.5
			c4.9,0,7.8-4.8,7.8-13.3h-0.2c-1.4,2.7-4.3,4.4-7.5,4.4c-5,0-9.2-4.2-9.2-9.8c0-5.4,3.8-9.9,9.6-9.8
			C512.7,1977.9,517.7,1981.5,517.7,1992.1z M500.8,1987.7c0,4.1,2.9,7.4,6.9,7.4c4,0,7.2-3.6,6.9-7.5c-0.3-4.1-3.1-7.2-6.9-7.2
			C503.8,1980.4,500.8,1983.7,500.8,1987.7z"/>
		<path class="st2" d="M526.7,2005.9c-0.5,3.2-1.8,7.8-2.5,9.9h-2c0.4-2,1.2-5.9,1.7-9.8l0.2-1.7h2.9L526.7,2005.9z"/>
		<path class="st2" d="M544.4,2000.5c0-3.7,2.6-7,6-7.7v-0.2c-3-0.9-5-3.7-4.9-6.9c0-4.5,3.8-7.9,8.9-7.9c5,0,8.9,3.4,8.9,7.9
			c0,3.2-2,6.1-4.9,6.9v0.2c3.4,0.7,6,4,6,7.7c0,4.8-4.2,8.4-10,8.4C548.6,2008.9,544.4,2005.3,544.4,2000.5z M561.6,2000.4
			c0-3.6-3.1-6.3-7.3-6.3c-4.2,0-7.3,2.7-7.3,6.3c0,3.5,2.9,6,7.3,6C558.7,2006.4,561.6,2003.9,561.6,2000.4z M560.6,1985.9
			c0-3.3-2.6-5.6-6.2-5.6c-3.6,0-6.2,2.3-6.2,5.6c0,3.3,2.7,5.8,6.2,5.8C557.9,1991.7,560.6,1989.3,560.6,1985.9z"/>
		<path class="st2" d="M569.5,1999.8l13.5-21.5h3.3v21.2h4v2.5h-4v6.5h-2.6v-6.5h-14.1V1999.8z M583.6,1982.1h-0.2l-10.8,17.3v0.2
			h11V1982.1z"/>
	</g>
	<g>
		<path class="st2" d="M1074.1,1459.2h5.5v12.8h14v-12.8h5.5v30.2h-5.5v-12.8h-14v12.8h-5.5V1459.2z"/>
		<path class="st2" d="M1104.8,1459.2h19.6v4.6h-14.2v8.2h13.1v4.6h-13.1v8.2h14.3v4.6h-19.8V1459.2z"/>
		<path class="st2" d="M1141,1470.2h0.2l6.7-11.1h6.2l-9.3,15.1l9.4,15.1h-6.3l-6.7-11h-0.2l-6.7,11h-6.3l9.5-15.1l-9.4-15.1h6.3
			L1141,1470.2z"/>
		<path class="st2" d="M1183,1480.7h-8.3l-1.4,8.7h-2.3l1.4-8.7h-4.8l0.4-2.3h4.8l1.4-8.2h-4.8l0.4-2.3h4.8l1.4-8.7h2.3l-1.4,8.7
			h8.3l1.4-8.7h2.3l-1.4,8.7h4.8l-0.4,2.3h-4.8l-1.4,8.2h4.8l-0.4,2.3h-4.8l-1.4,8.7h-2.3L1183,1480.7z M1183.4,1478.4l1.4-8.2h-8.3
			l-1.4,8.2H1183.4z"/>
		<path class="st2" d="M1215.2,1473c0,9.9-3.4,16.8-10.4,16.8c-4.9,0-8.2-3.3-8.8-8h2.7c0.5,3.2,2.7,5.5,6.1,5.5
			c4.9,0,7.8-4.8,7.8-13.3h-0.2c-1.4,2.7-4.3,4.4-7.5,4.4c-5,0-9.2-4.2-9.2-9.8c0-5.4,3.8-9.9,9.6-9.8
			C1210.2,1458.8,1215.2,1462.4,1215.2,1473z M1198.3,1468.6c0,4.1,2.9,7.4,6.9,7.4c4,0,7.2-3.6,6.9-7.5c-0.3-4.1-3.1-7.2-6.9-7.2
			C1201.3,1461.2,1198.3,1464.5,1198.3,1468.6z"/>
		<path class="st2" d="M1242.8,1468.6c-0.8-4.1-4.5-7.3-9.2-7.3c-5.7,0-10.4,4.6-10.4,12.9c0,8.4,4.7,12.9,10.4,12.9
			c4.7,0,8.3-3.1,9.2-7.3h2.8c-1,5.5-5.5,9.8-12,9.8c-7.6,0-13-6.1-13-15.5s5.4-15.5,13-15.5c6.4,0,11,4.3,12,9.8H1242.8z"/>
		<path class="st2" d="M1265.8,1461.8v-0.2h-15.8v-2.5h18.7v2.6l-13.7,27.6h-2.9L1265.8,1461.8z"/>
		<path class="st2" d="M1295.9,1468.6c-0.8-4.1-4.5-7.3-9.2-7.3c-5.7,0-10.4,4.6-10.4,12.9c0,8.4,4.7,12.9,10.4,12.9
			c4.7,0,8.3-3.1,9.2-7.3h2.8c-1,5.5-5.5,9.8-12,9.8c-7.6,0-13-6.1-13-15.5s5.4-15.5,13-15.5c6.4,0,11,4.3,12,9.8H1295.9z"/>
		<path class="st2" d="M1303.5,1480.6l13.5-21.5h3.3v21.2h4v2.5h-4v6.5h-2.6v-6.5h-14.1V1480.6z M1317.6,1462.9h-0.2l-10.8,17.3v0.2
			h11V1462.9z"/>
		<path class="st2" d="M1330.7,1459.2h17.5v2.5h-14.7v11.4h13.3v2.5h-13.3v13.9h-2.8V1459.2z"/>
		<path class="st2" d="M1052.4,1527.1h11.3c6.9,0,10.6,3.9,10.6,9.7c0,4.1-1.9,7.1-5.4,8.6l6.5,12h-6.1l-5.9-11.1h-5.6v11.1h-5.5
			V1527.1z M1062.9,1541.7c4.1,0,5.9-1.7,5.9-4.9c0-3.2-1.8-5.1-5.9-5.1h-5v10H1062.9z"/>
		<path class="st2" d="M1092.4,1531.6c-4.9,0-8.4,3.8-8.4,10.6c0,6.8,3.5,10.6,8.5,10.6c4.5,0,7.4-2.7,7.5-7h-7v-4.3h12.2v3.6
			c0,7.8-5.4,12.6-12.8,12.6c-8.3,0-14-5.9-14-15.5c0-9.7,5.9-15.5,13.8-15.5c6.7,0,11.8,4.1,12.7,10.1h-5.6
			C1098.5,1533.5,1096,1531.6,1092.4,1531.6z"/>
		<path class="st2" d="M1110.4,1527.1h11.6c6.5,0,9.8,3.3,9.8,7.8c0,3.7-2.3,5.7-5.3,6.4v0.3c3.2,0.2,6.5,2.8,6.5,7.4
			c0,4.7-3.4,8.2-10.3,8.2h-12.2V1527.1z M1121.2,1539.9c2.8,0,5-1.7,5-4.3c0-2.3-1.7-4-4.9-4h-5.5v8.3H1121.2z M1121.7,1552.7
			c4,0,5.6-1.7,5.6-4.1c0-2.7-2.1-4.8-5.5-4.8h-6v8.8H1121.7z"/>
		<path class="st2" d="M1158.6,1557.3h-2.8V1530h-0.2l-7.1,4.7v-2.9l7.1-4.7h2.9V1557.3z"/>
		<path class="st2" d="M1167.5,1549.7h2.7c0.2,3.2,2.8,5.5,6.2,5.5c4.1,0,7-3.2,7-7.4c0-4.4-3.1-7.5-7.1-7.5c-2,0-4.1,0.8-5.4,1.8
			l-2.8-0.4l1.8-14.7h14.9v2.5h-12.6l-1.2,10.1h0.1c1.3-1.1,3.3-1.9,5.5-1.9c5.3,0,9.4,4.1,9.4,10c0,5.7-4.1,9.9-9.6,9.9
			C1171.4,1557.7,1167.6,1554.4,1167.5,1549.7z"/>
		<path class="st2" d="M1191.6,1543.5c0-9.8,3.4-16.8,10.4-16.8c4.9,0,8.2,3.3,8.8,8h-2.7c-0.6-3.2-2.7-5.5-6.1-5.5
			c-5,0-7.8,4.8-7.8,13.2h0.2c1.4-2.7,4.3-4.4,7.5-4.4c5,0,9.2,4.2,9.2,9.8c0,5.4-3.8,9.9-9.6,9.9
			C1196.6,1557.7,1191.6,1554.1,1191.6,1543.5z M1208.5,1547.8c0-4.1-3-7.4-6.9-7.4c-4,0-7.2,3.6-6.9,7.5c0.3,4.2,3.1,7.3,6.9,7.3
			C1205.5,1555.2,1208.5,1551.9,1208.5,1547.8z"/>
		<path class="st2" d="M1220,1554.7c-0.5,3.2-1.8,7.8-2.5,9.9h-2c0.4-2,1.2-5.9,1.7-9.8l0.2-1.7h2.9L1220,1554.7z"/>
		<path class="st2" d="M1247.6,1557.3h-2.8V1530h-0.2l-7.1,4.7v-2.9l7.1-4.7h2.9V1557.3z"/>
		<path class="st2" d="M1256.6,1555.3l9.9-11.1c3.8-4.3,5.4-6.5,5.4-9.3c0-3.4-2.7-5.7-6.2-5.7c-3.7,0-6.2,2.6-6.2,6.2h-2.6
			c0-5,3.8-8.6,8.9-8.6c5.1,0,8.7,3.6,8.7,8.2c0,3.3-1.5,5.9-6.5,11.4l-7.5,8.4v0.2h14.9v2.5h-18.8V1555.3z"/>
		<path class="st2" d="M1280.4,1548.6l13.5-21.5h3.3v21.2h4v2.5h-4v6.5h-2.6v-6.5h-14.1V1548.6z M1294.5,1530.9h-0.2l-10.8,17.3v0.2
			h11V1530.9z"/>
		<path class="st2" d="M1309.7,1554.7c-0.5,3.2-1.8,7.8-2.5,9.9h-2c0.4-2,1.2-5.9,1.7-9.8l0.2-1.7h2.9L1309.7,1554.7z"/>
		<path class="st2" d="M1342.7,1529.8v-0.2h-15.8v-2.5h18.7v2.6l-13.7,27.6h-2.9L1342.7,1529.8z"/>
		<path class="st2" d="M1369.8,1540.9c0,9.9-3.4,16.8-10.4,16.8c-4.9,0-8.2-3.3-8.8-8h2.7c0.5,3.2,2.7,5.5,6.1,5.5
			c4.9,0,7.8-4.8,7.8-13.3h-0.2c-1.4,2.7-4.3,4.4-7.5,4.4c-5,0-9.2-4.2-9.2-9.8c0-5.4,3.8-9.9,9.6-9.8
			C1364.9,1526.7,1369.8,1530.3,1369.8,1540.9z M1353,1536.5c0,4.1,2.9,7.4,6.9,7.4c4,0,7.2-3.6,6.9-7.5c-0.3-4.1-3.1-7.2-6.9-7.2
			C1355.9,1529.2,1353,1532.5,1353,1536.5z"/>
		<path class="st2" d="M1049.1,1605.2c-0.6-3.6-3.5-5.7-7.2-5.7c-4.9,0-8.4,3.8-8.4,10.6c0,6.9,3.5,10.6,8.4,10.6
			c3.6,0,6.5-2,7.2-5.5l5.5,0c-0.8,5.8-5.6,10.4-12.8,10.4c-8,0-13.8-5.8-13.8-15.5c0-9.8,5.9-15.5,13.8-15.5
			c6.7,0,11.9,3.9,12.8,10.6H1049.1z"/>
		<path class="st2" d="M1066.1,1595l9,21.9h0.4l9-21.9h6.7v30.2h-5.2v-20.7h-0.3l-8.3,20.7h-3.9l-8.3-20.7h-0.3v20.8h-5.2V1595
			H1066.1z"/>
		<path class="st2" d="M1100.9,1595l7.4,13.4h0.3l7.4-13.4h6.2l-11,18.9v11.3h-5.5V1614l-11-18.9H1100.9z"/>
		<path class="st2" d="M1125.9,1595h5.5v13.9h0.4l11.8-13.9h6.7l-11.7,13.5l11.8,16.6h-6.6l-9-12.9l-3.3,4v9h-5.5V1595z"/>
		<path class="st2" d="M1164.9,1610.1c0-9.7,3.8-15.5,10.1-15.5c6.3,0,10.1,5.8,10.1,15.5c0,9.8-3.7,15.5-10.1,15.5
			C1168.6,1625.6,1164.9,1619.9,1164.9,1610.1z M1182.4,1610.1c0-8.3-2.8-13.1-7.4-13.1s-7.4,4.8-7.4,13.1c0,8.3,2.8,13,7.4,13
			C1179.6,1623.2,1182.4,1618.4,1182.4,1610.1z"/>
		<path class="st2" d="M1193.8,1622.7c-0.5,3.2-1.8,7.8-2.5,9.9h-2c0.4-2,1.2-5.9,1.7-9.8l0.2-1.7h2.9L1193.8,1622.7z"/>
		<path class="st2" d="M1212.2,1623.2l9.9-11.1c3.8-4.3,5.4-6.5,5.4-9.3c0-3.4-2.7-5.7-6.2-5.7c-3.7,0-6.2,2.6-6.2,6.2h-2.6
			c0-5,3.8-8.6,8.9-8.6c5.1,0,8.7,3.6,8.7,8.2c0,3.3-1.5,5.9-6.5,11.4l-7.5,8.4v0.2h14.9v2.5h-18.8V1623.2z"/>
		<path class="st2" d="M1246.6,1625.2h-2.8v-27.3h-0.2l-7.1,4.7v-2.9l7.1-4.7h2.9V1625.2z"/>
		<path class="st2" d="M1258,1622.7c-0.5,3.2-1.8,7.8-2.5,9.9h-2c0.4-2,1.2-5.9,1.7-9.8l0.2-1.7h2.9L1258,1622.7z"/>
		<path class="st2" d="M1275.6,1616.5l13.5-21.5h3.3v21.2h4v2.5h-4v6.5h-2.6v-6.5h-14.1V1616.5z M1289.7,1598.8h-0.2l-10.8,17.3v0.2
			h11V1598.8z"/>
		<path class="st2" d="M1321.2,1608.8c0,9.9-3.4,16.8-10.4,16.8c-4.9,0-8.2-3.3-8.8-8h2.7c0.5,3.2,2.7,5.5,6.1,5.5
			c4.9,0,7.8-4.8,7.8-13.3h-0.2c-1.4,2.7-4.3,4.4-7.5,4.4c-5,0-9.2-4.2-9.2-9.8c0-5.4,3.8-9.9,9.6-9.8
			C1316.3,1594.7,1321.2,1598.3,1321.2,1608.8z M1304.4,1604.5c0,4.1,2.9,7.4,6.9,7.4c4,0,7.2-3.6,6.9-7.5c-0.3-4.1-3.1-7.2-6.9-7.2
			C1307.3,1597.1,1304.4,1600.4,1304.4,1604.5z"/>
		<path class="st2" d="M1330.2,1622.7c-0.5,3.2-1.8,7.8-2.5,9.9h-2c0.4-2,1.2-5.9,1.7-9.8l0.2-1.7h2.9L1330.2,1622.7z"/>
		<path class="st2" d="M1348.5,1617.7h2.8c0.1,3.3,3.2,5.5,7,5.5c4.2,0,7.1-2.5,7.1-6c0-3.7-2.9-6.2-7.7-6.2h-1.8v-2.5h1.8
			c3.9,0,6.7-2.3,6.7-5.8c0-3.3-2.4-5.6-6-5.6c-3.5,0-6.4,2.2-6.5,5.5h-2.7c0.1-4.7,4.2-8,9.2-8c5.3,0,8.7,3.6,8.7,8
			c0,3.4-2,6-5.2,7v0.2c3.8,0.8,6.2,3.6,6.2,7.4c0,4.8-4.1,8.5-9.8,8.5C1352.8,1625.6,1348.7,1622.4,1348.5,1617.7z"/>
		<path class="st2" d="M1393.5,1608.8c0,9.9-3.4,16.8-10.4,16.8c-4.9,0-8.2-3.3-8.8-8h2.7c0.5,3.2,2.7,5.5,6.1,5.5
			c4.9,0,7.8-4.8,7.8-13.3h-0.2c-1.4,2.7-4.3,4.4-7.5,4.4c-5,0-9.2-4.2-9.2-9.8c0-5.4,3.8-9.9,9.6-9.8
			C1388.6,1594.7,1393.5,1598.3,1393.5,1608.8z M1376.7,1604.5c0,4.1,2.9,7.4,6.9,7.4c4,0,7.2-3.6,6.9-7.5c-0.3-4.1-3.1-7.2-6.9-7.2
			C1379.6,1597.1,1376.7,1600.4,1376.7,1604.5z"/>
	</g>
	<g>
		<path class="st2" d="M1076.2,1842.4h5.5v12.8h14v-12.8h5.5v30.2h-5.5v-12.8h-14v12.8h-5.5V1842.4z"/>
		<path class="st2" d="M1106.9,1842.4h19.6v4.6h-14.2v8.2h13.1v4.6h-13.1v8.2h14.3v4.6h-19.8V1842.4z"/>
		<path class="st2" d="M1143.1,1853.5h0.2l6.7-11.1h6.2l-9.3,15.1l9.4,15.1h-6.3l-6.7-11h-0.2l-6.7,11h-6.3l9.5-15.1l-9.4-15.1h6.3
			L1143.1,1853.5z"/>
		<path class="st2" d="M1185.1,1863.9h-8.3l-1.4,8.7h-2.3l1.4-8.7h-4.8l0.4-2.3h4.8l1.4-8.2h-4.8l0.4-2.3h4.8l1.4-8.7h2.3l-1.4,8.7
			h8.3l1.4-8.7h2.3l-1.4,8.7h4.8l-0.4,2.3h-4.8l-1.4,8.2h4.8l-0.4,2.3h-4.8l-1.4,8.7h-2.3L1185.1,1863.9z M1185.4,1861.7l1.4-8.2
			h-8.3l-1.4,8.2H1185.4z"/>
		<path class="st2" d="M1212.8,1845.1v-0.2H1197v-2.5h18.7v2.6l-13.7,27.6h-2.9L1212.8,1845.1z"/>
		<path class="st2" d="M1220.9,1865.1h2.7c0.2,3.2,2.8,5.5,6.2,5.5c4.1,0,7-3.2,7-7.4c0-4.4-3.1-7.5-7.1-7.5c-2,0-4.1,0.8-5.4,1.8
			l-2.8-0.4l1.8-14.7h14.9v2.5h-12.6l-1.2,10.1h0.1c1.3-1.1,3.3-1.9,5.5-1.9c5.3,0,9.4,4.1,9.4,10c0,5.7-4.1,9.9-9.6,9.9
			C1224.8,1873,1221,1869.7,1220.9,1865.1z"/>
		<path class="st2" d="M1245.4,1865.1h2.7c0.2,3.2,2.8,5.5,6.2,5.5c4.1,0,7-3.2,7-7.4c0-4.4-3.1-7.5-7.1-7.5c-2,0-4.1,0.8-5.4,1.8
			l-2.8-0.4l1.8-14.7h14.9v2.5h-12.6l-1.2,10.1h0.1c1.3-1.1,3.3-1.9,5.5-1.9c5.3,0,9.4,4.1,9.4,10c0,5.7-4.1,9.9-9.6,9.9
			C1249.3,1873,1245.5,1869.7,1245.4,1865.1z"/>
		<path class="st2" d="M1270.6,1872.6v-30.2h9.4c8.6,0,13.7,5.6,13.7,15c0,9.5-5.2,15.2-14.3,15.2H1270.6z M1279.3,1870.2
			c7.8,0,11.8-4.8,11.8-12.7c0-7.8-3.9-12.5-11.2-12.5h-6.5v25.2H1279.3z"/>
		<path class="st2" d="M1299.5,1865.1h2.8c0.1,3.3,3.2,5.5,7,5.5c4.2,0,7.1-2.5,7.1-6c0-3.7-2.9-6.2-7.7-6.2h-1.8v-2.5h1.8
			c3.9,0,6.7-2.3,6.7-5.8c0-3.3-2.4-5.6-6-5.6c-3.5,0-6.4,2.2-6.5,5.5h-2.7c0.1-4.7,4.2-8,9.2-8c5.3,0,8.7,3.6,8.7,8
			c0,3.4-2,6-5.2,7v0.2c3.8,0.8,6.2,3.6,6.2,7.4c0,4.8-4.1,8.5-9.8,8.5C1303.8,1873,1299.7,1869.8,1299.5,1865.1z"/>
		<path class="st2" d="M1326.1,1842.4h10.2c5.9,0,8.9,3.4,8.9,7.9c0,3.8-2.1,5.9-4.8,6.6v0.2c2.9,0.2,6,3,6,7.5c0,4.6-3,7.9-9.5,7.9
			h-10.7V1842.4z M1336.5,1856.1c3.6,0,6-2.4,6-5.7c0-3.2-2.1-5.4-6.2-5.4h-7.4v11.2H1336.5z M1336.8,1870.2c4.7,0,6.8-2.3,6.8-5.4
			c0-3.4-2.7-6.2-6.7-6.2h-8.1v11.6H1336.8z"/>
		<path class="st2" d="M1066.1,1910.4h11.3c6.9,0,10.6,3.9,10.6,9.7c0,4.1-1.9,7.1-5.4,8.6l6.5,12h-6.1l-5.9-11.1h-5.6v11.1h-5.5
			V1910.4z M1076.7,1925c4.1,0,5.9-1.7,5.9-4.9c0-3.2-1.8-5.1-5.9-5.1h-5v10H1076.7z"/>
		<path class="st2" d="M1106.1,1914.9c-4.9,0-8.4,3.8-8.4,10.6c0,6.8,3.5,10.6,8.5,10.6c4.5,0,7.4-2.7,7.5-7h-7v-4.3h12.2v3.6
			c0,7.8-5.4,12.6-12.8,12.6c-8.3,0-14-5.9-14-15.5c0-9.7,5.9-15.5,13.8-15.5c6.7,0,11.8,4.1,12.7,10.1h-5.6
			C1112.2,1916.8,1109.7,1914.9,1106.1,1914.9z"/>
		<path class="st2" d="M1124.1,1910.4h11.6c6.5,0,9.8,3.3,9.8,7.8c0,3.7-2.3,5.7-5.3,6.4v0.3c3.2,0.2,6.5,2.8,6.5,7.4
			c0,4.7-3.4,8.2-10.3,8.2h-12.2V1910.4z M1134.9,1923.2c2.8,0,5-1.7,5-4.3c0-2.3-1.7-4-4.9-4h-5.5v8.3H1134.9z M1135.4,1936
			c4,0,5.6-1.7,5.6-4.1c0-2.7-2.1-4.8-5.5-4.8h-6v8.8H1135.4z"/>
		<path class="st2" d="M1172.3,1940.6h-2.8v-27.3h-0.2l-7.1,4.7v-2.9l7.1-4.7h2.9V1940.6z"/>
		<path class="st2" d="M1190.6,1940.6h-2.8v-27.3h-0.2l-7.1,4.7v-2.9l7.1-4.7h2.9V1940.6z"/>
		<path class="st2" d="M1214.2,1913v-0.2h-15.8v-2.5h18.7v2.6l-13.7,27.6h-2.9L1214.2,1913z"/>
		<path class="st2" d="M1221.8,1938c-0.5,3.2-1.8,7.8-2.5,9.9h-2c0.4-2,1.2-5.9,1.7-9.8l0.2-1.7h2.9L1221.8,1938z"/>
		<path class="st2" d="M1259.2,1924.2c0,9.9-3.4,16.8-10.4,16.8c-4.9,0-8.2-3.3-8.8-8h2.7c0.5,3.2,2.7,5.5,6.1,5.5
			c4.9,0,7.8-4.8,7.8-13.3h-0.2c-1.4,2.7-4.3,4.4-7.5,4.4c-5,0-9.2-4.2-9.2-9.8c0-5.4,3.8-9.9,9.6-9.8
			C1254.2,1910,1259.2,1913.6,1259.2,1924.2z M1242.3,1919.8c0,4.1,2.9,7.4,6.9,7.4c4,0,7.2-3.6,6.9-7.5c-0.3-4.1-3.1-7.2-6.9-7.2
			C1245.3,1912.4,1242.3,1915.7,1242.3,1919.8z"/>
		<path class="st2" d="M1265.2,1933h2.8c0.1,3.3,3.2,5.5,7,5.5c4.2,0,7.1-2.5,7.1-6c0-3.7-2.9-6.2-7.7-6.2h-1.8v-2.5h1.8
			c3.9,0,6.7-2.3,6.7-5.8c0-3.3-2.4-5.6-6-5.6c-3.5,0-6.4,2.2-6.5,5.5h-2.7c0.1-4.7,4.2-8,9.2-8c5.3,0,8.7,3.6,8.7,8
			c0,3.4-2,6-5.2,7v0.2c3.8,0.8,6.2,3.6,6.2,7.4c0,4.8-4.1,8.5-9.8,8.5C1269.4,1941,1265.3,1937.7,1265.2,1933z"/>
		<path class="st2" d="M1294.2,1938c-0.5,3.2-1.8,7.8-2.5,9.9h-2c0.4-2,1.2-5.9,1.7-9.8l0.2-1.7h2.9L1294.2,1938z"/>
		<path class="st2" d="M1312.5,1933h2.7c0.2,3.2,2.8,5.5,6.2,5.5c4.1,0,7-3.2,7-7.4c0-4.4-3.1-7.5-7.1-7.5c-2,0-4.1,0.8-5.4,1.8
			l-2.8-0.4l1.8-14.7h14.9v2.5h-12.6l-1.2,10.1h0.1c1.3-1.1,3.3-1.9,5.5-1.9c5.3,0,9.4,4.1,9.4,10c0,5.7-4.1,9.9-9.6,9.9
			C1316.4,1941,1312.6,1937.6,1312.5,1933z"/>
		<path class="st2" d="M1356.1,1924.2c0,9.9-3.4,16.8-10.4,16.8c-4.9,0-8.2-3.3-8.8-8h2.7c0.5,3.2,2.7,5.5,6.1,5.5
			c4.9,0,7.8-4.8,7.8-13.3h-0.2c-1.4,2.7-4.3,4.4-7.5,4.4c-5,0-9.2-4.2-9.2-9.8c0-5.4,3.8-9.9,9.6-9.8
			C1351.2,1910,1356.1,1913.6,1356.1,1924.2z M1339.3,1919.8c0,4.1,2.9,7.4,6.9,7.4c4,0,7.2-3.6,6.9-7.5c-0.3-4.1-3.1-7.2-6.9-7.2
			C1342.2,1912.4,1339.3,1915.7,1339.3,1919.8z"/>
		<path class="st2" d="M1050,1988.5c-0.6-3.6-3.5-5.7-7.2-5.7c-4.9,0-8.4,3.8-8.4,10.6c0,6.9,3.5,10.6,8.4,10.6c3.6,0,6.5-2,7.2-5.5
			l5.5,0c-0.8,5.8-5.6,10.4-12.8,10.4c-8,0-13.8-5.8-13.8-15.5c0-9.8,5.9-15.5,13.8-15.5c6.7,0,11.9,3.9,12.8,10.6H1050z"/>
		<path class="st2" d="M1067,1978.3l9,21.9h0.4l9-21.9h6.7v30.2h-5.2v-20.7h-0.3l-8.3,20.7h-3.9l-8.3-20.7h-0.3v20.8h-5.2v-30.2
			H1067z"/>
		<path class="st2" d="M1101.8,1978.3l7.4,13.4h0.3l7.4-13.4h6.2l-11,18.9v11.3h-5.5v-11.3l-11-18.9H1101.8z"/>
		<path class="st2" d="M1126.8,1978.3h5.5v13.9h0.4l11.8-13.9h6.7l-11.7,13.5l11.8,16.6h-6.6l-9-12.9l-3.3,4v9h-5.5V1978.3z"/>
		<path class="st2" d="M1165.8,1993.4c0-9.7,3.8-15.5,10.1-15.5s10.1,5.8,10.1,15.5c0,9.8-3.7,15.5-10.1,15.5
			S1165.8,2003.2,1165.8,1993.4z M1183.3,1993.4c0-8.3-2.8-13.1-7.4-13.1s-7.4,4.8-7.4,13.1c0,8.3,2.8,13,7.4,13
			S1183.3,2001.7,1183.3,1993.4z"/>
		<path class="st2" d="M1194.7,2005.9c-0.5,3.2-1.8,7.8-2.5,9.9h-2c0.4-2,1.2-5.9,1.7-9.8l0.2-1.7h2.9L1194.7,2005.9z"/>
		<path class="st2" d="M1213.1,2006.5l9.9-11.1c3.8-4.3,5.4-6.5,5.4-9.3c0-3.4-2.7-5.7-6.2-5.7c-3.7,0-6.2,2.6-6.2,6.2h-2.6
			c0-5,3.8-8.6,8.9-8.6c5.1,0,8.7,3.6,8.7,8.2c0,3.3-1.5,5.9-6.5,11.4l-7.5,8.4v0.2h14.9v2.5h-18.8V2006.5z"/>
		<path class="st2" d="M1247.5,2008.5h-2.8v-27.3h-0.2l-7.1,4.7v-2.9l7.1-4.7h2.9V2008.5z"/>
		<path class="st2" d="M1258.9,2005.9c-0.5,3.2-1.8,7.8-2.5,9.9h-2c0.4-2,1.2-5.9,1.7-9.8l0.2-1.7h2.9L1258.9,2005.9z"/>
		<path class="st2" d="M1277.2,2000.9h2.7c0.2,3.2,2.8,5.5,6.2,5.5c4.1,0,7-3.2,7-7.4c0-4.4-3.1-7.5-7.1-7.5c-2,0-4.1,0.8-5.4,1.8
			l-2.8-0.4l1.8-14.7h14.9v2.5h-12.6l-1.2,10.1h0.1c1.3-1.1,3.3-1.9,5.5-1.9c5.3,0,9.4,4.1,9.4,10c0,5.7-4.1,9.9-9.6,9.9
			C1281.1,2008.9,1277.3,2005.6,1277.2,2000.9z"/>
		<path class="st2" d="M1301.1,1993.4c0-9.7,3.8-15.5,10.1-15.5c6.3,0,10.1,5.8,10.1,15.5c0,9.8-3.7,15.5-10.1,15.5
			C1304.8,2008.9,1301.1,2003.2,1301.1,1993.4z M1318.6,1993.4c0-8.3-2.8-13.1-7.4-13.1c-4.6,0-7.4,4.8-7.4,13.1
			c0,8.3,2.8,13,7.4,13C1315.8,2006.4,1318.6,2001.7,1318.6,1993.4z"/>
		<path class="st2" d="M1330,2005.9c-0.5,3.2-1.8,7.8-2.5,9.9h-2c0.4-2,1.2-5.9,1.7-9.8l0.2-1.7h2.9L1330,2005.9z"/>
		<path class="st2" d="M1348.3,2000.9h2.7c0.2,3.2,2.8,5.5,6.2,5.5c4.1,0,7-3.2,7-7.4c0-4.4-3.1-7.5-7.1-7.5c-2,0-4.1,0.8-5.4,1.8
			l-2.8-0.4l1.8-14.7h14.9v2.5H1353l-1.2,10.1h0.1c1.3-1.1,3.3-1.9,5.5-1.9c5.3,0,9.4,4.1,9.4,10c0,5.7-4.1,9.9-9.6,9.9
			C1352.2,2008.9,1348.4,2005.6,1348.3,2000.9z"/>
		<path class="st2" d="M1372.1,1999.8l13.5-21.5h3.3v21.2h4v2.5h-4v6.5h-2.6v-6.5h-14.1V1999.8z M1386.2,1982.1h-0.2l-10.8,17.3v0.2
			h11V1982.1z"/>
	</g>
	<g>
		<path class="st9" d="M2484.9,443.6h5.5v12.8h14v-12.8h5.5v30.2h-5.5V461h-14v12.8h-5.5V443.6z"/>
		<path class="st9" d="M2515.5,443.6h19.6v4.6H2521v8.2h13.1v4.6H2521v8.2h14.3v4.6h-19.8V443.6z"/>
		<path class="st9" d="M2551.8,454.7h0.2l6.7-11.1h6.2l-9.3,15.1l9.4,15.1h-6.3l-6.7-11h-0.2l-6.7,11h-6.3l9.5-15.1l-9.4-15.1h6.3
			L2551.8,454.7z"/>
		<path class="st9" d="M2593.7,465.1h-8.3l-1.4,8.7h-2.3l1.4-8.7h-4.8l0.4-2.3h4.8l1.4-8.2h-4.8l0.4-2.3h4.8l1.4-8.7h2.3l-1.4,8.7
			h8.3l1.4-8.7h2.3l-1.4,8.7h4.8l-0.4,2.3h-4.8l-1.4,8.2h4.8l-0.4,2.3h-4.8l-1.4,8.7h-2.3L2593.7,465.1z M2594.1,462.9l1.4-8.2h-8.3
			l-1.4,8.2H2594.1z"/>
		<path class="st9" d="M2607.5,443.6h17.5v2.5h-14.7v11.4h13.3v2.5h-13.3v13.9h-2.8V443.6z"/>
		<path class="st9" d="M2631.6,443.6h17.5v2.5h-14.7v11.4h13.3v2.5h-13.3v13.9h-2.8V443.6z"/>
		<path class="st9" d="M2655.8,443.6h17.5v2.5h-14.7v11.4h13.3v2.5h-13.3v13.9h-2.8V443.6z"/>
		<path class="st9" d="M2679.9,443.6h17.5v2.5h-14.7v11.4h13.3v2.5h-13.3v13.9h-2.8V443.6z"/>
		<path class="st9" d="M2704,443.6h17.5v2.5h-14.7v11.4h13.3v2.5h-13.3v13.9h-2.8V443.6z"/>
		<path class="st9" d="M2728.2,443.6h17.5v2.5h-14.7v11.4h13.3v2.5h-13.3v13.9h-2.8V443.6z"/>
		<path class="st9" d="M2437.3,511.6h11.3c6.9,0,10.6,3.9,10.6,9.7c0,4.1-1.9,7.1-5.4,8.6l6.5,12h-6.1l-5.9-11.1h-5.6v11.1h-5.5
			V511.6z M2447.8,526.2c4.1,0,5.9-1.7,5.9-4.9s-1.8-5.1-5.9-5.1h-5v10H2447.8z"/>
		<path class="st9" d="M2477.2,516.1c-4.9,0-8.4,3.8-8.4,10.6c0,6.8,3.5,10.6,8.5,10.6c4.5,0,7.4-2.7,7.5-7h-7V526h12.2v3.6
			c0,7.8-5.4,12.6-12.8,12.6c-8.3,0-14-5.9-14-15.5c0-9.7,5.9-15.5,13.8-15.5c6.7,0,11.8,4.1,12.7,10.1h-5.6
			C2483.3,518,2480.8,516.1,2477.2,516.1z"/>
		<path class="st9" d="M2495.2,511.6h11.6c6.5,0,9.8,3.3,9.8,7.8c0,3.7-2.3,5.7-5.3,6.4v0.3c3.2,0.2,6.5,2.8,6.5,7.4
			c0,4.7-3.4,8.2-10.3,8.2h-12.2V511.6z M2506.1,524.4c2.8,0,5-1.7,5-4.3c0-2.3-1.7-4-4.9-4h-5.5v8.3H2506.1z M2506.5,537.2
			c4,0,5.6-1.7,5.6-4.1c0-2.7-2.1-4.8-5.5-4.8h-6v8.8H2506.5z"/>
		<path class="st9" d="M2534.1,539.7l9.9-11.1c3.8-4.3,5.4-6.5,5.4-9.3c0-3.4-2.7-5.7-6.2-5.7c-3.7,0-6.2,2.6-6.2,6.2h-2.6
			c0-5,3.8-8.6,8.9-8.6c5.1,0,8.7,3.6,8.7,8.2c0,3.3-1.5,5.9-6.5,11.4l-7.5,8.4v0.2h14.9v2.5h-18.8V539.7z"/>
		<path class="st9" d="M2559.2,534.2h2.7c0.2,3.2,2.8,5.5,6.2,5.5c4.1,0,7-3.2,7-7.4c0-4.4-3.1-7.5-7.1-7.5c-2,0-4.1,0.8-5.4,1.8
			l-2.8-0.4l1.8-14.7h14.9v2.5h-12.6l-1.2,10.1h0.1c1.3-1.1,3.3-1.9,5.5-1.9c5.3,0,9.4,4.1,9.4,10c0,5.7-4.1,9.9-9.6,9.9
			C2563.1,542.2,2559.3,538.8,2559.2,534.2z"/>
		<path class="st9" d="M2583.7,534.2h2.7c0.2,3.2,2.8,5.5,6.2,5.5c4.1,0,7-3.2,7-7.4c0-4.4-3.1-7.5-7.1-7.5c-2,0-4.1,0.8-5.4,1.8
			l-2.8-0.4l1.8-14.7h14.9v2.5h-12.6l-1.2,10.1h0.1c1.3-1.1,3.3-1.9,5.5-1.9c5.3,0,9.4,4.1,9.4,10c0,5.7-4.1,9.9-9.6,9.9
			C2587.6,542.2,2583.8,538.8,2583.7,534.2z"/>
		<path class="st9" d="M2611.3,539.2c-0.5,3.2-1.8,7.8-2.5,9.9h-2c0.4-2,1.2-5.9,1.7-9.8l0.2-1.7h2.9L2611.3,539.2z"/>
		<path class="st9" d="M2629.6,539.7l9.9-11.1c3.8-4.3,5.4-6.5,5.4-9.3c0-3.4-2.7-5.7-6.2-5.7c-3.7,0-6.2,2.6-6.2,6.2h-2.6
			c0-5,3.8-8.6,8.9-8.6c5.1,0,8.7,3.6,8.7,8.2c0,3.3-1.5,5.9-6.5,11.4l-7.5,8.4v0.2h14.9v2.5h-18.8V539.7z"/>
		<path class="st9" d="M2654.7,534.2h2.7c0.2,3.2,2.8,5.5,6.2,5.5c4.1,0,7-3.2,7-7.4c0-4.4-3.1-7.5-7.1-7.5c-2,0-4.1,0.8-5.4,1.8
			l-2.8-0.4l1.8-14.7h14.9v2.5h-12.6l-1.2,10.1h0.1c1.3-1.1,3.3-1.9,5.5-1.9c5.3,0,9.4,4.1,9.4,10c0,5.7-4.1,9.9-9.6,9.9
			C2658.5,542.2,2654.8,538.8,2654.7,534.2z"/>
		<path class="st9" d="M2679.2,534.2h2.7c0.2,3.2,2.8,5.5,6.2,5.5c4.1,0,7-3.2,7-7.4c0-4.4-3.1-7.5-7.1-7.5c-2,0-4.1,0.8-5.4,1.8
			l-2.8-0.4l1.8-14.7h14.9v2.5h-12.6l-1.2,10.1h0.1c1.3-1.1,3.3-1.9,5.5-1.9c5.3,0,9.4,4.1,9.4,10c0,5.7-4.1,9.9-9.6,9.9
			C2683,542.2,2679.3,538.8,2679.2,534.2z"/>
		<path class="st9" d="M2706.7,539.2c-0.5,3.2-1.8,7.8-2.5,9.9h-2c0.4-2,1.2-5.9,1.7-9.8l0.2-1.7h2.9L2706.7,539.2z"/>
		<path class="st9" d="M2725.1,539.7l9.9-11.1c3.8-4.3,5.4-6.5,5.4-9.3c0-3.4-2.7-5.7-6.2-5.7c-3.7,0-6.2,2.6-6.2,6.2h-2.6
			c0-5,3.8-8.6,8.9-8.6c5.1,0,8.7,3.6,8.7,8.2c0,3.3-1.5,5.9-6.5,11.4l-7.5,8.4v0.2h14.9v2.5h-18.8V539.7z"/>
		<path class="st9" d="M2750.1,534.2h2.7c0.2,3.2,2.8,5.5,6.2,5.5c4.1,0,7-3.2,7-7.4c0-4.4-3.1-7.5-7.1-7.5c-2,0-4.1,0.8-5.4,1.8
			l-2.8-0.4l1.8-14.7h14.9v2.5h-12.6l-1.2,10.1h0.1c1.3-1.1,3.3-1.9,5.5-1.9c5.3,0,9.4,4.1,9.4,10c0,5.7-4.1,9.9-9.6,9.9
			C2754,542.2,2750.3,538.8,2750.1,534.2z"/>
		<path class="st9" d="M2774.7,534.2h2.7c0.2,3.2,2.8,5.5,6.2,5.5c4.1,0,7-3.2,7-7.4c0-4.4-3.1-7.5-7.1-7.5c-2,0-4.1,0.8-5.4,1.8
			l-2.8-0.4l1.8-14.7h14.9v2.5h-12.6l-1.2,10.1h0.1c1.3-1.1,3.3-1.9,5.5-1.9c5.3,0,9.4,4.1,9.4,10c0,5.7-4.1,9.9-9.6,9.9
			C2778.5,542.2,2774.8,538.8,2774.7,534.2z"/>
		<path class="st9" d="M2487.7,589.7c-0.6-3.6-3.5-5.7-7.2-5.7c-4.9,0-8.4,3.8-8.4,10.6c0,6.9,3.5,10.6,8.4,10.6
			c3.6,0,6.5-2,7.2-5.5l5.5,0c-0.8,5.8-5.6,10.4-12.8,10.4c-8,0-13.8-5.8-13.8-15.5c0-9.8,5.9-15.5,13.8-15.5
			c6.7,0,11.9,3.9,12.8,10.6H2487.7z"/>
		<path class="st9" d="M2504.7,579.5l9,21.9h0.4l9-21.9h6.7v30.2h-5.2v-20.7h-0.3l-8.3,20.7h-3.9l-8.3-20.7h-0.3v20.8h-5.2v-30.2
			H2504.7z"/>
		<path class="st9" d="M2539.5,579.5l7.4,13.4h0.3l7.4-13.4h6.2l-11,18.9v11.3h-5.5v-11.3l-11-18.9H2539.5z"/>
		<path class="st9" d="M2564.5,579.5h5.5v13.9h0.4l11.8-13.9h6.7l-11.7,13.5l11.8,16.6h-6.6l-9-12.9l-3.3,4v9h-5.5V579.5z"/>
		<path class="st9" d="M2603.5,594.6c0-9.7,3.8-15.5,10.1-15.5c6.3,0,10.1,5.8,10.1,15.5c0,9.8-3.7,15.5-10.1,15.5
			C2607.2,610.1,2603.5,604.4,2603.5,594.6z M2621,594.6c0-8.3-2.8-13.1-7.4-13.1c-4.6,0-7.4,4.8-7.4,13.1c0,8.3,2.8,13,7.4,13
			C2618.2,607.6,2621,602.9,2621,594.6z"/>
		<path class="st9" d="M2632.4,607.1c-0.5,3.2-1.8,7.8-2.5,9.9h-2c0.4-2,1.2-5.9,1.7-9.8l0.2-1.7h2.9L2632.4,607.1z"/>
		<path class="st9" d="M2650.1,594.6c0-9.7,3.8-15.5,10.1-15.5c6.3,0,10.1,5.8,10.1,15.5c0,9.8-3.7,15.5-10.1,15.5
			C2653.8,610.1,2650.1,604.4,2650.1,594.6z M2667.5,594.6c0-8.3-2.8-13.1-7.4-13.1c-4.6,0-7.4,4.8-7.4,13.1c0,8.3,2.8,13,7.4,13
			C2664.8,607.6,2667.5,602.9,2667.5,594.6z"/>
		<path class="st9" d="M2679,607.1c-0.5,3.2-1.8,7.8-2.5,9.9h-2c0.4-2,1.2-5.9,1.7-9.8l0.2-1.7h2.9L2679,607.1z"/>
		<path class="st9" d="M2696.6,594.6c0-9.7,3.8-15.5,10.1-15.5c6.3,0,10.1,5.8,10.1,15.5c0,9.8-3.7,15.5-10.1,15.5
			C2700.3,610.1,2696.6,604.4,2696.6,594.6z M2714.1,594.6c0-8.3-2.8-13.1-7.4-13.1c-4.6,0-7.4,4.8-7.4,13.1c0,8.3,2.8,13,7.4,13
			C2711.3,607.6,2714.1,602.9,2714.1,594.6z"/>
		<path class="st9" d="M2725.5,607.1c-0.5,3.2-1.8,7.8-2.5,9.9h-2c0.4-2,1.2-5.9,1.7-9.8l0.2-1.7h2.9L2725.5,607.1z"/>
		<path class="st9" d="M2743.2,594.6c0-9.7,3.8-15.5,10.1-15.5c6.3,0,10.1,5.8,10.1,15.5c0,9.8-3.7,15.5-10.1,15.5
			C2746.9,610.1,2743.2,604.4,2743.2,594.6z M2760.7,594.6c0-8.3-2.8-13.1-7.4-13.1c-4.6,0-7.4,4.8-7.4,13.1c0,8.3,2.8,13,7.4,13
			C2757.9,607.6,2760.7,602.9,2760.7,594.6z"/>
	</g>
	<g>
		<rect x="1611.2" y="1736.4" class="st10" width="620.7" height="386.3"/>
	</g>
	<g>
		<rect x="2230.2" y="1060.9" class="st9" width="769.8" height="1061.7"/>
	</g>
	<g>
		<path class="st2" d="M2481.6,1505h5.5v12.8h14V1505h5.5v30.2h-5.5v-12.8h-14v12.8h-5.5V1505z"/>
		<path class="st2" d="M2512.2,1505h19.6v4.6h-14.2v8.2h13.1v4.6h-13.1v8.2h14.3v4.6h-19.8V1505z"/>
		<path class="st2" d="M2548.5,1516h0.2l6.7-11.1h6.2l-9.3,15.1l9.4,15.1h-6.3l-6.7-11h-0.2l-6.7,11h-6.3l9.5-15.1l-9.4-15.1h6.3
			L2548.5,1516z"/>
		<path class="st2" d="M2590.4,1526.4h-8.3l-1.4,8.7h-2.3l1.4-8.7h-4.8l0.4-2.3h4.8l1.4-8.2h-4.8l0.4-2.3h4.8l1.4-8.7h2.3l-1.4,8.7
			h8.3l1.4-8.7h2.3l-1.4,8.7h4.8l-0.4,2.3h-4.8l-1.4,8.2h4.8l-0.4,2.3h-4.8l-1.4,8.7h-2.3L2590.4,1526.4z M2590.8,1524.2l1.4-8.2
			h-8.3l-1.4,8.2H2590.8z"/>
		<path class="st2" d="M2602.9,1520.1c0-9.7,3.8-15.5,10.1-15.5s10.1,5.8,10.1,15.5c0,9.8-3.7,15.5-10.1,15.5
			S2602.9,1529.8,2602.9,1520.1z M2620.4,1520.1c0-8.3-2.8-13.1-7.4-13.1c-4.6,0-7.4,4.8-7.4,13.1c0,8.3,2.8,13,7.4,13
			S2620.4,1528.3,2620.4,1520.1z"/>
		<path class="st2" d="M2628.2,1527.2c0-3.7,2.6-7,6-7.7v-0.2c-3-0.9-5-3.7-4.9-6.9c0-4.5,3.8-7.9,8.9-7.9c5,0,8.9,3.4,8.9,7.9
			c0,3.2-2,6.1-4.9,6.9v0.2c3.4,0.7,6,4,6,7.7c0,4.8-4.2,8.4-10,8.4C2632.4,1535.6,2628.2,1532,2628.2,1527.2z M2645.4,1527.1
			c0-3.6-3.1-6.3-7.3-6.3c-4.2,0-7.3,2.7-7.3,6.3c0,3.5,2.9,6,7.3,6C2642.5,1533.1,2645.4,1530.6,2645.4,1527.1z M2644.4,1512.6
			c0-3.3-2.6-5.6-6.2-5.6c-3.6,0-6.2,2.3-6.2,5.6c0,3.3,2.7,5.8,6.2,5.8C2641.7,1518.4,2644.4,1515.9,2644.4,1512.6z"/>
		<path class="st2" d="M2653.3,1520.1c0-9.7,3.8-15.5,10.1-15.5s10.1,5.8,10.1,15.5c0,9.8-3.7,15.5-10.1,15.5
			S2653.3,1529.8,2653.3,1520.1z M2670.8,1520.1c0-8.3-2.8-13.1-7.4-13.1c-4.6,0-7.4,4.8-7.4,13.1c0,8.3,2.8,13,7.4,13
			S2670.8,1528.3,2670.8,1520.1z"/>
		<path class="st2" d="M2678.7,1527.2c0-3.7,2.6-7,6-7.7v-0.2c-3-0.9-5-3.7-4.9-6.9c0-4.5,3.8-7.9,8.9-7.9c5,0,8.9,3.4,8.9,7.9
			c0,3.2-2,6.1-4.9,6.9v0.2c3.4,0.7,6,4,6,7.7c0,4.8-4.2,8.4-10,8.4C2682.8,1535.6,2678.6,1532,2678.7,1527.2z M2695.9,1527.1
			c0-3.6-3.1-6.3-7.3-6.3c-4.2,0-7.3,2.7-7.3,6.3c0,3.5,2.9,6,7.3,6C2692.9,1533.1,2695.9,1530.6,2695.9,1527.1z M2694.8,1512.6
			c0-3.3-2.6-5.6-6.2-5.6c-3.6,0-6.2,2.3-6.2,5.6c0,3.3,2.7,5.8,6.2,5.8C2692.1,1518.4,2694.8,1515.9,2694.8,1512.6z"/>
		<path class="st2" d="M2703.8,1520.1c0-9.7,3.8-15.5,10.1-15.5s10.1,5.8,10.1,15.5c0,9.8-3.7,15.5-10.1,15.5
			C2707.5,1535.6,2703.8,1529.8,2703.8,1520.1z M2721.3,1520.1c0-8.3-2.8-13.1-7.4-13.1c-4.6,0-7.4,4.8-7.4,13.1
			c0,8.3,2.8,13,7.4,13C2718.5,1533.1,2721.3,1528.3,2721.3,1520.1z"/>
		<path class="st2" d="M2729.1,1527.2c0-3.7,2.6-7,6-7.7v-0.2c-3-0.9-5-3.7-4.9-6.9c0-4.5,3.8-7.9,8.9-7.9c5,0,8.9,3.4,8.9,7.9
			c0,3.2-2,6.1-4.9,6.9v0.2c3.4,0.7,6,4,6,7.7c0,4.8-4.2,8.4-10,8.4C2733.3,1535.6,2729.1,1532,2729.1,1527.2z M2746.3,1527.1
			c0-3.6-3.1-6.3-7.3-6.3c-4.2,0-7.3,2.7-7.3,6.3c0,3.5,2.9,6,7.3,6C2743.4,1533.1,2746.3,1530.6,2746.3,1527.1z M2745.3,1512.6
			c0-3.3-2.6-5.6-6.2-5.6c-3.6,0-6.2,2.3-6.2,5.6c0,3.3,2.7,5.8,6.2,5.8C2742.6,1518.4,2745.3,1515.9,2745.3,1512.6z"/>
		<path class="st2" d="M2510.6,1572.9h11.3c6.9,0,10.6,3.9,10.6,9.7c0,4.1-1.9,7.1-5.4,8.6l6.5,12h-6.1l-5.9-11.1h-5.6v11.1h-5.5
			V1572.9z M2521.1,1587.5c4.1,0,5.9-1.7,5.9-4.9c0-3.2-1.8-5.1-5.9-5.1h-5v10H2521.1z"/>
		<path class="st2" d="M2550.5,1577.4c-4.9,0-8.4,3.8-8.4,10.6c0,6.8,3.5,10.6,8.5,10.6c4.5,0,7.4-2.7,7.5-7h-7v-4.3h12.2v3.6
			c0,7.8-5.4,12.6-12.8,12.6c-8.3,0-14-5.9-14-15.5c0-9.7,5.9-15.5,13.8-15.5c6.7,0,11.8,4.1,12.7,10.1h-5.6
			C2556.6,1579.3,2554.2,1577.4,2550.5,1577.4z"/>
		<path class="st2" d="M2568.5,1572.9h11.6c6.5,0,9.8,3.3,9.8,7.8c0,3.7-2.3,5.7-5.3,6.4v0.3c3.2,0.2,6.5,2.8,6.5,7.4
			c0,4.7-3.4,8.2-10.3,8.2h-12.2V1572.9z M2579.4,1585.7c2.8,0,5-1.7,5-4.3c0-2.3-1.7-4-4.9-4h-5.5v8.3H2579.4z M2579.9,1598.5
			c4,0,5.6-1.7,5.6-4.1c0-2.7-2.1-4.8-5.5-4.8h-6v8.8H2579.9z"/>
		<path class="st2" d="M2606.8,1595.1c0-3.7,2.6-7,6-7.7v-0.2c-3-0.9-5-3.7-4.9-6.9c0-4.5,3.8-7.9,8.9-7.9c5,0,8.9,3.4,8.9,7.9
			c0,3.2-2,6.1-4.9,6.9v0.2c3.4,0.7,6,4,6,7.7c0,4.8-4.2,8.4-10,8.4C2611,1603.5,2606.8,1599.9,2606.8,1595.1z M2624,1595
			c0-3.6-3.1-6.3-7.3-6.3c-4.2,0-7.3,2.7-7.3,6.3c0,3.5,2.9,6,7.3,6C2621.1,1601,2624,1598.5,2624,1595z M2623,1580.5
			c0-3.3-2.6-5.6-6.2-5.6c-3.6,0-6.2,2.3-6.2,5.6c0,3.3,2.7,5.8,6.2,5.8C2620.3,1586.3,2623,1583.9,2623,1580.5z"/>
		<path class="st2" d="M2635.7,1600.5c-0.5,3.2-1.8,7.8-2.5,9.9h-2c0.4-2,1.2-5.9,1.7-9.8l0.2-1.7h2.9L2635.7,1600.5z"/>
		<path class="st2" d="M2653.4,1595.1c0-3.7,2.6-7,6-7.7v-0.2c-3-0.9-5-3.7-4.9-6.9c0-4.5,3.8-7.9,8.9-7.9c5,0,8.9,3.4,8.9,7.9
			c0,3.2-2,6.1-4.9,6.9v0.2c3.4,0.7,6,4,6,7.7c0,4.8-4.2,8.4-10,8.4C2657.6,1603.5,2653.4,1599.9,2653.4,1595.1z M2670.7,1595
			c0-3.6-3.1-6.3-7.3-6.3c-4.2,0-7.3,2.7-7.3,6.3c0,3.5,2.9,6,7.3,6C2667.7,1601,2670.7,1598.5,2670.7,1595z M2669.6,1580.5
			c0-3.3-2.6-5.6-6.2-5.6c-3.6,0-6.2,2.3-6.2,5.6c0,3.3,2.7,5.8,6.2,5.8C2666.9,1586.3,2669.6,1583.9,2669.6,1580.5z"/>
		<path class="st2" d="M2682.4,1600.5c-0.5,3.2-1.8,7.8-2.5,9.9h-2c0.4-2,1.2-5.9,1.7-9.8l0.2-1.7h2.9L2682.4,1600.5z"/>
		<path class="st2" d="M2700.1,1595.1c0-3.7,2.6-7,6-7.7v-0.2c-3-0.9-5-3.7-4.9-6.9c0-4.5,3.8-7.9,8.9-7.9c5,0,8.9,3.4,8.9,7.9
			c0,3.2-2,6.1-4.9,6.9v0.2c3.4,0.7,6,4,6,7.7c0,4.8-4.2,8.4-10,8.4C2704.3,1603.5,2700.1,1599.9,2700.1,1595.1z M2717.3,1595
			c0-3.6-3.1-6.3-7.3-6.3c-4.2,0-7.3,2.7-7.3,6.3c0,3.5,2.9,6,7.3,6C2714.4,1601,2717.3,1598.5,2717.3,1595z M2716.3,1580.5
			c0-3.3-2.6-5.6-6.2-5.6c-3.6,0-6.2,2.3-6.2,5.6c0,3.3,2.7,5.8,6.2,5.8C2713.6,1586.3,2716.2,1583.9,2716.3,1580.5z"/>
		<path class="st2" d="M2476.6,1651c-0.6-3.6-3.5-5.7-7.2-5.7c-4.9,0-8.4,3.8-8.4,10.6c0,6.9,3.5,10.6,8.4,10.6c3.6,0,6.5-2,7.2-5.5
			l5.5,0c-0.8,5.8-5.6,10.4-12.8,10.4c-8,0-13.8-5.8-13.8-15.5c0-9.8,5.9-15.5,13.8-15.5c6.7,0,11.9,3.9,12.8,10.6H2476.6z"/>
		<path class="st2" d="M2493.6,1640.8l9,21.9h0.4l9-21.9h6.7v30.2h-5.2v-20.7h-0.3l-8.3,20.7h-3.9l-8.3-20.7h-0.3v20.8h-5.2v-30.2
			H2493.6z"/>
		<path class="st2" d="M2528.4,1640.8l7.4,13.4h0.3l7.4-13.4h6.2l-11,18.9v11.3h-5.5v-11.3l-11-18.9H2528.4z"/>
		<path class="st2" d="M2553.4,1640.8h5.5v13.9h0.4l11.8-13.9h6.7l-11.7,13.5l11.8,16.6h-6.6l-9-12.9l-3.3,4v9h-5.5V1640.8z"/>
		<path class="st2" d="M2592.4,1655.9c0-9.7,3.8-15.5,10.1-15.5s10.1,5.8,10.1,15.5c0,9.8-3.7,15.5-10.1,15.5
			S2592.4,1665.7,2592.4,1655.9z M2609.9,1655.9c0-8.3-2.8-13.1-7.4-13.1c-4.6,0-7.4,4.8-7.4,13.1c0,8.3,2.8,13,7.4,13
			S2609.9,1664.2,2609.9,1655.9z"/>
		<path class="st2" d="M2621.3,1668.5c-0.5,3.2-1.8,7.8-2.5,9.9h-2c0.4-2,1.2-5.9,1.7-9.8l0.2-1.7h2.9L2621.3,1668.5z"/>
		<path class="st2" d="M2639,1655.9c0-9.7,3.8-15.5,10.1-15.5s10.1,5.8,10.1,15.5c0,9.8-3.7,15.5-10.1,15.5S2639,1665.7,2639,1655.9
			z M2656.5,1655.9c0-8.3-2.8-13.1-7.4-13.1c-4.6,0-7.4,4.8-7.4,13.1c0,8.3,2.8,13,7.4,13S2656.5,1664.2,2656.5,1655.9z"/>
		<path class="st2" d="M2667.9,1668.5c-0.5,3.2-1.8,7.8-2.5,9.9h-2c0.4-2,1.2-5.9,1.7-9.8l0.2-1.7h2.9L2667.9,1668.5z"/>
		<path class="st2" d="M2685.5,1655.9c0-9.7,3.8-15.5,10.1-15.5s10.1,5.8,10.1,15.5c0,9.8-3.7,15.5-10.1,15.5
			S2685.5,1665.7,2685.5,1655.9z M2703,1655.9c0-8.3-2.8-13.1-7.4-13.1s-7.4,4.8-7.4,13.1c0,8.3,2.8,13,7.4,13
			S2703,1664.2,2703,1655.9z"/>
		<path class="st2" d="M2714.4,1668.5c-0.5,3.2-1.8,7.8-2.5,9.9h-2c0.4-2,1.2-5.9,1.7-9.8l0.2-1.7h2.9L2714.4,1668.5z"/>
		<path class="st2" d="M2751.9,1654.6c0,9.9-3.4,16.8-10.4,16.8c-4.9,0-8.2-3.3-8.8-8h2.7c0.5,3.2,2.7,5.5,6.1,5.5
			c4.9,0,7.8-4.8,7.8-13.3h-0.2c-1.4,2.7-4.3,4.4-7.5,4.4c-5,0-9.2-4.2-9.2-9.8c0-5.4,3.8-9.9,9.6-9.8
			C2746.9,1640.4,2751.9,1644,2751.9,1654.6z M2735,1650.2c0,4.1,2.9,7.4,6.9,7.4c4,0,7.2-3.6,6.9-7.5c-0.3-4.1-3.1-7.2-6.9-7.2
			C2737.9,1642.9,2735,1646.2,2735,1650.2z"/>
		<path class="st2" d="M2771.7,1643.5v-0.2h-15.8v-2.5h18.7v2.6l-13.7,27.6h-2.9L2771.7,1643.5z"/>
	</g>
	<g>
		<g>
			<path class="st2" d="M1788.5,1842.7h5.5v12.8h14v-12.8h5.5v30.2h-5.5v-12.8h-14v12.8h-5.5V1842.7z"/>
			<path class="st2" d="M1819.2,1842.7h19.6v4.6h-14.2v8.2h13.1v4.6h-13.1v8.2h14.3v4.6h-19.8V1842.7z"/>
			<path class="st2" d="M1855.4,1853.8h0.2l6.7-11.1h6.2l-9.3,15.1l9.4,15.1h-6.3l-6.7-11h-0.2l-6.7,11h-6.3l9.5-15.1l-9.4-15.1h6.3
				L1855.4,1853.8z"/>
			<path class="st2" d="M1897.4,1864.2h-8.3l-1.4,8.7h-2.3l1.4-8.7h-4.8l0.4-2.3h4.8l1.4-8.2h-4.8l0.4-2.3h4.8l1.4-8.7h2.3l-1.4,8.7
				h8.3l1.4-8.7h2.3l-1.4,8.7h4.8l-0.4,2.3h-4.8l-1.4,8.2h4.8l-0.4,2.3h-4.8l-1.4,8.7h-2.3L1897.4,1864.2z M1897.7,1861.9l1.4-8.2
				h-8.3l-1.4,8.2H1897.7z"/>
			<path class="st2" d="M1910.5,1865.3h2.8c0.1,3.3,3.2,5.5,7,5.5c4.2,0,7.1-2.5,7.1-6c0-3.7-2.9-6.2-7.7-6.2h-1.8v-2.5h1.8
				c3.9,0,6.7-2.3,6.7-5.8c0-3.3-2.4-5.6-6-5.6c-3.5,0-6.4,2.2-6.5,5.5h-2.7c0.1-4.7,4.2-8,9.2-8c5.3,0,8.7,3.6,8.7,8
				c0,3.4-2,6-5.2,7v0.2c3.8,0.8,6.2,3.6,6.2,7.4c0,4.8-4.1,8.5-9.8,8.5C1914.7,1873.3,1910.6,1870,1910.5,1865.3z"/>
			<path class="st2" d="M1955.5,1856.5c0,9.9-3.4,16.8-10.4,16.8c-4.9,0-8.2-3.3-8.8-8h2.7c0.5,3.2,2.7,5.5,6.1,5.5
				c4.9,0,7.8-4.8,7.8-13.3h-0.2c-1.4,2.7-4.3,4.4-7.5,4.4c-5,0-9.2-4.2-9.2-9.8c0-5.4,3.8-9.9,9.6-9.8
				C1950.5,1842.3,1955.5,1845.9,1955.5,1856.5z M1938.6,1852.1c0,4.1,2.9,7.4,6.9,7.4c4,0,7.2-3.6,6.9-7.5
				c-0.3-4.1-3.1-7.2-6.9-7.2C1941.5,1844.8,1938.6,1848.1,1938.6,1852.1z"/>
			<path class="st2" d="M1961.5,1865.3h2.8c0.1,3.3,3.2,5.5,7,5.5c4.2,0,7.1-2.5,7.1-6c0-3.7-2.9-6.2-7.7-6.2h-1.8v-2.5h1.8
				c3.9,0,6.7-2.3,6.7-5.8c0-3.3-2.4-5.6-6-5.6c-3.5,0-6.4,2.2-6.5,5.5h-2.7c0.1-4.7,4.2-8,9.2-8c5.3,0,8.7,3.6,8.7,8
				c0,3.4-2,6-5.2,7v0.2c3.8,0.8,6.2,3.6,6.2,7.4c0,4.8-4.1,8.5-9.8,8.5C1965.7,1873.3,1961.6,1870,1961.5,1865.3z"/>
			<path class="st2" d="M2002,1845.4v-0.2h-15.8v-2.5h18.7v2.6l-13.7,27.6h-2.9L2002,1845.4z"/>
			<path class="st2" d="M2009.9,1865.3h2.8c0.1,3.3,3.2,5.5,7,5.5c4.2,0,7.1-2.5,7.1-6c0-3.7-2.9-6.2-7.7-6.2h-1.8v-2.5h1.8
				c3.9,0,6.7-2.3,6.7-5.8c0-3.3-2.4-5.6-6-5.6c-3.5,0-6.4,2.2-6.5,5.5h-2.7c0.1-4.7,4.2-8,9.2-8c5.3,0,8.7,3.6,8.7,8
				c0,3.4-2,6-5.2,7v0.2c3.8,0.8,6.2,3.6,6.2,7.4c0,4.8-4.1,8.5-9.8,8.5C2014.1,1873.3,2010,1870,2009.9,1865.3z"/>
			<path class="st2" d="M2035.3,1859c0-9.8,3.4-16.8,10.4-16.8c4.9,0,8.2,3.3,8.8,8h-2.7c-0.6-3.2-2.7-5.5-6.1-5.5
				c-5,0-7.8,4.8-7.8,13.2h0.2c1.4-2.7,4.3-4.4,7.5-4.4c5,0,9.2,4.2,9.2,9.8c0,5.4-3.8,9.9-9.6,9.9
				C2040.3,1873.3,2035.3,1869.7,2035.3,1859z M2052.2,1863.4c0-4.1-3-7.4-6.9-7.4c-4,0-7.2,3.6-6.9,7.5c0.3,4.2,3.1,7.3,6.9,7.3
				C2049.2,1870.8,2052.2,1867.5,2052.2,1863.4z"/>
			<path class="st2" d="M1783.4,1910.6h11.3c6.9,0,10.6,3.9,10.6,9.7c0,4.1-1.9,7.1-5.4,8.6l6.5,12h-6.1l-5.9-11.1h-5.6v11.1h-5.5
				V1910.6z M1793.9,1925.2c4.1,0,5.9-1.7,5.9-4.9c0-3.2-1.8-5.1-5.9-5.1h-5v10H1793.9z"/>
			<path class="st2" d="M1823.3,1915.1c-4.9,0-8.4,3.8-8.4,10.6c0,6.8,3.5,10.6,8.5,10.6c4.5,0,7.4-2.7,7.5-7h-7v-4.3h12.2v3.6
				c0,7.8-5.4,12.6-12.8,12.6c-8.3,0-14-5.9-14-15.5c0-9.7,5.9-15.5,13.8-15.5c6.7,0,11.8,4.1,12.7,10.1h-5.6
				C1829.5,1917.1,1827,1915.1,1823.3,1915.1z"/>
			<path class="st2" d="M1841.3,1910.6h11.6c6.5,0,9.8,3.3,9.8,7.8c0,3.7-2.3,5.7-5.3,6.4v0.3c3.2,0.2,6.5,2.8,6.5,7.4
				c0,4.7-3.4,8.2-10.3,8.2h-12.2V1910.6z M1852.2,1923.5c2.8,0,5-1.7,5-4.3c0-2.3-1.7-4-4.9-4h-5.5v8.3H1852.2z M1852.7,1936.2
				c4,0,5.6-1.7,5.6-4.1c0-2.7-2.1-4.8-5.5-4.8h-6v8.8H1852.7z"/>
			<path class="st2" d="M1880.2,1933.3h2.7c0.2,3.2,2.8,5.5,6.2,5.5c4.1,0,7-3.2,7-7.4c0-4.4-3.1-7.5-7.1-7.5c-2,0-4.1,0.8-5.4,1.8
				l-2.8-0.4l1.8-14.7h14.9v2.5h-12.6l-1.2,10.1h0.1c1.3-1.1,3.3-1.9,5.5-1.9c5.3,0,9.4,4.1,9.4,10c0,5.7-4.1,9.9-9.6,9.9
				C1884.1,1941.2,1880.3,1937.9,1880.2,1933.3z"/>
			<path class="st2" d="M1919.4,1913.3v-0.2h-15.8v-2.5h18.7v2.6l-13.7,27.6h-2.9L1919.4,1913.3z"/>
			<path class="st2" d="M1927,1938.3c-0.5,3.2-1.8,7.8-2.5,9.9h-2c0.4-2,1.2-5.9,1.7-9.8l0.2-1.7h2.9L1927,1938.3z"/>
			<path class="st2" d="M1945.2,1933.3h2.7c0.2,3.2,2.8,5.5,6.2,5.5c4.1,0,7-3.2,7-7.4c0-4.4-3.1-7.5-7.1-7.5c-2,0-4.1,0.8-5.4,1.8
				l-2.8-0.4l1.8-14.7h14.9v2.5h-12.6l-1.2,10.1h0.1c1.3-1.1,3.3-1.9,5.5-1.9c5.3,0,9.4,4.1,9.4,10c0,5.7-4.1,9.9-9.6,9.9
				C1949.1,1941.2,1945.4,1937.9,1945.2,1933.3z"/>
			<path class="st2" d="M1969.7,1933.3h2.7c0.2,3.2,2.8,5.5,6.2,5.5c4.1,0,7-3.2,7-7.4c0-4.4-3.1-7.5-7.1-7.5c-2,0-4.1,0.8-5.4,1.8
				l-2.8-0.4l1.8-14.7h14.9v2.5h-12.6l-1.2,10.1h0.1c1.3-1.1,3.3-1.9,5.5-1.9c5.3,0,9.4,4.1,9.4,10c0,5.7-4.1,9.9-9.6,9.9
				C1973.6,1941.2,1969.9,1937.9,1969.7,1933.3z"/>
			<path class="st2" d="M1997.3,1938.3c-0.5,3.2-1.8,7.8-2.5,9.9h-2c0.4-2,1.2-5.9,1.7-9.8l0.2-1.7h2.9L1997.3,1938.3z"/>
			<path class="st2" d="M2015.6,1933.3h2.7c0.2,3.2,2.8,5.5,6.2,5.5c4.1,0,7-3.2,7-7.4c0-4.4-3.1-7.5-7.1-7.5c-2,0-4.1,0.8-5.4,1.8
				l-2.8-0.4l1.8-14.7h14.9v2.5h-12.6l-1.2,10.1h0.1c1.3-1.1,3.3-1.9,5.5-1.9c5.3,0,9.4,4.1,9.4,10c0,5.7-4.1,9.9-9.6,9.9
				C2019.5,1941.2,2015.7,1937.9,2015.6,1933.3z"/>
			<path class="st2" d="M2039.4,1932.1l13.5-21.5h3.3v21.2h4v2.5h-4v6.5h-2.6v-6.5h-14.1V1932.1z M2053.5,1914.4h-0.2l-10.8,17.3
				v0.2h11V1914.4z"/>
			<path class="st2" d="M1783,1988.7c-0.6-3.6-3.5-5.7-7.2-5.7c-4.9,0-8.4,3.8-8.4,10.6c0,6.9,3.5,10.6,8.4,10.6
				c3.6,0,6.5-2,7.2-5.5l5.5,0c-0.8,5.8-5.6,10.4-12.8,10.4c-8,0-13.8-5.8-13.8-15.5c0-9.8,5.9-15.5,13.8-15.5
				c6.7,0,11.9,3.9,12.8,10.6H1783z"/>
			<path class="st2" d="M1800.1,1978.5l9,21.9h0.4l9-21.9h6.7v30.2h-5.2V1988h-0.3l-8.3,20.7h-3.9l-8.3-20.7h-0.3v20.8h-5.2v-30.2
				H1800.1z"/>
			<path class="st2" d="M1834.9,1978.5l7.4,13.4h0.3l7.4-13.4h6.2l-11,18.9v11.3h-5.5v-11.3l-11-18.9H1834.9z"/>
			<path class="st2" d="M1859.8,1978.5h5.5v13.9h0.4l11.8-13.9h6.7l-11.7,13.5l11.8,16.6h-6.6l-9-12.9l-3.3,4v9h-5.5V1978.5z"/>
			<path class="st2" d="M1898.8,1993.6c0-9.7,3.8-15.5,10.1-15.5s10.1,5.8,10.1,15.5c0,9.8-3.7,15.5-10.1,15.5
				S1898.8,2003.4,1898.8,1993.6z M1916.3,1993.6c0-8.3-2.8-13.1-7.4-13.1s-7.4,4.8-7.4,13.1c0,8.3,2.8,13,7.4,13
				S1916.3,2001.9,1916.3,1993.6z"/>
			<path class="st2" d="M1927.8,2006.2c-0.5,3.2-1.8,7.8-2.5,9.9h-2c0.4-2,1.2-5.9,1.7-9.8l0.2-1.7h2.9L1927.8,2006.2z"/>
			<path class="st2" d="M1945.4,2000l13.5-21.5h3.3v21.2h4v2.5h-4v6.5h-2.6v-6.5h-14.1V2000z M1959.5,1982.3h-0.2l-10.8,17.3v0.2h11
				V1982.3z"/>
			<path class="st2" d="M1974.7,2006.2c-0.5,3.2-1.8,7.8-2.5,9.9h-2c0.4-2,1.2-5.9,1.7-9.8l0.2-1.7h2.9L1974.7,2006.2z"/>
			<path class="st2" d="M1993,2001.2h2.7c0.2,3.2,2.8,5.5,6.2,5.5c4.1,0,7-3.2,7-7.4c0-4.4-3.1-7.5-7.1-7.5c-2,0-4.1,0.8-5.4,1.8
				l-2.8-0.4l1.8-14.7h14.9v2.5h-12.6l-1.2,10.1h0.1c1.3-1.1,3.3-1.9,5.5-1.9c5.3,0,9.4,4.1,9.4,10c0,5.7-4.1,9.9-9.6,9.9
				C1996.8,2009.1,1993.1,2005.8,1993,2001.2z"/>
			<path class="st2" d="M2020.5,2006.2c-0.5,3.2-1.8,7.8-2.5,9.9h-2c0.4-2,1.2-5.9,1.7-9.8l0.2-1.7h2.9L2020.5,2006.2z"/>
			<path class="st2" d="M2053.5,1981.2v-0.2h-15.8v-2.5h18.7v2.6l-13.7,27.6h-2.9L2053.5,1981.2z"/>
			<path class="st2" d="M2060.8,2000.8c0-3.7,2.6-7,6-7.7v-0.2c-3-0.9-5-3.7-4.9-6.9c0-4.5,3.8-7.9,8.9-7.9c5,0,8.9,3.4,8.9,7.9
				c0,3.2-2,6.1-4.9,6.9v0.2c3.4,0.7,6,4,6,7.7c0,4.8-4.2,8.4-10,8.4C2065,2009.1,2060.8,2005.6,2060.8,2000.8z M2078.1,2000.7
				c0-3.6-3.1-6.3-7.3-6.3c-4.2,0-7.3,2.7-7.3,6.3c0,3.5,2.9,6,7.3,6C2075.1,2006.7,2078,2004.1,2078.1,2000.7z M2077,1986.2
				c0-3.3-2.6-5.6-6.2-5.6c-3.6,0-6.2,2.3-6.2,5.6c0,3.3,2.7,5.8,6.2,5.8C2074.3,1992,2077,1989.5,2077,1986.2z"/>
		</g>
	</g>
</g>
</svg>
