<?xml version="1.0" encoding="utf-8"?>
<!-- Generator: Adobe Illustrator 22.0.0, SVG Export Plug-In . SVG Version: 6.00 Build 0)  -->
<svg version="1.1" id="Layer_1" xmlns="http://www.w3.org/2000/svg" xmlns:xlink="http://www.w3.org/1999/xlink" x="0px" y="0px"
	 viewBox="0 0 3000 2000" style="enable-background:new 0 0 3000 2000;" xml:space="preserve">
<style type="text/css">
	.st0{fill:#181818;}
	.st1{fill:#FFFFFF;}
	.st2{opacity:8.000000e-02;fill:#FFFFFF;}
	.st3{fill:none;stroke:#CCCCCC;stroke-miterlimit:10;}
	.st4{opacity:0.6;}
	.st5{fill:#ECEDED;}
</style>
<rect class="st0" width="3000" height="2000"/>
<g>
	<g>
		<path class="st1" d="M1523.3,670.8c-164,0-297.5,133.5-297.5,297.5c0,164,133.4,297.5,297.5,297.5c164,0,297.5-133.4,297.5-297.5
			C1820.7,804.2,1687.3,670.8,1523.3,670.8z M1709.6,784.1l17.7-18.6c34.7,34.9,60.5,78.6,73.8,127.5L1776,899
			c-10.2,2.4-22.8-2.9-28-12l-42-72.7C1700.8,805.3,1702.4,791.7,1709.6,784.1z M1523.3,680.5c25.5,0,50.2,3.3,73.7,9.6l-7.3,24.8
			c-3,10-14,18.3-24.4,18.3h-83.9c-10.5,0-21.5-8.2-24.4-18.3l-7.3-24.8C1473.1,683.8,1497.8,680.5,1523.3,680.5z M1319.3,765.5
			l17.7,18.6c7.2,7.6,8.8,21.2,3.6,30.3l-42,72.7c-5.2,9.1-17.8,14.5-28,12l-25.1-6.1C1258.7,844.1,1284.6,800.4,1319.3,765.5z
			 M1336.9,1152.5l-17.7,18.6c-34.7-34.9-60.5-78.7-73.8-127.5l25.1-6.1c10.2-2.4,22.8,3,28,12l41.9,72.7
			C1345.8,1131.3,1344.2,1144.9,1336.9,1152.5z M1523.3,1256.1c-25.5,0-50.2-3.3-73.7-9.6l7.3-24.8c3-10,14-18.3,24.4-18.3h83.9
			c10.5,0,21.5,8.2,24.4,18.3l7.3,24.8C1573.4,1252.8,1548.7,1256.1,1523.3,1256.1z M1523.3,1184c-119.1,0-215.7-96.6-215.7-215.7
			c0-119.1,96.6-215.7,215.7-215.7c119.1,0,215.7,96.6,215.7,215.7C1738.9,1087.4,1642.4,1184,1523.3,1184z M1727.3,1171.1
			l-17.7-18.6c-7.2-7.6-8.8-21.2-3.6-30.3l42-72.7c5.2-9.1,17.8-14.5,28-12l25.1,6.1C1787.8,1092.5,1762,1136.2,1727.3,1171.1z"/>
		<path class="st1" d="M1523.3,770.3c-109.3,0-198,88.6-198,198c0,109.3,88.6,198,198,198c109.3,0,198-88.6,198-198
			C1721.2,858.9,1632.6,770.3,1523.3,770.3z M1635.3,1061.5c-1.3,2.4-4.5,3.9-7.1,3.4l-89.7-17.4c-2.7-0.6-3.5,0.8-2,3.1l47.4,68.9
			c1.6,2.2,0.6,4-2.1,4h-116.5c-2.7,0-3.6-1.8-2.1-4l47.4-68.9c1.5-2.3,0.6-3.7-2-3.1l-88.2,17.1c-2.6,0.5-5.9-1-7.3-3.3l-35.5-61.2
			c-1.3-2.3-1.1-5.9,0.6-8.1l142.3-177.3c1.7-2.1,4.4-2.1,6.1,0l141.9,176.8c1.7,2.2,2,5.8,0.7,8.2L1635.3,1061.5z"/>
	</g>
	<rect x="928.3" y="670.9" class="st2" width="297.5" height="596"/>
	<rect x="1820.8" y="670.9" class="st2" width="297.5" height="595"/>
	<rect x="930" y="1265.8" class="st2" width="1188.2" height="297.5"/>
	<rect x="930" y="373.3" class="st2" width="1188.2" height="297.5"/>
	<g>
		<line class="st3" x1="1820.8" y1="375.9" x2="1820.8" y2="1686.3"/>
		<line class="st3" x1="1225.8" y1="375.9" x2="1225.8" y2="1686.3"/>
		<line class="st3" x1="928.3" y1="375.9" x2="928.3" y2="1686.3"/>
		<line class="st3" x1="928.3" y1="1655.5" x2="1820.7" y2="1655.5"/>
		<line class="st3" x1="801.4" y1="1265.8" x2="1820.7" y2="1265.8"/>
		<line class="st3" x1="801.4" y1="1563.2" x2="1820.7" y2="1563.2"/>
		<line class="st3" x1="833.1" y1="1264.8" x2="833.1" y2="1562.3"/>
	</g>
	<g class="st4">
		<path class="st5" d="M1522.3,1712.3l6.1-10.1h3.2l-7.7,11.9l7.7,11.9h-3.2l-6.1-9.8l-6.1,9.8h-3.2l7.6-11.9l-7.6-11.9h3.2
			L1522.3,1712.3z"/>
	</g>
	<g class="st4">
		<path class="st5" d="M1051.6,1725.9h-2.9v-28.7h-0.2l-7.4,4.9v-3l7.5-5h3V1725.9z"/>
		<path class="st5" d="M1059.3,1730.7h-2.6l10.2-38h2.6L1059.3,1730.7z"/>
		<path class="st5" d="M1072.7,1723.8l10.4-11.6c4-4.6,5.6-6.8,5.6-9.8c0-3.6-2.8-6-6.5-6c-3.9,0-6.5,2.7-6.5,6.5h-2.8
			c0-5.3,4-9,9.3-9c5.3,0,9.1,3.8,9.1,8.6c0,3.5-1.6,6.1-6.8,12l-7.9,8.8v0.2h15.7v2.6h-19.7V1723.8z"/>
		<path class="st5" d="M1106.4,1712.3l6.1-10.1h3.2l-7.7,11.9l7.7,11.9h-3.2l-6.1-9.8l-6.1,9.8h-3.2l7.6-11.9l-7.6-11.9h3.2
			L1106.4,1712.3z"/>
	</g>
	<g class="st4">
		<path class="st5" d="M736.3,1422.5h-2.9v-28.7h-0.2l-7.4,4.9v-3l7.5-5h3V1422.5z"/>
		<path class="st5" d="M744,1427.3h-2.6l10.2-38h2.6L744,1427.3z"/>
		<path class="st5" d="M757.4,1420.4l10.4-11.6c4-4.6,5.6-6.8,5.6-9.8c0-3.6-2.8-6-6.5-6c-3.9,0-6.5,2.7-6.5,6.5h-2.8
			c0-5.3,4-9,9.3-9c5.3,0,9.1,3.8,9.1,8.6c0,3.5-1.6,6.1-6.8,12l-7.9,8.8v0.2h15.7v2.6h-19.7V1420.4z"/>
		<path class="st5" d="M791.1,1408.8l6.1-10.1h3.2l-7.7,11.9l7.7,11.9h-3.2l-6.1-9.8l-6.1,9.8h-3.2l7.6-11.9l-7.6-11.9h3.2
			L791.1,1408.8z"/>
	</g>
</g>
</svg>
