<?xml version="1.0" encoding="utf-8"?>
<!-- Generator: Adobe Illustrator 22.0.0, SVG Export Plug-In . SVG Version: 6.00 Build 0)  -->
<svg version="1.1" id="Layer_1" xmlns="http://www.w3.org/2000/svg" xmlns:xlink="http://www.w3.org/1999/xlink" x="0px" y="0px"
	 viewBox="0 0 3000 2000" style="enable-background:new 0 0 3000 2000;" xml:space="preserve">
<style type="text/css">
	.st0{fill:#FFFFFF;}
	.st1{fill:#086ECC;}
	.st2{fill:#34B7A4;}
	.st3{fill:#004B90;}
	.st4{fill:#398BD6;}
	.st5{fill:#6BA8E0;}
	.st6{fill:#9CC5EB;}
	.st7{fill:#CEE2F5;}
	.st8{fill:#F8674F;}
	.st9{fill:#202123;}
</style>
<g>
	<rect class="st0" width="1000" height="932"/>
	<rect x="1000" class="st1" width="1000" height="932"/>
	<rect y="932" class="st1" width="2000" height="540"/>
	<rect x="2000" y="932" class="st2" width="500" height="540"/>
	<rect y="1472" class="st3" width="500" height="528"/>
	<rect x="500" y="1472" class="st1" width="500" height="528"/>
	<rect x="1000" y="1472" class="st4" width="500" height="528"/>
	<rect x="1500" y="1472" class="st5" width="500" height="528"/>
	<rect x="2000" y="1472" class="st6" width="500" height="528"/>
	<rect x="2500" y="1472" class="st7" width="500" height="528"/>
	<rect x="2500" y="932" class="st8" width="500" height="540"/>
	<rect x="2000" class="st9" width="1000" height="932"/>
	<g>
		<g>
			<path class="st9" d="M50.8,48.7h10.7c2.7,0,4.8,0.9,6.1,2.5c1.1,1.3,1.7,3,1.7,4.9c0,4.7-2.7,7.6-8.3,7.6h-7v10.8h-3.2V48.7z
				 M54.1,61h6.8c3.6,0,5.4-1.8,5.4-4.8c0-3.1-1.9-4.7-5.2-4.7h-6.9V61z"/>
			<path class="st9" d="M74.6,58.9L74.6,58.9c1.2-1.8,3.1-3.3,5.6-3.3c0.5,0,0.8,0.1,1.2,0.2v2.8h-0.1c-0.4-0.1-0.7-0.2-1.3-0.2
				c-2.9,0-5.4,2.2-5.4,5.7v10.3h-2.9V55.8h2.9V58.9z"/>
			<path class="st9" d="M83.4,48.7h2.9v3.6h-2.9V48.7z M83.4,55.8h2.9v18.6h-2.9V55.8z"/>
			<path class="st9" d="M89.9,55.8h2.9v2.7h0.1c1.2-1.8,3.1-3.1,5.5-3.1c2.3,0,4.1,1.2,4.9,3.3h0.1c1.2-2.1,3.4-3.3,5.7-3.3
				c3.3,0,5.7,2.1,5.7,6v13.1h-2.9V61.5c0-2.3-1.5-3.7-3.4-3.7c-2.4,0-4.6,2.1-4.6,5v11.6h-2.9V61.5c0-2.3-1.3-3.7-3.2-3.7
				c-2.3,0-4.8,2.1-4.8,5v11.6h-2.9V55.8z"/>
			<path class="st9" d="M129.7,71.8L129.7,71.8c-1.2,1.4-3.1,3-6.2,3c-3.5,0-6.3-1.7-6.3-5.2c0-4.4,3.5-5.3,8.1-6
				c2.6-0.4,4.5-0.6,4.5-2.7c0-2.1-1.5-3.3-4.2-3.3c-3,0-4.5,1.3-4.6,4.1h-2.8c0.1-3.6,2.5-6.3,7.4-6.3c4,0,6.9,1.5,6.9,5.9v8.9
				c0,1.5,0.4,2.3,2,2h0.1v2.1c-0.4,0.1-0.8,0.3-1.6,0.3C131,74.6,130,73.7,129.7,71.8z M129.8,67.6v-3.2c-1,0.6-2.7,1.1-4.2,1.4
				c-2.9,0.5-5.3,1-5.3,3.8c0,2.5,1.9,3,3.9,3C128,72.6,129.8,69.7,129.8,67.6z"/>
			<path class="st9" d="M139.3,58.9L139.3,58.9c1.2-1.8,3.1-3.3,5.6-3.3c0.5,0,0.8,0.1,1.2,0.2v2.8H146c-0.4-0.1-0.7-0.2-1.3-0.2
				c-2.9,0-5.4,2.2-5.4,5.7v10.3h-2.9V55.8h2.9V58.9z"/>
			<path class="st9" d="M148.9,80.2v-2.6h0.1c0.4,0.2,1,0.4,2,0.4c1.2,0,2.1-0.5,2.8-2.3l0.7-1.8l-7.3-18.1h3.2l4.4,11.6
				C155.3,69,156,71,156,71h0.1c0,0,0.6-2.1,1.2-3.6l4.2-11.6h3.1l-8,20.1c-1.5,3.9-3,4.6-5.2,4.6C150.4,80.6,149.7,80.5,148.9,80.2
				z"/>
		</g>
	</g>
	<g>
		<g>
			<path class="st9" d="M50,244.6h4.8l1.2-9.1h3.3l-1.2,9.1h6.5l1.2-9.1h3.3l-1.2,9.1h4.8l-0.5,3.5h-4.8l-1.1,7.4h4.8l-0.5,3.5h-4.8
				l-1.3,9.5h-3.3l1.3-9.5h-6.5l-1.3,9.5h-3.3l1.3-9.5h-4.9l0.5-3.5h4.8l1.1-7.4h-4.9L50,244.6z M56.5,255.5h6.5l1.1-7.4h-6.5
				L56.5,255.5z"/>
			<path class="st9" d="M76.8,234.1h23.3v3.8h-19v10.7h15.8v3.6H81.1v16.2h-4.3V234.1z"/>
			<path class="st9" d="M103.6,234.1h23.3v3.8h-19v10.7h15.8v3.6h-15.8v16.2h-4.3V234.1z"/>
			<path class="st9" d="M130.5,234.1h23.3v3.8h-19v10.7h15.8v3.6h-15.8v16.2h-4.3V234.1z"/>
			<path class="st9" d="M157.3,234.1h23.3v3.8h-19v10.7h15.8v3.6h-15.8v16.2h-4.3V234.1z"/>
			<path class="st9" d="M184.1,234.1h23.3v3.8h-19v10.7h15.8v3.6h-15.8v16.2h-4.3V234.1z"/>
			<path class="st9" d="M211,234.1h23.3v3.8h-19v10.7h15.8v3.6h-15.8v16.2H211V234.1z"/>
		</g>
	</g>
	<g>
		<g>
			<path class="st9" d="M47.6,725.2h16c6,0,10.1,3.8,10.1,9.4c0,4.2-1.8,7.2-6,8.5v0.1c3.5,1.2,4.6,3.6,4.9,8.7
				c0.4,5.5,1,6.9,1.6,7.3v0.2h-4.7c-0.7-0.6-0.9-1.9-1.2-7.7c-0.3-5-2.4-6.8-7-6.8h-9.6v14.5h-4.3V725.2z M51.9,741.5h10.2
				c4.8,0,7.2-2.4,7.2-6.3c0-4.2-1.9-6.3-7-6.3H51.9V741.5z"/>
			<path class="st9" d="M73.3,812.6L73.3,812.6c-2.6,3.5-6.3,5.2-10.8,5.2c-9.6,0-16.1-7.3-16.1-17.8c0-10.1,5.7-18,16.5-18
				c8,0,12.9,4.3,14,11h-4.5c-1-4.6-4.2-7.3-9.6-7.3c-8.3,0-12,6.2-12,14.3c0,8.4,4.9,14,11.9,14c7.1,0,10.4-4.8,10.4-10.6v-0.8
				H62.7v-3.7h14.6v18.1h-2.8L73.3,812.6z"/>
			<path class="st9" d="M47.6,840.4h14.5c3.6,0,6.3,1,8.3,3c1.4,1.4,2.2,3.4,2.2,5.9c0,3.8-2.1,6.1-5.5,7.2v0.1
				c3.9,0.9,6.9,3.7,6.9,8.3c0,2.6-0.9,4.9-2.5,6.6c-1.9,2.1-4.9,3.3-8.6,3.3H47.6V840.4z M61.6,855.1c4.2,0,6.7-2.1,6.7-5.6
				c0-3.3-2.3-5.3-6.1-5.3H51.9v10.9H61.6z M62.7,870.8c2.4,0,4.2-0.6,5.4-1.7c1-1,1.5-2.4,1.5-4c0-4.3-3-6.4-7.2-6.4H51.9v12.1
				H62.7z"/>
		</g>
	</g>
	<g>
		<g>
			<path class="st9" d="M134.2,744.2c4.3-2.5,7-4.2,7-8.2c0-4-2.8-6.8-7.2-6.8c-2.3,0-4,0.8-5.2,2.1c-1.3,1.4-1.9,3.2-1.9,6.6h-4.2
				c0-4.2,1.1-6.9,3.1-8.9c2.1-2.1,5.2-3.1,8.5-3.1c6.7,0,11,4.2,11,10.1c0,6.3-4.3,8.4-9.6,11.4c-3.6,2-8.1,4.7-9,8.3h18v3.8h-22.8
				C122.3,750.7,128.5,747.5,134.2,744.2z"/>
			<path class="st9" d="M147.4,750h4c0.5,4.1,3.4,6.7,8.1,6.7c4.7,0,7.7-3.2,7.7-8c0-4.9-3.4-7.8-7.7-7.8c-3.6,0-6,1.4-7.4,3.4h-3.9
				l3.6-17.7h17.5v3.6h-14.7l-2.2,9.9h0.1c1.9-1.8,4.4-2.8,7.5-2.8c5.9,0,11.2,4.2,11.2,11.5c0,7-5,11.4-11.8,11.4
				S147.7,756.1,147.4,750z"/>
			<path class="st9" d="M174,750h4c0.5,4.1,3.4,6.7,8.1,6.7c4.7,0,7.7-3.2,7.7-8c0-4.9-3.4-7.8-7.7-7.8c-3.6,0-6,1.4-7.4,3.4h-3.9
				l3.6-17.7H196v3.6h-14.7l-2.2,9.9h0.1c1.9-1.8,4.4-2.8,7.5-2.8c5.9,0,11.2,4.2,11.2,11.5c0,7-5,11.4-11.8,11.4
				S174.3,756.1,174,750z"/>
			<path class="st9" d="M134.2,801.8c4.3-2.5,7-4.2,7-8.2c0-4-2.8-6.8-7.2-6.8c-2.3,0-4,0.8-5.2,2.1c-1.3,1.4-1.9,3.2-1.9,6.6h-4.2
				c0-4.2,1.1-6.9,3.1-8.9c2.1-2.1,5.2-3.1,8.5-3.1c6.7,0,11,4.2,11,10.1c0,6.3-4.3,8.4-9.6,11.4c-3.6,2-8.1,4.7-9,8.3h18v3.8h-22.8
				C122.3,808.3,128.5,805.1,134.2,801.8z"/>
			<path class="st9" d="M147.4,807.6h4c0.5,4.1,3.4,6.7,8.1,6.7c4.7,0,7.7-3.2,7.7-8c0-4.9-3.4-7.8-7.7-7.8c-3.6,0-6,1.4-7.4,3.4
				h-3.9l3.6-17.7h17.5v3.6h-14.7l-2.2,9.9h0.1c1.9-1.8,4.4-2.8,7.5-2.8c5.9,0,11.2,4.2,11.2,11.5c0,7-5,11.4-11.8,11.4
				S147.7,813.7,147.4,807.6z"/>
			<path class="st9" d="M174,807.6h4c0.5,4.1,3.4,6.7,8.1,6.7c4.7,0,7.7-3.2,7.7-8c0-4.9-3.4-7.8-7.7-7.8c-3.6,0-6,1.4-7.4,3.4h-3.9
				l3.6-17.7H196v3.6h-14.7l-2.2,9.9h0.1c1.9-1.8,4.4-2.8,7.5-2.8c5.9,0,11.2,4.2,11.2,11.5c0,7-5,11.4-11.8,11.4
				S174.3,813.7,174,807.6z"/>
			<path class="st9" d="M134.2,859.4c4.3-2.5,7-4.2,7-8.2c0-4-2.8-6.8-7.2-6.8c-2.3,0-4,0.8-5.2,2.1c-1.3,1.4-1.9,3.2-1.9,6.6h-4.2
				c0-4.2,1.1-6.9,3.1-8.9c2.1-2.1,5.2-3.1,8.5-3.1c6.7,0,11,4.2,11,10.1c0,6.3-4.3,8.4-9.6,11.4c-3.6,2-8.1,4.7-9,8.3h18v3.8h-22.8
				C122.3,865.9,128.5,862.7,134.2,859.4z"/>
			<path class="st9" d="M147.4,865.2h4c0.5,4.1,3.4,6.7,8.1,6.7c4.7,0,7.7-3.2,7.7-8c0-4.9-3.4-7.8-7.7-7.8c-3.6,0-6,1.4-7.4,3.4
				h-3.9l3.6-17.7h17.5v3.6h-14.7l-2.2,9.9h0.1c1.9-1.8,4.4-2.8,7.5-2.8c5.9,0,11.2,4.2,11.2,11.5c0,7-5,11.4-11.8,11.4
				S147.7,871.3,147.4,865.2z"/>
			<path class="st9" d="M174,865.2h4c0.5,4.1,3.4,6.7,8.1,6.7c4.7,0,7.7-3.2,7.7-8c0-4.9-3.4-7.8-7.7-7.8c-3.6,0-6,1.4-7.4,3.4h-3.9
				l3.6-17.7H196v3.6h-14.7l-2.2,9.9h0.1c1.9-1.8,4.4-2.8,7.5-2.8c5.9,0,11.2,4.2,11.2,11.5c0,7-5,11.4-11.8,11.4
				S174.3,871.3,174,865.2z"/>
		</g>
	</g>
	<g>
		<g>
			<path class="st9" d="M322.3,684.3c0-10.1,6-17.9,16.3-17.9c8,0,12.9,4.6,13.8,10.9h-4.2c-0.8-4.3-4.2-7.2-9.6-7.2
				c-7.5,0-11.8,6.1-11.8,14.2c0,8.4,4.7,14.1,11.8,14.1c6.5,0,9.6-4.4,10-9.5h4.3c0,3.4-1.7,7.2-4.1,9.6c-2.4,2.4-5.9,3.6-10.3,3.6
				C328.7,702.2,322.3,694.7,322.3,684.3z"/>
			<path class="st9" d="M323.6,724.8h5.5l11.1,28.5h0.1l11-28.5h5.6v34.3h-4.1v-28.2h-0.1c0,0-0.9,2.7-1.5,4.3l-9.4,23.9h-3.3
				l-9.4-23.9c-0.7-1.7-1.5-4.3-1.5-4.3h-0.1v28.2h-3.9V724.8z"/>
			<path class="st9" d="M333.3,802.1l-12.4-19.8h4.8l9.8,16.3h0.1l10-16.3h4.6l-12.6,19.9v14.4h-4.3V802.1z"/>
			<path class="st9" d="M323.6,840h4.3v17l16.9-17h5.4l-13.9,13.7l15,20.6h-5l-12.9-17.7l-5.5,5.5v12.1h-4.3V840z"/>
		</g>
	</g>
	<g>
		<g>
			<path class="st9" d="M398.5,685c0-10.7,5-17.2,12.8-17.2c7.8,0,12.7,6.4,12.7,17.2c0,10.5-4.6,17.2-12.8,17.2
				C403.2,702.2,398.5,695.5,398.5,685z M419.9,685c0-8.4-2.8-13.7-8.5-13.7c-5.8,0-8.6,5.2-8.6,13.7c0,8.4,2.8,13.7,8.6,13.7
				C417.2,698.7,419.9,693.5,419.9,685z"/>
			<path class="st9" d="M427.9,685c0-10.7,5-17.2,12.8-17.2c7.8,0,12.7,6.4,12.7,17.2c0,10.5-4.6,17.2-12.8,17.2
				C432.6,702.2,427.9,695.5,427.9,685z M449.3,685c0-8.4-2.8-13.7-8.5-13.7c-5.8,0-8.6,5.2-8.6,13.7c0,8.4,2.8,13.7,8.6,13.7
				C446.6,698.7,449.3,693.5,449.3,685z"/>
			<path class="st9" d="M457.3,685c0-10.7,5-17.2,12.8-17.2c7.8,0,12.7,6.4,12.7,17.2c0,10.5-4.6,17.2-12.8,17.2
				C462,702.2,457.3,695.5,457.3,685z M478.7,685c0-8.4-2.8-13.7-8.5-13.7c-5.8,0-8.6,5.2-8.6,13.7c0,8.4,2.8,13.7,8.6,13.7
				C476,698.7,478.7,693.5,478.7,685z"/>
			<path class="st9" d="M398.5,742.6c0-10.7,5-17.2,12.8-17.2c7.8,0,12.7,6.4,12.7,17.2c0,10.5-4.6,17.2-12.8,17.2
				C403.2,759.8,398.5,753.1,398.5,742.6z M419.9,742.6c0-8.4-2.8-13.7-8.5-13.7c-5.8,0-8.6,5.2-8.6,13.7c0,8.4,2.8,13.7,8.6,13.7
				C417.2,756.3,419.9,751.1,419.9,742.6z"/>
			<path class="st9" d="M427.9,742.6c0-10.7,5-17.2,12.8-17.2c7.8,0,12.7,6.4,12.7,17.2c0,10.5-4.6,17.2-12.8,17.2
				C432.6,759.8,427.9,753.1,427.9,742.6z M449.3,742.6c0-8.4-2.8-13.7-8.5-13.7c-5.8,0-8.6,5.2-8.6,13.7c0,8.4,2.8,13.7,8.6,13.7
				C446.6,756.3,449.3,751.1,449.3,742.6z"/>
			<path class="st9" d="M457.3,742.6c0-10.7,5-17.2,12.8-17.2c7.8,0,12.7,6.4,12.7,17.2c0,10.5-4.6,17.2-12.8,17.2
				C462,759.8,457.3,753.1,457.3,742.6z M478.7,742.6c0-8.4-2.8-13.7-8.5-13.7c-5.8,0-8.6,5.2-8.6,13.7c0,8.4,2.8,13.7,8.6,13.7
				C476,756.3,478.7,751.1,478.7,742.6z"/>
			<path class="st9" d="M398.5,800.2c0-10.7,5-17.2,12.8-17.2c7.8,0,12.7,6.4,12.7,17.2c0,10.5-4.6,17.2-12.8,17.2
				C403.2,817.4,398.5,810.7,398.5,800.2z M419.9,800.2c0-8.4-2.8-13.7-8.5-13.7c-5.8,0-8.6,5.2-8.6,13.7c0,8.4,2.8,13.7,8.6,13.7
				C417.2,813.9,419.9,808.7,419.9,800.2z"/>
			<path class="st9" d="M427.9,800.2c0-10.7,5-17.2,12.8-17.2c7.8,0,12.7,6.4,12.7,17.2c0,10.5-4.6,17.2-12.8,17.2
				C432.6,817.4,427.9,810.7,427.9,800.2z M449.3,800.2c0-8.4-2.8-13.7-8.5-13.7c-5.8,0-8.6,5.2-8.6,13.7c0,8.4,2.8,13.7,8.6,13.7
				C446.6,813.9,449.3,808.7,449.3,800.2z"/>
			<path class="st9" d="M457.3,800.2c0-10.7,5-17.2,12.8-17.2c7.8,0,12.7,6.4,12.7,17.2c0,10.5-4.6,17.2-12.8,17.2
				C462,817.4,457.3,810.7,457.3,800.2z M478.7,800.2c0-8.4-2.8-13.7-8.5-13.7c-5.8,0-8.6,5.2-8.6,13.7c0,8.4,2.8,13.7,8.6,13.7
				C476,813.9,478.7,808.7,478.7,800.2z"/>
			<path class="st9" d="M398.5,857.8c0-10.7,5-17.2,12.8-17.2c7.8,0,12.7,6.4,12.7,17.2c0,10.5-4.6,17.2-12.8,17.2
				C403.2,875,398.5,868.3,398.5,857.8z M419.9,857.8c0-8.4-2.8-13.7-8.5-13.7c-5.8,0-8.6,5.2-8.6,13.7c0,8.4,2.8,13.7,8.6,13.7
				C417.2,871.5,419.9,866.3,419.9,857.8z"/>
			<path class="st9" d="M427.9,857.8c0-10.7,5-17.2,12.8-17.2c7.8,0,12.7,6.4,12.7,17.2c0,10.5-4.6,17.2-12.8,17.2
				C432.6,875,427.9,868.3,427.9,857.8z M449.3,857.8c0-8.4-2.8-13.7-8.5-13.7c-5.8,0-8.6,5.2-8.6,13.7c0,8.4,2.8,13.7,8.6,13.7
				C446.6,871.5,449.3,866.3,449.3,857.8z"/>
			<path class="st9" d="M457.3,857.8c0-10.7,5-17.2,12.8-17.2c7.8,0,12.7,6.4,12.7,17.2c0,10.5-4.6,17.2-12.8,17.2
				C462,875,457.3,868.3,457.3,857.8z M478.7,857.8c0-8.4-2.8-13.7-8.5-13.7c-5.8,0-8.6,5.2-8.6,13.7c0,8.4,2.8,13.7,8.6,13.7
				C476,871.5,478.7,866.3,478.7,857.8z"/>
		</g>
	</g>
	<g>
		<g>
			<path class="st9" d="M49.7,111.3h33.1c21.5,0,36,15.5,36,39.3c0,13.7-4.8,24.7-13.5,31.3c-6.1,4.6-13.9,7.1-23.7,7.1H49.7V111.3z
				 M80.3,172.8c12.6,0,19.1-7.9,19.1-22.2c0-14.1-6.8-23.2-18.9-23.2H69v45.4H80.3z"/>
			<path class="st9" d="M124.8,111.3h17.7v14.3h-17.7V111.3z M124.8,133.3h17.7v55.6h-17.7V133.3z"/>
			<path class="st9" d="M158.9,179.8c-6.7-7.4-10.4-17.6-10.4-29.4c0-12.2,4.1-22.9,11.5-30.3c6.4-6.5,15.4-10.3,26.6-10.3
				c20,0,31.9,10.6,34.4,26.9h-18.7c-1.4-6.3-6.6-11.1-15.1-11.1c-12.8,0-19.2,10.6-19.2,24.8c0,14.2,7.4,24.8,19.6,24.8
				c10.1,0,16.1-6.7,16.8-13.6v-0.2h-14.6v-14.1h32.4v41.7h-13.5l-1.1-9.3h-0.2c-5.1,7.9-12.7,11.1-22.1,11.1
				C174.4,190.7,165.3,186.8,158.9,179.8z"/>
			<path class="st9" d="M243.1,111.3h19.4l7.8,32.6c1.7,7.5,3.6,19.2,3.6,19.2h0.2c0,0,2.1-10.6,3.8-18.5l7.3-33.3h17.8l7.3,33.1
				c1.7,7.9,3.7,18.7,3.7,18.7h0.2c0,0,2.2-11.7,3.9-19.4l7.7-32.4h19.3l-21.3,77.7h-18.8l-8.1-37.3c-1.4-6.2-2.7-14.4-2.7-14.4
				h-0.2c0,0-1.3,8.3-2.6,14.4l-8.1,37.3h-18.9L243.1,111.3z"/>
			<path class="st9" d="M348,111.3h17.7v28.9h0.3c4-5.3,8.8-8.5,16.5-8.5c12.2,0,19.3,8.7,19.3,21.1v36.2h-17.7v-32.6
				c0-5.9-2.9-9.9-8.7-9.9c-5.9,0-9.8,4.9-9.8,11.7v30.7H348V111.3z"/>
			<path class="st9" d="M409.1,111.3h17.7v14.3h-17.7V111.3z M409.1,133.3h17.7v55.6h-17.7V133.3z"/>
			<path class="st9" d="M437.5,174.3v-29.9h-7.4v-11.1h7.4v-17.6h17.3v17.6h10.1v11.1h-10.1v26.1c0,4.3,2.4,5.4,6.2,5.4
				c1.5,0,3.3-0.1,3.9-0.1v12.9c-1.5,0.4-4.9,0.9-9.7,0.9C444.9,189.6,437.5,186.2,437.5,174.3z"/>
			<path class="st9" d="M465.7,161c0-16.6,11.6-29.3,28.6-29.3c7.9,0,14.2,2.6,19,7c6.6,6.1,9.9,15.8,9.8,27h-40
				c1.1,7.5,5.2,12.2,12.5,12.2c4.7,0,7.7-2.1,9.2-5.5h17.3c-1.2,5-4.5,9.8-9.3,13.1c-4.7,3.3-10.3,5.1-17.4,5.1
				C477,190.6,465.7,177.9,465.7,161z M505.2,155.2c-0.7-6.6-4.8-10.9-10.5-10.9c-6.7,0-10.2,4.2-11.4,10.9H505.2z"/>
		</g>
	</g>
	<g>
		<g>
			<path class="st0" d="M1050.8,48.7h10.7c2.7,0,4.8,0.9,6.1,2.5c1.1,1.3,1.7,3,1.7,4.9c0,4.7-2.7,7.6-8.3,7.6h-7v10.8h-3.2V48.7z
				 M1054.1,61h6.8c3.6,0,5.4-1.8,5.4-4.8c0-3.1-1.9-4.7-5.2-4.7h-6.9V61z"/>
			<path class="st0" d="M1074.6,58.9L1074.6,58.9c1.2-1.8,3.1-3.3,5.6-3.3c0.5,0,0.8,0.1,1.2,0.2v2.8h-0.1c-0.4-0.1-0.7-0.2-1.3-0.2
				c-2.9,0-5.4,2.2-5.4,5.7v10.3h-2.9V55.8h2.9V58.9z"/>
			<path class="st0" d="M1083.4,48.7h2.9v3.6h-2.9V48.7z M1083.4,55.8h2.9v18.6h-2.9V55.8z"/>
			<path class="st0" d="M1089.9,55.8h2.9v2.7h0.1c1.2-1.8,3.1-3.1,5.5-3.1c2.3,0,4.1,1.2,4.9,3.3h0.1c1.2-2.1,3.4-3.3,5.7-3.3
				c3.3,0,5.7,2.1,5.7,6v13.1h-2.9V61.5c0-2.3-1.5-3.7-3.4-3.7c-2.4,0-4.6,2.1-4.6,5v11.6h-2.9V61.5c0-2.3-1.3-3.7-3.2-3.7
				c-2.3,0-4.8,2.1-4.8,5v11.6h-2.9V55.8z"/>
			<path class="st0" d="M1129.7,71.8L1129.7,71.8c-1.2,1.4-3.1,3-6.2,3c-3.5,0-6.3-1.7-6.3-5.2c0-4.4,3.5-5.3,8.1-6
				c2.6-0.4,4.5-0.6,4.5-2.7c0-2.1-1.5-3.3-4.2-3.3c-3,0-4.5,1.3-4.6,4.1h-2.8c0.1-3.6,2.5-6.3,7.4-6.3c4,0,6.9,1.5,6.9,5.9v8.9
				c0,1.5,0.4,2.3,2,2h0.1v2.1c-0.4,0.1-0.8,0.3-1.6,0.3C1131,74.6,1130,73.7,1129.7,71.8z M1129.8,67.6v-3.2
				c-1,0.6-2.7,1.1-4.2,1.4c-2.9,0.5-5.3,1-5.3,3.8c0,2.5,1.9,3,3.9,3C1128,72.6,1129.8,69.7,1129.8,67.6z"/>
			<path class="st0" d="M1139.3,58.9L1139.3,58.9c1.2-1.8,3.1-3.3,5.6-3.3c0.5,0,0.8,0.1,1.2,0.2v2.8h-0.1c-0.4-0.1-0.7-0.2-1.3-0.2
				c-2.9,0-5.4,2.2-5.4,5.7v10.3h-2.9V55.8h2.9V58.9z"/>
			<path class="st0" d="M1148.9,80.2v-2.6h0.1c0.4,0.2,1,0.4,2,0.4c1.2,0,2.1-0.5,2.8-2.3l0.7-1.8l-7.3-18.1h3.2l4.4,11.6
				c0.6,1.5,1.3,3.6,1.3,3.6h0.1c0,0,0.6-2.1,1.2-3.6l4.2-11.6h3.1l-8,20.1c-1.5,3.9-3,4.6-5.2,4.6
				C1150.4,80.6,1149.7,80.5,1148.9,80.2z"/>
		</g>
	</g>
	<g>
		<g>
			<path class="st0" d="M1050,244.6h4.8l1.2-9.1h3.3l-1.2,9.1h6.5l1.2-9.1h3.3l-1.2,9.1h4.8l-0.5,3.5h-4.8l-1.1,7.4h4.8l-0.5,3.5
				h-4.8l-1.3,9.5h-3.3l1.3-9.5h-6.5l-1.3,9.5h-3.3l1.3-9.5h-4.9l0.5-3.5h4.8l1.1-7.4h-4.9L1050,244.6z M1056.5,255.5h6.5l1.1-7.4
				h-6.5L1056.5,255.5z"/>
			<path class="st0" d="M1075.6,252c0-10.7,5-17.2,12.8-17.2c7.8,0,12.7,6.4,12.7,17.2c0,10.5-4.6,17.2-12.8,17.2
				C1080.2,269.2,1075.6,262.5,1075.6,252z M1096.9,252c0-8.4-2.8-13.7-8.5-13.7c-5.8,0-8.6,5.2-8.6,13.7c0,8.4,2.8,13.7,8.6,13.7
				C1094.2,265.7,1096.9,260.5,1096.9,252z"/>
			<path class="st0" d="M1104.3,259c0-4.8,3.1-7.3,6.8-8.5v-0.1c-3.1-1.2-5.1-3.6-5.1-7c0-5.2,4.8-8.6,10.8-8.6s10.8,3.3,10.8,8.6
				c0,3.4-2,5.8-5,7v0.1c3.7,1.1,6.7,4.1,6.7,8.5c0,7.5-6.2,10.1-12.3,10.1S1104.3,266.5,1104.3,259z M1125.2,259c0-4.3-3.1-7-8.4-7
				c-5.2,0-8.3,2.7-8.3,7c0,4.3,3.2,6.8,8.4,6.8C1122,265.8,1125.2,263.3,1125.2,259z M1123.6,243.5c0-3.4-2.6-5.4-6.9-5.4
				s-6.9,2-6.9,5.4c0,3.4,2.6,5.4,6.9,5.4S1123.6,246.9,1123.6,243.5z"/>
			<path class="st0" d="M1137.1,266.2c-3.5-3.2-4.7-7.7-4.7-14.4c0-10.2,4.4-17,12.7-17c6.6,0,9.8,4.4,10.4,9.1h-4
				c-0.3-3.1-2.5-5.7-6.3-5.7c-6.4,0-8.7,5.2-8.9,13.2h0.1c2.1-2.9,5.1-4.6,9-4.6c6,0,10.8,5,10.8,11c0,6.1-4.9,11.2-11,11.2
				C1141.7,269.2,1139,268.1,1137.1,266.2z M1152.6,258.1c0-4.7-3.3-7.9-7.5-7.9c-4.7,0-8,3.1-8,7.8c0,4.7,3.5,7.9,8.1,7.9
				C1149.4,265.9,1152.6,262.7,1152.6,258.1z"/>
			<path class="st0" d="M1161.1,234.1h24.2v3.8h-19.9v10.8h18.1v3.6h-18.1v12h20.5v4h-24.8V234.1z"/>
			<path class="st0" d="M1187.9,251.3c0-10.1,6-17.9,16.3-17.9c8,0,12.9,4.6,13.8,10.9h-4.2c-0.8-4.3-4.2-7.2-9.6-7.2
				c-7.5,0-11.8,6.1-11.8,14.2c0,8.4,4.7,14.1,11.8,14.1c6.5,0,9.6-4.4,10-9.5h4.3c0,3.4-1.7,7.2-4.1,9.6c-2.4,2.4-5.9,3.6-10.3,3.6
				C1194.2,269.1,1187.9,261.7,1187.9,251.3z"/>
			<path class="st0" d="M1221.4,251.3c0-10.1,6-17.9,16.3-17.9c8,0,12.9,4.6,13.8,10.9h-4.2c-0.8-4.3-4.2-7.2-9.6-7.2
				c-7.5,0-11.8,6.1-11.8,14.2c0,8.4,4.7,14.1,11.8,14.1c6.5,0,9.6-4.4,10-9.5h4.3c0,3.4-1.7,7.2-4.1,9.6c-2.4,2.4-5.9,3.6-10.3,3.6
				C1227.7,269.1,1221.4,261.7,1221.4,251.3z"/>
		</g>
	</g>
	<g>
		<g>
			<path class="st0" d="M1047.6,725.2h16c6,0,10.1,3.8,10.1,9.4c0,4.2-1.8,7.2-6,8.5v0.1c3.5,1.2,4.6,3.6,4.9,8.7
				c0.4,5.5,1,6.9,1.6,7.3v0.2h-4.7c-0.7-0.6-0.9-1.9-1.2-7.7c-0.3-5-2.4-6.8-7-6.8h-9.6v14.5h-4.3V725.2z M1051.9,741.5h10.2
				c4.8,0,7.2-2.4,7.2-6.3c0-4.2-1.9-6.3-7-6.3h-10.4V741.5z"/>
			<path class="st0" d="M1073.3,812.6L1073.3,812.6c-2.6,3.5-6.3,5.2-10.8,5.2c-9.6,0-16.1-7.3-16.1-17.8c0-10.1,5.7-18,16.5-18
				c8,0,12.9,4.3,14,11h-4.5c-1-4.6-4.2-7.3-9.6-7.3c-8.3,0-12,6.2-12,14.3c0,8.4,4.9,14,11.9,14c7.1,0,10.4-4.8,10.4-10.6v-0.8
				h-10.3v-3.7h14.6v18.1h-2.8L1073.3,812.6z"/>
			<path class="st0" d="M1047.6,840.4h14.5c3.6,0,6.3,1,8.3,3c1.4,1.4,2.2,3.4,2.2,5.9c0,3.8-2.1,6.1-5.5,7.2v0.1
				c3.9,0.9,6.9,3.7,6.9,8.3c0,2.6-0.9,4.9-2.5,6.6c-1.9,2.1-4.9,3.3-8.6,3.3h-15.3V840.4z M1061.6,855.1c4.2,0,6.7-2.1,6.7-5.6
				c0-3.3-2.3-5.3-6.1-5.3h-10.3v10.9H1061.6z M1062.8,870.8c2.4,0,4.2-0.6,5.4-1.7c1-1,1.5-2.4,1.5-4c0-4.3-3-6.4-7.2-6.4h-10.5
				v12.1H1062.8z"/>
		</g>
	</g>
	<g>
		<g>
			<path class="st0" d="M1122.5,743c0-10.7,5-17.2,12.8-17.2c7.8,0,12.7,6.4,12.7,17.2c0,10.5-4.6,17.2-12.8,17.2
				C1127.2,760.2,1122.5,753.5,1122.5,743z M1143.9,743c0-8.4-2.8-13.7-8.5-13.7c-5.8,0-8.6,5.2-8.6,13.7c0,8.4,2.8,13.7,8.6,13.7
				C1141.2,756.7,1143.9,751.5,1143.9,743z"/>
			<path class="st0" d="M1151.9,743c0-10.7,5-17.2,12.8-17.2s12.7,6.4,12.7,17.2c0,10.5-4.6,17.2-12.8,17.2
				C1156.6,760.2,1151.9,753.5,1151.9,743z M1173.3,743c0-8.4-2.8-13.7-8.5-13.7c-5.8,0-8.6,5.2-8.6,13.7c0,8.4,2.8,13.7,8.6,13.7
				C1170.6,756.7,1173.3,751.5,1173.3,743z"/>
			<path class="st0" d="M1180.7,750.1c0-4.8,3.1-7.3,6.8-8.5v-0.1c-3.1-1.2-5.1-3.6-5.1-7c0-5.2,4.8-8.6,10.8-8.6
				c6,0,10.8,3.3,10.8,8.6c0,3.4-2,5.8-5,7v0.1c3.7,1.1,6.7,4.1,6.7,8.5c0,7.5-6.2,10.1-12.3,10.1
				C1187.2,760.2,1180.7,757.5,1180.7,750.1z M1201.5,750.1c0-4.3-3.1-7-8.4-7c-5.2,0-8.3,2.7-8.3,7c0,4.3,3.2,6.8,8.4,6.8
				C1198.4,756.8,1201.5,754.3,1201.5,750.1z M1200,734.5c0-3.4-2.6-5.4-6.9-5.4c-4.2,0-6.9,2-6.9,5.4c0,3.4,2.6,5.4,6.9,5.4
				C1197.3,739.9,1200,737.9,1200,734.5z"/>
			<path class="st0" d="M1129.2,793.1h-7.2v-2.7c4-0.1,7.5-1.6,8.1-6.4h3.1v33.1h-4V793.1z"/>
			<path class="st0" d="M1144.4,793.1h-7.2v-2.7c4-0.1,7.5-1.6,8.1-6.4h3.1v33.1h-4V793.1z"/>
			<path class="st0" d="M1153.8,800.6c0-10.7,5-17.2,12.8-17.2c7.8,0,12.7,6.4,12.7,17.2c0,10.5-4.6,17.2-12.8,17.2
				C1158.5,817.8,1153.8,811.1,1153.8,800.6z M1175.2,800.6c0-8.4-2.8-13.7-8.5-13.7c-5.8,0-8.6,5.2-8.6,13.7
				c0,8.4,2.8,13.7,8.6,13.7C1172.5,814.3,1175.2,809.1,1175.2,800.6z"/>
			<path class="st0" d="M1134.2,859.4c4.3-2.5,7-4.2,7-8.2c0-4-2.8-6.8-7.2-6.8c-2.3,0-4,0.8-5.2,2.1c-1.3,1.4-1.9,3.2-1.9,6.6h-4.2
				c0-4.2,1.1-6.9,3.1-8.9c2.1-2.1,5.2-3.1,8.5-3.1c6.7,0,11,4.2,11,10.1c0,6.3-4.3,8.4-9.6,11.4c-3.6,2-8.1,4.7-9,8.3h18v3.8h-22.8
				C1122.3,865.9,1128.5,862.7,1134.2,859.4z"/>
			<path class="st0" d="M1148.4,858.2c0-10.7,5-17.2,12.8-17.2s12.7,6.4,12.7,17.2c0,10.5-4.6,17.2-12.8,17.2
				C1153.1,875.4,1148.4,868.7,1148.4,858.2z M1169.8,858.2c0-8.4-2.8-13.7-8.5-13.7c-5.8,0-8.6,5.2-8.6,13.7
				c0,8.4,2.8,13.7,8.6,13.7C1167.1,871.9,1169.8,866.7,1169.8,858.2z"/>
			<path class="st0" d="M1192.4,866.6h-15.5V863l16.3-21.6h3.2v21.9h5.4v3.2h-5.4v8.1h-3.9V866.6z M1180.7,863.4h11.6V848h-0.1
				l-11.5,15.3V863.4z"/>
		</g>
	</g>
	<g>
		<g>
			<path class="st0" d="M1322.3,684.3c0-10.1,6-17.9,16.3-17.9c8,0,12.9,4.6,13.8,10.9h-4.2c-0.8-4.3-4.2-7.2-9.6-7.2
				c-7.5,0-11.8,6.1-11.8,14.2c0,8.4,4.7,14.1,11.8,14.1c6.5,0,9.6-4.4,10-9.5h4.3c0,3.4-1.7,7.2-4.1,9.6c-2.4,2.4-5.9,3.6-10.3,3.6
				C1328.7,702.2,1322.3,694.7,1322.3,684.3z"/>
			<path class="st0" d="M1323.6,724.8h5.5l11.1,28.5h0.1l11-28.5h5.6v34.3h-4.1v-28.2h-0.1c0,0-0.9,2.7-1.5,4.3l-9.4,23.9h-3.3
				l-9.4-23.9c-0.7-1.7-1.5-4.3-1.5-4.3h-0.1v28.2h-3.9V724.8z"/>
			<path class="st0" d="M1333.3,802.1l-12.4-19.8h4.8l9.8,16.3h0.1l10-16.3h4.6l-12.6,19.9v14.4h-4.3V802.1z"/>
			<path class="st0" d="M1323.6,840h4.3v17l16.9-17h5.4l-13.9,13.7l15,20.6h-5l-12.9-17.7l-5.5,5.5v12.1h-4.3V840z"/>
		</g>
	</g>
	<g>
		<g>
			<path class="st0" d="M1398.5,685c0-10.7,5-17.2,12.8-17.2c7.8,0,12.7,6.4,12.7,17.2c0,10.5-4.6,17.2-12.8,17.2
				C1403.2,702.2,1398.5,695.5,1398.5,685z M1419.9,685c0-8.4-2.8-13.7-8.5-13.7c-5.8,0-8.6,5.2-8.6,13.7c0,8.4,2.8,13.7,8.6,13.7
				C1417.2,698.7,1419.9,693.5,1419.9,685z"/>
			<path class="st0" d="M1427.9,692.6h4.1c0.3,3.6,2.8,6.2,7.2,6.2c2.5,0,4.3-0.7,5.6-2.2c2-2.1,2.7-5.8,2.9-10.7h-0.1
				c-2.1,2.6-5.1,4.2-9.1,4.2c-6,0-10.9-5-10.9-11c0-6.1,4.8-11.2,11.5-11.2c3.2,0,5.7,1,7.6,2.4c3.7,2.9,4.9,7.6,4.9,14.9
				c0,6.7-1.3,11.5-4.6,14.4c-2,1.7-4.6,2.6-7.7,2.6C1432.8,702.2,1428.2,698.4,1427.9,692.6z M1447.1,678.9c0-4.7-3.6-7.8-8-7.8
				c-4.6,0-7.8,3.2-7.8,7.8s3.5,7.9,7.7,7.9C1444,686.8,1447.1,683.6,1447.1,678.9z"/>
			<path class="st0" d="M1454.7,692h4c0.5,4.1,3.4,6.7,8.1,6.7c4.7,0,7.7-3.2,7.7-8c0-4.9-3.4-7.8-7.7-7.8c-3.6,0-6,1.4-7.4,3.4
				h-3.9l3.6-17.7h17.5v3.6h-14.7l-2.2,9.9h0.1c1.9-1.8,4.4-2.8,7.5-2.8c5.9,0,11.2,4.2,11.2,11.5c0,7-5,11.4-11.8,11.4
				S1455,698.1,1454.7,692z"/>
			<path class="st0" d="M1398.5,742.6c0-10.7,5-17.2,12.8-17.2c7.8,0,12.7,6.4,12.7,17.2c0,10.5-4.6,17.2-12.8,17.2
				C1403.2,759.8,1398.5,753.1,1398.5,742.6z M1419.9,742.6c0-8.4-2.8-13.7-8.5-13.7c-5.8,0-8.6,5.2-8.6,13.7
				c0,8.4,2.8,13.7,8.6,13.7C1417.2,756.3,1419.9,751.1,1419.9,742.6z"/>
			<path class="st0" d="M1442.5,751H1427v-3.6l16.3-21.6h3.2v21.9h5.4v3.2h-5.4v8.1h-3.9V751z M1430.9,747.8h11.6v-15.4h-0.1
				l-11.5,15.3V747.8z"/>
			<path class="st0" d="M1469.9,751h-15.5v-3.6l16.3-21.6h3.2v21.9h5.4v3.2h-5.4v8.1h-3.9V751z M1458.3,747.8h11.6v-15.4h-0.1
				l-11.5,15.3V747.8z"/>
			<path class="st0" d="M1398.5,800.2c0-10.7,5-17.2,12.8-17.2c7.8,0,12.7,6.4,12.7,17.2c0,10.5-4.6,17.2-12.8,17.2
				C1403.2,817.4,1398.5,810.7,1398.5,800.2z M1419.9,800.2c0-8.4-2.8-13.7-8.5-13.7c-5.8,0-8.6,5.2-8.6,13.7
				c0,8.4,2.8,13.7,8.6,13.7C1417.2,813.9,1419.9,808.7,1419.9,800.2z"/>
			<path class="st0" d="M1427.9,800.2c0-10.7,5-17.2,12.8-17.2s12.7,6.4,12.7,17.2c0,10.5-4.6,17.2-12.8,17.2
				C1432.6,817.4,1427.9,810.7,1427.9,800.2z M1449.3,800.2c0-8.4-2.8-13.7-8.5-13.7c-5.8,0-8.6,5.2-8.6,13.7
				c0,8.4,2.8,13.7,8.6,13.7C1446.6,813.9,1449.3,808.7,1449.3,800.2z"/>
			<path class="st0" d="M1457.3,800.2c0-10.7,5-17.2,12.8-17.2c7.8,0,12.7,6.4,12.7,17.2c0,10.5-4.6,17.2-12.8,17.2
				C1462,817.4,1457.3,810.7,1457.3,800.2z M1478.7,800.2c0-8.4-2.8-13.7-8.5-13.7c-5.8,0-8.6,5.2-8.6,13.7c0,8.4,2.8,13.7,8.6,13.7
				C1476,813.9,1478.7,808.7,1478.7,800.2z"/>
			<path class="st0" d="M1398.5,857.8c0-10.7,5-17.2,12.8-17.2c7.8,0,12.7,6.4,12.7,17.2c0,10.5-4.6,17.2-12.8,17.2
				C1403.2,875,1398.5,868.3,1398.5,857.8z M1419.9,857.8c0-8.4-2.8-13.7-8.5-13.7c-5.8,0-8.6,5.2-8.6,13.7c0,8.4,2.8,13.7,8.6,13.7
				C1417.2,871.5,1419.9,866.3,1419.9,857.8z"/>
			<path class="st0" d="M1444.2,845.1L1444.2,845.1l-18.8-0.1v-3.6h23v3.3c-6.7,5.9-13.3,16.5-14,29.6h-4.3
				C1430.8,862.8,1436.8,851.1,1444.2,845.1z"/>
			<path class="st0" d="M1449.6,864.9c0-4.8,3.1-7.3,6.8-8.5v-0.1c-3.1-1.2-5.1-3.6-5.1-7c0-5.2,4.8-8.6,10.8-8.6
				c6,0,10.8,3.3,10.8,8.6c0,3.4-2,5.8-5,7v0.1c3.7,1.1,6.7,4.1,6.7,8.5c0,7.5-6.2,10.1-12.3,10.1S1449.6,872.3,1449.6,864.9z
				 M1470.4,864.9c0-4.3-3.1-7-8.4-7c-5.2,0-8.3,2.7-8.3,7c0,4.3,3.2,6.8,8.4,6.8C1467.3,871.6,1470.4,869.1,1470.4,864.9z
				 M1468.9,849.3c0-3.4-2.6-5.4-6.9-5.4c-4.2,0-6.9,2-6.9,5.4c0,3.4,2.6,5.4,6.9,5.4C1466.2,854.7,1468.9,852.7,1468.9,849.3z"/>
		</g>
	</g>
	<g>
		<g>
			<path class="st0" d="M1049.7,111.3h33.1c21.5,0,36,15.5,36,39.3c0,13.7-4.8,24.7-13.5,31.3c-6.1,4.6-13.9,7.1-23.7,7.1h-31.9
				V111.3z M1080.3,172.8c12.6,0,19.1-7.9,19.1-22.2c0-14.1-6.8-23.2-18.9-23.2H1069v45.4H1080.3z"/>
			<path class="st0" d="M1124.8,111.3h17.7v14.3h-17.7V111.3z M1124.8,133.3h17.7v55.6h-17.7V133.3z"/>
			<path class="st0" d="M1158.9,179.8c-6.7-7.4-10.4-17.6-10.4-29.4c0-12.2,4.1-22.9,11.5-30.3c6.4-6.5,15.4-10.3,26.6-10.3
				c20,0,31.9,10.6,34.4,26.9h-18.7c-1.4-6.3-6.6-11.1-15.1-11.1c-12.8,0-19.2,10.6-19.2,24.8c0,14.2,7.4,24.8,19.6,24.8
				c10.1,0,16.1-6.7,16.8-13.6v-0.2h-14.6v-14.1h32.4v41.7h-13.5l-1.1-9.3h-0.2c-5.1,7.9-12.7,11.1-22.1,11.1
				C1174.4,190.7,1165.3,186.8,1158.9,179.8z"/>
			<path class="st0" d="M1248.4,111.3h37.5c8,0,14,2,18.1,5.3c4.5,3.7,6.7,8.7,6.7,14.9c0,7.7-4,12.6-10.9,15.2v0.3
				c8.5,2.6,13.9,9.8,13.9,19c0,7.8-2.8,13.5-7.9,17.4c-4.6,3.6-11,5.5-19.1,5.5h-38.3V111.3z M1283.1,142c5.5,0,9.3-2.7,9.3-7.8
				c0-4.9-3.6-7.7-9.2-7.7h-15.8V142H1283.1z M1284.6,173.5c6.3,0,10.2-3.6,10.2-9.1c0-6.2-4.6-9.3-10.4-9.3h-16.9v18.5H1284.6z"/>
			<path class="st0" d="M1319.7,111.3h17.9v77.7h-17.9V111.3z"/>
			<path class="st0" d="M1344.7,169.8v-36.5h17.6v32.8c0,6.1,2.7,9.5,8.4,9.5c6.1,0,9.8-4.6,9.8-11.2v-31.1h17.7v55.6h-16.9v-6.8
				h-0.3c-4,5.4-8.9,8.5-16.6,8.5C1351.5,190.6,1344.7,182.2,1344.7,169.8z"/>
			<path class="st0" d="M1403,161c0-16.6,11.6-29.3,28.6-29.3c7.9,0,14.2,2.6,19,7c6.6,6.1,9.9,15.8,9.8,27h-40
				c1.1,7.5,5.2,12.2,12.5,12.2c4.7,0,7.7-2.1,9.2-5.5h17.3c-1.2,5-4.5,9.8-9.3,13.1c-4.7,3.3-10.3,5.1-17.4,5.1
				C1414.3,190.6,1403,177.9,1403,161z M1442.5,155.2c-0.7-6.6-4.8-10.9-10.5-10.9c-6.7,0-10.2,4.2-11.4,10.9H1442.5z"/>
		</g>
	</g>
	<g>
		<g>
			<path class="st0" d="M2046.8,48.7h10.7c2.7,0,4.8,0.9,6.1,2.5c1.1,1.3,1.7,3,1.7,4.9c0,4.7-2.7,7.6-8.3,7.6h-7v10.8h-3.2V48.7z
				 M2050.1,61h6.8c3.6,0,5.4-1.8,5.4-4.8c0-3.1-1.9-4.7-5.2-4.7h-6.9V61z"/>
			<path class="st0" d="M2070.6,58.9L2070.6,58.9c1.2-1.8,3.1-3.3,5.6-3.3c0.5,0,0.8,0.1,1.2,0.2v2.8h-0.1c-0.4-0.1-0.7-0.2-1.3-0.2
				c-2.9,0-5.4,2.2-5.4,5.7v10.3h-2.9V55.8h2.9V58.9z"/>
			<path class="st0" d="M2079.4,48.7h2.9v3.6h-2.9V48.7z M2079.4,55.8h2.9v18.6h-2.9V55.8z"/>
			<path class="st0" d="M2085.9,55.8h2.9v2.7h0.1c1.2-1.8,3.1-3.1,5.5-3.1c2.3,0,4.1,1.2,4.9,3.3h0.1c1.2-2.1,3.4-3.3,5.7-3.3
				c3.3,0,5.7,2.1,5.7,6v13.1h-2.9V61.5c0-2.3-1.5-3.7-3.4-3.7c-2.4,0-4.6,2.1-4.6,5v11.6h-2.9V61.5c0-2.3-1.3-3.7-3.2-3.7
				c-2.3,0-4.8,2.1-4.8,5v11.6h-2.9V55.8z"/>
			<path class="st0" d="M2125.7,71.8L2125.7,71.8c-1.2,1.4-3.1,3-6.2,3c-3.5,0-6.3-1.7-6.3-5.2c0-4.4,3.5-5.3,8.1-6
				c2.6-0.4,4.5-0.6,4.5-2.7c0-2.1-1.5-3.3-4.2-3.3c-3,0-4.5,1.3-4.6,4.1h-2.8c0.1-3.6,2.5-6.3,7.4-6.3c4,0,6.9,1.5,6.9,5.9v8.9
				c0,1.5,0.4,2.3,2,2h0.1v2.1c-0.4,0.1-0.8,0.3-1.6,0.3C2127,74.6,2126,73.7,2125.7,71.8z M2125.8,67.6v-3.2
				c-1,0.6-2.7,1.1-4.2,1.4c-2.9,0.5-5.3,1-5.3,3.8c0,2.5,1.9,3,3.9,3C2124,72.6,2125.8,69.7,2125.8,67.6z"/>
			<path class="st0" d="M2135.3,58.9L2135.3,58.9c1.2-1.8,3.1-3.3,5.6-3.3c0.5,0,0.8,0.1,1.2,0.2v2.8h-0.1c-0.4-0.1-0.7-0.2-1.3-0.2
				c-2.9,0-5.4,2.2-5.4,5.7v10.3h-2.9V55.8h2.9V58.9z"/>
			<path class="st0" d="M2144.9,80.2v-2.6h0.1c0.4,0.2,1,0.4,2,0.4c1.2,0,2.1-0.5,2.8-2.3l0.7-1.8l-7.3-18.1h3.2l4.4,11.6
				c0.6,1.5,1.3,3.6,1.3,3.6h0.1c0,0,0.6-2.1,1.2-3.6l4.2-11.6h3.1l-8,20.1c-1.5,3.9-3,4.6-5.2,4.6
				C2146.4,80.6,2145.7,80.5,2144.9,80.2z"/>
		</g>
	</g>
	<g>
		<g>
			<path class="st0" d="M2045.2,1423.9h3.2c0.4,4.4,3.1,6.6,8,6.6c3.6,0,6.1-1.6,6.1-4.8c0-3.5-3.1-4.4-7.7-5.4
				c-4.5-1-8.4-2.3-8.4-7.2c0-4.2,3.5-6.8,8.7-6.8c6.4,0,9.1,3.3,9.8,8h-3.1c-0.5-3.7-2.8-5.5-6.6-5.5c-3.5,0-5.8,1.5-5.8,4.1
				c0,2.9,2.9,3.8,6.7,4.5c5,1,9.6,2.2,9.6,8c0,4.8-3.9,7.5-9.5,7.5C2048.9,1433.1,2045.5,1429,2045.2,1423.9z"/>
			<path class="st0" d="M2080.6,1432.6v-2.6h-0.1c-1.3,1.8-2.9,3-5.6,3c-3.8,0-6.3-2.3-6.3-6.2V1414h2.9v12.8c0,2.4,1.5,3.8,4.2,3.8
				c3,0,4.9-2.2,4.9-5.2V1414h2.9v18.6H2080.6z"/>
			<path class="st0" d="M2087.2,1414h2.9v2.6h0.1c1.4-1.9,3.3-3.1,6-3.1c4.7,0,8,3.6,8,9.8c0,6-3.1,9.8-8.1,9.8
				c-2.5,0-4.3-0.8-5.9-2.7h-0.1v8.2h-2.9V1414z M2101.1,1423.4c0-4.2-1.8-7.3-5.3-7.3c-4.1,0-5.9,3.3-5.9,7.3s1.6,7.3,5.9,7.3
				C2099.4,1430.7,2101.1,1427.6,2101.1,1423.4z"/>
			<path class="st0" d="M2106.8,1414h2.9v2.6h0.1c1.4-1.9,3.3-3.1,6-3.1c4.7,0,8,3.6,8,9.8c0,6-3.1,9.8-8.1,9.8
				c-2.5,0-4.3-0.8-5.9-2.7h-0.1v8.2h-2.9V1414z M2120.8,1423.4c0-4.2-1.8-7.3-5.3-7.3c-4.1,0-5.9,3.3-5.9,7.3s1.6,7.3,5.9,7.3
				C2119,1430.7,2120.8,1427.6,2120.8,1423.4z"/>
			<path class="st0" d="M2125.5,1423.3c0-5.4,3.5-9.8,9-9.8c5.6,0,9,4.4,9,9.8c0,5.4-3.4,9.8-9,9.8
				C2129,1433.1,2125.5,1428.7,2125.5,1423.3z M2140.5,1423.3c0-4.1-2-7.4-6-7.4s-6,3.3-6,7.4s2.1,7.3,6,7.3
				S2140.5,1427.4,2140.5,1423.3z"/>
			<path class="st0" d="M2149,1417.1L2149,1417.1c1.2-1.8,3.1-3.3,5.6-3.3c0.5,0,0.8,0.1,1.2,0.2v2.8h-0.1c-0.4-0.1-0.7-0.2-1.3-0.2
				c-2.9,0-5.4,2.2-5.4,5.7v10.3h-2.9V1414h2.9V1417.1z"/>
			<path class="st0" d="M2157.3,1414h2.7v-5.9h2.9v5.9h3.6v2.4h-3.6v12.1c0,1.3,0.7,1.7,1.9,1.7c0.6,0,1.2-0.1,1.5-0.3h0.1v2.5
				c-0.7,0.1-1.5,0.3-2.3,0.3c-2.4,0-4.1-1-4.1-3.6v-12.7h-2.7V1414z"/>
		</g>
	</g>
	<g>
		<g>
			<path class="st0" d="M2539.2,1423.9h3.2c0.4,4.4,3.1,6.6,8,6.6c3.6,0,6.1-1.6,6.1-4.8c0-3.5-3.1-4.4-7.7-5.4
				c-4.5-1-8.4-2.3-8.4-7.2c0-4.2,3.5-6.8,8.7-6.8c6.4,0,9.1,3.3,9.8,8h-3.1c-0.5-3.7-2.8-5.5-6.6-5.5c-3.5,0-5.8,1.5-5.8,4.1
				c0,2.9,2.9,3.8,6.7,4.5c5,1,9.6,2.2,9.6,8c0,4.8-3.9,7.5-9.5,7.5C2542.9,1433.1,2539.5,1429,2539.2,1423.9z"/>
			<path class="st0" d="M2574.6,1432.6v-2.6h-0.1c-1.3,1.8-2.9,3-5.6,3c-3.8,0-6.3-2.3-6.3-6.2V1414h2.9v12.8c0,2.4,1.5,3.8,4.2,3.8
				c3,0,4.9-2.2,4.9-5.2V1414h2.9v18.6H2574.6z"/>
			<path class="st0" d="M2581.2,1414h2.9v2.6h0.1c1.4-1.9,3.3-3.1,6-3.1c4.7,0,8,3.6,8,9.8c0,6-3.1,9.8-8.1,9.8
				c-2.5,0-4.3-0.8-5.9-2.7h-0.1v8.2h-2.9V1414z M2595.1,1423.4c0-4.2-1.8-7.3-5.3-7.3c-4.1,0-5.9,3.3-5.9,7.3s1.6,7.3,5.9,7.3
				C2593.4,1430.7,2595.1,1427.6,2595.1,1423.4z"/>
			<path class="st0" d="M2600.8,1414h2.9v2.6h0.1c1.4-1.9,3.3-3.1,6-3.1c4.7,0,8,3.6,8,9.8c0,6-3.1,9.8-8.1,9.8
				c-2.5,0-4.3-0.8-5.9-2.7h-0.1v8.2h-2.9V1414z M2614.8,1423.4c0-4.2-1.8-7.3-5.3-7.3c-4.1,0-5.9,3.3-5.9,7.3s1.6,7.3,5.9,7.3
				C2613,1430.7,2614.8,1427.6,2614.8,1423.4z"/>
			<path class="st0" d="M2619.5,1423.3c0-5.4,3.5-9.8,9-9.8c5.6,0,9,4.4,9,9.8c0,5.4-3.4,9.8-9,9.8
				C2623,1433.1,2619.5,1428.7,2619.5,1423.3z M2634.5,1423.3c0-4.1-2-7.4-6-7.4s-6,3.3-6,7.4s2.1,7.3,6,7.3
				S2634.5,1427.4,2634.5,1423.3z"/>
			<path class="st0" d="M2643,1417.1L2643,1417.1c1.2-1.8,3.1-3.3,5.6-3.3c0.5,0,0.8,0.1,1.2,0.2v2.8h-0.1c-0.4-0.1-0.7-0.2-1.3-0.2
				c-2.9,0-5.4,2.2-5.4,5.7v10.3h-2.9V1414h2.9V1417.1z"/>
			<path class="st0" d="M2651.3,1414h2.7v-5.9h2.9v5.9h3.6v2.4h-3.6v12.1c0,1.3,0.7,1.7,1.9,1.7c0.6,0,1.2-0.1,1.5-0.3h0.1v2.5
				c-0.7,0.1-1.5,0.3-2.3,0.3c-2.4,0-4.1-1-4.1-3.6v-12.7h-2.7V1414z"/>
		</g>
	</g>
	<g>
		<g>
			<path class="st0" d="M2046,244.6h4.8l1.2-9.1h3.3l-1.2,9.1h6.5l1.2-9.1h3.3l-1.2,9.1h4.8l-0.5,3.5h-4.8l-1.1,7.4h4.8l-0.5,3.5
				h-4.8l-1.3,9.5h-3.3l1.3-9.5h-6.5l-1.3,9.5h-3.3l1.3-9.5h-4.9l0.5-3.5h4.8l1.1-7.4h-4.9L2046,244.6z M2052.5,255.5h6.5l1.1-7.4
				h-6.5L2052.5,255.5z"/>
			<path class="st0" d="M2083.5,253.1c4.3-2.5,7-4.2,7-8.2c0-4-2.8-6.8-7.2-6.8c-2.3,0-4,0.8-5.2,2.1c-1.3,1.4-1.9,3.2-1.9,6.6h-4.2
				c0-4.2,1.1-6.9,3.1-8.9c2.1-2.1,5.2-3.1,8.5-3.1c6.7,0,11,4.2,11,10.1c0,6.3-4.3,8.4-9.6,11.4c-3.6,2-8.1,4.7-9,8.3h18v3.8h-22.8
				C2071.5,259.7,2077.7,256.5,2083.5,253.1z"/>
			<path class="st0" d="M2097.6,252c0-10.7,5-17.2,12.8-17.2s12.7,6.4,12.7,17.2c0,10.5-4.6,17.2-12.8,17.2
				C2102.3,269.2,2097.6,262.5,2097.6,252z M2119,252c0-8.4-2.8-13.7-8.5-13.7c-5.8,0-8.6,5.2-8.6,13.7c0,8.4,2.8,13.7,8.6,13.7
				C2116.3,265.7,2119,260.5,2119,252z"/>
			<path class="st0" d="M2138.1,253.1c4.3-2.5,7-4.2,7-8.2c0-4-2.8-6.8-7.2-6.8c-2.3,0-4,0.8-5.2,2.1c-1.3,1.4-1.9,3.2-1.9,6.6h-4.2
				c0-4.2,1.1-6.9,3.1-8.9c2.1-2.1,5.2-3.1,8.5-3.1c6.7,0,11,4.2,11,10.1c0,6.3-4.3,8.4-9.6,11.4c-3.6,2-8.1,4.7-9,8.3h18v3.8h-22.8
				C2126.1,259.7,2132.3,256.5,2138.1,253.1z"/>
			<path class="st0" d="M2159.5,244.5h-7.2v-2.7c4-0.1,7.5-1.6,8.1-6.4h3.1v33.1h-4V244.5z"/>
			<path class="st0" d="M2180.3,253.1c4.3-2.5,7-4.2,7-8.2c0-4-2.8-6.8-7.2-6.8c-2.3,0-4,0.8-5.2,2.1c-1.3,1.4-1.9,3.2-1.9,6.6h-4.2
				c0-4.2,1.1-6.9,3.1-8.9c2.1-2.1,5.2-3.1,8.5-3.1c6.7,0,11,4.2,11,10.1c0,6.3-4.3,8.4-9.6,11.4c-3.6,2-8.1,4.7-9,8.3h18v3.8H2168
				C2168.4,259.7,2174.6,256.5,2180.3,253.1z"/>
			<path class="st0" d="M2193.6,257.6h4c0.1,5.3,3.6,8.2,9,8.2c4.6,0,7.8-2.3,7.8-6.9c0-4.2-3.1-6.4-8.6-6.4h-2.1v-3.1h2
				c5.1,0,7.7-2.2,7.7-5.7c0-3.6-3.2-5.8-7.2-5.8c-4.8,0-7.6,3.1-7.6,7.6h-3.9c0-6.5,4.4-10.8,11.7-10.8c6.1,0,10.9,3.3,10.9,9
				c0,3.7-2.3,5.9-5.4,6.9v0.1c4.6,1.2,6.6,4.1,6.6,8.4c0,6.3-5.1,9.9-11.8,9.9C2199.4,269.2,2193.7,265.1,2193.6,257.6z"/>
		</g>
	</g>
	<g>
		<g>
			<path class="st0" d="M2043.6,725.2h16c6,0,10.1,3.8,10.1,9.4c0,4.2-1.8,7.2-6,8.5v0.1c3.5,1.2,4.6,3.6,4.9,8.7
				c0.4,5.5,1,6.9,1.6,7.3v0.2h-4.7c-0.7-0.6-0.9-1.9-1.2-7.7c-0.3-5-2.4-6.8-7-6.8h-9.6v14.5h-4.3V725.2z M2047.9,741.5h10.2
				c4.8,0,7.2-2.4,7.2-6.3c0-4.2-1.9-6.3-7-6.3h-10.4V741.5z"/>
			<path class="st0" d="M2069.3,812.6L2069.3,812.6c-2.6,3.5-6.3,5.2-10.8,5.2c-9.6,0-16.1-7.3-16.1-17.8c0-10.1,5.7-18,16.5-18
				c8,0,12.9,4.3,14,11h-4.5c-1-4.6-4.2-7.3-9.6-7.3c-8.3,0-12,6.2-12,14.3c0,8.4,4.9,14,11.9,14c7.1,0,10.4-4.8,10.4-10.6v-0.8
				h-10.3v-3.7h14.6v18.1h-2.8L2069.3,812.6z"/>
			<path class="st0" d="M2043.6,840.4h14.5c3.6,0,6.3,1,8.3,3c1.4,1.4,2.2,3.4,2.2,5.9c0,3.8-2.1,6.1-5.5,7.2v0.1
				c3.9,0.9,6.9,3.7,6.9,8.3c0,2.6-0.9,4.9-2.5,6.6c-1.9,2.1-4.9,3.3-8.6,3.3h-15.3V840.4z M2057.6,855.1c4.2,0,6.7-2.1,6.7-5.6
				c0-3.3-2.3-5.3-6.1-5.3h-10.3v10.9H2057.6z M2058.8,870.8c2.4,0,4.2-0.6,5.4-1.7c1-1,1.5-2.4,1.5-4c0-4.3-3-6.4-7.2-6.4h-10.5
				v12.1H2058.8z"/>
		</g>
	</g>
	<g>
		<g>
			<path class="st0" d="M2118.5,743c0-10.7,5-17.2,12.8-17.2c7.8,0,12.7,6.4,12.7,17.2c0,10.5-4.6,17.2-12.8,17.2
				C2123.2,760.2,2118.5,753.5,2118.5,743z M2139.9,743c0-8.4-2.8-13.7-8.5-13.7c-5.8,0-8.6,5.2-8.6,13.7c0,8.4,2.8,13.7,8.6,13.7
				C2137.2,756.7,2139.9,751.5,2139.9,743z"/>
			<path class="st0" d="M2146.7,748.6h4c0.1,5.3,3.6,8.2,9,8.2c4.6,0,7.8-2.3,7.8-6.9c0-4.2-3.1-6.4-8.6-6.4h-2.1v-3.1h2
				c5.1,0,7.7-2.2,7.7-5.7c0-3.6-3.2-5.8-7.2-5.8c-4.8,0-7.6,3.1-7.6,7.6h-3.9c0-6.5,4.4-10.8,11.7-10.8c6.1,0,10.9,3.3,10.9,9
				c0,3.7-2.3,5.9-5.4,6.9v0.1c4.6,1.2,6.6,4.1,6.6,8.4c0,6.3-5.1,9.9-11.8,9.9C2152.6,760.2,2146.9,756.1,2146.7,748.6z"/>
			<path class="st0" d="M2186.4,744.2c4.3-2.5,7-4.2,7-8.2c0-4-2.8-6.8-7.2-6.8c-2.3,0-4,0.8-5.2,2.1c-1.3,1.4-1.9,3.2-1.9,6.6h-4.2
				c0-4.2,1.1-6.9,3.1-8.9c2.1-2.1,5.2-3.1,8.5-3.1c6.7,0,11,4.2,11,10.1c0,6.3-4.3,8.4-9.6,11.4c-3.6,2-8.1,4.7-9,8.3h18v3.8h-22.8
				C2174.5,750.7,2180.7,747.5,2186.4,744.2z"/>
			<path class="st0" d="M2118.5,800.6c0-10.7,5-17.2,12.8-17.2c7.8,0,12.7,6.4,12.7,17.2c0,10.5-4.6,17.2-12.8,17.2
				C2123.2,817.8,2118.5,811.1,2118.5,800.6z M2139.9,800.6c0-8.4-2.8-13.7-8.5-13.7c-5.8,0-8.6,5.2-8.6,13.7
				c0,8.4,2.8,13.7,8.6,13.7C2137.2,814.3,2139.9,809.1,2139.9,800.6z"/>
			<path class="st0" d="M2146.7,806.2h4c0.1,5.3,3.6,8.2,9,8.2c4.6,0,7.8-2.3,7.8-6.9c0-4.2-3.1-6.4-8.6-6.4h-2.1V798h2
				c5.1,0,7.7-2.2,7.7-5.7c0-3.6-3.2-5.8-7.2-5.8c-4.8,0-7.6,3.1-7.6,7.6h-3.9c0-6.5,4.4-10.8,11.7-10.8c6.1,0,10.9,3.3,10.9,9
				c0,3.7-2.3,5.9-5.4,6.9v0.1c4.6,1.2,6.6,4.1,6.6,8.4c0,6.3-5.1,9.9-11.8,9.9C2152.6,817.8,2146.9,813.7,2146.7,806.2z"/>
			<path class="st0" d="M2174.2,806.2h4c0.1,5.3,3.6,8.2,9,8.2c4.6,0,7.8-2.3,7.8-6.9c0-4.2-3.1-6.4-8.6-6.4h-2.1V798h2
				c5.1,0,7.7-2.2,7.7-5.7c0-3.6-3.2-5.8-7.2-5.8c-4.8,0-7.6,3.1-7.6,7.6h-3.9c0-6.5,4.4-10.8,11.7-10.8c6.1,0,10.9,3.3,10.9,9
				c0,3.7-2.3,5.9-5.4,6.9v0.1c4.6,1.2,6.6,4.1,6.6,8.4c0,6.3-5.1,9.9-11.8,9.9C2180.1,817.8,2174.4,813.7,2174.2,806.2z"/>
			<path class="st0" d="M2118.5,858.2c0-10.7,5-17.2,12.8-17.2c7.8,0,12.7,6.4,12.7,17.2c0,10.5-4.6,17.2-12.8,17.2
				C2123.2,875.4,2118.5,868.7,2118.5,858.2z M2139.9,858.2c0-8.4-2.8-13.7-8.5-13.7c-5.8,0-8.6,5.2-8.6,13.7
				c0,8.4,2.8,13.7,8.6,13.7C2137.2,871.9,2139.9,866.7,2139.9,858.2z"/>
			<path class="st0" d="M2146.7,863.8h4c0.1,5.3,3.6,8.2,9,8.2c4.6,0,7.8-2.3,7.8-6.9c0-4.2-3.1-6.4-8.6-6.4h-2.1v-3.1h2
				c5.1,0,7.7-2.2,7.7-5.7c0-3.6-3.2-5.8-7.2-5.8c-4.8,0-7.6,3.1-7.6,7.6h-3.9c0-6.5,4.4-10.8,11.7-10.8c6.1,0,10.9,3.3,10.9,9
				c0,3.7-2.3,5.9-5.4,6.9v0.1c4.6,1.2,6.6,4.1,6.6,8.4c0,6.3-5.1,9.9-11.8,9.9C2152.6,875.4,2146.9,871.3,2146.7,863.8z"/>
			<path class="st0" d="M2174.3,865.2h4c0.5,4.1,3.4,6.7,8.1,6.7c4.7,0,7.7-3.2,7.7-8c0-4.9-3.4-7.8-7.7-7.8c-3.6,0-6,1.4-7.4,3.4
				h-3.9l3.6-17.7h17.5v3.6h-14.7l-2.2,9.9h0.1c1.9-1.8,4.4-2.8,7.5-2.8c5.9,0,11.2,4.2,11.2,11.5c0,7-5,11.4-11.8,11.4
				S2174.6,871.3,2174.3,865.2z"/>
		</g>
	</g>
	<g>
		<g>
			<path class="st0" d="M2318.3,684.3c0-10.1,6-17.9,16.3-17.9c8,0,12.9,4.6,13.8,10.9h-4.2c-0.8-4.3-4.2-7.2-9.6-7.2
				c-7.5,0-11.8,6.1-11.8,14.2c0,8.4,4.7,14.1,11.8,14.1c6.5,0,9.6-4.4,10-9.5h4.3c0,3.4-1.7,7.2-4.1,9.6c-2.4,2.4-5.9,3.6-10.3,3.6
				C2324.7,702.2,2318.3,694.7,2318.3,684.3z"/>
			<path class="st0" d="M2319.6,724.8h5.5l11.1,28.5h0.1l11-28.5h5.6v34.3h-4.1v-28.2h-0.1c0,0-0.9,2.7-1.5,4.3l-9.4,23.9h-3.3
				l-9.4-23.9c-0.7-1.7-1.5-4.3-1.5-4.3h-0.1v28.2h-3.9V724.8z"/>
			<path class="st0" d="M2329.3,802.1l-12.4-19.8h4.8l9.8,16.3h0.1l10-16.3h4.6l-12.6,19.9v14.4h-4.3V802.1z"/>
			<path class="st0" d="M2319.6,840h4.3v17l16.9-17h5.4l-13.9,13.7l15,20.6h-5l-12.9-17.7l-5.5,5.5v12.1h-4.3V840z"/>
		</g>
	</g>
	<g>
		<g>
			<path class="st0" d="M2394.5,685c0-10.7,5-17.2,12.8-17.2c7.8,0,12.7,6.4,12.7,17.2c0,10.5-4.6,17.2-12.8,17.2
				C2399.2,702.2,2394.5,695.5,2394.5,685z M2415.9,685c0-8.4-2.8-13.7-8.5-13.7c-5.8,0-8.6,5.2-8.6,13.7c0,8.4,2.8,13.7,8.6,13.7
				C2413.2,698.7,2415.9,693.5,2415.9,685z"/>
			<path class="st0" d="M2423.9,685c0-10.7,5-17.2,12.8-17.2s12.7,6.4,12.7,17.2c0,10.5-4.6,17.2-12.8,17.2
				C2428.6,702.2,2423.9,695.5,2423.9,685z M2445.3,685c0-8.4-2.8-13.7-8.5-13.7c-5.8,0-8.6,5.2-8.6,13.7c0,8.4,2.8,13.7,8.6,13.7
				C2442.6,698.7,2445.3,693.5,2445.3,685z"/>
			<path class="st0" d="M2453.3,692.6h4.1c0.3,3.6,2.8,6.2,7.2,6.2c2.5,0,4.3-0.7,5.6-2.2c2-2.1,2.7-5.8,2.9-10.7h-0.1
				c-2.1,2.6-5.1,4.2-9.1,4.2c-6,0-10.9-5-10.9-11c0-6.1,4.8-11.2,11.5-11.2c3.2,0,5.7,1,7.6,2.4c3.7,2.9,4.9,7.6,4.9,14.9
				c0,6.7-1.3,11.5-4.6,14.4c-2,1.7-4.6,2.6-7.7,2.6C2458.2,702.2,2453.6,698.4,2453.3,692.6z M2472.5,678.9c0-4.7-3.6-7.8-8-7.8
				c-4.6,0-7.8,3.2-7.8,7.8s3.5,7.9,7.7,7.9C2469.4,686.8,2472.5,683.6,2472.5,678.9z"/>
			<path class="st0" d="M2394.5,742.6c0-10.7,5-17.2,12.8-17.2c7.8,0,12.7,6.4,12.7,17.2c0,10.5-4.6,17.2-12.8,17.2
				C2399.2,759.8,2394.5,753.1,2394.5,742.6z M2415.9,742.6c0-8.4-2.8-13.7-8.5-13.7c-5.8,0-8.6,5.2-8.6,13.7
				c0,8.4,2.8,13.7,8.6,13.7C2413.2,756.3,2415.9,751.1,2415.9,742.6z"/>
			<path class="st0" d="M2423.9,742.6c0-10.7,5-17.2,12.8-17.2s12.7,6.4,12.7,17.2c0,10.5-4.6,17.2-12.8,17.2
				C2428.6,759.8,2423.9,753.1,2423.9,742.6z M2445.3,742.6c0-8.4-2.8-13.7-8.5-13.7c-5.8,0-8.6,5.2-8.6,13.7
				c0,8.4,2.8,13.7,8.6,13.7C2442.6,756.3,2445.3,751.1,2445.3,742.6z"/>
			<path class="st0" d="M2458,756.9c-3.5-3.2-4.7-7.7-4.7-14.4c0-10.2,4.4-17,12.7-17c6.6,0,9.8,4.4,10.4,9.1h-4
				c-0.3-3.1-2.5-5.7-6.3-5.7c-6.4,0-8.7,5.2-8.9,13.2h0.1c2.1-2.9,5.1-4.6,9-4.6c6,0,10.8,5,10.8,11c0,6.1-4.9,11.2-11,11.2
				C2462.6,759.8,2459.9,758.7,2458,756.9z M2473.5,748.7c0-4.7-3.3-7.9-7.5-7.9c-4.7,0-8,3.1-8,7.8c0,4.7,3.5,7.9,8.1,7.9
				C2470.4,756.5,2473.5,753.4,2473.5,748.7z"/>
			<path class="st0" d="M2394.5,800.2c0-10.7,5-17.2,12.8-17.2c7.8,0,12.7,6.4,12.7,17.2c0,10.5-4.6,17.2-12.8,17.2
				C2399.2,817.4,2394.5,810.7,2394.5,800.2z M2415.9,800.2c0-8.4-2.8-13.7-8.5-13.7c-5.8,0-8.6,5.2-8.6,13.7
				c0,8.4,2.8,13.7,8.6,13.7C2413.2,813.9,2415.9,808.7,2415.9,800.2z"/>
			<path class="st0" d="M2423.9,800.2c0-10.7,5-17.2,12.8-17.2s12.7,6.4,12.7,17.2c0,10.5-4.6,17.2-12.8,17.2
				C2428.6,817.4,2423.9,810.7,2423.9,800.2z M2445.3,800.2c0-8.4-2.8-13.7-8.5-13.7c-5.8,0-8.6,5.2-8.6,13.7
				c0,8.4,2.8,13.7,8.6,13.7C2442.6,813.9,2445.3,808.7,2445.3,800.2z"/>
			<path class="st0" d="M2453.3,800.2c0-10.7,5-17.2,12.8-17.2c7.8,0,12.7,6.4,12.7,17.2c0,10.5-4.6,17.2-12.8,17.2
				C2458,817.4,2453.3,810.7,2453.3,800.2z M2474.7,800.2c0-8.4-2.8-13.7-8.5-13.7c-5.8,0-8.6,5.2-8.6,13.7c0,8.4,2.8,13.7,8.6,13.7
				C2472,813.9,2474.7,808.7,2474.7,800.2z"/>
			<path class="st0" d="M2394.5,857.8c0-10.7,5-17.2,12.8-17.2c7.8,0,12.7,6.4,12.7,17.2c0,10.5-4.6,17.2-12.8,17.2
				C2399.2,875,2394.5,868.3,2394.5,857.8z M2415.9,857.8c0-8.4-2.8-13.7-8.5-13.7c-5.8,0-8.6,5.2-8.6,13.7c0,8.4,2.8,13.7,8.6,13.7
				C2413.2,871.5,2415.9,866.3,2415.9,857.8z"/>
			<path class="st0" d="M2423.3,864.9c0-4.8,3.1-7.3,6.8-8.5v-0.1c-3.1-1.2-5.1-3.6-5.1-7c0-5.2,4.8-8.6,10.8-8.6s10.8,3.3,10.8,8.6
				c0,3.4-2,5.8-5,7v0.1c3.7,1.1,6.7,4.1,6.7,8.5c0,7.5-6.2,10.1-12.3,10.1S2423.3,872.3,2423.3,864.9z M2444.1,864.9
				c0-4.3-3.1-7-8.4-7c-5.2,0-8.3,2.7-8.3,7c0,4.3,3.2,6.8,8.4,6.8C2441,871.6,2444.1,869.1,2444.1,864.9z M2442.6,849.3
				c0-3.4-2.6-5.4-6.9-5.4s-6.9,2-6.9,5.4c0,3.4,2.6,5.4,6.9,5.4S2442.6,852.7,2442.6,849.3z"/>
			<path class="st0" d="M2456,872.1c-3.5-3.2-4.7-7.7-4.7-14.4c0-10.2,4.4-17,12.7-17c6.6,0,9.8,4.4,10.4,9.1h-4
				c-0.3-3.1-2.5-5.7-6.3-5.7c-6.4,0-8.7,5.2-8.9,13.2h0.1c2.1-2.9,5.1-4.6,9-4.6c6,0,10.8,5,10.8,11c0,6.1-4.9,11.2-11,11.2
				C2460.6,875,2458,873.9,2456,872.1z M2471.5,863.9c0-4.7-3.3-7.9-7.5-7.9c-4.7,0-8,3.1-8,7.8c0,4.7,3.5,7.9,8.1,7.9
				C2468.4,871.7,2471.5,868.6,2471.5,863.9z"/>
		</g>
	</g>
	<g>
		<g>
			<path class="st0" d="M2045.7,111.3h33.1c21.5,0,36,15.5,36,39.3c0,13.7-4.8,24.7-13.5,31.3c-6.1,4.6-13.9,7.1-23.7,7.1h-31.9
				V111.3z M2076.3,172.8c12.6,0,19.1-7.9,19.1-22.2c0-14.1-6.8-23.2-18.9-23.2H2065v45.4H2076.3z"/>
			<path class="st0" d="M2120.8,111.3h17.7v14.3h-17.7V111.3z M2120.8,133.3h17.7v55.6h-17.7V133.3z"/>
			<path class="st0" d="M2154.9,179.8c-6.7-7.4-10.4-17.6-10.4-29.4c0-12.2,4.1-22.9,11.5-30.3c6.4-6.5,15.4-10.3,26.6-10.3
				c20,0,31.9,10.6,34.4,26.9h-18.7c-1.4-6.3-6.6-11.1-15.1-11.1c-12.8,0-19.2,10.6-19.2,24.8c0,14.2,7.4,24.8,19.6,24.8
				c10.1,0,16.1-6.7,16.8-13.6v-0.2h-14.6v-14.1h32.4v41.7h-13.5l-1.1-9.3h-0.2c-5.1,7.9-12.7,11.1-22.1,11.1
				C2170.4,190.7,2161.3,186.8,2154.9,179.8z"/>
			<path class="st0" d="M2244.4,111.3h37.5c8,0,14,2,18.1,5.3c4.5,3.7,6.7,8.7,6.7,14.9c0,7.7-4,12.6-10.9,15.2v0.3
				c8.5,2.6,13.9,9.8,13.9,19c0,7.8-2.8,13.5-7.9,17.4c-4.6,3.6-11,5.5-19.1,5.5h-38.3V111.3z M2279.1,142c5.5,0,9.3-2.7,9.3-7.8
				c0-4.9-3.6-7.7-9.2-7.7h-15.8V142H2279.1z M2280.6,173.5c6.3,0,10.2-3.6,10.2-9.1c0-6.2-4.6-9.3-10.4-9.3h-16.9v18.5H2280.6z"/>
			<path class="st0" d="M2315.7,111.3h17.9v77.7h-17.9V111.3z"/>
			<path class="st0" d="M2338.4,173.4c0-12.3,9.8-16,21.3-17.5c10.4-1.3,14.1-2.4,14.1-6.2c0-3.6-2.3-6-7.6-6c-5.6,0-8.5,2.5-9,7.2
				h-16.3c0.4-10.3,8.4-19.1,25.2-19.1c8.4,0,14,1.5,18,4.6c4.8,3.5,7.1,8.9,7.1,15.9v28c0,4.5,0.4,7,2,7.9v0.8H2376
				c-0.9-1.2-1.4-3.4-1.8-6.2h-0.2c-3.3,4.7-8.1,7.6-16.5,7.6C2346.4,190.3,2338.4,184.4,2338.4,173.4z M2374.3,169.1v-6.6
				c-2.3,1.2-5.5,2.1-9.1,2.9c-6.8,1.5-9.7,3.3-9.7,7.5c0,4.5,3.3,6.2,7.6,6.2C2369.7,179.1,2374.3,175,2374.3,169.1z"/>
			<path class="st0" d="M2395.6,161.2c0-16.7,11.5-29.4,29.1-29.4c15.1,0,24.8,8.8,26.4,21.3H2434c-1.1-5-4.1-8.3-9.1-8.3
				c-7.6,0-11.4,6.3-11.4,16.4c0,9.9,3.8,16.2,11.4,16.2c5.5,0,8.9-3.3,9.7-9.6h16.9c-0.4,12.8-10.6,22.8-26.4,22.8
				C2407.2,190.7,2395.6,178,2395.6,161.2z"/>
			<path class="st0" d="M2456,111.3h17.5v40.8l16.5-18.8h20.4l-19.6,20.9l21.8,34.8h-20.5l-13.4-22.7l-5.3,5.6v17.1H2456V111.3z"/>
		</g>
	</g>
	<g>
		<g>
			<path class="st0" d="M2042.8,981.7h14.9c9.6,0,16.1,7,16.1,17.6c0,6.1-2.1,11.1-6,14c-2.7,2-6.2,3.2-10.6,3.2h-14.3V981.7z
				 M2056.5,1009.3c5.7,0,8.6-3.6,8.6-9.9c0-6.3-3.1-10.4-8.5-10.4h-5.2v20.4H2056.5z"/>
			<path class="st0" d="M2076.7,981.7h7.9v6.4h-7.9V981.7z M2076.7,991.6h7.9v25h-7.9V991.6z"/>
			<path class="st0" d="M2092.2,1012.5c-3-3.3-4.7-7.9-4.7-13.2c0-5.5,1.9-10.3,5.2-13.6c2.9-2.9,6.9-4.6,11.9-4.6
				c9,0,14.3,4.8,15.4,12.1h-8.4c-0.6-2.8-3-5-6.8-5c-5.8,0-8.6,4.8-8.6,11.1c0,6.4,3.3,11.1,8.8,11.1c4.5,0,7.2-3,7.6-6.1v-0.1
				h-6.5v-6.3h14.5v18.7h-6l-0.5-4.2h-0.1c-2.3,3.6-5.7,5-9.9,5C2099.1,1017.4,2095.1,1015.6,2092.2,1012.5z"/>
			<path class="st0" d="M2132.4,981.7h15.7c4.2,0,7.4,1.2,9.5,3.2c2.2,2.1,3.5,5.1,3.5,8.6c0,6.7-4.6,11.4-11.8,11.4h-8.1v11.6h-8.8
				V981.7z M2147.5,998.1c3.1,0,4.9-1.9,4.9-4.6c0-2.8-1.8-4.5-4.9-4.5h-6.4v9.1H2147.5z"/>
			<path class="st0" d="M2162.7,1008v-16.4h7.9v14.7c0,2.7,1.2,4.2,3.8,4.2c2.7,0,4.4-2,4.4-5v-13.9h7.9v25h-7.6v-3.1h-0.1
				c-1.8,2.4-4,3.8-7.5,3.8C2165.8,1017.3,2162.7,1013.6,2162.7,1008z"/>
			<path class="st0" d="M2190.3,991.6h7.6v3.9h0.1c1.8-3,3.8-4.3,6.8-4.3c0.7,0,1.2,0,1.6,0.2v6.8h-0.2c-4.9-0.7-8,1.7-8,7.1v11.2
				h-7.9V991.6z"/>
			<path class="st0" d="M2207,1004c0-7.5,5.2-13.2,12.8-13.2c3.6,0,6.4,1.2,8.5,3.1c3,2.7,4.4,7.1,4.4,12.1h-17.9
				c0.5,3.4,2.3,5.5,5.6,5.5c2.1,0,3.5-0.9,4.1-2.5h7.7c-0.5,2.2-2,4.4-4.2,5.9c-2.1,1.5-4.6,2.3-7.8,2.3
				C2212.1,1017.3,2207,1011.6,2207,1004z M2224.7,1001.4c-0.3-3-2.1-4.9-4.7-4.9c-3,0-4.6,1.9-5.1,4.9H2224.7z"/>
			<path class="st0" d="M2242.1,999.3c0-10.4,6.8-18.2,17.2-18.2c4,0,7.5,1.2,9.9,3.1c3,2.3,4.8,5.7,5.2,9.6h-8.6
				c-0.4-3.1-2.9-5.5-6.6-5.5c-5.7,0-8.3,4.7-8.3,11.1c0,6.4,3.2,11,8.4,11c3.9,0,6.4-2.4,6.8-5.8h8.6c-0.2,3.5-1.8,6.6-4.2,8.9
				c-2.7,2.6-6.2,3.9-11.2,3.9C2249.1,1017.4,2242.1,1009.7,2242.1,999.3z"/>
			<path class="st0" d="M2278.1,1018.6h2.7c2.3,0,3.3-0.9,3.3-2.6c0-1.1-0.5-2.5-1.5-5.2l-7.4-19.2h8.4l3.4,10.6
				c0.8,2.4,1.6,5.8,1.6,5.8h0.1c0,0,0.7-3.3,1.5-5.8l3.3-10.6h7.9l-8.6,25.3c-2,5.8-4.4,7.9-9.4,7.9h-5.2V1018.6z"/>
			<path class="st0" d="M2300.3,1009.6c0-5.5,4.4-7.2,9.6-7.8c4.7-0.6,6.3-1.1,6.3-2.8c0-1.6-1-2.7-3.4-2.7c-2.5,0-3.8,1.1-4,3.2
				h-7.3c0.2-4.6,3.8-8.6,11.3-8.6c3.8,0,6.3,0.7,8.1,2c2.1,1.6,3.2,4,3.2,7.1v12.6c0,2,0.2,3.1,0.9,3.6v0.3h-7.7
				c-0.4-0.5-0.6-1.5-0.8-2.8h-0.1c-1.5,2.1-3.7,3.4-7.4,3.4C2303.9,1017.2,2300.3,1014.5,2300.3,1009.6z M2316.4,1007.7v-3
				c-1,0.5-2.5,0.9-4.1,1.3c-3.1,0.7-4.3,1.5-4.3,3.4c0,2,1.5,2.8,3.4,2.8C2314.4,1012.1,2316.4,1010.3,2316.4,1007.7z"/>
			<path class="st0" d="M2327.6,991.6h7.7v3.4h0.1c1.9-2.7,4.2-4.1,7.7-4.1c5.5,0,8.7,3.9,8.7,9.5v16.2h-7.9V1002
				c0-2.6-1.3-4.4-3.9-4.4c-2.6,0-4.4,2.2-4.4,5.3v13.8h-7.9V991.6z"/>
		</g>
	</g>
	<g>
		<g>
			<path class="st0" d="M2540.8,981.7h14.9c9.6,0,16.1,7,16.1,17.6c0,6.1-2.1,11.1-6,14c-2.7,2-6.2,3.2-10.6,3.2h-14.3V981.7z
				 M2554.5,1009.3c5.7,0,8.6-3.6,8.6-9.9c0-6.3-3.1-10.4-8.5-10.4h-5.2v20.4H2554.5z"/>
			<path class="st0" d="M2574.7,981.7h7.9v6.4h-7.9V981.7z M2574.7,991.6h7.9v25h-7.9V991.6z"/>
			<path class="st0" d="M2590.2,1012.5c-3-3.3-4.7-7.9-4.7-13.2c0-5.5,1.9-10.3,5.2-13.6c2.9-2.9,6.9-4.6,11.9-4.6
				c9,0,14.3,4.8,15.4,12.1h-8.4c-0.6-2.8-3-5-6.8-5c-5.8,0-8.6,4.8-8.6,11.1c0,6.4,3.3,11.1,8.8,11.1c4.5,0,7.2-3,7.6-6.1v-0.1
				h-6.5v-6.3h14.5v18.7h-6l-0.5-4.2h-0.1c-2.3,3.6-5.7,5-9.9,5C2597.1,1017.4,2593.1,1015.6,2590.2,1012.5z"/>
			<path class="st0" d="M2628.7,1005.6h8.7c0.4,3.5,2.7,5,6.8,5c2.8,0,5.6-1,5.6-3.7c0-2.8-2.8-3.4-7.6-4.5
				c-6-1.4-12.4-3.3-12.4-10.6c0-7.5,6-10.7,13.8-10.7c7.6,0,13.4,3.4,13.7,10.7h-8.4c-0.3-2.7-2.4-4.2-5.6-4.2c-3,0-5,1.3-5,3.3
				c0,2.4,2.7,3,7.9,4.2c6.5,1.5,12.3,3.5,12.3,11c0,7.3-6.2,11.4-14.3,11.4C2635,1017.4,2628.9,1013.3,2628.7,1005.6z"/>
			<path class="st0" d="M2660,1009.6c0-5.5,4.4-7.2,9.6-7.8c4.7-0.6,6.3-1.1,6.3-2.8c0-1.6-1-2.7-3.4-2.7c-2.5,0-3.8,1.1-4,3.2h-7.3
				c0.2-4.6,3.8-8.6,11.3-8.6c3.8,0,6.3,0.7,8.1,2c2.1,1.6,3.2,4,3.2,7.1v12.6c0,2,0.2,3.1,0.9,3.6v0.3h-7.7
				c-0.4-0.5-0.6-1.5-0.8-2.8h-0.1c-1.5,2.1-3.7,3.4-7.4,3.4C2663.5,1017.2,2660,1014.5,2660,1009.6z M2676,1007.7v-3
				c-1,0.5-2.5,0.9-4.1,1.3c-3.1,0.7-4.3,1.5-4.3,3.4c0,2,1.5,2.8,3.4,2.8C2674,1012.1,2676,1010.3,2676,1007.7z"/>
			<path class="st0" d="M2687.2,991.6h7.7v3.4h0.1c1.9-2.7,4.2-4.1,7.7-4.1c5.5,0,8.7,3.9,8.7,9.5v16.2h-7.9V1002
				c0-2.6-1.3-4.4-3.9-4.4c-2.6,0-4.4,2.2-4.4,5.3v13.8h-7.9V991.6z"/>
			<path class="st0" d="M2714.1,1017.2h7.7c0.4,1.3,1.8,2.4,4.4,2.4c3.4,0,4.8-1.8,4.8-4.8v-2.5h-0.2c-1.5,1.7-3.4,2.9-6.4,2.9
				c-5.6,0-10.8-4.2-10.8-11.8c0-7.3,4.3-12.5,10.5-12.5c3.3,0,5.6,1.3,7,3.4h0.1v-2.7h7.6v22.5c0,3.8-1.3,6.5-3.3,8.3
				c-2.2,1.9-5.5,2.8-9.2,2.8C2719.4,1025.2,2714.9,1022.4,2714.1,1017.2z M2731.3,1003.1c0-3.4-1.8-6.2-5.1-6.2
				c-3,0-4.9,2.4-4.9,6.2c0,3.8,1.9,6.2,4.9,6.2C2729.7,1009.3,2731.3,1006.6,2731.3,1003.1z"/>
			<path class="st0" d="M2741.2,1004.1c0-7.5,5.4-13.2,13.4-13.2c8,0,13.3,5.7,13.3,13.2c0,7.5-5.3,13.2-13.3,13.2
				C2746.5,1017.4,2741.2,1011.7,2741.2,1004.1z M2759.8,1004.1c0-4.5-1.9-7.6-5.3-7.6s-5.3,3.1-5.3,7.6s1.8,7.6,5.3,7.6
				S2759.8,1008.7,2759.8,1004.1z"/>
			<path class="st0" d="M2778.5,981.7h16.7c6.9,0,12.2,3.6,12.2,10c0,4-2,7-6,8.4v0.1c3,1,4.6,2.9,5.1,6.4c0.7,4.6,0.2,9,1.5,9.4
				v0.4h-8.4c-0.9-0.5-0.8-4.6-1.3-8.1c-0.4-3.2-2.1-5-5.8-5h-5.2v13.1h-8.6V981.7z M2793.7,997.1c3.4,0,5.2-1.6,5.2-4.2
				c0-2.5-1.7-4.3-5-4.3h-6.7v8.6H2793.7z"/>
			<path class="st0" d="M2809.1,1004c0-7.5,5.2-13.2,12.8-13.2c3.6,0,6.4,1.2,8.5,3.1c3,2.7,4.4,7.1,4.4,12.1h-17.9
				c0.5,3.4,2.3,5.5,5.6,5.5c2.1,0,3.5-0.9,4.1-2.5h7.7c-0.5,2.2-2,4.4-4.2,5.9c-2.1,1.5-4.6,2.3-7.8,2.3
				C2814.2,1017.3,2809.1,1011.6,2809.1,1004z M2826.8,1001.4c-0.3-3-2.1-4.9-4.7-4.9c-3,0-4.6,1.9-5.1,4.9H2826.8z"/>
			<path class="st0" d="M2836,1004.1c0-7.8,4.5-13.2,10.9-13.2c3.5,0,5.5,1.5,7,3.6h0.1v-12.7h7.9v34.8h-7.6v-3.4h-0.1
				c-1.5,2.6-4.1,4.1-7.4,4.1C2840.6,1017.4,2836,1012.4,2836,1004.1z M2854.3,1004.1c0-4.2-1.7-7.2-5.2-7.2c-3.2,0-5,2.9-5,7.1
				c0,4.3,1.9,7.1,4.9,7.1C2852.3,1011.1,2854.3,1008.2,2854.3,1004.1z"/>
		</g>
	</g>
</g>
</svg>
