<?xml version="1.0" encoding="utf-8"?>
<!-- Generator: Adobe Illustrator 22.0.0, SVG Export Plug-In . SVG Version: 6.00 Build 0)  -->
<svg version="1.1" id="Layer_1" xmlns="http://www.w3.org/2000/svg" xmlns:xlink="http://www.w3.org/1999/xlink" x="0px" y="0px"
	 viewBox="0 0 3000 2000" style="enable-background:new 0 0 3000 2000;" xml:space="preserve">
<style type="text/css">
	.st0{fill:#086ECC;}
	.st1{fill:#FFFFFF;}
</style>
<g>
	<rect class="st0" width="3000" height="2000"/>
	<g>
		<g>
			<path class="st1" d="M1328.7,768.7c-29-50.3-82.7-81.2-140.7-81.2H836.8c-1.8,0-3.5,1.5-3.5,3.5v455.7c0,1.8,1.5,3.5,3.5,3.5
				H1188c58,0,111.7-31,140.7-81.2l39.7-69c29-50.3,29-112.2,0-162.3L1328.7,768.7z M1296.5,933.8l-63.8,110.5
				c-3.7,6.3-10.5,10.3-18,10.3H932c-1.8,0-3.5-1.5-3.5-3.5v-265c0-1.8,1.5-3.5,3.5-3.5h282.7c7.3,0,14.2,4,18,10.3l63.8,110.5
				C1301.8,913,1301.8,924.5,1296.5,933.8z"/>
			<g>
				<path class="st1" d="M1442,1150h88.3c1.8,0,3.5-1.5,3.5-3.5V853.7c0-1.8-1.5-3.5-3.5-3.5H1442c-1.8,0-3.5,1.5-3.5,3.5v292.8
					C1438.5,1148.5,1440,1150,1442,1150z"/>
				<path class="st1" d="M1442,782.7h88.3c1.8,0,3.5-1.5,3.5-3.5v-88.3c0-1.8-1.5-3.5-3.5-3.5H1442c-1.8,0-3.5,1.5-3.5,3.5v88.3
					C1438.5,781.2,1440,782.7,1442,782.7z"/>
			</g>
			<g>
				<path class="st1" d="M1740.2,1044.3l-63.8-110.5c-5.3-9.3-5.3-21,0-30.3l63.8-110.5c3.7-6.3,10.5-10.3,18-10.3H2068
					c1.8,0,3.5-1.5,3.5-3.5v-88.3c0-1.8-1.5-3.5-3.5-3.5h-283.2c-58,0-111.7,31-140.7,81.2l-39.8,68.8c-29,50.3-29,112.2,0,162.3
					l39.8,68.8c29,50.3,82.7,81.2,140.7,81.2h128.5c2.5,0,4.7-1.3,6-3.5l50.8-88c1-1.7-0.2-3.8-2.2-3.8h-209.8
					C1750.7,1054.7,1743.8,1050.8,1740.2,1044.3z"/>
				<path class="st1" d="M2163.2,886.3h-284.7c-1.8,0-3.5,1.5-3.5,3.5v88.3c0,1.8,1.5,3.5,3.5,3.5h134.2c1.2,0,2.3-0.7,3-1.7
					l49.2-85c0.7-1.2,1.8-1.8,3-1.8l0,0c2,0,3.5,1.5,3.5,3.5v250c0,1.8,1.5,3.5,3.5,3.5h88.3c1.8,0,3.5-1.5,3.5-3.5V889.8
					C2166.7,887.8,2165.2,886.3,2163.2,886.3z"/>
			</g>
		</g>
		<g>
			<path class="st1" d="M877.5,1234.2h-44.2v120.2h43c17.7,0,31.3-5.3,40.7-16.2c9.3-10.7,14-25.3,14-43.7c0-18.3-4.5-33.2-13.5-44
				C908.5,1239.8,895,1234.2,877.5,1234.2z M851.3,1250.2H877c24,0,35.7,14.5,35.7,44.5c0,29.3-12,43.5-36.8,43.5h-24.5V1250.2
				L851.3,1250.2z"/>
			<rect x="943.3" y="1234.2" class="st1" width="16.5" height="19.7"/>
			<rect x="943.3" y="1266.7" class="st1" width="16.5" height="87.8"/>
			<rect x="975" y="1234.2" class="st1" width="16.5" height="120.2"/>
			<rect x="1006.7" y="1266.7" class="st1" width="16.5" height="87.8"/>
			<rect x="1006.7" y="1234.2" class="st1" width="16.5" height="19.7"/>
			<path class="st1" d="M1095.5,1274.8c-6.2-6.8-14.5-10.2-24.5-10.2c-10.7,0-19.7,4-27,11.8c-7.2,7.8-10.8,18.3-10.8,31.5
				c0,12.5,3.7,23,10.7,31.2c7.2,8.2,16.5,12.3,27.8,12.3c6,0,11-1.2,15-3.5c3-1.7,6-4.2,8.7-7.2v7.8c0,13.5-7.3,20.2-22.7,20.2
				c-13.5,0-20.5-3.8-21.7-11.5l-0.2-1.3h-15.5l0.2,1.8c0.8,7.8,4.5,14.2,11.2,18.5c6.3,4.2,15.3,6.3,26.3,6.3
				c11.8,0,21.3-2.8,28.3-8.7c7-5.8,10.5-14.5,10.5-25.7v-81.7h-16.5v8.2H1095.5z M1096.5,1307.3c0,20-7.8,29.8-24,29.8
				c-7.3,0-12.7-2.5-16.5-7.7c-3.8-5.2-5.8-12.3-5.8-21.3s2-16.2,5.8-21.5c3.8-5.2,9.2-7.7,16.5-7.7
				C1088.7,1279,1096.5,1288.3,1096.5,1307.3z"/>
			<path class="st1" d="M1163.8,1264.5c-12.2,0-22.3,4.5-30.2,13.3c-7.7,8.8-11.7,19.8-11.7,32.7c0,13.2,3.8,24.2,11.5,32.8
				c7.7,8.8,18.2,13.2,31,13.2c10,0,18.3-2.7,24.8-7.8c6.7-5.2,11-12.5,13-22l0.5-2h-16.2l-0.3,1.2c-2.8,10.8-9.8,16.2-21.8,16.2
				c-7.8,0-13.7-2.5-18.2-7.8c-4.2-5-6.7-11.3-7.5-19.2h65.3v-1.7c0-14.7-3.5-26.7-10.5-35.7
				C1186.8,1269,1176.7,1264.5,1163.8,1264.5z M1163.8,1278.2c7.2,0,12.5,2.2,16.5,6.7c3.7,4.2,5.8,10,6.5,17.3h-47.3
				c1.2-6.8,3.7-12.5,7.7-17C1151.2,1280.5,1156.7,1278.2,1163.8,1278.2z"/>
			<path class="st1" d="M1256,1264.7c-10.3,0-19,3.5-25.5,10.7v-8.7H1214v87.8h16.5v-53.7c0-6.5,2-11.7,6-15.7c4.2-4.2,9.2-6,15.5-6
				c5.5,0,10,1.3,13,4.2c3,2.7,4.5,6.5,4.5,11.5v59.8h16.5v-61.3c0-9.2-2.7-16.3-8-21.3C1272.8,1267.2,1265.3,1264.7,1256,1264.7z"
				/>
			<path class="st1" d="M1338.2,1278.7c5.8,0,10.7,1.5,14.3,4.5c3.7,3,5.8,7.2,6.8,12.7l0.2,1.3h16.7l-0.3-1.8
				c-1.7-9.3-5.7-17-12.3-22.5s-15.2-8.3-25.3-8.3c-12.8,0-23.2,4.5-30.8,13.3c-7.7,8.8-11.7,19.8-11.7,32.8c0,13,3.8,24,11.7,32.8
				c7.8,8.8,18.2,13.3,30.8,13.3c11,0,19.8-3,26.5-8.8c6.7-5.8,10.5-14.2,11.3-24.7l0.2-1.8h-16.3l-0.2,1.5
				c-0.5,6.2-2.7,11-6.3,14.3c-3.7,3.3-8.8,5-15.2,5c-8.3,0-14.5-2.8-18.8-8.8c-4.5-6-6.8-13.7-6.8-23c0-9.3,2.3-17,6.8-23
				C1323.7,1281.5,1329.8,1278.7,1338.2,1278.7z"/>
			<path class="st1" d="M1422.2,1264.5c-12.2,0-22.3,4.5-30.2,13.3c-7.7,8.8-11.7,19.8-11.7,32.7c0,13.2,3.8,24.2,11.5,32.8
				c7.7,8.8,18.2,13.2,31,13.2c10,0,18.3-2.7,24.8-7.8c6.7-5.2,11-12.5,13-22l0.5-2H1445l-0.3,1.2c-2.8,10.8-9.8,16.2-21.8,16.2
				c-7.8,0-13.7-2.5-18.2-7.8c-4.2-5-6.7-11.3-7.5-19.2h65.3v-1.7c0-14.7-3.5-26.7-10.5-35.7
				C1445.2,1269,1435.2,1264.5,1422.2,1264.5z M1422.2,1278.2c7.2,0,12.5,2.2,16.5,6.7c3.7,4.2,5.8,10,6.5,17.3h-47.3
				c1.2-6.8,3.7-12.5,7.7-17C1409.7,1280.5,1415.2,1278.2,1422.2,1278.2z"/>
			<rect x="1498.5" y="1234.2" class="st1" width="16.5" height="19.7"/>
			<rect x="1498.5" y="1266.7" class="st1" width="16.5" height="87.8"/>
			<path class="st1" d="M1571.7,1264.7c-10.3,0-19,3.5-25.5,10.7v-8.7h-16.5v87.8h16.5v-53.7c0-6.5,2-11.7,6-15.7
				c4.2-4.2,9.2-6,15.5-6c5.5,0,10,1.3,13,4.2c3,2.7,4.5,6.5,4.5,11.5v59.8h16.5v-61.3c0-9.2-2.7-16.3-8-21.3
				C1588.5,1267.2,1581,1264.7,1571.7,1264.7z"/>
			<path class="st1" d="M1695.3,1305.3h35.2v1.2c0,10-2.8,18.3-8.7,24.8c-5.7,6.3-14.2,9.7-25,9.7c-11.3,0-20.7-4.2-27.8-12.7
				c-7.2-8.5-10.8-19.7-10.8-33.5c0-14,3.3-25.5,10-34.2c6.5-8.5,16.3-12.8,29.3-12.8c8.7,0,15.7,2,21,6.2c5.2,4,8.7,10,10.2,17.5
				l0.3,1.3h18.5l-0.3-1.8c-2-12-7.3-21.7-15.8-28.5c-8.5-7-19.7-10.5-33.3-10.5c-18.2,0-32.5,6-42.7,17.8
				c-10,11.8-15.2,27-15.2,45.2s5.3,33.3,15.7,44.8c10.3,11.5,24.2,17.3,41,17.3c15.2,0,27.3-5.5,36-16.2l3.8,13.7h12.3v-65h-53.2
				v15.7H1695.3z"/>
			<path class="st1" d="M1830.8,1340.7v-47.3c0-18.8-10.8-28.5-32.3-28.5c-11,0-19.8,2.8-25.8,8.5c-6.2,5.7-9.5,12.8-10.2,21.7
				l-0.2,1.7h16l0.2-1.5c0.8-11.5,7.5-17.2,20.2-17.2c5.7,0,9.8,1.2,12.7,3.5c2.8,2.3,4.2,5.5,4.2,9.8c0,3.7-1.2,6.2-3.8,7.5
				c-2.8,1.7-7.8,2.8-14.7,3.5c-4.7,0.5-8.8,1-12.3,1.7c-3.5,0.7-7,1.7-10.3,3c-3.5,1.3-6.3,3-8.7,4.8c-2.3,2-4,4.5-5.5,7.7
				c-1.3,3.2-2,6.8-2,10.8c0,8.2,3,14.7,8.8,19.2c5.8,4.3,13.2,6.5,21.8,6.5c10.5,0,19.3-3.7,26.2-10.8c0.3,4.3,1.3,7.2,2.8,8.8
				l0.5,0.5h15.2v-3l-0.7-0.5C1832.3,1350.3,1830.8,1348.2,1830.8,1340.7z M1791.8,1342.7c-11,0-16-4-16-12.7c0-5,1.5-8.3,4.7-10.2
				c3.5-2,9.3-3.5,17.3-4.5c7-0.8,13-2.2,17.8-4.3v10.3c0,5.3-2,10-6.2,14.5C1805.3,1340.5,1799.5,1342.7,1791.8,1342.7z"/>
			<path class="st1" d="M1933.3,1264.7c-5.5,0-10.8,1.5-15.7,4.2c-4.2,2.3-7.5,5.5-10,9.2c-4.2-9-11.8-13.5-22.5-13.5
				c-5.3,0-10.5,1.3-15,4c-3.3,2-6.2,4.3-8.5,7.2v-9h-16.5v87.8h16.5v-54.3c0-6,2-10.8,6.3-15c4.2-4.2,8.8-6.2,13.8-6.2
				c3.8,0,7,1.3,9.3,4c2.3,2.7,3.7,6.5,3.7,11.2v60.3h16.5v-54.3c0-6,1.8-11,5.8-15c3.8-4,8.2-6,13.3-6c4,0,7.2,1.3,9.8,4
				c2.7,2.7,4,6.3,4,11v60.3h16.5v-61.2c0-9-2.5-16.2-7.5-21.2C1948.2,1267.2,1941.5,1264.7,1933.3,1264.7z"/>
			<rect x="1975" y="1234.2" class="st1" width="16.5" height="19.7"/>
			<rect x="1975" y="1266.7" class="st1" width="16.5" height="87.8"/>
			<path class="st1" d="M2048.3,1264.7c-10.3,0-19,3.5-25.5,10.7v-8.7h-16.5v87.8h16.5v-53.7c0-6.5,2-11.7,6-15.7
				c4.2-4.2,9.2-6,15.5-6c5.5,0,10,1.3,13,4.2c3,2.7,4.5,6.5,4.5,11.5v59.8h16.5v-61.3c0-9.2-2.7-16.3-8-21.3
				C2065,1267.2,2057.5,1264.7,2048.3,1264.7z"/>
			<path class="st1" d="M2150.2,1266.7v8.2c-6.2-6.8-14.5-10.2-24.5-10.2c-10.7,0-19.7,4-27,11.8c-7.2,7.8-10.8,18.3-10.8,31.5
				c0,12.5,3.7,23,10.7,31.2c7.2,8.2,16.5,12.3,27.8,12.3c6,0,11-1.2,15-3.5c3-1.7,6-4.2,8.7-7.2v7.8c0,13.5-7.3,20.2-22.7,20.2
				c-13.5,0-20.5-3.8-21.7-11.5l-0.2-1.3H2090l0.2,1.8c0.8,7.8,4.5,14.2,11.2,18.5c6.3,4.2,15.3,6.3,26.3,6.3
				c11.8,0,21.3-2.8,28.3-8.7c7-5.8,10.5-14.5,10.5-25.7v-81.7H2150.2z M2151.2,1307.3c0,20-7.8,29.8-24,29.8
				c-7.3,0-12.7-2.5-16.5-7.7c-3.8-5.2-5.8-12.3-5.8-21.3s2-16.2,5.8-21.5c3.8-5.2,9.2-7.7,16.5-7.7
				C2143.2,1279,2151.2,1288.3,2151.2,1307.3z"/>
		</g>
	</g>
</g>
</svg>
