<?xml version="1.0" encoding="utf-8"?>
<!-- Generator: Adobe Illustrator 22.0.0, SVG Export Plug-In . SVG Version: 6.00 Build 0)  -->
<svg version="1.1" id="Layer_1_copy" xmlns="http://www.w3.org/2000/svg" xmlns:xlink="http://www.w3.org/1999/xlink" x="0px"
	 y="0px" viewBox="0 0 3000 2000" style="enable-background:new 0 0 3000 2000;" xml:space="preserve">
<style type="text/css">
	.st0{fill:#E7F0F9;}
	.st1{opacity:0.3;fill:#086ECC;}
	.st2{fill:#086ECC;}
	.st3{fill:none;stroke:#106ECA;stroke-width:2;stroke-miterlimit:10;}
</style>
<rect class="st0" width="3000" height="2000"/>
<circle class="st1" cx="1755.5" cy="887.5" r="22"/>
<circle class="st1" cx="1756.5" cy="1113.6" r="22"/>
<circle class="st1" cx="1691.2" cy="999.5" r="22"/>
<circle class="st1" cx="1280.6" cy="999.5" r="22"/>
<circle class="st1" cx="1217" cy="887.5" r="22"/>
<circle class="st1" cx="1216" cy="1113.6" r="22"/>
<g>
	<g>
		<path class="st2" d="M1330.4,851.5c-28.7-49.7-81.8-80.3-139.2-80.3H843.8c-1.9,0-3.4,1.5-3.4,3.4v450.8c0,1.9,1.5,3.4,3.4,3.4
			h347.5c57.4,0,110.5-30.6,139.2-80.3l39.3-68.1c28.7-49.7,28.7-111,0-160.7L1330.4,851.5z M1298.6,1015l-63.1,109.3
			c-3.7,6.3-10.4,10.2-17.7,10.2H938.1c-1.9,0-3.4-1.5-3.4-3.4V868.9c0-1.9,1.5-3.4,3.4-3.4h279.7c7.3,0,14.1,3.9,17.7,10.2
			l63.1,109.3C1304,994.3,1304,1005.7,1298.6,1015z"/>
		<g>
			<path class="st2" d="M1442.6,1228.8h87.5c1.9,0,3.4-1.5,3.4-3.4V935.6c0-1.9-1.5-3.4-3.4-3.4h-87.5c-1.9,0-3.4,1.5-3.4,3.4v289.8
				C1439.2,1227.3,1440.7,1228.8,1442.6,1228.8z"/>
			<path class="st2" d="M1442.6,865.5h87.5c1.9,0,3.4-1.5,3.4-3.4v-87.5c0-1.9-1.5-3.4-3.4-3.4h-87.5c-1.9,0-3.4,1.5-3.4,3.4V862
				C1439.2,863.9,1440.7,865.5,1442.6,865.5z"/>
		</g>
		<g>
			<path class="st2" d="M1737.6,1124.3l-63.1-109.3c-5.4-9.3-5.4-20.7,0-30l63.1-109.3c3.7-6.3,10.4-10.2,17.7-10.2h306.5
				c1.9,0,3.4-1.5,3.4-3.4v-87.5c0-1.9-1.5-3.4-3.4-3.4h-280c-57.4,0-110.5,30.6-139.2,80.3l-39.3,68.1c-28.7,49.7-28.7,111,0,160.7
				l39.3,68.1c28.7,49.7,81.8,80.3,139.2,80.3H1909c2.4,0,4.7-1.3,5.9-3.4l50.2-87c1-1.7-0.2-3.8-2.2-3.8h-207.7
				C1748.1,1134.5,1741.3,1130.6,1737.6,1124.3z"/>
			<path class="st2" d="M2156.2,967.9h-281.7c-1.9,0-3.4,1.5-3.4,3.4v87.5c0,1.9,1.5,3.4,3.4,3.4h132.7c1.2,0,2.3-0.7,3-1.7
				l48.6-84.2c0.6-1.1,1.8-1.7,3-1.7l0,0c1.9,0,3.5,1.6,3.5,3.5v247.3c0,1.9,1.5,3.4,3.4,3.4h87.5c1.9,0,3.4-1.5,3.4-3.4v-254
				C2159.6,969.5,2158.1,967.9,2156.2,967.9z"/>
		</g>
	</g>
</g>
<g>
	<g>
		<line class="st3" x1="2500" y1="1228.8" x2="2500" y2="771.2"/>
		<line class="st3" x1="2500" y1="771.2" x2="2500" y2="210.5"/>
		<polyline class="st3" points="2242.5,2000 2500,2000 2500,1228.8 		"/>
		<polyline class="st3" points="2242.6,0 2500,0 2500,210.5 		"/>
		<line class="st3" x1="2242.6" y1="0" x2="2159.3" y2="0"/>
		<line class="st3" x1="1533.2" y1="0" x2="1438.9" y2="0"/>
		<polyline class="st3" points="730.4,0 500,0 500,771.2 		"/>
		<line class="st3" x1="730.4" y1="0" x2="840.1" y2="0"/>
		<line class="st3" x1="1883.9" y1="0" x2="1533.2" y2="0"/>
		<line class="st3" x1="1438.9" y1="0" x2="1088.3" y2="0"/>
		<line class="st3" x1="1884.5" y1="2000" x2="1533.2" y2="2000"/>
		<line class="st3" x1="1884.5" y1="2000" x2="2159.3" y2="2000"/>
		<line class="st3" x1="1088.5" y1="2000" x2="1438.9" y2="2000"/>
		<line class="st3" x1="2159.3" y1="2000" x2="2242.5" y2="2000"/>
		<polyline class="st3" points="500,1228.8 500,2000 729.8,2000 		"/>
		<line class="st3" x1="1088.5" y1="2000" x2="840.1" y2="2000"/>
		<line class="st3" x1="729.8" y1="2000" x2="840.1" y2="2000"/>
		<line class="st3" x1="1467.3" y1="2000" x2="1533.2" y2="2000"/>
		<line class="st3" x1="1467.3" y1="2000" x2="1438.9" y2="2000"/>
		<line class="st3" x1="1883.9" y1="0" x2="2159.3" y2="0"/>
		<line class="st3" x1="500" y1="1228.8" x2="500" y2="771.2"/>
		<line class="st3" x1="840.1" y1="0" x2="1088.3" y2="0"/>
		<line class="st3" x1="2159.3" y1="771.2" x2="2159.3" y2="144.4"/>
		<line class="st3" x1="2159.3" y1="1228.8" x2="2159.3" y2="1855.9"/>
		<line class="st3" x1="2159.3" y1="0" x2="2159.3" y2="144.4"/>
		<line class="st3" x1="2159.3" y1="1228.8" x2="2159.3" y2="800.8"/>
		<line class="st3" x1="2159.3" y1="771.2" x2="2159.3" y2="800.8"/>
		<line class="st3" x1="2159.3" y1="2000" x2="2159.3" y2="1855.9"/>
		<line class="st3" x1="840.1" y1="0" x2="840.1" y2="190.1"/>
		<line class="st3" x1="840.1" y1="1808.8" x2="840.1" y2="2000"/>
		<line class="st3" x1="840.1" y1="1228.8" x2="840.1" y2="771.2"/>
		<line class="st3" x1="840.1" y1="190.1" x2="840.1" y2="771.2"/>
		<line class="st3" x1="840.1" y1="1808.8" x2="840.1" y2="1228.8"/>
		<line class="st3" x1="1533.2" y1="1228.8" x2="1533.2" y2="1229.5"/>
		<line class="st3" x1="1533.2" y1="0" x2="1533.2" y2="607.8"/>
		<line class="st3" x1="1533.2" y1="1885.9" x2="1533.2" y2="1391.1"/>
		<line class="st3" x1="1533.2" y1="1885.9" x2="1533.2" y2="2000"/>
		<line class="st3" x1="1533.2" y1="771.2" x2="1533.2" y2="1228.8"/>
		<line class="st3" x1="1533.2" y1="770.8" x2="1533.2" y2="607.8"/>
		<line class="st3" x1="1533.2" y1="771.2" x2="1533.2" y2="770.8"/>
		<line class="st3" x1="1533.2" y1="1391.1" x2="1533.2" y2="1229.5"/>
		<line class="st3" x1="1438.9" y1="1392.9" x2="1438.9" y2="1228.8"/>
		<line class="st3" x1="1438.9" y1="1227.8" x2="1438.9" y2="771.2"/>
		<line class="st3" x1="1438.9" y1="1392.9" x2="1438.9" y2="2000"/>
		<line class="st3" x1="1438.9" y1="1228.8" x2="1438.9" y2="1227.8"/>
		<line class="st3" x1="1438.9" y1="771.2" x2="1438.9" y2="771.2"/>
		<line class="st3" x1="1438.9" y1="0" x2="1438.9" y2="607.4"/>
		<line class="st3" x1="1438.9" y1="607.4" x2="1438.9" y2="771.2"/>
		<line class="st3" x1="2500" y1="771.2" x2="2176.5" y2="771.2"/>
		<line class="st3" x1="1438.9" y1="771.2" x2="1533.2" y2="771.2"/>
		<line class="st3" x1="2176.5" y1="771.2" x2="2159.3" y2="771.2"/>
		<line class="st3" x1="1797.6" y1="771.2" x2="1533.4" y2="771.2"/>
		<line class="st3" x1="1797.6" y1="771.2" x2="2159.3" y2="771.2"/>
		<line class="st3" x1="1533.2" y1="771.2" x2="1533.4" y2="771.2"/>
		<line class="st3" x1="1438.9" y1="771.2" x2="1175.4" y2="771.2"/>
		<line class="st3" x1="1438.9" y1="771.2" x2="1438.9" y2="771.2"/>
		<line class="st3" x1="840.1" y1="771.2" x2="1175.4" y2="771.2"/>
		<line class="st3" x1="840.1" y1="771.2" x2="500" y2="771.2"/>
		<line class="st3" x1="1912.4" y1="1228.8" x2="2159.3" y2="1228.8"/>
		<line class="st3" x1="840.1" y1="1228.8" x2="1174.8" y2="1228.8"/>
		<line class="st3" x1="1533.5" y1="1228.8" x2="1533.2" y2="1228.8"/>
		<line class="st3" x1="1174.8" y1="1228.8" x2="1438.9" y2="1228.8"/>
		<line class="st3" x1="1438.9" y1="1228.8" x2="1439.5" y2="1228.8"/>
		<line class="st3" x1="2500" y1="1228.8" x2="2159.3" y2="1228.8"/>
		<line class="st3" x1="1533.5" y1="1228.8" x2="1797.5" y2="1228.8"/>
		<line class="st3" x1="1439.5" y1="1228.8" x2="1533.2" y2="1228.8"/>
		<line class="st3" x1="500" y1="1228.8" x2="840.1" y2="1228.8"/>
		<line class="st3" x1="1797.5" y1="1228.8" x2="1912.4" y2="1228.8"/>
		<line class="st3" x1="1486.1" y1="689.3" x2="1438.9" y2="607.4"/>
		<line class="st3" x1="1533.4" y1="771.2" x2="1665.5" y2="1000.2"/>
		<line class="st3" x1="1533.4" y1="771.2" x2="1533.2" y2="770.8"/>
		<line class="st3" x1="1797.5" y1="1228.8" x2="1665.5" y2="1000.2"/>
		<line class="st3" x1="1088.3" y1="0" x2="1438.9" y2="607.4"/>
		<line class="st3" x1="1854.9" y1="1328.4" x2="2159.3" y2="1855.9"/>
		<line class="st3" x1="2242.5" y1="2000" x2="2159.3" y2="1855.9"/>
		<line class="st3" x1="1854.9" y1="1328.4" x2="1797.5" y2="1228.8"/>
		<line class="st3" x1="1486.1" y1="689.3" x2="1533.2" y2="770.8"/>
		<line class="st3" x1="1439.5" y1="1228.8" x2="1486.5" y2="1310.3"/>
		<line class="st3" x1="1675.9" y1="1638.5" x2="1884.5" y2="2000"/>
		<line class="st3" x1="1533.2" y1="1391.1" x2="1675.9" y2="1638.5"/>
		<line class="st3" x1="1486.5" y1="1310.3" x2="1533.2" y2="1391.1"/>
		<line class="st3" x1="730.4" y1="0" x2="840.1" y2="190.1"/>
		<line class="st3" x1="1175.4" y1="771.2" x2="1307.1" y2="999.5"/>
		<line class="st3" x1="1307.1" y1="999.5" x2="1438.9" y2="1227.8"/>
		<line class="st3" x1="840.1" y1="190.1" x2="1175.4" y2="771.2"/>
		<line class="st3" x1="1439.5" y1="1228.8" x2="1438.9" y2="1227.8"/>
		<line class="st3" x1="1174.8" y1="1228.8" x2="1307.1" y2="999.5"/>
		<line class="st3" x1="1307.1" y1="999.5" x2="1438.9" y2="771.2"/>
		<line class="st3" x1="1533.2" y1="607.8" x2="1486.1" y2="689.3"/>
		<line class="st3" x1="1438.9" y1="771.2" x2="1438.9" y2="771.2"/>
		<line class="st3" x1="1438.9" y1="771.2" x2="1486.1" y2="689.3"/>
		<line class="st3" x1="840.1" y1="1808.8" x2="1174.8" y2="1228.8"/>
		<line class="st3" x1="840.1" y1="1808.8" x2="729.8" y2="2000"/>
		<line class="st3" x1="1883.9" y1="0" x2="1533.2" y2="607.8"/>
		<line class="st3" x1="1486.5" y1="1310.3" x2="1533.2" y2="1229.5"/>
		<line class="st3" x1="1438.9" y1="1392.9" x2="1088.5" y2="2000"/>
		<line class="st3" x1="2242.6" y1="0" x2="2159.3" y2="144.4"/>
		<line class="st3" x1="1665.5" y1="1000.2" x2="1797.6" y2="771.2"/>
		<line class="st3" x1="1533.2" y1="1229.5" x2="1533.5" y2="1228.8"/>
		<line class="st3" x1="2159.3" y1="144.4" x2="1797.6" y2="771.2"/>
		<line class="st3" x1="1438.9" y1="1392.9" x2="1486.5" y2="1310.3"/>
		<line class="st3" x1="1533.5" y1="1228.8" x2="1665.5" y2="1000.2"/>
		<line class="st3" x1="2159.3" y1="800.8" x2="2176.5" y2="771.2"/>
		<line class="st3" x1="2500" y1="210.5" x2="2176.5" y2="771.2"/>
		<line class="st3" x1="1533.2" y1="1885.9" x2="1675.9" y2="1638.5"/>
		<line class="st3" x1="1675.9" y1="1638.5" x2="1854.9" y2="1328.4"/>
		<line class="st3" x1="1854.9" y1="1328.4" x2="1912.4" y2="1228.8"/>
		<line class="st3" x1="1533.2" y1="1885.9" x2="1467.3" y2="2000"/>
		<line class="st3" x1="1912.4" y1="1228.8" x2="2159.3" y2="800.8"/>
	</g>
</g>
<g>
	<g>
		<path class="st2" d="M1862,83.7h4.2c0.2,5.5,3.7,8.6,9.4,8.6c4.8,0,8.1-2.4,8.1-7.2c0-4.4-3.3-6.7-9-6.7h-2.2v-3.3h2.1
			c5.4,0,8.1-2.3,8.1-5.9c0-3.8-3.4-6-7.5-6c-5,0-7.9,3.2-7.9,8h-4.1c0-6.8,4.6-11.3,12.2-11.3c6.4,0,11.4,3.5,11.4,9.4
			c0,3.9-2.4,6.1-5.7,7.2v0.1c4.8,1.3,6.9,4.3,6.9,8.8c0,6.6-5.4,10.3-12.3,10.3C1868.1,95.8,1862.2,91.5,1862,83.7z"/>
		<path class="st2" d="M1891.4,77.9c0-11.1,5.3-17.9,13.4-17.9s13.3,6.7,13.3,17.9c0,10.9-4.8,17.9-13.3,17.9
			C1896.2,95.8,1891.4,88.8,1891.4,77.9z M1913.6,77.9c0-8.7-3-14.3-8.9-14.3c-6.1,0-9,5.5-9,14.3c0,8.7,3,14.3,9,14.3
			C1910.8,92.1,1913.6,86.7,1913.6,77.9z"/>
		<path class="st2" d="M1921.2,66.1c0-3.4,2.8-6.2,6.3-6.2s6.3,2.8,6.3,6.2s-2.8,6.2-6.3,6.2C1924,72.3,1921.2,69.5,1921.2,66.1z
			 M1930.9,66.1c0-2.1-1.3-3.8-3.5-3.8c-2.1,0-3.5,1.7-3.5,3.8c0,2.2,1.4,3.8,3.5,3.8C1929.6,69.9,1930.9,68.3,1930.9,66.1z"/>
	</g>
</g>
<circle class="st2" cx="1838.3" cy="78.5" r="7.3"/>
<g>
	<g>
		<path class="st2" d="M2221,83.7h4.2c0.2,5.5,3.7,8.6,9.4,8.6c4.8,0,8.1-2.4,8.1-7.2c0-4.4-3.3-6.7-9-6.7h-2.2v-3.3h2.1
			c5.4,0,8.1-2.3,8.1-5.9c0-3.8-3.4-6-7.5-6c-5,0-7.9,3.2-7.9,8h-4.1c0-6.8,4.6-11.3,12.2-11.3c6.4,0,11.4,3.5,11.4,9.4
			c0,3.9-2.4,6.1-5.7,7.2v0.1c4.8,1.3,6.9,4.3,6.9,8.8c0,6.6-5.4,10.3-12.3,10.3C2227.1,95.8,2221.2,91.5,2221,83.7z"/>
		<path class="st2" d="M2250.4,77.9c0-11.1,5.3-17.9,13.4-17.9s13.3,6.7,13.3,17.9c0,10.9-4.8,17.9-13.3,17.9
			C2255.2,95.8,2250.4,88.8,2250.4,77.9z M2272.6,77.9c0-8.7-3-14.3-8.9-14.3c-6.1,0-9,5.5-9,14.3c0,8.7,3,14.3,9,14.3
			C2269.8,92.1,2272.6,86.7,2272.6,77.9z"/>
		<path class="st2" d="M2280.2,66.1c0-3.4,2.8-6.2,6.3-6.2s6.3,2.8,6.3,6.2s-2.8,6.2-6.3,6.2C2283,72.3,2280.2,69.5,2280.2,66.1z
			 M2289.9,66.1c0-2.1-1.3-3.8-3.5-3.8c-2.1,0-3.5,1.7-3.5,3.8c0,2.2,1.4,3.8,3.5,3.8C2288.6,69.9,2289.9,68.3,2289.9,66.1z"/>
	</g>
</g>
<circle class="st2" cx="2197.3" cy="78.5" r="7.3"/>
<g>
	<g>
		<path class="st2" d="M2397,435.7h4.2c0.2,5.5,3.7,8.6,9.4,8.6c4.8,0,8.1-2.4,8.1-7.2c0-4.4-3.3-6.7-9-6.7h-2.2v-3.3h2.1
			c5.4,0,8.1-2.3,8.1-5.9c0-3.8-3.4-6-7.5-6c-5,0-7.9,3.2-7.9,8h-4.1c0-6.8,4.6-11.3,12.2-11.3c6.4,0,11.4,3.5,11.4,9.4
			c0,3.9-2.4,6.1-5.7,7.2v0.1c4.8,1.3,6.9,4.3,6.9,8.8c0,6.6-5.4,10.3-12.3,10.3C2403.1,447.8,2397.2,443.5,2397,435.7z"/>
		<path class="st2" d="M2426.4,429.9c0-11.1,5.3-17.9,13.4-17.9s13.3,6.7,13.3,17.9c0,10.9-4.8,17.9-13.3,17.9
			C2431.2,447.8,2426.4,440.8,2426.4,429.9z M2448.6,429.9c0-8.7-3-14.3-8.9-14.3c-6.1,0-9,5.5-9,14.3c0,8.7,3,14.3,9,14.3
			C2445.8,444.1,2448.6,438.7,2448.6,429.9z"/>
		<path class="st2" d="M2456.2,418.1c0-3.4,2.8-6.2,6.3-6.2s6.3,2.8,6.3,6.2c0,3.4-2.8,6.2-6.3,6.2
			C2459,424.3,2456.2,421.5,2456.2,418.1z M2465.9,418.1c0-2.1-1.3-3.8-3.5-3.8c-2.1,0-3.5,1.7-3.5,3.8c0,2.2,1.4,3.8,3.5,3.8
			C2464.6,421.9,2465.9,420.3,2465.9,418.1z"/>
	</g>
</g>
<circle class="st2" cx="2373.3" cy="430.5" r="7.3"/>
</svg>
