<?xml version="1.0" encoding="utf-8"?>
<!-- Generator: Adobe Illustrator 22.0.0, SVG Export Plug-In . SVG Version: 6.00 Build 0)  -->
<svg version="1.1" id="Layer_1" xmlns="http://www.w3.org/2000/svg" xmlns:xlink="http://www.w3.org/1999/xlink" x="0px" y="0px"
	 viewBox="0 0 3000 2000" style="enable-background:new 0 0 3000 2000;" xml:space="preserve">
<style type="text/css">
	.st0{fill:#E7E7E7;}
	.st1{fill:none;stroke:#0EBBFF;stroke-width:2;stroke-miterlimit:10;}
	.st2{fill:none;stroke:#0EBBFF;stroke-width:2;stroke-miterlimit:10;stroke-dasharray:4,4;}
	.st3{fill:#1A1B18;}
	.st4{opacity:0.8;}
</style>
<rect class="st0" width="3000" height="2000"/>
<line class="st1" x1="0" y1="210.6" x2="3000" y2="210.6"/>
<line class="st1" x1="0" y1="410.9" x2="3000" y2="410.9"/>
<line class="st1" x1="0" y1="367.1" x2="3000" y2="367.1"/>
<g>
	<g>
		<line class="st1" x1="0" y1="310.7" x2="2" y2="310.7"/>
		<line class="st2" x1="6" y1="310.7" x2="2996" y2="310.7"/>
		<line class="st1" x1="2998" y1="310.7" x2="3000" y2="310.7"/>
	</g>
</g>
<g>
	<g>
		<line class="st1" x1="0" y1="648.9" x2="2" y2="648.9"/>
		<line class="st2" x1="6" y1="648.9" x2="2996" y2="648.9"/>
		<line class="st1" x1="2998" y1="648.9" x2="3000" y2="648.9"/>
	</g>
</g>
<g>
	<g>
		<line class="st1" x1="0" y1="1025" x2="2" y2="1025"/>
		<line class="st2" x1="6" y1="1025" x2="2996" y2="1025"/>
		<line class="st1" x1="2998" y1="1025" x2="3000" y2="1025"/>
	</g>
</g>
<g>
	<g>
		<line class="st1" x1="0" y1="1341.5" x2="2" y2="1341.5"/>
		<line class="st2" x1="6" y1="1341.5" x2="2996" y2="1341.5"/>
		<line class="st1" x1="2998" y1="1341.5" x2="3000" y2="1341.5"/>
	</g>
</g>
<g>
	<g>
		<line class="st1" x1="0" y1="1600.4" x2="2" y2="1600.4"/>
		<line class="st2" x1="6" y1="1600.4" x2="2996" y2="1600.4"/>
		<line class="st1" x1="2998" y1="1600.4" x2="3000" y2="1600.4"/>
	</g>
</g>
<g>
	<g>
		<line class="st1" x1="0" y1="1835.3" x2="2" y2="1835.3"/>
		<line class="st2" x1="6" y1="1835.3" x2="2996" y2="1835.3"/>
		<line class="st1" x1="2998" y1="1835.3" x2="3000" y2="1835.3"/>
	</g>
</g>
<line class="st1" x1="0" y1="256.1" x2="3000" y2="256.1"/>
<line class="st2" x1="139.3" y1="0" x2="139.3" y2="2000"/>
<line class="st2" x1="1674.7" y1="0" x2="1674.7" y2="2000"/>
<g>
	<path class="st3" d="M481.6,350.7h13.7v38.9h-17.9V367h-79.8v22.6h-17.9v-38.9h10.3c7.3-6,11.4-16.1,11.4-47.3V256h80.1V350.7z
		 M463.2,350.7v-79.3h-44.8v34.4c0,23.9-2.5,36.4-8.4,45.1h53.2L463.2,350.7L463.2,350.7z"/>
	<path class="st3" d="M554.4,368.1c-32,0-54-23.9-54-56.5s22-56.5,54-56.5c32,0,54,23.9,54,56.5S586.1,368.1,554.4,368.1z
		 M554.4,351.9c21.1,0,35.3-16.9,35.3-40.5c0-23.6-14.1-40.5-35.3-40.5c-21.1,0-35.3,16.9-35.3,40.5
		C519.1,335,533.2,351.9,554.4,351.9z"/>
	<path class="st3" d="M624.3,256.1h23.6l35.6,87.5l35-87.5h23.1v111.1H724v-81.8l-33.4,81.8h-15.3l-33.4-81.6v81.6h-17.5V256.1
		L624.3,256.1z"/>
	<path class="st3" d="M811.6,368.1c-32,0-54-23.9-54-56.5s22-56.5,54-56.5c32,0,54,23.9,54,56.5S843.4,368.1,811.6,368.1z
		 M811.6,351.9c21.1,0,35.3-16.9,35.3-40.5c0-23.6-14.1-40.5-35.3-40.5c-21.2,0-35.3,16.9-35.3,40.5
		C776.3,335,790.4,351.9,811.6,351.9z"/>
	<path class="st3" d="M950.2,360v13.4h-17.4V360c-34.2-1.6-55.6-19.3-55.6-48.4s21.2-46.8,55.6-48.4v-13.4h17.4V263
		c34.2,1.7,55.4,19.5,55.4,48.6C1005.6,340.4,984.6,358.1,950.2,360z M932.9,344.8v-66.6c-24.5,1.4-37.3,13.4-37.3,33.4
		C895.5,331.2,907.9,343.2,932.9,344.8z M950.2,344.8c24.5-1.4,37.3-13.6,37.3-33.4c0-19.8-12.5-31.8-37.3-33.2V344.8z"/>
	<path class="st3" d="M1071.5,368.1c-32,0-54-23.9-54-56.5s22-56.5,54-56.5s54,23.9,54,56.5S1103.4,368.1,1071.5,368.1z
		 M1071.5,351.9c21.1,0,35.3-16.9,35.3-40.5c0-23.6-14.1-40.5-35.3-40.5c-21.1,0-35.3,16.9-35.3,40.5
		C1036.2,335,1050.4,351.9,1071.5,351.9z"/>
	<path class="st3" d="M1141.6,256.1h18.2v46.7h51.6v-46.7h18.2v111.1h-18.2v-48.2h-51.6v48.2h-18.2V256.1z"/>
	<g>
		<g>
			<path class="st3" d="M1245.4,280.6c0-18.3,11.3-30.8,28.9-30.8c13.5,0,23.3,7.8,25.4,20.4h-8c-2.3-8.5-8.8-13.5-17.8-13.5
				c-12.7,0-20.9,9.8-20.9,23.9c0,13.9,7.8,23.9,20.6,23.9c9.4,0,15.9-5,18.1-13.5h8c-2.3,12.6-12.2,20.4-26,20.4
				C1256.4,311.2,1245.4,299,1245.4,280.6z"/>
			<path class="st3" d="M1308.9,310.8v-60.7h46v60.6h-7.6v-53.6h-31v53.7H1308.9z"/>
			<path class="st3" d="M1409.3,290.3c0,12.2-8.6,21.2-21.6,21.2c-13.3,0-21.6-8-21.6-24.8c0-23.6,5.6-32.5,24.8-34.9l15-2v6.7
				l-13.5,1.7c-13.9,1.8-17.8,5.4-19.2,18.6c3.2-4.2,8.6-6.9,16.2-6.9C1400.8,269.5,1409.3,277.7,1409.3,290.3z M1402,290.4
				c0-8.5-5.9-14.7-14.2-14.7c-8.6,0-14.5,6.2-14.5,13.7c0,9.8,6,15.6,14.4,15.6C1396.1,305.2,1402,299,1402,290.4z"/>
		</g>
	</g>
	<path class="st3" d="M323,347.4v-61.9c0-16.3-8.8-31.6-23-39.8l-53.6-31c-9.4-5.5-21.2-5.5-30.7,0l-53.6,31
		c-14.1,8.2-23,23.3-23,39.8v61.9c0,11,5.8,21.1,15.2,26.4l53.6,31c14.3,8.2,31.8,8.2,45.9,0l53.6-31
		C317.1,368.3,323,358.2,323,347.4z M306.2,367.2H155.9l-10.2-17.8l75.1-129.9h20.4l75.1,130.1L306.2,367.2z"/>
</g>
<g>
	<path class="st3" d="M422.9,764.7h11.4V797h-14.8v-18.7h-66.1V797h-14.8v-32.3h8.5c6-5,9.4-13.4,9.4-39.2v-39.3h66.3V764.7z
		 M407.7,764.7V699h-37.1v28.5c0,19.8-2.1,30.2-6.9,37.4h44.1L407.7,764.7L407.7,764.7z"/>
	<path class="st3" d="M483.3,779.1c-26.5,0-44.7-19.8-44.7-46.8c0-27,18.2-46.8,44.7-46.8c26.5,0,44.7,19.8,44.7,46.8
		C528,759.3,509.6,779.1,483.3,779.1z M483.3,765.8c17.5,0,29.3-14,29.3-33.6s-11.7-33.6-29.3-33.6c-17.5,0-29.3,14-29.3,33.6
		S465.7,765.8,483.3,765.8z"/>
	<path class="st3" d="M541.2,686.3h19.6l29.5,72.5l29-72.5h19.1v92h-14.6v-67.8l-27.7,67.8h-12.7l-27.7-67.7v67.7h-14.5V686.3
		L541.2,686.3z"/>
	<path class="st3" d="M696.4,779.1c-26.5,0-44.7-19.8-44.7-46.8c0-27,18.2-46.8,44.7-46.8c26.5,0,44.7,19.8,44.7,46.8
		C741.2,759.3,722.8,779.1,696.4,779.1z M696.4,765.8c17.5,0,29.3-14,29.3-33.6s-11.7-33.6-29.3-33.6c-17.6,0-29.3,14-29.3,33.6
		S678.9,765.8,696.4,765.8z"/>
	<path class="st3" d="M811.3,772.5v11.1h-14.4v-11.1c-28.3-1.3-46-16-46-40.1s17.6-38.8,46-40.1V681h14.4v11
		c28.3,1.4,45.9,16.1,45.9,40.3C857.2,756.2,839.8,770.9,811.3,772.5z M796.9,759.9v-55.2c-20.3,1.2-30.9,11.1-30.9,27.7
		C766,748.6,776.2,758.6,796.9,759.9z M811.3,759.9c20.3-1.2,30.9-11.3,30.9-27.7c0-16.4-10.4-26.4-30.9-27.5V759.9z"/>
	<path class="st3" d="M911.8,779.1c-26.5,0-44.7-19.8-44.7-46.8c0-27,18.2-46.8,44.7-46.8c26.5,0,44.7,19.8,44.7,46.8
		C956.5,759.3,938.3,779.1,911.8,779.1z M911.8,765.8c17.5,0,29.3-14,29.3-33.6s-11.7-33.6-29.3-33.6c-17.5,0-29.3,14-29.3,33.6
		S894.3,765.8,911.8,765.8z"/>
	<path class="st3" d="M969.9,686.3h15.1V725h42.7v-38.7h15.1v92h-15.1v-40h-42.7v40h-15.1V686.3z"/>
	<g>
		<g>
			<path class="st3" d="M1055.9,706.6c0-15.2,9.4-25.5,23.9-25.5c11.2,0,19.3,6.5,21.1,16.9h-6.6c-1.9-7-7.3-11.2-14.8-11.2
				c-10.5,0-17.3,8.2-17.3,19.8c0,11.5,6.5,19.8,17,19.8c7.8,0,13.2-4.1,15-11.2h6.6c-1.9,10.4-10.1,16.9-21.6,16.9
				C1065,732,1055.9,721.9,1055.9,706.6z"/>
			<path class="st3" d="M1108.5,731.7v-50.3h38.1v50.2h-6.3v-44.4h-25.7v44.5H1108.5z"/>
			<path class="st3" d="M1191.7,714.7c0,10.1-7.1,17.5-17.9,17.5c-11,0-17.9-6.6-17.9-20.5c0-19.6,4.7-26.9,20.5-28.9l12.4-1.6v5.5
				l-11.2,1.4c-11.5,1.5-14.8,4.5-15.9,15.4c2.6-3.5,7.1-5.8,13.4-5.8C1184.7,697.5,1191.7,704.3,1191.7,714.7z M1185.7,714.8
				c0-7-4.9-12.1-11.8-12.1c-7.1,0-12,5.1-12,11.4c0,8.2,5,12.9,11.9,12.9C1180.8,727,1185.7,721.9,1185.7,714.8z"/>
		</g>
	</g>
	<path class="st3" d="M291.5,762v-51.3c0-13.5-7.3-26.2-19-33L228.1,652c-7.8-4.5-17.6-4.5-25.4,0l-44.4,25.7
		c-11.7,6.8-19,19.3-19,33V762c0,9.1,4.8,17.5,12.6,21.9l44.4,25.7c11.8,6.8,26.3,6.8,38,0l44.4-25.7
		C286.7,779.3,291.5,771,291.5,762z M277.6,778.4H153.1l-8.5-14.7L206.9,656h16.9l62.3,107.8L277.6,778.4z"/>
</g>
<g>
	<path class="st3" d="M375.1,1121.5h9.5v26.8h-12.3v-15.6h-54.9v15.6H305v-26.8h7.1c5-4.2,7.9-11.1,7.9-32.6v-32.7h55.2V1121.5z
		 M362.4,1121.5v-54.6h-30.8v23.7c0,16.5-1.7,25.1-5.8,31.1h36.6L362.4,1121.5L362.4,1121.5z"/>
	<path class="st3" d="M425.2,1133.5c-22,0-37.2-16.5-37.2-38.9c0-22.5,15.2-38.9,37.2-38.9c22,0,37.2,16.5,37.2,38.9
		C462.4,1117,447.1,1133.5,425.2,1133.5z M425.2,1122.4c14.5,0,24.3-11.7,24.3-27.9c0-16.3-9.7-27.9-24.3-27.9
		c-14.5,0-24.3,11.7-24.3,27.9C400.9,1110.7,410.6,1122.4,425.2,1122.4z"/>
	<path class="st3" d="M473.4,1056.3h16.3l24.5,60.3l24.1-60.3h15.9v76.5h-12.1v-56.4l-23,56.4h-10.6l-23-56.2v56.2h-12.1V1056.3
		L473.4,1056.3z"/>
	<path class="st3" d="M602.5,1133.5c-22,0-37.2-16.5-37.2-38.9c0-22.5,15.2-38.9,37.2-38.9s37.2,16.5,37.2,38.9
		C639.6,1117,624.4,1133.5,602.5,1133.5z M602.5,1122.4c14.5,0,24.3-11.7,24.3-27.9c0-16.3-9.7-27.9-24.3-27.9s-24.3,11.7-24.3,27.9
		C578.1,1110.7,587.9,1122.4,602.5,1122.4z"/>
	<path class="st3" d="M697.9,1127.9v9.3h-12v-9.3c-23.5-1.1-38.3-13.3-38.3-33.4s14.6-32.3,38.3-33.4v-9.3h12v9.2
		c23.5,1.2,38.1,13.4,38.1,33.5C736.1,1114.4,721.6,1126.6,697.9,1127.9z M686,1117.5v-45.9c-16.9,1-25.7,9.3-25.7,23
		C660.3,1108.1,668.8,1116.4,686,1117.5z M697.9,1117.5c16.9-1,25.7-9.4,25.7-23c0-13.7-8.6-21.9-25.7-22.9V1117.5z"/>
	<path class="st3" d="M781.5,1133.5c-22,0-37.2-16.5-37.2-38.9c0-22.5,15.2-38.9,37.2-38.9c22,0,37.2,16.5,37.2,38.9
		C818.6,1117,803.5,1133.5,781.5,1133.5z M781.5,1122.4c14.5,0,24.3-11.7,24.3-27.9c0-16.3-9.7-27.9-24.3-27.9
		c-14.5,0-24.3,11.7-24.3,27.9C757.1,1110.7,767,1122.4,781.5,1122.4z"/>
	<path class="st3" d="M829.8,1056.3h12.5v32.2h35.5v-32.2h12.5v76.5h-12.5v-33.2h-35.5v33.2h-12.5V1056.3z"/>
	<g>
		<g>
			<path class="st3" d="M901.3,1073.2c0-12.6,7.8-21.2,19.9-21.2c9.3,0,16,5.4,17.5,14.1h-5.5c-1.6-5.8-6-9.3-12.3-9.3
				c-8.8,0-14.4,6.8-14.4,16.5c0,9.6,5.4,16.5,14.2,16.5c6.5,0,10.9-3.4,12.5-9.3h5.5c-1.6,8.7-8.4,14.1-17.9,14.1
				C908.9,1094.4,901.3,1085.9,901.3,1073.2z"/>
			<path class="st3" d="M945,1094.1v-41.8h31.7v41.8h-5.2v-36.9h-21.4v37H945z"/>
			<path class="st3" d="M1014.2,1079.9c0,8.4-5.9,14.6-14.9,14.6c-9.2,0-14.9-5.5-14.9-17.1c0-16.3,3.9-22.4,17.1-24.1l10.3-1.3v4.6
				l-9.3,1.1c-9.6,1.2-12.3,3.7-13.2,12.8c2.2-2.9,5.9-4.8,11.1-4.8C1008.3,1065.6,1014.2,1071.2,1014.2,1079.9z M1009.2,1080
				c0-5.8-4.1-10.1-9.8-10.1c-5.9,0-10,4.3-10,9.5c0,6.8,4.2,10.7,9.9,10.7C1005.1,1090.2,1009.2,1085.9,1009.2,1080z"/>
		</g>
	</g>
	<path class="st3" d="M265.8,1119.2v-42.7c0-11.2-6.1-21.7-15.8-27.4l-36.9-21.3c-6.5-3.8-14.6-3.8-21.1,0l-36.9,21.4
		c-9.7,5.6-15.8,16-15.8,27.4v42.7c0,7.6,4,14.5,10.5,18.2l36.9,21.3c9.8,5.6,21.9,5.6,31.6,0l36.9-21.3
		C261.8,1133.6,265.8,1126.7,265.8,1119.2z M254.3,1132.9H150.8l-7-12.2l51.8-89.5h14.1l51.8,89.7L254.3,1132.9z"/>
</g>
<g>
	<path class="st3" d="M325.5,1417.8h7.5v21.2h-9.7v-12.3h-43.4v12.3h-9.7v-21.2h5.6c4-3.3,6.2-8.8,6.2-25.7v-25.8h43.6V1417.8z
		 M315.5,1417.8v-43.2h-24.4v18.7c0,13-1.4,19.8-4.6,24.5L315.5,1417.8L315.5,1417.8L315.5,1417.8z"/>
	<path class="st3" d="M365.1,1427.2c-17.4,0-29.4-13-29.4-30.7s12-30.7,29.4-30.7s29.4,13,29.4,30.7S382.4,1427.2,365.1,1427.2z
		 M365.1,1418.4c11.5,0,19.2-9.2,19.2-22.1s-7.7-22.1-19.2-22.1c-11.5,0-19.2,9.2-19.2,22.1S353.6,1418.4,365.1,1418.4z"/>
	<path class="st3" d="M403.2,1366.3H416l19.4,47.6l19-47.6H467v60.4h-9.6v-44.5l-18.2,44.5h-8.3l-18.2-44.4v44.4h-9.5V1366.3
		L403.2,1366.3z"/>
	<path class="st3" d="M505.1,1427.2c-17.4,0-29.4-13-29.4-30.7s12-30.7,29.4-30.7c17.4,0,29.4,13,29.4,30.7
		S522.4,1427.2,505.1,1427.2z M505.1,1418.4c11.5,0,19.2-9.2,19.2-22.1s-7.7-22.1-19.2-22.1s-19.2,9.2-19.2,22.1
		S493.6,1418.4,505.1,1418.4z"/>
	<path class="st3" d="M580.5,1422.8v7.3h-9.5v-7.3c-18.6-0.9-30.2-10.5-30.2-26.4c0-15.8,11.5-25.5,30.2-26.4v-7.3h9.5v7.2
		c18.6,0.9,30.1,10.6,30.1,26.4C610.7,1412.2,599.2,1421.8,580.5,1422.8z M571.1,1414.6v-36.2c-13.4,0.8-20.3,7.3-20.3,18.2
		C550.8,1407.2,557.5,1413.7,571.1,1414.6z M580.5,1414.6c13.4-0.8,20.3-7.4,20.3-18.2s-6.8-17.3-20.3-18.1V1414.6z"/>
	<path class="st3" d="M646.5,1427.2c-17.4,0-29.4-13-29.4-30.7s12-30.7,29.4-30.7s29.4,13,29.4,30.7S663.9,1427.2,646.5,1427.2z
		 M646.5,1418.4c11.5,0,19.2-9.2,19.2-22.1s-7.7-22.1-19.2-22.1c-11.5,0-19.2,9.2-19.2,22.1S635.1,1418.4,646.5,1418.4z"/>
	<path class="st3" d="M684.7,1366.3h9.9v25.4h28.1v-25.4h9.9v60.4h-9.9v-26.3h-28.1v26.3h-9.9V1366.3z"/>
	<g>
		<g>
			<path class="st3" d="M741.1,1379.6c0-10,6.2-16.8,15.7-16.8c7.3,0,12.7,4.3,13.8,11.1h-4.3c-1.2-4.6-4.8-7.3-9.7-7.3
				c-6.9,0-11.4,5.4-11.4,13c0,7.6,4.3,13,11.2,13c5.1,0,8.6-2.7,9.9-7.3h4.3c-1.2,6.8-6.7,11.1-14.2,11.1
				C747.1,1396.3,741.1,1389.6,741.1,1379.6z"/>
			<path class="st3" d="M775.7,1396.1v-33h25v33h-4.1v-29.2h-16.9v29.2H775.7z"/>
			<path class="st3" d="M830.3,1384.9c0,6.7-4.7,11.5-11.8,11.5c-7.2,0-11.8-4.3-11.8-13.5c0-12.8,3.1-17.7,13.5-19l8.2-1.1v3.6
				l-7.3,0.9c-7.6,1-9.7,3-10.5,10.1c1.7-2.3,4.7-3.8,8.8-3.8C825.7,1373.6,830.3,1378,830.3,1384.9z M826.4,1385c0-4.6-3.2-8-7.7-8
				c-4.7,0-7.9,3.4-7.9,7.5c0,5.4,3.3,8.5,7.8,8.5C823.2,1393,826.4,1389.6,826.4,1385z"/>
		</g>
	</g>
	<path class="st3" d="M239.2,1415.9v-33.7c0-8.9-4.8-17.2-12.5-21.6l-29.1-16.9c-5.1-3-11.5-3-16.7,0l-29.1,16.9
		c-7.7,4.4-12.5,12.7-12.5,21.6v33.7c0,6,3.2,11.5,8.3,14.4l29.1,16.9c7.8,4.4,17.3,4.4,25,0l29.1-16.9
		C236.1,1427.3,239.2,1421.9,239.2,1415.9z M230.1,1426.7h-81.8l-5.6-9.7l40.9-70.7h11.1l40.9,70.8L230.1,1426.7z"/>
</g>
<g>
	<path class="st3" d="M286.2,1660.6h5.9v16.7h-7.7v-9.7h-34.2v9.7h-7.7v-16.7h4.4c3.1-2.6,4.9-6.9,4.9-20.3v-20.4h34.4V1660.6z
		 M278.3,1660.6v-34h-19.2v14.7c0,10.3-1.1,15.6-3.6,19.4L278.3,1660.6L278.3,1660.6L278.3,1660.6z"/>
	<path class="st3" d="M317.5,1668c-13.7,0-23.2-10.3-23.2-24.3s9.4-24.3,23.2-24.3c13.7,0,23.2,10.3,23.2,24.3
		S331.1,1668,317.5,1668z M317.5,1661.1c9,0,15.2-7.3,15.2-17.4s-6-17.4-15.2-17.4c-9,0-15.2,7.3-15.2,17.4
		S308.4,1661.1,317.5,1661.1z"/>
	<path class="st3" d="M347.5,1619.9h10.1l15.3,37.6l15-37.6h9.9v47.7h-7.5v-35.1l-14.3,35.1h-6.6l-14.3-35.1v35.1h-7.5V1619.9
		L347.5,1619.9z"/>
	<path class="st3" d="M427.9,1668c-13.7,0-23.2-10.3-23.2-24.3s9.4-24.3,23.2-24.3c13.7,0,23.2,10.3,23.2,24.3
		S441.6,1668,427.9,1668z M427.9,1661.1c9,0,15.2-7.3,15.2-17.4s-6-17.4-15.2-17.4s-15.2,7.3-15.2,17.4S418.8,1661.1,427.9,1661.1z"
		/>
	<path class="st3" d="M487.4,1664.6v5.8h-7.5v-5.8c-14.7-0.7-23.9-8.3-23.9-20.8s9.1-20.1,23.9-20.8v-5.8h7.5v5.7
		c14.7,0.7,23.8,8.4,23.8,20.9C511.2,1656.1,502.2,1663.8,487.4,1664.6z M480,1658v-28.6c-10.5,0.6-16,5.8-16,14.3
		C463.9,1652.2,469.2,1657.4,480,1658z M487.4,1658c10.5-0.6,16-5.8,16-14.3c0-8.5-5.4-13.7-16-14.3V1658z"/>
	<path class="st3" d="M539.5,1668c-13.7,0-23.2-10.3-23.2-24.3s9.4-24.3,23.2-24.3c13.7,0,23.2,10.3,23.2,24.3
		S553.2,1668,539.5,1668z M539.5,1661.1c9,0,15.2-7.3,15.2-17.4s-6-17.4-15.2-17.4c-9,0-15.2,7.3-15.2,17.4
		S530.4,1661.1,539.5,1661.1z"/>
	<path class="st3" d="M569.6,1619.9h7.8v20h22.1v-20h7.8v47.7h-7.8v-20.7h-22.1v20.7h-7.8V1619.9z"/>
	<g>
		<g>
			<path class="st3" d="M614.1,1630.5c0-7.9,4.9-13.2,12.4-13.2c5.8,0,10,3.4,10.9,8.8H634c-1-3.6-3.8-5.8-7.7-5.8
				c-5.5,0-9,4.2-9,10.3c0,6,3.4,10.3,8.8,10.3c4,0,6.8-2.1,7.8-5.8h3.4c-1,5.4-5.2,8.8-11.2,8.8
				C618.9,1643.6,614.1,1638.4,614.1,1630.5z"/>
			<path class="st3" d="M641.4,1643.4v-26h19.7v26h-3.2v-23h-13.3v23H641.4z"/>
			<path class="st3" d="M684.5,1634.6c0,5.2-3.7,9.1-9.3,9.1c-5.7,0-9.3-3.4-9.3-10.6c0-10.1,2.4-14,10.6-15l6.4-0.8v2.9l-5.8,0.7
				c-6,0.8-7.7,2.3-8.3,8c1.4-1.8,3.7-3,6.9-3C680.9,1625.7,684.5,1629.2,684.5,1634.6z M681.4,1634.7c0-3.6-2.5-6.3-6.1-6.3
				c-3.7,0-6.2,2.7-6.2,5.9c0,4.2,2.6,6.7,6.2,6.7C678.8,1641,681.4,1638.4,681.4,1634.7z"/>
		</g>
	</g>
	<path class="st3" d="M218.1,1659.1v-26.6c0-7-3.8-13.6-9.9-17.1l-23-13.3c-4-2.4-9.1-2.4-13.2,0l-23,13.3c-6.1,3.5-9.9,10-9.9,17.1
		v26.6c0,4.7,2.5,9,6.5,11.3l23,13.3c6.1,3.5,13.6,3.5,19.7,0l23-13.3C215.6,1668.1,218.1,1663.8,218.1,1659.1z M210.9,1667.6h-64.5
		l-4.4-7.6l32.3-55.8h8.8l32.3,55.9L210.9,1667.6z"/>
</g>
<g>
	<path class="st3" d="M252.1,1881.4h4.5v12.8h-5.9v-7.4h-26.3v7.4h-5.9v-12.8h3.4c2.4-2,3.8-5.3,3.8-15.6v-15.6h26.4V1881.4z
		 M246,1881.4v-26.1h-14.7v11.3c0,7.9-0.8,12-2.8,14.9L246,1881.4L246,1881.4L246,1881.4z"/>
	<path class="st3" d="M276,1887.2c-10.5,0-17.8-7.9-17.8-18.6s7.3-18.6,17.8-18.6s17.8,7.9,17.8,18.6S286.5,1887.2,276,1887.2z
		 M276,1881.9c6.9,0,11.6-5.6,11.6-13.4c0-7.8-4.6-13.4-11.6-13.4c-6.9,0-11.6,5.6-11.6,13.4C264.4,1876.3,269,1881.9,276,1881.9z"
		/>
	<path class="st3" d="M299.1,1850.3h7.8l11.7,28.8l11.5-28.8h7.6v36.6h-5.8v-27l-11,27h-5.1l-11-26.9v26.9h-5.8V1850.3L299.1,1850.3
		z"/>
	<path class="st3" d="M360.8,1887.2c-10.5,0-17.8-7.9-17.8-18.6s7.3-18.6,17.8-18.6s17.8,7.9,17.8,18.6S371.3,1887.2,360.8,1887.2z
		 M360.8,1881.9c6.9,0,11.6-5.6,11.6-13.4c0-7.8-4.6-13.4-11.6-13.4s-11.6,5.6-11.6,13.4C349.2,1876.3,353.8,1881.9,360.8,1881.9z"
		/>
	<path class="st3" d="M406.5,1884.5v4.4h-5.7v-4.4c-11.3-0.5-18.3-6.4-18.3-16c0-9.6,7-15.4,18.3-16v-4.4h5.7v4.4
		c11.3,0.6,18.2,6.4,18.2,16C424.7,1878.1,417.8,1883.9,406.5,1884.5z M400.7,1879.5v-21.9c-8.1,0.5-12.3,4.4-12.3,11
		C388.4,1875,392.5,1879,400.7,1879.5z M406.5,1879.5c8.1-0.5,12.3-4.5,12.3-11c0-6.5-4.1-10.5-12.3-10.9V1879.5z"/>
	<path class="st3" d="M446.4,1887.2c-10.5,0-17.8-7.9-17.8-18.6s7.3-18.6,17.8-18.6s17.8,7.9,17.8,18.6S456.9,1887.2,446.4,1887.2z
		 M446.4,1881.9c6.9,0,11.6-5.6,11.6-13.4c0-7.8-4.6-13.4-11.6-13.4c-6.9,0-11.6,5.6-11.6,13.4
		C434.8,1876.3,439.5,1881.9,446.4,1881.9z"/>
	<path class="st3" d="M469.5,1850.3h6v15.4h17v-15.4h6v36.6h-6V1871h-17v15.9h-6V1850.3z"/>
	<g>
		<g>
			<path class="st3" d="M503.7,1858.3c0-6,3.7-10.2,9.5-10.2c4.4,0,7.7,2.6,8.4,6.7H519c-0.8-2.8-2.9-4.4-5.9-4.4
				c-4.2,0-6.9,3.2-6.9,7.9c0,4.6,2.6,7.9,6.8,7.9c3.1,0,5.2-1.6,6-4.4h2.6c-0.8,4.1-4,6.7-8.6,6.7
				C507.3,1868.4,503.7,1864.4,503.7,1858.3z"/>
			<path class="st3" d="M524.6,1868.3v-20h15.1v20h-2.5v-17.7h-10.2v17.7H524.6z"/>
			<path class="st3" d="M557.7,1861.5c0,4-2.8,7-7.1,7c-4.4,0-7.1-2.6-7.1-8.2c0-7.8,1.8-10.7,8.2-11.5l4.9-0.6v2.2l-4.4,0.5
				c-4.6,0.6-5.9,1.8-6.3,6.1c1.1-1.4,2.8-2.3,5.3-2.3C554.9,1854.7,557.7,1857.4,557.7,1861.5z M555.3,1861.6
				c0-2.8-1.9-4.8-4.7-4.8c-2.8,0-4.8,2-4.8,4.5c0,3.2,2,5.1,4.7,5.1C553.4,1866.5,555.3,1864.4,555.3,1861.6z"/>
		</g>
	</g>
	<path class="st3" d="M199.8,1880.3v-20.4c0-5.4-2.9-10.4-7.6-13.1l-17.7-10.2c-3.1-1.8-7-1.8-10.1,0l-17.7,10.2
		c-4.7,2.7-7.6,7.7-7.6,13.1v20.4c0,3.6,1.9,6.9,5,8.7l17.7,10.2c4.7,2.7,10.5,2.7,15.1,0l17.7-10.2
		C197.9,1887.2,199.8,1883.9,199.8,1880.3z M194.3,1886.9h-49.5l-3.4-5.9l24.8-42.8h6.7l24.8,42.9L194.3,1886.9z"/>
</g>
<path class="st3" d="M1858.4,347.4v-61.9c0-16.3-8.8-31.6-23-39.8l-53.6-31c-9.4-5.5-21.2-5.5-30.7,0l-53.6,31
	c-14.1,8.2-23,23.3-23,39.8v61.9c0,11,5.8,21.1,15.2,26.4l53.6,31c14.3,8.2,31.8,8.2,45.9,0l53.6-31
	C1852.6,368.3,1858.4,358.2,1858.4,347.4z M1841.6,367.2h-150.3l-10.2-17.8l75.1-129.9h20.4l75.1,130.1L1841.6,367.2z"/>
<g class="st4">
	<g>
		<path class="st3" d="M400.6,472.6h12.3v1.1h-5.5v14.9h-1.2v-14.9h-5.5V472.6z"/>
		<path class="st3" d="M420.6,488.9c-4.4,0-7.5-3.4-7.5-8.2c0-4.8,3.1-8.2,7.5-8.2c4.4,0,7.5,3.4,7.5,8.2
			C428.1,485.4,425.1,488.9,420.6,488.9z M420.6,487.7c3.7,0,6.3-2.9,6.3-7s-2.6-7-6.3-7c-3.7,0-6.2,2.9-6.2,7
			S416.9,487.7,420.6,487.7z"/>
		<path class="st3" d="M430.9,488.7v-16.1h1.2v7.3h3.4l5.6-7.3h1.4l-6,7.8l6.4,8.3h-1.5l-5.9-7.6h-3.4v7.6H430.9z"/>
		<path class="st3" d="M445.1,472.6h9.9v1.1h-8.7v6.1h7.3v1.1h-7.3v6.5h9v1.1h-10.2V472.6z"/>
		<path class="st3" d="M457.7,472.6h1.2v7.3h9.3v-7.3h1.2v16.1h-1.2v-7.6h-9.3v7.6h-1.2V472.6z"/>
		<path class="st3" d="M479,472.6h6c3.1,0,5,1.9,5,4.7c0,2.8-2,4.7-5,4.7h-4.7v6.7H479V472.6z M480.3,473.8v7.1h4.6
			c2.4,0,3.9-1.4,3.9-3.5c0-2.1-1.5-3.5-3.9-3.5H480.3z"/>
		<path class="st3" d="M489.2,488.7l6.2-16.1h1.4l6.2,16.1h-1.3l-1.9-4.9h-7.4l-1.9,4.9H489.2z M492.8,482.7h6.7l-3.3-8.6
			L492.8,482.7z"/>
		<path class="st3" d="M503.9,480.7c0-4.8,2.9-8.2,7.5-8.2c3.4,0,5.8,1.9,6.5,5.1h-1.3c-0.7-2.5-2.6-3.9-5.3-3.9
			c-3.7,0-6.1,2.9-6.1,7s2.3,7,6.1,7c2.7,0,4.6-1.4,5.3-4h1.3c-0.7,3.2-3.1,5.1-6.6,5.1C506.8,488.9,503.9,485.6,503.9,480.7z"/>
		<path class="st3" d="M519.7,480.7c0-4.8,2.9-8.2,7.5-8.2c3.4,0,5.8,1.9,6.5,5.1h-1.3c-0.7-2.5-2.6-3.9-5.3-3.9
			c-3.7,0-6.1,2.9-6.1,7s2.3,7,6.1,7c2.7,0,4.6-1.4,5.3-4h1.3c-0.7,3.2-3.1,5.1-6.6,5.1C522.5,488.9,519.7,485.6,519.7,480.7z"/>
		<path class="st3" d="M534.2,472.6h12.3v1.1H541v14.9h-1.2v-14.9h-5.5V472.6z"/>
		<path class="st3" d="M554.3,488.9c-4.4,0-7.5-3.4-7.5-8.2c0-4.8,3.1-8.2,7.5-8.2c4.4,0,7.5,3.4,7.5,8.2
			C561.8,485.4,558.7,488.9,554.3,488.9z M554.3,487.7c3.7,0,6.3-2.9,6.3-7s-2.6-7-6.3-7c-3.7,0-6.2,2.9-6.2,7
			S550.6,487.7,554.3,487.7z"/>
		<path class="st3" d="M574.9,472.6v16.1h-1.2v-6.7h-4.4l-4.2,6.7h-1.4l4.3-6.8c-2.7-0.3-4.2-2.1-4.2-4.6c0-2.8,2-4.7,5.2-4.7H574.9
			z M573.7,480.9v-7.1h-4.8c-2.4,0-4,1.4-4,3.6c0,2.1,1.5,3.6,3.9,3.6H573.7z"/>
		<path class="st3" d="M578.3,472.6h1.2v7.3h9.3v-7.3h1.2v16.1h-1.2v-7.6h-9.3v7.6h-1.2V472.6z"/>
		<path class="st3" d="M593.4,488.7v-16.1h1.2v14l9.6-14h1.1v16.1h-1.2v-14l-9.6,14H593.4z"/>
		<path class="st3" d="M619.4,472.6v16.1h-1.2v-6.7h-4.4l-4.2,6.7H608l4.3-6.8c-2.7-0.3-4.2-2.1-4.2-4.6c0-2.8,2-4.7,5.2-4.7H619.4z
			 M618.1,480.9v-7.1h-4.8c-2.4,0-4,1.4-4,3.6c0,2.1,1.5,3.6,3.9,3.6H618.1z"/>
		<path class="st3" d="M401.8,496.6h1.6l6.3,14.4l6.2-14.4h1.6v16.1h-1.2v-14l-6,14H409l-6-14v14h-1.2V496.6z"/>
		<path class="st3" d="M420.7,496.6h9.9v1.1h-8.7v6.1h7.3v1.1h-7.3v6.5h9v1.1h-10.2V496.6z"/>
		<path class="st3" d="M432,512.7l6.1-8.3l-5.7-7.8h1.4l5.3,7.3h2.9v-7.3h1.2v7.3h2.9l5.4-7.3h1.4l-5.7,7.8l6.1,8.3h-1.5l-5.6-7.6
			h-2.9v7.6H442v-7.6h-2.9l-5.7,7.6H432z"/>
		<path class="st3" d="M468.2,511.6h2v4.4h-1.2v-3.3h-13.2v3.3h-1.2v-4.4h1.4c1.1-1.1,1.8-2.7,1.8-7.6v-7.3h10.5V511.6z
			 M466.9,511.6v-13.9h-8.1v6.4c0,4.3-0.5,6.2-1.5,7.5H466.9z"/>
		<path class="st3" d="M472.3,512.7v-1.1h1.4c1.3,0,1.8-0.3,2.5-1.7l0.6-1.4l-6.3-11.8h1.4l5.5,10.5l4.8-10.5h1.3l-6.3,13.5
			c-0.9,2-1.8,2.6-3.3,2.6H472.3z"/>
		<path class="st3" d="M491.2,504.7c0-4.8,2.9-8.2,7.5-8.2c3.4,0,5.8,1.9,6.5,5.1h-1.3c-0.7-2.5-2.6-3.9-5.3-3.9
			c-3.7,0-6.1,2.9-6.1,7s2.3,7,6.1,7c2.7,0,4.6-1.4,5.3-4h1.3c-0.7,3.2-3.1,5.1-6.6,5.1C494.1,512.9,491.2,509.6,491.2,504.7z"/>
		<path class="st3" d="M505.8,496.6H518v1.1h-5.5v14.9h-1.2v-14.9h-5.5V496.6z"/>
		<path class="st3" d="M520.2,496.6h6c3.1,0,5,1.9,5,4.7c0,2.8-2,4.7-5,4.7h-4.7v6.7h-1.2V496.6z M521.4,497.8v7.1h4.6
			c2.4,0,3.9-1.4,3.9-3.5c0-2.1-1.5-3.5-3.9-3.5H521.4z"/>
		<path class="st3" d="M540.4,512.9c-4.4,0-7.5-3.4-7.5-8.2c0-4.8,3.1-8.2,7.5-8.2c4.4,0,7.5,3.4,7.5,8.2
			C547.9,509.4,544.8,512.9,540.4,512.9z M540.4,511.7c3.7,0,6.3-2.9,6.3-7s-2.6-7-6.3-7c-3.7,0-6.2,2.9-6.2,7
			S536.7,511.7,540.4,511.7z"/>
		<path class="st3" d="M550.6,512.7v-16.1h1.2v7.3h3.4l5.6-7.3h1.4l-6,7.8l6.4,8.3h-1.5l-5.9-7.6h-3.4v7.6H550.6z"/>
	</g>
</g>
<g class="st4">
	<g>
		<path class="st3" d="M1505,661.4h1.5v21h-1.6v-15.8c-0.3,0.3-0.7,0.5-1.3,0.5h-3.6v-1.4h3.6c0.9,0,1.4-0.7,1.4-1.6V661.4z"/>
		<path class="st3" d="M1510.2,671.9c0-6.3,2.6-10.7,7.7-10.7c3.7,0,6.1,2.3,6.6,5.6h-1.6c-0.5-2.4-2.2-4.2-5.1-4.2
			c-4.2,0-6.2,3.8-6.2,9c0,0.9,0.1,1.8,0.3,2.7c0-0.2,0-0.5,0.1-0.8c0.5-2.9,2.9-4.9,6.2-4.9c4.1,0,6.8,2.8,6.8,7c0,4-2.8,7-7,7
			c-2.9,0-5-1.4-6.2-3.6C1510.8,677.2,1510.2,674.6,1510.2,671.9z M1518.1,670c-3.3,0-5.6,2.3-5.6,5.6s2.2,5.6,5.5,5.6
			c3.3,0,5.5-2.3,5.5-5.6C1523.4,672.3,1521.4,670,1518.1,670z"/>
		<path class="st3" d="M1527.8,671.4c0-6,3-10.2,7.6-10.2c4.5,0,7.6,4.2,7.6,10.2v1c0,6.1-3.1,10.2-7.6,10.2c-4.6,0-7.6-4-7.6-10.2
			V671.4z M1541.3,671.5c0-5.3-2.4-8.8-6-8.8c-3.6,0-6,3.5-6,8.8v0.8c0,5.3,2.4,8.8,6,8.8c3.6,0,6-3.5,6-8.8V671.5z"/>
		<path class="st3" d="M1546.5,661.4h7.8c4,0,6.6,2.5,6.6,6.1s-2.6,6.1-6.6,6.1h-6.2v8.8h-1.6V661.4z M1548.1,662.9v9.2h6
			c3.1,0,5.1-1.9,5.1-4.6c0-2.8-1.9-4.6-5-4.6H1548.1z"/>
		<path class="st3" d="M1561.7,661.4h16v1.5h-7.2v19.5h-1.6v-19.5h-7.2V661.4z"/>
	</g>
</g>
<g class="st4">
	<g>
		<path class="st3" d="M1505,1038.3h1.5v21h-1.6v-15.8c-0.3,0.3-0.7,0.5-1.3,0.5h-3.6v-1.4h3.6c0.9,0,1.4-0.7,1.4-1.6V1038.3z"/>
		<path class="st3" d="M1509.2,1052.4l11-14.1h1.7v14h3.4v1.4h-3.4v5.5h-1.6v-5.5h-11.2V1052.4z M1511,1052.4h9.4v-12.1L1511,1052.4
			z"/>
		<path class="st3" d="M1527.2,1048.4c0-6,3-10.2,7.6-10.2c4.5,0,7.6,4.2,7.6,10.2v1c0,6.1-3.1,10.2-7.6,10.2c-4.6,0-7.6-4-7.6-10.2
			V1048.4z M1540.7,1048.4c0-5.3-2.4-8.8-6-8.8c-3.6,0-6,3.5-6,8.8v0.8c0,5.3,2.4,8.8,6,8.8c3.6,0,6-3.5,6-8.8V1048.4z"/>
		<path class="st3" d="M1545.9,1038.3h7.8c4,0,6.6,2.5,6.6,6.1c0,3.7-2.6,6.1-6.6,6.1h-6.2v8.8h-1.6V1038.3z M1547.5,1039.8v9.2h6
			c3.1,0,5.1-1.9,5.1-4.6c0-2.8-1.9-4.6-5-4.6H1547.5z"/>
		<path class="st3" d="M1561.2,1038.3h16v1.5h-7.2v19.5h-1.6v-19.5h-7.2V1038.3z"/>
	</g>
</g>
<g class="st4">
	<g>
		<path class="st3" d="M1505,1352.8h1.5v21h-1.6V1358c-0.3,0.3-0.7,0.5-1.3,0.5h-3.6v-1.4h3.6c0.9,0,1.4-0.7,1.4-1.6V1352.8z"/>
		<path class="st3" d="M1510.2,1362.8c0-6,3-10.2,7.6-10.2c4.5,0,7.6,4.2,7.6,10.2v1c0,6.1-3.1,10.2-7.6,10.2c-4.6,0-7.6-4-7.6-10.2
			V1362.8z M1523.8,1362.9c0-5.3-2.4-8.8-6-8.8c-3.6,0-6,3.5-6,8.8v0.8c0,5.3,2.4,8.8,6,8.8c3.6,0,6-3.5,6-8.8V1362.9z"/>
		<path class="st3" d="M1528.3,1362.8c0-6,3-10.2,7.6-10.2c4.5,0,7.6,4.2,7.6,10.2v1c0,6.1-3.1,10.2-7.6,10.2c-4.6,0-7.6-4-7.6-10.2
			V1362.8z M1541.8,1362.9c0-5.3-2.4-8.8-6-8.8c-3.6,0-6,3.5-6,8.8v0.8c0,5.3,2.4,8.8,6,8.8c3.6,0,6-3.5,6-8.8V1362.9z"/>
		<path class="st3" d="M1547,1352.8h7.8c4,0,6.6,2.5,6.6,6.1c0,3.7-2.6,6.1-6.6,6.1h-6.2v8.8h-1.6V1352.8z M1548.6,1354.3v9.2h6
			c3.1,0,5.1-1.9,5.1-4.6c0-2.8-2-4.6-5-4.6H1548.6z"/>
		<path class="st3" d="M1562.3,1352.8h16v1.5h-7.2v19.5h-1.6v-19.5h-7.2V1352.8z"/>
	</g>
</g>
<g class="st4">
	<g>
		<path class="st3" d="M1516.1,1626.7c0,3.3-2.9,5.7-7.4,5.7s-7.4-2.4-7.4-5.7c0-2.9,2-4.8,4.8-5.3c-2.4-0.4-4.2-2.3-4.2-4.9
			c0-3.2,2.7-5.5,6.8-5.5s6.8,2.3,6.8,5.5c0,2.5-1.8,4.5-4.2,4.9C1514.1,1621.8,1516.1,1623.8,1516.1,1626.7z M1514.5,1626.6
			c0-2.6-2.4-4.4-5.8-4.4c-3.4,0-5.8,1.9-5.8,4.4c0,2.6,2.4,4.4,5.8,4.4C1512.1,1631,1514.5,1629.2,1514.5,1626.6z M1508.8,1620.6
			c3.1,0,5.2-1.7,5.2-4.1c0-2.4-2.1-4.1-5.2-4.1s-5.2,1.7-5.2,4.1C1503.6,1618.9,1505.7,1620.6,1508.8,1620.6z"/>
		<path class="st3" d="M1519,1621.7c0-6.3,2.6-10.7,7.7-10.7c3.7,0,6.1,2.3,6.6,5.6h-1.6c-0.5-2.4-2.2-4.2-5.1-4.2
			c-4.2,0-6.2,3.8-6.2,9c0,0.9,0.1,1.8,0.3,2.7c0-0.2,0-0.5,0.1-0.8c0.5-2.9,2.9-4.9,6.2-4.9c4.1,0,6.8,2.8,6.8,7c0,4-2.8,7-7,7
			c-2.9,0-5-1.4-6.2-3.6C1519.5,1626.9,1519,1624.4,1519,1621.7z M1526.8,1619.8c-3.3,0-5.6,2.3-5.6,5.6s2.2,5.6,5.5,5.6
			c3.3,0,5.5-2.3,5.5-5.6C1532.2,1622.1,1530.1,1619.8,1526.8,1619.8z"/>
		<path class="st3" d="M1537.2,1611.2h7.8c4,0,6.6,2.5,6.6,6.1c0,3.7-2.6,6.1-6.6,6.1h-6.2v8.8h-1.6V1611.2z M1538.8,1612.7v9.2h6
			c3.1,0,5.1-1.9,5.1-4.6c0-2.8-2-4.6-5-4.6H1538.8z"/>
		<path class="st3" d="M1552.4,1611.2h16v1.5h-7.2v19.5h-1.6v-19.5h-7.2V1611.2z"/>
	</g>
</g>
<g class="st4">
	<g>
		<path class="st3" d="M1501.4,1859.1c0-6.3,2.6-10.7,7.7-10.7c3.7,0,6.1,2.3,6.6,5.6h-1.6c-0.5-2.4-2.2-4.2-5.1-4.2
			c-4.2,0-6.2,3.8-6.2,9c0,0.9,0.1,1.8,0.3,2.7c0-0.2,0-0.5,0.1-0.8c0.5-2.9,2.9-4.9,6.2-4.9c4.1,0,6.8,2.8,6.8,7c0,4.1-2.8,7-7,7
			c-2.9,0-5-1.3-6.2-3.6C1502,1864.3,1501.4,1861.8,1501.4,1859.1z M1509.3,1857.2c-3.3,0-5.6,2.3-5.6,5.6s2.2,5.6,5.5,5.6
			c3.3,0,5.5-2.3,5.5-5.6C1514.6,1859.5,1512.6,1857.2,1509.3,1857.2z"/>
		<path class="st3" d="M1517.9,1862.6l11-14.1h1.7v14h3.5v1.4h-3.5v5.5h-1.6v-5.5h-11.2V1862.6z M1519.7,1862.6h9.5v-12.1
			L1519.7,1862.6z"/>
		<path class="st3" d="M1536.6,1848.6h7.8c4,0,6.6,2.5,6.6,6.1s-2.6,6.1-6.6,6.1h-6.2v8.8h-1.6V1848.6z M1538.3,1850.1v9.2h6
			c3.1,0,5.1-1.9,5.1-4.6c0-2.8-2-4.6-5-4.6H1538.3z"/>
		<path class="st3" d="M1551.9,1848.6h16v1.5h-7.2v19.5h-1.6v-19.5h-7.2V1848.6z"/>
	</g>
</g>
<g class="st4">
	<g>
		<path class="st3" d="M1936,472.6h12.3v1.1h-5.5v14.9h-1.2v-14.9h-5.5V472.6z"/>
		<path class="st3" d="M1956,488.9c-4.4,0-7.5-3.4-7.5-8.2c0-4.8,3.1-8.2,7.5-8.2c4.4,0,7.5,3.4,7.5,8.2
			C1963.5,485.4,1960.5,488.9,1956,488.9z M1956,487.7c3.7,0,6.3-2.9,6.3-7s-2.6-7-6.3-7c-3.7,0-6.2,2.9-6.2,7
			S1952.3,487.7,1956,487.7z"/>
		<path class="st3" d="M1966.3,488.7v-16.1h1.2v7.3h3.4l5.6-7.3h1.4l-6,7.8l6.4,8.3h-1.5l-5.9-7.6h-3.4v7.6H1966.3z"/>
		<path class="st3" d="M1980.5,472.6h9.9v1.1h-8.7v6.1h7.3v1.1h-7.3v6.5h9v1.1h-10.2V472.6z"/>
		<path class="st3" d="M1993.1,472.6h1.2v7.3h9.3v-7.3h1.2v16.1h-1.2v-7.6h-9.3v7.6h-1.2V472.6z"/>
		<path class="st3" d="M2014.4,472.6h6c3.1,0,5,1.9,5,4.7c0,2.8-2,4.7-5,4.7h-4.7v6.7h-1.2V472.6z M2015.7,473.8v7.1h4.6
			c2.4,0,3.9-1.4,3.9-3.5c0-2.1-1.5-3.5-3.9-3.5H2015.7z"/>
		<path class="st3" d="M2024.7,488.7l6.2-16.1h1.4l6.2,16.1h-1.3l-1.9-4.9h-7.4l-1.9,4.9H2024.7z M2028.2,482.7h6.7l-3.3-8.6
			L2028.2,482.7z"/>
		<path class="st3" d="M2039.3,480.7c0-4.8,2.9-8.2,7.5-8.2c3.4,0,5.8,1.9,6.5,5.1h-1.3c-0.7-2.5-2.6-3.9-5.3-3.9
			c-3.7,0-6.1,2.9-6.1,7s2.3,7,6.1,7c2.7,0,4.6-1.4,5.3-4h1.3c-0.7,3.2-3.1,5.1-6.6,5.1C2042.2,488.9,2039.3,485.6,2039.3,480.7z"/>
		<path class="st3" d="M2055.1,480.7c0-4.8,2.9-8.2,7.5-8.2c3.4,0,5.8,1.9,6.5,5.1h-1.3c-0.7-2.5-2.6-3.9-5.3-3.9
			c-3.7,0-6.1,2.9-6.1,7s2.3,7,6.1,7c2.7,0,4.6-1.4,5.3-4h1.3c-0.7,3.2-3.1,5.1-6.6,5.1C2058,488.9,2055.1,485.6,2055.1,480.7z"/>
		<path class="st3" d="M2069.6,472.6h12.3v1.1h-5.5v14.9h-1.2v-14.9h-5.5V472.6z"/>
		<path class="st3" d="M2089.7,488.9c-4.4,0-7.5-3.4-7.5-8.2c0-4.8,3.1-8.2,7.5-8.2c4.4,0,7.5,3.4,7.5,8.2
			C2097.2,485.4,2094.1,488.9,2089.7,488.9z M2089.7,487.7c3.7,0,6.3-2.9,6.3-7s-2.6-7-6.3-7c-3.7,0-6.2,2.9-6.2,7
			S2086,487.7,2089.7,487.7z"/>
		<path class="st3" d="M2110.4,472.6v16.1h-1.2v-6.7h-4.4l-4.2,6.7h-1.4l4.3-6.8c-2.7-0.3-4.2-2.1-4.2-4.6c0-2.8,2-4.7,5.2-4.7
			H2110.4z M2109.1,480.9v-7.1h-4.8c-2.4,0-4,1.4-4,3.6c0,2.1,1.5,3.6,3.9,3.6H2109.1z"/>
		<path class="st3" d="M2113.7,472.6h1.2v7.3h9.3v-7.3h1.2v16.1h-1.2v-7.6h-9.3v7.6h-1.2V472.6z"/>
		<path class="st3" d="M2128.8,488.7v-16.1h1.2v14l9.6-14h1.2v16.1h-1.2v-14l-9.6,14H2128.8z"/>
		<path class="st3" d="M2154.8,472.6v16.1h-1.2v-6.7h-4.4l-4.2,6.7h-1.4l4.3-6.8c-2.7-0.3-4.2-2.1-4.2-4.6c0-2.8,2-4.7,5.2-4.7
			H2154.8z M2153.6,480.9v-7.1h-4.8c-2.4,0-4,1.4-4,3.6c0,2.1,1.5,3.6,3.9,3.6H2153.6z"/>
		<path class="st3" d="M1937.2,496.6h1.6l6.3,14.4l6.2-14.4h1.6v16.1h-1.2v-14l-6,14h-1.1l-6-14v14h-1.2V496.6z"/>
		<path class="st3" d="M1956.1,496.6h9.9v1.1h-8.7v6.1h7.3v1.1h-7.3v6.5h9v1.1h-10.2V496.6z"/>
		<path class="st3" d="M1967.4,512.7l6.1-8.3l-5.7-7.8h1.4l5.3,7.3h2.9v-7.3h1.2v7.3h2.9l5.4-7.3h1.4l-5.7,7.8l6.1,8.3h-1.5
			l-5.6-7.6h-2.9v7.6h-1.2v-7.6h-2.9l-5.7,7.6H1967.4z"/>
		<path class="st3" d="M2003.6,511.6h2v4.4h-1.2v-3.3h-13.2v3.3h-1.2v-4.4h1.4c1.1-1.1,1.8-2.7,1.8-7.6v-7.3h10.5V511.6z
			 M2002.3,511.6v-13.9h-8.1v6.4c0,4.3-0.5,6.2-1.5,7.5H2002.3z"/>
		<path class="st3" d="M2007.7,512.7v-1.1h1.4c1.3,0,1.8-0.3,2.5-1.7l0.6-1.4l-6.3-11.8h1.4l5.5,10.5l4.8-10.5h1.3l-6.3,13.5
			c-0.9,2-1.8,2.6-3.3,2.6H2007.7z"/>
		<path class="st3" d="M2026.6,504.7c0-4.8,2.9-8.2,7.5-8.2c3.4,0,5.8,1.9,6.5,5.1h-1.3c-0.7-2.5-2.6-3.9-5.3-3.9
			c-3.7,0-6.1,2.9-6.1,7s2.3,7,6.1,7c2.7,0,4.6-1.4,5.3-4h1.3c-0.7,3.2-3.1,5.1-6.6,5.1C2029.5,512.9,2026.6,509.6,2026.6,504.7z"/>
		<path class="st3" d="M2041.2,496.6h12.3v1.1h-5.5v14.9h-1.2v-14.9h-5.5V496.6z"/>
		<path class="st3" d="M2055.6,496.6h6c3.1,0,5,1.9,5,4.7c0,2.8-2,4.7-5,4.7h-4.7v6.7h-1.2V496.6z M2056.8,497.8v7.1h4.6
			c2.4,0,3.9-1.4,3.9-3.5c0-2.1-1.5-3.5-3.9-3.5H2056.8z"/>
		<path class="st3" d="M2075.8,512.9c-4.4,0-7.5-3.4-7.5-8.2c0-4.8,3.1-8.2,7.5-8.2c4.4,0,7.5,3.4,7.5,8.2
			C2083.3,509.4,2080.2,512.9,2075.8,512.9z M2075.8,511.7c3.7,0,6.3-2.9,6.3-7s-2.6-7-6.3-7c-3.7,0-6.2,2.9-6.2,7
			S2072.1,511.7,2075.8,511.7z"/>
		<path class="st3" d="M2086,512.7v-16.1h1.2v7.3h3.4l5.6-7.3h1.4l-6,7.8l6.4,8.3h-1.5l-5.9-7.6h-3.4v7.6H2086z"/>
	</g>
</g>
<g>
	<g>
		<path class="st3" d="M1993.1,298.4h10.5V328H1990v-17.3h-60.9V328h-13.7v-29.6h7.9c5.6-4.6,8.7-12.3,8.7-36.1V226h61.1V298.4z
			 M1979.2,298.4v-60.5h-34.1V264c0,18.3-1.9,27.7-6.4,34.4H1979.2z"/>
		<path class="st3" d="M2048.7,311.5c-24.3,0-41.1-18.3-41.1-43.1c0-24.8,16.8-43.1,41.1-43.1s41.1,18.3,41.1,43.1
			C2089.8,293.2,2073,311.5,2048.7,311.5z M2048.7,299.2c16.1,0,26.9-12.9,26.9-30.9c0-17.9-10.8-30.9-26.9-30.9
			c-16.1,0-26.9,12.9-26.9,30.9C2021.8,286.3,2032.6,299.2,2048.7,299.2z"/>
		<path class="st3" d="M2102,226h18l27.1,66.7l26.6-66.7h17.7v84.7H2178v-62.3l-25.4,62.3h-11.7l-25.4-62.3v62.3H2102V226z"/>
		<path class="st3" d="M2244.8,311.5c-24.3,0-41.1-18.3-41.1-43.1c0-24.8,16.8-43.1,41.1-43.1c24.3,0,41.1,18.3,41.1,43.1
			C2286,293.2,2269.1,311.5,2244.8,311.5z M2244.8,299.2c16.1,0,26.9-12.9,26.9-30.9c0-17.9-10.8-30.9-26.9-30.9
			c-16.1,0-26.9,12.9-26.9,30.9C2218,286.3,2228.7,299.2,2244.8,299.2z"/>
		<path class="st3" d="M2350.6,305.3v10.3h-13.3v-10.3c-26-1.2-42.4-14.8-42.4-36.9c0-22.1,16.2-35.7,42.4-36.9v-10.3h13.3v10.2
			c26,1.3,42.2,14.9,42.2,37C2392.8,290.4,2376.7,304,2350.6,305.3z M2337.3,293.8V243c-18.8,1.1-28.4,10.3-28.4,25.4
			C2308.8,283.4,2318.3,292.6,2337.3,293.8z M2350.6,293.8c18.8-1.1,28.4-10.4,28.4-25.4c0-15-9.6-24.2-28.4-25.3V293.8z"/>
		<path class="st3" d="M2443,311.5c-24.3,0-41.1-18.3-41.1-43.1c0-24.8,16.8-43.1,41.1-43.1s41.1,18.3,41.1,43.1
			C2484.2,293.2,2467.3,311.5,2443,311.5z M2443,299.2c16.1,0,26.9-12.9,26.9-30.9c0-17.9-10.8-30.9-26.9-30.9
			c-16.1,0-26.9,12.9-26.9,30.9C2416.2,286.3,2426.9,299.2,2443,299.2z"/>
		<path class="st3" d="M2496.4,226h13.9v35.6h39.3V226h13.9v84.7h-13.9v-36.8h-39.3v36.8h-13.9V226z"/>
		<path class="st3" d="M2607.3,268.4c0-25.7,15.9-43.1,40.4-43.1c18.8,0,32.4,10.9,35.6,28.4h-11.1c-3.3-11.7-12.2-18.8-24.9-18.8
			c-17.8,0-29.2,13.8-29.2,33.4c0,19.5,10.9,33.4,28.7,33.4c13.1,0,22.1-6.9,25.3-18.8h11.1c-3.1,17.5-17.2,28.4-36.3,28.4
			C2622.6,311.5,2607.3,294.3,2607.3,268.4z"/>
		<path class="st3" d="M2695.9,310.7V226h64.3v84.7h-10.5v-75h-43.2v75H2695.9z"/>
		<path class="st3" d="M2833.8,281.9c0,17.1-12,29.5-30.1,29.5c-18.5,0-30.1-11.1-30.1-34.6c0-33,7.9-45.5,34.6-48.9l20.9-2.7v9.3
			l-18.8,2.4c-19.4,2.5-24.9,7.6-26.9,25.9c4.4-5.9,12.1-9.8,22.6-9.8C2822,253.1,2833.8,264.4,2833.8,281.9z M2823.8,282.3
			c0-11.9-8.2-20.4-19.8-20.4c-12.1,0-20.3,8.6-20.3,19.2c0,13.8,8.5,21.8,20.1,21.8C2815.5,302.9,2823.8,294.3,2823.8,282.3z"/>
	</g>
</g>
<g>
	<g>
		<path class="st3" d="M1915.4,397.9h5.5c0.3,5.7,4.5,8.4,10.8,8.4c6.5,0,10.4-2.9,10.4-7.8c0-5-3.5-7.4-10.2-7.4h-4.3v-4.5h4
			c6.5,0,9.4-2.7,9.4-7.4c0-4.6-3.8-7-9.3-7c-6.1,0-9.9,3-10.2,7.9h-5.5c0.3-7.6,6.6-12.9,15.7-12.9c9.4,0,14.9,4.6,14.9,11.5
			c0,5.7-2.9,8.7-7.1,9.9c4.1,1,8.2,3.8,8.2,10.4c0,7.4-6.4,12.4-16.2,12.4C1921.3,411.3,1915.6,406.5,1915.4,397.9z"/>
		<path class="st3" d="M1949,410.9l16.6-43.4h6.4l16.5,43.4h-5.8l-4.6-11.7h-18.9l-4.6,11.7H1949z M1960.8,394.3h15.7l-7.9-20.9
			L1960.8,394.3z"/>
		<path class="st3" d="M1990,410.9v-5h1.1c4.8,0,6.9-3,6.9-17.1v-21.3h30.1v43.4h-5.4v-38.4h-19.5v16.8c0,16.7-3.6,21.6-11.5,21.6
			H1990z"/>
		<path class="st3" d="M2055.2,411.3c-12.2,0-20.7-9.3-20.7-22.1c0-12.8,8.5-22.1,20.7-22.1c12.2,0,20.7,9.3,20.7,22.1
			C2075.9,402,2067.4,411.3,2055.2,411.3z M2055.2,406.3c9.1,0,15.2-7.1,15.2-17.1s-6.1-17.1-15.2-17.1s-15.2,7.1-15.2,17.1
			S2046.1,406.3,2055.2,406.3z"/>
		<path class="st3" d="M2082.3,410.9v-43.4h25.4v5h-20v38.4H2082.3z"/>
		<path class="st3" d="M2128.5,367.5h15.4c9.2,0,14.4,4.5,14.4,11.5c0,5-2.7,8-6.8,9.4c4.6,0.9,8.6,3.8,8.6,10.1
			c0,7.7-5.5,12.4-15.7,12.4h-15.8V367.5z M2133.9,372.4v13.9h10.2c5.6,0,8.7-2.6,8.7-7c0-4.3-3.1-6.9-8.7-6.9H2133.9z
			 M2133.9,391.2V406h10.4c6.7,0,10.2-2.8,10.2-7.3c0-4.9-3.8-7.6-10.2-7.6H2133.9z"/>
		<path class="st3" d="M2161.5,410.9l16.6-43.4h6.4l16.5,43.4h-5.8l-4.6-11.7h-18.9l-4.6,11.7H2161.5z M2173.3,394.3h15.7l-7.9-20.9
			L2173.3,394.3z"/>
		<path class="st3" d="M2205.4,410.9v-43.4h5.4v38.4h18.3v-38.4h5.4v38.4h18.3v-38.4h5.4v43.4H2205.4z"/>
		<path class="st3" d="M2266.2,367.5h27.7v5h-22.3v13.9h18.5v5h-18.5v14.6h23.1v5h-28.5V367.5z"/>
		<path class="st3" d="M2300.3,410.9v-43.4h5.4v34.4l23.2-34.4h5v43.4h-5.4v-34.4l-23.2,34.4H2300.3z M2308,355.3h4.2
			c0,3,1.4,4.9,4.9,4.9c3.5,0,5-1.9,5-4.9h4.2c-0.1,5.2-3.3,8.5-9.3,8.5C2311.1,363.8,2308.1,360.5,2308,355.3z"/>
		<path class="st3" d="M2357.7,410.9v-43.4h26.7v5h-21.3v12.8h11.6c8.3,0,13.9,4.2,13.9,12.8c0,8.1-5.6,12.9-13.9,12.9H2357.7z
			 M2363.1,405.9h11.2c5.5,0,8.9-3,8.9-7.9c0-4.8-3.5-7.9-8.9-7.9h-11.1V405.9z"/>
		<path class="st3" d="M2394.4,367.5h27.7v5h-22.3v13.9h18.5v5h-18.5v14.6h23.1v5h-28.5V367.5z"/>
		<path class="st3" d="M2425.4,397.9h5.5c0.3,5.7,4.5,8.4,10.8,8.4c6.5,0,10.4-2.9,10.4-7.8c0-5-3.5-7.4-10.2-7.4h-4.3v-4.5h4
			c6.5,0,9.4-2.7,9.4-7.4c0-4.6-3.8-7-9.3-7c-6.1,0-9.9,3-10.2,7.9h-5.5c0.3-7.6,6.6-12.9,15.7-12.9c9.4,0,14.9,4.6,14.9,11.5
			c0,5.7-2.9,8.7-7.1,9.9c4.1,1,8.2,3.8,8.2,10.4c0,7.4-6.4,12.4-16.2,12.4C2431.3,411.3,2425.6,406.5,2425.4,397.9z"/>
		<path class="st3" d="M2482.9,411.3c-12.2,0-20.7-9.3-20.7-22.1c0-12.8,8.5-22.1,20.7-22.1c12.2,0,20.7,9.3,20.7,22.1
			C2503.6,402,2495.1,411.3,2482.9,411.3z M2482.9,406.3c9.1,0,15.2-7.1,15.2-17.1s-6.1-17.1-15.2-17.1s-15.2,7.1-15.2,17.1
			S2473.8,406.3,2482.9,406.3z"/>
		<path class="st3" d="M2510,410.9v-43.4h32.9v43.4h-5.4v-38.4h-22.1v38.4H2510z"/>
		<path class="st3" d="M2547.3,410.9l16.6-43.4h6.4l16.5,43.4h-5.8l-4.6-11.7h-18.9l-4.6,11.7H2547.3z M2559.1,394.3h15.7l-7.9-20.9
			L2559.1,394.3z"/>
		<path class="st3" d="M2587.8,389.2c0-13.1,8.1-22.1,20.7-22.1c9.6,0,16.6,5.6,18.2,14.6h-5.7c-1.7-6-6.3-9.6-12.8-9.6
			c-9.1,0-14.9,7.1-14.9,17.1c0,10,5.6,17.1,14.7,17.1c6.7,0,11.3-3.5,13-9.6h5.7c-1.6,9-8.8,14.6-18.6,14.6
			C2595.6,411.3,2587.8,402.5,2587.8,389.2z"/>
		<path class="st3" d="M2632.7,367.5h5.4v18.8h22.4v-18.8h5.4v43.4h-5.4v-19.6h-22.4v19.6h-5.4V367.5z"/>
		<path class="st3" d="M2693,411.3c-12.2,0-20.7-9.3-20.7-22.1c0-12.8,8.5-22.1,20.7-22.1c12.2,0,20.7,9.3,20.7,22.1
			C2713.7,402,2705.2,411.3,2693,411.3z M2693,406.3c9.1,0,15.2-7.1,15.2-17.1s-6.1-17.1-15.2-17.1s-15.2,7.1-15.2,17.1
			S2684,406.3,2693,406.3z"/>
		<path class="st3" d="M2718.5,389.2c0-13.1,8.1-22.1,20.7-22.1c9.6,0,16.6,5.6,18.2,14.6h-5.7c-1.7-6-6.3-9.6-12.8-9.6
			c-9.1,0-14.9,7.1-14.9,17.1c0,10,5.6,17.1,14.7,17.1c6.7,0,11.3-3.5,13-9.6h5.7c-1.6,9-8.8,14.6-18.6,14.6
			C2726.3,411.3,2718.5,402.5,2718.5,389.2z"/>
		<path class="st3" d="M2758.3,367.5h33.5v5h-14.1v38.4h-5.4v-38.4h-14.1V367.5z"/>
		<path class="st3" d="M2796.9,410.9v-43.4h5.4v34.4l23.2-34.4h5v43.4h-5.4v-34.4l-23.2,34.4H2796.9z"/>
	</g>
</g>
<g>
	<path class="st3" d="M1826.6,761.8v-51.2c0-13.5-7.3-26.1-19-32.9l-44.3-25.6c-7.8-4.5-17.5-4.5-25.4,0l-44.3,25.7
		c-11.7,6.8-19,19.2-19,32.9v51.2c0,9.1,4.8,17.4,12.6,21.8l44.3,25.6c11.8,6.8,26.3,6.8,38,0l44.3-25.6
		C1821.8,779.1,1826.6,770.7,1826.6,761.8z M1812.7,778.2h-124.3l-8.4-14.7l62.1-107.5h16.9l62.1,107.6L1812.7,778.2z"/>
	<g>
		<g>
			<path class="st3" d="M1938.1,721.3h8.7v24.5h-11.3v-14.3h-50.3v14.3h-11.3v-24.5h6.5c4.6-3.8,7.2-10.2,7.2-29.8v-30h50.5V721.3z
				 M1926.6,721.3v-50h-28.2v21.6c0,15.1-1.6,22.9-5.3,28.4H1926.6z"/>
			<path class="st3" d="M1984,732.1c-20.1,0-34-15.1-34-35.6c0-20.5,13.9-35.6,34-35.6s34,15.1,34,35.6
				C2018.1,717,2004.2,732.1,1984,732.1z M1984,722c13.3,0,22.2-10.7,22.2-25.5c0-14.8-8.9-25.5-22.2-25.5
				c-13.3,0-22.2,10.7-22.2,25.5C1961.8,711.3,1970.7,722,1984,722z"/>
			<path class="st3" d="M2028.2,661.4h14.9l22.4,55.1l22-55.1h14.6v70.1H2091v-51.5l-21,51.5h-9.7l-21-51.5v51.5h-11.1V661.4z"/>
			<path class="st3" d="M2146.3,732.1c-20.1,0-34-15.1-34-35.6c0-20.5,13.9-35.6,34-35.6c20.1,0,34,15.1,34,35.6
				C2180.3,717,2166.4,732.1,2146.3,732.1z M2146.3,722c13.3,0,22.2-10.7,22.2-25.5c0-14.8-8.9-25.5-22.2-25.5
				c-13.3,0-22.2,10.7-22.2,25.5C2124.1,711.3,2133,722,2146.3,722z"/>
			<path class="st3" d="M2233.7,727v8.5h-11V727c-21.5-1-35-12.2-35-30.5c0-18.3,13.4-29.5,35-30.5v-8.5h11v8.4
				c21.5,1.1,34.9,12.3,34.9,30.6C2268.7,714.7,2255.4,725.9,2233.7,727z M2222.7,717.5v-42c-15.5,0.9-23.5,8.5-23.5,21
				C2199.2,708.9,2207,716.5,2222.7,717.5z M2233.7,717.5c15.5-0.9,23.5-8.6,23.5-21c0-12.4-7.9-20-23.5-20.9V717.5z"/>
			<path class="st3" d="M2310.2,732.1c-20.1,0-34-15.1-34-35.6c0-20.5,13.9-35.6,34-35.6c20.1,0,34,15.1,34,35.6
				C2344.2,717,2330.3,732.1,2310.2,732.1z M2310.2,722c13.3,0,22.2-10.7,22.2-25.5c0-14.8-8.9-25.5-22.2-25.5
				c-13.3,0-22.2,10.7-22.2,25.5C2288,711.3,2296.9,722,2310.2,722z"/>
			<path class="st3" d="M2354.3,661.4h11.5v29.4h32.5v-29.4h11.5v70.1h-11.5V701h-32.5v30.4h-11.5V661.4z"/>
			<path class="st3" d="M2446.1,696.4c0-21.2,13.1-35.6,33.4-35.6c15.5,0,26.8,9,29.4,23.5h-9.2c-2.7-9.7-10.1-15.5-20.6-15.5
				c-14.7,0-24.1,11.4-24.1,27.6c0,16.1,9,27.6,23.7,27.6c10.8,0,18.3-5.7,20.9-15.5h9.2c-2.6,14.5-14.2,23.5-30,23.5
				C2458.7,732.1,2446.1,717.9,2446.1,696.4z"/>
			<path class="st3" d="M2519.4,731.5v-70.1h53.1v70.1h-8.7v-62.1h-35.7v62.1H2519.4z"/>
			<path class="st3" d="M2633.5,707.6c0,14.1-9.9,24.4-24.9,24.4c-15.3,0-24.9-9.2-24.9-28.6c0-27.3,6.5-37.6,28.6-40.4l17.3-2.2
				v7.7l-15.5,2c-16,2.1-20.6,6.3-22.2,21.4c3.6-4.9,10-8.1,18.7-8.1C2623.7,683.8,2633.5,693.1,2633.5,707.6z M2625.2,707.9
				c0-9.8-6.8-16.9-16.4-16.9c-10,0-16.8,7.1-16.8,15.9c0,11.4,7,18,16.6,18C2618.3,725,2625.2,717.9,2625.2,707.9z"/>
		</g>
	</g>
	<g>
		<g>
			<path class="st3" d="M1873.8,803.5h4.6c0.3,4.7,3.7,7,9,7c5.4,0,8.6-2.4,8.6-6.5c0-4.2-2.9-6.2-8.5-6.2h-3.6v-3.7h3.3
				c5.4,0,7.8-2.2,7.8-6.2c0-3.8-3.1-5.8-7.7-5.8c-5,0-8.2,2.5-8.5,6.6h-4.6c0.3-6.3,5.5-10.7,13-10.7c7.7,0,12.3,3.8,12.3,9.5
				c0,4.7-2.4,7.2-5.8,8.2c3.4,0.8,6.8,3.1,6.8,8.6c0,6.1-5.3,10.3-13.4,10.3C1878.7,814.6,1874,810.7,1873.8,803.5z"/>
			<path class="st3" d="M1901.6,814.3l13.7-35.9h5.3l13.6,35.9h-4.8l-3.8-9.7H1910l-3.8,9.7H1901.6z M1911.4,800.6h13l-6.5-17.3
				L1911.4,800.6z"/>
			<path class="st3" d="M1935.5,814.3v-4.1h0.9c3.9,0,5.7-2.5,5.7-14.2v-17.6h24.9v35.9h-4.5v-31.8h-16.2v13.9
				c0,13.8-3,17.9-9.5,17.9H1935.5z"/>
			<path class="st3" d="M1989.4,814.6c-10.1,0-17.1-7.7-17.1-18.3s7-18.3,17.1-18.3c10.1,0,17.1,7.7,17.1,18.3
				S1999.5,814.6,1989.4,814.6z M1989.4,810.5c7.5,0,12.6-5.9,12.6-14.2s-5.1-14.2-12.6-14.2s-12.6,5.9-12.6,14.2
				S1981.9,810.5,1989.4,810.5z"/>
			<path class="st3" d="M2011.8,814.3v-35.9h21v4.1h-16.6v31.8H2011.8z"/>
			<path class="st3" d="M2050.1,778.4h12.7c7.6,0,11.9,3.7,11.9,9.5c0,4.1-2.3,6.6-5.6,7.8c3.8,0.7,7.1,3.2,7.1,8.4
				c0,6.4-4.5,10.3-13,10.3h-13.1V778.4z M2054.5,782.5V794h8.5c4.6,0,7.2-2.2,7.2-5.8c0-3.6-2.6-5.7-7.2-5.7H2054.5z M2054.5,798
				v12.3h8.6c5.5,0,8.5-2.3,8.5-6c0-4.1-3.1-6.3-8.5-6.3H2054.5z"/>
			<path class="st3" d="M2077.4,814.3l13.7-35.9h5.3l13.6,35.9h-4.8l-3.8-9.7h-15.6l-3.8,9.7H2077.4z M2087.1,800.6h13l-6.5-17.3
				L2087.1,800.6z"/>
			<path class="st3" d="M2113.7,814.3v-35.9h4.5v31.8h15.1v-31.8h4.5v31.8h15.1v-31.8h4.5v35.9H2113.7z"/>
			<path class="st3" d="M2163.9,778.4h22.9v4.1h-18.4V794h15.3v4.1h-15.3v12.1h19.1v4.1h-23.5V778.4z"/>
			<path class="st3" d="M2192.1,814.3v-35.9h4.5v28.5l19.2-28.5h4.2v35.9h-4.5v-28.5l-19.2,28.5H2192.1z M2198.5,768.4h3.5
				c0,2.5,1.1,4.1,4.1,4.1c2.9,0,4.2-1.5,4.2-4.1h3.5c-0.1,4.3-2.7,7-7.7,7C2201.1,775.4,2198.6,772.7,2198.5,768.4z"/>
			<path class="st3" d="M2239.7,814.3v-35.9h22.1v4.1h-17.6v10.6h9.6c6.9,0,11.5,3.5,11.5,10.6c0,6.7-4.6,10.7-11.5,10.7H2239.7z
				 M2244.1,810.2h9.2c4.5,0,7.3-2.5,7.3-6.5c0-4-2.9-6.5-7.4-6.5h-9.2V810.2z"/>
			<path class="st3" d="M2270,778.4h22.9v4.1h-18.4V794h15.3v4.1h-15.3v12.1h19.1v4.1H2270V778.4z"/>
			<path class="st3" d="M2295.6,803.5h4.6c0.3,4.7,3.7,7,9,7c5.4,0,8.6-2.4,8.6-6.5c0-4.2-2.9-6.2-8.5-6.2h-3.6v-3.7h3.3
				c5.4,0,7.8-2.2,7.8-6.2c0-3.8-3.1-5.8-7.7-5.8c-5,0-8.2,2.5-8.5,6.6h-4.6c0.3-6.3,5.5-10.7,13-10.7c7.7,0,12.3,3.8,12.3,9.5
				c0,4.7-2.4,7.2-5.8,8.2c3.4,0.8,6.8,3.1,6.8,8.6c0,6.1-5.3,10.3-13.4,10.3C2300.5,814.6,2295.8,810.7,2295.6,803.5z"/>
			<path class="st3" d="M2343.2,814.6c-10.1,0-17.1-7.7-17.1-18.3s7-18.3,17.1-18.3c10.1,0,17.1,7.7,17.1,18.3
				S2353.3,814.6,2343.2,814.6z M2343.2,810.5c7.5,0,12.6-5.9,12.6-14.2s-5.1-14.2-12.6-14.2c-7.5,0-12.6,5.9-12.6,14.2
				S2335.7,810.5,2343.2,810.5z"/>
			<path class="st3" d="M2365.6,814.3v-35.9h27.2v35.9h-4.5v-31.8H2370v31.8H2365.6z"/>
			<path class="st3" d="M2396.5,814.3l13.7-35.9h5.3l13.6,35.9h-4.8l-3.8-9.7h-15.6l-3.8,9.7H2396.5z M2406.2,800.6h13l-6.5-17.3
				L2406.2,800.6z"/>
			<path class="st3" d="M2429.9,796.4c0-10.9,6.7-18.3,17.1-18.3c7.9,0,13.7,4.6,15.1,12.1h-4.7c-1.4-5-5.2-7.9-10.6-7.9
				c-7.5,0-12.4,5.8-12.4,14.2c0,8.3,4.6,14.2,12.2,14.2c5.5,0,9.4-2.9,10.7-7.9h4.7c-1.3,7.4-7.3,12.1-15.4,12.1
				C2436.4,814.6,2429.9,807.3,2429.9,796.4z"/>
			<path class="st3" d="M2467.1,778.4h4.5V794h18.6v-15.6h4.5v35.9h-4.5v-16.2h-18.6v16.2h-4.5V778.4z"/>
			<path class="st3" d="M2517,814.6c-10.1,0-17.1-7.7-17.1-18.3s7-18.3,17.1-18.3c10.1,0,17.1,7.7,17.1,18.3
				S2527.1,814.6,2517,814.6z M2517,810.5c7.5,0,12.6-5.9,12.6-14.2s-5.1-14.2-12.6-14.2c-7.5,0-12.6,5.9-12.6,14.2
				S2509.5,810.5,2517,810.5z"/>
			<path class="st3" d="M2538.1,796.4c0-10.9,6.7-18.3,17.1-18.3c7.9,0,13.7,4.6,15.1,12.1h-4.7c-1.4-5-5.2-7.9-10.6-7.9
				c-7.5,0-12.4,5.8-12.4,14.2c0,8.3,4.6,14.2,12.2,14.2c5.5,0,9.4-2.9,10.7-7.9h4.7c-1.3,7.4-7.3,12.1-15.4,12.1
				C2544.6,814.6,2538.1,807.3,2538.1,796.4z"/>
			<path class="st3" d="M2571,778.4h27.7v4.1h-11.6v31.8h-4.5v-31.8H2571V778.4z"/>
			<path class="st3" d="M2602.9,814.3v-35.9h4.5v28.5l19.2-28.5h4.2v35.9h-4.5v-28.5l-19.2,28.5H2602.9z"/>
		</g>
	</g>
</g>
<g>
	<path class="st3" d="M1794.5,1119.1v-42.6c0-11.2-5.7-21.7-15-27.4l-34.9-21.3c-6.1-3.8-13.8-3.8-20,0l-34.9,21.3
		c-9.2,5.6-15,16-15,27.4v42.6c0,7.6,3.8,14.5,9.9,18.1l34.9,21.3c9.3,5.6,20.7,5.6,29.9,0l34.9-21.3
		C1790.7,1133.4,1794.5,1126.5,1794.5,1119.1z M1783.6,1132.7h-98l-6.7-12.2l49-89.4h13.3l49,89.5L1783.6,1132.7z"/>
	<g>
		<g>
			<path class="st3" d="M1882.4,1085.4h6.9v20.4h-8.9v-11.9h-39.7v11.9h-8.9v-20.4h5.1c3.6-3.2,5.7-8.5,5.7-24.8v-25h39.9V1085.4z
				 M1873.4,1085.4v-41.6h-22.3v18c0,12.6-1.3,19.1-4.2,23.6H1873.4z"/>
			<path class="st3" d="M1918.7,1094.4c-15.9,0-26.8-12.6-26.8-29.6c0-17.1,11-29.6,26.8-29.6s26.8,12.6,26.8,29.6
				C1945.5,1081.8,1934.5,1094.4,1918.7,1094.4z M1918.7,1086c10.5,0,17.5-8.9,17.5-21.2c0-12.3-7-21.2-17.5-21.2
				c-10.5,0-17.5,8.9-17.5,21.2C1901.1,1077.1,1908.2,1086,1918.7,1086z"/>
			<path class="st3" d="M1953.5,1035.6h11.8l17.7,45.8l17.4-45.8h11.5v58.2h-8.8V1051l-16.6,42.9h-7.7l-16.6-42.9v42.9h-8.8V1035.6z
				"/>
			<path class="st3" d="M2046.6,1094.4c-15.9,0-26.8-12.6-26.8-29.6c0-17.1,11-29.6,26.8-29.6c15.9,0,26.8,12.6,26.8,29.6
				C2073.5,1081.8,2062.5,1094.4,2046.6,1094.4z M2046.6,1086c10.5,0,17.5-8.9,17.5-21.2c0-12.3-7-21.2-17.5-21.2
				c-10.5,0-17.5,8.9-17.5,21.2C2029.1,1077.1,2036.1,1086,2046.6,1086z"/>
			<path class="st3" d="M2115.6,1090.1v7.1h-8.7v-7.1c-17-0.8-27.6-10.2-27.6-25.4c0-15.2,10.6-24.5,27.6-25.4v-7.1h8.7v7
				c17,0.9,27.6,10.2,27.6,25.5C2143.2,1079.9,2132.7,1089.2,2115.6,1090.1z M2106.9,1082.2v-34.9c-12.2,0.7-18.6,7.1-18.6,17.5
				C2088.4,1075.1,2094.5,1081.4,2106.9,1082.2z M2115.6,1082.2c12.2-0.7,18.6-7.2,18.6-17.5c0-10.3-6.2-16.6-18.6-17.4V1082.2z"/>
			<path class="st3" d="M2175.9,1094.4c-15.9,0-26.8-12.6-26.8-29.6c0-17.1,11-29.6,26.8-29.6s26.8,12.6,26.8,29.6
				C2202.8,1081.8,2191.8,1094.4,2175.9,1094.4z M2175.9,1086c10.5,0,17.5-8.9,17.5-21.2c0-12.3-7-21.2-17.5-21.2
				c-10.5,0-17.5,8.9-17.5,21.2C2158.4,1077.1,2165.4,1086,2175.9,1086z"/>
			<path class="st3" d="M2210.7,1035.6h9.1v24.5h25.7v-24.5h9.1v58.2h-9.1v-25.3h-25.7v25.3h-9.1V1035.6z"/>
			<path class="st3" d="M2283.1,1064.8c0-17.6,10.3-29.6,26.4-29.6c12.2,0,21.2,7.5,23.2,19.6h-7.3c-2.1-8.1-8-12.9-16.3-12.9
				c-11.6,0-19,9.5-19,23c0,13.4,7.1,23,18.7,23c8.5,0,14.4-4.7,16.5-12.9h7.3c-2.1,12.1-11.2,19.6-23.7,19.6
				C2293.1,1094.4,2283.1,1082.6,2283.1,1064.8z"/>
			<path class="st3" d="M2340.9,1093.9v-58.2h41.9v58.2h-6.9v-51.6h-28.2v51.6H2340.9z"/>
			<path class="st3" d="M2430.9,1074.1c0,11.7-7.8,20.3-19.7,20.3c-12.1,0-19.7-7.7-19.7-23.8c0-22.7,5.1-31.3,22.6-33.6l13.7-1.8
				v6.4l-12.2,1.7c-12.6,1.7-16.3,5.2-17.5,17.8c2.8-4.1,7.9-6.7,14.8-6.7C2423.2,1054.3,2430.9,1062,2430.9,1074.1z M2424.4,1074.3
				c0-8.2-5.4-14.1-12.9-14.1c-7.9,0-13.3,5.9-13.3,13.2c0,9.5,5.5,15,13.1,15C2418.9,1088.5,2424.4,1082.6,2424.4,1074.3z"/>
		</g>
	</g>
	<g>
		<g>
			<path class="st3" d="M1831.7,1153.8h3.6c0.2,3.9,3,5.8,7.1,5.8c4.2,0,6.8-2,6.8-5.4c0-3.5-2.3-5.1-6.7-5.1h-2.8v-3.1h2.6
				c4.2,0,6.1-1.8,6.1-5.1c0-3.2-2.5-4.8-6.1-4.8c-4,0-6.5,2-6.7,5.5h-3.6c0.2-5.2,4.3-8.9,10.2-8.9c6.1,0,9.7,3.2,9.7,7.9
				c0,3.9-1.9,6-4.6,6.8c2.7,0.7,5.3,2.6,5.3,7.2c0,5.1-4.2,8.5-10.6,8.5C1835.6,1163,1831.9,1159.7,1831.7,1153.8z"/>
			<path class="st3" d="M1853.7,1162.7l10.8-29.8h4.2l10.8,29.8h-3.8l-3-8.1h-12.3l-3,8.1H1853.7z M1861.4,1151.3h10.2l-5.1-14.4
				L1861.4,1151.3z"/>
			<path class="st3" d="M1880.4,1162.7v-3.4h0.7c3.1,0,4.5-2,4.5-11.8v-14.7h19.7v29.8h-3.5v-26.4H1889v11.6
				c0,11.5-2.3,14.9-7.5,14.9H1880.4z"/>
			<path class="st3" d="M1922.9,1163c-8,0-13.5-6.4-13.5-15.2c0-8.8,5.5-15.2,13.5-15.2c8,0,13.5,6.4,13.5,15.2
				C1936.4,1156.6,1930.9,1163,1922.9,1163z M1922.9,1159.6c5.9,0,9.9-4.9,9.9-11.8c0-6.9-4-11.8-9.9-11.8s-9.9,4.9-9.9,11.8
				C1913,1154.7,1917,1159.6,1922.9,1159.6z"/>
			<path class="st3" d="M1940.6,1162.7v-29.8h16.6v3.4h-13.1v26.4H1940.6z"/>
			<path class="st3" d="M1970.8,1132.9h10c6,0,9.4,3.1,9.4,7.9c0,3.4-1.8,5.5-4.4,6.5c3,0.6,5.6,2.6,5.6,6.9c0,5.3-3.6,8.5-10.3,8.5
				h-10.3V1132.9z M1974.3,1136.3v9.6h6.7c3.6,0,5.7-1.8,5.7-4.8c0-3-2-4.8-5.7-4.8H1974.3z M1974.3,1149.2v10.2h6.8
				c4.4,0,6.7-1.9,6.7-5c0-3.4-2.5-5.2-6.7-5.2H1974.3z"/>
			<path class="st3" d="M1992.3,1162.7l10.8-29.8h4.2l10.8,29.8h-3.8l-3-8.1h-12.3l-3,8.1H1992.3z M2000,1151.3h10.2l-5.1-14.4
				L2000,1151.3z"/>
			<path class="st3" d="M2020.9,1162.7v-29.8h3.5v26.4h11.9v-26.4h3.5v26.4h11.9v-26.4h3.5v29.8H2020.9z"/>
			<path class="st3" d="M2060.6,1132.9h18v3.4h-14.5v9.5h12.1v3.4h-12.1v10.1h15v3.4h-18.6V1132.9z"/>
			<path class="st3" d="M2082.8,1162.7v-29.8h3.5v23.7l15.2-23.7h3.3v29.8h-3.5v-23.7l-15.2,23.7H2082.8z M2087.9,1124.5h2.8
				c0,2.1,0.9,3.4,3.2,3.4c2.3,0,3.3-1.3,3.3-3.4h2.8c-0.1,3.6-2.1,5.8-6.1,5.8C2089.9,1130.4,2087.9,1128.1,2087.9,1124.5z"/>
			<path class="st3" d="M2120.3,1162.7v-29.8h17.4v3.4h-13.9v8.8h7.6c5.4,0,9.1,2.9,9.1,8.8c0,5.6-3.6,8.9-9.1,8.9H2120.3z
				 M2123.8,1159.3h7.3c3.6,0,5.8-2.1,5.8-5.4c0-3.3-2.3-5.4-5.8-5.4h-7.2V1159.3z"/>
			<path class="st3" d="M2144.2,1132.9h18v3.4h-14.5v9.5h12.1v3.4h-12.1v10.1h15v3.4h-18.6V1132.9z"/>
			<path class="st3" d="M2164.4,1153.8h3.6c0.2,3.9,3,5.8,7.1,5.8c4.2,0,6.8-2,6.8-5.4c0-3.5-2.3-5.1-6.7-5.1h-2.8v-3.1h2.6
				c4.2,0,6.1-1.8,6.1-5.1c0-3.2-2.5-4.8-6.1-4.8c-4,0-6.5,2-6.7,5.5h-3.6c0.2-5.2,4.3-8.9,10.2-8.9c6.1,0,9.7,3.2,9.7,7.9
				c0,3.9-1.9,6-4.6,6.8c2.7,0.7,5.3,2.6,5.3,7.2c0,5.1-4.2,8.5-10.6,8.5C2168.3,1163,2164.6,1159.7,2164.4,1153.8z"/>
			<path class="st3" d="M2201.9,1163c-8,0-13.5-6.4-13.5-15.2c0-8.8,5.5-15.2,13.5-15.2c8,0,13.5,6.4,13.5,15.2
				C2215.4,1156.6,2209.9,1163,2201.9,1163z M2201.9,1159.6c5.9,0,9.9-4.9,9.9-11.8c0-6.9-4-11.8-9.9-11.8s-9.9,4.9-9.9,11.8
				C2192,1154.7,2196,1159.6,2201.9,1159.6z"/>
			<path class="st3" d="M2219.6,1162.7v-29.8h21.5v29.8h-3.5v-26.4h-14.4v26.4H2219.6z"/>
			<path class="st3" d="M2244,1162.7l10.8-29.8h4.2l10.8,29.8h-3.8l-3-8.1h-12.3l-3,8.1H2244z M2251.7,1151.3h10.2l-5.1-14.4
				L2251.7,1151.3z"/>
			<path class="st3" d="M2270.4,1147.8c0-9,5.3-15.2,13.5-15.2c6.3,0,10.8,3.8,11.9,10h-3.7c-1.1-4.1-4.1-6.6-8.3-6.6
				c-5.9,0-9.7,4.9-9.7,11.8c0,6.9,3.6,11.8,9.6,11.8c4.4,0,7.4-2.4,8.5-6.6h3.7c-1.1,6.2-5.7,10-12.1,10
				C2275.5,1163,2270.4,1156.9,2270.4,1147.8z"/>
			<path class="st3" d="M2299.7,1132.9h3.5v13h14.6v-13h3.5v29.8h-3.5v-13.5h-14.6v13.5h-3.5V1132.9z"/>
			<path class="st3" d="M2339,1163c-8,0-13.5-6.4-13.5-15.2c0-8.8,5.5-15.2,13.5-15.2c8,0,13.5,6.4,13.5,15.2
				C2352.5,1156.6,2347,1163,2339,1163z M2339,1159.6c5.9,0,9.9-4.9,9.9-11.8c0-6.9-4-11.8-9.9-11.8s-9.9,4.9-9.9,11.8
				C2329.1,1154.7,2333.1,1159.6,2339,1159.6z"/>
			<path class="st3" d="M2355.7,1147.8c0-9,5.3-15.2,13.5-15.2c6.3,0,10.8,3.8,11.9,10h-3.7c-1.1-4.1-4.1-6.6-8.3-6.6
				c-5.9,0-9.7,4.9-9.7,11.8c0,6.9,3.6,11.8,9.6,11.8c4.4,0,7.4-2.4,8.5-6.6h3.7c-1.1,6.2-5.7,10-12.1,10
				C2360.8,1163,2355.7,1156.9,2355.7,1147.8z"/>
			<path class="st3" d="M2381.6,1132.9h21.9v3.4h-9.2v26.4h-3.5v-26.4h-9.2V1132.9z"/>
			<path class="st3" d="M2406.8,1162.7v-29.8h3.5v23.7l15.2-23.7h3.3v29.8h-3.5v-23.7l-15.2,23.7H2406.8z"/>
		</g>
	</g>
</g>
<g>
	<path class="st3" d="M1769.3,1415.8v-33.6c0-8.9-4.5-17.1-11.8-21.6l-27.6-16.8c-4.8-3-10.9-3-15.8,0l-27.6,16.8
		c-7.3,4.4-11.8,12.6-11.8,21.6v33.6c0,6,3,11.4,7.9,14.3l27.6,16.8c7.4,4.4,16.4,4.4,23.7,0l27.6-16.8
		C1766.3,1427.2,1769.3,1421.7,1769.3,1415.8z M1760.7,1426.6h-77.4l-5.3-9.7l38.7-70.6h10.5l38.7,70.7L1760.7,1426.6z"/>
	<g>
		<g>
			<path class="st3" d="M1838.8,1389.2h5.4v16.1h-7v-9.4h-31.4v9.4h-7v-16.1h4.1c2.9-2.5,4.5-6.7,4.5-19.6v-19.7h31.5V1389.2z
				 M1831.6,1389.2v-32.9H1814v14.2c0,9.9-1,15-3.3,18.7H1831.6z"/>
			<path class="st3" d="M1867.4,1396.3c-12.5,0-21.2-9.9-21.2-23.4c0-13.5,8.7-23.4,21.2-23.4s21.2,9.9,21.2,23.4
				C1888.6,1386.4,1879.9,1396.3,1867.4,1396.3z M1867.4,1389.7c8.3,0,13.8-7,13.8-16.8c0-9.7-5.5-16.8-13.8-16.8
				c-8.3,0-13.8,7-13.8,16.8C1853.6,1382.6,1859.1,1389.7,1867.4,1389.7z"/>
			<path class="st3" d="M1894.9,1349.9h9.3l14,36.2l13.7-36.2h9.1v46h-6.9v-33.8l-13.1,33.8h-6l-13.1-33.8v33.8h-6.9V1349.9z"/>
			<path class="st3" d="M1968.5,1396.3c-12.5,0-21.2-9.9-21.2-23.4c0-13.5,8.7-23.4,21.2-23.4c12.5,0,21.2,9.9,21.2,23.4
				C1989.7,1386.4,1981,1396.3,1968.5,1396.3z M1968.5,1389.7c8.3,0,13.8-7,13.8-16.8c0-9.7-5.5-16.8-13.8-16.8
				c-8.3,0-13.8,7-13.8,16.8C1954.6,1382.6,1960.2,1389.7,1968.5,1389.7z"/>
			<path class="st3" d="M2023,1393v5.6h-6.9v-5.6c-13.4-0.7-21.8-8-21.8-20c0-12,8.4-19.4,21.8-20v-5.6h6.9v5.5
				c13.4,0.7,21.8,8.1,21.8,20.1C2044.7,1384.9,2036.4,1392.2,2023,1393z M2016.1,1386.7v-27.6c-9.7,0.6-14.7,5.6-14.7,13.8
				C2001.4,1381.1,2006.3,1386.1,2016.1,1386.7z M2023,1386.7c9.7-0.6,14.7-5.7,14.7-13.8c0-8.1-4.9-13.1-14.7-13.7V1386.7z"/>
			<path class="st3" d="M2070.6,1396.3c-12.5,0-21.2-9.9-21.2-23.4c0-13.5,8.7-23.4,21.2-23.4c12.5,0,21.2,9.9,21.2,23.4
				C2091.8,1386.4,2083.1,1396.3,2070.6,1396.3z M2070.6,1389.7c8.3,0,13.8-7,13.8-16.8c0-9.7-5.5-16.8-13.8-16.8
				c-8.3,0-13.8,7-13.8,16.8C2056.8,1382.6,2062.3,1389.7,2070.6,1389.7z"/>
			<path class="st3" d="M2098.1,1349.9h7.2v19.3h20.3v-19.3h7.2v46h-7.2v-20h-20.3v20h-7.2V1349.9z"/>
			<path class="st3" d="M2155.3,1372.9c0-13.9,8.2-23.4,20.8-23.4c9.7,0,16.7,5.9,18.3,15.4h-5.7c-1.7-6.4-6.3-10.2-12.8-10.2
				c-9.2,0-15,7.5-15,18.1c0,10.6,5.6,18.1,14.8,18.1c6.7,0,11.4-3.7,13-10.2h5.7c-1.6,9.5-8.9,15.4-18.7,15.4
				C2163.1,1396.3,2155.3,1387,2155.3,1372.9z"/>
			<path class="st3" d="M2200.9,1395.9v-46h33.1v46h-5.4v-40.7h-22.3v40.7H2200.9z"/>
			<path class="st3" d="M2272,1380.3c0,9.3-6.2,16-15.5,16c-9.5,0-15.5-6-15.5-18.8c0-17.9,4.1-24.7,17.8-26.6l10.8-1.4v5.1
				l-9.7,1.3c-10,1.4-12.8,4.1-13.8,14.1c2.2-3.2,6.2-5.3,11.7-5.3C2265.9,1364.6,2272,1370.7,2272,1380.3z M2266.8,1380.5
				c0-6.4-4.2-11.1-10.2-11.1c-6.2,0-10.5,4.7-10.5,10.4c0,7.5,4.4,11.8,10.4,11.8C2262.5,1391.6,2266.8,1387,2266.8,1380.5z"/>
		</g>
	</g>
	<g>
		<g>
			<path class="st3" d="M1798.7,1443.2h2.8c0.2,3.1,2.3,4.6,5.6,4.6c3.4,0,5.3-1.5,5.3-4.2c0-2.7-1.8-4-5.3-4h-2.2v-2.5h2.1
				c3.4,0,4.9-1.4,4.9-4c0-2.5-1.9-3.8-4.8-3.8c-3.1,0-5.1,1.6-5.3,4.3h-2.8c0.2-4.1,3.4-7,8.1-7c4.8,0,7.7,2.5,7.7,6.2
				c0,3.1-1.5,4.7-3.6,5.4c2.1,0.5,4.2,2.1,4.2,5.7c0,4-3.3,6.7-8.3,6.7C1801.8,1450.5,1798.8,1447.9,1798.7,1443.2z"/>
			<path class="st3" d="M1816.1,1450.3l8.5-23.6h3.3l8.5,23.6h-3l-2.4-6.4h-9.7l-2.4,6.4H1816.1z M1822.1,1441.3h8.1l-4.1-11.3
				L1822.1,1441.3z"/>
			<path class="st3" d="M1837.2,1450.3v-2.7h0.5c2.5,0,3.5-1.6,3.5-9.3v-11.6h15.5v23.6h-2.8v-20.9h-10.1v9.1
				c0,9.1-1.9,11.8-5.9,11.8H1837.2z"/>
			<path class="st3" d="M1870.7,1450.5c-6.3,0-10.7-5.1-10.7-12c0-6.9,4.4-12,10.7-12c6.3,0,10.7,5.1,10.7,12
				C1881.4,1445.5,1877,1450.5,1870.7,1450.5z M1870.7,1447.8c4.7,0,7.8-3.9,7.8-9.3s-3.2-9.3-7.8-9.3s-7.8,3.9-7.8,9.3
				S1866.1,1447.8,1870.7,1447.8z"/>
			<path class="st3" d="M1884.7,1450.3v-23.6h13.1v2.7h-10.3v20.9H1884.7z"/>
			<path class="st3" d="M1908.5,1426.7h7.9c4.8,0,7.4,2.4,7.4,6.2c0,2.7-1.4,4.3-3.5,5.1c2.4,0.5,4.4,2.1,4.4,5.5
				c0,4.2-2.8,6.7-8.1,6.7h-8.1V1426.7z M1911.3,1429.4v7.6h5.3c2.9,0,4.5-1.4,4.5-3.8c0-2.4-1.6-3.8-4.5-3.8H1911.3z
				 M1911.3,1439.6v8h5.4c3.5,0,5.3-1.5,5.3-3.9c0-2.7-1.9-4.1-5.3-4.1H1911.3z"/>
			<path class="st3" d="M1925.5,1450.3l8.5-23.6h3.3l8.5,23.6h-3l-2.4-6.4h-9.7l-2.4,6.4H1925.5z M1931.6,1441.3h8.1l-4.1-11.3
				L1931.6,1441.3z"/>
			<path class="st3" d="M1948.2,1450.3v-23.6h2.8v20.9h9.4v-20.9h2.8v20.9h9.4v-20.9h2.8v23.6H1948.2z"/>
			<path class="st3" d="M1979.5,1426.7h14.2v2.7h-11.5v7.5h9.6v2.7h-9.6v7.9h11.9v2.7h-14.7V1426.7z"/>
			<path class="st3" d="M1997,1450.3v-23.6h2.8v18.7l12-18.7h2.6v23.6h-2.8v-18.7l-12,18.7H1997z M2001,1420.1h2.2
				c0,1.6,0.7,2.7,2.5,2.7c1.8,0,2.6-1,2.6-2.7h2.2c-0.1,2.8-1.7,4.6-4.8,4.6C2002.6,1424.8,2001.1,1423,2001,1420.1z"/>
			<path class="st3" d="M2026.7,1450.3v-23.6h13.8v2.7h-11v6.9h6c4.3,0,7.2,2.3,7.2,6.9c0,4.4-2.9,7-7.2,7H2026.7z M2029.4,1447.6
				h5.8c2.8,0,4.6-1.7,4.6-4.3c0-2.6-1.8-4.3-4.6-4.3h-5.7V1447.6z"/>
			<path class="st3" d="M2045.5,1426.7h14.2v2.7h-11.5v7.5h9.6v2.7h-9.6v7.9h11.9v2.7h-14.7V1426.7z"/>
			<path class="st3" d="M2061.5,1443.2h2.8c0.2,3.1,2.3,4.6,5.6,4.6c3.4,0,5.3-1.5,5.3-4.2c0-2.7-1.8-4-5.3-4h-2.2v-2.5h2.1
				c3.4,0,4.9-1.4,4.9-4c0-2.5-1.9-3.8-4.8-3.8c-3.1,0-5.1,1.6-5.3,4.3h-2.8c0.2-4.1,3.4-7,8.1-7c4.8,0,7.7,2.5,7.7,6.2
				c0,3.1-1.5,4.7-3.6,5.4c2.1,0.5,4.2,2.1,4.2,5.7c0,4-3.3,6.7-8.3,6.7C2064.6,1450.5,2061.6,1447.9,2061.5,1443.2z"/>
			<path class="st3" d="M2091.1,1450.5c-6.3,0-10.7-5.1-10.7-12c0-6.9,4.4-12,10.7-12c6.3,0,10.7,5.1,10.7,12
				C2101.8,1445.5,2097.4,1450.5,2091.1,1450.5z M2091.1,1447.8c4.7,0,7.8-3.9,7.8-9.3s-3.2-9.3-7.8-9.3s-7.8,3.9-7.8,9.3
				S2086.5,1447.8,2091.1,1447.8z"/>
			<path class="st3" d="M2105.1,1450.3v-23.6h17v23.6h-2.8v-20.9h-11.4v20.9H2105.1z"/>
			<path class="st3" d="M2124.3,1450.3l8.5-23.6h3.3l8.5,23.6h-3l-2.4-6.4h-9.7l-2.4,6.4H2124.3z M2130.4,1441.3h8.1l-4.1-11.3
				L2130.4,1441.3z"/>
			<path class="st3" d="M2145.2,1438.5c0-7.1,4.2-12,10.7-12c5,0,8.6,3,9.4,7.9h-2.9c-0.9-3.3-3.2-5.2-6.6-5.2
				c-4.7,0-7.7,3.8-7.7,9.3c0,5.4,2.9,9.3,7.6,9.3c3.5,0,5.8-1.9,6.7-5.2h2.9c-0.8,4.9-4.5,7.9-9.6,7.9
				C2149.2,1450.5,2145.2,1445.7,2145.2,1438.5z"/>
			<path class="st3" d="M2168.3,1426.7h2.8v10.2h11.6v-10.2h2.8v23.6h-2.8v-10.6h-11.6v10.6h-2.8V1426.7z"/>
			<path class="st3" d="M2199.4,1450.5c-6.3,0-10.7-5.1-10.7-12c0-6.9,4.4-12,10.7-12c6.3,0,10.7,5.1,10.7,12
				C2210.1,1445.5,2205.7,1450.5,2199.4,1450.5z M2199.4,1447.8c4.7,0,7.8-3.9,7.8-9.3s-3.2-9.3-7.8-9.3s-7.8,3.9-7.8,9.3
				S2194.8,1447.8,2199.4,1447.8z"/>
			<path class="st3" d="M2212.6,1438.5c0-7.1,4.2-12,10.7-12c5,0,8.6,3,9.4,7.9h-2.9c-0.9-3.3-3.2-5.2-6.6-5.2
				c-4.7,0-7.7,3.8-7.7,9.3c0,5.4,2.9,9.3,7.6,9.3c3.5,0,5.8-1.9,6.7-5.2h2.9c-0.8,4.9-4.5,7.9-9.6,7.9
				C2216.6,1450.5,2212.6,1445.7,2212.6,1438.5z"/>
			<path class="st3" d="M2233.1,1426.7h17.3v2.7h-7.3v20.9h-2.8v-20.9h-7.3V1426.7z"/>
			<path class="st3" d="M2252.9,1450.3v-23.6h2.8v18.7l12-18.7h2.6v23.6h-2.8v-18.7l-12,18.7H2252.9z"/>
		</g>
	</g>
</g>
<g>
	<path class="st3" d="M1746.9,1659v-26.5c0-7-3.5-13.5-9-17l-21.1-13.3c-3.7-2.3-8.3-2.3-12.1,0l-21.1,13.3c-5.6,3.5-9,10-9,17v26.5
		c0,4.7,2.3,9,6,11.3l21.1,13.3c5.6,3.5,12.5,3.5,18.1,0l21.1-13.3C1744.6,1668,1746.9,1663.7,1746.9,1659z M1740.3,1667.5h-59.1
		l-4-7.6l29.6-55.7h8l29.6,55.8L1740.3,1667.5z"/>
	<g>
		<g>
			<path class="st3" d="M1800,1638h4.1v12.7h-5.4v-7.4h-23.9v7.4h-5.4V1638h3.1c2.2-2,3.4-5.3,3.4-15.5V1607h24V1638z M1794.5,1638
				v-25.9h-13.4v11.2c0,7.8-0.8,11.9-2.5,14.7H1794.5z"/>
			<path class="st3" d="M1821.8,1643.6c-9.6,0-16.2-7.8-16.2-18.5c0-10.6,6.6-18.5,16.2-18.5c9.6,0,16.2,7.8,16.2,18.5
				C1838,1635.8,1831.4,1643.6,1821.8,1643.6z M1821.8,1638.4c6.3,0,10.6-5.5,10.6-13.2c0-7.7-4.2-13.2-10.6-13.2
				c-6.3,0-10.6,5.5-10.6,13.2C1811.2,1632.9,1815.5,1638.4,1821.8,1638.4z"/>
			<path class="st3" d="M1842.8,1607h7.1l10.7,28.6l10.5-28.6h6.9v36.3h-5.3v-26.7l-10,26.7h-4.6l-10-26.7v26.7h-5.3V1607z"/>
			<path class="st3" d="M1899,1643.6c-9.6,0-16.2-7.8-16.2-18.5c0-10.6,6.6-18.5,16.2-18.5c9.6,0,16.2,7.8,16.2,18.5
				C1915.1,1635.8,1908.5,1643.6,1899,1643.6z M1899,1638.4c6.3,0,10.6-5.5,10.6-13.2c0-7.7-4.2-13.2-10.6-13.2
				c-6.3,0-10.6,5.5-10.6,13.2C1888.4,1632.9,1892.6,1638.4,1899,1638.4z"/>
			<path class="st3" d="M1940.6,1641v4.4h-5.2v-4.4c-10.2-0.5-16.7-6.3-16.7-15.8c0-9.5,6.4-15.3,16.7-15.8v-4.4h5.2v4.4
				c10.2,0.6,16.6,6.4,16.6,15.9C1957.2,1634.6,1950.8,1640.4,1940.6,1641z M1935.3,1636.1v-21.8c-7.4,0.5-11.2,4.4-11.2,10.9
				C1924.1,1631.6,1927.9,1635.6,1935.3,1636.1z M1940.6,1636.1c7.4-0.5,11.2-4.5,11.2-10.9c0-6.4-3.8-10.4-11.2-10.8V1636.1z"/>
			<path class="st3" d="M1976.9,1643.6c-9.6,0-16.2-7.8-16.2-18.5c0-10.6,6.6-18.5,16.2-18.5s16.2,7.8,16.2,18.5
				C1993.1,1635.8,1986.5,1643.6,1976.9,1643.6z M1976.9,1638.4c6.3,0,10.6-5.5,10.6-13.2c0-7.7-4.2-13.2-10.6-13.2
				c-6.3,0-10.6,5.5-10.6,13.2C1966.4,1632.9,1970.6,1638.4,1976.9,1638.4z"/>
			<path class="st3" d="M1997.9,1607h5.5v15.2h15.5V1607h5.5v36.3h-5.5v-15.8h-15.5v15.8h-5.5V1607z"/>
			<path class="st3" d="M2041.6,1625.2c0-11,6.2-18.5,15.9-18.5c7.4,0,12.8,4.7,14,12.2h-4.4c-1.3-5-4.8-8-9.8-8
				c-7,0-11.5,5.9-11.5,14.3c0,8.3,4.3,14.3,11.3,14.3c5.1,0,8.7-3,9.9-8h4.4c-1.2,7.5-6.8,12.2-14.3,12.2
				C2047.6,1643.6,2041.6,1636.3,2041.6,1625.2z"/>
			<path class="st3" d="M2076.4,1643.3V1607h25.3v36.3h-4.1v-32.1h-17v32.1H2076.4z"/>
			<path class="st3" d="M2130.7,1631c0,7.3-4.7,12.7-11.9,12.7c-7.3,0-11.9-4.8-11.9-14.8c0-14.2,3.1-19.5,13.6-20.9l8.2-1.1v4
				l-7.4,1c-7.6,1.1-9.8,3.3-10.6,11.1c1.7-2.5,4.8-4.2,8.9-4.2C2126,1618.6,2130.7,1623.5,2130.7,1631z M2126.7,1631.1
				c0-5.1-3.2-8.8-7.8-8.8c-4.8,0-8,3.7-8,8.2c0,5.9,3.3,9.3,7.9,9.3C2123.4,1640,2126.7,1636.3,2126.7,1631.1z"/>
		</g>
	</g>
	<g>
		<g>
			<path class="st3" d="M1769.4,1680.7h2.2c0.1,2.4,1.8,3.6,4.3,3.6c2.6,0,4.1-1.2,4.1-3.3c0-2.2-1.4-3.2-4-3.2h-1.7v-1.9h1.6
				c2.6,0,3.7-1.1,3.7-3.2c0-2-1.5-3-3.7-3c-2.4,0-3.9,1.3-4,3.4h-2.2c0.1-3.3,2.6-5.5,6.2-5.5c3.7,0,5.9,2,5.9,4.9
				c0,2.4-1.1,3.7-2.8,4.2c1.6,0.4,3.2,1.6,3.2,4.5c0,3.2-2.5,5.3-6.4,5.3C1771.7,1686.4,1769.5,1684.4,1769.4,1680.7z"/>
			<path class="st3" d="M1782.6,1686.2l6.5-18.6h2.5l6.5,18.6h-2.3l-1.8-5h-7.4l-1.8,5H1782.6z M1787.2,1679.1h6.2l-3.1-9
				L1787.2,1679.1z"/>
			<path class="st3" d="M1798.7,1686.2v-2.1h0.4c1.9,0,2.7-1.3,2.7-7.3v-9.1h11.9v18.6h-2.1v-16.5h-7.7v7.2c0,7.1-1.4,9.3-4.5,9.3
				H1798.7z"/>
			<path class="st3" d="M1824.4,1686.4c-4.8,0-8.1-4-8.1-9.5s3.3-9.5,8.1-9.5c4.8,0,8.1,4,8.1,9.5S1829.2,1686.4,1824.4,1686.4z
				 M1824.4,1684.3c3.6,0,6-3.1,6-7.3s-2.4-7.3-6-7.3c-3.6,0-6,3.1-6,7.3S1820.8,1684.3,1824.4,1684.3z"/>
			<path class="st3" d="M1835,1686.2v-18.6h10v2.1h-7.9v16.5H1835z"/>
			<path class="st3" d="M1853.2,1667.7h6c3.6,0,5.7,1.9,5.7,4.9c0,2.1-1.1,3.4-2.7,4c1.8,0.4,3.4,1.6,3.4,4.3c0,3.3-2.1,5.3-6.2,5.3
				h-6.2V1667.7z M1855.3,1669.8v6h4c2.2,0,3.4-1.1,3.4-3c0-1.9-1.2-3-3.4-3H1855.3z M1855.3,1677.8v6.3h4.1c2.6,0,4-1.2,4-3.1
				c0-2.1-1.5-3.2-4-3.2H1855.3z"/>
			<path class="st3" d="M1866.2,1686.2l6.5-18.6h2.5l6.5,18.6h-2.3l-1.8-5h-7.4l-1.8,5H1866.2z M1870.8,1679.1h6.2l-3.1-9
				L1870.8,1679.1z"/>
			<path class="st3" d="M1883.5,1686.2v-18.6h2.1v16.5h7.2v-16.5h2.1v16.5h7.2v-16.5h2.1v18.6H1883.5z"/>
			<path class="st3" d="M1907.4,1667.7h10.9v2.1h-8.8v6h7.3v2.1h-7.3v6.3h9.1v2.1h-11.2V1667.7z"/>
			<path class="st3" d="M1920.8,1686.2v-18.6h2.1v14.7l9.1-14.7h2v18.6h-2.1v-14.7l-9.1,14.7H1920.8z M1923.8,1662.4h1.7
				c0,1.3,0.5,2.1,1.9,2.1c1.4,0,2-0.8,2-2.1h1.7c0,2.2-1.3,3.6-3.7,3.6C1925,1666.1,1923.9,1664.7,1923.8,1662.4z"/>
			<path class="st3" d="M1943.4,1686.2v-18.6h10.5v2.1h-8.4v5.5h4.6c3.3,0,5.5,1.8,5.5,5.5c0,3.5-2.2,5.5-5.5,5.5H1943.4z
				 M1945.5,1684.1h4.4c2.1,0,3.5-1.3,3.5-3.4c0-2.1-1.4-3.4-3.5-3.4h-4.4V1684.1z"/>
			<path class="st3" d="M1957.8,1667.7h10.9v2.1h-8.8v6h7.3v2.1h-7.3v6.3h9.1v2.1h-11.2V1667.7z"/>
			<path class="st3" d="M1970,1680.7h2.2c0.1,2.4,1.8,3.6,4.3,3.6c2.6,0,4.1-1.2,4.1-3.3c0-2.2-1.4-3.2-4-3.2h-1.7v-1.9h1.6
				c2.6,0,3.7-1.1,3.7-3.2c0-2-1.5-3-3.7-3c-2.4,0-3.9,1.3-4,3.4h-2.2c0.1-3.3,2.6-5.5,6.2-5.5c3.7,0,5.9,2,5.9,4.9
				c0,2.4-1.1,3.7-2.8,4.2c1.6,0.4,3.2,1.6,3.2,4.5c0,3.2-2.5,5.3-6.4,5.3C1972.3,1686.4,1970.1,1684.4,1970,1680.7z"/>
			<path class="st3" d="M1992.6,1686.4c-4.8,0-8.1-4-8.1-9.5s3.3-9.5,8.1-9.5c4.8,0,8.1,4,8.1,9.5S1997.4,1686.4,1992.6,1686.4z
				 M1992.6,1684.3c3.6,0,6-3.1,6-7.3s-2.4-7.3-6-7.3c-3.6,0-6,3.1-6,7.3S1989,1684.3,1992.6,1684.3z"/>
			<path class="st3" d="M2003.3,1686.2v-18.6h13v18.6h-2.1v-16.5h-8.7v16.5H2003.3z"/>
			<path class="st3" d="M2018,1686.2l6.5-18.6h2.5l6.5,18.6h-2.3l-1.8-5h-7.4l-1.8,5H2018z M2022.6,1679.1h6.2l-3.1-9L2022.6,1679.1
				z"/>
			<path class="st3" d="M2033.9,1677c0-5.6,3.2-9.5,8.1-9.5c3.8,0,6.5,2.4,7.2,6.2h-2.2c-0.7-2.6-2.5-4.1-5-4.1
				c-3.6,0-5.9,3-5.9,7.3c0,4.3,2.2,7.3,5.8,7.3c2.6,0,4.5-1.5,5.1-4.1h2.2c-0.6,3.9-3.5,6.2-7.3,6.2
				C2036.9,1686.4,2033.9,1682.6,2033.9,1677z"/>
			<path class="st3" d="M2051.5,1667.7h2.1v8.1h8.8v-8.1h2.1v18.6h-2.1v-8.4h-8.8v8.4h-2.1V1667.7z"/>
			<path class="st3" d="M2075.3,1686.4c-4.8,0-8.1-4-8.1-9.5s3.3-9.5,8.1-9.5c4.8,0,8.1,4,8.1,9.5S2080.1,1686.4,2075.3,1686.4z
				 M2075.3,1684.3c3.6,0,6-3.1,6-7.3s-2.4-7.3-6-7.3s-6,3.1-6,7.3S2071.7,1684.3,2075.3,1684.3z"/>
			<path class="st3" d="M2085.3,1677c0-5.6,3.2-9.5,8.1-9.5c3.8,0,6.5,2.4,7.2,6.2h-2.2c-0.7-2.6-2.5-4.1-5-4.1
				c-3.6,0-5.9,3-5.9,7.3c0,4.3,2.2,7.3,5.8,7.3c2.6,0,4.5-1.5,5.1-4.1h2.2c-0.6,3.9-3.5,6.2-7.3,6.2
				C2088.4,1686.4,2085.3,1682.6,2085.3,1677z"/>
			<path class="st3" d="M2101,1667.7h13.2v2.1h-5.5v16.5h-2.1v-16.5h-5.5V1667.7z"/>
			<path class="st3" d="M2116.1,1686.2v-18.6h2.1v14.7l9.1-14.7h2v18.6h-2.1v-14.7l-9.1,14.7H2116.1z"/>
		</g>
	</g>
</g>
<g>
	<path class="st3" d="M1728.9,1880.3v-20.4c0-5.4-2.7-10.4-6.9-13.1l-16.2-10.2c-2.8-1.8-6.4-1.8-9.3,0l-16.2,10.2
		c-4.3,2.7-6.9,7.6-6.9,13.1v20.4c0,3.6,1.8,6.9,4.6,8.7l16.2,10.2c4.3,2.7,9.6,2.7,13.9,0l16.2-10.2
		C1727.2,1887.1,1728.9,1883.8,1728.9,1880.3z M1723.9,1886.8h-45.4l-3.1-5.8l22.7-42.7h6.2l22.7,42.8L1723.9,1886.8z"/>
	<g>
		<g>
			<path class="st3" d="M1769.6,1864.2h3.2v9.7h-4.1v-5.7h-18.4v5.7h-4.1v-9.7h2.4c1.7-1.5,2.6-4.1,2.6-11.9v-11.9h18.4V1864.2z
				 M1765.4,1864.2v-19.9h-10.3v8.6c0,6-0.6,9.1-1.9,11.3H1765.4z"/>
			<path class="st3" d="M1786.4,1868.5c-7.3,0-12.4-6-12.4-14.2c0-8.2,5.1-14.2,12.4-14.2c7.3,0,12.4,6,12.4,14.2
				C1798.8,1862.4,1793.7,1868.5,1786.4,1868.5z M1786.4,1864.4c4.9,0,8.1-4.3,8.1-10.1c0-5.9-3.3-10.1-8.1-10.1
				c-4.9,0-8.1,4.3-8.1,10.1C1778.3,1860.2,1781.5,1864.4,1786.4,1864.4z"/>
			<path class="st3" d="M1802.5,1840.4h5.4l8.2,21.9l8-21.9h5.3v27.9h-4.1v-20.5l-7.7,20.5h-3.5l-7.7-20.5v20.5h-4.1V1840.4z"/>
			<path class="st3" d="M1845.6,1868.5c-7.3,0-12.4-6-12.4-14.2c0-8.2,5.1-14.2,12.4-14.2c7.3,0,12.4,6,12.4,14.2
				C1858,1862.4,1852.9,1868.5,1845.6,1868.5z M1845.6,1864.4c4.9,0,8.1-4.3,8.1-10.1c0-5.9-3.3-10.1-8.1-10.1
				c-4.9,0-8.1,4.3-8.1,10.1C1837.5,1860.2,1840.7,1864.4,1845.6,1864.4z"/>
			<path class="st3" d="M1877.5,1866.4v3.4h-4v-3.4c-7.9-0.4-12.8-4.9-12.8-12.1c0-7.3,4.9-11.7,12.8-12.1v-3.4h4v3.3
				c7.9,0.4,12.7,4.9,12.7,12.2C1890.3,1861.5,1885.4,1866,1877.5,1866.4z M1873.5,1862.6v-16.7c-5.7,0.4-8.6,3.4-8.6,8.4
				C1864.9,1859.2,1867.8,1862.2,1873.5,1862.6z M1877.5,1862.6c5.7-0.4,8.6-3.4,8.6-8.4c0-4.9-2.9-8-8.6-8.3V1862.6z"/>
			<path class="st3" d="M1905.4,1868.5c-7.3,0-12.4-6-12.4-14.2c0-8.2,5.1-14.2,12.4-14.2c7.3,0,12.4,6,12.4,14.2
				C1917.9,1862.4,1912.8,1868.5,1905.4,1868.5z M1905.4,1864.4c4.9,0,8.1-4.3,8.1-10.1c0-5.9-3.3-10.1-8.1-10.1
				c-4.9,0-8.1,4.3-8.1,10.1C1897.3,1860.2,1900.6,1864.4,1905.4,1864.4z"/>
			<path class="st3" d="M1921.5,1840.4h4.2v11.7h11.9v-11.7h4.2v27.9h-4.2v-12.1h-11.9v12.1h-4.2V1840.4z"/>
			<path class="st3" d="M1955,1854.3c0-8.4,4.8-14.2,12.2-14.2c5.7,0,9.8,3.6,10.7,9.4h-3.4c-1-3.9-3.7-6.2-7.5-6.2
				c-5.4,0-8.8,4.5-8.8,11c0,6.4,3.3,11,8.7,11c3.9,0,6.7-2.3,7.6-6.2h3.4c-0.9,5.8-5.2,9.4-11,9.4
				C1959.6,1868.5,1955,1862.8,1955,1854.3z"/>
			<path class="st3" d="M1981.8,1868.2v-27.9h19.4v27.9h-3.2v-24.7h-13v24.7H1981.8z"/>
			<path class="st3" d="M2023.4,1858.7c0,5.6-3.6,9.7-9.1,9.7c-5.6,0-9.1-3.7-9.1-11.4c0-10.9,2.4-15,10.4-16.1l6.3-0.9v3.1
				l-5.7,0.8c-5.8,0.8-7.5,2.5-8.1,8.5c1.3-1.9,3.7-3.2,6.8-3.2C2019.8,1849.3,2023.4,1853,2023.4,1858.7z M2020.4,1858.9
				c0-3.9-2.5-6.7-6-6.7c-3.7,0-6.1,2.8-6.1,6.3c0,4.5,2.6,7.2,6.1,7.2C2017.9,1865.6,2020.4,1862.8,2020.4,1858.9z"/>
		</g>
	</g>
	<g>
		<g>
			<path class="st3" d="M1746.1,1896.9h1.7c0.1,1.9,1.4,2.8,3.3,2.8c2,0,3.1-0.9,3.1-2.6c0-1.7-1.1-2.4-3.1-2.4h-1.3v-1.5h1.2
				c2,0,2.8-0.9,2.8-2.4c0-1.5-1.1-2.3-2.8-2.3c-1.8,0-3,1-3.1,2.6h-1.7c0.1-2.5,2-4.2,4.7-4.2c2.8,0,4.5,1.5,4.5,3.8
				c0,1.9-0.9,2.9-2.1,3.2c1.2,0.3,2.5,1.2,2.5,3.4c0,2.4-1.9,4.1-4.9,4.1C1747.9,1901.3,1746.2,1899.7,1746.1,1896.9z"/>
			<path class="st3" d="M1756.3,1901.2l5-14.3h1.9l5,14.3h-1.7l-1.4-3.9h-5.7l-1.4,3.9H1756.3z M1759.9,1895.7h4.7l-2.4-6.9
				L1759.9,1895.7z"/>
			<path class="st3" d="M1768.7,1901.2v-1.6h0.3c1.4,0,2.1-1,2.1-5.6v-7h9.1v14.3h-1.6v-12.6h-5.9v5.5c0,5.5-1.1,7.1-3.5,7.1H1768.7
				z"/>
			<path class="st3" d="M1788.3,1901.3c-3.7,0-6.3-3.1-6.3-7.3c0-4.2,2.6-7.3,6.3-7.3c3.7,0,6.3,3.1,6.3,7.3
				C1794.6,1898.2,1792,1901.3,1788.3,1901.3z M1788.3,1899.6c2.7,0,4.6-2.3,4.6-5.6c0-3.3-1.9-5.6-4.6-5.6c-2.7,0-4.6,2.3-4.6,5.6
				C1783.8,1897.3,1785.6,1899.6,1788.3,1899.6z"/>
			<path class="st3" d="M1796.5,1901.2v-14.3h7.7v1.6h-6v12.6H1796.5z"/>
			<path class="st3" d="M1810.5,1886.9h4.6c2.8,0,4.3,1.5,4.3,3.8c0,1.6-0.8,2.6-2.1,3.1c1.4,0.3,2.6,1.3,2.6,3.3
				c0,2.5-1.6,4.1-4.8,4.1h-4.8V1886.9z M1812.1,1888.5v4.6h3.1c1.7,0,2.6-0.9,2.6-2.3c0-1.4-0.9-2.3-2.6-2.3H1812.1z
				 M1812.1,1894.7v4.9h3.1c2,0,3.1-0.9,3.1-2.4c0-1.6-1.1-2.5-3.1-2.5H1812.1z"/>
			<path class="st3" d="M1820.5,1901.2l5-14.3h1.9l5,14.3h-1.7l-1.4-3.9h-5.7l-1.4,3.9H1820.5z M1824,1895.7h4.7l-2.4-6.9
				L1824,1895.7z"/>
			<path class="st3" d="M1833.7,1901.2v-14.3h1.6v12.6h5.5v-12.6h1.6v12.6h5.5v-12.6h1.6v14.3H1833.7z"/>
			<path class="st3" d="M1852,1886.9h8.3v1.6h-6.7v4.6h5.6v1.6h-5.6v4.8h7v1.6h-8.6V1886.9z"/>
			<path class="st3" d="M1862.3,1901.2v-14.3h1.6v11.3l7-11.3h1.5v14.3h-1.6v-11.3l-7,11.3H1862.3z M1864.7,1882.9h1.3
				c0,1,0.4,1.6,1.5,1.6c1.1,0,1.5-0.6,1.5-1.6h1.3c0,1.7-1,2.8-2.8,2.8C1865.6,1885.7,1864.7,1884.6,1864.7,1882.9z"/>
			<path class="st3" d="M1879.7,1901.2v-14.3h8.1v1.6h-6.4v4.2h3.5c2.5,0,4.2,1.4,4.2,4.2c0,2.7-1.7,4.2-4.2,4.2H1879.7z
				 M1881.3,1899.5h3.4c1.6,0,2.7-1,2.7-2.6c0-1.6-1-2.6-2.7-2.6h-3.4V1899.5z"/>
			<path class="st3" d="M1890.8,1886.9h8.3v1.6h-6.7v4.6h5.6v1.6h-5.6v4.8h7v1.6h-8.6V1886.9z"/>
			<path class="st3" d="M1900.1,1896.9h1.7c0.1,1.9,1.4,2.8,3.3,2.8c2,0,3.1-0.9,3.1-2.6c0-1.7-1.1-2.4-3.1-2.4h-1.3v-1.5h1.2
				c2,0,2.8-0.9,2.8-2.4c0-1.5-1.1-2.3-2.8-2.3c-1.8,0-3,1-3.1,2.6h-1.7c0.1-2.5,2-4.2,4.7-4.2c2.8,0,4.5,1.5,4.5,3.8
				c0,1.9-0.9,2.9-2.1,3.2c1.2,0.3,2.5,1.2,2.5,3.4c0,2.4-1.9,4.1-4.9,4.1C1901.9,1901.3,1900.2,1899.7,1900.1,1896.9z"/>
			<path class="st3" d="M1917.5,1901.3c-3.7,0-6.3-3.1-6.3-7.3c0-4.2,2.6-7.3,6.3-7.3c3.7,0,6.3,3.1,6.3,7.3
				C1923.7,1898.2,1921.2,1901.3,1917.5,1901.3z M1917.5,1899.6c2.7,0,4.6-2.3,4.6-5.6c0-3.3-1.9-5.6-4.6-5.6
				c-2.7,0-4.6,2.3-4.6,5.6C1912.9,1897.3,1914.7,1899.6,1917.5,1899.6z"/>
			<path class="st3" d="M1925.6,1901.2v-14.3h9.9v14.3h-1.6v-12.6h-6.7v12.6H1925.6z"/>
			<path class="st3" d="M1936.9,1901.2l5-14.3h1.9l5,14.3h-1.7l-1.4-3.9h-5.7l-1.4,3.9H1936.9z M1940.5,1895.7h4.7l-2.4-6.9
				L1940.5,1895.7z"/>
			<path class="st3" d="M1949.1,1894c0-4.3,2.5-7.3,6.3-7.3c2.9,0,5,1.8,5.5,4.8h-1.7c-0.5-2-1.9-3.2-3.9-3.2
				c-2.8,0-4.5,2.3-4.5,5.6c0,3.3,1.7,5.6,4.4,5.6c2,0,3.4-1.2,3.9-3.2h1.7c-0.5,3-2.7,4.8-5.6,4.8
				C1951.5,1901.3,1949.1,1898.4,1949.1,1894z"/>
			<path class="st3" d="M1962.7,1886.9h1.6v6.2h6.8v-6.2h1.6v14.3h-1.6v-6.4h-6.8v6.4h-1.6V1886.9z"/>
			<path class="st3" d="M1980.9,1901.3c-3.7,0-6.3-3.1-6.3-7.3c0-4.2,2.6-7.3,6.3-7.3c3.7,0,6.3,3.1,6.3,7.3
				C1987.2,1898.2,1984.6,1901.3,1980.9,1901.3z M1980.9,1899.6c2.7,0,4.6-2.3,4.6-5.6c0-3.3-1.9-5.6-4.6-5.6
				c-2.7,0-4.6,2.3-4.6,5.6C1976.3,1897.3,1978.2,1899.6,1980.9,1899.6z"/>
			<path class="st3" d="M1988.6,1894c0-4.3,2.5-7.3,6.3-7.3c2.9,0,5,1.8,5.5,4.8h-1.7c-0.5-2-1.9-3.2-3.9-3.2
				c-2.8,0-4.5,2.3-4.5,5.6c0,3.3,1.7,5.6,4.4,5.6c2,0,3.4-1.2,3.9-3.2h1.7c-0.5,3-2.7,4.8-5.6,4.8
				C1991,1901.3,1988.6,1898.4,1988.6,1894z"/>
			<path class="st3" d="M2000.6,1886.9h10.1v1.6h-4.2v12.6h-1.6v-12.6h-4.2V1886.9z"/>
			<path class="st3" d="M2012.3,1901.2v-14.3h1.6v11.3l7-11.3h1.5v14.3h-1.6v-11.3l-7,11.3H2012.3z"/>
		</g>
	</g>
</g>
<g>
	<rect x="323" y="467.8" class="st1" width="56.9" height="56.9"/>
	<line class="st1" x1="323" y1="210.6" x2="323" y2="524.6"/>
	<line class="st1" x1="379.8" y1="210.6" x2="379.8" y2="524.6"/>
</g>
<g>
	<rect x="1858.7" y="467.8" class="st1" width="56.9" height="56.9"/>
	<line class="st1" x1="1858.7" y1="210.6" x2="1858.7" y2="524.6"/>
	<line class="st1" x1="1915.6" y1="210.6" x2="1915.6" y2="524.6"/>
</g>
<g class="st4">
	<g>
		<path class="st3" d="M160.1,92.1h6.9c4.1,0,6.4,2,6.4,5.2c0,2.5-1.4,4-3.7,4.6c2.7,0.4,4.6,1.9,4.6,4.8c0,3.5-2.4,5.7-7.2,5.7h-7
			V92.1z M161.7,93.5v7.8h5.4c3,0,4.7-1.5,4.7-3.9c0-2.4-1.7-3.9-4.7-3.9H161.7z M161.7,102.8v8.2h5.5c3.7,0,5.5-1.6,5.5-4.1
			c0-2.7-2-4.1-5.5-4.1H161.7z"/>
		<path class="st3" d="M177.7,92.1h12.5v1.5h-10.9v7.7h9.2v1.5h-9.2v8.2h11.3v1.5h-12.9V92.1z"/>
		<path class="st3" d="M209.3,111h2.5v5.6h-1.6v-4.1h-16.7v4.1H192V111h1.8c1.4-1.3,2.2-3.4,2.2-9.6v-9.2h13.2V111z M207.7,111V93.5
			h-10.2v8.1c0,5.4-0.6,7.8-1.9,9.5H207.7z"/>
		<path class="st3" d="M214.5,112.4V111h1.8c1.6,0,2.3-0.3,3.2-2.2l0.8-1.7l-7.9-14.9h1.8l6.9,13.3l6.1-13.3h1.7l-7.9,17.1
			c-1.2,2.6-2.3,3.2-4.2,3.2H214.5z"/>
		<path class="st3" d="M255.3,111h2.5v5.6h-1.6v-4.1h-25V92.1h1.6V111h9.7V92.1h1.6V111h9.7V92.1h1.6V111z"/>
		<path class="st3" d="M259.3,112.4l7.9-20.3h1.8l7.8,20.3h-1.7l-2.4-6.2h-9.3l-2.4,6.2H259.3z M263.8,104.8h8.4l-4.2-10.9
			L263.8,104.8z"/>
		<path class="st3" d="M292.9,92.1v20.3h-1.6V104h-5.6l-5.3,8.4h-1.8l5.4-8.6c-3.4-0.4-5.3-2.7-5.3-5.8c0-3.5,2.6-5.9,6.5-5.9H292.9
			z M291.3,102.6v-9h-6c-3,0-5,1.8-5,4.5c0,2.7,1.9,4.5,5,4.5H291.3z"/>
		<path class="st3" d="M304.9,92.1h6.9c4.1,0,6.4,2,6.4,5.2c0,2.5-1.4,4-3.7,4.6c2.7,0.4,4.6,1.9,4.6,4.8c0,3.5-2.4,5.7-7.2,5.7h-7
			V92.1z M306.5,93.5v7.8h5.4c3,0,4.7-1.5,4.7-3.9c0-2.4-1.7-3.9-4.7-3.9H306.5z M306.5,102.8v8.2h5.5c3.7,0,5.5-1.6,5.5-4.1
			c0-2.7-2-4.1-5.5-4.1H306.5z"/>
		<path class="st3" d="M322.5,92.1H335v1.5h-10.9v7.7h9.2v1.5h-9.2v8.2h11.3v1.5h-12.9V92.1z"/>
		<path class="st3" d="M338.3,92.1h7.5c3.9,0,6.4,2.4,6.4,5.9c0,3.5-2.5,5.9-6.4,5.9h-6v8.5h-1.6V92.1z M339.9,93.6v8.9h5.8
			c3,0,4.9-1.8,4.9-4.5c0-2.7-1.9-4.5-4.9-4.5H339.9z"/>
		<path class="st3" d="M354.3,102.3c0-6.1,3.7-10.3,9.4-10.3c4.3,0,7.3,2.3,8.2,6.4h-1.7c-0.9-3.2-3.3-5-6.7-5
			c-4.7,0-7.7,3.7-7.7,8.9s3,8.9,7.7,8.9c3.5,0,5.8-1.7,6.7-5h1.7c-0.9,4.1-3.9,6.4-8.3,6.4C357.9,112.6,354.3,108.4,354.3,102.3z"
			/>
		<path class="st3" d="M375.3,112.4V92.1h1.6v17.7l12.1-17.7h1.5v20.3h-1.6V94.7l-12.1,17.7H375.3z"/>
		<path class="st3" d="M408.1,92.1v20.3h-1.6V104h-5.6l-5.3,8.4h-1.8l5.4-8.6c-3.4-0.4-5.3-2.7-5.3-5.8c0-3.5,2.6-5.9,6.5-5.9H408.1
			z M406.5,102.6v-9h-6c-3,0-5,1.8-5,4.5c0,2.7,1.9,4.5,5,4.5H406.5z"/>
	</g>
</g>
<g class="st4">
	<g>
		<path class="st3" d="M1696.1,92.1h6.9c4.1,0,6.4,2,6.4,5.2c0,2.5-1.4,4-3.7,4.6c2.7,0.4,4.6,1.9,4.6,4.8c0,3.5-2.4,5.7-7.2,5.7h-7
			V92.1z M1697.7,93.5v7.8h5.4c3,0,4.7-1.5,4.7-3.9c0-2.4-1.7-3.9-4.7-3.9H1697.7z M1697.7,102.8v8.2h5.5c3.7,0,5.5-1.6,5.5-4.1
			c0-2.7-2-4.1-5.5-4.1H1697.7z"/>
		<path class="st3" d="M1710.6,92.1h15.5v1.5h-7v18.9h-1.6V93.6h-7V92.1z"/>
		<path class="st3" d="M1735.8,112.6c-5.6,0-9.5-4.3-9.5-10.3c0-6,3.9-10.3,9.5-10.3c5.6,0,9.5,4.3,9.5,10.3
			C1745.3,108.3,1741.4,112.6,1735.8,112.6z M1735.8,111.2c4.7,0,7.9-3.7,7.9-8.9s-3.2-8.9-7.9-8.9c-4.6,0-7.9,3.7-7.9,8.9
			S1731.2,111.2,1735.8,111.2z"/>
		<path class="st3" d="M1748.8,92.1h7.5c3.9,0,6.4,2.4,6.4,5.9s-2.5,5.9-6.4,5.9h-6v8.5h-1.6V92.1z M1750.4,93.6v8.9h5.8
			c3,0,4.9-1.8,4.9-4.5c0-2.7-1.9-4.5-4.9-4.5H1750.4z"/>
		<path class="st3" d="M1765.5,112.4V92.1h1.6v17.7l12.1-17.7h1.5v20.3h-1.6V94.7l-12.1,17.7H1765.5z"/>
		<path class="st3" d="M1796.7,92.1h1.6v20.3h-1.6v-9.3c-1.6,1-3.6,1.7-6,1.7c-4.1,0-6.7-2-6.7-6.2v-6.4h1.6v6.1
			c0,3.5,2,5.1,5.3,5.1c2.4,0,4.3-0.7,5.9-1.8V92.1z"/>
		<path class="st3" d="M1802.5,92.1h1.6v9.2h11.7v-9.2h1.6v20.3h-1.6v-9.6H1804v9.6h-1.6V92.1z"/>
		<path class="st3" d="M1819.9,112.4l7.9-20.3h1.8l7.8,20.3h-1.7l-2.4-6.2h-9.3l-2.4,6.2H1819.9z M1824.4,104.8h8.4l-4.2-10.9
			L1824.4,104.8z"/>
		<path class="st3" d="M1853.5,92.1v20.3h-1.6V104h-5.6l-5.3,8.4h-1.8l5.4-8.6c-3.4-0.4-5.3-2.7-5.3-5.8c0-3.5,2.6-5.9,6.5-5.9
			H1853.5z M1851.9,102.6v-9h-6c-3,0-5,1.8-5,4.5c0,2.7,1.9,4.5,5,4.5H1851.9z"/>
		<path class="st3" d="M1865.5,92.1h6.9c4.1,0,6.4,2,6.4,5.2c0,2.5-1.4,4-3.7,4.6c2.7,0.4,4.6,1.9,4.6,4.8c0,3.5-2.4,5.7-7.2,5.7h-7
			V92.1z M1867.1,93.5v7.8h5.4c3,0,4.7-1.5,4.7-3.9c0-2.4-1.7-3.9-4.7-3.9H1867.1z M1867.1,102.8v8.2h5.5c3.7,0,5.5-1.6,5.5-4.1
			c0-2.7-2-4.1-5.5-4.1H1867.1z"/>
		<path class="st3" d="M1883.1,92.1h12.5v1.5h-10.9v7.7h9.2v1.5h-9.2v8.2h11.3v1.5h-12.9V92.1z"/>
		<path class="st3" d="M1898.9,92.1h7.5c3.9,0,6.4,2.4,6.4,5.9s-2.5,5.9-6.4,5.9h-6v8.5h-1.6V92.1z M1900.5,93.6v8.9h5.8
			c3,0,4.9-1.8,4.9-4.5c0-2.7-1.9-4.5-4.9-4.5H1900.5z"/>
		<path class="st3" d="M1914.9,102.3c0-6.1,3.7-10.3,9.4-10.3c4.3,0,7.3,2.3,8.2,6.4h-1.7c-0.9-3.2-3.3-5-6.7-5
			c-4.7,0-7.7,3.7-7.7,8.9s3,8.9,7.7,8.9c3.5,0,5.8-1.7,6.7-5h1.7c-0.9,4.1-3.9,6.4-8.3,6.4C1918.5,112.6,1914.9,108.4,1914.9,102.3
			z"/>
		<path class="st3" d="M1935.9,112.4V92.1h1.6v17.7l12.1-17.7h1.4v20.3h-1.6V94.7l-12.1,17.7H1935.9z"/>
		<path class="st3" d="M1968.7,92.1v20.3h-1.6V104h-5.6l-5.3,8.4h-1.8l5.4-8.6c-3.4-0.4-5.3-2.7-5.3-5.8c0-3.5,2.6-5.9,6.5-5.9
			H1968.7z M1967.1,102.6v-9h-6c-3,0-5,1.8-5,4.5c0,2.7,1.9,4.5,5,4.5H1967.1z"/>
	</g>
</g>
</svg>
