<?xml version="1.0" encoding="utf-8"?>
<!-- Generator: Adobe Illustrator 22.0.0, SVG Export Plug-In . SVG Version: 6.00 Build 0)  -->
<svg version="1.1" id="Layer_1" xmlns="http://www.w3.org/2000/svg" xmlns:xlink="http://www.w3.org/1999/xlink" x="0px" y="0px"
	 viewBox="0 0 3000 2000" style="enable-background:new 0 0 3000 2000;" xml:space="preserve">
<style type="text/css">
	.st0{fill:#E7E7E7;}
	.st1{opacity:0.2;fill:#A292FF;stroke:#A292FF;stroke-miterlimit:10;enable-background:new    ;}
	.st2{fill:#1A1B18;}
	.st3{fill:none;stroke:#A292FF;stroke-width:2;stroke-miterlimit:10;}
	.st4{opacity:0.29;}
	.st5{fill:none;stroke:#A292FF;stroke-width:2;stroke-miterlimit:10;stroke-dasharray:4,4;}
</style>
<rect class="st0" width="3000" height="2000"/>
<rect y="876" class="st1" width="3000" height="12"/>
<rect y="1112" class="st1" width="3000" height="12"/>
<g>
	<path class="st2" d="M905.4,1078.9H933v78.2h-35.9v-45.4H736.9v45.4H701v-78.2h20.7c14.6-12.1,22.9-32.4,22.9-95v-95.3h160.8
		V1078.9z M868.5,1078.9V919.6h-89.9v69c0,48-5.1,73.1-16.8,90.6h106.8L868.5,1078.9L868.5,1078.9z"/>
	<path class="st2" d="M1051.6,1113.8c-64.2,0-108.4-48-108.4-113.5s44.2-113.5,108.4-113.5s108.4,48,108.4,113.5
		S1115.4,1113.8,1051.6,1113.8z M1051.6,1081.4c42.3,0,70.9-34,70.9-81.4s-28.3-81.4-70.9-81.4c-42.3,0-70.9,34-70.9,81.4
		S1009,1081.4,1051.6,1081.4z"/>
	<path class="st2" d="M1192,888.8h47.4l71.5,175.8l70.2-175.8h46.4v223.1h-35.3V947.6l-67.1,164.3h-30.8l-67.1-164v164H1192V888.8
		L1192,888.8z"/>
	<path class="st2" d="M1568.3,1113.8c-64.2,0-108.4-48-108.4-113.5s44.2-113.5,108.4-113.5s108.4,48,108.4,113.5
		S1632.2,1113.8,1568.3,1113.8z M1568.3,1081.4c42.3,0,70.9-34,70.9-81.4s-28.3-81.4-70.9-81.4s-70.9,34-70.9,81.4
		S1525.7,1081.4,1568.3,1081.4z"/>
	<path class="st2" d="M1846.7,1097.6v27h-35v-27c-68.6-3.2-111.6-38.8-111.6-97.3c0-58.5,42.6-94.1,111.6-97.3v-27h35v26.7
		c68.6,3.5,111.2,39.1,111.2,97.6C1958,1058.2,1915.7,1093.8,1846.7,1097.6z M1811.8,1067.1V933.3c-49.3,2.9-75,27-75,67.1
		C1736.8,1039.8,1761.6,1063.9,1811.8,1067.1z M1846.7,1067.1c49.3-2.9,75-27.3,75-67.1s-25.1-63.9-75-66.7V1067.1z"/>
	<path class="st2" d="M2090.2,1113.8c-64.2,0-108.4-48-108.4-113.5s44.2-113.5,108.4-113.5c64.2,0,108.4,48,108.4,113.5
		S2154.4,1113.8,2090.2,1113.8z M2090.2,1081.4c42.3,0,70.9-34,70.9-81.4s-28.3-81.4-70.9-81.4c-42.3,0-70.9,34-70.9,81.4
		S2047.9,1081.4,2090.2,1081.4z"/>
	<path class="st2" d="M2231,888.8h36.5v93.8h103.6v-93.8h36.5v223.1h-36.5V1015h-103.6v96.9H2231V888.8z"/>
	<g>
		<g>
			<path class="st2" d="M2439.5,940.9c0-38.5,23.8-64.8,60.7-64.8c28.3,0,48.9,16.5,53.4,42.9h-16.8c-4.8-17.8-18.4-28.3-37.5-28.3
				c-26.7,0-43.9,20.7-43.9,50.2c0,29.2,16.5,50.2,43.2,50.2c19.7,0,33.4-10.5,38.1-28.3h16.8c-4.8,26.4-25.7,42.9-54.7,42.9
				C2462.7,1005.4,2439.5,979.7,2439.5,940.9z"/>
			<path class="st2" d="M2573,1004.5V877h96.6v127.4h-15.9V891.7h-65.2v112.8H2573z"/>
			<path class="st2" d="M2784,961.3c0,25.7-18.1,44.5-45.4,44.5c-28,0-45.4-16.8-45.4-52.1c0-49.6,11.8-68.3,52.1-73.4l31.5-4.1v14
				l-28.3,3.5c-29.2,3.8-37.5,11.4-40.4,39.1c6.7-8.9,18.1-14.6,34-14.6C2766.2,917.7,2784,934.9,2784,961.3z M2768.7,961.6
				c0-17.8-12.4-30.8-29.9-30.8c-18.1,0-30.5,13-30.5,28.9c0,20.7,12.7,32.7,30.2,32.7C2756.3,992.7,2768.7,979.7,2768.7,961.6z"/>
		</g>
	</g>
	<path class="st2" d="M586.8,1072.2V947.8c0-32.8-17.7-63.4-46.1-79.9l-107.6-62.2c-18.9-11-42.6-11-61.6,0L263.9,868
		c-28.4,16.4-46.1,46.7-46.1,79.9v124.4c0,22.1,11.7,42.3,30.6,53l107.6,62.2c28.7,16.4,63.8,16.4,92.2,0l107.6-62.2
		C575.1,1114.2,586.8,1094,586.8,1072.2z M553.1,1112H251.3l-20.5-35.7l150.9-261h41l150.9,261.4L553.1,1112z"/>
</g>
<line class="st3" x1="0" y1="797.5" x2="3000" y2="797.5"/>
<line class="st3" x1="0" y1="1202.5" x2="3000" y2="1202.5"/>
<line class="st3" x1="0" y1="888.5" x2="3000" y2="888.5"/>
<g class="st4">
	<g>
		<line class="st3" x1="0" y1="876.5" x2="2" y2="876.5"/>
		<line class="st5" x1="6" y1="876.5" x2="2996" y2="876.5"/>
		<line class="st3" x1="2998" y1="876.5" x2="3000" y2="876.5"/>
	</g>
</g>
<g>
	<g>
		<line class="st3" x1="0" y1="1124.6" x2="2" y2="1124.6"/>
		<line class="st5" x1="6" y1="1124.6" x2="2996" y2="1124.6"/>
		<line class="st3" x1="2998" y1="1124.6" x2="3000" y2="1124.6"/>
	</g>
</g>
<g>
	<g>
		<line class="st3" x1="0" y1="1004.5" x2="2" y2="1004.5"/>
		<line class="st5" x1="6" y1="1004.5" x2="2996" y2="1004.5"/>
		<line class="st3" x1="2998" y1="1004.5" x2="3000" y2="1004.5"/>
	</g>
</g>
<line class="st3" x1="0" y1="1111.9" x2="3000" y2="1111.9"/>
<line class="st3" x1="217.8" y1="0" x2="217.8" y2="2000"/>
<line class="st3" x1="586.8" y1="0" x2="586.8" y2="2000"/>
<line class="st3" x1="701" y1="0" x2="701" y2="2000"/>
<line class="st3" x1="2407.7" y1="0" x2="2407.7" y2="2000"/>
<line class="st3" x1="2439.5" y1="0" x2="2439.5" y2="2000"/>
<line class="st3" x1="2784" y1="0" x2="2784" y2="2000"/>
</svg>
