<?xml version="1.0" encoding="utf-8"?>
<!-- Generator: Adobe Illustrator 22.0.0, SVG Export Plug-In . SVG Version: 6.00 Build 0)  -->
<svg version="1.1" id="Layer_1" xmlns="http://www.w3.org/2000/svg" xmlns:xlink="http://www.w3.org/1999/xlink" x="0px" y="0px"
	 viewBox="0 0 3000 2000" style="enable-background:new 0 0 3000 2000;" xml:space="preserve">
<style type="text/css">
	.st0{fill:#E7E7E7;}
	.st1{opacity:0.3;}
	.st2{fill:none;stroke:#1A1B18;stroke-miterlimit:10;}
	.st3{fill:none;stroke:#1A1B18;stroke-width:1.25;stroke-miterlimit:10;}
	.st4{fill:none;stroke:#71726E;stroke-width:1.25;stroke-miterlimit:10;}
	.st5{fill:#71726E;}
	.st6{fill:#1A1B18;}
</style>
<rect class="st0" width="3000" height="2000"/>
<g class="st1">
	<rect x="1000" y="454.8" class="st2" width="1000" height="1090.4"/>
	<line class="st2" x1="1000" y1="1521" x2="2000" y2="1521"/>
	<line class="st2" x1="1000" y1="1496.7" x2="2000" y2="1496.7"/>
	<line class="st2" x1="1000" y1="1472.5" x2="2000" y2="1472.5"/>
	<line class="st2" x1="1000" y1="1448.3" x2="2000" y2="1448.3"/>
	<line class="st2" x1="1000" y1="1424" x2="2000" y2="1424"/>
	<line class="st2" x1="1000" y1="1399.8" x2="2000" y2="1399.8"/>
	<line class="st2" x1="1000" y1="1375.6" x2="2000" y2="1375.6"/>
	<line class="st2" x1="1000" y1="1351.3" x2="2000" y2="1351.3"/>
	<line class="st2" x1="1000" y1="1327.1" x2="2000" y2="1327.1"/>
	<line class="st2" x1="1000" y1="1302.9" x2="2000" y2="1302.9"/>
	<line class="st2" x1="1000" y1="1278.7" x2="2000" y2="1278.7"/>
	<line class="st2" x1="1000" y1="1254.4" x2="2000" y2="1254.4"/>
	<line class="st2" x1="1000" y1="1230.2" x2="2000" y2="1230.2"/>
	<line class="st2" x1="1000" y1="1206" x2="2000" y2="1206"/>
	<line class="st2" x1="1000" y1="1181.7" x2="2000" y2="1181.7"/>
	<line class="st2" x1="1000" y1="1157.5" x2="2000" y2="1157.5"/>
	<line class="st2" x1="1000" y1="1133.3" x2="2000" y2="1133.3"/>
	<line class="st2" x1="1000" y1="1109" x2="2000" y2="1109"/>
	<line class="st2" x1="1000" y1="1084.8" x2="2000" y2="1084.8"/>
	<line class="st2" x1="1000" y1="1060.6" x2="2000" y2="1060.6"/>
	<line class="st2" x1="1000" y1="1036.3" x2="2000" y2="1036.3"/>
	<line class="st2" x1="1000" y1="1012.1" x2="2000" y2="1012.1"/>
	<line class="st2" x1="1000" y1="987.9" x2="2000" y2="987.9"/>
	<line class="st2" x1="1000" y1="963.7" x2="2000" y2="963.7"/>
	<line class="st2" x1="1000" y1="939.4" x2="2000" y2="939.4"/>
	<line class="st2" x1="1000" y1="915.2" x2="2000" y2="915.2"/>
	<line class="st2" x1="1000" y1="891" x2="2000" y2="891"/>
	<line class="st2" x1="1000" y1="866.7" x2="2000" y2="866.7"/>
	<line class="st2" x1="1000" y1="842.5" x2="2000" y2="842.5"/>
	<line class="st2" x1="1000" y1="818.3" x2="2000" y2="818.3"/>
	<line class="st2" x1="1000" y1="794" x2="2000" y2="794"/>
	<line class="st2" x1="1000" y1="769.8" x2="2000" y2="769.8"/>
	<line class="st2" x1="1000" y1="745.6" x2="2000" y2="745.6"/>
	<line class="st2" x1="1000" y1="721.3" x2="2000" y2="721.3"/>
	<line class="st2" x1="1000" y1="697.1" x2="2000" y2="697.1"/>
	<line class="st2" x1="1000" y1="672.9" x2="2000" y2="672.9"/>
	<line class="st2" x1="1000" y1="648.7" x2="2000" y2="648.7"/>
	<line class="st2" x1="1000" y1="624.4" x2="2000" y2="624.4"/>
	<line class="st2" x1="1000" y1="600.2" x2="2000" y2="600.2"/>
	<line class="st2" x1="1000" y1="576" x2="2000" y2="576"/>
	<line class="st2" x1="1000" y1="551.7" x2="2000" y2="551.7"/>
	<line class="st2" x1="1000" y1="527.5" x2="2000" y2="527.5"/>
	<line class="st2" x1="1000" y1="503.3" x2="2000" y2="503.3"/>
	<line class="st2" x1="1000" y1="479" x2="2000" y2="479"/>
	<line class="st2" x1="1974.4" y1="454.8" x2="1974.4" y2="1545.2"/>
	<line class="st2" x1="1948.7" y1="454.8" x2="1948.7" y2="1545.2"/>
	<line class="st2" x1="1923.1" y1="454.8" x2="1923.1" y2="1545.2"/>
	<line class="st2" x1="1897.4" y1="454.8" x2="1897.4" y2="1545.2"/>
	<line class="st2" x1="1871.8" y1="454.8" x2="1871.8" y2="1545.2"/>
	<line class="st2" x1="1846.2" y1="454.8" x2="1846.2" y2="1545.2"/>
	<line class="st2" x1="1820.5" y1="454.8" x2="1820.5" y2="1545.2"/>
	<line class="st2" x1="1794.9" y1="454.8" x2="1794.9" y2="1545.2"/>
	<line class="st2" x1="1769.2" y1="454.8" x2="1769.2" y2="1545.2"/>
	<line class="st2" x1="1743.6" y1="454.8" x2="1743.6" y2="1545.2"/>
	<line class="st2" x1="1717.9" y1="454.8" x2="1717.9" y2="1545.2"/>
	<line class="st2" x1="1692.3" y1="454.8" x2="1692.3" y2="1545.2"/>
	<line class="st2" x1="1666.7" y1="454.8" x2="1666.7" y2="1545.2"/>
	<line class="st2" x1="1641" y1="454.8" x2="1641" y2="1545.2"/>
	<line class="st2" x1="1615.4" y1="454.8" x2="1615.4" y2="1545.2"/>
	<line class="st2" x1="1589.7" y1="454.8" x2="1589.7" y2="1545.2"/>
	<line class="st2" x1="1564.1" y1="454.8" x2="1564.1" y2="1545.2"/>
	<line class="st2" x1="1538.5" y1="454.8" x2="1538.5" y2="1545.2"/>
	<line class="st2" x1="1512.8" y1="454.8" x2="1512.8" y2="1545.2"/>
	<line class="st2" x1="1487.2" y1="454.8" x2="1487.2" y2="1545.2"/>
	<line class="st2" x1="1461.5" y1="454.8" x2="1461.5" y2="1545.2"/>
	<line class="st2" x1="1435.9" y1="454.8" x2="1435.9" y2="1545.2"/>
	<line class="st2" x1="1410.3" y1="454.8" x2="1410.3" y2="1545.2"/>
	<line class="st2" x1="1384.6" y1="454.8" x2="1384.6" y2="1545.2"/>
	<line class="st2" x1="1359" y1="454.8" x2="1359" y2="1545.2"/>
	<line class="st2" x1="1333.3" y1="454.8" x2="1333.3" y2="1545.2"/>
	<line class="st2" x1="1307.7" y1="454.8" x2="1307.7" y2="1545.2"/>
	<line class="st2" x1="1282.1" y1="454.8" x2="1282.1" y2="1545.2"/>
	<line class="st2" x1="1256.4" y1="454.8" x2="1256.4" y2="1545.2"/>
	<line class="st2" x1="1230.8" y1="454.8" x2="1230.8" y2="1545.2"/>
	<line class="st2" x1="1205.1" y1="454.8" x2="1205.1" y2="1545.2"/>
	<line class="st2" x1="1179.5" y1="454.8" x2="1179.5" y2="1545.2"/>
	<line class="st2" x1="1153.8" y1="454.8" x2="1153.8" y2="1545.2"/>
	<line class="st2" x1="1128.2" y1="454.8" x2="1128.2" y2="1545.2"/>
	<line class="st2" x1="1102.6" y1="454.8" x2="1102.6" y2="1545.2"/>
	<line class="st2" x1="1076.9" y1="454.8" x2="1076.9" y2="1545.2"/>
	<line class="st2" x1="1051.3" y1="454.8" x2="1051.3" y2="1545.2"/>
	<line class="st2" x1="1025.6" y1="454.8" x2="1025.6" y2="1545.2"/>
</g>
<path class="st3" d="M2000,1199.4V862.3c0-88.9-48-171.8-124.9-216.5l-291.6-168.6c-51.2-29.8-115.4-29.8-166.9,0L1124.9,646
	c-77,44.4-124.9,126.6-124.9,216.5v337.1c0,59.9,31.7,114.6,82.9,143.6l291.6,168.6c77.8,44.4,172.9,44.4,249.9,0l291.6-168.6
	C1968.3,1313.2,2000,1258.5,2000,1199.4z M1908.7,1303.2h-817.9l-55.6-92.7l408.9-707.3h111.1l408.9,708.4L1908.7,1303.2z"/>
<g>
	<g>
		<line class="st4" x1="1048" y1="690.4" x2="1124.9" y2="646"/>
		<line class="st4" x1="1000" y1="772.6" x2="1000" y2="866.7"/>
		<line class="st4" x1="1468" y1="447.4" x2="1416.5" y2="477.2"/>
		<circle class="st5" cx="1000" cy="774.1" r="4.5"/>
		<circle class="st5" cx="1048" cy="690.4" r="4.5"/>
		<rect x="1121.8" y="642.9" class="st5" width="6.3" height="6.3"/>
		<rect x="996.9" y="863.6" class="st5" width="6.3" height="6.3"/>
		<rect x="1413.4" y="474" class="st5" width="6.3" height="6.3"/>
		<circle class="st5" cx="1468" cy="447.4" r="4.5"/>
	</g>
	<g>
		<line class="st4" x1="1952.2" y1="690.4" x2="1875.3" y2="646"/>
		<line class="st4" x1="2000.2" y1="772.6" x2="2000.2" y2="866.7"/>
		<line class="st4" x1="1532.2" y1="447.4" x2="1583.7" y2="477.2"/>
		<circle class="st5" cx="2000.2" cy="774.1" r="4.5"/>
		<circle class="st5" cx="1952.2" cy="690.4" r="4.5"/>
		
			<rect x="1872.2" y="642.9" transform="matrix(-1 -4.496549e-11 4.496549e-11 -1 3750.554 1292.0055)" class="st5" width="6.3" height="6.3"/>
		
			<rect x="1997.1" y="863.6" transform="matrix(-1 -4.496549e-11 4.496549e-11 -1 4000.4185 1733.4628)" class="st5" width="6.3" height="6.3"/>
		
			<rect x="1580.6" y="474" transform="matrix(-1 -4.481982e-11 4.481982e-11 -1 3167.3562 954.3359)" class="st5" width="6.3" height="6.3"/>
		<circle class="st5" cx="1532.3" cy="447.4" r="4.5"/>
	</g>
</g>
<g>
	<line class="st4" x1="1020.1" y1="1306.5" x2="1078.3" y2="1340.2"/>
	<line class="st4" x1="1000" y1="1264.7" x2="1000" y2="1201"/>
	<line class="st4" x1="1451.2" y1="1555.9" x2="1378.6" y2="1513.9"/>
	<circle class="st5" cx="1000" cy="1264.7" r="4.5"/>
	<circle class="st5" cx="1020.1" cy="1306.5" r="4.5"/>
	<rect x="1075.2" y="1337" class="st5" width="6.3" height="6.3"/>
	<rect x="996.9" y="1197.9" class="st5" width="6.3" height="6.3"/>
	<rect x="1375.4" y="1510.8" class="st5" width="6.3" height="6.3"/>
	<circle class="st5" cx="1451.2" cy="1555.9" r="4.5"/>
</g>
<g>
	<line class="st4" x1="1980.4" y1="1306.5" x2="1922.2" y2="1340.2"/>
	<line class="st4" x1="2000.5" y1="1264.7" x2="2000.5" y2="1201"/>
	<line class="st4" x1="1549.3" y1="1555.9" x2="1621.9" y2="1513.9"/>
	<circle class="st5" cx="2000.5" cy="1264.7" r="4.5"/>
	<circle class="st5" cx="1980.4" cy="1306.5" r="4.5"/>
	
		<rect x="1919" y="1337" transform="matrix(-1 -1.224647e-16 1.224647e-16 -1 3844.3206 2680.3342)" class="st5" width="6.3" height="6.3"/>
	
		<rect x="1997.4" y="1197.9" transform="matrix(-1 -1.224647e-16 1.224647e-16 -1 4001 2402.0015)" class="st5" width="6.3" height="6.3"/>
	
		<rect x="1618.8" y="1510.8" transform="matrix(-1 -1.224647e-16 1.224647e-16 -1 3243.8516 3027.7876)" class="st5" width="6.3" height="6.3"/>
	<circle class="st5" cx="1549.3" cy="1555.9" r="4.5"/>
</g>
<g>
	<path class="st6" d="M-812.9,602.3h3.7v12.8h15.2v-12.8h3.7v29.4h-3.7v-13.3h-15.2v13.3h-3.7V602.3z"/>
	<path class="st6" d="M-765.2,628.6v3.2h-1.9c-2.9,0-3.8-1.2-3.9-3.3c-1.3,1.9-3.5,3.6-7.2,3.6c-4.7,0-7.9-2.4-7.9-6.3
		c0-4.3,3-6.7,8.6-6.7h6.3v-1.5c0-2.8-2-4.5-5.3-4.5c-3,0-5,1.4-5.5,3.6h-3.4c0.5-4.2,3.9-6.7,9.1-6.7c5.5,0,8.6,2.7,8.6,7.7v9.4
		c0,1.1,0.4,1.4,1.4,1.4H-765.2z M-771.1,622h-6.6c-3.1,0-4.8,1.1-4.8,3.6c0,2.1,1.8,3.5,4.7,3.5c4.3,0,6.8-2.5,6.8-6V622z"/>
	<path class="st6" d="M-762.5,631.7v-21.4h3.4v18.3h9.3v-18.3h3.4v18.3h9.3v-18.3h3.4v21.4H-762.5z"/>
	<path class="st6" d="M-708.8,628.6v3.2h-1.9c-2.9,0-3.8-1.2-3.9-3.3c-1.3,1.9-3.5,3.6-7.2,3.6c-4.7,0-7.9-2.4-7.9-6.3
		c0-4.3,3-6.7,8.6-6.7h6.3v-1.5c0-2.8-2-4.5-5.3-4.5c-3,0-5,1.4-5.5,3.6h-3.4c0.5-4.2,3.9-6.7,9.1-6.7c5.5,0,8.6,2.7,8.6,7.7v9.4
		c0,1.1,0.4,1.4,1.4,1.4H-708.8z M-714.7,622h-6.6c-3.1,0-4.8,1.1-4.8,3.6c0,2.1,1.8,3.5,4.7,3.5c4.3,0,6.8-2.5,6.8-6V622z"/>
	<path class="st6" d="M-695.2,631.7v-21.4h3.4v8.9h4.6l6.7-8.9h4l-7.8,10.3l8.5,11.1h-4.2l-7.1-9.3h-4.6v9.3H-695.2z"/>
	<path class="st6" d="M-675,621c0-6.5,4.4-11,10.6-11s10.6,4.5,10.6,11s-4.4,11-10.6,11S-675,627.5-675,621z M-657.3,621
		c0-4.6-2.9-7.9-7.1-7.9s-7.1,3.3-7.1,7.9s2.9,7.9,7.1,7.9S-657.3,625.6-657.3,621z"/>
	<path class="st6" d="M-649.8,631.7v-21.4h4.2l8.2,17.2l8.1-17.2h4.1l0.1,21.4h-3.3v-16.2l-7.7,16.2h-2.8l-7.7-16.2v16.2H-649.8z"/>
	<path class="st6" d="M-620.4,631.7v-21.4h18.5v21.4h-3.4v-18.3h-11.6v18.3H-620.4z"/>
	<path class="st6" d="M-577.1,628.6v3.2h-1.9c-2.9,0-3.8-1.2-3.9-3.3c-1.3,1.9-3.5,3.6-7.2,3.6c-4.7,0-7.9-2.4-7.9-6.3
		c0-4.3,3-6.7,8.6-6.7h6.3v-1.5c0-2.8-2-4.5-5.3-4.5c-3,0-5,1.4-5.5,3.6h-3.4c0.5-4.2,3.9-6.7,9.1-6.7c5.5,0,8.6,2.7,8.6,7.7v9.4
		c0,1.1,0.4,1.4,1.4,1.4H-577.1z M-583,622h-6.6c-3.1,0-4.8,1.1-4.8,3.6c0,2.1,1.8,3.5,4.7,3.5c4.3,0,6.8-2.5,6.8-6V622z"/>
	<path class="st6" d="M-559,610.3h3.4v21.4h-3.4v-9.3H-571v9.3h-3.4v-21.4h3.4v8.9h12.1V610.3z"/>
	<path class="st6" d="M-550.8,631.7v-21.4h3.4v16.2l12.8-16.2h3v21.4h-3.4v-16.3l-12.8,16.3H-550.8z"/>
	<path class="st6" d="M-510,610.3v21.4h-3.4v-7.4h-5.7l-5.3,7.4h-4l5.9-7.8c-3.4-0.8-5.3-3.1-5.3-6.6c0-4.4,3.1-7.1,8.5-7.1H-510z
		 M-513.5,621.4v-8.1h-5.9c-3.2,0-5.1,1.4-5.1,4c0,2.8,1.8,4.1,5.1,4.1H-513.5z"/>
	<path class="st6" d="M-477,625.6c0,3.9-3.6,6.4-9.4,6.4c-6.1,0-8.7-2.5-8.9-6.8h3.6c0.5,2.6,1.8,3.9,5.4,3.9c3.6,0,5.8-1.3,5.8-3.5
		c0-2.3-1.6-3.2-4.3-3.2h-3.7v-3h3.4c2.5,0,4-0.9,4-3.2c0-1.9-1.9-3.2-5.1-3.2c-3.5,0-5,1.5-5.5,3.8h-3.6c0.3-4,3.6-6.7,9.1-6.7
		c5.4,0,8.6,2.4,8.6,6c0,2.6-1.6,4.2-3.8,4.6C-478.6,621.2-477,622.8-477,625.6z"/>
	<path class="st6" d="M-453.1,628.6v3.2h-1.9c-2.9,0-3.8-1.2-3.9-3.3c-1.3,1.9-3.5,3.6-7.2,3.6c-4.7,0-7.9-2.4-7.9-6.3
		c0-4.3,3-6.7,8.6-6.7h6.3v-1.5c0-2.8-2-4.5-5.3-4.5c-3,0-5,1.4-5.5,3.6h-3.4c0.5-4.2,3.9-6.7,9.1-6.7c5.5,0,8.6,2.7,8.6,7.7v9.4
		c0,1.1,0.4,1.4,1.4,1.4H-453.1z M-459,622h-6.6c-3.1,0-4.8,1.1-4.8,3.6c0,2.1,1.8,3.5,4.7,3.5c4.3,0,6.8-2.5,6.8-6V622z"/>
	<path class="st6" d="M-435,610.3h3.4v21.4h-3.4v-9.3H-447v9.3h-3.4v-21.4h3.4v8.9h12.1V610.3z"/>
	<path class="st6" d="M-426.8,631.7v-21.4h3.4v16.2l12.8-16.2h3v21.4h-3.4v-16.3l-12.8,16.3H-426.8z"/>
	<path class="st6" d="M-403,631.7v-21.4h4.2l8.2,17.2l8.1-17.2h4.1l0.1,21.4h-3.3v-16.2l-7.7,16.2h-2.8l-7.7-16.2v16.2H-403z"/>
	<path class="st6" d="M-353.5,628.6v3.2h-1.9c-2.9,0-3.8-1.2-3.9-3.3c-1.3,1.9-3.5,3.6-7.2,3.6c-4.7,0-7.9-2.4-7.9-6.3
		c0-4.3,3-6.7,8.6-6.7h6.3v-1.5c0-2.8-2-4.5-5.3-4.5c-3,0-5,1.4-5.5,3.6h-3.4c0.5-4.2,3.9-6.7,9.1-6.7c5.5,0,8.6,2.7,8.6,7.7v9.4
		c0,1.1,0.4,1.4,1.4,1.4H-353.5z M-359.4,622h-6.6c-3.1,0-4.8,1.1-4.8,3.6c0,2.1,1.8,3.5,4.7,3.5c4.3,0,6.8-2.5,6.8-6V622z"/>
	<path class="st6" d="M-351.6,621c0-6.5,4.1-11,10.2-11c6,0,10,3.8,10.2,10.2c0,0.5,0,1-0.1,1.5H-348v0.3c0.1,4.1,2.7,6.9,6.8,6.9
		c3,0,5.4-1.6,6.1-4.4h3.5c-0.8,4.3-4.4,7.4-9.3,7.4C-347.4,632-351.6,627.6-351.6,621z M-334.9,618.8c-0.3-3.7-2.9-5.8-6.4-5.8
		c-3.2,0-6,2.3-6.4,5.8H-334.9z"/>
	<path class="st6" d="M-322.8,631.7v-18.3h-7.7v-3.2h18.9v3.2h-7.7v18.3H-322.8z"/>
	<path class="st6" d="M-310.7,621.1c0-6.6,4.2-11,10.5-11c5.3,0,8.6,2.9,9.5,7.6h-3.6c-0.6-2.9-2.7-4.6-5.9-4.6
		c-4.1,0-6.9,3.3-6.9,7.9s2.8,7.9,6.9,7.9c3.1,0,5.2-1.8,5.8-4.5h3.7c-0.8,4.6-4.3,7.6-9.5,7.6C-306.6,632-310.7,627.8-310.7,621.1z
		"/>
	<path class="st6" d="M-270.2,610.3v21.4h-3.4v-7.4h-5.7l-5.3,7.4h-4l5.9-7.8c-3.4-0.8-5.3-3.1-5.3-6.6c0-4.4,3.1-7.1,8.5-7.1
		H-270.2z M-273.6,621.4v-8.1h-5.9c-3.2,0-5.1,1.4-5.1,4c0,2.8,1.8,4.1,5.1,4.1H-273.6z"/>
	<path class="st6" d="M-815.6,660.7h3.7l6.6,17.1l6.4-17.1h3.7l-9.9,25c-1.3,3.4-2.1,4.8-5.2,4.8h-4.1v-3.2h3.1c2,0,2.3-0.5,3.1-2.5
		l1-2.6L-815.6,660.7z"/>
	<path class="st6" d="M-794.3,671.5c0-6.6,4.2-11,10.5-11c5.3,0,8.6,2.9,9.5,7.6h-3.6c-0.6-2.9-2.7-4.6-5.9-4.6
		c-4.1,0-6.9,3.3-6.9,7.9s2.8,7.9,6.9,7.9c3.1,0,5.2-1.8,5.8-4.5h3.7c-0.8,4.6-4.3,7.6-9.5,7.6
		C-790.2,682.4-794.3,678.2-794.3,671.5z"/>
	<path class="st6" d="M-765.6,682.1v-18.3h-7.7v-3.2h18.9v3.2h-7.7v18.3H-765.6z"/>
	<path class="st6" d="M-732.6,679v3.2h-1.9c-2.9,0-3.8-1.2-3.9-3.3c-1.3,1.9-3.5,3.6-7.2,3.6c-4.7,0-7.9-2.4-7.9-6.3
		c0-4.3,3-6.7,8.6-6.7h6.3V668c0-2.8-2-4.5-5.3-4.5c-3,0-5,1.4-5.5,3.6h-3.4c0.5-4.2,3.9-6.7,9.1-6.7c5.5,0,8.6,2.7,8.6,7.7v9.4
		c0,1.1,0.4,1.4,1.4,1.4H-732.6z M-738.5,672.4h-6.6c-3.1,0-4.8,1.1-4.8,3.6c0,2.1,1.8,3.5,4.7,3.5c4.3,0,6.8-2.5,6.8-6V672.4z"/>
	<path class="st6" d="M-714.4,660.7h3.4v21.4h-3.4v-9.3h-12.1v9.3h-3.4v-21.4h3.4v8.9h12.1V660.7z"/>
	<path class="st6" d="M-707.1,671.4c0-6.5,4.4-11,10.6-11s10.6,4.5,10.6,11s-4.4,11-10.6,11S-707.1,677.9-707.1,671.4z
		 M-689.3,671.4c0-4.6-2.9-7.9-7.1-7.9s-7.1,3.3-7.1,7.9s2.9,7.9,7.1,7.9S-689.3,676-689.3,671.4z"/>
	<path class="st6" d="M-681.9,682.1v-21.4h9.1c5.3,0,7.9,2.1,7.9,5.8c0,2.7-1.8,4.2-3.5,4.6c2.5,0.4,4.3,1.9,4.3,4.9
		c0,4.2-2.9,6.2-8.5,6.2H-681.9z M-678.4,669.8h6c2.9,0,4.1-1.2,4.1-3.1c0-2.1-1.2-3.1-4.1-3.1h-6V669.8z M-678.4,679.2h6.3
		c2.9,0,4.5-1,4.5-3.2c0-2.1-1.6-3.3-4.5-3.3h-6.3V679.2z"/>
	<path class="st6" d="M-660.3,682.1v-21.4h3.4v8.9h4.6l6.7-8.9h4l-7.8,10.3l8.5,11.1h-4.2l-7.1-9.3h-4.6v9.3H-660.3z"/>
	<path class="st6" d="M-640.1,671.4c0-6.5,4.4-11,10.6-11s10.6,4.5,10.6,11s-4.4,11-10.6,11S-640.1,677.9-640.1,671.4z
		 M-622.4,671.4c0-4.6-2.9-7.9-7.1-7.9s-7.1,3.3-7.1,7.9s2.9,7.9,7.1,7.9S-622.4,676-622.4,671.4z"/>
	<path class="st6" d="M-614.9,682.1v-21.4h3.4v16.2l12.8-16.2h3v21.4h-3.4v-16.3l-12.8,16.3H-614.9z M-611.6,652.5h2.9
		c0,2.1,0.9,3.3,3.3,3.3s3.4-1.3,3.4-3.3h2.9c-0.1,3.5-2.2,5.8-6.3,5.8C-609.5,658.3-611.5,656.1-611.6,652.5z"/>
	<path class="st6" d="M-586.2,682c0,3.6-2.2,5.7-5.9,5.8v-2c2.7,0,3.5-1.9,3.5-3.4c0-0.2,0-0.4,0-0.5c-0.3,0.3-0.9,0.5-1.4,0.5
		c-1.3,0-2.2-0.8-2.2-2.3c0-1.4,1-2.4,2.8-2.4C-587.5,677.7-586.2,679.7-586.2,682z"/>
	<path class="st6" d="M-572.2,671.4c0-6.5,4.4-11,10.6-11s10.6,4.5,10.6,11s-4.4,11-10.6,11S-572.2,677.9-572.2,671.4z
		 M-554.5,671.4c0-4.6-2.9-7.9-7.1-7.9s-7.1,3.3-7.1,7.9s2.9,7.9,7.1,7.9S-554.5,676-554.5,671.4z"/>
	<path class="st6" d="M-526.6,672.1c0,5.9-4.2,10.3-10.5,10.3c-6.4,0-10.5-3.9-10.5-12c0-11.5,2.7-15.8,12-17l7.3-0.9v3.2l-6.5,0.8
		c-6.7,0.9-8.7,2.6-9.3,9c1.5-2.1,4.2-3.4,7.9-3.4C-530.7,662.1-526.6,666.1-526.6,672.1z M-530.1,672.3c0-4.1-2.9-7.1-6.9-7.1
		c-4.2,0-7.1,3-7.1,6.7c0,4.8,2.9,7.6,7,7.6C-533,679.4-530.1,676.4-530.1,672.3z"/>
	<path class="st6" d="M-523.4,671.5c0-6.6,4.2-11,10.5-11c5.3,0,8.6,2.9,9.5,7.6h-3.6c-0.6-2.9-2.7-4.6-5.9-4.6
		c-4.1,0-6.9,3.3-6.9,7.9s2.8,7.9,6.9,7.9c3.1,0,5.2-1.8,5.8-4.5h3.7c-0.8,4.6-4.3,7.6-9.5,7.6
		C-519.3,682.4-523.4,678.2-523.4,671.5z"/>
	<path class="st6" d="M-502.2,682.1V679h0.6c2.4,0,3.4-1.5,3.4-7.9v-10.4h16.2v21.4h-3.4v-18.3h-9.4v7.4c0,8.5-2,10.9-6.2,10.9
		H-502.2z"/>
	<path class="st6" d="M-479.5,660.7h3.7l6.6,17.1l6.4-17.1h3.7l-9.9,25c-1.3,3.4-2.1,4.8-5.2,4.8h-4.1v-3.2h3.1c2,0,2.3-0.5,3.1-2.5
		l1-2.6L-479.5,660.7z"/>
	<path class="st6" d="M-459,682.1l8.1-11.1l-7.5-10.3h3.8l6.5,8.9h3.3v-8.9h3.4v8.9h3.3l6.5-8.9h3.8l-7.5,10.3l8.1,11.1h-3.9
		l-6.8-9.3h-3.4v9.3h-3.4v-9.3h-3.4l-6.8,9.3H-459z"/>
	<path class="st6" d="M-424.8,682.1v-21.4h3.4v16.2l12.8-16.2h3v21.4h-3.4v-16.3l-12.8,16.3H-424.8z"/>
	<path class="st6" d="M-400.9,682.1v-21.4h9.1c5.3,0,7.9,2.1,7.9,5.8c0,2.7-1.8,4.2-3.5,4.6c2.5,0.4,4.3,1.9,4.3,4.9
		c0,4.2-2.9,6.2-8.5,6.2H-400.9z M-397.5,669.8h6c2.9,0,4.1-1.2,4.1-3.1c0-2.1-1.2-3.1-4.1-3.1h-6V669.8z M-397.5,679.2h6.3
		c2.9,0,4.5-1,4.5-3.2c0-2.1-1.6-3.3-4.5-3.3h-6.3V679.2z"/>
	<path class="st6" d="M-359.3,679v3.2h-1.9c-2.9,0-3.8-1.2-3.9-3.3c-1.3,1.9-3.5,3.6-7.2,3.6c-4.7,0-7.9-2.4-7.9-6.3
		c0-4.3,3-6.7,8.6-6.7h6.3V668c0-2.8-2-4.5-5.3-4.5c-3,0-5,1.4-5.5,3.6h-3.4c0.5-4.2,3.9-6.7,9.1-6.7c5.5,0,8.6,2.7,8.6,7.7v9.4
		c0,1.1,0.4,1.4,1.4,1.4H-359.3z M-365.2,672.4h-6.6c-3.1,0-4.8,1.1-4.8,3.6c0,2.1,1.8,3.5,4.7,3.5c4.3,0,6.8-2.5,6.8-6V672.4z"/>
	<path class="st6" d="M-341.1,660.7h3.4v21.4h-3.4v-9.3h-12.1v9.3h-3.4v-21.4h3.4v8.9h12.1V660.7z"/>
	<path class="st6" d="M-333,682.1v-21.4h3.4v16.2l12.8-16.2h3v21.4h-3.4v-16.3l-12.8,16.3H-333z"/>
	<path class="st6" d="M-309.9,671.4c0-6.5,4.1-11,10.2-11c6,0,10,3.8,10.2,10.2c0,0.5,0,1-0.1,1.5h-16.6v0.3
		c0.1,4.1,2.7,6.9,6.8,6.9c3,0,5.4-1.6,6.1-4.4h3.5c-0.8,4.3-4.4,7.4-9.3,7.4C-305.7,682.4-309.9,678-309.9,671.4z M-293.3,669.2
		c-0.3-3.7-2.9-5.8-6.4-5.8c-3.2,0-6,2.3-6.4,5.8H-293.3z"/>
	<path class="st6" d="M-285.6,682.1v-21.4h4.2l8.2,17.2l8.1-17.2h4.1l0.1,21.4h-3.3V666l-7.7,16.2h-2.8l-7.7-16.2v16.2H-285.6z"/>
	<path class="st6" d="M-251.3,682c0,3.6-2.2,5.7-5.9,5.8v-2c2.7,0,3.5-1.9,3.5-3.4c0-0.2,0-0.4,0-0.5c-0.3,0.3-0.9,0.5-1.4,0.5
		c-1.3,0-2.2-0.8-2.2-2.3c0-1.4,1-2.4,2.8-2.4C-252.5,677.7-251.3,679.7-251.3,682z"/>
	<path class="st6" d="M-792.3,721.8c0,6.6-4.4,11-10.3,11c-3.6,0-6-1.5-7.4-3.5v11.7h-3.4v-29.8h3l0.5,3.4c1.4-2,3.7-3.7,7.4-3.7
		C-796.7,710.9-792.3,714.9-792.3,721.8z M-795.9,721.8c0-4.7-2.9-7.9-7.1-7.9c-4.2,0-7.1,3.2-7.1,7.8c0,4.7,2.9,8,7.1,8
		C-798.7,729.7-795.9,726.5-795.9,721.8z"/>
	<path class="st6" d="M-789.2,721.8c0-6.5,4.1-11,10.2-11c6,0,10,3.8,10.2,10.2c0,0.5,0,1-0.1,1.5h-16.6v0.3
		c0.1,4.1,2.7,6.9,6.8,6.9c3,0,5.4-1.6,6.1-4.4h3.5c-0.8,4.3-4.4,7.4-9.3,7.4C-785,732.8-789.2,728.4-789.2,721.8z M-772.5,719.6
		c-0.3-3.7-2.9-5.8-6.4-5.8c-3.2,0-6,2.3-6.4,5.8H-772.5z"/>
	<path class="st6" d="M-764.9,732.5v-21.4h4.2l8.2,17.2l8.1-17.2h4.1l0.1,21.4h-3.3v-16.2l-7.7,16.2h-2.8l-7.7-16.2v16.2H-764.9z"/>
	<path class="st6" d="M-736.2,721.8c0-6.5,4.4-11,10.6-11s10.6,4.5,10.6,11s-4.4,11-10.6,11S-736.2,728.3-736.2,721.8z
		 M-718.4,721.8c0-4.6-2.9-7.9-7.1-7.9s-7.1,3.3-7.1,7.9s2.9,7.9,7.1,7.9S-718.4,726.4-718.4,721.8z"/>
	<path class="st6" d="M-695.5,711.1h3.4v21.4h-3.4v-9.3h-12.1v9.3h-3.4v-21.4h3.4v8.9h12.1V711.1z"/>
	<path class="st6" d="M-681.3,732.5v-18.3h-7.7v-3.2h18.9v3.2h-7.7v18.3H-681.3z"/>
	<path class="st6" d="M-669.3,721.8c0-6.5,4.4-11,10.6-11s10.6,4.5,10.6,11s-4.4,11-10.6,11S-669.3,728.3-669.3,721.8z
		 M-651.6,721.8c0-4.6-2.9-7.9-7.1-7.9s-7.1,3.3-7.1,7.9s2.9,7.9,7.1,7.9S-651.6,726.4-651.6,721.8z"/>
	<path class="st6" d="M-644.1,732.5v-21.4h4.2l8.2,17.2l8.1-17.2h4.1l0.1,21.4h-3.3v-16.2l-7.7,16.2h-2.8l-7.7-16.2v16.2H-644.1z"/>
	<path class="st6" d="M-603.6,732.5v-21.4h3.4v16.2l12.8-16.2h3v21.4h-3.4v-16.3l-12.8,16.3H-603.6z"/>
	<path class="st6" d="M-549.8,729.4h3.4v8.8h-3.4v-5.7h-17.5v5.7h-3.4v-8.8h2.2c1.6-1.2,2.4-2.7,2.4-9.3v-8.9h16.4V729.4z
		 M-553.2,729.4v-15.1h-9.6v6.2c0,4.9-0.5,7.3-1.6,8.9H-553.2z"/>
	<path class="st6" d="M-543.6,732.5v-21.4h3.4v16.2l12.8-16.2h3v21.4h-3.4v-16.3l-12.8,16.3H-543.6z"/>
	<path class="st6" d="M-499.7,729.4v3.2h-1.9c-2.9,0-3.8-1.2-3.9-3.3c-1.3,1.9-3.5,3.6-7.2,3.6c-4.7,0-7.9-2.4-7.9-6.3
		c0-4.3,3-6.7,8.6-6.7h6.3v-1.5c0-2.8-2-4.5-5.3-4.5c-3,0-5,1.4-5.5,3.6h-3.4c0.5-4.2,3.9-6.7,9.1-6.7c5.5,0,8.6,2.7,8.6,7.7v9.4
		c0,1.1,0.4,1.4,1.4,1.4H-499.7z M-505.6,722.8h-6.6c-3.1,0-4.8,1.1-4.8,3.6c0,2.1,1.8,3.5,4.7,3.5c4.3,0,6.8-2.5,6.8-6V722.8z"/>
	<path class="st6" d="M-497.1,732.5v-21.4h13.7v3.2h-10.3v18.3H-497.1z"/>
	<path class="st6" d="M-465,711.1h3.4v21.4h-3.4v-9.3H-477v9.3h-3.4v-21.4h3.4v8.9h12.1V711.1z"/>
	<path class="st6" d="M-457.6,721.8c0-6.5,4.4-11,10.6-11s10.6,4.5,10.6,11s-4.4,11-10.6,11S-457.6,728.3-457.6,721.8z
		 M-439.8,721.8c0-4.6-2.9-7.9-7.1-7.9s-7.1,3.3-7.1,7.9s2.9,7.9,7.1,7.9S-439.8,726.4-439.8,721.8z"/>
	<path class="st6" d="M-433.1,721.9c0-6.6,4.2-11,10.5-11c5.3,0,8.6,2.9,9.5,7.6h-3.6c-0.6-2.9-2.7-4.6-5.9-4.6
		c-4.1,0-6.9,3.3-6.9,7.9s2.8,7.9,6.9,7.9c3.1,0,5.2-1.8,5.8-4.5h3.7c-0.8,4.6-4.3,7.6-9.5,7.6C-429,732.8-433.1,728.6-433.1,721.9z
		"/>
	<path class="st6" d="M-404.4,732.5v-18.3h-7.7v-3.2h18.9v3.2h-7.7v18.3H-404.4z"/>
	<path class="st6" d="M-390.3,732.5v-21.4h3.4v16.2l12.8-16.2h3v21.4h-3.4v-16.3l-12.8,16.3H-390.3z"/>
	<path class="st6" d="M-366.5,732.5v-21.4h3.4v8.9h4.6l6.7-8.9h4l-7.8,10.3l8.5,11.1h-4.2l-7.1-9.3h-4.6v9.3H-366.5z"/>
	<path class="st6" d="M-346.4,721.8c0-6.5,4.4-11,10.6-11s10.6,4.5,10.6,11s-4.4,11-10.6,11S-346.4,728.3-346.4,721.8z
		 M-328.6,721.8c0-4.6-2.9-7.9-7.1-7.9s-7.1,3.3-7.1,7.9s2.9,7.9,7.1,7.9S-328.6,726.4-328.6,721.8z"/>
	<path class="st6" d="M-321.2,732.5v-21.4h3.4v16.2l12.8-16.2h3v21.4h-3.4v-16.3l-12.8,16.3H-321.2z M-317.8,702.9h2.9
		c0,2.1,0.9,3.3,3.3,3.3s3.4-1.3,3.4-3.3h2.9c-0.1,3.5-2.2,5.8-6.3,5.8C-315.7,708.7-317.7,706.5-317.8,702.9z"/>
	<path class="st6" d="M-792.3,772.2c0,6.6-4.4,11-10.3,11c-3.6,0-6-1.5-7.4-3.5v11.7h-3.4v-29.8h3l0.5,3.4c1.4-2,3.7-3.7,7.4-3.7
		C-796.7,761.3-792.3,765.3-792.3,772.2z M-795.9,772.2c0-4.7-2.9-7.9-7.1-7.9c-4.2,0-7.1,3.2-7.1,7.8c0,4.7,2.9,8,7.1,8
		C-798.7,780.1-795.9,776.9-795.9,772.2z"/>
	<path class="st6" d="M-768.4,779.8v3.2h-1.9c-2.9,0-3.8-1.2-3.9-3.3c-1.3,1.9-3.5,3.6-7.2,3.6c-4.7,0-7.9-2.4-7.9-6.3
		c0-4.3,3-6.7,8.6-6.7h6.3v-1.5c0-2.8-2-4.5-5.3-4.5c-3,0-5,1.4-5.5,3.6h-3.4c0.5-4.2,3.9-6.7,9.1-6.7c5.5,0,8.6,2.7,8.6,7.7v9.4
		c0,1.1,0.4,1.4,1.4,1.4H-768.4z M-774.3,773.2h-6.6c-3.1,0-4.8,1.1-4.8,3.6c0,2.1,1.8,3.5,4.7,3.5c4.3,0,6.8-2.5,6.8-6V773.2z"/>
	<path class="st6" d="M-748.5,776.8c0,3.9-3.6,6.4-9.4,6.4c-6.1,0-8.7-2.5-8.9-6.8h3.6c0.5,2.6,1.8,3.9,5.4,3.9
		c3.6,0,5.8-1.3,5.8-3.5c0-2.3-1.6-3.2-4.3-3.2h-3.7v-3h3.4c2.5,0,4-0.9,4-3.2c0-1.9-1.9-3.2-5.1-3.2c-3.5,0-5,1.5-5.5,3.8h-3.6
		c0.3-4,3.6-6.7,9.1-6.7c5.4,0,8.6,2.4,8.6,6c0,2.6-1.6,4.2-3.8,4.6C-750.1,772.4-748.5,774-748.5,776.8z"/>
	<path class="st6" d="M-747.2,782.9v-3.2h0.6c2.4,0,3.4-1.5,3.4-7.9v-10.4h16.2v21.4h-3.4v-18.3h-9.4v7.4c0,8.5-2,10.9-6.2,10.9
		H-747.2z"/>
	<path class="st6" d="M-722.3,782.9v-21.4h3.4v16.2l12.8-16.2h3v21.4h-3.4v-16.3l-12.8,16.3H-722.3z"/>
	<path class="st6" d="M-685,761.5h3.4v21.4h-3.4v-8.6c-1.6,1.1-3.9,1.6-6,1.6c-5.2,0-8.4-2.3-8.4-7.8v-6.7h3.4v6.1
		c0,3.9,1.9,5.3,5.6,5.3c2.1,0,3.9-0.5,5.3-1.7V761.5z"/>
	<path class="st6" d="M-661.3,761.5h3.4v21.4h-3.4v-9.3h-12.1v9.3h-3.4v-21.4h3.4v8.9h12.1V761.5z"/>
	<path class="st6" d="M-653.2,782.9v-21.4h3.4v7h5.5c5.3,0,8.4,2.6,8.4,7.2c0,4.5-3.1,7.2-8.4,7.2H-653.2z M-649.7,780h4.9
		c3.5,0,5.5-1.6,5.5-4.3c0-2.8-1.9-4.3-5.5-4.3h-4.9V780z M-632.4,782.9v-21.4h3.4v21.4H-632.4z"/>
	<path class="st6" d="M-618.3,771.9l-7.6-10.4h4.1l5.7,7.9l5.8-7.9h3.9l-7.6,10.4l8.2,11h-4.1l-6.3-8.6l-6.3,8.6h-3.9L-618.3,771.9z
		"/>
	<path class="st6" d="M-593.3,772.3c0-6.6,4.2-11,10.5-11c5.3,0,8.6,2.9,9.5,7.6h-3.6c-0.6-2.9-2.7-4.6-5.9-4.6
		c-4.1,0-6.9,3.3-6.9,7.9s2.8,7.9,6.9,7.9c3.1,0,5.2-1.8,5.8-4.5h3.7c-0.8,4.6-4.3,7.6-9.5,7.6C-589.2,783.2-593.3,779-593.3,772.3z
		"/>
	<path class="st6" d="M-569.6,782.9v-21.4h3.4v16.2l12.8-16.2h3v21.4h-3.4v-16.3l-12.8,16.3H-569.6z"/>
	<path class="st6" d="M-546.5,772.3c0-6.6,4.2-11,10.5-11c5.3,0,8.6,2.9,9.5,7.6h-3.6c-0.6-2.9-2.7-4.6-5.9-4.6
		c-4.1,0-6.9,3.3-6.9,7.9s2.8,7.9,6.9,7.9c3.1,0,5.2-1.8,5.8-4.5h3.7c-0.8,4.6-4.3,7.6-9.5,7.6C-542.4,783.2-546.5,779-546.5,772.3z
		"/>
	<path class="st6" d="M-517.7,782.9v-18.3h-7.7v-3.2h18.9v3.2h-7.7v18.3H-517.7z"/>
	<path class="st6" d="M-505.7,772.2c0-6.5,4.1-11,10.2-11c6,0,10,3.8,10.2,10.2c0,0.5,0,1-0.1,1.5H-502v0.3c0.1,4.1,2.7,6.9,6.8,6.9
		c3,0,5.4-1.6,6.1-4.4h3.5c-0.8,4.3-4.4,7.4-9.3,7.4C-501.5,783.2-505.7,778.8-505.7,772.2z M-489,770c-0.3-3.7-2.9-5.8-6.4-5.8
		c-3.2,0-6,2.3-6.4,5.8H-489z"/>
	<path class="st6" d="M-481.4,782.9v-21.4h4.2l8.2,17.2l8.1-17.2h4.1l0.1,21.4h-3.3v-16.2l-7.7,16.2h-2.8l-7.7-16.2v16.2H-481.4z"/>
	<path class="st6" d="M-793.1,823.3c0,5.9-4.2,10.3-10.5,10.3c-6.4,0-10.5-3.9-10.5-12c0-11.5,2.7-15.8,12-17l7.3-0.9v3.2l-6.5,0.8
		c-6.7,0.9-8.7,2.6-9.3,9c1.5-2.1,4.2-3.4,7.9-3.4C-797.2,813.3-793.1,817.3-793.1,823.3z M-796.5,823.5c0-4.1-2.9-7.1-6.9-7.1
		c-4.2,0-7.1,3-7.1,6.7c0,4.8,2.9,7.6,7,7.6C-799.4,830.6-796.5,827.6-796.5,823.5z"/>
	<path class="st6" d="M-789.9,822.6c0-6.5,4.1-11,10.2-11c6,0,10,3.8,10.2,10.2c0,0.5,0,1-0.1,1.5h-16.6v0.3
		c0.1,4.1,2.7,6.9,6.8,6.9c3,0,5.4-1.6,6.1-4.4h3.5c-0.8,4.3-4.4,7.4-9.3,7.4C-785.7,833.6-789.9,829.2-789.9,822.6z M-773.2,820.4
		c-0.3-3.7-2.9-5.8-6.4-5.8c-3.2,0-6,2.3-6.4,5.8H-773.2z"/>
	<path class="st6" d="M-748.7,827.2c0,3.9-3.6,6.4-9.4,6.4c-6.1,0-8.7-2.5-8.9-6.8h3.6c0.5,2.6,1.8,3.9,5.4,3.9
		c3.6,0,5.8-1.3,5.8-3.5c0-2.3-1.6-3.2-4.3-3.2h-3.7v-3h3.4c2.5,0,4-0.9,4-3.2c0-1.9-1.9-3.2-5.1-3.2c-3.5,0-5,1.5-5.5,3.8h-3.6
		c0.3-4,3.6-6.7,9.1-6.7c5.4,0,8.6,2.4,8.6,6c0,2.6-1.6,4.2-3.8,4.6C-750.3,822.8-748.7,824.4-748.7,827.2z"/>
	<path class="st6" d="M-745.6,822.6c0-6.5,4.4-11,10.6-11s10.6,4.5,10.6,11s-4.4,11-10.6,11S-745.6,829.1-745.6,822.6z
		 M-727.9,822.6c0-4.6-2.9-7.9-7.1-7.9s-7.1,3.3-7.1,7.9s2.9,7.9,7.1,7.9S-727.9,827.2-727.9,822.6z"/>
	<path class="st6" d="M-720.4,833.3v-21.4h18.5v21.4h-3.4v-18.3H-717v18.3H-720.4z"/>
	<path class="st6" d="M-677.2,830.2v3.2h-1.9c-2.9,0-3.8-1.2-3.9-3.3c-1.3,1.9-3.5,3.6-7.2,3.6c-4.7,0-7.9-2.4-7.9-6.3
		c0-4.3,3-6.7,8.6-6.7h6.3v-1.5c0-2.8-2-4.5-5.3-4.5c-3,0-5,1.4-5.5,3.6h-3.4c0.5-4.2,3.9-6.7,9.1-6.7c5.5,0,8.6,2.7,8.6,7.7v9.4
		c0,1.1,0.4,1.4,1.4,1.4H-677.2z M-683.1,823.6h-6.6c-3.1,0-4.8,1.1-4.8,3.6c0,2.1,1.8,3.5,4.7,3.5c4.3,0,6.8-2.5,6.8-6V823.6z"/>
	<path class="st6" d="M-675.3,822.7c0-6.6,4.2-11,10.5-11c5.3,0,8.6,2.9,9.5,7.6h-3.6c-0.6-2.9-2.7-4.6-5.9-4.6
		c-4.1,0-6.9,3.3-6.9,7.9s2.8,7.9,6.9,7.9c3.1,0,5.2-1.8,5.8-4.5h3.7c-0.8,4.6-4.3,7.6-9.5,7.6
		C-671.2,833.6-675.3,829.4-675.3,822.7z"/>
	<path class="st6" d="M-636.1,811.9h3.4v21.4h-3.4V824h-12.1v9.3h-3.4v-21.4h3.4v8.9h12.1V811.9z"/>
	<path class="st6" d="M-628.7,822.6c0-6.5,4.4-11,10.6-11s10.6,4.5,10.6,11s-4.4,11-10.6,11S-628.7,829.1-628.7,822.6z M-611,822.6
		c0-4.6-2.9-7.9-7.1-7.9s-7.1,3.3-7.1,7.9s2.9,7.9,7.1,7.9S-611,827.2-611,822.6z"/>
	<path class="st6" d="M-604.3,822.7c0-6.6,4.2-11,10.5-11c5.3,0,8.6,2.9,9.5,7.6h-3.6c-0.6-2.9-2.7-4.6-5.9-4.6
		c-4.1,0-6.9,3.3-6.9,7.9s2.8,7.9,6.9,7.9c3.1,0,5.2-1.8,5.8-4.5h3.7c-0.8,4.6-4.3,7.6-9.5,7.6
		C-600.2,833.6-604.3,829.4-604.3,822.7z"/>
	<path class="st6" d="M-575.5,833.3v-18.3h-7.7v-3.2h18.9v3.2h-7.7v18.3H-575.5z"/>
	<path class="st6" d="M-561.5,833.3v-21.4h3.4v16.2l12.8-16.2h3v21.4h-3.4v-16.3l-12.8,16.3H-561.5z"/>
	<path class="st6" d="M-532.8,833.2c0,3.6-2.2,5.7-5.9,5.8v-2c2.7,0,3.5-1.9,3.5-3.4c0-0.2,0-0.4,0-0.5c-0.3,0.3-0.9,0.5-1.4,0.5
		c-1.3,0-2.2-0.8-2.2-2.3c0-1.4,1-2.4,2.8-2.4C-534,828.9-532.8,830.9-532.8,833.2z"/>
	<path class="st6" d="M-518,833.3v-21.4h4.2l8.2,17.2l8.1-17.2h4.1l0.1,21.4h-3.3v-16.2l-7.7,16.2h-2.8l-7.7-16.2v16.2H-518z"/>
	<path class="st6" d="M-490.6,811.9h3.7l6.6,17.1l6.4-17.1h3.7l-9.9,25c-1.3,3.4-2.1,4.8-5.2,4.8h-4.1v-3.2h3.1c2,0,2.3-0.5,3.1-2.5
		l1-2.6L-490.6,811.9z"/>
	<path class="st6" d="M-471,833.3v-3.2h0.6c2.4,0,3.4-1.5,3.4-7.9v-10.4h16.2v21.4h-3.4v-18.3h-9.4v7.4c0,8.5-2,10.9-6.2,10.9H-471z
		"/>
	<path class="st6" d="M-446.1,833.3v-21.4h3.4v7h5.8c5.3,0,8.4,2.6,8.4,7.2c0,4.5-3.1,7.2-8.4,7.2H-446.1z M-442.7,830.4h5.2
		c3.5,0,5.5-1.6,5.5-4.3c0-2.8-1.9-4.3-5.5-4.3h-5.2V830.4z"/>
	<path class="st6" d="M-421.6,833.3v-18.3h-7.7v-3.2h18.9v3.2h-7.7v18.3H-421.6z"/>
	<path class="st6" d="M-407.6,833.3v-21.4h3.4v16.2l12.8-16.2h3v21.4h-3.4v-16.3l-12.8,16.3H-407.6z"/>
	<path class="st6" d="M-362.6,822.6c0,6.6-4.4,11-10.3,11c-3.6,0-6-1.5-7.4-3.5v11.7h-3.4v-29.8h3l0.5,3.4c1.4-2,3.7-3.7,7.4-3.7
		C-367,811.7-362.6,815.7-362.6,822.6z M-366.1,822.6c0-4.7-2.9-7.9-7.1-7.9c-4.2,0-7.1,3.2-7.1,7.8c0,4.7,2.9,8,7.1,8
		C-369,830.5-366.1,827.3-366.1,822.6z"/>
	<path class="st6" d="M-361.9,811.9h3.7l6.6,17.1l6.4-17.1h3.7l-9.9,25c-1.3,3.4-2.1,4.8-5.2,4.8h-4.1v-3.2h3.1c2,0,2.3-0.5,3.1-2.5
		l1-2.6L-361.9,811.9z"/>
	<path class="st6" d="M-339,833.3v-21.4h4.2l8.2,17.2l8.1-17.2h4.1l0.1,21.4h-3.3v-16.2l-7.7,16.2h-2.8l-7.7-16.2v16.2H-339z"/>
	<path class="st6" d="M-298.6,833.3v-21.4h3.4v16.2l12.8-16.2h3v21.4h-3.4v-16.3l-12.8,16.3H-298.6z"/>
	<path class="st6" d="M-813.4,883.7v-21.4h9.1c5.3,0,7.9,2.1,7.9,5.8c0,2.7-1.8,4.2-3.5,4.6c2.5,0.4,4.3,1.9,4.3,4.9
		c0,4.2-2.9,6.2-8.5,6.2H-813.4z M-810,871.4h6c2.9,0,4.1-1.2,4.1-3.1c0-2.1-1.2-3.1-4.1-3.1h-6V871.4z M-810,880.8h6.3
		c2.9,0,4.5-1,4.5-3.2c0-2.1-1.6-3.3-4.5-3.3h-6.3V880.8z"/>
	<path class="st6" d="M-776.3,862.3h3.4v21.4h-3.4v-9.3h-12.1v9.3h-3.4v-21.4h3.4v8.9h12.1V862.3z"/>
	<path class="st6" d="M-769,873c0-6.5,4.1-11,10.2-11c6,0,10,3.8,10.2,10.2c0,0.5,0,1-0.1,1.5h-16.6v0.3c0.1,4.1,2.7,6.9,6.8,6.9
		c3,0,5.4-1.6,6.1-4.4h3.5c-0.8,4.3-4.4,7.4-9.3,7.4C-764.8,884-769,879.6-769,873z M-752.3,870.8c-0.3-3.7-2.9-5.8-6.4-5.8
		c-3.2,0-6,2.3-6.4,5.8H-752.3z"/>
	<path class="st6" d="M-726.4,880.6h3.4v8.8h-3.4v-5.7h-17.5v5.7h-3.4v-8.8h2.2c1.6-1.2,2.4-2.7,2.4-9.3v-8.9h16.4V880.6z
		 M-729.9,880.6v-15.1h-9.6v6.2c0,4.9-0.5,7.3-1.6,8.9H-729.9z"/>
	<path class="st6" d="M-698.4,873c0,6.6-4.4,11-10.3,11c-3.6,0-6-1.5-7.4-3.5v11.7h-3.4v-29.8h3l0.5,3.4c1.4-2,3.7-3.7,7.4-3.7
		C-702.8,862.1-698.4,866.1-698.4,873z M-702,873c0-4.7-2.9-7.9-7.1-7.9c-4.2,0-7.1,3.2-7.1,7.8c0,4.7,2.9,8,7.1,8
		C-704.8,880.9-702,877.7-702,873z"/>
	<path class="st6" d="M-695.2,873c0-6.5,4.1-11,10.2-11c6,0,10,3.8,10.2,10.2c0,0.5,0,1-0.1,1.5h-16.6v0.3c0.1,4.1,2.7,6.9,6.8,6.9
		c3,0,5.4-1.6,6.1-4.4h3.5c-0.8,4.3-4.4,7.4-9.3,7.4C-691,884-695.2,879.6-695.2,873z M-678.6,870.8c-0.3-3.7-2.9-5.8-6.4-5.8
		c-3.2,0-6,2.3-6.4,5.8H-678.6z"/>
	<path class="st6" d="M-655.5,862.3h3.4v21.4h-3.4v-9.3h-12.1v9.3h-3.4v-21.4h3.4v8.9h12.1V862.3z"/>
	<path class="st6" d="M-647.3,883.7v-21.4h3.4v16.2l12.8-16.2h3v21.4h-3.4v-16.3l-12.8,16.3H-647.3z"/>
	<path class="st6" d="M-624.2,873c0-6.5,4.1-11,10.2-11c6,0,10,3.8,10.2,10.2c0,0.5,0,1-0.1,1.5h-16.6v0.3c0.1,4.1,2.7,6.9,6.8,6.9
		c3,0,5.4-1.6,6.1-4.4h3.5c-0.8,4.3-4.4,7.4-9.3,7.4C-620,884-624.2,879.6-624.2,873z M-607.6,870.8c-0.3-3.7-2.9-5.8-6.4-5.8
		c-3.2,0-6,2.3-6.4,5.8H-607.6z"/>
	<path class="st6" d="M-600,883.7v-21.4h4.2l8.2,17.2l8.1-17.2h4.1l0.1,21.4h-3.3v-16.2l-7.7,16.2h-2.8l-7.7-16.2v16.2H-600z"/>
	<path class="st6" d="M-553.6,883.7v-18.3h-7.7v-3.2h18.9v3.2h-7.7v18.3H-553.6z"/>
	<path class="st6" d="M-541.5,873c0-6.5,4.1-11,10.2-11c6,0,10,3.8,10.2,10.2c0,0.5,0,1-0.1,1.5h-16.6v0.3c0.1,4.1,2.7,6.9,6.8,6.9
		c3,0,5.4-1.6,6.1-4.4h3.5c-0.8,4.3-4.4,7.4-9.3,7.4C-537.3,884-541.5,879.6-541.5,873z M-524.9,870.8c-0.3-3.7-2.9-5.8-6.4-5.8
		c-3.2,0-6,2.3-6.4,5.8H-524.9z"/>
	<path class="st6" d="M-512.3,872.7l-7.6-10.4h4.1l5.7,7.9l5.8-7.9h3.9l-7.6,10.4l8.2,11h-4.1l-6.3-8.6l-6.3,8.6h-3.9L-512.3,872.7z
		"/>
	<path class="st6" d="M-482,862.3h3.4v21.4h-3.4v-9.3H-494v9.3h-3.4v-21.4h3.4v8.9h12.1V862.3z"/>
	<path class="st6" d="M-474.6,873c0-6.5,4.4-11,10.6-11s10.6,4.5,10.6,11s-4.4,11-10.6,11S-474.6,879.5-474.6,873z M-456.9,873
		c0-4.6-2.9-7.9-7.1-7.9s-7.1,3.3-7.1,7.9s2.9,7.9,7.1,7.9S-456.9,877.6-456.9,873z"/>
	<path class="st6" d="M-452.3,883.7v-3.2h0.6c2.4,0,3.4-1.5,3.4-7.9v-10.4h16.2v21.4h-3.4v-18.3h-9.4v7.4c0,8.5-2,10.9-6.2,10.9
		H-452.3z"/>
	<path class="st6" d="M-428.1,873c0-6.5,4.4-11,10.6-11s10.6,4.5,10.6,11s-4.4,11-10.6,11S-428.1,879.5-428.1,873z M-410.4,873
		c0-4.6-2.9-7.9-7.1-7.9s-7.1,3.3-7.1,7.9s2.9,7.9,7.1,7.9S-410.4,877.6-410.4,873z"/>
	<path class="st6" d="M-402.9,883.7v-21.4h13.7v3.2h-10.3v18.3H-402.9z"/>
	<path class="st6" d="M-386.3,883.7v-21.4h3.4v16.2l12.8-16.2h3v21.4h-3.4v-16.3l-12.8,16.3H-386.3z"/>
	<path class="st6" d="M-362.5,883.7v-21.4h3.4v16.2l12.8-16.2h3v21.4h-3.4v-16.3l-12.8,16.3H-362.5z"/>
	<path class="st6" d="M-815.6,912.7h3.7l6.6,17.1l6.4-17.1h3.7l-9.9,25c-1.3,3.4-2.1,4.8-5.2,4.8h-4.1v-3.2h3.1c2,0,2.3-0.5,3.1-2.5
		l1-2.6L-815.6,912.7z"/>
	<path class="st6" d="M-792.7,934.1v-21.4h4.2l8.2,17.2l8.1-17.2h4.1l0.1,21.4h-3.3V918l-7.7,16.2h-2.8l-7.7-16.2v16.2H-792.7z"/>
	<path class="st6" d="M-747.7,912.7h3.4v21.4h-3.4v-9.3h-12.1v9.3h-3.4v-21.4h3.4v8.9h12.1V912.7z"/>
	<path class="st6" d="M-739.6,934.1v-21.4h3.4v7h5.5c5.3,0,8.4,2.6,8.4,7.2c0,4.5-3.1,7.2-8.4,7.2H-739.6z M-736.2,931.2h4.9
		c3.5,0,5.5-1.6,5.5-4.3c0-2.8-1.9-4.3-5.5-4.3h-4.9V931.2z M-718.8,934.1v-21.4h3.4v21.4H-718.8z"/>
	<path class="st6" d="M-710.7,934.1v-21.4h3.4v16.2l12.8-16.2h3v21.4h-3.4v-16.3l-12.8,16.3H-710.7z M-707.3,904.5h2.9
		c0,2.1,0.9,3.3,3.3,3.3s3.4-1.3,3.4-3.3h2.9c-0.1,3.5-2.2,5.8-6.3,5.8C-705.2,910.3-707.2,908.1-707.3,904.5z"/>
	<path class="st6" d="M-656.9,931h3.4v8.8h-3.4v-5.7h-17.5v5.7h-3.4V931h2.2c1.6-1.2,2.4-2.7,2.4-9.3v-8.9h16.4V931z M-660.3,931
		v-15.1h-9.6v6.2c0,4.9-0.5,7.3-1.6,8.9H-660.3z"/>
	<path class="st6" d="M-651.9,923.4c0-6.5,4.4-11,10.6-11s10.6,4.5,10.6,11s-4.4,11-10.6,11S-651.9,929.9-651.9,923.4z
		 M-634.2,923.4c0-4.6-2.9-7.9-7.1-7.9s-7.1,3.3-7.1,7.9s2.9,7.9,7.1,7.9S-634.2,928-634.2,923.4z"/>
	<path class="st6" d="M-626.7,934.1v-21.4h4.2l8.2,17.2l8.1-17.2h4.1l0.1,21.4h-3.3V918l-7.7,16.2h-2.8l-7.7-16.2v16.2H-626.7z"/>
	<path class="st6" d="M-595.3,929.7c1.4,0,2.4,0.9,2.4,2.4c0,1.4-1,2.4-2.4,2.4s-2.4-0.9-2.4-2.4
		C-597.7,930.6-596.7,929.7-595.3,929.7z"/>
</g>
<g>
	<g>
		<path class="st6" d="M1588.5,388.5c0,4-3.3,6.7-8.4,6.7s-8.3-2.8-8.3-7.4h2.8c0,3.1,2.4,4.9,5.7,4.9c3,0,5.4-1.7,5.4-4.4
			c0-2.4-2-4-5.6-4h-2v-2.4h1.8c3.5,0,5.2-1.7,5.2-4.1s-2.1-3.8-4.9-3.8c-2.9,0-5.1,1.8-5.1,4.4h-2.8c0-4.1,3.2-6.9,7.8-6.9
			c4.8,0,7.8,2.5,7.8,6.2c0,2.9-1.5,4.6-3.8,5.2C1586.2,383.3,1588.5,385,1588.5,388.5z"/>
		<path class="st6" d="M1589.4,371.7h16.5v2l-11.5,21.4h-3l11.4-20.8h-13.4V371.7z"/>
		<path class="st6" d="M1607.1,382.8c0-6.6,3.6-11.3,8.9-11.3c5.2,0,8.8,4.7,8.8,11.3v1.1c0,7-3.6,11.3-8.8,11.3
			c-5.3,0-8.9-4.4-8.9-11.3V382.8z M1622,382.9c0-5.5-2.4-8.9-6-8.9c-3.6,0-6,3.3-6,8.9v0.9c0,5.5,2.4,8.9,6,8.9c3.6,0,6-3.3,6-8.9
			V382.9z"/>
		<path class="st6" d="M1637.3,395v-23.3h7.5c7.3,0,11.7,4.7,11.7,11.7c0,7-4.4,11.7-11.7,11.7H1637.3z M1640.2,392.3h4.6
			c5.7,0,8.8-3.6,8.8-9c0-5.5-3.1-9-8.8-9h-4.6V392.3z"/>
		<path class="st6" d="M1659.3,383.3c0-7.1,4.4-11.9,11.1-11.9c5.2,0,9.1,3,9.9,7.8h-3.1c-0.8-3.2-3.3-5.1-6.8-5.1
			c-4.9,0-8.1,3.8-8.1,9.2c0,5.4,3.2,9.2,8,9.2c4.3,0,7.4-2.6,7.4-6.7V385h-7v-2.7h9.8V395h-2.5l-0.2-3.4c-1.1,1.7-3.6,3.6-7.6,3.6
			C1663.8,395.2,1659.3,390.4,1659.3,383.3z"/>
	</g>
</g>
<g>
	<g>
		<path class="st6" d="M1575.8,297.7h19.8c10.3,0,17.2,6.2,17.2,15.9c0,7.2-4.4,12.9-11,14.7l11.6,21.1h-7.2l-10.9-19.9h-13v19.9
			h-6.4V297.7z M1582.3,303.7v20h12.8c6.8,0,11.2-4,11.2-10c0-6.1-4.4-10-11.1-10H1582.3z"/>
		<path class="st6" d="M1617,331v-5.1h24.6v5.1H1617z"/>
		<path class="st6" d="M1648.9,322.4c0-14.7,8-25.1,19.6-25.1c11.6,0,19.6,10.4,19.6,25.1v2.4c0,15.4-8,25.1-19.6,25.1
			c-11.7,0-19.6-9.7-19.6-25.1V322.4z M1681.9,322.6c0-12.3-5.3-19.6-13.3-19.6c-8,0-13.4,7.4-13.4,19.6v1.9
			c0,12.3,5.3,19.6,13.4,19.6c8,0,13.3-7.4,13.3-19.6V322.6z"/>
		<path class="st6" d="M1703.7,297.7h6.1v51.7h-6.2v-37.1c-0.7,0.7-1.9,1-3.5,1h-8.3v-5.5h8.4c2.4,0,3.6-1.8,3.6-4.4V297.7z"/>
	</g>
</g>
<g>
	<g>
		<path class="st6" d="M815.7,1285.5c0,4-3.3,6.7-8.4,6.7s-8.3-2.8-8.3-7.4h2.8c0,3.1,2.4,4.9,5.7,4.9c3,0,5.4-1.7,5.4-4.4
			c0-2.4-2-4-5.6-4h-2v-2.4h1.8c3.5,0,5.2-1.7,5.2-4.1s-2.1-3.8-4.9-3.8c-2.9,0-5.1,1.8-5.1,4.4h-2.8c0-4.1,3.2-6.9,7.8-6.9
			c4.8,0,7.8,2.5,7.8,6.2c0,2.9-1.5,4.6-3.8,5.2C813.4,1280.2,815.7,1281.9,815.7,1285.5z"/>
		<path class="st6" d="M816.6,1268.6h16.5v2l-11.5,21.4h-3l11.4-20.8h-13.4V1268.6z"/>
		<path class="st6" d="M834.3,1279.8c0-6.6,3.6-11.3,8.9-11.3c5.2,0,8.8,4.7,8.8,11.3v1.1c0,7-3.6,11.3-8.8,11.3
			c-5.3,0-8.9-4.4-8.9-11.3V1279.8z M849.2,1279.9c0-5.5-2.4-8.9-6-8.9c-3.6,0-6,3.3-6,8.9v0.9c0,5.5,2.4,8.9,6,8.9
			c3.6,0,6-3.3,6-8.9V1279.9z"/>
		<path class="st6" d="M864.5,1292v-23.3h7.5c7.3,0,11.7,4.7,11.7,11.7c0,7-4.4,11.7-11.7,11.7H864.5z M867.4,1289.3h4.6
			c5.7,0,8.8-3.6,8.8-9c0-5.5-3.1-9-8.8-9h-4.6V1289.3z"/>
		<path class="st6" d="M886.5,1280.3c0-7.1,4.4-11.9,11.1-11.9c5.2,0,9.1,3,9.9,7.8h-3.1c-0.8-3.2-3.3-5.1-6.8-5.1
			c-4.9,0-8.1,3.8-8.1,9.2s3.2,9.2,8,9.2c4.3,0,7.4-2.6,7.4-6.7v-0.8h-7v-2.7h9.8v12.6h-2.5l-0.2-3.4c-1.1,1.7-3.6,3.6-7.6,3.6
			C891,1292.2,886.5,1287.4,886.5,1280.3z"/>
	</g>
</g>
<g>
	<g>
		<path class="st6" d="M803,1194.7h19.8c10.3,0,17.2,6.2,17.2,15.9c0,7.2-4.4,12.9-11,14.7l11.6,21.1h-7.2l-10.9-19.9h-13v19.9H803
			V1194.7z M809.4,1200.6v20h12.9c6.8,0,11.2-4,11.2-10s-4.4-10-11.1-10H809.4z"/>
		<path class="st6" d="M844.2,1227.9v-5.1h24.6v5.1H844.2z"/>
		<path class="st6" d="M876.1,1219.4c0-14.7,8-25.1,19.6-25.1c11.6,0,19.6,10.4,19.6,25.1v2.4c0,15.4-8,25.1-19.6,25.1
			c-11.7,0-19.6-9.7-19.6-25.1V1219.4z M909.1,1219.6c0-12.3-5.3-19.6-13.3-19.6c-8,0-13.4,7.4-13.4,19.6v1.9
			c0,12.3,5.3,19.6,13.4,19.6c8,0,13.3-7.4,13.3-19.6V1219.6z"/>
		<path class="st6" d="M930.9,1194.7h6.1v51.7h-6.2v-37.1c-0.7,0.7-1.9,1-3.5,1h-8.3v-5.5h8.4c2.4,0,3.6-1.8,3.6-4.4V1194.7z"/>
	</g>
</g>
<g>
	<g>
		<path class="st6" d="M2061.4,1262.7c0,4-3.3,6.7-8.4,6.7c-5.1,0-8.3-2.8-8.3-7.4h2.8c0,3.1,2.4,4.9,5.7,4.9c3,0,5.4-1.7,5.4-4.4
			c0-2.4-2-4-5.6-4h-2v-2.4h1.8c3.5,0,5.2-1.7,5.2-4.1s-2.1-3.8-4.9-3.8c-2.9,0-5.1,1.8-5.1,4.4h-2.8c0-4.1,3.2-6.9,7.8-6.9
			c4.8,0,7.8,2.5,7.8,6.2c0,2.9-1.5,4.6-3.8,5.2C2059.2,1257.4,2061.4,1259.1,2061.4,1262.7z"/>
		<path class="st6" d="M2062.4,1245.8h16.5v2l-11.5,21.4h-3l11.4-20.8h-13.4V1245.8z"/>
		<path class="st6" d="M2080.1,1257c0-6.6,3.6-11.3,8.9-11.3c5.2,0,8.8,4.7,8.8,11.3v1.1c0,7-3.6,11.3-8.8,11.3
			c-5.3,0-8.9-4.4-8.9-11.3V1257z M2095,1257.1c0-5.5-2.4-8.9-6-8.9c-3.6,0-6,3.3-6,8.9v0.9c0,5.5,2.4,8.9,6,8.9c3.6,0,6-3.3,6-8.9
			V1257.1z"/>
		<path class="st6" d="M2110.2,1269.2v-23.3h7.5c7.3,0,11.7,4.7,11.7,11.7c0,7-4.4,11.7-11.7,11.7H2110.2z M2113.1,1266.5h4.6
			c5.7,0,8.8-3.6,8.8-9c0-5.5-3.1-9-8.8-9h-4.6V1266.5z"/>
		<path class="st6" d="M2132.2,1257.5c0-7.1,4.4-11.9,11.1-11.9c5.2,0,9.1,3,9.9,7.8h-3.1c-0.8-3.2-3.3-5.1-6.8-5.1
			c-4.9,0-8.1,3.8-8.1,9.2s3.2,9.2,8,9.2c4.3,0,7.4-2.6,7.4-6.7v-0.8h-7v-2.7h9.8v12.6h-2.5l-0.2-3.4c-1.1,1.7-3.6,3.6-7.6,3.6
			C2136.7,1269.4,2132.2,1264.6,2132.2,1257.5z"/>
	</g>
</g>
<g>
	<g>
		<path class="st6" d="M2048.8,1171.9h19.8c10.3,0,17.2,6.2,17.2,15.9c0,7.2-4.4,12.9-11,14.7l11.6,21.1h-7.2l-10.9-19.9h-13v19.9
			h-6.4V1171.9z M2055.2,1177.8v20h12.9c6.8,0,11.2-4,11.2-10s-4.4-10-11.1-10H2055.2z"/>
		<path class="st6" d="M2090,1205.1v-5.1h24.6v5.1H2090z"/>
		<path class="st6" d="M2121.9,1196.6c0-14.7,8-25.1,19.6-25.1c11.6,0,19.6,10.4,19.6,25.1v2.4c0,15.4-8,25.1-19.6,25.1
			c-11.7,0-19.6-9.7-19.6-25.1V1196.6z M2154.8,1196.8c0-12.3-5.3-19.6-13.3-19.6c-8,0-13.4,7.4-13.4,19.6v1.9
			c0,12.3,5.3,19.6,13.4,19.6c8,0,13.3-7.4,13.3-19.6V1196.8z"/>
		<path class="st6" d="M2176.6,1171.9h6.1v51.7h-6.2v-37.1c-0.7,0.7-1.9,1-3.5,1h-8.3v-5.5h8.4c2.4,0,3.6-1.8,3.6-4.4V1171.9z"/>
	</g>
</g>
<g>
	<g>
		<path class="st6" d="M799.4,678c0-7.3,3.3-12,8.9-12c4.2,0,7.1,2.5,7.7,6.4h-2.8c-0.5-2.4-2.2-4-5-4c-4.1,0-6.3,3.7-6.3,9
			c0,0.3,0,0.6,0,1.1c0-0.1,0.1-0.3,0.2-0.6c1-2.3,3.4-3.8,6.5-3.8c4.6,0,7.8,3,7.8,7.8c0,4.5-3.3,7.8-8.1,7.8
			c-3.2,0-5.6-1.5-7.1-3.9C800.1,683.8,799.4,681,799.4,678z M808.4,676.6c-3.2,0-5.4,2.2-5.4,5.4c0,3.1,2.1,5.3,5.3,5.3
			c3.2,0,5.3-2.2,5.3-5.4C813.6,678.8,811.6,676.6,808.4,676.6z"/>
		<path class="st6" d="M835.4,683.1c0,4-3.3,6.7-8.4,6.7s-8.3-2.8-8.3-7.4h2.8c0,3.1,2.4,4.9,5.7,4.9c3,0,5.4-1.7,5.4-4.4
			c0-2.4-2-4-5.6-4h-2v-2.4h1.8c3.5,0,5.2-1.7,5.2-4.1s-2.1-3.8-4.9-3.8c-2.9,0-5.1,1.8-5.1,4.4h-2.8c0-4.1,3.2-6.9,7.8-6.9
			c4.8,0,7.8,2.5,7.8,6.2c0,2.9-1.5,4.6-3.8,5.2C833.2,677.8,835.4,679.5,835.4,683.1z"/>
		<path class="st6" d="M838.2,677.3c0-6.6,3.6-11.3,8.9-11.3c5.2,0,8.8,4.7,8.8,11.3v1.1c0,7-3.6,11.3-8.8,11.3
			c-5.3,0-8.9-4.4-8.9-11.3V677.3z M853,677.4c0-5.5-2.4-8.9-6-8.9c-3.6,0-6,3.3-6,8.9v0.9c0,5.5,2.4,8.9,6,8.9c3.6,0,6-3.3,6-8.9
			V677.4z"/>
		<path class="st6" d="M868.3,689.5v-23.3h7.5c7.3,0,11.7,4.7,11.7,11.7c0,7-4.4,11.7-11.7,11.7H868.3z M871.2,686.9h4.6
			c5.7,0,8.8-3.6,8.8-9c0-5.5-3.1-9-8.8-9h-4.6V686.9z"/>
		<path class="st6" d="M890.3,677.9c0-7.1,4.4-11.9,11.1-11.9c5.2,0,9.1,3,9.9,7.8h-3.1c-0.8-3.2-3.3-5.1-6.8-5.1
			c-4.9,0-8.1,3.8-8.1,9.2c0,5.4,3.2,9.2,8,9.2c4.3,0,7.4-2.6,7.4-6.7v-0.8h-7v-2.7h9.8v12.6h-2.5l-0.2-3.4
			c-1.1,1.7-3.6,3.6-7.6,3.6C894.8,689.7,890.3,684.9,890.3,677.9z"/>
	</g>
</g>
<g>
	<g>
		<path class="st6" d="M803,592.3h19.8c10.3,0,17.2,6.2,17.2,15.9c0,7.2-4.4,12.9-11,14.7l11.6,21.1h-7.2l-10.9-19.9h-13v19.9H803
			V592.3z M809.4,598.2v20h12.9c6.8,0,11.2-4,11.2-10c0-6.1-4.4-10-11.1-10H809.4z"/>
		<path class="st6" d="M844.2,625.5v-5.1h24.6v5.1H844.2z"/>
		<path class="st6" d="M876.1,616.9c0-14.7,8-25.1,19.6-25.1c11.6,0,19.6,10.4,19.6,25.1v2.4c0,15.4-8,25.1-19.6,25.1
			c-11.7,0-19.6-9.7-19.6-25.1V616.9z M909.1,617.1c0-12.3-5.3-19.6-13.3-19.6c-8,0-13.4,7.4-13.4,19.6v1.9
			c0,12.3,5.3,19.6,13.4,19.6c8,0,13.3-7.4,13.3-19.6V617.1z"/>
		<path class="st6" d="M920.1,638.7l20.1-17.4c4.8-4.1,8.8-8.1,8.8-13.7c0-6.5-4.4-10.2-11.3-10.2c-6.6,0-11.1,4.4-11.1,11.5v1h-6.2
			v-1.3c0-9.7,6.9-16.7,17.3-16.7c11.2,0,17.7,6.1,17.7,15.4c0,7.8-5,12.6-11.2,17.9l-15.5,13.1h27v5.7h-35.6V638.7z"/>
	</g>
</g>
<g>
	<g>
		<path class="st6" d="M1564.2,1686c0-7.3,3.3-12,8.9-12c4.2,0,7.1,2.5,7.7,6.4h-2.8c-0.5-2.4-2.2-4-5-4c-4.1,0-6.3,3.7-6.3,9
			c0,0.3,0,0.6,0,1.1c0-0.1,0.1-0.3,0.2-0.6c1-2.3,3.4-3.8,6.5-3.8c4.6,0,7.8,3,7.8,7.8c0,4.5-3.3,7.8-8.1,7.8
			c-3.2,0-5.6-1.5-7.1-3.9C1564.9,1691.8,1564.2,1689,1564.2,1686z M1573.2,1684.6c-3.2,0-5.4,2.2-5.4,5.4c0,3.1,2.1,5.3,5.3,5.3
			c3.2,0,5.3-2.2,5.3-5.4C1578.4,1686.8,1576.4,1684.6,1573.2,1684.6z"/>
		<path class="st6" d="M1600.2,1691.1c0,4-3.3,6.7-8.4,6.7c-5.1,0-8.3-2.8-8.3-7.4h2.8c0,3.1,2.4,4.9,5.7,4.9c3,0,5.4-1.7,5.4-4.4
			c0-2.4-2-4-5.6-4h-2v-2.4h1.8c3.5,0,5.2-1.7,5.2-4.1s-2.1-3.8-4.9-3.8c-2.9,0-5.1,1.8-5.1,4.4h-2.8c0-4.1,3.2-6.9,7.8-6.9
			c4.8,0,7.8,2.5,7.8,6.2c0,2.9-1.5,4.6-3.8,5.2C1597.9,1685.8,1600.2,1687.5,1600.2,1691.1z"/>
		<path class="st6" d="M1602.9,1685.3c0-6.6,3.6-11.3,8.9-11.3c5.2,0,8.8,4.7,8.8,11.3v1.1c0,7-3.6,11.3-8.8,11.3
			c-5.3,0-8.9-4.4-8.9-11.3V1685.3z M1617.8,1685.4c0-5.5-2.4-8.9-6-8.9c-3.6,0-6,3.3-6,8.9v0.9c0,5.5,2.4,8.9,6,8.9
			c3.6,0,6-3.3,6-8.9V1685.4z"/>
		<path class="st6" d="M1633.1,1697.5v-23.3h7.5c7.3,0,11.7,4.7,11.7,11.7c0,7-4.4,11.7-11.7,11.7H1633.1z M1636,1694.9h4.6
			c5.7,0,8.8-3.6,8.8-9c0-5.5-3.1-9-8.8-9h-4.6V1694.9z"/>
		<path class="st6" d="M1655.1,1685.9c0-7.1,4.4-11.9,11.1-11.9c5.2,0,9.1,3,9.9,7.8h-3.1c-0.8-3.2-3.3-5.1-6.8-5.1
			c-4.9,0-8.1,3.8-8.1,9.2s3.2,9.2,8,9.2c4.3,0,7.4-2.6,7.4-6.7v-0.8h-7v-2.7h9.8v12.6h-2.5l-0.2-3.4c-1.1,1.7-3.6,3.6-7.6,3.6
			C1659.6,1697.7,1655.1,1692.9,1655.1,1685.9z"/>
	</g>
</g>
<g>
	<g>
		<path class="st6" d="M1567.8,1600.3h19.8c10.3,0,17.2,6.2,17.2,15.9c0,7.2-4.4,12.8-11,14.7l11.6,21.1h-7.2l-10.9-19.9h-13v19.9
			h-6.4V1600.3z M1574.2,1606.2v20h12.9c6.8,0,11.2-4,11.2-10c0-6.1-4.4-10-11.1-10H1574.2z"/>
		<path class="st6" d="M1609,1633.5v-5.1h24.6v5.1H1609z"/>
		<path class="st6" d="M1640.9,1624.9c0-14.7,8-25.1,19.6-25.1c11.6,0,19.6,10.4,19.6,25.1v2.4c0,15.4-8,25.1-19.6,25.1
			c-11.7,0-19.6-9.7-19.6-25.1V1624.9z M1673.8,1625.1c0-12.3-5.3-19.6-13.3-19.6c-8,0-13.4,7.4-13.4,19.6v1.9
			c0,12.3,5.3,19.6,13.4,19.6c8,0,13.3-7.4,13.3-19.6V1625.1z"/>
		<path class="st6" d="M1684.9,1646.7l20.1-17.4c4.8-4.1,8.8-8.1,8.8-13.7c0-6.5-4.4-10.2-11.3-10.2c-6.6,0-11.1,4.4-11.1,11.5v1
			h-6.2v-1.3c0-9.7,6.9-16.7,17.3-16.7c11.2,0,17.7,6.1,17.7,15.4c0,7.8-5,12.6-11.2,17.9l-15.5,13.1h27v5.7h-35.6V1646.7z"/>
	</g>
</g>
<g>
	<g>
		<path class="st6" d="M2045.2,678c0-7.3,3.3-12,8.9-12c4.2,0,7.1,2.5,7.7,6.4h-2.8c-0.5-2.4-2.2-4-5-4c-4.1,0-6.3,3.7-6.3,9
			c0,0.3,0,0.6,0,1.1c0-0.1,0.1-0.3,0.2-0.6c1-2.3,3.4-3.8,6.5-3.8c4.6,0,7.8,3,7.8,7.8c0,4.5-3.3,7.8-8.1,7.8
			c-3.2,0-5.6-1.5-7.1-3.9C2045.9,683.8,2045.2,681,2045.2,678z M2054.2,676.6c-3.2,0-5.4,2.2-5.4,5.4c0,3.1,2.1,5.3,5.3,5.3
			c3.2,0,5.3-2.2,5.3-5.4C2059.4,678.8,2057.4,676.6,2054.2,676.6z"/>
		<path class="st6" d="M2081.2,683.1c0,4-3.3,6.7-8.4,6.7c-5.1,0-8.3-2.8-8.3-7.4h2.8c0,3.1,2.4,4.9,5.7,4.9c3,0,5.4-1.7,5.4-4.4
			c0-2.4-2-4-5.6-4h-2v-2.4h1.8c3.5,0,5.2-1.7,5.2-4.1s-2.1-3.8-4.9-3.8c-2.9,0-5.1,1.8-5.1,4.4h-2.8c0-4.1,3.2-6.9,7.8-6.9
			c4.8,0,7.8,2.5,7.8,6.2c0,2.9-1.5,4.6-3.8,5.2C2078.9,677.8,2081.2,679.5,2081.2,683.1z"/>
		<path class="st6" d="M2083.9,677.3c0-6.6,3.6-11.3,8.9-11.3c5.2,0,8.8,4.7,8.8,11.3v1.1c0,7-3.6,11.3-8.8,11.3
			c-5.3,0-8.9-4.4-8.9-11.3V677.3z M2098.8,677.4c0-5.5-2.4-8.9-6-8.9c-3.6,0-6,3.3-6,8.9v0.9c0,5.5,2.4,8.9,6,8.9
			c3.6,0,6-3.3,6-8.9V677.4z"/>
		<path class="st6" d="M2114.1,689.5v-23.3h7.5c7.3,0,11.7,4.7,11.7,11.7c0,7-4.4,11.7-11.7,11.7H2114.1z M2117,686.9h4.6
			c5.7,0,8.8-3.6,8.8-9c0-5.5-3.1-9-8.8-9h-4.6V686.9z"/>
		<path class="st6" d="M2136.1,677.9c0-7.1,4.4-11.9,11.1-11.9c5.2,0,9.1,3,9.9,7.8h-3.1c-0.8-3.2-3.3-5.1-6.8-5.1
			c-4.9,0-8.1,3.8-8.1,9.2c0,5.4,3.2,9.2,8,9.2c4.3,0,7.4-2.6,7.4-6.7v-0.8h-7v-2.7h9.8v12.6h-2.5l-0.2-3.4
			c-1.1,1.7-3.6,3.6-7.6,3.6C2140.6,689.7,2136.1,684.9,2136.1,677.9z"/>
	</g>
</g>
<g>
	<g>
		<path class="st6" d="M2048.8,592.3h19.8c10.3,0,17.2,6.2,17.2,15.9c0,7.2-4.4,12.9-11,14.7l11.6,21.1h-7.2l-10.9-19.9h-13v19.9
			h-6.4V592.3z M2055.2,598.2v20h12.9c6.8,0,11.2-4,11.2-10c0-6.1-4.4-10-11.1-10H2055.2z"/>
		<path class="st6" d="M2090,625.5v-5.1h24.6v5.1H2090z"/>
		<path class="st6" d="M2121.9,616.9c0-14.7,8-25.1,19.6-25.1c11.6,0,19.6,10.4,19.6,25.1v2.4c0,15.4-8,25.1-19.6,25.1
			c-11.7,0-19.6-9.7-19.6-25.1V616.9z M2154.8,617.1c0-12.3-5.3-19.6-13.3-19.6c-8,0-13.4,7.4-13.4,19.6v1.9
			c0,12.3,5.3,19.6,13.4,19.6c8,0,13.3-7.4,13.3-19.6V617.1z"/>
		<path class="st6" d="M2165.9,638.7l20.1-17.4c4.8-4.1,8.8-8.1,8.8-13.7c0-6.5-4.4-10.2-11.3-10.2c-6.6,0-11.1,4.4-11.1,11.5v1
			h-6.2v-1.3c0-9.7,6.9-16.7,17.3-16.7c11.2,0,17.7,6.1,17.7,15.4c0,7.8-5,12.6-11.2,17.9l-15.5,13.1h27v5.7h-35.6V638.7z"/>
	</g>
</g>
<g>
	<polyline class="st4" points="798,1311 960,1311 1020.1,1278.7 	"/>
	<polyline class="st4" points="798,712 970,712 1029,745.6 	"/>
</g>
<g>
	<polyline class="st4" points="2201.2,1311 2039.2,1311 1979.1,1278.7 	"/>
	<polyline class="st4" points="2201.2,712 2029.2,712 1970.2,745.6 	"/>
</g>
<polyline class="st4" points="1499.7,454.8 1527.8,410 1717.9,410 "/>
<polyline class="st4" points="1499.7,1545.2 1549.3,1712 1720.9,1712 "/>
</svg>
