<?xml version="1.0" encoding="utf-8"?>
<!-- Generator: Adobe Illustrator 22.0.0, SVG Export Plug-In . SVG Version: 6.00 Build 0)  -->
<svg version="1.1" id="Layer_1" xmlns="http://www.w3.org/2000/svg" xmlns:xlink="http://www.w3.org/1999/xlink" x="0px" y="0px"
	 viewBox="0 0 3000 2000" style="enable-background:new 0 0 3000 2000;" xml:space="preserve">
<style type="text/css">
	.st0{fill:#1A1B18;}
	.st1{fill:#2F3234;stroke:#A292FF;stroke-width:2;stroke-miterlimit:10;}
	.st2{fill:#F3F3F3;}
	.st3{fill:none;stroke:#A292FF;stroke-width:2;stroke-miterlimit:10;}
	.st4{fill:none;stroke:#A292FF;stroke-width:2;stroke-miterlimit:10;stroke-dasharray:4,4;}
	.st5{fill:none;stroke:#A292FF;stroke-width:2;stroke-miterlimit:10;stroke-dasharray:12,12;}
	.st6{opacity:0.7;}
</style>
<rect class="st0" width="3000" height="2000"/>
<rect x="2248.7" y="1141" class="st1" width="535.5" height="557.1"/>
<rect x="215.9" y="1141" class="st1" width="1805.3" height="557.1"/>
<rect x="217.5" y="267.9" class="st1" width="1950.3" height="557.1"/>
<g>
	<path class="st2" d="M603.3,1466.9v-80.7c0-21.3-11.5-41.1-29.9-51.8l-69.8-40.3c-12.3-7.1-27.6-7.1-40,0l-69.8,40.4
		c-18.4,10.6-29.9,30.3-29.9,51.8v80.7c0,14.3,7.6,27.4,19.8,34.4l69.8,40.3c18.6,10.6,41.4,10.6,59.8,0l69.8-40.3
		C595.7,1494.2,603.3,1481.1,603.3,1466.9z M581.4,1492.8H385.7l-13.3-23.2l97.9-169.3h26.6l97.9,169.5L581.4,1492.8z"/>
	<g>
		<g>
			<path class="st2" d="M778.8,1403.2h13.7v38.6h-17.8v-22.5h-79.3v22.5h-17.8v-38.6h10.2c7.2-6,11.3-16.1,11.3-47v-47.3h79.6
				L778.8,1403.2L778.8,1403.2z M760.7,1403.2v-78.8h-44.4v34c0,23.8-2.5,36.1-8.4,44.8H760.7z"/>
			<path class="st2" d="M851.2,1420.2c-31.7,0-53.6-23.8-53.6-56.1c0-32.3,21.9-56.1,53.6-56.1c31.7,0,53.6,23.8,53.6,56.1
				C904.8,1396.4,882.9,1420.2,851.2,1420.2z M851.2,1404.3c21,0,35-16.9,35-40.2c0-23.3-14-40.2-35-40.2s-35,16.9-35,40.2
				S830.2,1404.3,851.2,1404.3z"/>
			<path class="st2" d="M920.7,1308.9h23.5l35.3,86.8l34.7-86.8h23v110.3h-17.5V1338l-33.1,81.2h-15.3l-33.1-81.2v81.2h-17.5V1308.9
				z"/>
			<path class="st2" d="M1106.7,1420.2c-31.7,0-53.6-23.8-53.6-56.1c0-32.3,21.9-56.1,53.6-56.1s53.6,23.8,53.6,56.1
				C1160.3,1396.4,1138.4,1420.2,1106.7,1420.2z M1106.7,1404.3c21,0,35-16.9,35-40.2c0-23.3-14-40.2-35-40.2s-35,16.9-35,40.2
				S1085.7,1404.3,1106.7,1404.3z"/>
			<path class="st2" d="M1244.4,1412.1v13.4h-17.3v-13.4c-33.9-1.6-55.2-19.2-55.2-48.1c0-28.8,21.1-46.5,55.2-48.1v-13.4h17.3v13.2
				c33.9,1.7,55,19.4,55,48.2C1299.5,1392.8,1278.5,1410.4,1244.4,1412.1z M1227.1,1397.2V1331c-24.4,1.4-37,13.4-37,33.1
				C1190.1,1383.6,1202.4,1395.6,1227.1,1397.2z M1244.4,1397.2c24.4-1.4,37-13.6,37-33.1s-12.5-31.5-37-32.9V1397.2z"/>
			<path class="st2" d="M1364.9,1420.2c-31.7,0-53.6-23.8-53.6-56.1c0-32.3,21.9-56.1,53.6-56.1s53.6,23.8,53.6,56.1
				C1418.5,1396.4,1396.5,1420.2,1364.9,1420.2z M1364.9,1404.3c21,0,35-16.9,35-40.2c0-23.3-14-40.2-35-40.2s-35,16.9-35,40.2
				S1343.9,1404.3,1364.9,1404.3z"/>
			<path class="st2" d="M1434.4,1308.9h18.1v46.3h51.2v-46.3h18.1v110.3h-18.1v-47.9h-51.2v47.9h-18.1V1308.9z"/>
			<path class="st2" d="M1578.9,1364.1c0-33.4,20.6-56.1,52.6-56.1c24.4,0,42.2,14.2,46.3,37h-14.5c-4.3-15.3-15.9-24.4-32.5-24.4
				c-23.2,0-38,18-38,43.5c0,25.4,14.2,43.5,37.4,43.5c17,0,28.8-9,32.9-24.4h14.5c-4.1,22.9-22.4,37-47.3,37
				C1598.8,1420.2,1578.9,1397.8,1578.9,1364.1z"/>
			<path class="st2" d="M1694.3,1419.2v-110.3h83.7v110.3h-13.7v-97.7H1708v97.7H1694.3z"/>
			<path class="st2" d="M1874,1381.7c0,22.2-15.6,38.5-39.2,38.5c-24.1,0-39.2-14.5-39.2-45.1c0-43,10.2-59.3,45.1-63.7l27.3-3.5
				v12.1l-24.4,3.2c-25.2,3.3-32.5,9.9-35,33.7c5.7-7.7,15.8-12.8,29.5-12.8C1858.5,1344.2,1874,1358.9,1874,1381.7z M1860.9,1382.2
				c0-15.4-10.7-26.6-25.9-26.6c-15.8,0-26.5,11.2-26.5,25.1c0,18,11,28.4,26.2,28.4C1850,1409,1860.9,1397.8,1860.9,1382.2z"/>
		</g>
	</g>
	<g>
		<g>
			<path class="st2" d="M677.5,1532.7h7.2c0.4,7.4,5.9,11,14.1,11c8.5,0,13.5-3.7,13.5-10.2s-4.6-9.7-13.3-9.7h-5.7v-5.9h5.3
				c8.5,0,12.3-3.5,12.3-9.7c0-6-4.9-9.1-12.1-9.1c-7.9,0-12.9,3.9-13.3,10.3h-7.2c0.4-9.9,8.6-16.8,20.4-16.8
				c12.2,0,19.4,6.1,19.4,14.9c0,7.4-3.7,11.4-9.2,12.8c5.3,1.3,10.7,4.9,10.7,13.6c0,9.6-8.3,16.2-21.1,16.2
				C685.3,1550.2,677.9,1544,677.5,1532.7z"/>
			<path class="st2" d="M721.4,1549.7l21.6-56.5h8.3l21.5,56.5h-7.5l-6-15.3h-24.6l-6,15.3H721.4z M736.7,1528.1h20.4l-10.3-27.2
				L736.7,1528.1z"/>
			<path class="st2" d="M774.8,1549.7v-6.5h1.4c6.2,0,9-3.9,9-22.3v-27.8h39.2v56.5h-7v-50.1H792v21.9c0,21.7-4.7,28.2-14.9,28.2
				h-2.3V1549.7z"/>
			<path class="st2" d="M859.7,1550.2c-15.9,0-27-12.1-27-28.8s11.1-28.7,27-28.7s27,12.1,27,28.7S875.6,1550.2,859.7,1550.2z
				 M859.7,1543.7c11.8,0,19.8-9.3,19.8-22.3s-8-22.3-19.8-22.3s-19.8,9.3-19.8,22.3C839.9,1534.4,847.9,1543.7,859.7,1543.7z"/>
			<path class="st2" d="M894.9,1549.7v-56.5H928v6.5h-26v50.1L894.9,1549.7L894.9,1549.7z"/>
			<path class="st2" d="M955.2,1493.2h20c12,0,18.7,5.8,18.7,14.9c0,6.5-3.6,10.4-8.9,12.3c6,1.1,11.2,5,11.2,13.2
				c0,10-7.1,16.2-20.5,16.2h-20.6L955.2,1493.2L955.2,1493.2z M962.2,1499.6v18.2h13.3c7.3,0,11.4-3.4,11.4-9.1s-4-9-11.4-9
				L962.2,1499.6L962.2,1499.6z M962.2,1524v19.3h13.6c8.7,0,13.3-3.6,13.3-9.4c0-6.4-4.9-9.9-13.3-9.9H962.2z"/>
			<path class="st2" d="M998.2,1549.7l21.6-56.5h8.3l21.5,56.5h-7.5l-6-15.3h-24.6l-6,15.3H998.2z M1013.5,1528.1h20.4l-10.3-27.2
				L1013.5,1528.1z"/>
			<path class="st2" d="M1055.3,1549.7v-56.5h7v50.1h23.8v-50.1h7v50.1h23.8v-50.1h7v56.5H1055.3z"/>
			<path class="st2" d="M1134.5,1493.2h36v6.5h-29v18.1h24.1v6.5h-24.1v19.1h30v6.5h-37.1L1134.5,1493.2L1134.5,1493.2z"/>
			<path class="st2" d="M1178.9,1549.7v-56.5h7v44.8l30.3-44.8h6.5v56.5h-7v-44.8l-30.3,44.8H1178.9z M1189,1477.3h5.5
				c0,4,1.8,6.4,6.4,6.4s6.5-2.4,6.5-6.4h5.5c-0.2,6.8-4.3,11.1-12.1,11.1C1193,1488.4,1189.2,1484.1,1189,1477.3z"/>
			<path class="st2" d="M1253.8,1549.7v-56.5h34.8v6.5h-27.8v16.6h15.1c10.8,0,18.2,5.5,18.2,16.6c0,10.6-7.3,16.8-18.1,16.8H1253.8
				z M1260.8,1543.2h14.5c7.1,0,11.5-4,11.5-10.3s-4.5-10.3-11.6-10.3h-14.5L1260.8,1543.2L1260.8,1543.2z"/>
			<path class="st2" d="M1301.5,1493.2h36v6.5h-29v18.1h24.1v6.5h-24.1v19.1h30v6.5h-37.1L1301.5,1493.2L1301.5,1493.2z"/>
			<path class="st2" d="M1341.9,1532.7h7.2c0.4,7.4,5.9,11,14.1,11c8.5,0,13.5-3.7,13.5-10.2s-4.6-9.7-13.3-9.7h-5.7v-5.9h5.3
				c8.5,0,12.3-3.5,12.3-9.7c0-6-4.9-9.1-12.1-9.1c-7.9,0-12.9,3.9-13.3,10.3h-7.2c0.4-9.9,8.6-16.8,20.4-16.8
				c12.2,0,19.4,6.1,19.4,14.9c0,7.4-3.7,11.4-9.2,12.8c5.3,1.3,10.7,4.9,10.7,13.6c0,9.6-8.3,16.2-21.1,16.2
				C1349.6,1550.2,1342.2,1544,1341.9,1532.7z"/>
			<path class="st2" d="M1416.8,1550.2c-15.9,0-27-12.1-27-28.8s11.1-28.7,27-28.7s27,12.1,27,28.7S1432.7,1550.2,1416.8,1550.2z
				 M1416.8,1543.7c11.8,0,19.8-9.3,19.8-22.3s-8-22.3-19.8-22.3s-19.8,9.3-19.8,22.3C1397,1534.4,1405,1543.7,1416.8,1543.7z"/>
			<path class="st2" d="M1452.1,1549.7v-56.5h42.9v56.5h-7v-50.1h-28.8v50.1H1452.1z"/>
			<path class="st2" d="M1500.8,1549.7l21.6-56.5h8.3l21.5,56.5h-7.5l-6-15.3H1514l-6,15.3H1500.8z M1516.1,1528.1h20.4l-10.3-27.2
				L1516.1,1528.1z"/>
			<path class="st2" d="M1553.4,1521.4c0-17.1,10.6-28.7,27-28.7c12.5,0,21.6,7.3,23.7,19h-7.4c-2.2-7.8-8.2-12.5-16.6-12.5
				c-11.9,0-19.5,9.2-19.5,22.3c0,13,7.3,22.3,19.1,22.3c8.7,0,14.8-4.6,16.9-12.5h7.4c-2.1,11.7-11.5,19-24.2,19
				C1563.6,1550.2,1553.4,1538.7,1553.4,1521.4z"/>
			<path class="st2" d="M1612,1493.2h7v24.6h29.2v-24.6h7v56.5h-7v-25.5H1619v25.5h-7V1493.2z"/>
			<path class="st2" d="M1690.5,1550.2c-15.9,0-27-12.1-27-28.8s11.1-28.7,27-28.7s27,12.1,27,28.7S1706.5,1550.2,1690.5,1550.2z
				 M1690.5,1543.7c11.8,0,19.8-9.3,19.8-22.3s-8-22.3-19.8-22.3s-19.8,9.3-19.8,22.3C1670.8,1534.4,1678.8,1543.7,1690.5,1543.7z"
				/>
			<path class="st2" d="M1723.7,1521.4c0-17.1,10.6-28.7,27-28.7c12.5,0,21.6,7.3,23.7,19h-7.4c-2.2-7.8-8.2-12.5-16.6-12.5
				c-11.9,0-19.5,9.2-19.5,22.3c0,13,7.3,22.3,19.1,22.3c8.7,0,14.8-4.6,16.9-12.5h7.4c-2.1,11.7-11.5,19-24.2,19
				C1733.9,1550.2,1723.7,1538.7,1723.7,1521.4z"/>
			<path class="st2" d="M1775.6,1493.2h43.7v6.5H1801v50.1h-7v-50.1h-18.3L1775.6,1493.2L1775.6,1493.2z"/>
			<path class="st2" d="M1825.8,1549.7v-56.5h7v44.8l30.3-44.8h6.5v56.5h-7v-44.8l-30.3,44.8H1825.8z"/>
		</g>
	</g>
</g>
<g>
	<path class="st2" d="M811.4,598.5h17.9v50.7H806v-29.4H702.2v29.4h-23.3v-50.7h13.4c9.5-7.8,14.8-21,14.8-61.6v-61.8h104.3V598.5z
		 M787.5,598.5V495.2h-58.3V540c0,31.1-3.3,47.4-10.9,58.7h69.3L787.5,598.5L787.5,598.5z"/>
	<path class="st2" d="M906.2,621.1c-41.6,0-70.3-31.1-70.3-73.6s28.7-73.6,70.3-73.6s70.3,31.1,70.3,73.6S947.6,621.1,906.2,621.1z
		 M906.2,600.1c27.4,0,46-22,46-52.8c0-30.7-18.4-52.8-46-52.8c-27.4,0-46,22-46,52.8S878.6,600.1,906.2,600.1z"/>
	<path class="st2" d="M997.3,475.2h30.7l46.4,114l45.5-114h30.1v144.7h-22.9V513.4l-43.5,106.5h-20l-43.5-106.3v106.3h-22.8V475.2
		L997.3,475.2z"/>
	<path class="st2" d="M1241.3,621.1c-41.6,0-70.3-31.1-70.3-73.6s28.7-73.6,70.3-73.6c41.6,0,70.3,31.1,70.3,73.6
		S1282.7,621.1,1241.3,621.1z M1241.3,600.1c27.4,0,46-22,46-52.8c0-30.7-18.4-52.8-46-52.8s-46,22-46,52.8
		S1213.6,600.1,1241.3,600.1z"/>
	<path class="st2" d="M1421.8,610.6v17.5h-22.7v-17.5c-44.5-2.1-72.4-25.2-72.4-63.1s27.6-61,72.4-63.1v-17.5h22.7v17.3
		c44.5,2.3,72.1,25.4,72.1,63.3C1493.9,585.1,1466.5,608.2,1421.8,610.6z M1399.1,590.9v-86.8c-32,1.9-48.6,17.5-48.6,43.5
		C1350.5,573.2,1366.6,588.8,1399.1,590.9z M1421.8,590.9c32-1.9,48.6-17.7,48.6-43.5s-16.3-41.4-48.6-43.2V590.9z"/>
	<path class="st2" d="M1579.7,621.1c-41.6,0-70.3-31.1-70.3-73.6s28.7-73.6,70.3-73.6c41.6,0,70.3,31.1,70.3,73.6
		S1621.3,621.1,1579.7,621.1z M1579.7,600.1c27.4,0,46-22,46-52.8c0-30.7-18.4-52.8-46-52.8c-27.4,0-46,22-46,52.8
		S1552.2,600.1,1579.7,600.1z"/>
	<path class="st2" d="M1671,475.2h23.7V536h67.2v-60.8h23.7v144.7h-23.7v-62.8h-67.2v62.8H1671V475.2z"/>
	<g>
		<g>
			<path class="st2" d="M1806.2,507.2c0-23.9,14.7-40.2,37.6-40.2c17.5,0,30.3,10.2,33.1,26.6h-10.4c-3-11-11.4-17.5-23.2-17.5
				c-16.5,0-27.2,12.8-27.2,31.1c0,18.1,10.2,31.1,26.8,31.1c12.2,0,20.7-6.5,23.6-17.5h10.4c-3,16.4-15.9,26.6-33.9,26.6
				C1820.5,547.1,1806.2,531.2,1806.2,507.2z"/>
			<path class="st2" d="M1888.9,546.6v-79h59.9v78.9h-9.9v-69.8h-40.4v69.9L1888.9,546.6L1888.9,546.6z"/>
			<path class="st2" d="M2019.6,519.8c0,15.9-11.2,27.6-28.1,27.6c-17.3,0-28.1-10.4-28.1-32.3c0-30.7,7.3-42.3,32.3-45.5l19.5-2.5
				v8.7l-17.5,2.2c-18.1,2.4-23.2,7.1-25,24.2c4.2-5.5,11.2-9,21.1-9C2008.6,492.8,2019.6,503.4,2019.6,519.8z M2010.1,520
				c0-11-7.7-19.1-18.5-19.1c-11.2,0-18.9,8.1-18.9,17.9c0,12.8,7.9,20.3,18.7,20.3C2002.5,539.3,2010.1,531.2,2010.1,520z"/>
		</g>
	</g>
	<path class="st2" d="M604.8,594.2v-80.7c0-21.3-11.5-41.1-29.9-51.8l-69.8-40.3c-12.3-7.1-27.6-7.1-39.9,0l-69.8,40.4
		c-18.4,10.6-29.9,30.3-29.9,51.8v80.7c0,14.3,7.6,27.4,19.8,34.4l69.8,40.3c18.6,10.6,41.4,10.6,59.8,0l69.8-40.3
		C597.2,621.4,604.8,608.3,604.8,594.2z M583,620H387.3L374,596.8l97.8-169.2h26.6l97.8,169.5L583,620z"/>
</g>
<path class="st2" d="M2636,1467.2v-80.7c0-21.3-11.5-41.1-29.9-51.8l-69.8-40.3c-12.3-7.1-27.6-7.1-39.9,0l-69.8,40.4
	c-18.4,10.6-29.9,30.3-29.9,51.8v80.7c0,14.3,7.6,27.4,19.8,34.4l69.8,40.3c18.6,10.6,41.4,10.6,59.8,0l69.8-40.3
	C2628.4,1494.5,2636,1481.4,2636,1467.2z M2614.2,1493h-195.7l-13.3-23.1l97.8-169.2h26.6l97.8,169.5L2614.2,1493z"/>
<line class="st3" x1="217.5" y1="416" x2="2167.7" y2="416"/>
<line class="st3" x1="217.5" y1="676.9" x2="2167.7" y2="676.9"/>
<line class="st4" x1="365.6" y1="267.9" x2="365.6" y2="825"/>
<line class="st4" x1="2019.6" y1="267.9" x2="2019.6" y2="825"/>
<polyline class="st3" points="291.5,825 291.5,751 217.5,751 "/>
<polyline class="st3" points="291.5,676.9 291.5,751 365.6,751 "/>
<line class="st3" x1="604.8" y1="416" x2="604.8" y2="825"/>
<line class="st3" x1="678.9" y1="416" x2="678.9" y2="825"/>
<line class="st3" x1="678.9" y1="751" x2="604.8" y2="751"/>
<line class="st3" x1="2248.7" y1="1289.1" x2="2784.1" y2="1289.1"/>
<line class="st3" x1="2248.7" y1="1550" x2="2784.1" y2="1550"/>
<line class="st4" x1="2396.8" y1="1141" x2="2396.8" y2="1698.1"/>
<line class="st4" x1="2636" y1="1141" x2="2636" y2="1698.1"/>
<polyline class="st3" points="2322.7,1698.1 2322.7,1624 2248.7,1624 "/>
<polyline class="st3" points="2322.7,1550 2322.7,1624 2396.8,1624 "/>
<polyline class="st3" points="2710.1,1289.1 2710.1,1215 2636,1215 "/>
<polyline class="st3" points="2710.1,1141 2710.1,1215 2784.1,1215 "/>
<line class="st3" x1="215.9" y1="1289.1" x2="2018" y2="1289.1"/>
<line class="st3" x1="215.9" y1="1550" x2="2018" y2="1550"/>
<line class="st4" x1="364" y1="1141" x2="364" y2="1698.1"/>
<line class="st4" x1="1874" y1="1141" x2="1874" y2="1698.1"/>
<polyline class="st3" points="289.9,1698.1 289.9,1624 215.9,1624 "/>
<polyline class="st3" points="289.9,1550 289.9,1624 364,1624 "/>
<line class="st3" x1="603.2" y1="1289.1" x2="603.2" y2="1698.1"/>
<line class="st3" x1="677.3" y1="1289.1" x2="677.3" y2="1698.1"/>
<line class="st3" x1="677.3" y1="1624" x2="603.2" y2="1624"/>
<path class="st5" d="M2516.4,1698.1L2516.4,1698.1c-147.9,0-267.7-119.9-267.7-267.7v-21.7c0-147.9,119.9-267.7,267.7-267.7l0,0
	c147.9,0,267.7,119.9,267.7,267.7v21.7C2784.1,1578.2,2664.3,1698.1,2516.4,1698.1z"/>
<g class="st6">
	<path class="st2" d="M2207.6,270.5h7.7c4.6,0,7.2,2.2,7.2,5.7c0,2.5-1.4,4-3.4,4.7c2.3,0.4,4.3,1.9,4.3,5.1c0,3.8-2.7,6.2-7.9,6.2
		h-7.9L2207.6,270.5L2207.6,270.5z M2210.3,272.9v7h5.1c2.8,0,4.4-1.3,4.4-3.5s-1.5-3.5-4.4-3.5H2210.3z M2210.3,282.3v7.4h5.2
		c3.3,0,5.1-1.4,5.1-3.6c0-2.4-1.9-3.8-5.1-3.8H2210.3z"/>
	<path class="st2" d="M2226.8,270.5h13.8v2.5h-11.1v6.9h9.3v2.5h-9.3v7.3h11.5v2.5h-14.2V270.5z"/>
	<path class="st2" d="M2261.8,289.7h2.7v6.9h-2.7v-4.4h-16.6v4.4h-2.7v-6.9h2c1.5-1.3,2.3-3.3,2.3-9.7v-9.5h15V289.7z M2259.2,289.7
		v-16.9h-9.7v7.6c0,5.1-0.5,7.6-1.7,9.3H2259.2z"/>
	<path class="st2" d="M2267.2,292.2v-2.5h2c1.8,0,2.4-0.3,3.2-2l0.7-1.5l-8.4-15.7h3.1l6.7,12.8l5.7-12.8h2.9l-8.3,17.9
		c-1.4,3-2.8,3.8-5,3.8L2267.2,292.2L2267.2,292.2z"/>
	<path class="st2" d="M2311.9,289.7h2.7v6.9h-2.7v-4.4h-26.4v-21.7h2.7v19.2h9.1v-19.2h2.7v19.2h9.1v-19.2h2.7L2311.9,289.7
		L2311.9,289.7z"/>
	<path class="st2" d="M2315.9,292.2l8.3-21.7h3.2l8.2,21.7h-2.9l-2.3-5.9h-9.5l-2.3,5.9H2315.9z M2321.8,283.9h7.8l-3.9-10.4
		L2321.8,283.9z"/>
	<path class="st2" d="M2353.3,270.5v21.7h-2.7v-8.3h-5.2l-5.1,8.3h-3.1l5.3-8.7c-3.3-0.7-5.1-3.1-5.1-6.4c0-3.9,2.9-6.6,7.3-6.6
		H2353.3z M2350.6,281.4V273h-5.7c-2.9,0-4.7,1.6-4.7,4.2s1.8,4.2,4.7,4.2L2350.6,281.4L2350.6,281.4z"/>
	<path class="st2" d="M2365.6,270.5h7.7c4.6,0,7.2,2.2,7.2,5.7c0,2.5-1.4,4-3.4,4.7c2.3,0.4,4.3,1.9,4.3,5.1c0,3.8-2.7,6.2-7.9,6.2
		h-7.9L2365.6,270.5L2365.6,270.5z M2368.3,272.9v7h5.1c2.8,0,4.4-1.3,4.4-3.5s-1.5-3.5-4.4-3.5H2368.3z M2368.3,282.3v7.4h5.2
		c3.3,0,5.1-1.4,5.1-3.6c0-2.4-1.9-3.8-5.1-3.8H2368.3z"/>
	<path class="st2" d="M2384.8,270.5h13.8v2.5h-11.1v6.9h9.3v2.5h-9.3v7.3h11.5v2.5h-14.2V270.5z"/>
	<path class="st2" d="M2402.1,270.5h8.3c4.3,0,7.2,2.6,7.2,6.7s-2.9,6.7-7.2,6.7h-5.6v8.3h-2.7V270.5z M2404.8,273v8.4h5.4
		c2.9,0,4.7-1.6,4.7-4.2s-1.8-4.2-4.7-4.2L2404.8,273L2404.8,273z"/>
	<path class="st2" d="M2419.7,281.3c0-6.6,4.1-11,10.4-11c4.8,0,8.3,2.8,9.1,7.3h-2.9c-0.8-3-3.1-4.8-6.4-4.8
		c-4.6,0-7.5,3.5-7.5,8.6c0,5,2.8,8.6,7.3,8.6c3.3,0,5.7-1.8,6.5-4.8h2.9c-0.8,4.5-4.4,7.3-9.3,7.3
		C2423.6,292.4,2419.7,288,2419.7,281.3z"/>
	<path class="st2" d="M2442.4,292.2v-21.7h2.7v17.2l11.6-17.2h2.5v21.7h-2.7V275l-11.6,17.2H2442.4z"/>
	<path class="st2" d="M2478.6,270.5v21.7h-2.7v-8.3h-5.2l-5.1,8.3h-3.1l5.3-8.7c-3.3-0.7-5.1-3.1-5.1-6.4c0-3.9,2.9-6.6,7.3-6.6
		H2478.6z M2475.9,281.4V273h-5.7c-2.9,0-4.7,1.6-4.7,4.2s1.8,4.2,4.7,4.2L2475.9,281.4L2475.9,281.4z"/>
</g>
<g class="st6">
	<path class="st2" d="M217.6,1757.5h7.7c4.6,0,7.2,2.2,7.2,5.7c0,2.5-1.4,4-3.4,4.7c2.3,0.4,4.3,1.9,4.3,5.1c0,3.8-2.7,6.2-7.9,6.2
		h-7.9L217.6,1757.5L217.6,1757.5z M220.3,1759.9v7h5.1c2.8,0,4.4-1.3,4.4-3.5s-1.5-3.5-4.4-3.5H220.3z M220.3,1769.3v7.4h5.2
		c3.3,0,5.1-1.4,5.1-3.6c0-2.4-1.9-3.8-5.1-3.8H220.3z"/>
	<path class="st2" d="M233.7,1757.5h16.8v2.5h-7v19.2h-2.7V1760h-7v-2.5H233.7z"/>
	<path class="st2" d="M261.1,1779.4c-6.1,0-10.4-4.7-10.4-11c0-6.4,4.2-11,10.4-11c6.2,0,10.4,4.7,10.4,11
		C271.4,1774.7,267.2,1779.4,261.1,1779.4z M261.1,1776.9c4.5,0,7.6-3.6,7.6-8.6s-3.1-8.6-7.6-8.6s-7.6,3.6-7.6,8.6
		S256.5,1776.9,261.1,1776.9z"/>
	<path class="st2" d="M274.8,1757.5h8.3c4.3,0,7.2,2.6,7.2,6.7s-2.9,6.7-7.2,6.7h-5.6v8.3h-2.7L274.8,1757.5L274.8,1757.5z
		 M277.5,1760v8.4h5.4c2.9,0,4.7-1.6,4.7-4.2s-1.8-4.2-4.7-4.2L277.5,1760L277.5,1760z"/>
	<path class="st2" d="M293.2,1779.2v-21.7h2.7v17.2l11.6-17.2h2.5v21.7h-2.7V1762l-11.6,17.2H293.2z"/>
	<path class="st2" d="M326.7,1757.5h2.7v21.7h-2.7v-9.3c-1.5,0.9-3.5,1.4-5.8,1.4c-4.3,0-7.4-2.1-7.4-6.8v-7.1h2.7v6.5
		c0,3.3,2,4.8,5,4.8c2.2,0,4.1-0.6,5.6-1.6v-9.6H326.7z"/>
	<path class="st2" d="M333.6,1757.5h2.7v9.4h11.2v-9.4h2.7v21.7h-2.7v-9.8h-11.2v9.8h-2.7V1757.5z"/>
	<path class="st2" d="M352.7,1779.2l8.3-21.7h3.2l8.2,21.7h-2.9l-2.3-5.9h-9.5l-2.3,5.9H352.7z M358.6,1770.9h7.8l-3.9-10.4
		L358.6,1770.9z"/>
	<path class="st2" d="M390.1,1757.5v21.7h-2.7v-8.3h-5.2l-5.1,8.3H374l5.3-8.7c-3.3-0.7-5.1-3.1-5.1-6.4c0-3.9,2.9-6.6,7.3-6.6
		H390.1z M387.4,1768.4v-8.4h-5.7c-2.9,0-4.7,1.6-4.7,4.2s1.8,4.2,4.7,4.2L387.4,1768.4L387.4,1768.4z"/>
	<path class="st2" d="M402.4,1757.5h7.7c4.6,0,7.2,2.2,7.2,5.7c0,2.5-1.4,4-3.4,4.7c2.3,0.4,4.3,1.9,4.3,5.1c0,3.8-2.7,6.2-7.9,6.2
		h-7.9L402.4,1757.5L402.4,1757.5z M405.1,1759.9v7h5.1c2.8,0,4.4-1.3,4.4-3.5s-1.5-3.5-4.4-3.5H405.1z M405.1,1769.3v7.4h5.2
		c3.3,0,5.1-1.4,5.1-3.6c0-2.4-1.9-3.8-5.1-3.8H405.1z"/>
	<path class="st2" d="M421.6,1757.5h13.8v2.5h-11.1v6.9h9.3v2.5h-9.3v7.3h11.5v2.5h-14.2L421.6,1757.5L421.6,1757.5z"/>
	<path class="st2" d="M438.8,1757.5h8.3c4.3,0,7.2,2.6,7.2,6.7s-2.9,6.7-7.2,6.7h-5.6v8.3h-2.7L438.8,1757.5L438.8,1757.5z
		 M441.5,1760v8.4h5.4c2.9,0,4.7-1.6,4.7-4.2s-1.8-4.2-4.7-4.2L441.5,1760L441.5,1760z"/>
	<path class="st2" d="M456.4,1768.3c0-6.6,4.1-11,10.4-11c4.8,0,8.3,2.8,9.1,7.3H473c-0.8-3-3.1-4.8-6.4-4.8c-4.6,0-7.5,3.5-7.5,8.6
		c0,5,2.8,8.6,7.3,8.6c3.3,0,5.7-1.8,6.5-4.8h2.9c-0.8,4.5-4.4,7.3-9.3,7.3C460.4,1779.4,456.4,1775,456.4,1768.3z"/>
	<path class="st2" d="M479.1,1779.2v-21.7h2.7v17.2l11.6-17.2h2.5v21.7h-2.7V1762l-11.6,17.2H479.1z"/>
	<path class="st2" d="M515.4,1757.5v21.7h-2.7v-8.3h-5.2l-5.1,8.3h-3.1l5.3-8.7c-3.3-0.7-5.1-3.1-5.1-6.4c0-3.9,2.9-6.6,7.3-6.6
		H515.4z M512.7,1768.4v-8.4H507c-2.9,0-4.7,1.6-4.7,4.2s1.8,4.2,4.7,4.2L512.7,1768.4L512.7,1768.4z"/>
</g>
<g class="st6">
	<path class="st2" d="M2250,1768.3c0-6.6,4.1-11,10.4-11c4.8,0,8.3,2.8,9.1,7.3h-2.9c-0.8-3-3.1-4.8-6.4-4.8c-4.6,0-7.5,3.5-7.5,8.6
		c0,5,2.8,8.6,7.3,8.6c3.3,0,5.7-1.8,6.5-4.8h2.9c-0.8,4.5-4.4,7.3-9.3,7.3C2253.9,1779.4,2250,1775,2250,1768.3z"/>
	<path class="st2" d="M2272.7,1779.2v-21.7h2.7v17.2l11.6-17.2h2.5v21.7h-2.7V1762l-11.6,17.2H2272.7z"/>
	<path class="st2" d="M2293.7,1757.5h3.4l7.7,18l7.6-18h3.3v21.7h-2.6v-17.1l-7.2,17.1h-2.4l-7.2-17.1v17.1h-2.6V1757.5z"/>
	<path class="st2" d="M2320,1757.5h7.7c4.6,0,7.2,2.2,7.2,5.7c0,2.5-1.4,4-3.4,4.7c2.3,0.4,4.3,1.9,4.3,5.1c0,3.8-2.7,6.2-7.9,6.2
		h-7.9L2320,1757.5L2320,1757.5z M2322.7,1759.9v7h5.1c2.8,0,4.4-1.3,4.4-3.5s-1.6-3.5-4.4-3.5H2322.7z M2322.7,1769.3v7.4h5.2
		c3.3,0,5.1-1.4,5.1-3.6c0-2.4-1.9-3.8-5.1-3.8H2322.7z"/>
	<path class="st2" d="M2348.6,1779.4c-6.1,0-10.4-4.7-10.4-11c0-6.4,4.2-11,10.4-11c6.1,0,10.4,4.7,10.4,11
		C2358.9,1774.7,2354.7,1779.4,2348.6,1779.4z M2348.6,1776.9c4.5,0,7.6-3.6,7.6-8.6s-3.1-8.6-7.6-8.6s-7.6,3.6-7.6,8.6
		S2344,1776.9,2348.6,1776.9z"/>
	<path class="st2" d="M2359.3,1779.2v-2.5h0.5c2.4,0,3.4-1.5,3.4-8.6v-10.7h15.1v21.7h-2.7V1760h-9.8v8.4c0,8.3-1.8,10.8-5.7,10.8
		L2359.3,1779.2L2359.3,1779.2z"/>
</g>
</svg>
