<?xml version="1.0" encoding="utf-8"?>
<!-- Generator: Adobe Illustrator 22.0.0, SVG Export Plug-In . SVG Version: 6.00 Build 0)  -->
<svg version="1.1" id="Layer_1" xmlns="http://www.w3.org/2000/svg" xmlns:xlink="http://www.w3.org/1999/xlink" x="0px" y="0px"
	 viewBox="0 0 3000 2000" style="enable-background:new 0 0 3000 2000;" xml:space="preserve">
<style type="text/css">
	.st0{fill:#1A1B18;}
	.st1{fill:#2F3234;stroke:#0EBBFF;stroke-width:2;stroke-miterlimit:10;}
	.st2{fill:#F3F3F3;}
	.st3{fill:none;stroke:#0EBBFF;stroke-width:2;stroke-miterlimit:10;}
	.st4{fill:none;stroke:#0EBBFF;stroke-width:2;stroke-miterlimit:10;stroke-dasharray:4,4;}
	.st5{fill:none;stroke:#0EBBFF;stroke-width:2;stroke-miterlimit:10;stroke-dasharray:12,12;}
	.st6{opacity:0.7;}
</style>
<rect class="st0" width="3000" height="2000"/>
<rect x="2248.7" y="1141" class="st1" width="535.5" height="557.1"/>
<rect x="215.9" y="1141" class="st1" width="1805.3" height="557.1"/>
<rect x="217.5" y="267.9" class="st1" width="1950.3" height="557.1"/>
<g>
	<path class="st2" d="M603.3,1466.9v-80.7c0-21.3-11.5-41.1-29.9-51.8l-69.8-40.3c-12.3-7.1-27.6-7.1-40,0l-69.8,40.4
		c-18.4,10.6-29.9,30.3-29.9,51.8v80.7c0,14.3,7.6,27.4,19.8,34.4l69.8,40.3c18.6,10.6,41.4,10.6,59.8,0l69.8-40.3
		C595.7,1494.2,603.3,1481.1,603.3,1466.9z M581.4,1492.8H385.7l-13.3-23.2l97.9-169.3h26.6l97.9,169.5L581.4,1492.8z"/>
	<g>
		<g>
			<path class="st2" d="M778.8,1403.2h13.7v38.6h-17.8v-22.5h-79.3v22.5h-17.8v-38.6h10.2c7.2-6,11.3-16.1,11.3-47v-47.3h79.6
				V1403.2z M760.7,1403.2v-78.8h-44.4v34c0,23.8-2.5,36.1-8.4,44.8H760.7z"/>
			<path class="st2" d="M851.2,1420.2c-31.7,0-53.6-23.8-53.6-56.1c0-32.3,21.9-56.1,53.6-56.1c31.7,0,53.6,23.8,53.6,56.1
				C904.8,1396.4,882.9,1420.2,851.2,1420.2z M851.2,1404.3c21,0,35-16.9,35-40.2c0-23.3-14-40.2-35-40.2c-21,0-35,16.9-35,40.2
				C816.2,1387.4,830.2,1404.3,851.2,1404.3z"/>
			<path class="st2" d="M920.7,1308.9h23.5l35.3,86.8l34.7-86.8h23v110.3h-17.5v-81.2l-33.1,81.2h-15.3l-33.1-81.2v81.2h-17.5
				V1308.9z"/>
			<path class="st2" d="M1106.7,1420.2c-31.7,0-53.6-23.8-53.6-56.1c0-32.3,21.9-56.1,53.6-56.1c31.7,0,53.6,23.8,53.6,56.1
				C1160.3,1396.4,1138.4,1420.2,1106.7,1420.2z M1106.7,1404.3c21,0,35-16.9,35-40.2c0-23.3-14-40.2-35-40.2c-21,0-35,16.9-35,40.2
				C1071.7,1387.4,1085.7,1404.3,1106.7,1404.3z"/>
			<path class="st2" d="M1244.4,1412.1v13.4h-17.3v-13.4c-33.9-1.6-55.2-19.2-55.2-48.1c0-28.8,21.1-46.5,55.2-48.1v-13.4h17.3v13.2
				c33.9,1.7,55,19.4,55,48.2C1299.5,1392.8,1278.5,1410.4,1244.4,1412.1z M1227.1,1397.2V1331c-24.4,1.4-37,13.4-37,33.1
				C1190.1,1383.6,1202.4,1395.6,1227.1,1397.2z M1244.4,1397.2c24.4-1.4,37-13.6,37-33.1s-12.5-31.5-37-32.9V1397.2z"/>
			<path class="st2" d="M1364.9,1420.2c-31.7,0-53.6-23.8-53.6-56.1c0-32.3,21.9-56.1,53.6-56.1c31.7,0,53.6,23.8,53.6,56.1
				C1418.5,1396.4,1396.5,1420.2,1364.9,1420.2z M1364.9,1404.3c21,0,35-16.9,35-40.2c0-23.3-14-40.2-35-40.2c-21,0-35,16.9-35,40.2
				C1329.9,1387.4,1343.9,1404.3,1364.9,1404.3z"/>
			<path class="st2" d="M1434.4,1308.9h18.1v46.3h51.2v-46.3h18.1v110.3h-18.1v-47.9h-51.2v47.9h-18.1V1308.9z"/>
			<path class="st2" d="M1578.9,1364.1c0-33.4,20.6-56.1,52.6-56.1c24.4,0,42.2,14.2,46.3,37h-14.5c-4.3-15.3-15.9-24.4-32.5-24.4
				c-23.2,0-38,18-38,43.5c0,25.4,14.2,43.5,37.4,43.5c17,0,28.8-9,32.9-24.4h14.5c-4.1,22.9-22.4,37-47.3,37
				C1598.8,1420.2,1578.9,1397.8,1578.9,1364.1z"/>
			<path class="st2" d="M1694.3,1419.2v-110.3h83.7v110.3h-13.7v-97.7H1708v97.7H1694.3z"/>
			<path class="st2" d="M1874,1381.7c0,22.2-15.6,38.5-39.2,38.5c-24.1,0-39.2-14.5-39.2-45.1c0-43,10.2-59.3,45.1-63.7l27.3-3.5
				v12.1l-24.4,3.2c-25.2,3.3-32.5,9.9-35,33.7c5.7-7.7,15.8-12.8,29.5-12.8C1858.5,1344.2,1874,1358.9,1874,1381.7z M1860.9,1382.2
				c0-15.4-10.7-26.6-25.9-26.6c-15.8,0-26.5,11.2-26.5,25.1c0,18,11,28.4,26.2,28.4C1850,1409,1860.9,1397.8,1860.9,1382.2z"/>
		</g>
	</g>
	<g>
		<g>
			<path class="st2" d="M677.5,1532.7h7.2c0.4,7.4,5.9,11,14.1,11c8.5,0,13.5-3.7,13.5-10.2c0-6.5-4.6-9.7-13.3-9.7h-5.7v-5.9h5.3
				c8.5,0,12.3-3.5,12.3-9.7c0-6-4.9-9.1-12.1-9.1c-7.9,0-12.9,3.9-13.3,10.3h-7.2c0.4-9.9,8.6-16.8,20.4-16.8
				c12.2,0,19.4,6.1,19.4,14.9c0,7.4-3.7,11.4-9.2,12.8c5.3,1.3,10.7,4.9,10.7,13.6c0,9.6-8.3,16.2-21.1,16.2
				C685.3,1550.2,677.9,1544,677.5,1532.7z"/>
			<path class="st2" d="M721.4,1549.7l21.6-56.5h8.3l21.5,56.5h-7.5l-6-15.3h-24.6l-6,15.3H721.4z M736.7,1528.1h20.4l-10.3-27.2
				L736.7,1528.1z"/>
			<path class="st2" d="M774.8,1549.7v-6.5h1.4c6.2,0,9-3.9,9-22.3v-27.8h39.2v56.5h-7v-50.1h-25.4v21.9c0,21.7-4.7,28.2-14.9,28.2
				H774.8z"/>
			<path class="st2" d="M859.7,1550.2c-15.9,0-27-12.1-27-28.8s11.1-28.7,27-28.7c15.9,0,27,12.1,27,28.7S875.6,1550.2,859.7,1550.2
				z M859.7,1543.7c11.8,0,19.8-9.3,19.8-22.3c0-13-8-22.3-19.8-22.3c-11.8,0-19.8,9.3-19.8,22.3
				C839.9,1534.4,847.9,1543.7,859.7,1543.7z"/>
			<path class="st2" d="M894.9,1549.7v-56.5h33.1v6.5H902v50.1H894.9z"/>
			<path class="st2" d="M955.2,1493.2h20c12,0,18.7,5.8,18.7,14.9c0,6.5-3.6,10.4-8.9,12.3c6,1.1,11.2,5,11.2,13.2
				c0,10-7.1,16.2-20.5,16.2h-20.6V1493.2z M962.2,1499.6v18.2h13.3c7.3,0,11.4-3.4,11.4-9.1c0-5.7-4-9-11.4-9H962.2z M962.2,1524
				v19.3h13.6c8.7,0,13.3-3.6,13.3-9.4c0-6.4-4.9-9.9-13.3-9.9H962.2z"/>
			<path class="st2" d="M998.2,1549.7l21.6-56.5h8.3l21.5,56.5h-7.5l-6-15.3h-24.6l-6,15.3H998.2z M1013.5,1528.1h20.4l-10.3-27.2
				L1013.5,1528.1z"/>
			<path class="st2" d="M1055.3,1549.7v-56.5h7v50.1h23.8v-50.1h7v50.1h23.8v-50.1h7v56.5H1055.3z"/>
			<path class="st2" d="M1134.5,1493.2h36v6.5h-29v18.1h24.1v6.5h-24.1v19.1h30v6.5h-37.1V1493.2z"/>
			<path class="st2" d="M1178.9,1549.7v-56.5h7v44.8l30.3-44.8h6.5v56.5h-7v-44.8l-30.3,44.8H1178.9z M1189,1477.3h5.5
				c0,4,1.8,6.4,6.4,6.4c4.6,0,6.5-2.4,6.5-6.4h5.5c-0.2,6.8-4.3,11.1-12.1,11.1C1193,1488.4,1189.2,1484.1,1189,1477.3z"/>
			<path class="st2" d="M1253.8,1549.7v-56.5h34.8v6.5h-27.8v16.6h15.1c10.8,0,18.2,5.5,18.2,16.6c0,10.6-7.3,16.8-18.1,16.8H1253.8
				z M1260.8,1543.2h14.5c7.1,0,11.5-4,11.5-10.3c0-6.3-4.5-10.3-11.6-10.3h-14.5V1543.2z"/>
			<path class="st2" d="M1301.5,1493.2h36v6.5h-29v18.1h24.1v6.5h-24.1v19.1h30v6.5h-37.1V1493.2z"/>
			<path class="st2" d="M1341.9,1532.7h7.2c0.4,7.4,5.9,11,14.1,11c8.5,0,13.5-3.7,13.5-10.2c0-6.5-4.6-9.7-13.3-9.7h-5.7v-5.9h5.3
				c8.5,0,12.3-3.5,12.3-9.7c0-6-4.9-9.1-12.1-9.1c-7.9,0-12.9,3.9-13.3,10.3h-7.2c0.4-9.9,8.6-16.8,20.4-16.8
				c12.2,0,19.4,6.1,19.4,14.9c0,7.4-3.7,11.4-9.2,12.8c5.3,1.3,10.7,4.9,10.7,13.6c0,9.6-8.3,16.2-21.1,16.2
				C1349.6,1550.2,1342.2,1544,1341.9,1532.7z"/>
			<path class="st2" d="M1416.8,1550.2c-15.9,0-27-12.1-27-28.8s11.1-28.7,27-28.7c15.9,0,27,12.1,27,28.7
				S1432.7,1550.2,1416.8,1550.2z M1416.8,1543.7c11.8,0,19.8-9.3,19.8-22.3c0-13-8-22.3-19.8-22.3c-11.8,0-19.8,9.3-19.8,22.3
				C1397,1534.4,1405,1543.7,1416.8,1543.7z"/>
			<path class="st2" d="M1452.1,1549.7v-56.5h42.9v56.5h-7v-50.1h-28.8v50.1H1452.1z"/>
			<path class="st2" d="M1500.8,1549.7l21.6-56.5h8.3l21.5,56.5h-7.5l-6-15.3H1514l-6,15.3H1500.8z M1516.1,1528.1h20.4l-10.3-27.2
				L1516.1,1528.1z"/>
			<path class="st2" d="M1553.4,1521.4c0-17.1,10.6-28.7,27-28.7c12.5,0,21.6,7.3,23.7,19h-7.4c-2.2-7.8-8.2-12.5-16.6-12.5
				c-11.9,0-19.5,9.2-19.5,22.3c0,13,7.3,22.3,19.1,22.3c8.7,0,14.8-4.6,16.9-12.5h7.4c-2.1,11.7-11.5,19-24.2,19
				C1563.6,1550.2,1553.4,1538.7,1553.4,1521.4z"/>
			<path class="st2" d="M1612,1493.2h7v24.6h29.2v-24.6h7v56.5h-7v-25.5H1619v25.5h-7V1493.2z"/>
			<path class="st2" d="M1690.5,1550.2c-15.9,0-27-12.1-27-28.8s11.1-28.7,27-28.7c15.9,0,27,12.1,27,28.7
				S1706.5,1550.2,1690.5,1550.2z M1690.5,1543.7c11.8,0,19.8-9.3,19.8-22.3c0-13-8-22.3-19.8-22.3s-19.8,9.3-19.8,22.3
				C1670.8,1534.4,1678.8,1543.7,1690.5,1543.7z"/>
			<path class="st2" d="M1723.7,1521.4c0-17.1,10.6-28.7,27-28.7c12.5,0,21.6,7.3,23.7,19h-7.4c-2.2-7.8-8.2-12.5-16.6-12.5
				c-11.9,0-19.5,9.2-19.5,22.3c0,13,7.3,22.3,19.1,22.3c8.7,0,14.8-4.6,16.9-12.5h7.4c-2.1,11.7-11.5,19-24.2,19
				C1733.9,1550.2,1723.7,1538.7,1723.7,1521.4z"/>
			<path class="st2" d="M1775.6,1493.2h43.7v6.5H1801v50.1h-7v-50.1h-18.3V1493.2z"/>
			<path class="st2" d="M1825.8,1549.7v-56.5h7v44.8l30.3-44.8h6.5v56.5h-7v-44.8l-30.3,44.8H1825.8z"/>
		</g>
	</g>
</g>
<g>
	<path class="st2" d="M811.4,598.5h17.9v50.7H806v-29.4H702.2v29.4h-23.3v-50.7h13.4c9.5-7.8,14.8-21,14.8-61.6v-61.8h104.3V598.5z
		 M787.5,598.5V495.2h-58.3V540c0,31.1-3.3,47.4-10.9,58.7h69.3L787.5,598.5L787.5,598.5z"/>
	<path class="st2" d="M906.2,621.1c-41.6,0-70.3-31.1-70.3-73.6s28.7-73.6,70.3-73.6c41.6,0,70.3,31.1,70.3,73.6
		S947.6,621.1,906.2,621.1z M906.2,600.1c27.4,0,46-22,46-52.8c0-30.7-18.4-52.8-46-52.8c-27.4,0-46,22-46,52.8
		C860.2,578.1,878.6,600.1,906.2,600.1z"/>
	<path class="st2" d="M997.3,475.2h30.7l46.4,114l45.5-114h30.1v144.7h-22.9V513.4l-43.5,106.5h-20l-43.5-106.3v106.3h-22.8V475.2
		L997.3,475.2z"/>
	<path class="st2" d="M1241.3,621.1c-41.6,0-70.3-31.1-70.3-73.6s28.7-73.6,70.3-73.6c41.6,0,70.3,31.1,70.3,73.6
		S1282.7,621.1,1241.3,621.1z M1241.3,600.1c27.4,0,46-22,46-52.8c0-30.7-18.4-52.8-46-52.8s-46,22-46,52.8
		C1195.3,578.1,1213.6,600.1,1241.3,600.1z"/>
	<path class="st2" d="M1421.8,610.6v17.5h-22.7v-17.5c-44.5-2.1-72.4-25.2-72.4-63.1s27.6-61,72.4-63.1v-17.5h22.7v17.3
		c44.5,2.3,72.1,25.4,72.1,63.3C1493.9,585.1,1466.5,608.2,1421.8,610.6z M1399.1,590.9v-86.8c-32,1.9-48.6,17.5-48.6,43.5
		C1350.5,573.2,1366.6,588.8,1399.1,590.9z M1421.8,590.9c32-1.9,48.6-17.7,48.6-43.5c0-25.8-16.3-41.4-48.6-43.2V590.9z"/>
	<path class="st2" d="M1579.7,621.1c-41.6,0-70.3-31.1-70.3-73.6s28.7-73.6,70.3-73.6c41.6,0,70.3,31.1,70.3,73.6
		S1621.3,621.1,1579.7,621.1z M1579.7,600.1c27.4,0,46-22,46-52.8c0-30.7-18.4-52.8-46-52.8c-27.4,0-46,22-46,52.8
		C1533.7,578.1,1552.2,600.1,1579.7,600.1z"/>
	<path class="st2" d="M1671,475.2h23.7v60.8h67.2v-60.8h23.7v144.7h-23.7v-62.8h-67.2v62.8H1671V475.2z"/>
	<g>
		<g>
			<path class="st2" d="M1806.2,507.2c0-23.9,14.7-40.2,37.6-40.2c17.5,0,30.3,10.2,33.1,26.6h-10.4c-3-11-11.4-17.5-23.2-17.5
				c-16.5,0-27.2,12.8-27.2,31.1c0,18.1,10.2,31.1,26.8,31.1c12.2,0,20.7-6.5,23.6-17.5h10.4c-3,16.4-15.9,26.6-33.9,26.6
				C1820.5,547.1,1806.2,531.2,1806.2,507.2z"/>
			<path class="st2" d="M1888.9,546.6v-79h59.9v78.9h-9.9v-69.8h-40.4v69.9H1888.9z"/>
			<path class="st2" d="M2019.6,519.8c0,15.9-11.2,27.6-28.1,27.6c-17.3,0-28.1-10.4-28.1-32.3c0-30.7,7.3-42.3,32.3-45.5l19.5-2.5
				v8.7l-17.5,2.2c-18.1,2.4-23.2,7.1-25,24.2c4.2-5.5,11.2-9,21.1-9C2008.6,492.8,2019.6,503.4,2019.6,519.8z M2010.1,520
				c0-11-7.7-19.1-18.5-19.1c-11.2,0-18.9,8.1-18.9,17.9c0,12.8,7.9,20.3,18.7,20.3C2002.5,539.3,2010.1,531.2,2010.1,520z"/>
		</g>
	</g>
	<path class="st2" d="M604.8,594.2v-80.7c0-21.3-11.5-41.1-29.9-51.8l-69.8-40.3c-12.3-7.1-27.6-7.1-39.9,0l-69.8,40.4
		c-18.4,10.6-29.9,30.3-29.9,51.8v80.7c0,14.3,7.6,27.4,19.8,34.4l69.8,40.3c18.6,10.6,41.4,10.6,59.8,0l69.8-40.3
		C597.2,621.4,604.8,608.3,604.8,594.2z M583,620H387.3L374,596.8l97.8-169.2h26.6l97.8,169.5L583,620z"/>
</g>
<path class="st2" d="M2636,1467.2v-80.7c0-21.3-11.5-41.1-29.9-51.8l-69.8-40.3c-12.3-7.1-27.6-7.1-39.9,0l-69.8,40.4
	c-18.4,10.6-29.9,30.3-29.9,51.8v80.7c0,14.3,7.6,27.4,19.8,34.4l69.8,40.3c18.6,10.6,41.4,10.6,59.8,0l69.8-40.3
	C2628.4,1494.5,2636,1481.4,2636,1467.2z M2614.2,1493h-195.7l-13.3-23.1l97.8-169.2h26.6l97.8,169.5L2614.2,1493z"/>
<line class="st3" x1="217.5" y1="416" x2="2167.7" y2="416"/>
<line class="st3" x1="217.5" y1="676.9" x2="2167.7" y2="676.9"/>
<line class="st4" x1="365.6" y1="267.9" x2="365.6" y2="825"/>
<line class="st4" x1="2019.6" y1="267.9" x2="2019.6" y2="825"/>
<polyline class="st3" points="291.5,825 291.5,751 217.5,751 "/>
<polyline class="st3" points="291.5,676.9 291.5,751 365.6,751 "/>
<line class="st3" x1="604.8" y1="416" x2="604.8" y2="825"/>
<line class="st3" x1="678.9" y1="416" x2="678.9" y2="825"/>
<rect x="604.8" y="751" class="st3" width="74.1" height="74.1"/>
<line class="st3" x1="2248.7" y1="1289.1" x2="2784.1" y2="1289.1"/>
<line class="st3" x1="2248.7" y1="1550" x2="2784.1" y2="1550"/>
<line class="st4" x1="2396.8" y1="1141" x2="2396.8" y2="1698.1"/>
<line class="st4" x1="2636" y1="1141" x2="2636" y2="1698.1"/>
<polyline class="st3" points="2322.7,1698.1 2322.7,1624 2248.7,1624 "/>
<polyline class="st3" points="2322.7,1550 2322.7,1624 2396.8,1624 "/>
<polyline class="st3" points="2710.1,1289.1 2710.1,1215 2636,1215 "/>
<polyline class="st3" points="2710.1,1141 2710.1,1215 2784.1,1215 "/>
<line class="st3" x1="215.9" y1="1289.1" x2="2018" y2="1289.1"/>
<line class="st3" x1="215.9" y1="1550" x2="2018" y2="1550"/>
<line class="st4" x1="364" y1="1141" x2="364" y2="1698.1"/>
<line class="st4" x1="1874" y1="1141" x2="1874" y2="1698.1"/>
<polyline class="st3" points="289.9,1698.1 289.9,1624 215.9,1624 "/>
<polyline class="st3" points="289.9,1550 289.9,1624 364,1624 "/>
<line class="st3" x1="603.2" y1="1289.1" x2="603.2" y2="1698.1"/>
<line class="st3" x1="677.3" y1="1289.1" x2="677.3" y2="1698.1"/>
<rect x="603.2" y="1624" class="st3" width="74.1" height="74.1"/>
<path class="st5" d="M2516.4,1698.1L2516.4,1698.1c-147.9,0-267.7-119.9-267.7-267.7v-21.7c0-147.9,119.9-267.7,267.7-267.7h0
	c147.9,0,267.7,119.9,267.7,267.7v21.7C2784.1,1578.2,2664.3,1698.1,2516.4,1698.1z"/>
<g class="st6">
	<path class="st2" d="M2207.7,270.5h7.4c4.4,0,6.8,2.1,6.8,5.6c0,2.6-1.5,4.3-3.9,4.9c2.9,0.4,4.9,2.1,4.9,5.2c0,3.8-2.6,6-7.7,6
		h-7.5V270.5z M2209.4,272v8.3h5.8c3.2,0,5.1-1.6,5.1-4.2c0-2.6-1.8-4.2-5.1-4.2H2209.4z M2209.4,281.9v8.8h5.9
		c3.9,0,5.9-1.7,5.9-4.4c0-2.9-2.2-4.4-5.9-4.4H2209.4z"/>
	<path class="st2" d="M2226.5,270.5h13.4v1.6h-11.7v8.3h9.8v1.5h-9.8v8.8h12.1v1.6h-13.8V270.5z"/>
	<path class="st2" d="M2260.4,290.6h2.7v6h-1.7v-4.4h-17.8v4.4h-1.7v-6h2c1.5-1.4,2.4-3.6,2.4-10.3v-9.9h14.1V290.6z M2258.7,290.6
		v-18.7h-10.9v8.6c0,5.8-0.7,8.4-2,10.1H2258.7z"/>
	<path class="st2" d="M2265.9,292.2v-1.6h1.9c1.7,0,2.4-0.4,3.4-2.4l0.8-1.8l-8.5-16h1.9l7.4,14.2l6.5-14.2h1.8l-8.5,18.2
		c-1.3,2.8-2.4,3.5-4.5,3.5H2265.9z"/>
	<path class="st2" d="M2309.5,290.6h2.7v6h-1.7v-4.4h-26.7v-21.7h1.7v20.2h10.4v-20.2h1.7v20.2h10.3v-20.2h1.7V290.6z"/>
	<path class="st2" d="M2313.8,292.2l8.4-21.7h2l8.4,21.7h-1.8l-2.6-6.6h-10l-2.6,6.6H2313.8z M2318.7,284h9l-4.5-11.7L2318.7,284z"
		/>
	<path class="st2" d="M2349.7,270.5v21.7h-1.7v-9h-6l-5.7,9h-2l5.8-9.1c-3.6-0.4-5.6-2.9-5.6-6.2c0-3.7,2.8-6.3,6.9-6.3H2349.7z
		 M2348.1,281.7V272h-6.4c-3.3,0-5.3,2-5.3,4.8c0,2.9,2,4.8,5.3,4.8H2348.1z"/>
	<path class="st2" d="M2362.6,270.5h7.4c4.4,0,6.8,2.1,6.8,5.6c0,2.6-1.5,4.3-3.9,4.9c2.9,0.4,4.9,2.1,4.9,5.2c0,3.8-2.6,6-7.7,6
		h-7.5V270.5z M2364.2,272v8.3h5.8c3.2,0,5.1-1.6,5.1-4.2c0-2.6-1.8-4.2-5.1-4.2H2364.2z M2364.2,281.9v8.8h5.9
		c3.9,0,5.9-1.7,5.9-4.4c0-2.9-2.2-4.4-5.9-4.4H2364.2z"/>
	<path class="st2" d="M2381.3,270.5h13.4v1.6H2383v8.3h9.8v1.5h-9.8v8.8h12.1v1.6h-13.8V270.5z"/>
	<path class="st2" d="M2398.3,270.5h8.1c4.1,0,6.8,2.5,6.8,6.3s-2.7,6.3-6.8,6.3h-6.4v9.1h-1.7V270.5z M2399.9,272v9.5h6.2
		c3.2,0,5.2-2,5.2-4.8c0-2.9-2-4.8-5.2-4.8H2399.9z"/>
	<path class="st2" d="M2415.4,281.3c0-6.5,4-11,10.1-11c4.6,0,7.8,2.5,8.8,6.9h-1.8c-1-3.4-3.5-5.3-7.1-5.3c-5,0-8.2,3.9-8.2,9.5
		s3.2,9.5,8.2,9.5c3.7,0,6.2-1.9,7.1-5.3h1.8c-0.9,4.4-4.2,6.9-8.9,6.9C2419.2,292.4,2415.4,287.9,2415.4,281.3z"/>
	<path class="st2" d="M2437.8,292.2v-21.7h1.7v18.9l12.9-18.9h1.6v21.7h-1.7v-18.9l-12.9,18.9H2437.8z"/>
	<path class="st2" d="M2472.8,270.5v21.7h-1.7v-9h-6l-5.7,9h-2l5.8-9.1c-3.6-0.4-5.6-2.9-5.6-6.2c0-3.7,2.8-6.3,6.9-6.3H2472.8z
		 M2471.2,281.7V272h-6.4c-3.3,0-5.3,2-5.3,4.8c0,2.9,2,4.8,5.3,4.8H2471.2z"/>
</g>
<g class="st6">
	<path class="st2" d="M219.7,1757.5h7.4c4.4,0,6.8,2.1,6.8,5.6c0,2.6-1.5,4.3-3.9,4.9c2.9,0.4,4.9,2.1,4.9,5.2c0,3.8-2.6,6-7.7,6
		h-7.5V1757.5z M221.4,1759v8.3h5.8c3.2,0,5.1-1.6,5.1-4.2c0-2.6-1.8-4.2-5.1-4.2H221.4z M221.4,1768.9v8.8h5.9
		c3.9,0,5.9-1.7,5.9-4.4c0-2.9-2.2-4.4-5.9-4.4H221.4z"/>
	<path class="st2" d="M235.2,1757.5h16.6v1.5h-7.4v20.2h-1.7V1759h-7.4V1757.5z"/>
	<path class="st2" d="M262.2,1779.4c-6,0-10.1-4.6-10.1-11c0-6.4,4.2-11,10.1-11c6,0,10.1,4.6,10.1,11
		C272.3,1774.8,268.2,1779.4,262.2,1779.4z M262.2,1777.8c5,0,8.4-3.9,8.4-9.5c0-5.5-3.4-9.5-8.4-9.5c-5,0-8.4,3.9-8.4,9.5
		C253.8,1773.9,257.2,1777.8,262.2,1777.8z"/>
	<path class="st2" d="M276,1757.5h8.1c4.1,0,6.8,2.5,6.8,6.3c0,3.8-2.7,6.3-6.8,6.3h-6.4v9.1H276V1757.5z M277.7,1759v9.5h6.2
		c3.2,0,5.2-2,5.2-4.8c0-2.9-2-4.8-5.2-4.8H277.7z"/>
	<path class="st2" d="M293.9,1779.2v-21.7h1.7v18.9l12.9-18.9h1.5v21.7h-1.7v-18.9l-12.9,18.9H293.9z"/>
	<path class="st2" d="M327.3,1757.5h1.7v21.7h-1.7v-10c-1.7,1.1-3.8,1.8-6.4,1.8c-4.3,0-7.2-2.1-7.2-6.6v-6.9h1.7v6.5
		c0,3.8,2.1,5.4,5.7,5.4c2.5,0,4.6-0.7,6.3-1.9V1757.5z"/>
	<path class="st2" d="M333.4,1757.5h1.7v9.9h12.6v-9.9h1.7v21.7h-1.7v-10.3h-12.6v10.3h-1.7V1757.5z"/>
	<path class="st2" d="M352.1,1779.2l8.4-21.7h2l8.4,21.7H369l-2.6-6.6h-10l-2.6,6.6H352.1z M356.9,1771h9l-4.5-11.7L356.9,1771z"/>
	<path class="st2" d="M388,1757.5v21.7h-1.7v-9h-6l-5.7,9h-2l5.8-9.1c-3.6-0.4-5.6-2.9-5.6-6.2c0-3.7,2.8-6.3,6.9-6.3H388z
		 M386.3,1768.7v-9.6h-6.4c-3.3,0-5.3,2-5.3,4.8c0,2.9,2,4.8,5.3,4.8H386.3z"/>
	<path class="st2" d="M400.8,1757.5h7.4c4.4,0,6.8,2.1,6.8,5.6c0,2.6-1.5,4.3-3.9,4.9c2.9,0.4,4.9,2.1,4.9,5.2c0,3.8-2.6,6-7.7,6
		h-7.5V1757.5z M402.5,1759v8.3h5.8c3.2,0,5.1-1.6,5.1-4.2c0-2.6-1.8-4.2-5.1-4.2H402.5z M402.5,1768.9v8.8h5.9
		c3.9,0,5.9-1.7,5.9-4.4c0-2.9-2.2-4.4-5.9-4.4H402.5z"/>
	<path class="st2" d="M419.6,1757.5h13.4v1.5h-11.7v8.3h9.8v1.5h-9.8v8.8h12.1v1.6h-13.8V1757.5z"/>
	<path class="st2" d="M436.5,1757.5h8.1c4.1,0,6.8,2.5,6.8,6.3c0,3.8-2.7,6.3-6.8,6.3h-6.4v9.1h-1.7V1757.5z M438.2,1759v9.5h6.2
		c3.2,0,5.2-2,5.2-4.8c0-2.9-2-4.8-5.2-4.8H438.2z"/>
	<path class="st2" d="M453.6,1768.3c0-6.5,4-11,10.1-11c4.6,0,7.8,2.5,8.8,6.9h-1.8c-1-3.4-3.5-5.3-7.1-5.3c-5,0-8.2,3.9-8.2,9.5
		c0,5.6,3.2,9.5,8.2,9.5c3.7,0,6.2-1.9,7.1-5.3h1.8c-0.9,4.4-4.2,6.9-8.9,6.9C457.5,1779.4,453.6,1774.9,453.6,1768.3z"/>
	<path class="st2" d="M476,1779.2v-21.7h1.7v18.9l12.9-18.9h1.6v21.7h-1.7v-18.9l-12.9,18.9H476z"/>
	<path class="st2" d="M511.1,1757.5v21.7h-1.7v-9h-6l-5.7,9h-2l5.8-9.1c-3.6-0.4-5.6-2.9-5.6-6.2c0-3.7,2.8-6.3,6.9-6.3H511.1z
		 M509.4,1768.7v-9.6H503c-3.3,0-5.3,2-5.3,4.8c0,2.9,2,4.8,5.3,4.8H509.4z"/>
</g>
<g class="st6">
	<path class="st2" d="M2250.1,1768.3c0-6.5,4-11,10.1-11c4.6,0,7.8,2.5,8.8,6.9h-1.8c-1-3.4-3.5-5.3-7.1-5.3c-5,0-8.2,3.9-8.2,9.5
		c0,5.5,3.2,9.5,8.2,9.5c3.7,0,6.2-1.9,7.1-5.3h1.8c-0.9,4.4-4.2,6.9-8.9,6.9C2254,1779.4,2250.1,1774.9,2250.1,1768.3z"/>
	<path class="st2" d="M2272.5,1779.2v-21.7h1.7v18.9l12.9-18.9h1.6v21.7h-1.7v-18.9l-12.9,18.9H2272.5z"/>
	<path class="st2" d="M2293.2,1757.5h2.1l8.4,19.4l8.4-19.4h2.1v21.7h-1.6v-18.9l-8.1,18.9h-1.5l-8.1-18.9v18.9h-1.6V1757.5z"/>
	<path class="st2" d="M2318.7,1757.5h7.4c4.4,0,6.8,2.1,6.8,5.6c0,2.6-1.5,4.3-3.9,4.9c2.9,0.4,4.9,2.1,4.9,5.2c0,3.8-2.6,6-7.7,6
		h-7.5V1757.5z M2320.4,1759v8.3h5.8c3.2,0,5.1-1.6,5.1-4.2c0-2.6-1.8-4.2-5.1-4.2H2320.4z M2320.4,1768.9v8.8h5.9
		c3.9,0,5.9-1.7,5.9-4.4c0-2.9-2.2-4.4-5.9-4.4H2320.4z"/>
	<path class="st2" d="M2346.7,1779.4c-6,0-10.1-4.6-10.1-11c0-6.4,4.2-11,10.1-11c6,0,10.1,4.6,10.1,11
		C2356.9,1774.8,2352.7,1779.4,2346.7,1779.4z M2346.7,1777.8c5,0,8.4-3.9,8.4-9.5c0-5.6-3.4-9.5-8.4-9.5c-5,0-8.4,3.9-8.4,9.5
		C2338.3,1773.9,2341.8,1777.8,2346.7,1777.8z"/>
	<path class="st2" d="M2357.3,1779.2v-1.6h0.5c2.6,0,3.8-1.7,3.8-9.5v-10.6h14.2v21.7h-1.7V1759h-10.9v9.2c0,8.6-1.6,10.9-5.2,10.9
		H2357.3z"/>
</g>
</svg>
