<?xml version="1.0" encoding="utf-8"?>
<!-- Generator: Adobe Illustrator 22.0.0, SVG Export Plug-In . SVG Version: 6.00 Build 0)  -->
<svg version="1.1" id="Layer_1" xmlns="http://www.w3.org/2000/svg" xmlns:xlink="http://www.w3.org/1999/xlink" x="0px" y="0px"
	 viewBox="0 0 800 681.4" style="enable-background:new 0 0 800 681.4;" xml:space="preserve">
<style type="text/css">
	.st0{fill:#F3F3F3;}
</style>
<g>
	<g>
		<g>
			<path class="st0" d="M623.1,33.3c0-19.7,12.2-33.3,31.2-33.3c14.5,0,25.1,8.5,27.4,22H673c-2.4-9.1-9.5-14.5-19.3-14.5
				c-13.7,0-22.5,10.6-22.5,25.8c0,15,8.5,25.8,22.2,25.8c10.1,0,17.1-5.4,19.6-14.5h8.6c-2.4,13.5-13.2,22-28.1,22
				C635,66.4,623.1,53.2,623.1,33.3z"/>
			<path class="st0" d="M691.6,65.9V0.5h49.6v65.4h-8.2V8h-33.5v57.9H691.6z"/>
			<path class="st0" d="M800,43.7c0,13.2-9.3,22.8-23.3,22.8c-14.4,0-23.3-8.6-23.3-26.8c0-25.5,6-35.1,26.8-37.7L796.2,0v7.2
				L781.7,9c-15,2-19.3,5.9-20.7,20.1c3.4-4.6,9.3-7.5,17.5-7.5C790.9,21.4,800,30.2,800,43.7z M792.2,43.9
				c0-9.1-6.4-15.8-15.3-15.8c-9.3,0-15.7,6.7-15.7,14.8c0,10.6,6.5,16.8,15.5,16.8C785.8,59.9,792.2,53.2,792.2,43.9z"/>
		</g>
	</g>
	<path class="st0" d="M625.1,465.4V254.7c0-55.6-29.9-107.5-78.1-135.3L364.7,14c-32.1-18.7-72.2-18.7-104.3,0L78.1,119.4
		C29.9,147.2,0,198.5,0,254.7v210.7c0,37.4,19.8,71.7,51.9,89.8l182.4,105.3c48.7,27.8,108,27.8,156.1,0l182.4-105.3
		C605.3,536.5,625.1,502.3,625.1,465.4z M567.9,532.7H56.7l-34.8-60.4L277.5,30.1h69.5l255.6,442.8L567.9,532.7z"/>
</g>
</svg>
