<?xml version="1.0" encoding="utf-8"?>
<!-- Generator: Adobe Illustrator 22.0.0, SVG Export Plug-In . SVG Version: 6.00 Build 0)  -->
<svg version="1.1" id="Layer_1" xmlns="http://www.w3.org/2000/svg" xmlns:xlink="http://www.w3.org/1999/xlink" x="0px" y="0px"
	 viewBox="0 0 1980 1320" style="enable-background:new 0 0 1980 1320;" xml:space="preserve">
<style type="text/css">
	.st0{fill:#141414;}
	.st1{fill:#7D7D7D;}
	.st2{fill:#FFFFFF;}
	.st3{fill:#FF5A39;}
	.st4{fill:none;stroke:#7D7D7D;stroke-width:1.4773;stroke-miterlimit:10;}
</style>
<rect class="st0" width="1980" height="1320"/>
<g>
	<g>
		<path class="st1" d="M343.3,611.2v-2.4h3.2v-16.2l-3.2,1.9l-0.7-2.2l5.4-3.1h0.9v19.6h3.3v2.4H343.3z"/>
		<path class="st1" d="M355.4,614.9l12.6-25.4h2.4l-12.6,25.4H355.4z"/>
		<path class="st1" d="M379.6,611.5c-1.6,0-2.9-0.3-4.1-1c-1.2-0.7-2.2-1.9-3.2-3.6l2-1.3c0.8,1.3,1.7,2.3,2.6,2.8
			c0.9,0.5,1.9,0.8,2.9,0.8c0.9,0,1.7-0.2,2.4-0.6c0.7-0.4,1.3-1,1.7-1.7c0.4-0.7,0.6-1.5,0.6-2.5c0-1.4-0.4-2.5-1.3-3.4
			s-1.9-1.3-3.3-1.3c-0.5,0-1.1,0.1-1.7,0.3c-0.6,0.2-1.3,0.5-2.1,1.1l-0.7-2l6.8-7.4h-8.5v-2.3h11.7l0.6,1.2l-6.3,6.7
			c0.1,0,0.2,0,0.3,0c1.3,0,2.4,0.3,3.4,0.9c1,0.6,1.8,1.4,2.5,2.5c0.6,1,0.9,2.2,0.9,3.5c0,1.4-0.3,2.6-1,3.7
			c-0.7,1.1-1.5,1.9-2.7,2.6S381,611.5,379.6,611.5z"/>
	</g>
	<g>
		<path class="st1" d="M343.3,668.3V666h3.2v-16.2l-3.2,1.9l-0.7-2.2l5.4-3.1h0.9V666h3.3v2.4H343.3z"/>
		<path class="st1" d="M355.4,672l12.6-25.4h2.4L357.8,672H355.4z"/>
		<path class="st1" d="M379.6,668.7c-1.6,0-2.9-0.3-4.1-1c-1.2-0.7-2.2-1.9-3.2-3.6l2-1.3c0.8,1.3,1.7,2.3,2.6,2.8
			c0.9,0.5,1.9,0.8,2.9,0.8c0.9,0,1.7-0.2,2.4-0.6c0.7-0.4,1.3-1,1.7-1.7c0.4-0.7,0.6-1.5,0.6-2.5c0-1.4-0.4-2.5-1.3-3.4
			s-1.9-1.3-3.3-1.3c-0.5,0-1.1,0.1-1.7,0.3c-0.6,0.2-1.3,0.5-2.1,1.1l-0.7-2l6.8-7.4h-8.5v-2.3h11.7l0.6,1.2l-6.3,6.7
			c0.1,0,0.2,0,0.3,0c1.3,0,2.4,0.3,3.4,0.9c1,0.6,1.8,1.4,2.5,2.5c0.6,1,0.9,2.2,0.9,3.5c0,1.4-0.3,2.6-1,3.7
			c-0.7,1.1-1.5,1.9-2.7,2.6S381,668.7,379.6,668.7z"/>
	</g>
	<g>
		<path class="st1" d="M343.3,724.5v-2.4h3.2v-16.2l-3.2,1.9l-0.7-2.2l5.4-3.1h0.9v19.6h3.3v2.4H343.3z"/>
		<path class="st1" d="M355.4,728.2l12.6-25.4h2.4l-12.6,25.4H355.4z"/>
		<path class="st1" d="M379.6,724.8c-1.6,0-2.9-0.3-4.1-1c-1.2-0.7-2.2-1.9-3.2-3.6l2-1.3c0.8,1.3,1.7,2.3,2.6,2.8
			c0.9,0.5,1.9,0.8,2.9,0.8c0.9,0,1.7-0.2,2.4-0.6c0.7-0.4,1.3-1,1.7-1.7c0.4-0.7,0.6-1.5,0.6-2.5c0-1.4-0.4-2.5-1.3-3.4
			c-0.8-0.9-1.9-1.3-3.3-1.3c-0.5,0-1.1,0.1-1.7,0.3c-0.6,0.2-1.3,0.5-2.1,1.1l-0.7-2l6.8-7.4h-8.5v-2.3h11.7l0.6,1.2l-6.3,6.7
			c0.1,0,0.2,0,0.3,0c1.3,0,2.4,0.3,3.4,0.9s1.8,1.4,2.5,2.5c0.6,1,0.9,2.2,0.9,3.5c0,1.4-0.3,2.6-1,3.7c-0.7,1.1-1.5,1.9-2.7,2.6
			S381,724.8,379.6,724.8z"/>
	</g>
	<g>
		<path class="st2" d="M835.1,696.7h-75.7c1.2,22.8,14,33.2,31.4,33.2c11.6,0,22.4-5.2,26.4-17h16c-4.8,22.2-23.6,31.6-43,31.6
			c-25.8,0-47.3-16.6-47.3-51.7c0-31.6,18.8-53.3,47.7-53.3c24.6,0,44.4,13.6,44.4,47.3V696.7z M818.9,683.3c-0.2-17-8-29-27.8-29
			c-18.2,0-28.6,12-31.2,29H818.9z"/>
		<path class="st2" d="M846.5,641.6h16v16.6c5.2-11.8,16.4-18.6,30-18.6c13,0,25.2,6.2,28.8,20c6-13.8,19.6-20,34-20
			c17.2,0,31.8,10.4,31.8,30.6v72.1h-16.2v-66.9c0-14.2-8.6-21.2-19.8-21.2c-13.2,0-26.3,9.6-26.3,28.2v59.9h-16.2v-66.9
			c0-14.2-8.6-21.2-19.8-21.2c-13.2,0-26,9.6-26,28.2v59.9h-16.4V641.6z"/>
		<path class="st2" d="M1004.3,742.3V641.6h16.2v100.7H1004.3z M1003.5,621.2V601h18v20.2H1003.5z"/>
		<path class="st2" d="M1038.6,641.6h16v19c6.2-12.6,17.8-21,35.8-21c22.2,0,34.2,12.8,34.2,34.6v68.1h-16.4v-65.5
			c0-15.2-9.6-22.6-22.4-22.6c-16.8,0-30.8,12.6-30.8,34.2v53.9h-16.4V641.6z"/>
		<path class="st2" d="M1227,696.7h-75.7c1.2,22.8,14,33.2,31.4,33.2c11.6,0,22.4-5.2,26.4-17h16c-4.8,22.2-23.6,31.6-43,31.6
			c-25.8,0-47.3-16.6-47.3-51.7c0-31.6,18.8-53.3,47.7-53.3c24.6,0,44.5,13.6,44.5,47.3V696.7z M1210.7,683.3c-0.2-17-8-29-27.8-29
			c-18.2,0-28.6,12-31.2,29H1210.7z"/>
		<path class="st2" d="M1238.4,641.6h16v19c6.2-12.6,17.8-21,35.8-21c22.2,0,34.2,12.8,34.2,34.6v68.1h-16.4v-65.5
			c0-15.2-9.6-22.6-22.4-22.6c-16.8,0-30.8,12.6-30.8,34.2v53.9h-16.4V641.6z"/>
		<path class="st2" d="M1426,706.9c-2.2,23.6-19.6,37.6-44,37.6c-31.8,0-47.3-23.6-47.3-51.9c0-29,16.4-53.1,48.3-53.1
			c24,0,41.3,13,42.8,36.2h-16.2c-1.2-14-11.4-21-26.4-21c-22,0-31.6,16.4-31.6,37.1c0,21,9.6,37.4,31.2,37.4
			c14.6,0,24.8-7.6,27-22.4H1426z"/>
		<path class="st2" d="M1522.3,696.7h-75.7c1.2,22.8,14,33.2,31.4,33.2c11.6,0,22.4-5.2,26.4-17h16c-4.8,22.2-23.6,31.6-43,31.6
			c-25.8,0-47.3-16.6-47.3-51.7c0-31.6,18.8-53.3,47.7-53.3c24.6,0,44.4,13.6,44.4,47.3V696.7z M1506.1,683.3c-0.2-17-8-29-27.8-29
			c-18.2,0-28.6,12-31.2,29H1506.1z"/>
	</g>
	<g>
		<path class="st3" d="M708.1,744.6h-137c-16.2,0-29.3-13.2-29.3-29.4V597.8c0-16.2,13.2-29.4,29.3-29.4h117.4
			c13.8,0,18.4,7.8,19.8,11.1c1.4,3.3,3.6,12.2-6.2,21.9L583.5,720.1h124.6V744.6z M571.1,592.9c-2.6,0-4.9,2.2-4.9,4.9v105
			l109.9-109.9H571.1z"/>
	</g>
	<line class="st4" x1="541.1" y1="568.4" x2="1521.5" y2="568.4"/>
	<line class="st4" x1="541.1" y1="451.8" x2="1521.5" y2="451.8"/>
	<line class="st4" x1="541.1" y1="744.6" x2="1515.6" y2="744.6"/>
	<g>
		<g>
			<rect x="481.9" y="568.5" class="st4" width="58.5" height="58.5"/>
			<rect x="481.9" y="627.3" class="st4" width="58.5" height="58.5"/>
			<rect x="481.9" y="686" class="st4" width="58.5" height="58.5"/>
		</g>
		<g>
			<rect x="423.1" y="568.5" class="st4" width="58.5" height="58.5"/>
			<rect x="423.1" y="627.3" class="st4" width="58.5" height="58.5"/>
			<rect x="423.1" y="686" class="st4" width="58.5" height="58.5"/>
		</g>
		<g>
			<g>
				<rect x="481.9" y="451.8" class="st4" width="58.5" height="58.5"/>
				<rect x="481.9" y="510.6" class="st4" width="58.5" height="58.5"/>
			</g>
			<g>
				<rect x="423.1" y="451.8" class="st4" width="58.5" height="58.5"/>
				<rect x="423.1" y="510.6" class="st4" width="58.5" height="58.5"/>
			</g>
		</g>
		<g>
			<g>
				<rect x="481.9" y="744.3" class="st4" width="58.5" height="58.5"/>
				<rect x="481.9" y="803.1" class="st4" width="58.5" height="58.5"/>
			</g>
			<g>
				<rect x="423.1" y="744.3" class="st4" width="58.5" height="58.5"/>
				<rect x="423.1" y="803.1" class="st4" width="58.5" height="58.5"/>
			</g>
		</g>
	</g>
	<g>
		<g>
			<rect x="1581.5" y="568.5" class="st4" width="58.5" height="58.5"/>
			<rect x="1581.5" y="627.3" class="st4" width="58.5" height="58.5"/>
			<rect x="1581.5" y="686" class="st4" width="58.5" height="58.5"/>
		</g>
		<g>
			<rect x="1522.7" y="568.5" class="st4" width="58.5" height="58.5"/>
			<rect x="1522.7" y="627.3" class="st4" width="58.5" height="58.5"/>
			<rect x="1522.7" y="686" class="st4" width="58.5" height="58.5"/>
		</g>
		<g>
			<g>
				<rect x="1581.5" y="451.8" class="st4" width="58.5" height="58.5"/>
				<rect x="1581.5" y="510.6" class="st4" width="58.5" height="58.5"/>
			</g>
			<g>
				<rect x="1522.7" y="451.8" class="st4" width="58.5" height="58.5"/>
				<rect x="1522.7" y="510.6" class="st4" width="58.5" height="58.5"/>
			</g>
		</g>
		<g>
			<g>
				<rect x="1581.5" y="744.3" class="st4" width="58.5" height="58.5"/>
				<rect x="1581.5" y="803.1" class="st4" width="58.5" height="58.5"/>
			</g>
			<g>
				<rect x="1522.7" y="744.3" class="st4" width="58.5" height="58.5"/>
				<rect x="1522.7" y="803.1" class="st4" width="58.5" height="58.5"/>
			</g>
		</g>
	</g>
	<line class="st4" x1="541.1" y1="861.6" x2="1521.5" y2="861.6"/>
</g>
</svg>
