<?xml version="1.0" encoding="utf-8"?>
<!-- Generator: Adobe Illustrator 22.0.0, SVG Export Plug-In . SVG Version: 6.00 Build 0)  -->
<svg version="1.1" id="Layer_1" xmlns="http://www.w3.org/2000/svg" xmlns:xlink="http://www.w3.org/1999/xlink" x="0px" y="0px"
	 viewBox="0 0 1920 1080" style="enable-background:new 0 0 1920 1080;" xml:space="preserve">
<style type="text/css">
	.st0{fill:#141414;}
	.st1{fill:#FF5A39;}
	.st2{fill:#B54BFF;}
	.st3{fill:#7D7D7D;}
	.st4{fill:#FFFFFF;}
	.st5{opacity:0.8;fill:#FFFFFF;}
	.st6{opacity:0.6;fill:#FFFFFF;}
	.st7{opacity:0.4;fill:#FFFFFF;}
</style>
<rect class="st0" width="1920" height="1080"/>
<g>
	<g>
		<path class="st1" d="M557.1,302c8.6,0,17.9,6.8,17.9,21.7v132.7c0,10-8.1,18.2-18.2,18.2H424.1c-14.1,0-19-8-20.4-11.4
			c-1.4-3.4-3.7-12.5,6.3-22.5l131-131C547.3,303.3,553.2,302,557.1,302z"/>
	</g>
	<g>
		<path class="st1" d="M737.3,474.5H604.6c-10,0-18.2-8.1-18.2-18.2V323.7c0-14.9,9.3-21.7,17.9-21.7c3.8,0,9.8,1.3,16,7.6l131,131
			c10,10,7.8,19.1,6.3,22.5C756.3,466.5,751.4,474.5,737.3,474.5z"/>
	</g>
	<g>
		<path class="st1" d="M557.1,658.5c-3.8,0-9.8-1.3-16-7.6l-131-131c-10-10-7.8-19.1-6.3-22.5c1.4-3.4,6.3-11.4,20.4-11.4h132.7
			c10,0,18.2,8.1,18.2,18.2v132.7C575,651.7,565.7,658.5,557.1,658.5z"/>
	</g>
	<g>
		<path class="st1" d="M604.6,486h132.7c14.1,0,19,8,20.4,11.4c1.4,3.4,3.7,12.5-6.3,22.5l-131,131c-6.3,6.3-12.2,7.6-16,7.6
			c-8.6,0-17.9-6.8-17.9-21.7V504.2C586.5,494.1,594.6,486,604.6,486z"/>
	</g>
</g>
<g>
	<g>
		<g>
			<path class="st2" d="M52.6,841.5c-8.7,0-18-6.8-18-21.8V698.1c0-16.8,13.6-30.4,30.4-30.4h121.6c14.2,0,19.1,8,20.5,11.5
				c1.4,3.5,3.7,12.6-6.4,22.7L68.8,833.8C62.5,840.2,56.5,841.5,52.6,841.5z"/>
		</g>
		<g>
			<path class="st2" d="M241.8,667.7h121.6c16.8,0,30.4,13.6,30.4,30.4v121.6c0,15-9.3,21.8-18,21.8c-3.9,0-9.8-1.3-16.2-7.7
				L227.6,701.9c-10.1-10.1-7.8-19.2-6.4-22.7C222.7,675.8,227.6,667.7,241.8,667.7z"/>
		</g>
		<g>
			<path class="st2" d="M52.6,853.1c3.9,0,9.8,1.3,16.2,7.7l131.9,131.9c10.1,10.1,7.8,19.2,6.4,22.7c-1.4,3.5-6.3,11.5-20.5,11.5
				H65c-16.8,0-30.4-13.6-30.4-30.4V874.9C34.6,859.9,44,853.1,52.6,853.1z"/>
		</g>
		<g>
			<path class="st2" d="M363.4,1026.8H241.8c-14.2,0-19.1-8-20.5-11.5c-1.4-3.5-3.7-12.6,6.4-22.7l131.9-131.9
				c6.3-6.3,12.3-7.7,16.2-7.7c8.7,0,18,6.8,18,21.8v121.6C393.7,1013.2,380.1,1026.8,363.4,1026.8z"/>
		</g>
	</g>
</g>
<g>
	<g>
		<g>
			<path class="st3" d="M190.6,303.3c8,0,16.6,6.4,16.6,20.4v120.7c0,15.9-13,28.9-28.9,28.9H57.6c-13.4,0-17.9-7.4-19.2-10.6
				c-1.3-3.2-3.4-11.6,6.1-21.1l131-131C181.4,304.6,187,303.3,190.6,303.3 M190.6,302c-3.8,0-9.8,1.3-16,7.6l-131,131
				c-10,10-7.8,19.1-6.3,22.5c1.4,3.4,6.3,11.4,20.4,11.4h120.7c16.6,0,30.2-13.5,30.2-30.2V323.7C208.4,308.8,199.2,302,190.6,302
				L190.6,302z"/>
		</g>
	</g>
	<g>
		<g>
			<path class="st3" d="M237.8,303.3c3.6,0,9.1,1.3,15.1,7.2l131,131c9.4,9.4,7.4,17.9,6.1,21.1c-1.3,3.2-5.8,10.6-19.2,10.6H250.1
				c-15.9,0-28.9-13-28.9-28.9V323.7C221.2,309.7,229.8,303.3,237.8,303.3 M237.8,302c-8.6,0-17.9,6.8-17.9,21.7v120.7
				c0,16.6,13.5,30.2,30.2,30.2h120.7c14.1,0,19-8,20.4-11.4c1.4-3.4,3.7-12.5-6.3-22.5l-131-131C247.6,303.3,241.6,302,237.8,302
				L237.8,302z"/>
		</g>
	</g>
	<g>
		<g>
			<path class="st3" d="M178.3,487.3c15.9,0,28.9,13,28.9,28.9v120.7c0,14-8.6,20.4-16.6,20.4c-3.6,0-9.1-1.3-15.1-7.2l-131-131
				c-9.4-9.4-7.4-17.9-6.1-21.1c1.3-3.2,5.8-10.6,19.2-10.6H178.3 M178.3,486H57.6c-14.1,0-19,8-20.4,11.4
				c-1.4,3.4-3.7,12.5,6.3,22.5l131,131c6.3,6.3,12.2,7.6,16,7.6c8.6,0,17.9-6.8,17.9-21.7V516.2C208.4,499.5,194.9,486,178.3,486
				L178.3,486z"/>
		</g>
	</g>
	<g>
		<g>
			<path class="st3" d="M370.8,487.3c13.4,0,17.9,7.4,19.2,10.6c1.3,3.2,3.4,11.6-6.1,21.1l-131,131c-6,6-11.5,7.2-15.1,7.2
				c-8,0-16.6-6.4-16.6-20.4V516.2c0-15.9,13-28.9,28.9-28.9H370.8 M370.8,486H250.1c-16.6,0-30.2,13.5-30.2,30.2v120.7
				c0,14.9,9.3,21.7,17.9,21.7c3.8,0,9.8-1.3,16-7.6l131-131c10-10,7.8-19.1,6.3-22.5C389.8,494,384.9,486,370.8,486L370.8,486z"/>
		</g>
	</g>
</g>
<g>
	<g>
		<g>
			<path class="st3" d="M553.1,669c13.5,0,18,7.5,19.3,10.7c1.3,3.2,3.4,11.7-6.1,21.2L434.4,832.9c-6,6-11.6,7.3-15.2,7.3
				c-8,0-16.7-6.4-16.7-20.5V698.1c0-16,13.1-29.1,29.1-29.1H553.1 M553.1,667.7H431.5c-16.8,0-30.4,13.6-30.4,30.4v121.6
				c0,15,9.3,21.8,18,21.8c3.9,0,9.8-1.3,16.2-7.7l131.9-131.9c10.1-10.1,7.8-19.2,6.4-22.7S567.3,667.7,553.1,667.7L553.1,667.7z"
				/>
		</g>
	</g>
	<g>
		<g>
			<path class="st3" d="M729.9,669c16,0,29.1,13.1,29.1,29.1v121.6c0,14.1-8.7,20.5-16.7,20.5c-3.6,0-9.2-1.3-15.2-7.3L595.1,701
				c-9.5-9.5-7.4-18-6.1-21.2c1.3-3.2,5.9-10.7,19.3-10.7H729.9 M729.9,667.7H608.3c-14.2,0-19.1,8-20.5,11.5
				c-1.4,3.5-3.7,12.6,6.4,22.7l131.9,131.9c6.3,6.3,12.3,7.7,16.2,7.7c8.7,0,18-6.8,18-21.8V698.1
				C760.3,681.4,746.6,667.7,729.9,667.7L729.9,667.7z"/>
		</g>
	</g>
	<g>
		<g>
			<path class="st3" d="M419.1,854.4c3.6,0,9.2,1.3,15.2,7.3l131.9,131.9c9.5,9.5,7.4,18,6.1,21.2c-1.3,3.2-5.9,10.7-19.3,10.7
				H431.5c-16,0-29.1-13.1-29.1-29.1V874.9C402.5,860.8,411.1,854.4,419.1,854.4 M419.1,853.1c-8.7,0-18,6.8-18,21.8v121.6
				c0,16.8,13.6,30.4,30.4,30.4h121.6c14.2,0,19.1-8,20.5-11.5c1.4-3.5,3.7-12.6-6.4-22.7L435.3,860.7
				C429,854.4,423,853.1,419.1,853.1L419.1,853.1z"/>
		</g>
	</g>
	<g>
		<g>
			<path class="st3" d="M742.3,854.4c8,0,16.7,6.4,16.7,20.5v121.6c0,16-13,29.1-29.1,29.1H608.3c-13.5,0-18-7.5-19.3-10.7
				c-1.3-3.2-3.4-11.7,6.1-21.2L727,861.6C733,855.6,738.6,854.4,742.3,854.4 M742.3,853.1c-3.9,0-9.8,1.3-16.2,7.7L594.2,992.7
				c-10.1,10.1-7.8,19.2-6.4,22.7c1.4,3.5,6.3,11.5,20.5,11.5h121.6c16.8,0,30.4-13.6,30.4-30.4V874.9
				C760.3,859.9,750.9,853.1,742.3,853.1L742.3,853.1z"/>
		</g>
	</g>
</g>
<g>
	<g>
		<path class="st3" d="M41.2,93.9l-5.8-18.8h2.4l4.6,15.3l4.7-15.3h2l4.7,15.3l4.7-15.3h2.3l-5.7,18.8h-2.4l-4.6-15.3l-4.7,15.3
			H41.2z"/>
		<path class="st3" d="M74.1,89.6c-0.5,2.8-2.8,4.6-6.2,4.6c-4,0-6.7-3.2-6.7-7.1c0-4,2.5-6.9,6.4-6.9c3.9,0,6.3,2.7,6.3,6.3
			c0,0.3,0,0.8-0.1,0.9H63.3c0.2,2.8,2,4.8,4.6,4.8c2.2,0,3.6-1,4-2.7H74.1z M63.4,85.8h8.3C71.6,83.5,70,82,67.6,82
			C65.3,82,63.8,83.4,63.4,85.8z"/>
		<path class="st3" d="M94.8,80.4v13.5h-2.1v-2.6c-0.7,1.9-2.4,2.8-4.5,2.8c-3.1,0-5-2.2-5-5.5v-8.3h2.1v7.9c0,2.3,1.3,3.9,3.4,3.9
			c2.3,0,4-1.8,4-4.5v-7.3H94.8z"/>
		<path class="st3" d="M97.7,89.6h2.1c0.2,1.7,1.4,2.7,3.3,2.7c1.7,0,2.8-0.9,2.8-2c0-4-7.9-0.4-7.9-6.2c0-2.3,1.9-3.8,4.8-3.8
			c3,0,5,1.6,5.1,4.1h-2.1c-0.2-1.7-1.9-2.3-3.1-2.3c-1.6,0-2.6,0.8-2.6,1.9c0,3.6,7.9,0,7.9,6.2c0,2.4-2,4-5,4
			C99.9,94.1,97.9,92.4,97.7,89.6z"/>
		<path class="st3" d="M122.9,89.6c-0.5,2.8-2.8,4.6-6.2,4.6c-4,0-6.7-3.2-6.7-7.1c0-4,2.5-6.9,6.4-6.9c3.9,0,6.3,2.7,6.3,6.3
			c0,0.3,0,0.8-0.1,0.9h-10.6c0.2,2.8,2,4.8,4.6,4.8c2.2,0,3.6-1,4-2.7H122.9z M112.3,85.8h8.3c-0.2-2.3-1.7-3.7-4.1-3.7
			C114.2,82,112.7,83.4,112.3,85.8z"/>
		<path class="st3" d="M133.6,76.1h2.1v4.3h4.2v1.9h-4.2v7.3c0,1.5,0.9,2.4,2.2,2.4h2v2h-2.1c-2.6,0-4.2-1.6-4.2-4.2v-7.4h-2.8v-1.9
			h2.8V76.1z"/>
		<path class="st3" d="M142.5,93.9V74.9h2.1V83c0.7-1.9,2.4-2.8,4.5-2.8c3.1,0,5,2.2,5,5.5v8.3H152V86c0-2.3-1.3-3.9-3.4-3.9
			c-2.3,0-4,1.9-4,4.5v7.3H142.5z"/>
		<path class="st3" d="M169.8,89.6c-0.5,2.8-2.8,4.6-6.2,4.6c-4,0-6.7-3.2-6.7-7.1c0-4,2.5-6.9,6.4-6.9c3.9,0,6.3,2.7,6.3,6.3
			c0,0.3,0,0.8-0.1,0.9H159c0.2,2.8,2,4.8,4.6,4.8c2.2,0,3.6-1,4-2.7H169.8z M159.1,85.8h8.3c-0.2-2.3-1.7-3.7-4.1-3.7
			C161,82,159.5,83.4,159.1,85.8z"/>
		<path class="st3" d="M181.1,91.7v2.2H179V74.9h2.1v7.7c0.8-1.4,2.6-2.4,4.5-2.4c4.2,0,6.5,3,6.5,7c0,3.9-2.3,7-6.5,7
			C183.7,94.1,182,93.2,181.1,91.7z M189.9,87.2c0-3.1-1.8-5-4.5-5c-2.7,0-4.5,2-4.5,5c0,3.1,1.8,5,4.5,5
			C188.2,92.2,189.9,90.2,189.9,87.2z"/>
		<path class="st3" d="M207,89.6c-0.5,2.8-2.8,4.6-6.2,4.6c-4,0-6.7-3.2-6.7-7.1c0-4,2.5-6.9,6.4-6.9c3.9,0,6.3,2.7,6.3,6.3
			c0,0.3,0,0.8-0.1,0.9h-10.6c0.2,2.8,2,4.8,4.6,4.8c2.2,0,3.6-1,4-2.7H207z M196.3,85.8h8.3c-0.2-2.3-1.7-3.7-4.1-3.7
			C198.3,82,196.7,83.4,196.3,85.8z"/>
		<path class="st3" d="M208.9,89.6h2.1c0.2,1.7,1.4,2.7,3.3,2.7c1.7,0,2.8-0.9,2.8-2c0-4-7.9-0.4-7.9-6.2c0-2.3,1.9-3.8,4.8-3.8
			c3,0,5,1.6,5.1,4.1h-2.1c-0.2-1.7-1.9-2.3-3.1-2.3c-1.6,0-2.6,0.8-2.6,1.9c0,3.6,7.9,0,7.9,6.2c0,2.4-2,4-5,4
			C211.2,94.1,209.1,92.4,208.9,89.6z"/>
		<path class="st3" d="M222.3,99.4v-19h2.1v2.2c0.8-1.5,2.6-2.4,4.5-2.4c4.2,0,6.5,3,6.5,7c0,3.9-2.4,7-6.5,7
			c-1.9,0-3.6-0.9-4.5-2.4v7.6H222.3z M233.2,87.2c0-3.1-1.8-5-4.5-5c-2.7,0-4.5,2-4.5,5c0,3.1,1.8,5,4.5,5
			C231.5,92.2,233.2,90.2,233.2,87.2z"/>
		<path class="st3" d="M237.4,87.2c0-4.1,2.9-7,6.9-7c4,0,6.9,2.9,6.9,7c0,4-2.9,7-6.9,7C240.3,94.1,237.4,91.2,237.4,87.2z
			 M249,87.2c0-2.9-1.9-5-4.7-5c-2.8,0-4.7,2.1-4.7,5c0,2.9,1.9,5,4.7,5C247.1,92.2,249,90.1,249,87.2z"/>
		<path class="st3" d="M263.3,93.9l-5.3-6.8l-1.8,1.6v5.1h-2.2V74.9h2.2v11.3l6.4-5.7h2.8l-5.8,5.3l6.3,8.2H263.3z"/>
		<path class="st3" d="M279.5,89.6c-0.5,2.8-2.8,4.6-6.2,4.6c-4,0-6.7-3.2-6.7-7.1c0-4,2.5-6.9,6.4-6.9c3.9,0,6.3,2.7,6.3,6.3
			c0,0.3,0,0.8-0.1,0.9h-10.6c0.2,2.8,2,4.8,4.6,4.8c2.2,0,3.6-1,4-2.7H279.5z M268.9,85.8h8.3c-0.2-2.3-1.7-3.7-4.1-3.7
			C270.8,82,269.3,83.4,268.9,85.8z"/>
		<path class="st3" d="M290.1,93.9V82.3h-2.8v-1.9h2.8v-1.4c0-2.6,1.6-4.2,4.2-4.2h2.1v1.9h-2c-1.3,0-2.2,0.9-2.2,2.3v1.3h4.2v1.9
			h-4.2v11.6H290.1z"/>
		<path class="st3" d="M297.1,87.2c0-4.1,2.9-7,6.9-7c4,0,6.9,2.9,6.9,7c0,4-2.9,7-6.9,7C300,94.1,297.1,91.2,297.1,87.2z
			 M308.7,87.2c0-2.9-1.9-5-4.7-5c-2.8,0-4.7,2.1-4.7,5c0,2.9,1.9,5,4.7,5C306.8,92.2,308.7,90.1,308.7,87.2z"/>
		<path class="st3" d="M313.7,93.9V80.4h2.1V83c0.7-1.9,2.4-2.8,4.5-2.8c3.1,0,5,2.2,5,5.5v8.3h-2.1V86c0-2.3-1.3-3.9-3.4-3.9
			c-2.3,0-4,1.9-4,4.5v7.3H313.7z"/>
		<path class="st3" d="M329.8,76.1h2.1v4.3h4.2v1.9h-4.2v7.3c0,1.5,0.9,2.4,2.2,2.4h2v2H334c-2.6,0-4.2-1.6-4.2-4.2v-7.4H327v-1.9
			h2.8V76.1z"/>
		<path class="st3" d="M345,93.9V75.2h11.7v2.1h-9.5v6h7.7v2.1h-7.7v6.6h9.8v2.1H345z"/>
		<path class="st3" d="M360.2,93.9V75.2h3l6.2,15.7l6.2-15.7h3v18.8h-2.2V79l-5.9,15h-2l-5.9-15v15H360.2z"/>
		<path class="st3" d="M381.9,92.5c0-1,0.7-1.7,1.6-1.7s1.6,0.7,1.6,1.7c0,1-0.6,1.7-1.6,1.7C382.5,94.2,381.9,93.5,381.9,92.5z"/>
		<path class="st3" d="M36.7,126.1v-18.8H39v18.8H36.7z"/>
		<path class="st3" d="M44.2,108.3h2.1v4.3h4.2v1.9h-4.2v7.3c0,1.5,0.9,2.4,2.2,2.4h2v2h-2.1c-2.6,0-4.2-1.6-4.2-4.2v-7.4h-2.8v-1.9
			h2.8V108.3z"/>
		<path class="st3" d="M56,107.7c-0.6,2.3-1.8,5.1-2.5,6.4l-1.5,0.2c0.6-1.6,1.3-4.4,1.6-6.3L56,107.7z"/>
		<path class="st3" d="M57.7,121.8h2.1c0.2,1.7,1.4,2.7,3.3,2.7c1.7,0,2.8-0.9,2.8-2c0-4-7.9-0.4-7.9-6.2c0-2.3,1.9-3.8,4.8-3.8
			c3,0,5,1.6,5.1,4.1h-2.1c-0.2-1.7-1.9-2.3-3.1-2.3c-1.6,0-2.6,0.8-2.6,1.9c0,3.6,7.9,0,7.9,6.2c0,2.4-2,4-5,4
			C60,126.3,57.9,124.6,57.7,121.8z"/>
		<path class="st3" d="M88.3,117.4v8.7h-2.1v-2.3c-0.7,1.6-2.5,2.5-4.6,2.5c-2.8,0-4.7-1.6-4.7-4.1c0-2.6,2.1-4.2,5.4-4.2h3.1
			c0.6,0,0.9-0.3,0.9-0.7c0-1.9-1.3-3.1-3.6-3.1c-2,0-3.5,1.2-3.6,2.7h-2c0.2-2.6,2.7-4.5,5.7-4.5C86.1,112.4,88.3,114.4,88.3,117.4
			z M86.2,120v-0.3h-3.8c-2,0-3.3,1-3.3,2.5c0,1.4,1.1,2.3,2.8,2.3C84.6,124.5,86.2,122.8,86.2,120z"/>
		<path class="st3" d="M97.9,126.1v-13.5h2.1v2.6c0.5-1.6,2-2.8,4.1-2.8c2.2,0,4,1,4.5,2.9c0.5-1.6,2.3-2.9,4.4-2.9
			c2.9,0,4.7,2,4.7,5.2v8.5h-2.1v-7.9c0-2.3-1.2-3.9-3.1-3.9c-2.3,0-3.6,1.6-3.6,3.9v7.9h-2.1v-7.9c0-2.3-1.2-3.9-3-3.9
			c-2.3,0-3.6,1.6-3.6,3.9v7.9H97.9z"/>
		<path class="st3" d="M120.4,119.3c0-4.1,2.9-7,6.9-7c4,0,6.9,2.9,6.9,7c0,4-2.9,7-6.9,7C123.2,126.3,120.4,123.4,120.4,119.3z
			 M131.9,119.3c0-2.9-1.9-5-4.7-5c-2.8,0-4.7,2.1-4.7,5c0,2.9,1.9,5,4.7,5C130,124.4,131.9,122.3,131.9,119.3z"/>
		<path class="st3" d="M136.1,119.3c0-3.9,2.3-7,6.5-7c1.9,0,3.7,1,4.5,2.4V107h2.1v19.1h-2.1v-2.2c-0.8,1.5-2.6,2.4-4.5,2.4
			C138.4,126.3,136.1,123.3,136.1,119.3z M147.3,119.3c0-3.1-1.8-5-4.5-5c-2.7,0-4.5,2-4.5,5c0,3.1,1.8,5,4.5,5
			C145.5,124.4,147.3,122.4,147.3,119.3z"/>
		<path class="st3" d="M165,121.8c-0.5,2.8-2.8,4.6-6.2,4.6c-4,0-6.7-3.2-6.7-7.1c0-4,2.5-6.9,6.4-6.9c3.9,0,6.3,2.7,6.3,6.3
			c0,0.3,0,0.8-0.1,0.9h-10.6c0.2,2.8,2,4.8,4.6,4.8c2.2,0,3.6-1,4-2.7H165z M154.3,117.9h8.3c-0.2-2.3-1.7-3.7-4.1-3.7
			C156.3,114.2,154.7,115.5,154.3,117.9z"/>
		<path class="st3" d="M175.3,114.5h-1.9c-2.7,0-3.5,2.5-3.5,5.7v6h-2.1v-13.5h2.1v2.7c0.6-1.9,1.7-2.7,3.7-2.7h1.7V114.5z"/>
		<path class="st3" d="M177.6,126.1v-13.5h2.1v2.6c0.7-1.9,2.4-2.8,4.5-2.8c3.1,0,5,2.2,5,5.5v8.3H187v-7.9c0-2.3-1.3-3.9-3.4-3.9
			c-2.3,0-4,1.9-4,4.5v7.3H177.6z"/>
		<path class="st3" d="M192.5,107h2.5v3.2h-2.5V107z M192.7,126.1v-13.5h2.1v13.5H192.7z"/>
		<path class="st3" d="M197.7,121.8h2.1c0.2,1.7,1.4,2.7,3.3,2.7c1.7,0,2.8-0.9,2.8-2c0-4-7.9-0.4-7.9-6.2c0-2.3,1.9-3.8,4.8-3.8
			c3,0,5,1.6,5.1,4.1h-2.1c-0.2-1.7-1.9-2.3-3.1-2.3c-1.6,0-2.6,0.8-2.6,1.9c0,3.6,7.9,0,7.9,6.2c0,2.4-2,4-5,4
			C200,126.3,197.9,124.6,197.7,121.8z"/>
		<path class="st3" d="M212.3,108.3h2.1v4.3h4.2v1.9h-4.2v7.3c0,1.5,0.9,2.4,2.2,2.4h2v2h-2.1c-2.6,0-4.2-1.6-4.2-4.2v-7.4h-2.8
			v-1.9h2.8V108.3z"/>
		<path class="st3" d="M220.7,107h2.5v3.2h-2.5V107z M220.9,126.1v-13.5h2.1v13.5H220.9z"/>
		<path class="st3" d="M225.8,119.3c0-3.6,2.3-7,6.6-7c3,0,5.7,1.8,6.1,4.8h-2.1c-0.3-1.6-2-2.8-4-2.8c-2.9,0-4.4,2.3-4.4,5
			c0,2.8,1.4,5,4.4,5c2,0,3.5-1,4-2.7h2.1c-0.5,2.8-2.7,4.6-6.1,4.6C228.1,126.3,225.8,123,225.8,119.3z"/>
		<path class="st3" d="M246.7,120h2.3c0.2,2.6,2,4.3,4.9,4.3c2.6,0,4.5-1,4.5-3.3c0-4.8-11-2.2-11-8.9c0-3,2.6-5,6.4-5
			c3.8,0,6.4,2.2,6.6,5.5h-2.3c-0.2-2.1-1.9-3.5-4.4-3.5c-2.5,0-4,1.1-4,2.9c0,4.8,11,1.8,11,8.9c0,3.4-2.9,5.3-6.9,5.3
			C249.6,126.3,247,123.8,246.7,120z"/>
		<path class="st3" d="M274.4,117.4v8.7h-2.1v-2.3c-0.7,1.6-2.5,2.5-4.6,2.5c-2.8,0-4.7-1.6-4.7-4.1c0-2.6,2.1-4.2,5.4-4.2h3.1
			c0.6,0,0.9-0.3,0.9-0.7c0-1.9-1.3-3.1-3.6-3.1c-2,0-3.5,1.2-3.6,2.7h-2c0.2-2.6,2.7-4.5,5.7-4.5
			C272.2,112.4,274.4,114.4,274.4,117.4z M272.3,120v-0.3h-3.8c-2,0-3.3,1-3.3,2.5c0,1.4,1.1,2.3,2.8,2.3
			C270.7,124.5,272.3,122.8,272.3,120z"/>
		<path class="st3" d="M277.6,126.1v-13.5h2.1v2.6c0.7-1.9,2.4-2.8,4.5-2.8c3.1,0,5,2.2,5,5.5v8.3h-2.1v-7.9c0-2.3-1.3-3.9-3.4-3.9
			c-2.3,0-4,1.9-4,4.5v7.3H277.6z"/>
		<path class="st3" d="M292,121.8h2.1c0.2,1.7,1.4,2.7,3.3,2.7c1.7,0,2.8-0.9,2.8-2c0-4-7.9-0.4-7.9-6.2c0-2.3,1.9-3.8,4.8-3.8
			c3,0,5,1.6,5.1,4.1h-2.1c-0.2-1.7-1.9-2.3-3.1-2.3c-1.6,0-2.6,0.8-2.6,1.9c0,3.6,7.9,0,7.9,6.2c0,2.4-2,4-5,4
			C294.3,126.3,292.3,124.6,292,121.8z"/>
		<path class="st3" d="M310.9,120h2.3c0.2,2.6,2,4.3,4.9,4.3c2.6,0,4.5-1,4.5-3.3c0-4.8-11-2.2-11-8.9c0-3,2.6-5,6.4-5
			s6.4,2.2,6.6,5.5h-2.3c-0.2-2.1-1.9-3.5-4.4-3.5c-2.5,0-4,1.1-4,2.9c0,4.8,11,1.8,11,8.9c0,3.4-2.9,5.3-6.9,5.3
			C313.8,126.3,311.1,123.8,310.9,120z"/>
		<path class="st3" d="M339.7,121.8c-0.5,2.8-2.8,4.6-6.2,4.6c-4,0-6.7-3.2-6.7-7.1c0-4,2.5-6.9,6.4-6.9c3.9,0,6.3,2.7,6.3,6.3
			c0,0.3,0,0.8-0.1,0.9H329c0.2,2.8,2,4.8,4.6,4.8c2.2,0,3.6-1,4-2.7H339.7z M329.1,117.9h8.3c-0.2-2.3-1.7-3.7-4.1-3.7
			C331,114.2,329.5,115.5,329.1,117.9z"/>
		<path class="st3" d="M350,114.5h-1.9c-2.7,0-3.5,2.5-3.5,5.7v6h-2.1v-13.5h2.1v2.7c0.6-1.9,1.7-2.7,3.7-2.7h1.7V114.5z"/>
		<path class="st3" d="M352.1,107h2.5v3.2h-2.5V107z M352.3,126.1v-13.5h2.1v13.5H352.3z"/>
		<path class="st3" d="M359.5,126.1v-11.6h-2.8v-1.9h2.8v-1.4c0-2.6,1.6-4.2,4.2-4.2h2.1v1.9h-2c-1.3,0-2.2,0.9-2.2,2.3v1.3h4.2v1.9
			h-4.2v11.6H359.5z"/>
		<path class="st3" d="M373.8,121.8h2.1c0.2,1.7,1.4,2.7,3.3,2.7c1.7,0,2.8-0.9,2.8-2c0-4-7.9-0.4-7.9-6.2c0-2.3,1.9-3.8,4.8-3.8
			c3,0,5,1.6,5.1,4.1H382c-0.2-1.7-1.9-2.3-3.1-2.3c-1.6,0-2.6,0.8-2.6,1.9c0,3.6,7.9,0,7.9,6.2c0,2.4-2,4-5,4
			C376.1,126.3,374,124.6,373.8,121.8z"/>
		<path class="st3" d="M387.2,131.6v-19h2.1v2.2c0.8-1.5,2.6-2.4,4.5-2.4c4.2,0,6.5,3,6.5,7c0,3.9-2.4,7-6.5,7
			c-1.9,0-3.6-0.9-4.5-2.4v7.6H387.2z M398.1,119.3c0-3.1-1.8-5-4.5-5c-2.7,0-4.5,2-4.5,5c0,3.1,1.8,5,4.5,5
			C396.4,124.4,398.1,122.4,398.1,119.3z"/>
		<path class="st3" d="M415.2,121.8c-0.5,2.8-2.8,4.6-6.2,4.6c-4,0-6.7-3.2-6.7-7.1c0-4,2.5-6.9,6.4-6.9c3.9,0,6.3,2.7,6.3,6.3
			c0,0.3,0,0.8-0.1,0.9h-10.6c0.2,2.8,2,4.8,4.6,4.8c2.2,0,3.6-1,4-2.7H415.2z M404.6,117.9h8.3c-0.2-2.3-1.7-3.7-4.1-3.7
			C406.5,114.2,405,115.5,404.6,117.9z"/>
		<path class="st3" d="M417.2,119.3c0-3.6,2.3-7,6.6-7c3,0,5.7,1.8,6.1,4.8h-2.1c-0.3-1.6-2-2.8-4-2.8c-2.9,0-4.4,2.3-4.4,5
			c0,2.8,1.4,5,4.4,5c2,0,3.5-1,4-2.7h2.1c-0.5,2.8-2.7,4.6-6.1,4.6C419.5,126.3,417.2,123,417.2,119.3z"/>
		<path class="st3" d="M432.4,107h2.5v3.2h-2.5V107z M432.5,126.1v-13.5h2.1v13.5H432.5z"/>
		<path class="st3" d="M449.6,126.1h-2.1v-11.6h-5.6v11.6h-2.1v-11.6h-2.8v-1.9h2.8v-1.4c0-2.6,1.6-4.2,4.2-4.2h2.1v1.9h-2
			c-1.3,0-2.2,0.9-2.2,2.3v1.3h7.7V126.1z"/>
		<path class="st3" d="M452.2,119.3c0-3.6,2.3-7,6.6-7c3,0,5.7,1.8,6.1,4.8h-2.1c-0.3-1.6-2-2.8-4-2.8c-2.9,0-4.4,2.3-4.4,5
			c0,2.8,1.4,5,4.4,5c2,0,3.5-1,4-2.7h2.1c-0.5,2.8-2.7,4.6-6.1,4.6C454.5,126.3,452.2,123,452.2,119.3z"/>
		<path class="st3" d="M478.3,117.4v8.7h-2.1v-2.3c-0.7,1.6-2.5,2.5-4.6,2.5c-2.8,0-4.7-1.6-4.7-4.1c0-2.6,2.1-4.2,5.4-4.2h3.1
			c0.6,0,0.9-0.3,0.9-0.7c0-1.9-1.3-3.1-3.6-3.1c-2,0-3.5,1.2-3.6,2.7h-2c0.2-2.6,2.7-4.5,5.7-4.5
			C476.1,112.4,478.3,114.4,478.3,117.4z M476.2,120v-0.3h-3.8c-2,0-3.3,1-3.3,2.5c0,1.4,1.1,2.3,2.8,2.3
			C474.6,124.5,476.2,122.8,476.2,120z"/>
		<path class="st3" d="M481.6,126.1V107h2.1v19.1H481.6z"/>
		<path class="st3" d="M487.5,126.1V107h2.1v19.1H487.5z"/>
		<path class="st3" d="M504,112.6l-4.3,11.7l-2.5,7.3h-2.1l1.7-5.3l-5-13.7h2.2l3.8,10.7l3.8-10.7H504z"/>
		<path class="st3" d="M35.7,151.5c0-3.9,2.3-7,6.5-7c1.9,0,3.7,1,4.5,2.4v-7.7h2.1v19.1h-2.1V156c-0.8,1.5-2.6,2.4-4.5,2.4
			C38.1,158.5,35.7,155.5,35.7,151.5z M46.9,151.5c0-3.1-1.8-5-4.5-5c-2.7,0-4.5,2-4.5,5c0,3.1,1.8,5,4.5,5
			C45.2,156.6,46.9,154.6,46.9,151.5z"/>
		<path class="st3" d="M64.6,153.9c-0.5,2.8-2.8,4.6-6.2,4.6c-4,0-6.7-3.2-6.7-7.1c0-4,2.5-6.9,6.4-6.9c3.9,0,6.3,2.7,6.3,6.3
			c0,0.3,0,0.8-0.1,0.9H53.9c0.2,2.8,2,4.8,4.6,4.8c2.2,0,3.6-1,4-2.7H64.6z M54,150.1h8.3c-0.2-2.3-1.7-3.7-4.1-3.7
			C55.9,146.4,54.4,147.7,54,150.1z"/>
		<path class="st3" d="M66.5,153.9h2.1c0.2,1.7,1.4,2.7,3.3,2.7c1.7,0,2.8-0.9,2.8-2c0-4-7.9-0.4-7.9-6.2c0-2.3,1.9-3.8,4.8-3.8
			c3,0,5,1.6,5.1,4.1h-2.1c-0.2-1.7-1.9-2.3-3.1-2.3c-1.6,0-2.6,0.8-2.6,1.9c0,3.6,7.9,0,7.9,6.2c0,2.4-2,4-5,4
			C68.8,158.5,66.8,156.7,66.5,153.9z"/>
		<path class="st3" d="M79.7,139.2h2.5v3.2h-2.5V139.2z M79.8,158.3v-13.5H82v13.5H79.8z"/>
		<path class="st3" d="M95.8,144.8H98v14.1c0,2.9-2.1,4.9-5,4.9h-6.4v-1.9h6.2c1.7,0,3-1.3,3-3.1v-2.4c-0.6,1.3-2.4,2.1-4.5,2.1
			c-4.2,0-6.5-3-6.5-7c0-3.9,2.3-7,6.5-7c1.8,0,3.6,0.9,4.5,2.2V144.8z M96,151.5c0-3.1-1.8-5-4.5-5c-2.7,0-4.5,2-4.5,5
			c0,3.1,1.8,5,4.5,5C94.3,156.6,96,154.6,96,151.5z"/>
		<path class="st3" d="M101.6,158.3v-13.5h2.1v2.6c0.7-1.9,2.4-2.8,4.5-2.8c3.1,0,5,2.2,5,5.5v8.3h-2.1v-7.9c0-2.3-1.3-3.9-3.4-3.9
			c-2.3,0-4,1.9-4,4.5v7.3H101.6z"/>
		<path class="st3" d="M128.9,153.9c-0.5,2.8-2.8,4.6-6.2,4.6c-4,0-6.7-3.2-6.7-7.1c0-4,2.5-6.9,6.4-6.9c3.9,0,6.3,2.7,6.3,6.3
			c0,0.3,0,0.8-0.1,0.9h-10.6c0.2,2.8,2,4.8,4.6,4.8c2.2,0,3.6-1,4-2.7H128.9z M118.3,150.1h8.3c-0.2-2.3-1.7-3.7-4.1-3.7
			C120.2,146.4,118.7,147.7,118.3,150.1z"/>
		<path class="st3" d="M130.9,151.5c0-3.9,2.3-7,6.5-7c1.9,0,3.7,1,4.5,2.4v-7.7h2.1v19.1h-2.1V156c-0.8,1.5-2.6,2.4-4.5,2.4
			C133.2,158.5,130.9,155.5,130.9,151.5z M142.1,151.5c0-3.1-1.8-5-4.5-5c-2.7,0-4.5,2-4.5,5c0,3.1,1.8,5,4.5,5
			C140.3,156.6,142.1,154.6,142.1,151.5z"/>
		<path class="st3" d="M155.5,158.3v-11.6h-2.8v-1.9h2.8v-1.4c0-2.6,1.6-4.2,4.2-4.2h2.1v1.9h-2c-1.3,0-2.2,0.9-2.2,2.3v1.3h4.2v1.9
			h-4.2v11.6H155.5z"/>
		<path class="st3" d="M162.5,151.5c0-4.1,2.9-7,6.9-7c4,0,6.9,2.9,6.9,7c0,4-2.9,7-6.9,7C165.4,158.5,162.5,155.6,162.5,151.5z
			 M174.1,151.5c0-2.9-1.9-5-4.7-5c-2.8,0-4.7,2.1-4.7,5c0,2.9,1.9,5,4.7,5C172.2,156.6,174.1,154.5,174.1,151.5z"/>
		<path class="st3" d="M186.6,146.7h-1.9c-2.7,0-3.5,2.5-3.5,5.7v6h-2.1v-13.5h2.1v2.7c0.6-1.9,1.7-2.7,3.7-2.7h1.7V146.7z"/>
		<path class="st3" d="M194.5,151.5c0-3.9,2.3-7,6.5-7c1.9,0,3.7,1,4.5,2.4v-7.7h2.1v19.1h-2.1V156c-0.8,1.5-2.6,2.4-4.5,2.4
			C196.8,158.5,194.5,155.5,194.5,151.5z M205.6,151.5c0-3.1-1.8-5-4.5-5c-2.7,0-4.5,2-4.5,5c0,3.1,1.8,5,4.5,5
			C203.9,156.6,205.6,154.6,205.6,151.5z"/>
		<path class="st3" d="M211.1,139.2h2.5v3.2h-2.5V139.2z M211.3,158.3v-13.5h2.1v13.5H211.3z"/>
		<path class="st3" d="M227.3,144.8h2.1v14.1c0,2.9-2.1,4.9-5,4.9H218v-1.9h6.2c1.7,0,3-1.3,3-3.1v-2.4c-0.6,1.3-2.4,2.1-4.5,2.1
			c-4.2,0-6.5-3-6.5-7c0-3.9,2.3-7,6.5-7c1.8,0,3.6,0.9,4.5,2.2V144.8z M227.4,151.5c0-3.1-1.8-5-4.5-5c-2.7,0-4.5,2-4.5,5
			c0,3.1,1.8,5,4.5,5C225.7,156.6,227.4,154.6,227.4,151.5z"/>
		<path class="st3" d="M232.9,139.2h2.5v3.2h-2.5V139.2z M233,158.3v-13.5h2.1v13.5H233z"/>
		<path class="st3" d="M240.2,140.4h2.1v4.3h4.2v1.9h-4.2v7.3c0,1.5,0.9,2.4,2.2,2.4h2v2h-2.1c-2.6,0-4.2-1.6-4.2-4.2v-7.4h-2.8
			v-1.9h2.8V140.4z"/>
		<path class="st3" d="M259.3,149.6v8.7h-2.1v-2.3c-0.7,1.6-2.5,2.5-4.6,2.5c-2.8,0-4.7-1.6-4.7-4.1c0-2.6,2.1-4.2,5.4-4.2h3.1
			c0.6,0,0.9-0.3,0.9-0.7c0-1.9-1.3-3.1-3.6-3.1c-2,0-3.5,1.2-3.6,2.7h-2c0.2-2.6,2.7-4.5,5.7-4.5
			C257.1,144.5,259.3,146.6,259.3,149.6z M257.1,152.2v-0.3h-3.8c-2,0-3.3,1-3.3,2.5c0,1.4,1.1,2.3,2.8,2.3
			C255.6,156.7,257.1,155,257.1,152.2z"/>
		<path class="st3" d="M262.6,158.3v-19.1h2.1v19.1H262.6z"/>
		<path class="st3" d="M274,151.5c0-3.6,2.3-7,6.6-7c3,0,5.7,1.8,6.1,4.8h-2.1c-0.3-1.6-2-2.8-4-2.8c-2.9,0-4.4,2.3-4.4,5
			c0,2.8,1.4,5,4.4,5c2,0,3.5-1,4-2.7h2.1c-0.5,2.8-2.7,4.6-6.1,4.6C276.3,158.5,274,155.1,274,151.5z"/>
		<path class="st3" d="M289.4,158.3v-19.1h2.1v8.1c0.7-1.9,2.4-2.8,4.5-2.8c3.1,0,5,2.2,5,5.5v8.3h-2.1v-7.9c0-2.3-1.3-3.9-3.4-3.9
			c-2.3,0-4,1.9-4,4.5v7.3H289.4z"/>
		<path class="st3" d="M315.3,149.6v8.7h-2.1v-2.3c-0.7,1.6-2.5,2.5-4.6,2.5c-2.8,0-4.7-1.6-4.7-4.1c0-2.6,2.1-4.2,5.4-4.2h3.1
			c0.6,0,0.9-0.3,0.9-0.7c0-1.9-1.3-3.1-3.6-3.1c-2,0-3.5,1.2-3.6,2.7h-2c0.2-2.6,2.7-4.5,5.7-4.5
			C313.1,144.5,315.3,146.6,315.3,149.6z M313.1,152.2v-0.3h-3.8c-2,0-3.3,1-3.3,2.5c0,1.4,1.1,2.3,2.8,2.3
			C311.6,156.7,313.1,155,313.1,152.2z"/>
		<path class="st3" d="M318.5,158.3v-13.5h2.1v2.6c0.7-1.9,2.4-2.8,4.5-2.8c3.1,0,5,2.2,5,5.5v8.3h-2.1v-7.9c0-2.3-1.3-3.9-3.4-3.9
			c-2.3,0-4,1.9-4,4.5v7.3H318.5z"/>
		<path class="st3" d="M333.6,158.3v-13.5h2.1v2.6c0.7-1.9,2.4-2.8,4.5-2.8c3.1,0,5,2.2,5,5.5v8.3h-2.1v-7.9c0-2.3-1.3-3.9-3.4-3.9
			c-2.3,0-4,1.9-4,4.5v7.3H333.6z"/>
		<path class="st3" d="M360.9,153.9c-0.5,2.8-2.8,4.6-6.2,4.6c-4,0-6.7-3.2-6.7-7.1c0-4,2.5-6.9,6.4-6.9c3.9,0,6.3,2.7,6.3,6.3
			c0,0.3,0,0.8-0.1,0.9h-10.6c0.2,2.8,2,4.8,4.6,4.8c2.2,0,3.6-1,4-2.7H360.9z M350.2,150.1h8.3c-0.2-2.3-1.7-3.7-4.1-3.7
			C352.2,146.4,350.6,147.7,350.2,150.1z"/>
		<path class="st3" d="M363.8,158.3v-19.1h2.1v19.1H363.8z"/>
		<path class="st3" d="M368.8,153.9h2.1c0.2,1.7,1.4,2.7,3.3,2.7c1.7,0,2.8-0.9,2.8-2c0-4-7.9-0.4-7.9-6.2c0-2.3,1.9-3.8,4.8-3.8
			c3,0,5,1.6,5.1,4.1H377c-0.2-1.7-1.9-2.3-3.1-2.3c-1.6,0-2.6,0.8-2.6,1.9c0,3.6,7.9,0,7.9,6.2c0,2.4-2,4-5,4
			C371.1,158.5,369.1,156.7,368.8,153.9z"/>
		<path class="st3" d="M399.5,149.6v8.7h-2.1v-2.3c-0.7,1.6-2.5,2.5-4.6,2.5c-2.8,0-4.7-1.6-4.7-4.1c0-2.6,2.1-4.2,5.4-4.2h3.1
			c0.6,0,0.9-0.3,0.9-0.7c0-1.9-1.3-3.1-3.6-3.1c-2,0-3.5,1.2-3.6,2.7h-2c0.2-2.6,2.7-4.5,5.7-4.5
			C397.3,144.5,399.5,146.6,399.5,149.6z M397.3,152.2v-0.3h-3.8c-2,0-3.3,1-3.3,2.5c0,1.4,1.1,2.3,2.8,2.3
			C395.7,156.7,397.3,155,397.3,152.2z"/>
		<path class="st3" d="M402.6,158.3v-13.5h2.1v2.6c0.7-1.9,2.4-2.8,4.5-2.8c3.1,0,5,2.2,5,5.5v8.3h-2.1v-7.9c0-2.3-1.3-3.9-3.4-3.9
			c-2.3,0-4,1.9-4,4.5v7.3H402.6z"/>
		<path class="st3" d="M417,151.5c0-3.9,2.3-7,6.5-7c1.9,0,3.7,1,4.5,2.4v-7.7h2.1v19.1H428V156c-0.8,1.5-2.6,2.4-4.5,2.4
			C419.3,158.5,417,155.5,417,151.5z M428.2,151.5c0-3.1-1.8-5-4.5-5s-4.5,2-4.5,5c0,3.1,1.8,5,4.5,5S428.2,154.6,428.2,151.5z"/>
		<path class="st3" d="M35.7,183.7c0-4.1,2.9-7,6.9-7c4,0,6.9,2.9,6.9,7c0,4-2.9,7-6.9,7C38.6,190.7,35.7,187.7,35.7,183.7z
			 M47.3,183.7c0-2.9-1.9-5-4.7-5c-2.8,0-4.7,2.1-4.7,5c0,2.9,1.9,5,4.7,5C45.4,188.7,47.3,186.6,47.3,183.7z"/>
		<path class="st3" d="M65.7,173.3c-1.3,0-2.1,0.9-2.1,2.3v1.3h4.2v1.9h-4.2v11.6h-2.1v-11.6h-5.9v11.6h-2.1v-11.6h-2.8v-1.9h2.8
			v-1.4c0-2.6,1.6-4.2,4.2-4.2h2.1v1.9h-2c-1.3,0-2.2,0.9-2.2,2.3v1.3h5.9v-1.4c0-2.6,1.6-4.2,4.2-4.2h2.1v1.9H65.7z"/>
		<path class="st3" d="M81.2,186.1c-0.5,2.8-2.8,4.6-6.2,4.6c-4,0-6.7-3.2-6.7-7.1c0-4,2.5-6.9,6.4-6.9c3.9,0,6.3,2.7,6.3,6.3
			c0,0.3,0,0.8-0.1,0.9H70.5c0.2,2.8,2,4.8,4.6,4.8c2.2,0,3.6-1,4-2.7H81.2z M70.6,182.3h8.3c-0.2-2.3-1.7-3.7-4.1-3.7
			C72.5,178.5,71,179.9,70.6,182.3z"/>
		<path class="st3" d="M91.5,178.8h-1.9c-2.7,0-3.5,2.5-3.5,5.7v6H84v-13.5h2.1v2.7c0.6-1.9,1.7-2.7,3.7-2.7h1.7V178.8z"/>
		<path class="st3" d="M92.7,186.1h2.1c0.2,1.7,1.4,2.7,3.3,2.7c1.7,0,2.8-0.9,2.8-2c0-4-7.9-0.4-7.9-6.2c0-2.3,1.9-3.8,4.8-3.8
			c3,0,5,1.6,5.1,4.1h-2.1c-0.2-1.7-1.9-2.3-3.1-2.3c-1.6,0-2.6,0.8-2.6,1.9c0,3.6,7.9,0,7.9,6.2c0,2.4-2,4-5,4
			C95,190.7,93,188.9,92.7,186.1z"/>
		<path class="st3" d="M123.4,181.7v8.7h-2.1v-2.3c-0.7,1.6-2.5,2.5-4.6,2.5c-2.8,0-4.7-1.6-4.7-4.1c0-2.6,2.1-4.2,5.4-4.2h3.1
			c0.6,0,0.9-0.3,0.9-0.7c0-1.9-1.3-3.1-3.6-3.1c-2,0-3.5,1.2-3.6,2.7h-2c0.2-2.6,2.7-4.5,5.7-4.5
			C121.2,176.7,123.4,178.7,123.4,181.7z M121.2,184.4V184h-3.8c-2,0-3.3,1-3.3,2.5c0,1.4,1.1,2.3,2.8,2.3
			C119.6,188.8,121.2,187.1,121.2,184.4z"/>
		<path class="st3" d="M133,190.4v-19.1h2.1v19.1H133z"/>
		<path class="st3" d="M138,183.7c0-4.1,2.9-7,6.9-7c4,0,6.9,2.9,6.9,7c0,4-2.9,7-6.9,7C140.9,190.7,138,187.7,138,183.7z
			 M149.6,183.7c0-2.9-1.9-5-4.7-5c-2.8,0-4.7,2.1-4.7,5c0,2.9,1.9,5,4.7,5C147.7,188.7,149.6,186.6,149.6,183.7z"/>
		<path class="st3" d="M155.8,172.6h2.1v4.3h4.2v1.9H158v7.3c0,1.5,0.9,2.4,2.2,2.4h2v2h-2.1c-2.6,0-4.2-1.6-4.2-4.2v-7.4H153v-1.9
			h2.8V172.6z"/>
		<path class="st3" d="M170.1,183.7c0-4.1,2.9-7,6.9-7c4,0,6.9,2.9,6.9,7c0,4-2.9,7-6.9,7C172.9,190.7,170.1,187.7,170.1,183.7z
			 M181.6,183.7c0-2.9-1.9-5-4.7-5c-2.8,0-4.7,2.1-4.7,5c0,2.9,1.9,5,4.7,5C179.7,188.7,181.6,186.6,181.6,183.7z"/>
		<path class="st3" d="M187.7,190.4v-11.6h-2.8v-1.9h2.8v-1.4c0-2.6,1.6-4.2,4.2-4.2h2.1v1.9h-2c-1.3,0-2.2,0.9-2.2,2.3v1.3h4.2v1.9
			h-4.2v11.6H187.7z"/>
		<path class="st3" d="M213.1,176.9h2.1V191c0,2.9-2.1,4.9-5,4.9h-6.4v-1.9h6.2c1.7,0,3-1.3,3-3.1v-2.4c-0.6,1.3-2.4,2.1-4.5,2.1
			c-4.2,0-6.5-3-6.5-7c0-3.9,2.3-7,6.5-7c1.8,0,3.6,0.9,4.5,2.2V176.9z M213.3,183.7c0-3.1-1.8-5-4.5-5c-2.7,0-4.5,2-4.5,5
			c0,3.1,1.8,5,4.5,5C211.5,188.7,213.3,186.7,213.3,183.7z"/>
		<path class="st3" d="M218.1,183.7c0-4.1,2.9-7,6.9-7c4,0,6.9,2.9,6.9,7c0,4-2.9,7-6.9,7C221,190.7,218.1,187.7,218.1,183.7z
			 M229.6,183.7c0-2.9-1.9-5-4.7-5c-2.8,0-4.7,2.1-4.7,5c0,2.9,1.9,5,4.7,5C227.7,188.7,229.6,186.6,229.6,183.7z"/>
		<path class="st3" d="M233.8,183.7c0-4.1,2.9-7,6.9-7c4,0,6.9,2.9,6.9,7c0,4-2.9,7-6.9,7C236.7,190.7,233.8,187.7,233.8,183.7z
			 M245.4,183.7c0-2.9-1.9-5-4.7-5c-2.8,0-4.7,2.1-4.7,5c0,2.9,1.9,5,4.7,5C243.5,188.7,245.4,186.6,245.4,183.7z"/>
		<path class="st3" d="M249.6,183.7c0-3.9,2.3-7,6.5-7c1.9,0,3.7,1,4.5,2.4v-7.7h2.1v19.1h-2.1v-2.2c-0.8,1.5-2.6,2.4-4.5,2.4
			C251.9,190.7,249.6,187.6,249.6,183.7z M260.7,183.7c0-3.1-1.8-5-4.5-5c-2.7,0-4.5,2-4.5,5c0,3.1,1.8,5,4.5,5
			C259,188.7,260.7,186.7,260.7,183.7z"/>
		<path class="st3" d="M274.2,190.4v-11.6h-2.8v-1.9h2.8v-1.4c0-2.6,1.6-4.2,4.2-4.2h2.1v1.9h-2c-1.3,0-2.2,0.9-2.2,2.3v1.3h4.2v1.9
			h-4.2v11.6H274.2z"/>
		<path class="st3" d="M294.1,186.1c-0.5,2.8-2.8,4.6-6.2,4.6c-4,0-6.7-3.2-6.7-7.1c0-4,2.5-6.9,6.4-6.9c3.9,0,6.3,2.7,6.3,6.3
			c0,0.3,0,0.8-0.1,0.9h-10.6c0.2,2.8,2,4.8,4.6,4.8c2.2,0,3.6-1,4-2.7H294.1z M283.4,182.3h8.3c-0.2-2.3-1.7-3.7-4.1-3.7
			C285.4,178.5,283.8,179.9,283.4,182.3z"/>
		<path class="st3" d="M307.6,181.7v8.7h-2.1v-2.3c-0.7,1.6-2.5,2.5-4.6,2.5c-2.8,0-4.7-1.6-4.7-4.1c0-2.6,2.1-4.2,5.4-4.2h3.1
			c0.6,0,0.9-0.3,0.9-0.7c0-1.9-1.3-3.1-3.6-3.1c-2,0-3.5,1.2-3.6,2.7h-2c0.2-2.6,2.7-4.5,5.7-4.5
			C305.5,176.7,307.6,178.7,307.6,181.7z M305.5,184.4V184h-3.8c-2,0-3.3,1-3.3,2.5c0,1.4,1.1,2.3,2.8,2.3
			C303.9,188.8,305.5,187.1,305.5,184.4z"/>
		<path class="st3" d="M312.2,172.6h2.1v4.3h4.2v1.9h-4.2v7.3c0,1.5,0.9,2.4,2.2,2.4h2v2h-2.1c-2.6,0-4.2-1.6-4.2-4.2v-7.4h-2.8
			v-1.9h2.8V172.6z"/>
		<path class="st3" d="M332.3,176.9v13.5h-2.1v-2.6c-0.7,1.9-2.4,2.8-4.5,2.8c-3.1,0-5-2.2-5-5.5v-8.3h2.1v7.9
			c0,2.3,1.3,3.9,3.4,3.9c2.3,0,4-1.8,4-4.5v-7.3H332.3z"/>
		<path class="st3" d="M343.4,178.8h-1.9c-2.7,0-3.5,2.5-3.5,5.7v6h-2.1v-13.5h2.1v2.7c0.6-1.9,1.7-2.7,3.7-2.7h1.7V178.8z"/>
		<path class="st3" d="M357.2,186.1c-0.5,2.8-2.8,4.6-6.2,4.6c-4,0-6.7-3.2-6.7-7.1c0-4,2.5-6.9,6.4-6.9c3.9,0,6.3,2.7,6.3,6.3
			c0,0.3,0,0.8-0.1,0.9h-10.6c0.2,2.8,2,4.8,4.6,4.8c2.2,0,3.6-1,4-2.7H357.2z M346.5,182.3h8.3c-0.2-2.3-1.7-3.7-4.1-3.7
			C348.5,178.5,346.9,179.9,346.5,182.3z"/>
		<path class="st3" d="M359.1,186.1h2.1c0.2,1.7,1.4,2.7,3.3,2.7c1.7,0,2.8-0.9,2.8-2c0-4-7.9-0.4-7.9-6.2c0-2.3,1.9-3.8,4.8-3.8
			c3,0,5,1.6,5.1,4.1h-2.1c-0.2-1.7-1.9-2.3-3.1-2.3c-1.6,0-2.6,0.8-2.6,1.9c0,3.6,7.9,0,7.9,6.2c0,2.4-2,4-5,4
			C361.3,190.7,359.3,188.9,359.1,186.1z"/>
		<path class="st3" d="M372,189c0-1,0.7-1.7,1.6-1.7s1.6,0.7,1.6,1.7c0,1-0.6,1.7-1.6,1.7C372.7,190.7,372,190,372,189z"/>
	</g>
</g>
<g>
	<path class="st4" d="M41.1,57.7V41h-6v-2.1h14.3V41h-6v16.7H41.1z"/>
	<path class="st4" d="M61,44.2l-4.3,11.7l-2.5,7.3h-2.1l1.7-5.3l-5-13.7h2.2l3.8,10.7l3.8-10.7H61z"/>
	<path class="st4" d="M63.2,63.2v-19h2.1v2.2c0.8-1.5,2.6-2.4,4.5-2.4c4.2,0,6.5,3,6.5,7c0,3.9-2.4,7-6.5,7c-1.9,0-3.6-0.9-4.5-2.4
		v7.6H63.2z M74.2,50.9c0-3.1-1.8-5-4.5-5c-2.7,0-4.5,2-4.5,5c0,3.1,1.8,5,4.5,5C72.4,56,74.2,54,74.2,50.9z"/>
	<path class="st4" d="M78.4,50.9c0-4.1,2.9-7,6.9-7c4,0,6.9,2.9,6.9,7c0,4-2.9,7-6.9,7C81.2,57.9,78.4,55,78.4,50.9z M89.9,50.9
		c0-2.9-1.9-5-4.7-5c-2.8,0-4.7,2.1-4.7,5c0,2.9,1.9,5,4.7,5C88,56,89.9,53.9,89.9,50.9z"/>
	<path class="st4" d="M105.2,44.2h2.1v14.1c0,2.9-2.1,4.9-5,4.9H96v-1.9h6.2c1.7,0,3-1.3,3-3.1v-2.4c-0.6,1.3-2.4,2.1-4.5,2.1
		c-4.2,0-6.5-3-6.5-7c0-3.9,2.3-7,6.5-7c1.8,0,3.6,0.9,4.5,2.2V44.2z M105.4,50.9c0-3.1-1.8-5-4.5-5c-2.7,0-4.5,2-4.5,5
		c0,3.1,1.8,5,4.5,5C103.6,56,105.4,54,105.4,50.9z"/>
	<path class="st4" d="M118.5,46.1h-1.9c-2.7,0-3.5,2.5-3.5,5.7v6H111V44.2h2.1v2.7c0.6-1.9,1.7-2.7,3.7-2.7h1.7V46.1z"/>
	<path class="st4" d="M131.3,49v8.7h-2.1v-2.3c-0.7,1.6-2.5,2.5-4.6,2.5c-2.8,0-4.7-1.6-4.7-4.1c0-2.6,2.1-4.2,5.4-4.2h3.1
		c0.6,0,0.9-0.3,0.9-0.7c0-1.9-1.3-3.1-3.6-3.1c-2,0-3.5,1.2-3.6,2.7h-2c0.2-2.6,2.7-4.5,5.7-4.5C129.1,44,131.3,46,131.3,49z
		 M129.1,51.6v-0.3h-3.8c-2,0-3.3,1-3.3,2.5c0,1.4,1.1,2.3,2.8,2.3C127.5,56.1,129.1,54.4,129.1,51.6z"/>
	<path class="st4" d="M134.5,63.2v-19h2.1v2.2c0.8-1.5,2.6-2.4,4.5-2.4c4.2,0,6.5,3,6.5,7c0,3.9-2.4,7-6.5,7c-1.9,0-3.6-0.9-4.5-2.4
		v7.6H134.5z M145.4,50.9c0-3.1-1.8-5-4.5-5c-2.7,0-4.5,2-4.5,5c0,3.1,1.8,5,4.5,5C143.7,56,145.4,54,145.4,50.9z"/>
	<path class="st4" d="M150.5,57.7V38.6h2.1v8.1c0.7-1.9,2.4-2.8,4.5-2.8c3.1,0,5,2.2,5,5.5v8.3H160v-7.9c0-2.3-1.3-3.9-3.4-3.9
		c-2.3,0-4,1.9-4,4.5v7.3H150.5z"/>
	<path class="st4" d="M176,44.2l-4.3,11.7l-2.5,7.3h-2.1l1.7-5.3l-5-13.7h2.2l3.8,10.7l3.8-10.7H176z"/>
</g>
<g>
	<path class="st4" d="M790.3,45.9h20.9V245h112v19.3H790.3V45.9z"/>
	<path class="st4" d="M942.5,43.4h23.7v31.8h-23.7V43.4z M944.7,107.1h19.7v157.2h-19.7V107.1z"/>
	<path class="st4" d="M1016.5,309.9h72.7c22.2,0,38.1-16.5,38.1-39.3v-29.6c-7.2,15.3-29.6,25.9-54.6,25.9
		c-49.9,0-76.4-36.2-76.4-81.1c0-44.9,26.5-81.1,76.4-81.1c21.8,0,44.6,11.5,54.6,27.8v-25.3h19.7v163.5c0,33.4-24,57.4-57.7,57.4
		h-72.7V309.9z M1073.3,248.7c34,0,56.2-25,56.2-63s-22.2-63-56.2-63c-34,0-56.2,25-56.2,63S1039.3,248.7,1073.3,248.7z"/>
	<path class="st4" d="M1190.3,43.4h19.7v96.4c8.1-23.7,28.1-35.3,53-35.3c35.6,0,58.7,25.3,58.7,64.3v95.5H1302v-93
		c0-29.3-16.5-48.7-41.8-48.7c-29.3,0-50.2,23.7-50.2,57.1v84.6h-19.7V43.4z"/>
	<path class="st4" d="M1391.8,55.6v51.5h49.9v18.1h-49.9v92c0,18.1,10.3,29,26.2,29h23.7v18.1h-23.4c-28.4,0-46.2-18.1-46.2-47.1
		v-92h-33.7v-18.1h33.7V55.6H1391.8z"/>
	<path class="st5" d="M788.7,299.9h83c43.1,0,69.3,25.9,69.3,64c0,24-13.4,41.2-34,50.9c17.2,9.4,27.5,27.1,29,49.3l3.7,54.3h-25.9
		l-3.7-52.7c-1.2-21.2-15-36.2-35.6-36.2h-59v88.9h-26.8V299.9z M871.4,405.4c30.9,0,42.4-20,42.4-41.5c0-21.5-11.5-40.2-42.4-40.2
		h-55.8v81.7H871.4z"/>
	<path class="st5" d="M961.9,438.8c0-46.2,28.7-80.2,74.9-80.2c45.9,0,73.3,31.8,73.3,73.6c0,3.4-0.3,8.7-0.6,10.9H986.5
		c1.9,32.4,23.4,55.5,53,55.5c25.6,0,41.8-11.2,46.8-30.9h25.3c-5.3,32.1-33.1,53-72.1,53C993.1,520.8,961.9,483.7,961.9,438.8z
		 M1084.5,423.2c-1.9-26.5-19.7-43.4-47.7-43.4c-26.5,0-44.3,15.6-49,43.4H1084.5z"/>
	<path class="st5" d="M1150,560.4h72.7c20.3,0,34.6-15.3,34.6-36.2v-27.8c-7.2,14.7-28.4,24.3-52.1,24.3c-49,0-75.8-35.3-75.8-81.1
		c0-45.9,26.8-81.1,75.8-81.1c21.2,0,42.4,10.6,52.1,25.6v-23.1h25v164.1c0,33.4-24,56.8-58,56.8H1150V560.4z M1207.4,498.4
		c31.5,0,52.1-23.1,52.1-58.7c0-35.6-20.6-58.7-52.1-58.7c-31.5,0-52.1,23.1-52.1,58.7C1155.3,475.3,1175.9,498.4,1207.4,498.4z"/>
	<path class="st5" d="M1455.5,518.3h-25v-30.3c-8.4,21.8-27.8,32.8-51.8,32.8c-35.6,0-58.7-25.3-58.7-63.6v-96.1h25v92
		c0,26.8,15.6,44.9,39.3,44.9c26.8,0,46.2-21.5,46.2-52.1v-84.9h25V518.3z"/>
	<path class="st5" d="M1495.1,296.5h25v221.8h-25V296.5z"/>
	<path class="st5" d="M1552.5,473.4c0-30,24.6-49,62.7-49h35.6c6.9,0,10-3.4,10-8.4c0-21.5-15.3-36.2-42.1-36.2
		c-23.1,0-41.2,14.4-42.4,31.5h-23.7c2.8-30.3,31.5-52.7,66.8-52.7c40.9,0,66.5,23.4,66.5,58.3v101.4h-25v-27.1
		c-8.4,18.1-29.3,29.6-53.7,29.6C1574,520.8,1552.5,502.1,1552.5,473.4z M1610.8,499.6c31.5,0,49.9-19.7,49.9-52.1v-4.1h-44
		c-23.4,0-38.7,11.2-38.7,29.6C1578.1,489.3,1590.9,499.6,1610.8,499.6z"/>
	<path class="st5" d="M1748.4,449.1v69.3h-25V361.1h25v31.8c6.9-21.5,19.7-31.8,42.7-31.8h20v22.2h-21.5
		C1757.8,383.2,1748.4,411.9,1748.4,449.1z"/>
	<path class="st6" d="M787.2,553.9h39.9L896.7,728l69.6-174.1h39.9v218.4H975V609.8l-65.2,162.6h-26.2L818,609.8v162.6h-30.9V553.9z
		"/>
	<path class="st6" d="M1032.4,692.8c0-44,27.5-80.2,75.8-80.2c48.7,0,74.6,34.6,74.6,74.6c0,4.1-0.3,9-0.6,11.9H1062
		c2.5,29.6,21.8,49.9,49.3,49.9c23.1,0,38.1-10,42.4-27.8h30.3c-5.6,32.4-34,53.7-72.7,53.7C1062.7,774.8,1032.4,736.4,1032.4,692.8
		z M1152.2,676.8c-1.9-24-18.1-39.9-44-39.9c-24.6,0-40.6,13.7-45.2,39.9H1152.2z"/>
	<path class="st6" d="M1200.2,693.7c0-46.8,27.1-81.1,75.2-81.1c21.5,0,40.2,10.3,49.6,25.6v-88.9h30.3v223.1H1325v-23.4
		c-9.4,15.6-28.7,25.9-49.3,25.9C1227.4,774.8,1200.2,740.5,1200.2,693.7z M1279.2,748.3c29,0,48.4-21.8,48.4-54.6
		s-19.3-54.6-48.4-54.6c-29.3,0-48.4,21.8-48.4,54.6S1249.9,748.3,1279.2,748.3z"/>
	<path class="st6" d="M1389.9,549.2h33.7v38.1h-33.7V549.2z M1391.8,615.1h30.3v157.2h-30.3V615.1z"/>
	<path class="st6" d="M1595.9,772.3h-30.3v-27.8c-8.4,19.7-27.5,30.3-50.9,30.3c-35.6,0-58.7-25.6-58.7-63v-96.7h30.3v90.8
		c0,25,14.7,41.8,36.8,41.8c24.6,0,42.4-20,42.4-47.4v-85.2h30.3V772.3z"/>
	<path class="st6" d="M1632,615.1h30.3v28.1c6.6-17.8,23.4-30.6,46.5-30.6c25.6,0,44.6,11.5,50.9,32.1c6.2-17.8,26.8-32.1,51.2-32.1
		c34,0,55.2,23.4,55.2,59.9v99.8h-30.3v-91.4c0-25-12.5-41.8-33.4-41.8c-24,0-38.4,16.8-38.4,41.8v91.4h-30.3v-91.4
		c0-25-12.5-41.8-33.1-41.8c-24,0-38.4,16.8-38.4,41.8v91.4H1632V615.1z"/>
	<path class="st7" d="M783.4,807.9h86.7c39.6,0,69.3,19.7,69.3,56.2c0,20.6-12.8,36.2-25.6,43.1c20,7.8,36.5,25.3,36.5,54
		c0,41.5-31.5,65.2-77.7,65.2h-89.2V807.9z M866.7,891.2c20,0,29.3-8.4,29.3-23.1c0-14.7-9.4-23.1-30.3-23.1h-36.2v46.2H866.7z
		 M868.6,985.8c25.9,0,37.4-9.4,37.4-27.1c0-17.8-11.5-27.8-37.4-27.8h-39v54.9H868.6z"/>
	<path class="st7" d="M961.6,947.7c0-46.8,34.6-81.1,83-81.1s83,34.3,83,81.1s-34.6,81.1-83,81.1S961.6,994.5,961.6,947.7z
		 M1044.6,991.4c23.4,0,39.3-17.8,39.3-43.7c0-26.2-15.9-44-39.3-44s-39.3,17.8-39.3,44C1005.2,973.6,1021.2,991.4,1044.6,991.4z"/>
	<path class="st7" d="M1146.6,800.7h43.4v225.6h-43.4V800.7z"/>
	<path class="st7" d="M1209.6,947.7c0-49,27.8-81.1,73.6-81.1c19.7,0,34.9,7.5,43.7,19v-84.9h43.4v225.6h-43.4v-17.2
		c-8.7,12.2-25,19.7-43.1,19.7C1237.4,1028.8,1209.6,996.7,1209.6,947.7z M1290.7,991.4c23.4,0,38.7-17.5,38.7-43.7
		c0-26.5-15.3-44-38.7-44c-22.8,0-38.4,17.5-38.4,44C1252.3,973.9,1267.9,991.4,1290.7,991.4z"/>
</g>
</svg>
