<?xml version="1.0" encoding="utf-8"?>
<!-- Generator: Adobe Illustrator 22.0.0, SVG Export Plug-In . SVG Version: 6.00 Build 0)  -->
<svg version="1.1" xmlns="http://www.w3.org/2000/svg" xmlns:xlink="http://www.w3.org/1999/xlink" x="0px" y="0px"
	 viewBox="0 0 1920 1080" style="enable-background:new 0 0 1920 1080;" xml:space="preserve">
<style type="text/css">
	.st0{display:none;}
	.st1{display:inline;fill:#141414;}
	.st2{display:inline;}
	.st3{fill:#FF5A39;}
	.st4{fill:#B54BFF;}
	.st5{fill:#7D7D7D;}
	.st6{fill:#FFFFFF;}
	.st7{opacity:0.8;fill:#FFFFFF;}
	.st8{opacity:0.6;fill:#FFFFFF;}
	.st9{opacity:0.4;fill:#FFFFFF;}
	.st10{fill:#141414;}
	.st11{opacity:0.15;}
</style>
<g id="Layer_1" class="st0">
	<rect class="st1" width="1920" height="1080"/>
	<g class="st2">
		<g>
			<path class="st3" d="M557.1,302c8.6,0,17.9,6.8,17.9,21.7v132.7c0,10-8.1,18.2-18.2,18.2H424.1c-14.1,0-19-8-20.4-11.4
				c-1.4-3.4-3.7-12.5,6.3-22.5l131-131C547.3,303.3,553.2,302,557.1,302z"/>
		</g>
		<g>
			<path class="st3" d="M737.3,474.5H604.6c-10,0-18.2-8.1-18.2-18.2V323.7c0-14.9,9.3-21.7,17.9-21.7c3.8,0,9.8,1.3,16,7.6l131,131
				c10,10,7.8,19.1,6.3,22.5C756.3,466.5,751.4,474.5,737.3,474.5z"/>
		</g>
		<g>
			<path class="st3" d="M557.1,658.5c-3.8,0-9.8-1.3-16-7.6l-131-131c-10-10-7.8-19.1-6.3-22.5c1.4-3.4,6.3-11.4,20.4-11.4h132.7
				c10,0,18.2,8.1,18.2,18.2v132.7C575,651.7,565.7,658.5,557.1,658.5z"/>
		</g>
		<g>
			<path class="st3" d="M604.6,486h132.7c14.1,0,19,8,20.4,11.4c1.4,3.4,3.7,12.5-6.3,22.5l-131,131c-6.3,6.3-12.2,7.6-16,7.6
				c-8.6,0-17.9-6.8-17.9-21.7V504.2C586.5,494.1,594.6,486,604.6,486z"/>
		</g>
	</g>
	<g class="st2">
		<g>
			<g>
				<path class="st4" d="M52.6,841.5c-8.7,0-18-6.8-18-21.8V698.1c0-16.8,13.6-30.4,30.4-30.4h121.6c14.2,0,19.1,8,20.5,11.5
					c1.4,3.5,3.7,12.6-6.4,22.7L68.8,833.8C62.5,840.2,56.5,841.5,52.6,841.5z"/>
			</g>
			<g>
				<path class="st4" d="M241.8,667.7h121.6c16.8,0,30.4,13.6,30.4,30.4v121.6c0,15-9.3,21.8-18,21.8c-3.9,0-9.8-1.3-16.2-7.7
					L227.6,701.9c-10.1-10.1-7.8-19.2-6.4-22.7C222.7,675.8,227.6,667.7,241.8,667.7z"/>
			</g>
			<g>
				<path class="st4" d="M52.6,853.1c3.9,0,9.8,1.3,16.2,7.7l131.9,131.9c10.1,10.1,7.8,19.2,6.4,22.7c-1.4,3.5-6.3,11.5-20.5,11.5
					H65c-16.8,0-30.4-13.6-30.4-30.4V874.9C34.6,859.9,44,853.1,52.6,853.1z"/>
			</g>
			<g>
				<path class="st4" d="M363.4,1026.8H241.8c-14.2,0-19.1-8-20.5-11.5c-1.4-3.5-3.7-12.6,6.4-22.7l131.9-131.9
					c6.3-6.3,12.3-7.7,16.2-7.7c8.7,0,18,6.8,18,21.8v121.6C393.7,1013.2,380.1,1026.8,363.4,1026.8z"/>
			</g>
		</g>
	</g>
	<g class="st2">
		<g>
			<g>
				<path class="st5" d="M190.6,303.3c8,0,16.6,6.4,16.6,20.4v120.7c0,15.9-13,28.9-28.9,28.9H57.6c-13.4,0-17.9-7.4-19.2-10.6
					c-1.3-3.2-3.4-11.6,6.1-21.1l131-131C181.4,304.6,187,303.3,190.6,303.3 M190.6,302c-3.8,0-9.8,1.3-16,7.6l-131,131
					c-10,10-7.8,19.1-6.3,22.5c1.4,3.4,6.3,11.4,20.4,11.4h120.7c16.6,0,30.2-13.5,30.2-30.2V323.7C208.4,308.8,199.2,302,190.6,302
					L190.6,302z"/>
			</g>
		</g>
		<g>
			<g>
				<path class="st5" d="M237.8,303.3c3.6,0,9.1,1.3,15.1,7.2l131,131c9.4,9.4,7.4,17.9,6.1,21.1c-1.3,3.2-5.8,10.6-19.2,10.6H250.1
					c-15.9,0-28.9-13-28.9-28.9V323.7C221.2,309.7,229.8,303.3,237.8,303.3 M237.8,302c-8.6,0-17.9,6.8-17.9,21.7v120.7
					c0,16.6,13.5,30.2,30.2,30.2h120.7c14.1,0,19-8,20.4-11.4c1.4-3.4,3.7-12.5-6.3-22.5l-131-131C247.6,303.3,241.6,302,237.8,302
					L237.8,302z"/>
			</g>
		</g>
		<g>
			<g>
				<path class="st5" d="M178.3,487.3c15.9,0,28.9,13,28.9,28.9v120.7c0,14-8.6,20.4-16.6,20.4c-3.6,0-9.1-1.3-15.1-7.2l-131-131
					c-9.4-9.4-7.4-17.9-6.1-21.1c1.3-3.2,5.8-10.6,19.2-10.6H178.3 M178.3,486H57.6c-14.1,0-19,8-20.4,11.4
					c-1.4,3.4-3.7,12.5,6.3,22.5l131,131c6.3,6.3,12.2,7.6,16,7.6c8.6,0,17.9-6.8,17.9-21.7V516.2C208.4,499.5,194.9,486,178.3,486
					L178.3,486z"/>
			</g>
		</g>
		<g>
			<g>
				<path class="st5" d="M370.8,487.3c13.4,0,17.9,7.4,19.2,10.6c1.3,3.2,3.4,11.6-6.1,21.1l-131,131c-6,6-11.5,7.2-15.1,7.2
					c-8,0-16.6-6.4-16.6-20.4V516.2c0-15.9,13-28.9,28.9-28.9H370.8 M370.8,486H250.1c-16.6,0-30.2,13.5-30.2,30.2v120.7
					c0,14.9,9.3,21.7,17.9,21.7c3.8,0,9.8-1.3,16-7.6l131-131c10-10,7.8-19.1,6.3-22.5C389.8,494,384.9,486,370.8,486L370.8,486z"/>
			</g>
		</g>
	</g>
	<g class="st2">
		<g>
			<g>
				<path class="st5" d="M553.1,669c13.5,0,18,7.5,19.3,10.7c1.3,3.2,3.4,11.7-6.1,21.2L434.4,832.9c-6,6-11.6,7.3-15.2,7.3
					c-8,0-16.7-6.4-16.7-20.5V698.1c0-16,13.1-29.1,29.1-29.1H553.1 M553.1,667.7H431.5c-16.8,0-30.4,13.6-30.4,30.4v121.6
					c0,15,9.3,21.8,18,21.8c3.9,0,9.8-1.3,16.2-7.7l131.9-131.9c10.1-10.1,7.8-19.2,6.4-22.7S567.3,667.7,553.1,667.7L553.1,667.7z"
					/>
			</g>
		</g>
		<g>
			<g>
				<path class="st5" d="M729.9,669c16,0,29.1,13.1,29.1,29.1v121.6c0,14.1-8.7,20.5-16.7,20.5c-3.6,0-9.2-1.3-15.2-7.3L595.1,701
					c-9.5-9.5-7.4-18-6.1-21.2c1.3-3.2,5.9-10.7,19.3-10.7H729.9 M729.9,667.7H608.3c-14.2,0-19.1,8-20.5,11.5
					c-1.4,3.5-3.7,12.6,6.4,22.7l131.9,131.9c6.3,6.3,12.3,7.7,16.2,7.7c8.7,0,18-6.8,18-21.8V698.1
					C760.3,681.4,746.6,667.7,729.9,667.7L729.9,667.7z"/>
			</g>
		</g>
		<g>
			<g>
				<path class="st5" d="M419.1,854.4c3.6,0,9.2,1.3,15.2,7.3l131.9,131.9c9.5,9.5,7.4,18,6.1,21.2c-1.3,3.2-5.9,10.7-19.3,10.7
					H431.5c-16,0-29.1-13.1-29.1-29.1V874.9C402.5,860.8,411.1,854.4,419.1,854.4 M419.1,853.1c-8.7,0-18,6.8-18,21.8v121.6
					c0,16.8,13.6,30.4,30.4,30.4h121.6c14.2,0,19.1-8,20.5-11.5c1.4-3.5,3.7-12.6-6.4-22.7L435.3,860.7
					C429,854.4,423,853.1,419.1,853.1L419.1,853.1z"/>
			</g>
		</g>
		<g>
			<g>
				<path class="st5" d="M742.3,854.4c8,0,16.7,6.4,16.7,20.5v121.6c0,16-13,29.1-29.1,29.1H608.3c-13.5,0-18-7.5-19.3-10.7
					c-1.3-3.2-3.4-11.7,6.1-21.2L727,861.6C733,855.6,738.6,854.4,742.3,854.4 M742.3,853.1c-3.9,0-9.8,1.3-16.2,7.7L594.2,992.7
					c-10.1,10.1-7.8,19.2-6.4,22.7c1.4,3.5,6.3,11.5,20.5,11.5h121.6c16.8,0,30.4-13.6,30.4-30.4V874.9
					C760.3,859.9,750.9,853.1,742.3,853.1L742.3,853.1z"/>
			</g>
		</g>
	</g>
	<g class="st2">
		<g>
			<path class="st5" d="M41.2,93.9l-5.8-18.8h2.4l4.6,15.3l4.7-15.3h2l4.7,15.3l4.7-15.3h2.3l-5.7,18.8h-2.4l-4.6-15.3l-4.7,15.3
				H41.2z"/>
			<path class="st5" d="M74.1,89.6c-0.5,2.8-2.8,4.6-6.2,4.6c-4,0-6.7-3.2-6.7-7.1c0-4,2.5-6.9,6.4-6.9c3.9,0,6.3,2.7,6.3,6.3
				c0,0.3,0,0.8-0.1,0.9H63.3c0.2,2.8,2,4.8,4.6,4.8c2.2,0,3.6-1,4-2.7H74.1z M63.4,85.8h8.3C71.6,83.5,70,82,67.6,82
				C65.3,82,63.8,83.4,63.4,85.8z"/>
			<path class="st5" d="M94.8,80.4v13.5h-2.1v-2.6c-0.7,1.9-2.4,2.8-4.5,2.8c-3.1,0-5-2.2-5-5.5v-8.3h2.1v7.9c0,2.3,1.3,3.9,3.4,3.9
				c2.3,0,4-1.8,4-4.5v-7.3H94.8z"/>
			<path class="st5" d="M97.7,89.6h2.1c0.2,1.7,1.4,2.7,3.3,2.7c1.7,0,2.8-0.9,2.8-2c0-4-7.9-0.4-7.9-6.2c0-2.3,1.9-3.8,4.8-3.8
				c3,0,5,1.6,5.1,4.1h-2.1c-0.2-1.7-1.9-2.3-3.1-2.3c-1.6,0-2.6,0.8-2.6,1.9c0,3.6,7.9,0,7.9,6.2c0,2.4-2,4-5,4
				C99.9,94.1,97.9,92.4,97.7,89.6z"/>
			<path class="st5" d="M122.9,89.6c-0.5,2.8-2.8,4.6-6.2,4.6c-4,0-6.7-3.2-6.7-7.1c0-4,2.5-6.9,6.4-6.9c3.9,0,6.3,2.7,6.3,6.3
				c0,0.3,0,0.8-0.1,0.9h-10.6c0.2,2.8,2,4.8,4.6,4.8c2.2,0,3.6-1,4-2.7H122.9z M112.3,85.8h8.3c-0.2-2.3-1.7-3.7-4.1-3.7
				C114.2,82,112.7,83.4,112.3,85.8z"/>
			<path class="st5" d="M133.6,76.1h2.1v4.3h4.2v1.9h-4.2v7.3c0,1.5,0.9,2.4,2.2,2.4h2v2h-2.1c-2.6,0-4.2-1.6-4.2-4.2v-7.4h-2.8
				v-1.9h2.8V76.1z"/>
			<path class="st5" d="M142.5,93.9V74.9h2.1V83c0.7-1.9,2.4-2.8,4.5-2.8c3.1,0,5,2.2,5,5.5v8.3H152V86c0-2.3-1.3-3.9-3.4-3.9
				c-2.3,0-4,1.9-4,4.5v7.3H142.5z"/>
			<path class="st5" d="M169.8,89.6c-0.5,2.8-2.8,4.6-6.2,4.6c-4,0-6.7-3.2-6.7-7.1c0-4,2.5-6.9,6.4-6.9c3.9,0,6.3,2.7,6.3,6.3
				c0,0.3,0,0.8-0.1,0.9H159c0.2,2.8,2,4.8,4.6,4.8c2.2,0,3.6-1,4-2.7H169.8z M159.1,85.8h8.3c-0.2-2.3-1.7-3.7-4.1-3.7
				C161,82,159.5,83.4,159.1,85.8z"/>
			<path class="st5" d="M181.1,91.7v2.2H179V74.9h2.1v7.7c0.8-1.4,2.6-2.4,4.5-2.4c4.2,0,6.5,3,6.5,7c0,3.9-2.3,7-6.5,7
				C183.7,94.1,182,93.2,181.1,91.7z M189.9,87.2c0-3.1-1.8-5-4.5-5c-2.7,0-4.5,2-4.5,5c0,3.1,1.8,5,4.5,5
				C188.2,92.2,189.9,90.2,189.9,87.2z"/>
			<path class="st5" d="M207,89.6c-0.5,2.8-2.8,4.6-6.2,4.6c-4,0-6.7-3.2-6.7-7.1c0-4,2.5-6.9,6.4-6.9c3.9,0,6.3,2.7,6.3,6.3
				c0,0.3,0,0.8-0.1,0.9h-10.6c0.2,2.8,2,4.8,4.6,4.8c2.2,0,3.6-1,4-2.7H207z M196.3,85.8h8.3c-0.2-2.3-1.7-3.7-4.1-3.7
				C198.3,82,196.7,83.4,196.3,85.8z"/>
			<path class="st5" d="M208.9,89.6h2.1c0.2,1.7,1.4,2.7,3.3,2.7c1.7,0,2.8-0.9,2.8-2c0-4-7.9-0.4-7.9-6.2c0-2.3,1.9-3.8,4.8-3.8
				c3,0,5,1.6,5.1,4.1h-2.1c-0.2-1.7-1.9-2.3-3.1-2.3c-1.6,0-2.6,0.8-2.6,1.9c0,3.6,7.9,0,7.9,6.2c0,2.4-2,4-5,4
				C211.2,94.1,209.1,92.4,208.9,89.6z"/>
			<path class="st5" d="M222.3,99.4v-19h2.1v2.2c0.8-1.5,2.6-2.4,4.5-2.4c4.2,0,6.5,3,6.5,7c0,3.9-2.4,7-6.5,7
				c-1.9,0-3.6-0.9-4.5-2.4v7.6H222.3z M233.2,87.2c0-3.1-1.8-5-4.5-5c-2.7,0-4.5,2-4.5,5c0,3.1,1.8,5,4.5,5
				C231.5,92.2,233.2,90.2,233.2,87.2z"/>
			<path class="st5" d="M237.4,87.2c0-4.1,2.9-7,6.9-7c4,0,6.9,2.9,6.9,7c0,4-2.9,7-6.9,7C240.3,94.1,237.4,91.2,237.4,87.2z
				 M249,87.2c0-2.9-1.9-5-4.7-5c-2.8,0-4.7,2.1-4.7,5c0,2.9,1.9,5,4.7,5C247.1,92.2,249,90.1,249,87.2z"/>
			<path class="st5" d="M263.3,93.9l-5.3-6.8l-1.8,1.6v5.1h-2.2V74.9h2.2v11.3l6.4-5.7h2.8l-5.8,5.3l6.3,8.2H263.3z"/>
			<path class="st5" d="M279.5,89.6c-0.5,2.8-2.8,4.6-6.2,4.6c-4,0-6.7-3.2-6.7-7.1c0-4,2.5-6.9,6.4-6.9c3.9,0,6.3,2.7,6.3,6.3
				c0,0.3,0,0.8-0.1,0.9h-10.6c0.2,2.8,2,4.8,4.6,4.8c2.2,0,3.6-1,4-2.7H279.5z M268.9,85.8h8.3c-0.2-2.3-1.7-3.7-4.1-3.7
				C270.8,82,269.3,83.4,268.9,85.8z"/>
			<path class="st5" d="M290.1,93.9V82.3h-2.8v-1.9h2.8v-1.4c0-2.6,1.6-4.2,4.2-4.2h2.1v1.9h-2c-1.3,0-2.2,0.9-2.2,2.3v1.3h4.2v1.9
				h-4.2v11.6H290.1z"/>
			<path class="st5" d="M297.1,87.2c0-4.1,2.9-7,6.9-7c4,0,6.9,2.9,6.9,7c0,4-2.9,7-6.9,7C300,94.1,297.1,91.2,297.1,87.2z
				 M308.7,87.2c0-2.9-1.9-5-4.7-5c-2.8,0-4.7,2.1-4.7,5c0,2.9,1.9,5,4.7,5C306.8,92.2,308.7,90.1,308.7,87.2z"/>
			<path class="st5" d="M313.7,93.9V80.4h2.1V83c0.7-1.9,2.4-2.8,4.5-2.8c3.1,0,5,2.2,5,5.5v8.3h-2.1V86c0-2.3-1.3-3.9-3.4-3.9
				c-2.3,0-4,1.9-4,4.5v7.3H313.7z"/>
			<path class="st5" d="M329.8,76.1h2.1v4.3h4.2v1.9h-4.2v7.3c0,1.5,0.9,2.4,2.2,2.4h2v2H334c-2.6,0-4.2-1.6-4.2-4.2v-7.4H327v-1.9
				h2.8V76.1z"/>
			<path class="st5" d="M345,93.9V75.2h11.7v2.1h-9.5v6h7.7v2.1h-7.7v6.6h9.8v2.1H345z"/>
			<path class="st5" d="M360.2,93.9V75.2h3l6.2,15.7l6.2-15.7h3v18.8h-2.2V79l-5.9,15h-2l-5.9-15v15H360.2z"/>
			<path class="st5" d="M381.9,92.5c0-1,0.7-1.7,1.6-1.7s1.6,0.7,1.6,1.7c0,1-0.6,1.7-1.6,1.7C382.5,94.2,381.9,93.5,381.9,92.5z"/>
			<path class="st5" d="M36.7,126.1v-18.8H39v18.8H36.7z"/>
			<path class="st5" d="M44.2,108.3h2.1v4.3h4.2v1.9h-4.2v7.3c0,1.5,0.9,2.4,2.2,2.4h2v2h-2.1c-2.6,0-4.2-1.6-4.2-4.2v-7.4h-2.8
				v-1.9h2.8V108.3z"/>
			<path class="st5" d="M56,107.7c-0.6,2.3-1.8,5.1-2.5,6.4l-1.5,0.2c0.6-1.6,1.3-4.4,1.6-6.3L56,107.7z"/>
			<path class="st5" d="M57.7,121.8h2.1c0.2,1.7,1.4,2.7,3.3,2.7c1.7,0,2.8-0.9,2.8-2c0-4-7.9-0.4-7.9-6.2c0-2.3,1.9-3.8,4.8-3.8
				c3,0,5,1.6,5.1,4.1h-2.1c-0.2-1.7-1.9-2.3-3.1-2.3c-1.6,0-2.6,0.8-2.6,1.9c0,3.6,7.9,0,7.9,6.2c0,2.4-2,4-5,4
				C60,126.3,57.9,124.6,57.7,121.8z"/>
			<path class="st5" d="M88.3,117.4v8.7h-2.1v-2.3c-0.7,1.6-2.5,2.5-4.6,2.5c-2.8,0-4.7-1.6-4.7-4.1c0-2.6,2.1-4.2,5.4-4.2h3.1
				c0.6,0,0.9-0.3,0.9-0.7c0-1.9-1.3-3.1-3.6-3.1c-2,0-3.5,1.2-3.6,2.7h-2c0.2-2.6,2.7-4.5,5.7-4.5
				C86.1,112.4,88.3,114.4,88.3,117.4z M86.2,120v-0.3h-3.8c-2,0-3.3,1-3.3,2.5c0,1.4,1.1,2.3,2.8,2.3
				C84.6,124.5,86.2,122.8,86.2,120z"/>
			<path class="st5" d="M97.9,126.1v-13.5h2.1v2.6c0.5-1.6,2-2.8,4.1-2.8c2.2,0,4,1,4.5,2.9c0.5-1.6,2.3-2.9,4.4-2.9
				c2.9,0,4.7,2,4.7,5.2v8.5h-2.1v-7.9c0-2.3-1.2-3.9-3.1-3.9c-2.3,0-3.6,1.6-3.6,3.9v7.9h-2.1v-7.9c0-2.3-1.2-3.9-3-3.9
				c-2.3,0-3.6,1.6-3.6,3.9v7.9H97.9z"/>
			<path class="st5" d="M120.4,119.3c0-4.1,2.9-7,6.9-7c4,0,6.9,2.9,6.9,7c0,4-2.9,7-6.9,7C123.2,126.3,120.4,123.4,120.4,119.3z
				 M131.9,119.3c0-2.9-1.9-5-4.7-5c-2.8,0-4.7,2.1-4.7,5c0,2.9,1.9,5,4.7,5C130,124.4,131.9,122.3,131.9,119.3z"/>
			<path class="st5" d="M136.1,119.3c0-3.9,2.3-7,6.5-7c1.9,0,3.7,1,4.5,2.4V107h2.1v19.1h-2.1v-2.2c-0.8,1.5-2.6,2.4-4.5,2.4
				C138.4,126.3,136.1,123.3,136.1,119.3z M147.3,119.3c0-3.1-1.8-5-4.5-5c-2.7,0-4.5,2-4.5,5c0,3.1,1.8,5,4.5,5
				C145.5,124.4,147.3,122.4,147.3,119.3z"/>
			<path class="st5" d="M165,121.8c-0.5,2.8-2.8,4.6-6.2,4.6c-4,0-6.7-3.2-6.7-7.1c0-4,2.5-6.9,6.4-6.9c3.9,0,6.3,2.7,6.3,6.3
				c0,0.3,0,0.8-0.1,0.9h-10.6c0.2,2.8,2,4.8,4.6,4.8c2.2,0,3.6-1,4-2.7H165z M154.3,117.9h8.3c-0.2-2.3-1.7-3.7-4.1-3.7
				C156.3,114.2,154.7,115.5,154.3,117.9z"/>
			<path class="st5" d="M175.3,114.5h-1.9c-2.7,0-3.5,2.5-3.5,5.7v6h-2.1v-13.5h2.1v2.7c0.6-1.9,1.7-2.7,3.7-2.7h1.7V114.5z"/>
			<path class="st5" d="M177.6,126.1v-13.5h2.1v2.6c0.7-1.9,2.4-2.8,4.5-2.8c3.1,0,5,2.2,5,5.5v8.3H187v-7.9c0-2.3-1.3-3.9-3.4-3.9
				c-2.3,0-4,1.9-4,4.5v7.3H177.6z"/>
			<path class="st5" d="M192.5,107h2.5v3.2h-2.5V107z M192.7,126.1v-13.5h2.1v13.5H192.7z"/>
			<path class="st5" d="M197.7,121.8h2.1c0.2,1.7,1.4,2.7,3.3,2.7c1.7,0,2.8-0.9,2.8-2c0-4-7.9-0.4-7.9-6.2c0-2.3,1.9-3.8,4.8-3.8
				c3,0,5,1.6,5.1,4.1h-2.1c-0.2-1.7-1.9-2.3-3.1-2.3c-1.6,0-2.6,0.8-2.6,1.9c0,3.6,7.9,0,7.9,6.2c0,2.4-2,4-5,4
				C200,126.3,197.9,124.6,197.7,121.8z"/>
			<path class="st5" d="M212.3,108.3h2.1v4.3h4.2v1.9h-4.2v7.3c0,1.5,0.9,2.4,2.2,2.4h2v2h-2.1c-2.6,0-4.2-1.6-4.2-4.2v-7.4h-2.8
				v-1.9h2.8V108.3z"/>
			<path class="st5" d="M220.7,107h2.5v3.2h-2.5V107z M220.9,126.1v-13.5h2.1v13.5H220.9z"/>
			<path class="st5" d="M225.8,119.3c0-3.6,2.3-7,6.6-7c3,0,5.7,1.8,6.1,4.8h-2.1c-0.3-1.6-2-2.8-4-2.8c-2.9,0-4.4,2.3-4.4,5
				c0,2.8,1.4,5,4.4,5c2,0,3.5-1,4-2.7h2.1c-0.5,2.8-2.7,4.6-6.1,4.6C228.1,126.3,225.8,123,225.8,119.3z"/>
			<path class="st5" d="M246.7,120h2.3c0.2,2.6,2,4.3,4.9,4.3c2.6,0,4.5-1,4.5-3.3c0-4.8-11-2.2-11-8.9c0-3,2.6-5,6.4-5
				c3.8,0,6.4,2.2,6.6,5.5h-2.3c-0.2-2.1-1.9-3.5-4.4-3.5c-2.5,0-4,1.1-4,2.9c0,4.8,11,1.8,11,8.9c0,3.4-2.9,5.3-6.9,5.3
				C249.6,126.3,247,123.8,246.7,120z"/>
			<path class="st5" d="M274.4,117.4v8.7h-2.1v-2.3c-0.7,1.6-2.5,2.5-4.6,2.5c-2.8,0-4.7-1.6-4.7-4.1c0-2.6,2.1-4.2,5.4-4.2h3.1
				c0.6,0,0.9-0.3,0.9-0.7c0-1.9-1.3-3.1-3.6-3.1c-2,0-3.5,1.2-3.6,2.7h-2c0.2-2.6,2.7-4.5,5.7-4.5
				C272.2,112.4,274.4,114.4,274.4,117.4z M272.3,120v-0.3h-3.8c-2,0-3.3,1-3.3,2.5c0,1.4,1.1,2.3,2.8,2.3
				C270.7,124.5,272.3,122.8,272.3,120z"/>
			<path class="st5" d="M277.6,126.1v-13.5h2.1v2.6c0.7-1.9,2.4-2.8,4.5-2.8c3.1,0,5,2.2,5,5.5v8.3h-2.1v-7.9c0-2.3-1.3-3.9-3.4-3.9
				c-2.3,0-4,1.9-4,4.5v7.3H277.6z"/>
			<path class="st5" d="M292,121.8h2.1c0.2,1.7,1.4,2.7,3.3,2.7c1.7,0,2.8-0.9,2.8-2c0-4-7.9-0.4-7.9-6.2c0-2.3,1.9-3.8,4.8-3.8
				c3,0,5,1.6,5.1,4.1h-2.1c-0.2-1.7-1.9-2.3-3.1-2.3c-1.6,0-2.6,0.8-2.6,1.9c0,3.6,7.9,0,7.9,6.2c0,2.4-2,4-5,4
				C294.3,126.3,292.3,124.6,292,121.8z"/>
			<path class="st5" d="M310.9,120h2.3c0.2,2.6,2,4.3,4.9,4.3c2.6,0,4.5-1,4.5-3.3c0-4.8-11-2.2-11-8.9c0-3,2.6-5,6.4-5
				s6.4,2.2,6.6,5.5h-2.3c-0.2-2.1-1.9-3.5-4.4-3.5c-2.5,0-4,1.1-4,2.9c0,4.8,11,1.8,11,8.9c0,3.4-2.9,5.3-6.9,5.3
				C313.8,126.3,311.1,123.8,310.9,120z"/>
			<path class="st5" d="M339.7,121.8c-0.5,2.8-2.8,4.6-6.2,4.6c-4,0-6.7-3.2-6.7-7.1c0-4,2.5-6.9,6.4-6.9c3.9,0,6.3,2.7,6.3,6.3
				c0,0.3,0,0.8-0.1,0.9H329c0.2,2.8,2,4.8,4.6,4.8c2.2,0,3.6-1,4-2.7H339.7z M329.1,117.9h8.3c-0.2-2.3-1.7-3.7-4.1-3.7
				C331,114.2,329.5,115.5,329.1,117.9z"/>
			<path class="st5" d="M350,114.5h-1.9c-2.7,0-3.5,2.5-3.5,5.7v6h-2.1v-13.5h2.1v2.7c0.6-1.9,1.7-2.7,3.7-2.7h1.7V114.5z"/>
			<path class="st5" d="M352.1,107h2.5v3.2h-2.5V107z M352.3,126.1v-13.5h2.1v13.5H352.3z"/>
			<path class="st5" d="M359.5,126.1v-11.6h-2.8v-1.9h2.8v-1.4c0-2.6,1.6-4.2,4.2-4.2h2.1v1.9h-2c-1.3,0-2.2,0.9-2.2,2.3v1.3h4.2
				v1.9h-4.2v11.6H359.5z"/>
			<path class="st5" d="M373.8,121.8h2.1c0.2,1.7,1.4,2.7,3.3,2.7c1.7,0,2.8-0.9,2.8-2c0-4-7.9-0.4-7.9-6.2c0-2.3,1.9-3.8,4.8-3.8
				c3,0,5,1.6,5.1,4.1H382c-0.2-1.7-1.9-2.3-3.1-2.3c-1.6,0-2.6,0.8-2.6,1.9c0,3.6,7.9,0,7.9,6.2c0,2.4-2,4-5,4
				C376.1,126.3,374,124.6,373.8,121.8z"/>
			<path class="st5" d="M387.2,131.6v-19h2.1v2.2c0.8-1.5,2.6-2.4,4.5-2.4c4.2,0,6.5,3,6.5,7c0,3.9-2.4,7-6.5,7
				c-1.9,0-3.6-0.9-4.5-2.4v7.6H387.2z M398.1,119.3c0-3.1-1.8-5-4.5-5c-2.7,0-4.5,2-4.5,5c0,3.1,1.8,5,4.5,5
				C396.4,124.4,398.1,122.4,398.1,119.3z"/>
			<path class="st5" d="M415.2,121.8c-0.5,2.8-2.8,4.6-6.2,4.6c-4,0-6.7-3.2-6.7-7.1c0-4,2.5-6.9,6.4-6.9c3.9,0,6.3,2.7,6.3,6.3
				c0,0.3,0,0.8-0.1,0.9h-10.6c0.2,2.8,2,4.8,4.6,4.8c2.2,0,3.6-1,4-2.7H415.2z M404.6,117.9h8.3c-0.2-2.3-1.7-3.7-4.1-3.7
				C406.5,114.2,405,115.5,404.6,117.9z"/>
			<path class="st5" d="M417.2,119.3c0-3.6,2.3-7,6.6-7c3,0,5.7,1.8,6.1,4.8h-2.1c-0.3-1.6-2-2.8-4-2.8c-2.9,0-4.4,2.3-4.4,5
				c0,2.8,1.4,5,4.4,5c2,0,3.5-1,4-2.7h2.1c-0.5,2.8-2.7,4.6-6.1,4.6C419.5,126.3,417.2,123,417.2,119.3z"/>
			<path class="st5" d="M432.4,107h2.5v3.2h-2.5V107z M432.5,126.1v-13.5h2.1v13.5H432.5z"/>
			<path class="st5" d="M449.6,126.1h-2.1v-11.6h-5.6v11.6h-2.1v-11.6h-2.8v-1.9h2.8v-1.4c0-2.6,1.6-4.2,4.2-4.2h2.1v1.9h-2
				c-1.3,0-2.2,0.9-2.2,2.3v1.3h7.7V126.1z"/>
			<path class="st5" d="M452.2,119.3c0-3.6,2.3-7,6.6-7c3,0,5.7,1.8,6.1,4.8h-2.1c-0.3-1.6-2-2.8-4-2.8c-2.9,0-4.4,2.3-4.4,5
				c0,2.8,1.4,5,4.4,5c2,0,3.5-1,4-2.7h2.1c-0.5,2.8-2.7,4.6-6.1,4.6C454.5,126.3,452.2,123,452.2,119.3z"/>
			<path class="st5" d="M478.3,117.4v8.7h-2.1v-2.3c-0.7,1.6-2.5,2.5-4.6,2.5c-2.8,0-4.7-1.6-4.7-4.1c0-2.6,2.1-4.2,5.4-4.2h3.1
				c0.6,0,0.9-0.3,0.9-0.7c0-1.9-1.3-3.1-3.6-3.1c-2,0-3.5,1.2-3.6,2.7h-2c0.2-2.6,2.7-4.5,5.7-4.5
				C476.1,112.4,478.3,114.4,478.3,117.4z M476.2,120v-0.3h-3.8c-2,0-3.3,1-3.3,2.5c0,1.4,1.1,2.3,2.8,2.3
				C474.6,124.5,476.2,122.8,476.2,120z"/>
			<path class="st5" d="M481.6,126.1V107h2.1v19.1H481.6z"/>
			<path class="st5" d="M487.5,126.1V107h2.1v19.1H487.5z"/>
			<path class="st5" d="M504,112.6l-4.3,11.7l-2.5,7.3h-2.1l1.7-5.3l-5-13.7h2.2l3.8,10.7l3.8-10.7H504z"/>
			<path class="st5" d="M35.7,151.5c0-3.9,2.3-7,6.5-7c1.9,0,3.7,1,4.5,2.4v-7.7h2.1v19.1h-2.1V156c-0.8,1.5-2.6,2.4-4.5,2.4
				C38.1,158.5,35.7,155.5,35.7,151.5z M46.9,151.5c0-3.1-1.8-5-4.5-5c-2.7,0-4.5,2-4.5,5c0,3.1,1.8,5,4.5,5
				C45.2,156.6,46.9,154.6,46.9,151.5z"/>
			<path class="st5" d="M64.6,153.9c-0.5,2.8-2.8,4.6-6.2,4.6c-4,0-6.7-3.2-6.7-7.1c0-4,2.5-6.9,6.4-6.9c3.9,0,6.3,2.7,6.3,6.3
				c0,0.3,0,0.8-0.1,0.9H53.9c0.2,2.8,2,4.8,4.6,4.8c2.2,0,3.6-1,4-2.7H64.6z M54,150.1h8.3c-0.2-2.3-1.7-3.7-4.1-3.7
				C55.9,146.4,54.4,147.7,54,150.1z"/>
			<path class="st5" d="M66.5,153.9h2.1c0.2,1.7,1.4,2.7,3.3,2.7c1.7,0,2.8-0.9,2.8-2c0-4-7.9-0.4-7.9-6.2c0-2.3,1.9-3.8,4.8-3.8
				c3,0,5,1.6,5.1,4.1h-2.1c-0.2-1.7-1.9-2.3-3.1-2.3c-1.6,0-2.6,0.8-2.6,1.9c0,3.6,7.9,0,7.9,6.2c0,2.4-2,4-5,4
				C68.8,158.5,66.8,156.7,66.5,153.9z"/>
			<path class="st5" d="M79.7,139.2h2.5v3.2h-2.5V139.2z M79.8,158.3v-13.5H82v13.5H79.8z"/>
			<path class="st5" d="M95.8,144.8H98v14.1c0,2.9-2.1,4.9-5,4.9h-6.4v-1.9h6.2c1.7,0,3-1.3,3-3.1v-2.4c-0.6,1.3-2.4,2.1-4.5,2.1
				c-4.2,0-6.5-3-6.5-7c0-3.9,2.3-7,6.5-7c1.8,0,3.6,0.9,4.5,2.2V144.8z M96,151.5c0-3.1-1.8-5-4.5-5c-2.7,0-4.5,2-4.5,5
				c0,3.1,1.8,5,4.5,5C94.3,156.6,96,154.6,96,151.5z"/>
			<path class="st5" d="M101.6,158.3v-13.5h2.1v2.6c0.7-1.9,2.4-2.8,4.5-2.8c3.1,0,5,2.2,5,5.5v8.3h-2.1v-7.9c0-2.3-1.3-3.9-3.4-3.9
				c-2.3,0-4,1.9-4,4.5v7.3H101.6z"/>
			<path class="st5" d="M128.9,153.9c-0.5,2.8-2.8,4.6-6.2,4.6c-4,0-6.7-3.2-6.7-7.1c0-4,2.5-6.9,6.4-6.9c3.9,0,6.3,2.7,6.3,6.3
				c0,0.3,0,0.8-0.1,0.9h-10.6c0.2,2.8,2,4.8,4.6,4.8c2.2,0,3.6-1,4-2.7H128.9z M118.3,150.1h8.3c-0.2-2.3-1.7-3.7-4.1-3.7
				C120.2,146.4,118.7,147.7,118.3,150.1z"/>
			<path class="st5" d="M130.9,151.5c0-3.9,2.3-7,6.5-7c1.9,0,3.7,1,4.5,2.4v-7.7h2.1v19.1h-2.1V156c-0.8,1.5-2.6,2.4-4.5,2.4
				C133.2,158.5,130.9,155.5,130.9,151.5z M142.1,151.5c0-3.1-1.8-5-4.5-5c-2.7,0-4.5,2-4.5,5c0,3.1,1.8,5,4.5,5
				C140.3,156.6,142.1,154.6,142.1,151.5z"/>
			<path class="st5" d="M155.5,158.3v-11.6h-2.8v-1.9h2.8v-1.4c0-2.6,1.6-4.2,4.2-4.2h2.1v1.9h-2c-1.3,0-2.2,0.9-2.2,2.3v1.3h4.2
				v1.9h-4.2v11.6H155.5z"/>
			<path class="st5" d="M162.5,151.5c0-4.1,2.9-7,6.9-7c4,0,6.9,2.9,6.9,7c0,4-2.9,7-6.9,7C165.4,158.5,162.5,155.6,162.5,151.5z
				 M174.1,151.5c0-2.9-1.9-5-4.7-5c-2.8,0-4.7,2.1-4.7,5c0,2.9,1.9,5,4.7,5C172.2,156.6,174.1,154.5,174.1,151.5z"/>
			<path class="st5" d="M186.6,146.7h-1.9c-2.7,0-3.5,2.5-3.5,5.7v6h-2.1v-13.5h2.1v2.7c0.6-1.9,1.7-2.7,3.7-2.7h1.7V146.7z"/>
			<path class="st5" d="M194.5,151.5c0-3.9,2.3-7,6.5-7c1.9,0,3.7,1,4.5,2.4v-7.7h2.1v19.1h-2.1V156c-0.8,1.5-2.6,2.4-4.5,2.4
				C196.8,158.5,194.5,155.5,194.5,151.5z M205.6,151.5c0-3.1-1.8-5-4.5-5c-2.7,0-4.5,2-4.5,5c0,3.1,1.8,5,4.5,5
				C203.9,156.6,205.6,154.6,205.6,151.5z"/>
			<path class="st5" d="M211.1,139.2h2.5v3.2h-2.5V139.2z M211.3,158.3v-13.5h2.1v13.5H211.3z"/>
			<path class="st5" d="M227.3,144.8h2.1v14.1c0,2.9-2.1,4.9-5,4.9H218v-1.9h6.2c1.7,0,3-1.3,3-3.1v-2.4c-0.6,1.3-2.4,2.1-4.5,2.1
				c-4.2,0-6.5-3-6.5-7c0-3.9,2.3-7,6.5-7c1.8,0,3.6,0.9,4.5,2.2V144.8z M227.4,151.5c0-3.1-1.8-5-4.5-5c-2.7,0-4.5,2-4.5,5
				c0,3.1,1.8,5,4.5,5C225.7,156.6,227.4,154.6,227.4,151.5z"/>
			<path class="st5" d="M232.9,139.2h2.5v3.2h-2.5V139.2z M233,158.3v-13.5h2.1v13.5H233z"/>
			<path class="st5" d="M240.2,140.4h2.1v4.3h4.2v1.9h-4.2v7.3c0,1.5,0.9,2.4,2.2,2.4h2v2h-2.1c-2.6,0-4.2-1.6-4.2-4.2v-7.4h-2.8
				v-1.9h2.8V140.4z"/>
			<path class="st5" d="M259.3,149.6v8.7h-2.1v-2.3c-0.7,1.6-2.5,2.5-4.6,2.5c-2.8,0-4.7-1.6-4.7-4.1c0-2.6,2.1-4.2,5.4-4.2h3.1
				c0.6,0,0.9-0.3,0.9-0.7c0-1.9-1.3-3.1-3.6-3.1c-2,0-3.5,1.2-3.6,2.7h-2c0.2-2.6,2.7-4.5,5.7-4.5
				C257.1,144.5,259.3,146.6,259.3,149.6z M257.1,152.2v-0.3h-3.8c-2,0-3.3,1-3.3,2.5c0,1.4,1.1,2.3,2.8,2.3
				C255.6,156.7,257.1,155,257.1,152.2z"/>
			<path class="st5" d="M262.6,158.3v-19.1h2.1v19.1H262.6z"/>
			<path class="st5" d="M274,151.5c0-3.6,2.3-7,6.6-7c3,0,5.7,1.8,6.1,4.8h-2.1c-0.3-1.6-2-2.8-4-2.8c-2.9,0-4.4,2.3-4.4,5
				c0,2.8,1.4,5,4.4,5c2,0,3.5-1,4-2.7h2.1c-0.5,2.8-2.7,4.6-6.1,4.6C276.3,158.5,274,155.1,274,151.5z"/>
			<path class="st5" d="M289.4,158.3v-19.1h2.1v8.1c0.7-1.9,2.4-2.8,4.5-2.8c3.1,0,5,2.2,5,5.5v8.3h-2.1v-7.9c0-2.3-1.3-3.9-3.4-3.9
				c-2.3,0-4,1.9-4,4.5v7.3H289.4z"/>
			<path class="st5" d="M315.3,149.6v8.7h-2.1v-2.3c-0.7,1.6-2.5,2.5-4.6,2.5c-2.8,0-4.7-1.6-4.7-4.1c0-2.6,2.1-4.2,5.4-4.2h3.1
				c0.6,0,0.9-0.3,0.9-0.7c0-1.9-1.3-3.1-3.6-3.1c-2,0-3.5,1.2-3.6,2.7h-2c0.2-2.6,2.7-4.5,5.7-4.5
				C313.1,144.5,315.3,146.6,315.3,149.6z M313.1,152.2v-0.3h-3.8c-2,0-3.3,1-3.3,2.5c0,1.4,1.1,2.3,2.8,2.3
				C311.6,156.7,313.1,155,313.1,152.2z"/>
			<path class="st5" d="M318.5,158.3v-13.5h2.1v2.6c0.7-1.9,2.4-2.8,4.5-2.8c3.1,0,5,2.2,5,5.5v8.3h-2.1v-7.9c0-2.3-1.3-3.9-3.4-3.9
				c-2.3,0-4,1.9-4,4.5v7.3H318.5z"/>
			<path class="st5" d="M333.6,158.3v-13.5h2.1v2.6c0.7-1.9,2.4-2.8,4.5-2.8c3.1,0,5,2.2,5,5.5v8.3h-2.1v-7.9c0-2.3-1.3-3.9-3.4-3.9
				c-2.3,0-4,1.9-4,4.5v7.3H333.6z"/>
			<path class="st5" d="M360.9,153.9c-0.5,2.8-2.8,4.6-6.2,4.6c-4,0-6.7-3.2-6.7-7.1c0-4,2.5-6.9,6.4-6.9c3.9,0,6.3,2.7,6.3,6.3
				c0,0.3,0,0.8-0.1,0.9h-10.6c0.2,2.8,2,4.8,4.6,4.8c2.2,0,3.6-1,4-2.7H360.9z M350.2,150.1h8.3c-0.2-2.3-1.7-3.7-4.1-3.7
				C352.2,146.4,350.6,147.7,350.2,150.1z"/>
			<path class="st5" d="M363.8,158.3v-19.1h2.1v19.1H363.8z"/>
			<path class="st5" d="M368.8,153.9h2.1c0.2,1.7,1.4,2.7,3.3,2.7c1.7,0,2.8-0.9,2.8-2c0-4-7.9-0.4-7.9-6.2c0-2.3,1.9-3.8,4.8-3.8
				c3,0,5,1.6,5.1,4.1H377c-0.2-1.7-1.9-2.3-3.1-2.3c-1.6,0-2.6,0.8-2.6,1.9c0,3.6,7.9,0,7.9,6.2c0,2.4-2,4-5,4
				C371.1,158.5,369.1,156.7,368.8,153.9z"/>
			<path class="st5" d="M399.5,149.6v8.7h-2.1v-2.3c-0.7,1.6-2.5,2.5-4.6,2.5c-2.8,0-4.7-1.6-4.7-4.1c0-2.6,2.1-4.2,5.4-4.2h3.1
				c0.6,0,0.9-0.3,0.9-0.7c0-1.9-1.3-3.1-3.6-3.1c-2,0-3.5,1.2-3.6,2.7h-2c0.2-2.6,2.7-4.5,5.7-4.5
				C397.3,144.5,399.5,146.6,399.5,149.6z M397.3,152.2v-0.3h-3.8c-2,0-3.3,1-3.3,2.5c0,1.4,1.1,2.3,2.8,2.3
				C395.7,156.7,397.3,155,397.3,152.2z"/>
			<path class="st5" d="M402.6,158.3v-13.5h2.1v2.6c0.7-1.9,2.4-2.8,4.5-2.8c3.1,0,5,2.2,5,5.5v8.3h-2.1v-7.9c0-2.3-1.3-3.9-3.4-3.9
				c-2.3,0-4,1.9-4,4.5v7.3H402.6z"/>
			<path class="st5" d="M417,151.5c0-3.9,2.3-7,6.5-7c1.9,0,3.7,1,4.5,2.4v-7.7h2.1v19.1H428V156c-0.8,1.5-2.6,2.4-4.5,2.4
				C419.3,158.5,417,155.5,417,151.5z M428.2,151.5c0-3.1-1.8-5-4.5-5s-4.5,2-4.5,5c0,3.1,1.8,5,4.5,5S428.2,154.6,428.2,151.5z"/>
			<path class="st5" d="M35.7,183.7c0-4.1,2.9-7,6.9-7c4,0,6.9,2.9,6.9,7c0,4-2.9,7-6.9,7C38.6,190.7,35.7,187.7,35.7,183.7z
				 M47.3,183.7c0-2.9-1.9-5-4.7-5c-2.8,0-4.7,2.1-4.7,5c0,2.9,1.9,5,4.7,5C45.4,188.7,47.3,186.6,47.3,183.7z"/>
			<path class="st5" d="M65.7,173.3c-1.3,0-2.1,0.9-2.1,2.3v1.3h4.2v1.9h-4.2v11.6h-2.1v-11.6h-5.9v11.6h-2.1v-11.6h-2.8v-1.9h2.8
				v-1.4c0-2.6,1.6-4.2,4.2-4.2h2.1v1.9h-2c-1.3,0-2.2,0.9-2.2,2.3v1.3h5.9v-1.4c0-2.6,1.6-4.2,4.2-4.2h2.1v1.9H65.7z"/>
			<path class="st5" d="M81.2,186.1c-0.5,2.8-2.8,4.6-6.2,4.6c-4,0-6.7-3.2-6.7-7.1c0-4,2.5-6.9,6.4-6.9c3.9,0,6.3,2.7,6.3,6.3
				c0,0.3,0,0.8-0.1,0.9H70.5c0.2,2.8,2,4.8,4.6,4.8c2.2,0,3.6-1,4-2.7H81.2z M70.6,182.3h8.3c-0.2-2.3-1.7-3.7-4.1-3.7
				C72.5,178.5,71,179.9,70.6,182.3z"/>
			<path class="st5" d="M91.5,178.8h-1.9c-2.7,0-3.5,2.5-3.5,5.7v6H84v-13.5h2.1v2.7c0.6-1.9,1.7-2.7,3.7-2.7h1.7V178.8z"/>
			<path class="st5" d="M92.7,186.1h2.1c0.2,1.7,1.4,2.7,3.3,2.7c1.7,0,2.8-0.9,2.8-2c0-4-7.9-0.4-7.9-6.2c0-2.3,1.9-3.8,4.8-3.8
				c3,0,5,1.6,5.1,4.1h-2.1c-0.2-1.7-1.9-2.3-3.1-2.3c-1.6,0-2.6,0.8-2.6,1.9c0,3.6,7.9,0,7.9,6.2c0,2.4-2,4-5,4
				C95,190.7,93,188.9,92.7,186.1z"/>
			<path class="st5" d="M123.4,181.7v8.7h-2.1v-2.3c-0.7,1.6-2.5,2.5-4.6,2.5c-2.8,0-4.7-1.6-4.7-4.1c0-2.6,2.1-4.2,5.4-4.2h3.1
				c0.6,0,0.9-0.3,0.9-0.7c0-1.9-1.3-3.1-3.6-3.1c-2,0-3.5,1.2-3.6,2.7h-2c0.2-2.6,2.7-4.5,5.7-4.5
				C121.2,176.7,123.4,178.7,123.4,181.7z M121.2,184.4V184h-3.8c-2,0-3.3,1-3.3,2.5c0,1.4,1.1,2.3,2.8,2.3
				C119.6,188.8,121.2,187.1,121.2,184.4z"/>
			<path class="st5" d="M133,190.4v-19.1h2.1v19.1H133z"/>
			<path class="st5" d="M138,183.7c0-4.1,2.9-7,6.9-7c4,0,6.9,2.9,6.9,7c0,4-2.9,7-6.9,7C140.9,190.7,138,187.7,138,183.7z
				 M149.6,183.7c0-2.9-1.9-5-4.7-5c-2.8,0-4.7,2.1-4.7,5c0,2.9,1.9,5,4.7,5C147.7,188.7,149.6,186.6,149.6,183.7z"/>
			<path class="st5" d="M155.8,172.6h2.1v4.3h4.2v1.9H158v7.3c0,1.5,0.9,2.4,2.2,2.4h2v2h-2.1c-2.6,0-4.2-1.6-4.2-4.2v-7.4H153v-1.9
				h2.8V172.6z"/>
			<path class="st5" d="M170.1,183.7c0-4.1,2.9-7,6.9-7c4,0,6.9,2.9,6.9,7c0,4-2.9,7-6.9,7C172.9,190.7,170.1,187.7,170.1,183.7z
				 M181.6,183.7c0-2.9-1.9-5-4.7-5c-2.8,0-4.7,2.1-4.7,5c0,2.9,1.9,5,4.7,5C179.7,188.7,181.6,186.6,181.6,183.7z"/>
			<path class="st5" d="M187.7,190.4v-11.6h-2.8v-1.9h2.8v-1.4c0-2.6,1.6-4.2,4.2-4.2h2.1v1.9h-2c-1.3,0-2.2,0.9-2.2,2.3v1.3h4.2
				v1.9h-4.2v11.6H187.7z"/>
			<path class="st5" d="M213.1,176.9h2.1V191c0,2.9-2.1,4.9-5,4.9h-6.4v-1.9h6.2c1.7,0,3-1.3,3-3.1v-2.4c-0.6,1.3-2.4,2.1-4.5,2.1
				c-4.2,0-6.5-3-6.5-7c0-3.9,2.3-7,6.5-7c1.8,0,3.6,0.9,4.5,2.2V176.9z M213.3,183.7c0-3.1-1.8-5-4.5-5c-2.7,0-4.5,2-4.5,5
				c0,3.1,1.8,5,4.5,5C211.5,188.7,213.3,186.7,213.3,183.7z"/>
			<path class="st5" d="M218.1,183.7c0-4.1,2.9-7,6.9-7c4,0,6.9,2.9,6.9,7c0,4-2.9,7-6.9,7C221,190.7,218.1,187.7,218.1,183.7z
				 M229.6,183.7c0-2.9-1.9-5-4.7-5c-2.8,0-4.7,2.1-4.7,5c0,2.9,1.9,5,4.7,5C227.7,188.7,229.6,186.6,229.6,183.7z"/>
			<path class="st5" d="M233.8,183.7c0-4.1,2.9-7,6.9-7c4,0,6.9,2.9,6.9,7c0,4-2.9,7-6.9,7C236.7,190.7,233.8,187.7,233.8,183.7z
				 M245.4,183.7c0-2.9-1.9-5-4.7-5c-2.8,0-4.7,2.1-4.7,5c0,2.9,1.9,5,4.7,5C243.5,188.7,245.4,186.6,245.4,183.7z"/>
			<path class="st5" d="M249.6,183.7c0-3.9,2.3-7,6.5-7c1.9,0,3.7,1,4.5,2.4v-7.7h2.1v19.1h-2.1v-2.2c-0.8,1.5-2.6,2.4-4.5,2.4
				C251.9,190.7,249.6,187.6,249.6,183.7z M260.7,183.7c0-3.1-1.8-5-4.5-5c-2.7,0-4.5,2-4.5,5c0,3.1,1.8,5,4.5,5
				C259,188.7,260.7,186.7,260.7,183.7z"/>
			<path class="st5" d="M274.2,190.4v-11.6h-2.8v-1.9h2.8v-1.4c0-2.6,1.6-4.2,4.2-4.2h2.1v1.9h-2c-1.3,0-2.2,0.9-2.2,2.3v1.3h4.2
				v1.9h-4.2v11.6H274.2z"/>
			<path class="st5" d="M294.1,186.1c-0.5,2.8-2.8,4.6-6.2,4.6c-4,0-6.7-3.2-6.7-7.1c0-4,2.5-6.9,6.4-6.9c3.9,0,6.3,2.7,6.3,6.3
				c0,0.3,0,0.8-0.1,0.9h-10.6c0.2,2.8,2,4.8,4.6,4.8c2.2,0,3.6-1,4-2.7H294.1z M283.4,182.3h8.3c-0.2-2.3-1.7-3.7-4.1-3.7
				C285.4,178.5,283.8,179.9,283.4,182.3z"/>
			<path class="st5" d="M307.6,181.7v8.7h-2.1v-2.3c-0.7,1.6-2.5,2.5-4.6,2.5c-2.8,0-4.7-1.6-4.7-4.1c0-2.6,2.1-4.2,5.4-4.2h3.1
				c0.6,0,0.9-0.3,0.9-0.7c0-1.9-1.3-3.1-3.6-3.1c-2,0-3.5,1.2-3.6,2.7h-2c0.2-2.6,2.7-4.5,5.7-4.5
				C305.5,176.7,307.6,178.7,307.6,181.7z M305.5,184.4V184h-3.8c-2,0-3.3,1-3.3,2.5c0,1.4,1.1,2.3,2.8,2.3
				C303.9,188.8,305.5,187.1,305.5,184.4z"/>
			<path class="st5" d="M312.2,172.6h2.1v4.3h4.2v1.9h-4.2v7.3c0,1.5,0.9,2.4,2.2,2.4h2v2h-2.1c-2.6,0-4.2-1.6-4.2-4.2v-7.4h-2.8
				v-1.9h2.8V172.6z"/>
			<path class="st5" d="M332.3,176.9v13.5h-2.1v-2.6c-0.7,1.9-2.4,2.8-4.5,2.8c-3.1,0-5-2.2-5-5.5v-8.3h2.1v7.9
				c0,2.3,1.3,3.9,3.4,3.9c2.3,0,4-1.8,4-4.5v-7.3H332.3z"/>
			<path class="st5" d="M343.4,178.8h-1.9c-2.7,0-3.5,2.5-3.5,5.7v6h-2.1v-13.5h2.1v2.7c0.6-1.9,1.7-2.7,3.7-2.7h1.7V178.8z"/>
			<path class="st5" d="M357.2,186.1c-0.5,2.8-2.8,4.6-6.2,4.6c-4,0-6.7-3.2-6.7-7.1c0-4,2.5-6.9,6.4-6.9c3.9,0,6.3,2.7,6.3,6.3
				c0,0.3,0,0.8-0.1,0.9h-10.6c0.2,2.8,2,4.8,4.6,4.8c2.2,0,3.6-1,4-2.7H357.2z M346.5,182.3h8.3c-0.2-2.3-1.7-3.7-4.1-3.7
				C348.5,178.5,346.9,179.9,346.5,182.3z"/>
			<path class="st5" d="M359.1,186.1h2.1c0.2,1.7,1.4,2.7,3.3,2.7c1.7,0,2.8-0.9,2.8-2c0-4-7.9-0.4-7.9-6.2c0-2.3,1.9-3.8,4.8-3.8
				c3,0,5,1.6,5.1,4.1h-2.1c-0.2-1.7-1.9-2.3-3.1-2.3c-1.6,0-2.6,0.8-2.6,1.9c0,3.6,7.9,0,7.9,6.2c0,2.4-2,4-5,4
				C361.3,190.7,359.3,188.9,359.1,186.1z"/>
			<path class="st5" d="M372,189c0-1,0.7-1.7,1.6-1.7s1.6,0.7,1.6,1.7c0,1-0.6,1.7-1.6,1.7C372.7,190.7,372,190,372,189z"/>
		</g>
	</g>
	<g class="st2">
		<path class="st6" d="M41.1,57.7V41h-6v-2.1h14.3V41h-6v16.7H41.1z"/>
		<path class="st6" d="M61,44.2l-4.3,11.7l-2.5,7.3h-2.1l1.7-5.3l-5-13.7h2.2l3.8,10.7l3.8-10.7H61z"/>
		<path class="st6" d="M63.2,63.2v-19h2.1v2.2c0.8-1.5,2.6-2.4,4.5-2.4c4.2,0,6.5,3,6.5,7c0,3.9-2.4,7-6.5,7c-1.9,0-3.6-0.9-4.5-2.4
			v7.6H63.2z M74.2,50.9c0-3.1-1.8-5-4.5-5c-2.7,0-4.5,2-4.5,5c0,3.1,1.8,5,4.5,5C72.4,56,74.2,54,74.2,50.9z"/>
		<path class="st6" d="M78.4,50.9c0-4.1,2.9-7,6.9-7c4,0,6.9,2.9,6.9,7c0,4-2.9,7-6.9,7C81.2,57.9,78.4,55,78.4,50.9z M89.9,50.9
			c0-2.9-1.9-5-4.7-5c-2.8,0-4.7,2.1-4.7,5c0,2.9,1.9,5,4.7,5C88,56,89.9,53.9,89.9,50.9z"/>
		<path class="st6" d="M105.2,44.2h2.1v14.1c0,2.9-2.1,4.9-5,4.9H96v-1.9h6.2c1.7,0,3-1.3,3-3.1v-2.4c-0.6,1.3-2.4,2.1-4.5,2.1
			c-4.2,0-6.5-3-6.5-7c0-3.9,2.3-7,6.5-7c1.8,0,3.6,0.9,4.5,2.2V44.2z M105.4,50.9c0-3.1-1.8-5-4.5-5c-2.7,0-4.5,2-4.5,5
			c0,3.1,1.8,5,4.5,5C103.6,56,105.4,54,105.4,50.9z"/>
		<path class="st6" d="M118.5,46.1h-1.9c-2.7,0-3.5,2.5-3.5,5.7v6H111V44.2h2.1v2.7c0.6-1.9,1.7-2.7,3.7-2.7h1.7V46.1z"/>
		<path class="st6" d="M131.3,49v8.7h-2.1v-2.3c-0.7,1.6-2.5,2.5-4.6,2.5c-2.8,0-4.7-1.6-4.7-4.1c0-2.6,2.1-4.2,5.4-4.2h3.1
			c0.6,0,0.9-0.3,0.9-0.7c0-1.9-1.3-3.1-3.6-3.1c-2,0-3.5,1.2-3.6,2.7h-2c0.2-2.6,2.7-4.5,5.7-4.5C129.1,44,131.3,46,131.3,49z
			 M129.1,51.6v-0.3h-3.8c-2,0-3.3,1-3.3,2.5c0,1.4,1.1,2.3,2.8,2.3C127.5,56.1,129.1,54.4,129.1,51.6z"/>
		<path class="st6" d="M134.5,63.2v-19h2.1v2.2c0.8-1.5,2.6-2.4,4.5-2.4c4.2,0,6.5,3,6.5,7c0,3.9-2.4,7-6.5,7
			c-1.9,0-3.6-0.9-4.5-2.4v7.6H134.5z M145.4,50.9c0-3.1-1.8-5-4.5-5c-2.7,0-4.5,2-4.5,5c0,3.1,1.8,5,4.5,5
			C143.7,56,145.4,54,145.4,50.9z"/>
		<path class="st6" d="M150.5,57.7V38.6h2.1v8.1c0.7-1.9,2.4-2.8,4.5-2.8c3.1,0,5,2.2,5,5.5v8.3H160v-7.9c0-2.3-1.3-3.9-3.4-3.9
			c-2.3,0-4,1.9-4,4.5v7.3H150.5z"/>
		<path class="st6" d="M176,44.2l-4.3,11.7l-2.5,7.3h-2.1l1.7-5.3l-5-13.7h2.2l3.8,10.7l3.8-10.7H176z"/>
	</g>
	<g class="st2">
		<path class="st6" d="M790.3,45.9h20.9V245h112v19.3H790.3V45.9z"/>
		<path class="st6" d="M942.5,43.4h23.7v31.8h-23.7V43.4z M944.7,107.1h19.7v157.2h-19.7V107.1z"/>
		<path class="st6" d="M1016.5,309.9h72.7c22.2,0,38.1-16.5,38.1-39.3v-29.6c-7.2,15.3-29.6,25.9-54.6,25.9
			c-49.9,0-76.4-36.2-76.4-81.1c0-44.9,26.5-81.1,76.4-81.1c21.8,0,44.6,11.5,54.6,27.8v-25.3h19.7v163.5c0,33.4-24,57.4-57.7,57.4
			h-72.7V309.9z M1073.3,248.7c34,0,56.2-25,56.2-63s-22.2-63-56.2-63c-34,0-56.2,25-56.2,63S1039.3,248.7,1073.3,248.7z"/>
		<path class="st6" d="M1190.3,43.4h19.7v96.4c8.1-23.7,28.1-35.3,53-35.3c35.6,0,58.7,25.3,58.7,64.3v95.5H1302v-93
			c0-29.3-16.5-48.7-41.8-48.7c-29.3,0-50.2,23.7-50.2,57.1v84.6h-19.7V43.4z"/>
		<path class="st6" d="M1391.8,55.6v51.5h49.9v18.1h-49.9v92c0,18.1,10.3,29,26.2,29h23.7v18.1h-23.4c-28.4,0-46.2-18.1-46.2-47.1
			v-92h-33.7v-18.1h33.7V55.6H1391.8z"/>
		<path class="st7" d="M788.7,299.9h83c43.1,0,69.3,25.9,69.3,64c0,24-13.4,41.2-34,50.9c17.2,9.4,27.5,27.1,29,49.3l3.7,54.3h-25.9
			l-3.7-52.7c-1.2-21.2-15-36.2-35.6-36.2h-59v88.9h-26.8V299.9z M871.4,405.4c30.9,0,42.4-20,42.4-41.5c0-21.5-11.5-40.2-42.4-40.2
			h-55.8v81.7H871.4z"/>
		<path class="st7" d="M961.9,438.8c0-46.2,28.7-80.2,74.9-80.2c45.9,0,73.3,31.8,73.3,73.6c0,3.4-0.3,8.7-0.6,10.9H986.5
			c1.9,32.4,23.4,55.5,53,55.5c25.6,0,41.8-11.2,46.8-30.9h25.3c-5.3,32.1-33.1,53-72.1,53C993.1,520.8,961.9,483.7,961.9,438.8z
			 M1084.5,423.2c-1.9-26.5-19.7-43.4-47.7-43.4c-26.5,0-44.3,15.6-49,43.4H1084.5z"/>
		<path class="st7" d="M1150,560.4h72.7c20.3,0,34.6-15.3,34.6-36.2v-27.8c-7.2,14.7-28.4,24.3-52.1,24.3c-49,0-75.8-35.3-75.8-81.1
			c0-45.9,26.8-81.1,75.8-81.1c21.2,0,42.4,10.6,52.1,25.6v-23.1h25v164.1c0,33.4-24,56.8-58,56.8H1150V560.4z M1207.4,498.4
			c31.5,0,52.1-23.1,52.1-58.7c0-35.6-20.6-58.7-52.1-58.7c-31.5,0-52.1,23.1-52.1,58.7C1155.3,475.3,1175.9,498.4,1207.4,498.4z"/>
		<path class="st7" d="M1455.5,518.3h-25v-30.3c-8.4,21.8-27.8,32.8-51.8,32.8c-35.6,0-58.7-25.3-58.7-63.6v-96.1h25v92
			c0,26.8,15.6,44.9,39.3,44.9c26.8,0,46.2-21.5,46.2-52.1v-84.9h25V518.3z"/>
		<path class="st7" d="M1495.1,296.5h25v221.8h-25V296.5z"/>
		<path class="st7" d="M1552.5,473.4c0-30,24.6-49,62.7-49h35.6c6.9,0,10-3.4,10-8.4c0-21.5-15.3-36.2-42.1-36.2
			c-23.1,0-41.2,14.4-42.4,31.5h-23.7c2.8-30.3,31.5-52.7,66.8-52.7c40.9,0,66.5,23.4,66.5,58.3v101.4h-25v-27.1
			c-8.4,18.1-29.3,29.6-53.7,29.6C1574,520.8,1552.5,502.1,1552.5,473.4z M1610.8,499.6c31.5,0,49.9-19.7,49.9-52.1v-4.1h-44
			c-23.4,0-38.7,11.2-38.7,29.6C1578.1,489.3,1590.9,499.6,1610.8,499.6z"/>
		<path class="st7" d="M1748.4,449.1v69.3h-25V361.1h25v31.8c6.9-21.5,19.7-31.8,42.7-31.8h20v22.2h-21.5
			C1757.8,383.2,1748.4,411.9,1748.4,449.1z"/>
		<path class="st8" d="M787.2,553.9h39.9L896.7,728l69.6-174.1h39.9v218.4H975V609.8l-65.2,162.6h-26.2L818,609.8v162.6h-30.9V553.9
			z"/>
		<path class="st8" d="M1032.4,692.8c0-44,27.5-80.2,75.8-80.2c48.7,0,74.6,34.6,74.6,74.6c0,4.1-0.3,9-0.6,11.9H1062
			c2.5,29.6,21.8,49.9,49.3,49.9c23.1,0,38.1-10,42.4-27.8h30.3c-5.6,32.4-34,53.7-72.7,53.7
			C1062.7,774.8,1032.4,736.4,1032.4,692.8z M1152.2,676.8c-1.9-24-18.1-39.9-44-39.9c-24.6,0-40.6,13.7-45.2,39.9H1152.2z"/>
		<path class="st8" d="M1200.2,693.7c0-46.8,27.1-81.1,75.2-81.1c21.5,0,40.2,10.3,49.6,25.6v-88.9h30.3v223.1H1325v-23.4
			c-9.4,15.6-28.7,25.9-49.3,25.9C1227.4,774.8,1200.2,740.5,1200.2,693.7z M1279.2,748.3c29,0,48.4-21.8,48.4-54.6
			s-19.3-54.6-48.4-54.6c-29.3,0-48.4,21.8-48.4,54.6S1249.9,748.3,1279.2,748.3z"/>
		<path class="st8" d="M1389.9,549.2h33.7v38.1h-33.7V549.2z M1391.8,615.1h30.3v157.2h-30.3V615.1z"/>
		<path class="st8" d="M1595.9,772.3h-30.3v-27.8c-8.4,19.7-27.5,30.3-50.9,30.3c-35.6,0-58.7-25.6-58.7-63v-96.7h30.3v90.8
			c0,25,14.7,41.8,36.8,41.8c24.6,0,42.4-20,42.4-47.4v-85.2h30.3V772.3z"/>
		<path class="st8" d="M1632,615.1h30.3v28.1c6.6-17.8,23.4-30.6,46.5-30.6c25.6,0,44.6,11.5,50.9,32.1
			c6.2-17.8,26.8-32.1,51.2-32.1c34,0,55.2,23.4,55.2,59.9v99.8h-30.3v-91.4c0-25-12.5-41.8-33.4-41.8c-24,0-38.4,16.8-38.4,41.8
			v91.4h-30.3v-91.4c0-25-12.5-41.8-33.1-41.8c-24,0-38.4,16.8-38.4,41.8v91.4H1632V615.1z"/>
		<path class="st9" d="M783.4,807.9h86.7c39.6,0,69.3,19.7,69.3,56.2c0,20.6-12.8,36.2-25.6,43.1c20,7.8,36.5,25.3,36.5,54
			c0,41.5-31.5,65.2-77.7,65.2h-89.2V807.9z M866.7,891.2c20,0,29.3-8.4,29.3-23.1c0-14.7-9.4-23.1-30.3-23.1h-36.2v46.2H866.7z
			 M868.6,985.8c25.9,0,37.4-9.4,37.4-27.1c0-17.8-11.5-27.8-37.4-27.8h-39v54.9H868.6z"/>
		<path class="st9" d="M961.6,947.7c0-46.8,34.6-81.1,83-81.1s83,34.3,83,81.1s-34.6,81.1-83,81.1S961.6,994.5,961.6,947.7z
			 M1044.6,991.4c23.4,0,39.3-17.8,39.3-43.7c0-26.2-15.9-44-39.3-44s-39.3,17.8-39.3,44C1005.2,973.6,1021.2,991.4,1044.6,991.4z"
			/>
		<path class="st9" d="M1146.6,800.7h43.4v225.6h-43.4V800.7z"/>
		<path class="st9" d="M1209.6,947.7c0-49,27.8-81.1,73.6-81.1c19.7,0,34.9,7.5,43.7,19v-84.9h43.4v225.6h-43.4v-17.2
			c-8.7,12.2-25,19.7-43.1,19.7C1237.4,1028.8,1209.6,996.7,1209.6,947.7z M1290.7,991.4c23.4,0,38.7-17.5,38.7-43.7
			c0-26.5-15.3-44-38.7-44c-22.8,0-38.4,17.5-38.4,44C1252.3,973.9,1267.9,991.4,1290.7,991.4z"/>
	</g>
</g>
<g id="Layer_1_copy">
	<rect class="st10" width="1920" height="1080"/>
	<g>
		<g>
			<path class="st3" d="M335,323c16.8,0,34.9,13.3,34.9,42.4V625c0,19.6-15.9,35.6-35.6,35.6H74.8c-27.7,0-37.1-15.6-39.9-22.3
				c-2.8-6.7-7.1-24.4,12.4-44l256.3-256.3C315.9,325.6,327.5,323,335,323z"/>
		</g>
		<g>
			<path class="st3" d="M687.6,660.5H428c-19.6,0-35.6-15.9-35.6-35.6V365.4c0-29.1,18.1-42.4,34.9-42.4c7.5,0,19.1,2.6,31.4,14.9
				l256.3,256.3c19.6,19.6,15.2,37.3,12.4,44C724.7,644.9,715.2,660.5,687.6,660.5z"/>
		</g>
		<g>
			<path class="st3" d="M335,1020.5c-7.5,0-19.1-2.6-31.4-14.9L47.3,749.3c-19.6-19.6-15.2-37.3-12.4-44
				c2.8-6.7,12.2-22.3,39.9-22.3h259.6c19.6,0,35.6,15.9,35.6,35.6v259.6C369.9,1007.3,351.8,1020.5,335,1020.5z"/>
		</g>
		<g>
			<path class="st3" d="M428,683h259.6c27.7,0,37.1,15.6,39.9,22.3c2.8,6.7,7.1,24.4-12.4,44l-256.3,256.3
				c-12.3,12.3-23.9,14.9-31.4,14.9c-16.8,0-34.9-13.3-34.9-42.4V718.6C392.4,698.9,408.4,683,428,683z"/>
		</g>
	</g>
	<g>
		<path class="st6" d="M41.1,57.7V41h-6v-2.1h14.3V41h-6v16.7H41.1z"/>
		<path class="st6" d="M61,44.2l-4.3,11.7l-2.5,7.3h-2.1l1.7-5.3l-5-13.7h2.2l3.8,10.7l3.8-10.7H61z"/>
		<path class="st6" d="M63.2,63.2v-19h2.1v2.2c0.8-1.5,2.6-2.4,4.5-2.4c4.2,0,6.5,3,6.5,7c0,3.9-2.4,7-6.5,7c-1.9,0-3.6-0.9-4.5-2.4
			v7.6H63.2z M74.2,50.9c0-3.1-1.8-5-4.5-5c-2.7,0-4.5,2-4.5,5c0,3.1,1.8,5,4.5,5C72.4,56,74.2,54,74.2,50.9z"/>
		<path class="st6" d="M78.4,50.9c0-4.1,2.9-7,6.9-7c4,0,6.9,2.9,6.9,7c0,4-2.9,7-6.9,7C81.2,57.9,78.4,55,78.4,50.9z M89.9,50.9
			c0-2.9-1.9-5-4.7-5c-2.8,0-4.7,2.1-4.7,5c0,2.9,1.9,5,4.7,5C88,56,89.9,53.9,89.9,50.9z"/>
		<path class="st6" d="M105.2,44.2h2.1v14.1c0,2.9-2.1,4.9-5,4.9H96v-1.9h6.2c1.7,0,3-1.3,3-3.1v-2.4c-0.6,1.3-2.4,2.1-4.5,2.1
			c-4.2,0-6.5-3-6.5-7c0-3.9,2.3-7,6.5-7c1.8,0,3.6,0.9,4.5,2.2V44.2z M105.4,50.9c0-3.1-1.8-5-4.5-5c-2.7,0-4.5,2-4.5,5
			c0,3.1,1.8,5,4.5,5C103.6,56,105.4,54,105.4,50.9z"/>
		<path class="st6" d="M118.5,46.1h-1.9c-2.7,0-3.5,2.5-3.5,5.7v6H111V44.2h2.1v2.7c0.6-1.9,1.7-2.7,3.7-2.7h1.7V46.1z"/>
		<path class="st6" d="M131.3,49v8.7h-2.1v-2.3c-0.7,1.6-2.5,2.5-4.6,2.5c-2.8,0-4.7-1.6-4.7-4.1c0-2.6,2.1-4.2,5.4-4.2h3.1
			c0.6,0,0.9-0.3,0.9-0.7c0-1.9-1.3-3.1-3.6-3.1c-2,0-3.5,1.2-3.6,2.7h-2c0.2-2.6,2.7-4.5,5.7-4.5C129.1,44,131.3,46,131.3,49z
			 M129.1,51.6v-0.3h-3.8c-2,0-3.3,1-3.3,2.5c0,1.4,1.1,2.3,2.8,2.3C127.5,56.1,129.1,54.4,129.1,51.6z"/>
		<path class="st6" d="M134.5,63.2v-19h2.1v2.2c0.8-1.5,2.6-2.4,4.5-2.4c4.2,0,6.5,3,6.5,7c0,3.9-2.4,7-6.5,7
			c-1.9,0-3.6-0.9-4.5-2.4v7.6H134.5z M145.4,50.9c0-3.1-1.8-5-4.5-5c-2.7,0-4.5,2-4.5,5c0,3.1,1.8,5,4.5,5
			C143.7,56,145.4,54,145.4,50.9z"/>
		<path class="st6" d="M150.5,57.7V38.6h2.1v8.1c0.7-1.9,2.4-2.8,4.5-2.8c3.1,0,5,2.2,5,5.5v8.3H160v-7.9c0-2.3-1.3-3.9-3.4-3.9
			c-2.3,0-4,1.9-4,4.5v7.3H150.5z"/>
		<path class="st6" d="M176,44.2l-4.3,11.7l-2.5,7.3h-2.1l1.7-5.3l-5-13.7h2.2l3.8,10.7l3.8-10.7H176z"/>
	</g>
	<g>
		<g>
			<path class="st6" d="M802.5,39.2h5.9l21.2,53.3h-6.8l-5.5-14.4h-23.8L788,92.5h-6.7L802.5,39.2z M795.8,72.4H815l-9.6-25.1
				L795.8,72.4z"/>
			<path class="st6" d="M833.2,39.2h19.1c10.1,0,16.2,5,16.2,13.7c0,4.9-3.4,8.9-7.1,10.4c5.5,1.8,9.5,6.2,9.5,13.6
				c0,9.6-6.5,15.5-17.4,15.5h-20.3V39.2z M852.1,61.3c6.5,0,10-2.7,10-8.2c0-5.5-3.5-8.1-9.9-8.1h-12.5v16.4H852.1z M852.4,86.7
				c7.8,0,12-3.4,12-9.7c0-6.4-4.1-9.8-12-9.8h-12.7v19.6H852.4z"/>
			<path class="st6" d="M874.2,65.9c0-18.4,12.4-27.3,25.7-27.3c11.7,0,21.1,7.2,22.5,17.2h-6.8c-1-6.5-7.6-11.3-15.8-11.3
				c-11.1,0-19,7.5-19,21.4s7.8,21.4,19,21.4c8.3,0,15-4.8,15.8-11.3h6.6c-1.1,10-10.6,17.2-22.5,17.2
				C886.5,93.1,874.2,84.2,874.2,65.9z"/>
			<path class="st6" d="M928,39.2h15.7c14.9,0,26.7,9.7,26.7,26.7c0,17-11.7,26.7-26.7,26.7H928V39.2z M943.6,86.7
				c10.4,0,20-6.1,20-20.8c0-14.7-9.6-20.8-20-20.8h-9.1v41.6H943.6z"/>
			<path class="st6" d="M976.5,39.2h33.4v5.9H983v17h21.9v5.9H983v18.7h27.6v5.9h-34.2V39.2z"/>
			<path class="st6" d="M1016.2,39.2h33.4v5.9h-26.8v17.6h21.9v5.9h-21.9v24h-6.5V39.2z"/>
			<path class="st6" d="M1049.2,65.9c0-18.2,12.5-27.3,25.7-27.3c12.2,0,21.8,7.2,23,17.4h-6.9c-1.2-6.8-7.8-11.6-16.1-11.6
				c-11,0-19.1,7.5-19.1,21.4c0,13.8,8.1,21.6,19,21.6c8.8,0,16.5-4.9,16.5-12.6c0-2.4-1.6-4-4.2-4h-12v-5.6h13.3
				c3.9,0,9.4,3,9.4,9.1v18.3h-6.1v-9.3c-2.4,5.9-9.1,9.9-17,9.9C1061.6,93.1,1049.2,84.1,1049.2,65.9z"/>
			<path class="st6" d="M1146.1,39.2v53.3h-6.5V67.9h-28.2v24.6h-6.5V39.2h6.5v22.8h28.2V39.2H1146.1z"/>
			<path class="st6" d="M1155.3,39.2h6.5v53.3h-6.5V39.2z"/>
			<path class="st6" d="M1177,78.9V39.2h6.5v39.8c0,8.8-4,13.5-11.1,13.5h-7v-5.9h6.5C1175.4,86.7,1177,84,1177,78.9z"/>
			<path class="st6" d="M1192.3,92.5V39.2h6.6v25.3l24.7-25.3h8.3l-20.7,21.4l23,31.9h-7.8l-19.6-27.3l-7.8,8v19.3H1192.3z"/>
			<path class="st6" d="M1236.4,39.2h6.5v47.4h26.7v5.9h-33.2V39.2z"/>
			<path class="st6" d="M1273.1,39.2h8.5l17.5,44.5l17.6-44.5h8.5v53.3h-6.3V50l-16.9,42.5h-5.6L1279.4,50v42.5h-6.3V39.2z"/>
			<path class="st6" d="M1334.3,39.2h7.5l27.4,43.4V39.2h6.5v53.3h-7.5l-27.4-43.3v43.3h-6.5V39.2z"/>
			<path class="st6" d="M783.7,122.2c0-15.7,11.1-27.3,26.1-27.3c15.1,0,26.2,11.6,26.2,27.3c0,15.7-11.1,27.3-26.2,27.3
				C794.9,149.5,783.7,137.9,783.7,122.2z M809.9,143.6c11.2,0,19.5-9.1,19.5-21.4c0-12.3-8.3-21.4-19.5-21.4
				c-11.1,0-19.4,9.1-19.4,21.4C790.4,134.5,798.7,143.6,809.9,143.6z"/>
			<path class="st6" d="M842.1,95.6h20.1c10.5,0,17,6.4,17,15.8c0,9.4-6.5,15.8-17,15.8h-13.6v21.8h-6.5V95.6z M862.2,121.3
				c7.5,0,10.3-4.7,10.3-10c0-5.3-2.8-10-10.3-10h-13.6v20H862.2z"/>
			<path class="st6" d="M923.8,164.4H917c-8.7,0-13-3.6-13-12v-3.1c-13.5-1.4-23.2-12.4-23.2-27.1c0-15.7,11.1-27.3,26.1-27.3
				c15.1,0,26.2,11.6,26.2,27.3c0,14.6-9.7,25.7-23.1,27.1v3c0,5.1,2.2,6.8,7.2,6.8h6.7V164.4z M906.9,143.6
				c11.2,0,19.5-9.1,19.5-21.4c0-12.3-8.3-21.4-19.5-21.4c-11.1,0-19.4,9.1-19.4,21.4C887.4,134.5,895.7,143.6,906.9,143.6z"/>
			<path class="st6" d="M939.2,95.6h20.3c10.5,0,16.9,6.3,16.9,15.6c0,5.9-3.3,10.1-8.3,12.4c4.2,2.3,6.7,6.6,7.1,12l0.9,13.3h-6.3
				l-0.9-12.9c-0.3-5.2-3.7-8.8-8.7-8.8h-14.4v21.7h-6.5V95.6z M959.3,121.3c7.5,0,10.4-4.9,10.4-10.1s-2.8-9.8-10.4-9.8h-13.6v20
				H959.3z"/>
			<path class="st6" d="M979.7,131.4h6.4c0.7,7.4,5.6,12.2,13.9,12.2c7.4,0,12.8-2.8,12.8-9.3c0-13.7-31.2-6.2-31.2-25.2
				c0-8.5,7.4-14.2,18-14.2c10.7,0,18,6.2,18.8,15.8h-6.4c-0.6-6-5.3-9.9-12.4-9.9c-7.2,0-11.5,3.2-11.5,8.3
				c0,13.6,31.4,5.2,31.4,25.2c0,9.7-8.3,15.2-19.5,15.2C988,149.5,980.4,142.3,979.7,131.4z"/>
			<path class="st6" d="M1035.1,101.4H1018v-5.9h40.6v5.9h-17v47.4h-6.5V101.4z"/>
			<path class="st6" d="M1061.7,130.6v-35h6.4v35.3c0,7.8,5.5,12.7,13.7,12.7c8.3,0,13.8-4.9,13.8-12.7V95.6h6.4v35
				c0,11.7-8.1,18.9-20.2,18.9C1069.7,149.5,1061.7,142.3,1061.7,130.6z"/>
			<path class="st6" d="M1105.4,95.6h6.6l16.8,45.8l16.9-45.8h6.6l-20.2,53.3h-6.6L1105.4,95.6z"/>
			<path class="st6" d="M1151.1,95.6h6.7l13.2,43.5l13.4-43.5h5.8l13.5,43.5l13.2-43.5h6.7l-16.4,53.3h-6.6l-13.2-43.3l-13.3,43.3
				h-6.5L1151.1,95.6z"/>
			<path class="st6" d="M1239.4,121.9l-16.7-26.3h6.8l13.3,20.9l13.3-20.9h6.8l-16.7,26.3l17.1,27h-6.9l-13.7-21.6l-13.7,21.6h-6.9
				L1239.4,121.9z"/>
			<path class="st6" d="M1280.9,126.6l-18.9-31h7.4l14.8,24.7l14.7-24.7h7.4l-18.9,31v22.3h-6.5V126.6z"/>
			<path class="st6" d="M1305,143l32.6-41.6h-30.8v-5.9h38.3v5.9l-32.5,41.6h32.6v5.9H1305V143z"/>
			<path class="st6" d="M784.3,194.3c0-7.3,6-12,15.3-12h8.7c1.7,0,2.4-0.8,2.4-2.1c0-5.3-3.7-8.8-10.3-8.8
				c-5.6,0-10.1,3.5-10.4,7.7h-5.8c0.7-7.4,7.7-12.9,16.3-12.9c10,0,16.2,5.7,16.2,14.2v24.7h-6.1v-6.6c-2.1,4.4-7.2,7.2-13.1,7.2
				C789.5,205.8,784.3,201.3,784.3,194.3z M798.5,200.7c7.7,0,12.2-4.8,12.2-12.7v-1H800c-5.7,0-9.4,2.7-9.4,7.2
				C790.5,198.2,793.6,200.7,798.5,200.7z"/>
			<path class="st6" d="M830.2,198.9v6.3h-6.1v-54.1h6.1v22c2.4-4.1,7.3-6.9,12.8-6.9c12,0,18.5,8.6,18.5,19.8
				c0,11.2-6.5,19.8-18.6,19.8C837.6,205.8,832.5,203.1,830.2,198.9z M842.4,200.4c7.7,0,12.7-5.6,12.7-14.3c0-8.7-5-14.3-12.7-14.3
				c-7.8,0-12.8,5.6-12.8,14.3C829.7,194.7,834.7,200.4,842.4,200.4z"/>
			<path class="st6" d="M863.9,186c0-10.3,6.5-19.8,18.7-19.8c8.6,0,16.3,5,17.4,13.6h-6c-0.8-4.6-5.6-8.1-11.3-8.1
				c-8.4,0-12.4,6.5-12.4,14.3c0,7.8,4.1,14.3,12.4,14.3c5.8,0,10-2.9,11.3-7.5h5.9c-1.3,7.8-7.6,13-17.4,13
				C870.5,205.8,863.9,196.3,863.9,186z"/>
			<path class="st6" d="M902.1,186c0-11.2,6.5-19.8,18.5-19.8c5.4,0,10.4,2.7,12.7,6.9v-22h6.1v54.1h-6.1v-6.3
				c-2.3,4.2-7.3,6.9-12.7,6.9C908.7,205.8,902.1,197.2,902.1,186z M921.2,200.4c7.7,0,12.7-5.6,12.7-14.3c0-8.7-5-14.3-12.7-14.3
				c-7.7,0-12.7,5.6-12.7,14.3C908.5,194.7,913.5,200.4,921.2,200.4z"/>
			<path class="st6" d="M944.6,185.8c0-11.3,7-19.6,18.3-19.6c11.2,0,17.9,7.8,17.9,18c0,0.8-0.1,2.1-0.2,2.7h-30
				c0.5,7.9,5.7,13.6,12.9,13.6c6.2,0,10.2-2.7,11.4-7.5h6.2c-1.3,7.8-8.1,12.9-17.6,12.9C952.2,205.8,944.6,196.8,944.6,185.8z
				 M974.5,182c-0.5-6.5-4.8-10.6-11.7-10.6c-6.5,0-10.8,3.8-12,10.6H974.5z"/>
			<path class="st6" d="M988.9,172.3h-8v-5.4h8V163c0-7.3,4.6-11.9,12-11.9h6v5.4h-5.8c-3.7,0-6.1,2.4-6.1,6.5v3.8h16.2V163
				c0-7.3,4.6-11.9,12-11.9h6v5.4h-5.8c-3.7,0-6.1,2.4-6.1,6.5v3.8h11.9v5.4h-11.9v33h-6.1v-33H995v33h-6.1V172.3z"/>
			<path class="st6" d="M1033.3,215.5h17.7c4.9,0,8.5-3.7,8.5-8.8v-6.8c-1.8,3.6-6.9,5.9-12.7,5.9c-12,0-18.5-8.6-18.5-19.8
				c0-11.2,6.5-19.8,18.5-19.8c5.2,0,10.4,2.6,12.7,6.2v-5.6h6.1v40.1c0,8.1-5.9,13.9-14.2,13.9h-18.1V215.5z M1047.3,200.4
				c7.7,0,12.7-5.6,12.7-14.3c0-8.7-5-14.3-12.7-14.3c-7.7,0-12.7,5.6-12.7,14.3C1034.6,194.7,1039.6,200.4,1047.3,200.4z"/>
			<path class="st6" d="M1073.3,151.1h6.1v23.2c2.1-5.3,6.8-8,12.7-8c8.7,0,14.3,6.2,14.3,15.5v23.5h-6.1v-22.5c0-6.5-3.8-11-9.6-11
				c-6.6,0-11.3,5.3-11.3,12.7v20.7h-6.1V151.1z"/>
			<path class="st6" d="M1113.2,151.1h7v8.5h-7V151.1z M1113.7,166.9h6.1v38.4h-6.1V166.9z"/>
			<path class="st6" d="M1119.2,215.5h3.2c3.4,0,5.3-2.4,5.3-6.9v-41.7h6.1v42c0,7.8-3.8,12-11,12h-3.6V215.5z M1127.2,151.1h7v8.5
				h-7V151.1z"/>
			<path class="st6" d="M1141.5,151.1h6.2v32.1l18.1-16.3h8.1l-16.5,15l18,23.4h-7.7l-14.8-19.3l-5.1,4.6v14.6h-6.2V151.1z"/>
			<path class="st6" d="M1177,151.1h6.1v54.1h-6.1V151.1z"/>
			<path class="st6" d="M1191,166.9h6.1v7.4c1.5-4.6,5.7-8,11.7-8c6.3,0,11.3,2.9,12.6,8.1c1.4-4.6,6.6-8.1,12.4-8.1
				c8.3,0,13.4,5.6,13.4,14.8v24.1h-6.1v-22.5c0-6.5-3.3-11-8.7-11c-6.5,0-10.3,4.5-10.3,11v22.5h-6.1v-22.5c0-6.5-3.3-11-8.6-11
				c-6.4,0-10.3,4.5-10.3,11v22.5h-6.1V166.9z"/>
			<path class="st6" d="M1254.3,166.9h6.1v7.4c2.1-5.3,6.8-8,12.7-8c8.7,0,14.3,6.2,14.3,15.5v23.5h-6.1v-22.5c0-6.5-3.8-11-9.6-11
				c-6.6,0-11.3,5.3-11.3,12.7v20.7h-6.1V166.9z"/>
			<path class="st6" d="M783.4,242.4c0-11.6,8.1-19.8,19.5-19.8c11.4,0,19.6,8.2,19.6,19.8c0,11.5-8.1,19.8-19.6,19.8
				C791.6,262.2,783.4,253.9,783.4,242.4z M802.9,256.7c7.9,0,13.3-5.9,13.3-14.3c0-8.4-5.4-14.3-13.3-14.3
				c-7.8,0-13.3,5.9-13.3,14.3C789.7,250.8,795.1,256.7,802.9,256.7z"/>
			<path class="st6" d="M827.6,223.2h6.1v6.3c2.4-4.2,7.4-6.9,12.9-6.9c11.8,0,18.4,8.6,18.4,19.8c0,11.2-6.7,19.8-18.7,19.8
				c-5.3,0-10.4-2.7-12.6-6.8v21.7h-6.1V223.2z M846,256.7c7.7,0,12.7-5.6,12.7-14.3c0-8.7-5-14.3-12.7-14.3
				c-7.8,0-12.8,5.6-12.8,14.3C833.2,251.1,838.2,256.7,846,256.7z"/>
			<path class="st6" d="M898.7,277.1v-21.7c-2.3,4.1-7.2,6.8-12.6,6.8c-11.9,0-18.6-8.6-18.6-19.8c0-11.2,6.5-19.8,18.4-19.8
				c5.5,0,10.4,2.7,12.8,6.9v-6.3h6.1v53.9H898.7z M886.5,256.7c7.7,0,12.7-5.6,12.7-14.3c0-8.7-5-14.3-12.7-14.3
				c-7.7,0-12.7,5.6-12.7,14.3C873.8,251.1,878.8,256.7,886.5,256.7z"/>
			<path class="st6" d="M918.7,244.7v16.9h-6.1v-38.4h6.1v7.8c1.7-5.3,4.8-7.8,10.4-7.8h4.9v5.4h-5.3
				C921,228.6,918.7,235.6,918.7,244.7z"/>
			<path class="st6" d="M933.2,249.2h5.9c0.5,4.9,3.9,7.6,9.4,7.6c4.9,0,8.1-2.7,8.1-5.8c0-11.4-22.4-1.1-22.4-17.7
				c0-6.5,5.5-10.7,13.6-10.7c8.4,0,14.1,4.6,14.5,11.7h-5.9c-0.6-4.9-5.4-6.5-8.8-6.5c-4.5,0-7.5,2.1-7.5,5.5
				c0,10.4,22.5,0.1,22.5,17.7c0,6.9-5.7,11.3-14.2,11.3C939.7,262.2,933.8,257.2,933.2,249.2z"/>
			<path class="st6" d="M976.9,210.9v12.3h17.7v-12.3h6.1v12.3h11.8v5.4h-11.8v20.8c0,4.3,2.4,6.8,6.2,6.8h5.6v5.4h-5.9
				c-7.4,0-12-4.6-12-12v-20.9h-17.7v20.8c0,4.3,2.4,6.8,6.2,6.8h5.6v5.4h-5.9c-7.4,0-12-4.6-12-12v-20.9h-8v-5.4h8v-12.3H976.9z"/>
			<path class="st6" d="M1049,261.6h-6.1v-7.4c-2.1,5.3-6.8,8-12.6,8c-8.7,0-14.3-6.2-14.3-15.5v-23.5h6.1v22.5c0,6.5,3.8,11,9.6,11
				c6.5,0,11.3-5.3,11.3-12.7v-20.7h6.1V261.6z"/>
			<path class="st6" d="M1052.5,223.2h6.3l10.9,30.8l11-30.8h6.3l-14,38.4h-6.4L1052.5,223.2z"/>
			<path class="st6" d="M1086.6,223.2h6.1l8.5,30.5l9.4-30.5h5.9l9.4,30.5l8.4-30.5h6.2l-11.7,38.4h-5.9l-9.4-30.5l-9.4,30.5h-5.9
				L1086.6,223.2z"/>
			<path class="st6" d="M1139.1,261.6l13.9-20.2l-12.7-18.2h6.8l9.3,13.4l9.3-13.4h6.8l-12.7,18.2l13.9,20.2h-6.5l-10.8-15.5
				l-10.8,15.5H1139.1z"/>
			<path class="st6" d="M1186.3,262.2l-14.4-39h6.3l10.9,30.5l11-30.5h6.3l-12.4,34l-6.8,20h-5.9L1186.3,262.2z"/>
			<path class="st6" d="M1220.1,262.2l-14.4-39h6.3l10.9,30.5l11-30.5h6.3l-12.4,34l-6.8,20h-5.9L1220.1,262.2z"/>
			<path class="st6" d="M1240.4,256.2l23.8-27.6h-22.6v-5.4h29.7v5.4l-23.5,27.6h24.6v5.4h-31.9V256.2z"/>
			<path class="st6" d="M784.9,322.8v-4.3c0-16.3,5.3-25.1,18.1-25.1h2.7c13,0,18.2,8.8,18.2,25.1v4.3c0,16.3-5.2,25.1-18.2,25.1
				H803C790.1,347.9,784.9,339.1,784.9,322.8z M803.2,342h2.4c8.3,0,11.8-6.2,11.8-18.5v-5.8c0-12.3-3.5-18.5-11.8-18.5h-2.4
				c-8.3,0-11.8,6.2-11.8,18.5v5.8C791.4,335.9,794.9,342,803.2,342z"/>
			<path class="st6" d="M842.8,347.3h-6.5v-42.2c-0.8,1.2-2.7,1.8-4.8,1.8h-5v-5.9h4.3c3.4,0,5.3-1.4,5.7-7.1h6.3V347.3z"/>
			<path class="st6" d="M867.5,293.4c10.1,0,17.3,6.2,17.3,15.9c0,6.9-4.3,12.8-12.4,16.8l-7.6,3.9c-4.3,2.2-9.2,6.2-9.2,11.4h29.5
				v5.9h-35.9v-4.6c0-9.5,7.5-15.4,12.9-18.1l8.1-4.2c5.7-2.9,7.8-6.5,7.8-11.2c0-6.1-4.5-10.1-10.6-10.1c-6.9,0-11.2,4.9-10.9,12.2
				h-6.7C849.5,300.4,856.5,293.4,867.5,293.4z"/>
			<path class="st6" d="M888,330.5h6.4c0,6.9,5.5,11.5,12.6,11.5c7.5,0,12.2-3.6,12.2-9.9c0-6.2-4.7-9.6-12.2-9.6h-4.3v-5.7h4.3
				c6.3,0,10.1-3.9,10.1-9.2c0-5.3-4.1-8.4-10.5-8.4c-6.1,0-10.1,3.6-10.4,9.9h-6.3c0.4-9.7,7.3-15.8,16.8-15.8c9.9,0,17,5.9,17,14
				c0,5.4-3.4,10-7.7,11.9c5.6,1.8,9.9,6.5,9.9,12.9c0,10.2-8.8,15.7-18.9,15.7C896.4,347.9,888,341,888,330.5z"/>
			<path class="st6" d="M956.9,334h-28.6v-5.9l27.5-34.1h7.6v34.1h8.3v5.9h-8.3v13.3h-6.5V334z M957,328.1v-27l-21.7,27H957z"/>
			<path class="st6" d="M973.3,332.3h6.3c0.8,6.2,5.3,9.7,11.7,9.7c7.8,0,12.9-4.6,12.9-12.2c0-7.6-5.1-12.6-12.9-12.6
				c-5.8,0-10.1,2.4-11.7,6.2h-5.3l4.1-29.5h28.6v5.9h-23.7l-2.4,16.1c2.6-2.4,7-4.3,11.1-4.3c11.1,0,18.7,7.5,18.7,18.3
				c0,10.8-8,18-19.6,18C981.5,347.9,974.2,341.3,973.3,332.3z"/>
			<path class="st6" d="M1052.9,329.8c0,10.5-8.1,18.1-19.1,18.1c-12.2,0-19.8-9.7-19.8-24.4c0-20,9-30.2,20.8-30.2
				c9.8,0,17.1,5.8,18.4,14.2h-6.5c-1.2-5.2-5.5-8.5-11.9-8.5c-8.5,0-14.2,9.1-14.7,20.9c2.2-4.9,8.1-8.3,13.9-8.3
				C1045.2,311.6,1052.9,319.3,1052.9,329.8z M1033.9,342c7.2,0,12.3-5.2,12.3-12.3c0-7.1-5.2-12.2-12.3-12.2
				c-7.2,0-12.4,5.1-12.4,12.2C1021.5,336.9,1026.6,342,1033.9,342z"/>
			<path class="st6" d="M1072.6,319.7l12.3-19.9h-31.1V294h38.4v5.3l-14.5,24.1c-6,10.1-6.8,16.8-6.9,23.8h-6.5
				C1064.4,339.2,1065.4,331.4,1072.6,319.7z"/>
			<path class="st6" d="M1093,332.1c0-6.5,4.3-11.7,9.9-13.6c-4.3-2.1-7.8-5.9-7.8-11.2c0-8.2,6.9-14,16.8-14c10,0,16.8,5.8,16.8,14
				c0,5.3-3.5,9.1-7.8,11.2c5.6,1.9,9.9,7.1,9.9,13.6c0,10.1-8.7,15.8-19,15.8C1101.7,347.9,1093,342.3,1093,332.1z M1111.9,342
				c7.5,0,12.3-3.7,12.3-9.9c0-6.3-4.9-10.1-12.3-10.1c-7.5,0-12.3,3.8-12.3,10.1C1099.6,338.3,1104.5,342,1111.9,342z
				 M1111.9,316.1c6.3,0,10.4-3.3,10.4-8.6c0-5.3-4-8.4-10.4-8.4c-6.3,0-10.4,3.1-10.4,8.4C1101.6,312.8,1105.6,316.1,1111.9,316.1z
				"/>
			<path class="st6" d="M1134.9,311.5c0-10.5,8.1-18.1,19.1-18.1c12.2,0,19.8,9.7,19.8,24.4c0,20-9,30.2-20.8,30.2
				c-9.8,0-17.1-5.8-18.4-14.2h6.5c1.2,5.2,5.5,8.5,11.9,8.5c8.5,0,14.2-9.1,14.7-20.9c-2.2,5-8.1,8.3-13.9,8.3
				C1142.6,329.6,1134.9,321.9,1134.9,311.5z M1153.9,323.8c7.2,0,12.4-5.1,12.4-12.2c0-7.2-5.2-12.3-12.4-12.3
				c-7.2,0-12.3,5.2-12.3,12.3C1141.6,318.7,1146.7,323.8,1153.9,323.8z"/>
			<path class="st6" d="M799.8,404.1c-10.1-1.2-16.4-8-17.1-17.9h6.4c0.7,7.4,5.6,12.2,13.9,12.2c7.4,0,12.8-2.8,12.8-9.3
				c0-13.7-31.2-6.2-31.2-25.2c0-7.7,6.1-13.1,15.2-14v-8.3h5.7v8.3c9.1,1,15.2,6.9,15.9,15.6H815c-0.6-6-5.3-9.9-12.4-9.9
				s-11.5,3.2-11.5,8.3c0,13.6,31.4,5.2,31.4,25.2c0,8.9-7.1,14.3-17,15.1v8.4h-5.7V404.1z"/>
			<path class="st6" d="M853.8,404.2H851c-11.2,0-17.2-6.5-18.7-18.6h-6.5v-5.3h6.2v-1.2v-4.3V373h-6.2v-5.3h6.6
				c1.6-11.7,7.5-18,18.6-18h2.8c9.1,0,14.4,5,15.8,12.8h-6.7c-1.1-4.2-4.3-6.9-9.2-6.9h-2.5c-7,0-11,4.1-12.3,12.2h18.7v5.3h-19.2
				v1.1v5.8v0.5h19.2v5.3h-18.8c1.1,8.4,5.2,12.7,12.3,12.7h2.5c5.1,0,8.3-3,9.4-7.3h6.7C868.3,399.1,862.9,404.2,853.8,404.2z"/>
			<path class="st6" d="M881.8,383.5c0-1.3-0.2-2.6-0.6-3.8h-8.4V374h6.2c-1.1-2.7-2.2-5.6-2.2-8.8c0-9.7,6.9-15.5,16.3-15.5
				c8.4,0,16,5,16.4,15.2h-6.5c-0.5-6.8-4.9-9.4-10-9.4c-5.4,0-9.6,3.3-9.6,9.8c0,3.2,1.1,5.9,2.3,8.6h16v5.6h-13.9
				c0.3,1.2,0.5,2.4,0.5,3.8c0,4.9-2.9,10.1-6.4,14.3h20c1.7,0,2.7-1,2.7-2.7v-5h6.5v5.3c0,5.3-2.9,8.2-8.2,8.2h-28.3v-5.7
				C879.3,393,881.8,388.9,881.8,383.5z"/>
			<path class="st6" d="M917,376.3h11.2l-15.8-26h7.4l14.8,24.7l14.7-24.7h7.4l-15.8,26h11.4v5.3h-14.5v7.3h14.5v5.3h-14.5v9.5h-6.5
				v-9.5H917v-5.3h14.2v-7.3H917V376.3z"/>
			<path class="st6" d="M1019.2,374.8v6.7c0,8.7-4.1,14.6-11,14.6c-4.5,0-8.5-2.3-9.4-5.4c-1.5,3.3-5.6,5.6-11.3,5.6
				c-9.6,0-14.9-6.9-14.8-15.8c0-9,5.2-15.8,14.7-15.8c4.1,0,8.2,2,10.2,4.9v-4.5h5.5v20.9c0,2.7,2.1,4.6,4.9,4.6
				c3.6,0,5.6-3.5,5.6-9.3v-6.7c0-12-8.2-20.6-21.2-20.6h-6.4c-13.3,0-22.2,8.7-22.2,21.3v9.3c0,13.3,8.5,22.1,20.9,22.1h14.2v5.3
				h-14.2c-15.8,0-26.4-10.7-26.4-27.3v-9.3c0-15.9,11.1-26.6,27.7-26.6h6.4C1008.8,349,1019.2,359.6,1019.2,374.8z M988.1,391.8
				c6.1-0.1,9.9-4.5,9.9-11.2c0-6.8-3.8-11.2-9.9-11.2c-6,0-9.9,4.4-9.9,11.2C978.2,387.3,982.1,391.8,988.1,391.8z"/>
			<path class="st6" d="M1031.5,387.7h-9.7v-4.9h10.7l2.6-11.7h-10v-4.9h11l3.6-15.9h5.3l-3.5,15.9h12.4l3.6-15.9h5.3l-3.6,15.9h9.7
				v4.9h-10.7l-2.7,11.7h10v4.9h-11l-3.5,15.9h-5.3l3.5-15.9h-12.5l-3.5,15.9h-5.3L1031.5,387.7z M1050.3,382.8l2.6-11.7h-12.6
				l-2.6,11.7H1050.3z"/>
			<path class="st6" d="M1073.2,381.5c0-14.5,23.3-7,23.3-18.1c0-5.2-3.6-8.1-9.6-8.1c-6,0-10.6,3.5-10.9,9.5h-6.2
				c0.4-9.3,7.5-15.1,17.1-15.1c9.9,0,16.3,5.3,16.3,13.6c0,15.2-23.8,9.7-23.8,18.1c0,3.7,2.5,5,6.2,5h10.8v5.3h-11
				C1078,391.6,1073.2,388.4,1073.2,381.5z M1082.4,396.6h6.9v7.1h-6.9V396.6z"/>
			<path class="st6" d="M1133.7,388c0,14.5-23.3,7-23.3,18.1c0,5.2,3.6,8.1,9.6,8.1c6,0,10.6-3.5,10.9-9.5h6.2
				c-0.4,9.3-7.5,15.1-17.1,15.1c-9.9,0-16.3-5.3-16.3-13.6c0-15.2,23.8-9.7,23.8-18.1c0-3.7-2.5-4.9-6.2-4.9h-10.8v-5.3h11
				C1128.9,377.9,1133.7,381.1,1133.7,388z M1117.6,365.9h6.9v7.1h-6.9V365.9z"/>
			<path class="st6" d="M1140.7,350.3h7.9l-1.8,41.3h-4.4L1140.7,350.3z M1141.2,396.6h6.9v7.1h-6.9V396.6z"/>
			<path class="st6" d="M1157,377.9h4.5l1.8,41.3h-8L1157,377.9z M1155.9,365.9h6.9v7.1h-6.9V365.9z"/>
			<path class="st6" d="M786.3,489.5h14.8v-14.9h5.3v14.9h14.9v5.3h-14.9v14.9h-5.3v-14.9h-14.8V489.5z"/>
			<path class="st6" d="M829.7,489.5h35.1v5.3h-35.1V489.5z"/>
			<path class="st6" d="M875.4,502.6l11.5-11.5l-11.6-11.6l3.9-3.8l11.6,11.5l11.5-11.5l3.8,3.8l-11.5,11.5l11.5,11.6l-3.8,3.8
				l-11.6-11.5l-11.5,11.5L875.4,502.6z"/>
			<path class="st6" d="M916.6,489.5h35.1v5.3h-35.1V489.5z M930.7,473.8h6.9v7.1h-6.9V473.8z M930.7,503.5h6.9v7.1h-6.9V503.5z"/>
			<path class="st6" d="M959.9,482.5H995v5.3h-35.1V482.5z M959.9,499.6H995v5.3h-35.1V499.6z"/>
			<path class="st6" d="M1011.3,462.4c6.6,0,11.4,5.4,11.4,12.2c0,6.8-4.8,12.2-11.4,12.2c-6.7,0-11.6-5.4-11.6-12.2
				C999.8,467.8,1004.6,462.4,1011.3,462.4z M1040.7,463h5.7l-38.7,53.3h-5.7L1040.7,463z M1011.3,482.3c4,0,6.6-3.4,6.6-7.7
				c0-4.4-2.6-7.8-6.6-7.8c-4.1,0-6.7,3.4-6.7,7.8C1004.6,478.9,1007.2,482.3,1011.3,482.3z M1037.5,492.6c6.6,0,11.4,5.4,11.4,12.2
				c0,6.8-4.8,12.2-11.4,12.2c-6.7,0-11.6-5.4-11.6-12.2C1025.9,498,1030.8,492.6,1037.5,492.6z M1037.5,512.4c4,0,6.6-3.4,6.6-7.7
				c0-4.4-2.6-7.8-6.6-7.8c-4.1,0-6.7,3.4-6.7,7.8C1030.8,509.1,1033.4,512.4,1037.5,512.4z"/>
			<path class="st6" d="M1051.2,502c0-7.6,5.3-11.5,11.1-14.5c-3.4-3.9-6.5-8.3-6.5-12.6c0-7.3,5.6-12.5,13.4-12.5
				c7.8,0,13.4,5,13.4,12c0,7.9-5.5,11.8-11.3,14.8l11,12.1l2-3c3.6-6,7.4-6.7,11.2-6.7v5.9c-3.4,0-6,1.8-7.5,4.3l-2.1,3.6l10.1,11
				h-7l-5.9-6.4c-4.2,5.2-10.1,7-15.3,7C1057.5,516.9,1051.2,511.4,1051.2,502z M1067.7,511.5c3.7,0,8.1-1.4,11.6-5.6l-13.1-14
				c-4.9,2.5-9.1,5.3-9.1,10.3C1057.1,508,1061,511.5,1067.7,511.5z M1067.3,485c5.1-2.7,9.5-5.3,9.5-10.4c0-4.2-3.2-7.2-7.6-7.2
				c-4.4,0-7.6,3.2-7.6,7.7C1061.6,478.4,1064.6,482,1067.3,485z"/>
			<path class="st6" d="M1127.8,460c16.8,0,29.7,12.9,29.7,29.7c0,16.7-12.9,29.7-29.7,29.7c-16.7,0-29.7-13-29.7-29.7
				C1098.1,472.9,1111.1,460,1127.8,460z M1127.8,515.2c14.2,0,25.2-11.1,25.3-25.5c-0.1-14.4-11-25.5-25.3-25.5
				c-14.2,0-25.2,11.1-25.3,25.5C1102.6,504.1,1113.6,515.2,1127.8,515.2z M1112.3,489.3c0-11,7.5-16.4,15.6-16.4
				c7.3,0,13,4.3,13.9,10.7h-5.1c-0.7-4-4.2-6.5-8.8-6.5c-6.2,0-10.7,4.3-10.7,12.1c0,7.8,4.5,12.1,10.7,12.1c4.8,0,8.3-2.6,9-6.5
				h4.9c-0.8,6.4-6.4,10.7-13.9,10.7C1119.7,505.7,1112.3,500.3,1112.3,489.3z"/>
		</g>
	</g>
	<g>
		<path class="st6" d="M1445.8,38.9h2.1l10.3,25.5h-2.5l-2.8-7.2h-12l-2.8,7.2h-2.5L1445.8,38.9z M1441.7,54.9h10.2l-5.1-13.1
			L1441.7,54.9z"/>
		<path class="st6" d="M1460.2,38.9h8.8c4.9,0,7.7,2.4,7.7,6.5c0,2.4-1.7,4.3-3.5,5c2.7,0.9,4.6,2.9,4.6,6.6c0,4.5-2.9,7.3-8.1,7.3
			h-9.5V38.9z M1469,49.7c3.3,0,5.1-1.4,5.1-4.3c0-2.9-1.9-4.3-5.1-4.3h-6.4v8.5H1469z M1469.1,62.1c4,0,6.1-1.8,6.1-5.1
			s-2.1-5.1-6.1-5.1h-6.5v10.2H1469.1z"/>
		<path class="st6" d="M1479.5,51.6c0-8.8,5.9-13,12.1-13c5.3,0,9.8,3.4,10.5,8h-2.5c-0.5-3.3-3.9-5.7-7.9-5.7
			c-5.6,0-9.6,3.8-9.6,10.8c0,6.9,3.9,10.8,9.6,10.8c4.2,0,7.6-2.4,7.9-5.7h2.5c-0.6,4.6-5.1,8-10.5,8
			C1485.4,64.7,1479.5,60.5,1479.5,51.6z"/>
		<path class="st6" d="M1505.1,38.9h7.2c7.2,0,12.6,4.8,12.6,12.7s-5.4,12.7-12.6,12.7h-7.2V38.9z M1512.4,62.1
			c5.2,0,9.9-3.2,9.9-10.5c0-7.3-4.8-10.5-9.9-10.5h-4.8v20.9H1512.4z"/>
		<path class="st6" d="M1528.1,38.9h15.5v2.3h-13.1V50h10.7v2.3h-10.7v9.8h13.5v2.3h-15.9V38.9z"/>
		<path class="st6" d="M1547,38.9h15.5v2.3h-13.1v9.2h10.7v2.3h-10.7v11.8h-2.4V38.9z"/>
		<path class="st6" d="M1562.4,51.6c0-8.7,5.9-13,12.1-13c5.7,0,10.2,3.4,10.9,8.1h-2.7c-0.6-3.4-4.1-5.8-8.2-5.8
			c-5.5,0-9.5,3.8-9.5,10.8s4,10.8,9.5,10.8c4.5,0,8.4-2.4,8.4-6.4c0-1.3-0.9-2.2-2.3-2.2h-6v-2.3h6.1c1.7,0,4.6,1.3,4.6,4.4v8.4
			h-2.3v-4.6c-1.3,2.9-4.6,4.9-8.5,4.9C1568.3,64.7,1562.4,60.3,1562.4,51.6z"/>
		<path class="st6" d="M1608.2,38.9v25.5h-2.4v-12h-14.3v12h-2.4V38.9h2.4v11.2h14.3V38.9H1608.2z"/>
		<path class="st6" d="M1612.9,38.9h2.4v25.5h-2.4V38.9z"/>
		<path class="st6" d="M1622.9,58.3V38.9h2.4v19.3c0,4-1.7,6.1-4.9,6.1h-3.3v-2.3h3.3C1622,62.1,1622.9,60.8,1622.9,58.3z"/>
		<path class="st6" d="M1629.9,64.4V38.9h2.5v12.5l12.4-12.5h3.1l-10.1,10.3l11.3,15.2h-2.8l-10.1-13.5l-3.8,3.8v9.7H1629.9z"/>
		<path class="st6" d="M1650.4,38.9h2.4v23.2h13.1v2.3h-15.5V38.9z"/>
		<path class="st6" d="M1667.8,38.9h3.5l8.7,22.3l8.7-22.3h3.5v25.5h-2.4V42.7l-8.5,21.7h-2.3l-8.5-21.7v21.7h-2.4V38.9z"/>
		<path class="st6" d="M1696.7,38.9h2.9l13.9,21.8V38.9h2.4v25.5h-2.9l-13.9-21.7v21.7h-2.4V38.9z"/>
		<path class="st6" d="M1436.7,78.5c0-7.5,5.2-13,12.3-13s12.4,5.5,12.4,13c0,7.5-5.3,13-12.4,13S1436.7,86,1436.7,78.5z M1449,89.3
			c5.6,0,9.8-4.6,9.8-10.8c0-6.2-4.2-10.8-9.8-10.8c-5.6,0-9.8,4.6-9.8,10.8C1439.2,84.7,1443.4,89.3,1449,89.3z"/>
		<path class="st6" d="M1464.6,65.8h9.3c4.9,0,8,3,8,7.4c0,4.4-3.1,7.4-8,7.4h-6.9v10.7h-2.4V65.8z M1474,78.3
			c3.9,0,5.3-2.4,5.3-5.1c0-2.7-1.4-5.1-5.3-5.1h-7v10.3H1474z"/>
		<path class="st6" d="M1503.2,98.7h-3.2c-3.9,0-6-1.7-6-5.6v-1.6c-6.5-0.6-11.2-5.9-11.2-13c0-7.5,5.2-13,12.3-13
			c7.1,0,12.4,5.5,12.4,13c0,7.1-4.7,12.4-11.2,13v1.6c0,2.7,1.1,3.5,3.7,3.5h3.2V98.7z M1495.2,89.3c5.6,0,9.8-4.6,9.8-10.8
			c0-6.2-4.2-10.8-9.8-10.8c-5.6,0-9.8,4.6-9.8,10.8C1485.4,84.7,1489.6,89.3,1495.2,89.3z"/>
		<path class="st6" d="M1510.7,65.8h9.3c4.9,0,8,2.9,8,7.3c0,2.9-1.7,4.9-4.2,6.1c2.1,1.1,3.3,3.2,3.5,5.9l0.4,6.1h-2.3l-0.4-6.1
			c-0.1-2.7-1.9-4.6-4.4-4.6h-7.5v10.7h-2.4V65.8z M1520.2,78.3c3.9,0,5.3-2.5,5.3-5.2c0-2.7-1.4-5.1-5.3-5.1h-7v10.3H1520.2z"/>
		<path class="st6" d="M1529.8,83h2.4c0.4,3.8,2.9,6.3,7.2,6.3c3.9,0,6.7-1.4,6.7-4.8c0-7-15.4-3.5-15.4-12.3c0-4,3.5-6.6,8.6-6.6
			c4.9,0,8.4,2.9,8.9,7.4h-2.4c-0.3-3.1-2.8-5.1-6.4-5.1c-3.8,0-6.1,1.7-6.1,4.4c0,6.9,15.5,2.9,15.5,12.3c0,4.6-4,7.1-9.3,7.1
			C1533.7,91.6,1530.2,88.2,1529.8,83z"/>
		<path class="st6" d="M1556.3,68.1h-8.3v-2.3h19.1v2.3h-8.3v23.2h-2.4V68.1z"/>
		<path class="st6" d="M1568.7,82.7V65.8h2.5v17.1c0,3.9,2.8,6.4,7,6.4c4.3,0,7-2.5,7-6.4V65.8h2.4v16.9c0,5.3-3.7,8.8-9.5,8.8
			S1568.7,88.1,1568.7,82.7z"/>
		<path class="st6" d="M1589.5,65.8h2.5l8.5,22.8l8.5-22.8h2.5l-9.7,25.5h-2.6L1589.5,65.8z"/>
		<path class="st6" d="M1611.3,65.8h2.5l6.7,21.7l6.8-21.7h2.2l6.8,21.7l6.7-21.7h2.5l-7.9,25.5h-2.5l-6.7-21.7l-6.7,21.7h-2.5
			L1611.3,65.8z"/>
		<path class="st6" d="M1653.4,78.3l-8-12.5h2.5l6.8,10.5l6.8-10.5h2.5l-8,12.5l8.3,12.9h-2.5l-7-10.9l-7.1,10.9h-2.5L1653.4,78.3z"
			/>
		<path class="st6" d="M1672.9,80.6l-9.1-14.8h2.9l7.5,12.4l7.4-12.4h2.9l-9.1,14.8v10.7h-2.4V80.6z"/>
		<path class="st6" d="M1683.9,89l16.1-20.9h-15.3v-2.3h18.1v2.3L1686.8,89h16.1v2.3h-19V89z"/>
		<path class="st6" d="M1437,112.9c0-3.5,2.9-5.7,7.5-5.7h4.4c0.8,0,1.1-0.3,1.1-0.9c0-2.8-2-4.7-5.4-4.7c-2.8,0-5.2,1.8-5.4,3.9
			h-2.3c0.4-3.5,3.9-6,7.7-6c4.8,0,7.7,2.7,7.7,6.8v11.8h-2.3v-3.3c-1.1,2.2-3.6,3.6-6.6,3.6C1439.5,118.5,1437,116.3,1437,112.9z
			 M1443.6,116.4c4,0,6.4-2.4,6.4-6.7v-0.5h-5.6c-3.1,0-5,1.5-5,3.8C1439.5,115,1441.1,116.4,1443.6,116.4z"/>
		<path class="st6" d="M1458.5,114.9v3.3h-2.3V92.4h2.3v10.7c1.1-2.1,3.7-3.6,6.4-3.6c5.8,0,8.9,4.2,8.9,9.5c0,5.2-3.1,9.5-8.9,9.5
			C1462.2,118.5,1459.6,117,1458.5,114.9z M1464.8,116.4c4,0,6.5-2.9,6.5-7.3c0-4.4-2.6-7.3-6.5-7.3c-4,0-6.5,2.9-6.5,7.3
			C1458.3,113.5,1460.8,116.4,1464.8,116.4z"/>
		<path class="st6" d="M1475.2,109c0-4.8,2.9-9.5,8.8-9.5c3.9,0,7.5,2.3,8.1,6.3h-2.3c-0.4-2.4-2.9-4.2-5.9-4.2
			c-4.4,0-6.4,3.4-6.4,7.3c0,4,2,7.3,6.4,7.3c3,0,5.2-1.5,5.9-3.9h2.2c-0.7,3.7-3.5,6-8.1,6C1478.2,118.5,1475.2,113.8,1475.2,109z"
			/>
		<path class="st6" d="M1493.4,109c0-5.2,3.1-9.5,8.9-9.5c2.7,0,5.2,1.5,6.4,3.6V92.4h2.3v25.7h-2.3v-3.3c-1.1,2.1-3.7,3.6-6.4,3.6
			C1496.4,118.5,1493.4,114.3,1493.4,109z M1502.3,116.4c4,0,6.5-2.9,6.5-7.3c0-4.4-2.6-7.3-6.5-7.3c-4,0-6.5,2.9-6.5,7.3
			C1495.8,113.5,1498.4,116.4,1502.3,116.4z"/>
		<path class="st6" d="M1513.7,108.9c0-5.6,3.5-9.3,8.7-9.3c5,0,8.4,3.4,8.4,8.5c0,0.3,0,0.9-0.1,1.2H1516c0.1,4.1,3,7.1,6.7,7.1
			c3.2,0,5.3-1.5,5.9-4h2.4c-0.6,3.7-3.7,6.1-8.3,6.1C1517.5,118.5,1513.7,114.3,1513.7,108.9z M1528.3,107.1
			c-0.3-3.4-2.5-5.5-6-5.5c-3.3,0-5.6,2-6.2,5.5H1528.3z"/>
		<path class="st6" d="M1534.9,102h-3.9v-2.1h3.9v-1.9c0-3.4,2.1-5.5,5.4-5.5h2.7v2.1h-2.8c-1.9,0-3.1,1.3-3.1,3.4v1.9h8v-1.9
			c0-3.4,2.1-5.5,5.4-5.5h2.7v2.1h-2.8c-1.9,0-3.1,1.3-3.1,3.4v1.9h5.8v2.1h-5.8v16.2h-2.3V102h-8v16.2h-2.3V102z"/>
		<path class="st6" d="M1555.3,123.5h8.5c2.6,0,4.4-1.9,4.4-4.6v-3.5c-0.8,1.8-3.5,3-6.4,3c-5.8,0-8.9-4.2-8.9-9.5
			c0-5.2,3.1-9.5,8.9-9.5c2.5,0,5.2,1.3,6.4,3.2v-2.9h2.3v19.1c0,3.9-2.8,6.7-6.7,6.7h-8.5V123.5z M1561.9,116.4
			c4,0,6.5-2.9,6.5-7.3c0-4.4-2.6-7.3-6.5-7.3c-4,0-6.5,2.9-6.5,7.3C1555.4,113.5,1557.9,116.4,1561.9,116.4z"/>
		<path class="st6" d="M1574.6,92.4h2.3v11.2c0.9-2.8,3.3-4.1,6.2-4.1c4.1,0,6.8,2.9,6.8,7.5v11.1h-2.3v-10.8c0-3.4-1.9-5.7-4.9-5.7
			c-3.4,0-5.9,2.8-5.9,6.7v9.9h-2.3V92.4z"/>
		<path class="st6" d="M1593.6,92.4h2.8v3.7h-2.8V92.4z M1593.8,99.9h2.3v18.3h-2.3V99.9z"/>
		<path class="st6" d="M1596,123.5h1.6c1.7,0,2.6-1.2,2.6-3.5V99.9h2.3V120c0,3.7-1.7,5.6-4.9,5.6h-1.6V123.5z M1600,92.4h2.8v3.7
			h-2.8V92.4z"/>
		<path class="st6" d="M1606.7,92.4h2.3V108l9.3-8.2h3.1l-8.1,7.1l8.8,11.2h-3l-7.6-9.6l-2.5,2.3v7.3h-2.3V92.4z"/>
		<path class="st6" d="M1623.3,92.4h2.3v25.7h-2.3V92.4z"/>
		<path class="st6" d="M1629.7,99.9h2.3v3.8c0.6-2.4,2.7-4.1,5.6-4.1c3.1,0,5.6,1.5,6.1,4.1c0.6-2.3,3.1-4.1,5.9-4.1
			c4,0,6.3,2.6,6.3,7.2v11.4h-2.3v-10.9c0-3.3-1.6-5.6-4.4-5.6c-3.3,0-5.3,2.3-5.3,5.6v10.9h-2.3v-10.9c0-3.3-1.6-5.6-4.4-5.6
			c-3.3,0-5.3,2.3-5.3,5.6v10.9h-2.3V99.9z"/>
		<path class="st6" d="M1659.9,99.9h2.3v3.8c0.9-2.8,3.3-4.1,6.2-4.1c4.1,0,6.8,2.9,6.8,7.5v11.1h-2.3v-10.8c0-3.4-1.9-5.7-4.9-5.7
			c-3.4,0-5.9,2.8-5.9,6.7v9.9h-2.3V99.9z"/>
		<path class="st6" d="M1436.6,135.9c0-5.5,3.9-9.5,9.2-9.5s9.2,3.9,9.2,9.5c0,5.5-3.9,9.5-9.2,9.5S1436.6,141.5,1436.6,135.9z
			 M1445.8,143.3c4.1,0,6.8-3.1,6.8-7.3c0-4.3-2.8-7.3-6.8-7.3c-4.1,0-6.8,3.1-6.8,7.3C1439,140.2,1441.7,143.3,1445.8,143.3z"/>
		<path class="st6" d="M1457.8,126.8h2.3v3.3c1.1-2.1,3.7-3.6,6.4-3.6c5.8,0,8.9,4.2,8.9,9.5c0,5.2-3.1,9.5-8.9,9.5
			c-2.7,0-5.2-1.5-6.4-3.6v10.7h-2.3V126.8z M1466.4,143.3c4,0,6.5-2.9,6.5-7.3c0-4.4-2.6-7.3-6.5-7.3s-6.5,2.9-6.5,7.3
			C1459.8,140.4,1462.4,143.3,1466.4,143.3z"/>
		<path class="st6" d="M1492.1,152.5v-10.7c-1.1,2.1-3.7,3.6-6.4,3.6c-5.8,0-8.9-4.2-8.9-9.5c0-5.2,3.1-9.5,8.9-9.5
			c2.7,0,5.2,1.5,6.4,3.6v-3.3h2.3v25.7H1492.1z M1485.8,143.3c4,0,6.5-2.9,6.5-7.3c0-4.4-2.6-7.3-6.5-7.3c-4,0-6.5,2.9-6.5,7.3
			C1479.2,140.4,1481.8,143.3,1485.8,143.3z"/>
		<path class="st6" d="M1500.8,137.3v7.8h-2.3v-18.3h2.3v3.9c0.7-2.5,2.3-3.9,5.1-3.9h2.4v2.1h-2.4
			C1501.9,128.9,1500.8,132.6,1500.8,137.3z"/>
		<path class="st6" d="M1508.1,139.3h2.3c0.3,2.6,2,4,4.9,4c2.5,0,4.2-1.5,4.2-3.1c0-6-10.9-0.7-10.9-8.7c0-3.1,2.5-5,6.5-5
			c3.9,0,6.5,2.2,6.8,5.5h-2.3c-0.3-2.6-2.9-3.4-4.6-3.4c-2.4,0-3.9,1.2-3.9,2.9c0,5.3,10.9,0.2,10.9,8.7c0,3.2-2.7,5.2-6.6,5.2
			C1511.1,145.4,1508.4,143.1,1508.1,139.3z"/>
		<path class="st6" d="M1528.4,120.8v6h8.7v-6h2.3v6h5.8v2.1h-5.8v10.7c0,2.1,1.2,3.4,3.1,3.4h2.8v2.1h-2.7c-3.3,0-5.4-2.1-5.4-5.5
			v-10.7h-8.7v10.7c0,2.1,1.2,3.4,3.1,3.4h2.8v2.1h-2.7c-3.3,0-5.4-2.1-5.4-5.5v-10.7h-3.9v-2.1h3.9v-6H1528.4z"/>
		<path class="st6" d="M1562.3,145.1h-2.3v-3.8c-0.9,2.8-3.3,4.1-6.2,4.1c-4.1,0-6.8-2.9-6.8-7.5v-11.1h2.3v10.8
			c0,3.4,1.9,5.7,4.9,5.7c3.4,0,5.9-2.8,5.9-6.7v-9.9h2.3V145.1z"/>
		<path class="st6" d="M1564.3,126.8h2.4l5.6,15.5l5.6-15.5h2.4l-6.7,18.3h-2.6L1564.3,126.8z"/>
		<path class="st6" d="M1580.4,126.8h2.3l4.3,15.5l4.9-15.5h2.3l4.8,15.5l4.3-15.5h2.3l-5.5,18.3h-2.3l-4.8-15.5l-4.8,15.5h-2.3
			L1580.4,126.8z"/>
		<path class="st6" d="M1605.3,145.1l6.7-9.7l-6.1-8.7h2.6l4.8,6.8l4.7-6.8h2.6l-6.1,8.7l6.7,9.7h-2.4l-5.5-7.9l-5.5,7.9H1605.3z"/>
		<path class="st6" d="M1627.5,145.5l-6.9-18.8h2.4l5.6,15.3l5.6-15.3h2.4l-6.1,16.6l-3.1,9.2h-2.2L1627.5,145.5z"/>
		<path class="st6" d="M1643.5,145.5l-6.9-18.8h2.4l5.6,15.3l5.6-15.3h2.4l-6.1,16.6l-3.1,9.2h-2.2L1643.5,145.5z"/>
		<path class="st6" d="M1652.9,143l11.9-14.1h-11.3v-2.1h14v2.1l-11.7,14.1h12.3v2.1h-15.1V143z"/>
		<path class="st6" d="M1437.3,180.3v-2.2c0-7.8,2.3-11.9,8.4-11.9h1.2c6.1,0,8.4,4.1,8.4,11.9v2.2c0,7.8-2.3,11.9-8.4,11.9h-1.2
			C1439.6,192.2,1437.3,188.1,1437.3,180.3z M1445.8,189.9h1.2c4.4,0,6-3.2,6-9.7v-2.2c0-6.4-1.6-9.7-6-9.7h-1.2c-4.4,0-6,3.2-6,9.7
			v2.2C1439.8,186.7,1441.4,189.9,1445.8,189.9z"/>
		<path class="st6" d="M1463.9,191.9h-2.4v-20.7c-0.4,0.5-1,0.8-2,0.8h-2.6v-2.3h2.1c1.5,0,2.3-0.7,2.4-3.3h2.4V191.9z"/>
		<path class="st6" d="M1475.8,166.2c4.6,0,8,2.9,8,7.5c0,3.3-2,6.1-5.9,8l-3.5,1.8c-2.3,1.2-4.9,3.4-4.9,6.2h14.5v2.3h-16.8v-1.7
			c0-4.7,3.6-7.6,6.3-8.9l3.8-2c3-1.5,4-3.4,4-5.7c0-3.1-2.4-5.2-5.5-5.2c-3.5,0-5.8,2.4-5.6,6.1h-2.5
			C1467.4,169.4,1470.7,166.2,1475.8,166.2z"/>
		<path class="st6" d="M1485.5,183.9h2.4c0,3.6,2.8,6,6.5,6c3.9,0,6.3-1.9,6.3-5.1c0-3.3-2.4-5-6.3-5h-1.9v-2.3h1.9
			c3.3,0,5.3-2,5.3-4.8c0-2.8-2.1-4.4-5.4-4.4c-3.2,0-5.2,1.9-5.4,5.1h-2.4c0.2-4.5,3.3-7.4,7.8-7.4c4.7,0,8,2.7,8,6.6
			c0,2.7-1.7,4.9-3.9,5.8c2.7,0.8,4.9,3.1,4.9,6.3c0,4.9-4.1,7.4-8.8,7.4C1489.4,192.2,1485.5,188.8,1485.5,183.9z"/>
		<path class="st6" d="M1518.6,185.2h-13.9v-2.3l13.3-16.5h3v16.5h4.3v2.3h-4.3v6.7h-2.4V185.2z M1518.6,182.9v-14l-11.2,14H1518.6z
			"/>
		<path class="st6" d="M1526.1,184.9h2.4c0.4,3.3,2.7,5.1,6,5.1c4.1,0,6.7-2.4,6.7-6.3c0-4-2.6-6.5-6.7-6.5c-3,0-5.3,1.2-6,3.3h-1.9
			l1.9-13.9h13.4v2.3h-11.5l-1.2,8.4c1.3-1.3,3.6-2.3,5.5-2.3c5.4,0,9.1,3.5,9.1,8.7c0,5.2-3.7,8.6-9.2,8.6
			C1530,192.2,1526.6,189.1,1526.1,184.9z"/>
		<path class="st6" d="M1563.8,183.5c0,5.1-3.7,8.7-9,8.7c-5.6,0-9.3-4.4-9.3-11.5c0-9.9,4.3-14.6,9.8-14.6c4.5,0,7.9,2.6,8.6,6.6
			h-2.5c-0.6-2.7-2.8-4.4-6-4.4c-4.4,0-7.2,4.8-7.5,10.8c1.1-2.6,4-4.3,7-4.3C1560,174.9,1563.8,178.5,1563.8,183.5z M1554.8,189.9
			c3.7,0,6.4-2.7,6.4-6.4c0-3.7-2.7-6.4-6.4-6.4c-3.7,0-6.4,2.7-6.4,6.4C1548.4,187.3,1551.1,189.9,1554.8,189.9z"/>
		<path class="st6" d="M1573.6,178.6l6-9.9h-15.4v-2.3h18.2v2l-7.1,12c-3.1,5.2-3.3,8.4-3.4,11.5h-2.4
			C1569.6,188.3,1570,184.5,1573.6,178.6z"/>
		<path class="st6" d="M1583,184.8c0-3.2,2.1-5.7,4.9-6.6c-2.1-0.9-3.9-2.8-3.9-5.4c0-3.9,3.2-6.6,7.9-6.6c4.7,0,7.9,2.7,7.9,6.6
			c0,2.7-1.8,4.5-3.9,5.4c2.7,0.8,4.9,3.4,4.9,6.6c0,4.9-4.1,7.4-8.9,7.4C1587.1,192.2,1583,189.7,1583,184.8z M1591.9,189.9
			c3.8,0,6.3-1.9,6.3-5.2c0-3.3-2.5-5.3-6.3-5.3c-3.8,0-6.3,2-6.3,5.3C1585.5,188,1588,189.9,1591.9,189.9z M1591.9,177.3
			c3.3,0,5.3-1.7,5.3-4.5c0-2.7-2.1-4.4-5.3-4.4c-3.3,0-5.3,1.6-5.3,4.4C1586.5,175.5,1588.6,177.3,1591.9,177.3z"/>
		<path class="st6" d="M1602.9,174.8c0-5.1,3.7-8.7,9-8.7c5.6,0,9.3,4.4,9.3,11.5c0,9.9-4.3,14.6-9.8,14.6c-4.5,0-7.9-2.6-8.6-6.6
			h2.5c0.6,2.7,2.8,4.4,6,4.4c4.4,0,7.2-4.8,7.5-10.8c-1.1,2.6-4,4.3-7,4.3C1606.6,183.5,1602.9,179.8,1602.9,174.8z M1611.9,181.2
			c3.7,0,6.4-2.7,6.4-6.4c0-3.7-2.7-6.4-6.4-6.4c-3.7,0-6.4,2.7-6.4,6.4C1605.4,178.6,1608.1,181.2,1611.9,181.2z"/>
		<path class="st6" d="M1444.4,227c-4.9-0.5-7.9-3.7-8.3-8.5h2.4c0.4,3.8,2.9,6.3,7.2,6.3c3.9,0,6.7-1.4,6.7-4.8
			c0-7-15.4-3.5-15.4-12.3c0-3.6,2.9-6.2,7.3-6.6V197h2.2v4.1c4.4,0.4,7.5,3.2,7.9,7.3h-2.4c-0.3-3.1-2.8-5.1-6.4-5.1
			c-3.8,0-6.1,1.7-6.1,4.4c0,6.9,15.5,2.9,15.5,12.3c0,4.3-3.6,6.8-8.4,7.1v4.1h-2.2V227z"/>
		<path class="st6" d="M1469.6,227.1h-1.2c-5.3,0-8-3.1-8.7-9.1h-3.1v-2.3h2.9v-0.6V213v-0.9h-2.9v-2.3h3.1c0.7-5.7,3.4-8.7,8.6-8.7
			h1.2c4.1,0,6.4,2.2,7.2,5.7h-2.6c-0.5-2.1-2.1-3.5-4.6-3.5h-1.2c-3.6,0-5.6,2.2-6.2,6.5h9.5v2.3h-9.7v0.9v2.2v0.6h9.7v2.3h-9.6
			c0.6,4.5,2.6,6.8,6.3,6.8h1.2c2.5,0,4.1-1.5,4.7-3.6h2.6C1476.1,224.9,1473.8,227.1,1469.6,227.1z"/>
		<path class="st6" d="M1482.8,217.4c0-0.8-0.1-1.5-0.4-2.3h-3.9v-2.3h3.1c-0.6-1.4-1.2-2.9-1.2-4.5c0-4.6,3.3-7.3,7.5-7.3
			c3.6,0,7.4,2.1,7.6,7.1h-2.4c-0.2-3.6-2.5-4.9-5.1-4.9c-2.8,0-5,1.7-5,5.1c0,1.6,0.6,3.1,1.2,4.5h7.6v2.3h-6.8
			c0.2,0.7,0.3,1.5,0.3,2.3c0,2.4-1.5,5-3.2,7.2h10.4c0.8,0,1.3-0.5,1.3-1.3v-2.7h2.4v2.6c0,2.4-1.3,3.6-3.6,3.6h-13.2v-2.3
			C1481.5,221.9,1482.8,220.1,1482.8,217.4z"/>
		<path class="st6" d="M1499.2,214h5.6l-7.8-12.6h2.9l7.5,12.4l7.4-12.4h2.9l-7.8,12.6h5.7v2.3h-7v3.7h7v2.3h-7v4.6h-2.4v-4.6h-6.9
			V220h6.9v-3.7h-6.9V214z"/>
		<path class="st6" d="M1547.3,213.2v3.3c0,4-1.9,6.7-5,6.7c-2.1,0-3.9-1.1-4.4-2.6c-0.7,1.6-2.8,2.7-5.5,2.7
			c-4.6,0-7.1-3.3-7.1-7.5s2.5-7.5,7.1-7.5c2,0,4.1,1.1,5.1,2.6v-2.4h2.2v10.4c0,1.3,1.1,2.3,2.5,2.3c1.8,0,2.9-1.9,2.9-4.7v-3.3
			c0-6-4.1-10.3-10.6-10.3h-2.6c-6.7,0-11.1,4.3-11.1,10.7v4.3c0,6.7,4.2,10.9,10.4,10.9h6.1v2h-6.1c-7.6,0-12.5-5-12.5-12.9v-4.3
			c0-7.7,5.2-12.7,13.2-12.7h2.6C1542.5,200.8,1547.3,205.9,1547.3,213.2z M1532.7,221.5c3.1,0,5.1-2.3,5.1-5.7s-2-5.7-5.1-5.7
			c-3.1,0-5.1,2.3-5.1,5.7S1529.6,221.5,1532.7,221.5z"/>
		<path class="st6" d="M1553.5,219h-4.7v-2h5.1l1.3-6h-4.8v-2h5.3l1.7-7.8h2.1l-1.7,7.8h6.4l1.7-7.8h2.1l-1.7,7.8h4.7v2h-5.1l-1.3,6
			h4.8v2h-5.3l-1.7,7.8h-2.1l1.7-7.8h-6.4l-1.7,7.8h-2.1L1553.5,219z M1562.5,217.1l1.3-6h-6.5l-1.3,6H1562.5z"/>
		<path class="st6" d="M1573.2,216.6c0-6.9,11.6-3.2,11.6-9c0-2.8-1.9-4.3-5.1-4.3c-3.1,0-5.5,1.8-5.6,4.9h-2.5
			c0.2-4.4,3.6-7.1,8.1-7.1c4.8,0,7.7,2.5,7.7,6.5c0,7.3-12,4.5-12,9.1c0,2.1,1.4,2.8,3.4,2.8h5.4v2.1h-5.3
			C1575.5,221.5,1573.2,220,1573.2,216.6z M1577.9,224h2.7v2.8h-2.7V224z"/>
		<path class="st6" d="M1602.3,219c0,6.9-11.6,3.2-11.6,9c0,2.8,1.9,4.3,5.1,4.3c3.1,0,5.5-1.8,5.6-4.9h2.5
			c-0.2,4.4-3.6,7.1-8.1,7.1c-4.8,0-7.7-2.5-7.7-6.5c0-7.3,12-4.5,12-9.1c0-2.1-1.4-2.8-3.4-2.8h-5.4v-2.1h5.3
			C1600,214.1,1602.3,215.6,1602.3,219z M1594.9,208.8h2.7v2.8h-2.7V208.8z"/>
		<path class="st6" d="M1605.9,201.4h3.1l-0.7,20.1h-1.6L1605.9,201.4z M1606.1,224h2.7v2.8h-2.7V224z"/>
		<path class="st6" d="M1613.3,214.1h1.6l0.7,20.1h-3.1L1613.3,214.1z M1612.8,208.8h2.7v2.8h-2.7V208.8z"/>
		<path class="st6" d="M1438,257.1h7V250h2v7.1h7.1v2h-7.1v7h-2v-7h-7V257.1z"/>
		<path class="st6" d="M1458.3,257.1h16.1v2h-16.1V257.1z"/>
		<path class="st6" d="M1479.9,263.2l5.5-5.5l-5.5-5.5l1.5-1.5l5.5,5.5l5.5-5.5l1.5,1.5l-5.5,5.5l5.4,5.5l-1.5,1.5l-5.5-5.5
			l-5.5,5.5L1479.9,263.2z"/>
		<path class="st6" d="M1499.1,257.1h16.1v2h-16.1V257.1z M1505.8,249.9h2.7v2.8h-2.7V249.9z M1505.8,263.5h2.7v2.8h-2.7V263.5z"/>
		<path class="st6" d="M1519.4,253.7h16.1v2h-16.1V253.7z M1519.4,261.9h16.1v2h-16.1V261.9z"/>
		<path class="st6" d="M1543.5,243.9c3.2,0,5.5,2.6,5.5,5.8c0,3.2-2.3,5.8-5.5,5.8c-3.2,0-5.5-2.6-5.5-5.8
			C1538,246.5,1540.3,243.9,1543.5,243.9z M1557.8,244.2h2.2l-18.5,25.5h-2.2L1557.8,244.2z M1543.5,253.7c2.1,0,3.5-1.7,3.5-4
			c0-2.3-1.3-4-3.5-4s-3.5,1.7-3.5,4C1540,252,1541.3,253.7,1543.5,253.7z M1555.9,258.3c3.2,0,5.5,2.6,5.5,5.8
			c0,3.2-2.3,5.8-5.5,5.8s-5.5-2.6-5.5-5.8C1550.4,260.9,1552.8,258.3,1555.9,258.3z M1555.9,268.1c2.1,0,3.5-1.7,3.5-4
			c0-2.3-1.3-4-3.5-4s-3.5,1.7-3.5,4C1552.4,266.4,1553.8,268.1,1555.9,268.1z"/>
		<path class="st6" d="M1562.7,262.9c0-3.7,2.7-5.5,5.5-7c-1.7-1.9-3.3-4.1-3.3-6.3c0-3.4,2.6-5.8,6.3-5.8c3.6,0,6.3,2.3,6.3,5.5
			c0,3.9-2.7,5.7-5.6,7.2l5.7,6.2l0.6-1.1c1.8-3.1,3.7-3.4,5.5-3.4v2.3c-1.6,0-2.9,0.7-3.6,2l-1,1.9l4.8,5.2h-2.7l-3.1-3.3
			c-2,2.8-5,3.6-7.4,3.6C1565.5,269.9,1562.7,267.3,1562.7,262.9z M1570.4,267.8c1.9,0,4.3-0.7,5.9-3.2l-6.5-7
			c-2.6,1.3-4.8,2.7-4.8,5.4C1564.9,266.1,1566.9,267.8,1570.4,267.8z M1570.2,254.9c2.6-1.3,4.8-2.8,4.8-5.4c0-2.1-1.6-3.7-3.9-3.7
			c-2.3,0-3.9,1.6-3.9,4C1567.2,251.6,1568.8,253.3,1570.2,254.9z"/>
		<path class="st6" d="M1599,242.7c7.9,0,14.2,6.3,14.2,14.2c0,7.9-6.3,14.2-14.2,14.2c-7.9,0-14.2-6.3-14.2-14.2
			C1584.8,249,1591.1,242.7,1599,242.7z M1599,269.3c6.8,0,12.2-5.5,12.3-12.4c0-6.9-5.4-12.4-12.3-12.4s-12.3,5.5-12.3,12.4
			C1586.8,263.9,1592.2,269.3,1599,269.3z M1591.7,256.7c0-5.3,3.6-7.8,7.4-7.8c3.4,0,6,2,6.5,5h-2c-0.4-2-2.1-3.2-4.4-3.2
			c-3.2,0-5.4,2.1-5.4,6.1c0,3.9,2.2,6.1,5.4,6.1c2.4,0,4.1-1.3,4.5-3.2h2c-0.4,2.9-3,5-6.5,5C1595.3,264.5,1591.7,262,1591.7,256.7
			z"/>
	</g>
	<g>
		<g>
			<path class="st6" d="M1278.6,303.8h10.8l20.3,53.3h-11.9l-4.2-11.7h-19.3l-4.2,11.7h-11.9L1278.6,303.8z M1277.9,335.8h12.4
				l-6.2-17.3L1277.9,335.8z"/>
			<path class="st6" d="M1311.4,303.8h21.2c9.7,0,16.9,4.8,16.9,13.7c0,5-3.1,8.8-6.2,10.5c4.9,1.9,8.9,6.2,8.9,13.2
				c0,10.1-7.7,15.9-19,15.9h-21.8V303.8z M1331.7,324.1c4.9,0,7.2-2.1,7.2-5.6c0-3.6-2.3-5.6-7.4-5.6h-8.8v11.3H1331.7z
				 M1332.2,347.2c6.3,0,9.1-2.3,9.1-6.6c0-4.3-2.8-6.8-9.1-6.8h-9.5v13.4H1332.2z"/>
			<path class="st6" d="M1353.5,330.4c0-18,12.5-27.3,26.8-27.3c13.3,0,23.2,7.6,24.7,19.1h-12c-0.8-5.6-5.9-9.3-12.7-9.3
				c-8.5,0-15.2,6-15.2,17.4c0,11.4,6.5,17.4,15.2,17.4c6.9,0,12.1-3.7,13-9.2h11.5c-1.1,11.4-10.9,19.1-24.4,19.1
				C1365.7,357.7,1353.5,348.4,1353.5,330.4z"/>
			<path class="st6" d="M1408.2,303.8h17.9c14.7,0,27.6,8.5,27.6,26.7c0,18.1-12.9,26.7-27.6,26.7h-17.9V303.8z M1425,347.2
				c8.8,0,17.1-4.2,17.1-16.8s-8.4-16.8-17.1-16.8h-5.3v33.6H1425z"/>
			<path class="st6" d="M1457.7,303.8h36.2v9.8h-24.8v11.3h19.8v9.9h-19.8v12.4h25.7v9.9h-37.1V303.8z"/>
			<path class="st6" d="M1498.7,303.8h36.2v9.8h-24.8v11.9h19.8v9.9h-19.8v21.7h-11.4V303.8z"/>
			<path class="st6" d="M1533.7,330.4c0-18.2,12.9-27.3,27-27.3c13.4,0,23,7.8,23.7,19.3h-11.3c-0.8-5.7-5.6-9.4-12.4-9.4
				c-9.1,0-16.1,6.4-16.1,17.4c0,11,7,18,15.8,18c6.6,0,13.2-4.8,13.2-9.7c0-1.3-0.8-2.1-2.1-2.1h-10.3v-8.6h14.5c5,0,8.6,4,8.6,8.6
				v20.6h-10.1v-8.1c-1.8,5.3-7.4,8.8-14.2,8.8C1546.3,357.7,1533.7,348.6,1533.7,330.4z"/>
			<path class="st6" d="M1634.3,303.8v53.3h-11.4v-22.3H1601v22.3h-11.4v-53.3h11.4v21.2h21.9v-21.2H1634.3z"/>
			<path class="st6" d="M1640.9,303.8h11.5v53.3h-11.5V303.8z"/>
			<path class="st6" d="M1665.3,340.6v-36.9h11.4v37.4c0,10.8-5.3,15.9-14.2,15.9h-7.8v-9.9h5.6
				C1664.1,347.2,1665.3,345.1,1665.3,340.6z"/>
			<path class="st6" d="M1683,357.1v-53.3h11.5V326l20.1-22.2h14.2l-19.2,21.1l21.1,32.2h-14.4l-14.5-23.7l-7.3,8v15.7H1683z"/>
			<path class="st6" d="M1731,303.8h11.5v43.4h24.1v9.9H1731V303.8z"/>
			<path class="st6" d="M1768.7,303.8h12.9l15.5,37.2l15.5-37.2h12.9v53.3h-10.7v-32.5l-13.6,32.5h-8.4l-13.6-32.5v32.5h-10.6V303.8
				z"/>
			<path class="st6" d="M1832,303.8h12.2l21.4,35.3v-35.3h11.4v53.3h-12.2l-21.4-35.3v35.3H1832V303.8z"/>
			<path class="st6" d="M1260.7,386.8c0-15.7,11.6-27.3,27.3-27.3c15.6,0,27.2,11.6,27.2,27.3c0,15.7-11.6,27.3-27.2,27.3
				C1272.3,414,1260.7,402.5,1260.7,386.8z M1287.9,404.1c9.1,0,15.8-7.4,15.8-17.4c0-10-6.6-17.4-15.8-17.4
				c-9.1,0-15.7,7.5-15.7,17.4C1272.2,396.8,1278.8,404.1,1287.9,404.1z"/>
			<path class="st6" d="M1319.1,360.1h21.9c11.4,0,18,7,18,16.8c0,9.7-6.6,16.8-18,16.8h-10.4v19.6h-11.5V360.1z M1340.4,384.3
				c5.3,0,7.5-3.4,7.5-7.3c0-3.9-2.3-7.3-7.5-7.3h-9.7v14.6H1340.4z"/>
			<path class="st6" d="M1403.4,429h-7.4c-10.1,0-14.5-3.7-14.5-12.6v-2.7c-13.2-2.1-22.4-12.9-22.4-26.9
				c0-15.7,11.6-27.3,27.3-27.3c15.6,0,27.2,11.6,27.2,27.3c0,13.9-9.1,24.6-22.1,26.8v2.2c0,3.6,1.5,4.9,5.2,4.9h6.8V429z
				 M1386.3,404.1c9.1,0,15.8-7.4,15.8-17.4c0-10-6.6-17.4-15.8-17.4s-15.7,7.5-15.7,17.4C1370.6,396.8,1377.2,404.1,1386.3,404.1z"
				/>
			<path class="st6" d="M1417.5,360.1h22.5c11.3,0,18,7,18,16.8c0,5.3-2.6,9-6.7,11.1c3.4,2.4,5.6,6.1,6.1,10.7l1.4,14.7h-11.4
				l-1.4-13.2c-0.4-3.7-3-6.2-6.5-6.2H1429v19.3h-11.5V360.1z M1439.3,384.3c5.3,0,7.6-3.5,7.6-7.4c0-3.8-2.3-7.2-7.6-7.2H1429v14.6
				H1439.3z"/>
			<path class="st6" d="M1460.5,395.3h11c0.5,5.4,4,8.8,9.7,8.8c5,0,8.5-2.1,8.5-6.2c0-10.4-27.6-2.4-27.6-23.4
				c0-8.8,7.6-15.1,18.5-15.1c11.5,0,19.2,6.6,19.5,16.8h-10.8c-0.5-4.2-3.7-6.9-8.7-6.9c-4.6,0-7.4,2.1-7.4,5.3
				c0,11.1,28,2.1,28,23.2c0,10-8.1,16.2-20,16.2C1469.1,414,1461,406.7,1460.5,395.3z"/>
			<path class="st6" d="M1515.1,370h-15.8v-9.8h43v9.8h-15.8v43.5h-11.5V370z"/>
			<path class="st6" d="M1543.9,393.8v-33.7h10.7v33.7c0,7,4.4,10.3,10.6,10.3c6.2,0,10.6-3.3,10.6-10.3v-33.7h10.7v33.7
				c0,13.5-8.7,20.3-21.2,20.3C1552.6,414,1543.9,407.3,1543.9,393.8z"/>
			<path class="st6" d="M1587.8,360.1h11.5l13.2,39l13.3-39h11.5l-19.2,53.3h-11L1587.8,360.1z"/>
			<path class="st6" d="M1634.5,360.1h11.7l10.2,36.5l10.9-36.5h9.7l11,36.5l10.3-36.5h11.5l-15.7,53.3h-11.3l-10.6-35.5l-10.6,35.5
				h-11.2L1634.5,360.1z"/>
			<path class="st6" d="M1723.2,386.8l-16.1-26.7h11.8l10.3,16.8l10.2-16.8h12l-16.1,26.7l16.2,26.7h-12.1l-10.1-16.8l-10.1,16.8
				H1707L1723.2,386.8z"/>
			<path class="st6" d="M1767,391.4l-18.1-31.2h12.3l11.7,20.6l11.7-20.6h12.3l-18.2,31.2v22.1H1767V391.4z"/>
			<path class="st6" d="M1794.4,403.7l28.3-33.8h-27v-9.7h39.8v9.7l-28.3,33.8h28.3v9.7h-41.1V403.7z"/>
			<path class="st6" d="M1260.8,458.9c0-7.5,5.6-12.1,14.1-12.1h6.4c1.9,0,2.9-1.2,2.9-2.8c0-3.2-2.4-5.4-6.8-5.4
				c-4.6,0-7.1,2.9-7.2,6.1h-9.4c0.4-7.7,6.6-13.9,17.1-13.9c9.7,0,16.8,5.6,16.8,14.3v24.7h-10.6v-5.3c-1.3,3.6-5.6,5.9-10.8,5.9
				C1266,470.4,1260.8,465.4,1260.8,458.9z M1276.1,462.7c5.1,0,8.1-3.8,8.1-8.7v-0.5h-7.7c-3.3,0-5.5,2-5.5,4.9
				C1271,461,1273.2,462.7,1276.1,462.7z"/>
			<path class="st6" d="M1309.8,465.6v4.2h-10.6v-55.1h10.6v20.7c2.1-2.8,5.9-4.6,10.7-4.6c11.1,0,18,7.8,18,19.8
				c0,12-6.9,19.8-18.1,19.8C1315.9,470.4,1311.9,468.6,1309.8,465.6z M1318.5,461.3c5.6,0,9.4-4.3,9.4-10.7
				c0-6.5-3.7-10.7-9.4-10.7c-5.6,0-9.4,4.3-9.4,10.7C1309.2,457,1312.9,461.3,1318.5,461.3z"/>
			<path class="st6" d="M1339.2,450.6c0-11.2,7.8-19.8,19.8-19.8c10.1,0,18,6.1,18.7,15h-10.7c-0.6-3.4-3.9-5.9-7.8-5.9
				c-5.8,0-9.1,4.5-9.1,10.7c0,6.2,3.4,10.7,9.2,10.7c3.9,0,6.9-2.4,7.8-5.8h10.7c-1.1,8.5-9.1,14.9-19,14.9
				C1347.1,470.4,1339.2,461.8,1339.2,450.6z"/>
			<path class="st6" d="M1378.3,450.6c0-12,6.8-19.8,18-19.8c4.8,0,8.5,1.8,10.7,4.6v-20.7h10.6v55.1h-10.6v-4.2
				c-2.1,3-6.1,4.8-10.5,4.8C1385.1,470.4,1378.3,462.6,1378.3,450.6z M1398.1,461.3c5.7,0,9.4-4.3,9.4-10.7
				c0-6.5-3.7-10.7-9.4-10.7c-5.6,0-9.4,4.3-9.4,10.7C1388.7,457,1392.5,461.3,1398.1,461.3z"/>
			<path class="st6" d="M1420.3,450.5c0-9.7,5.9-19.7,19-19.7c13.6,0,19,10,19,18.7c0,1.4-0.1,2.6-0.2,3.4h-27.6
				c0.8,5.4,4.2,8.8,9.5,8.8c4.3,0,7.1-1.7,7.9-4.9h10.4c-1.5,8.3-8.8,13.6-18.3,13.6C1427,470.4,1420.3,460.2,1420.3,450.5z
				 M1447.6,446.3c-0.3-4.3-3.3-7.7-8.4-7.7c-4.8,0-7.7,2.4-8.6,7.7H1447.6z"/>
			<path class="st6" d="M1464.7,440.2h-7.4v-8.8h7.4V428c0-8,5.7-13.3,14.4-13.3h7.2v8.8h-5.8c-3,0-5.1,2-5.1,5v2.8h10.9v8.8h-10.9
				v29.5h-10.7V440.2z"/>
			<path class="st6" d="M1491.6,440.2h-7.4v-8.8h7.4V428c0-8,5.7-13.3,14.4-13.3h7.2v8.8h-5.8c-3,0-5.1,2-5.1,5v2.8h10.9v8.8h-10.9
				v29.5h-10.7V440.2z"/>
			<path class="st6" d="M1516.7,477h17.7c3.3,0,5.6-2.6,5.6-6.1v-5c-2,2.8-6,4.5-10.5,4.5c-11.3,0-18.1-7.8-18.1-19.8
				c0-12,6.8-19.8,18-19.8c4.7,0,8.5,1.8,10.7,4.4v-3.8h10.6v40.7c0,7.9-5.7,13.3-14.4,13.3h-19.4V477z M1531.1,461.3
				c5.8,0,9.4-4.2,9.4-10.7s-3.7-10.7-9.4-10.7c-5.6,0-9.4,4.3-9.4,10.7S1525.5,461.3,1531.1,461.3z"/>
			<path class="st6" d="M1555.4,414.7h10.6v22c2.1-3.7,6.4-5.9,11.7-5.9c8.6,0,14.2,6.2,14.2,15.1v23.9h-10.7v-21.6c0-4.6-3-8-7.4-8
				c-4.6,0-7.9,3.6-7.9,8.5v21h-10.6V414.7z"/>
			<path class="st6" d="M1596.1,414.7h11.3v11.2h-11.3V414.7z M1596.4,431.4h10.6v38.4h-10.6V431.4z"/>
			<path class="st6" d="M1604.7,477h2.5c2.8,0,4.6-2.1,4.6-5.6v-40.1h10.6v41.2c0,7.9-5.2,12.7-13.5,12.7h-4.3V477z M1611.6,414.7
				h11.3v11.2h-11.3V414.7z"/>
			<path class="st6" d="M1627.3,414.7h10.7v29.7l13.3-13h13.4l-15.3,15.1l16.5,23.3h-12.8l-10.9-16.2l-4.3,4.2v12h-10.7V414.7z"/>
			<path class="st6" d="M1665.4,414.7h10.6v55.1h-10.6V414.7z"/>
			<path class="st6" d="M1680.8,431.4h10.6v5.4c2.1-3.5,5.7-6,10.9-6c6,0,9.9,2.4,11.7,7c1.9-3.7,6.7-7,12.9-7
				c8.3,0,13.7,6.2,13.7,13.9v25.1H1730V448c0-4.9-2.7-8.2-6.8-8.2c-4.4,0-7.2,3.3-7.2,8.2v21.8h-10.6V448c0-4.9-2.7-8.2-6.8-8.2
				c-4.4,0-7.2,3.3-7.2,8.2v21.8h-10.6V431.4z"/>
			<path class="st6" d="M1745,431.4h10.6v5.3c2.1-3.7,6.4-5.9,11.7-5.9c8.6,0,14.2,6.2,14.2,15.1v23.9h-10.7v-21.6c0-4.6-3-8-7.4-8
				c-4.6,0-7.9,3.6-7.9,8.5v21H1745V431.4z"/>
			<path class="st6" d="M1260.3,506.9c0-11.4,8.5-19.8,20.3-19.8c11.8,0,20.3,8.4,20.3,19.8s-8.5,19.8-20.3,19.8
				C1268.7,526.7,1260.3,518.4,1260.3,506.9z M1280.5,517.6c5.7,0,9.6-4.3,9.6-10.7c0-6.4-3.9-10.7-9.6-10.7
				c-5.7,0-9.6,4.3-9.6,10.7C1270.9,513.3,1274.8,517.6,1280.5,517.6z"/>
			<path class="st6" d="M1303.5,487.8h10.6v4.2c2.3-3,6-4.8,11-4.8c10.8,0,17.7,7.8,17.7,19.8c0,12-7.5,19.8-18.5,19.8
				c-4.3,0-8.1-1.4-10.1-4v19h-10.6V487.8z M1322.9,517.6c5.6,0,9.4-4.3,9.4-10.7c0-6.5-3.7-10.7-9.4-10.7c-5.6,0-9.4,4.3-9.4,10.7
				C1313.5,513.3,1317.2,517.6,1322.9,517.6z"/>
			<path class="st6" d="M1372.3,541.7v-19c-2.1,2.6-5.8,4-10.1,4c-11,0-18.5-7.8-18.5-19.8c0-12,6.9-19.8,17.6-19.8
				c4.9,0,8.8,1.8,11,4.8v-4.2h10.6v53.9H1372.3z M1363.5,517.6c5.7,0,9.4-4.3,9.4-10.7c0-6.5-3.7-10.7-9.4-10.7
				c-5.6,0-9.4,4.3-9.4,10.7C1354.1,513.3,1357.9,517.6,1363.5,517.6z"/>
			<path class="st6" d="M1398.3,507.5v18.7h-10.6v-38.4h10.6v6.4c2.1-4.8,4.9-6.4,9.7-6.4h4.3v8.8h-6.3
				C1400.7,496.6,1398.3,500.9,1398.3,507.5z"/>
			<path class="st6" d="M1410.4,513.2h9.1c0.5,3.4,3.1,5.6,7,5.6c3.4,0,5.6-1.6,5.6-3.7c0-7.8-20.6-0.2-20.6-16.3
				c0-6.8,5.9-11.6,13.8-11.6c9.2,0,15.5,4.9,15.8,12.5h-9.1c-0.5-3.3-3.5-5-6.3-5c-3,0-5,1.3-5,3.7c0,7.8,20.9-1.1,20.9,16.3
				c0,7.3-5.9,12.1-14.9,12.1C1417.2,526.7,1410.9,521.5,1410.4,513.2z"/>
			<path class="st6" d="M1458.4,476.4v11.3h10.3v8.8h-10.3v15.2c0,3.7,1.9,5.5,5.3,5.5h4.9v8.9h-6.3c-8.8,0-14.6-5-14.6-13.9v-15.6
				h-7.3v-8.8h7.3v-11.3H1458.4z"/>
			<path class="st6" d="M1485.5,476.4v11.3h10.3v8.8h-10.3v15.2c0,3.7,1.9,5.5,5.3,5.5h4.9v8.9h-6.3c-8.8,0-14.6-5-14.6-13.9v-15.6
				h-7.3v-8.8h7.3v-11.3H1485.5z"/>
			<path class="st6" d="M1534.3,526.1h-10.6v-5.3c-2.1,3.7-6.4,5.9-11.7,5.9c-8.6,0-14.2-6.3-14.2-15.1v-23.9h10.7v21.6
				c0,4.6,3,8,7.4,8c4.6,0,7.9-3.7,7.9-8.5v-21h10.6V526.1z"/>
			<path class="st6" d="M1535.3,487.8h10.8l8.1,24.8l8-24.8h10.9l-14.1,38.4h-9.7L1535.3,487.8z"/>
			<path class="st6" d="M1570.3,487.8h10.7l6.5,23.7l6.8-23.7h9.7l6.8,23.7l6.5-23.7h10.7l-12.5,38.4h-9.3l-6.9-23.9l-7.1,23.9h-9.3
				L1570.3,487.8z"/>
			<path class="st6" d="M1624.2,526.1l13.9-20l-12.9-18.4h11.7l7,10.1l6.9-10.1h11.7l-12.9,18.4l13.9,20h-11.3l-8.2-11.8l-8.3,11.8
				H1624.2z"/>
			<path class="st6" d="M1673.7,525.8l-13.9-38h10.8l8.1,24.7l8-24.7h10.9l-11.5,31.4l-7.9,22.5H1668L1673.7,525.8z"/>
			<path class="st6" d="M1708.6,525.8l-13.9-38h10.8l8.1,24.7l8-24.7h10.9l-11.5,31.4l-7.9,22.5h-10.1L1708.6,525.8z"/>
			<path class="st6" d="M1730.7,517.2l20.1-20.6H1732v-8.8h30.9v8.8l-19.9,20.6h21v8.9h-33.4V517.2z"/>
			<path class="st6" d="M1261.3,598.9v-3.4c0-16.3,6.5-25.5,19.8-25.5h3.1c13.5,0,19.9,9.3,19.9,25.5v3.4c0,16.3-6.4,25.6-19.9,25.6
				h-3.1C1267.8,624.4,1261.3,615.2,1261.3,598.9z M1281.8,614.5h2.1c5.1,0,8.8-4,8.8-12.3V592c0-8.2-3.7-12.3-8.8-12.3h-2.1
				c-5.1,0-8.9,4-8.9,12.3v10.3C1272.8,610.5,1276.7,614.5,1281.8,614.5z"/>
			<path class="st6" d="M1327.1,623.8h-11.5v-38c-1,1.4-4.6,2.1-6.9,2.1h-3.8v-9.8h3.6c4.5,0,7.1-1.8,7.8-7.6h10.8V623.8z"/>
			<path class="st6" d="M1350.8,569.9c11.4,0,19.2,6.6,19.2,16.8c0,7.2-4.3,12.9-12.8,17.1l-8.4,4.3c-2.7,1.4-5.8,3.4-5.8,5.9h26.8
				v9.9h-38.1l-0.1-8.5c-0.1-8.3,7.1-13.8,12-16.2l8.7-4.3c3.8-1.8,6.1-4.6,6.1-8.1c0-4.5-2.9-7.5-7.7-7.5c-5.2,0-8,4.2-7.8,10.3
				h-11.5C1331.3,577.3,1338.9,569.9,1350.8,569.9z"/>
			<path class="st6" d="M1371.6,607h11c0,5,4.1,7.5,9,7.5c5.3,0,8.7-2.6,8.7-6.9c0-4.1-3.4-6.6-8.7-6.6h-5v-9.4h4.8
				c4.2,0,6.9-2.5,6.9-6.1c0-3.6-3-5.9-7.5-5.9c-4.3,0-7.5,2.1-7.5,7.1h-10.8c0.1-10.7,8.9-16.9,18.6-16.9
				c10.5,0,18.4,6.5,18.4,14.5c0,4.9-2.5,9.2-6.3,11.3c5.2,1.9,8.5,6.5,8.5,12.3c0,10.4-9.3,16.4-20,16.4
				C1380.6,624.4,1371.6,618,1371.6,607z"/>
			<path class="st6" d="M1439.2,613.3h-26.8v-9.8l26-33h12.3v33h6.2v9.8h-6.2v10.5h-11.5V613.3z M1439.2,603.5v-19l-15.5,19H1439.2z
				"/>
			<path class="st6" d="M1457.7,607.9h10.8c0.6,4.2,3.6,6.6,8.2,6.6c5.3,0,8.9-3.4,8.9-8.5c0-5.3-3.6-8.8-8.8-8.8
				c-4,0-6.6,1.4-8.2,4.1h-10l4.4-30.8h30.5v9.8h-21.9l-1.7,10.4c1.9-1.5,4.8-2.9,9.2-2.9c10.4,0,18,7.9,18,18.2
				c0,10.7-8.8,18.4-20.4,18.4C1466.3,624.4,1458.2,617.3,1457.7,607.9z"/>
			<path class="st6" d="M1539.7,606.2c0,10.3-8.8,18.2-20,18.2c-13.8,0-21-11.3-21-25.7c0-18,8.7-28.8,21.8-28.8
				c11.4,0,19,6.9,20,15.5h-10.6c-0.7-3.5-4.2-6.1-9-6.1c-6.5,0-11.1,6.2-11.5,14.5c2.1-3.3,7.2-5.6,11.7-5.6
				C1532.4,588.3,1539.7,596.1,1539.7,606.2z M1520,614.5c5,0,8.2-3.4,8.2-8.3c0-4.8-3.3-8.2-8.2-8.2c-5.1,0-8.5,3.4-8.5,8.2
				C1511.6,611.2,1514.9,614.5,1520,614.5z"/>
			<path class="st6" d="M1556.1,597.6l10.9-17.2h-26.9v-9.8h39.6v8.9l-13.7,21.2c-4.6,7.2-5.9,13.7-5.9,23.2h-11.4
				C1548.6,613.9,1550.4,606.5,1556.1,597.6z"/>
			<path class="st6" d="M1579.3,608.1c0-6.2,3.7-10.7,8.7-12.9c-3.7-2.4-6.3-6.2-6.3-10.8c0-8.4,7.4-14.4,17.9-14.4
				c10.5,0,17.9,6,17.9,14.4c0,4.6-2.7,8.4-6.5,10.8c5.3,2.3,8.8,6.8,8.8,12.9c0,9.8-8.7,16.4-20.2,16.4
				C1587.9,624.4,1579.3,617.9,1579.3,608.1z M1599.5,614.6c5.5,0,8.9-2.6,8.9-6.9c0-4.3-3.4-6.9-8.9-6.9s-9.1,2.7-9.1,6.9
				C1590.4,612,1594,614.6,1599.5,614.6z M1599.5,590.6c4.4,0,7.3-2.2,7.3-5.8c0-3.5-2.9-5.8-7.3-5.8c-4.5,0-7.3,2.3-7.3,5.8
				C1592.2,588.4,1595,590.6,1599.5,590.6z"/>
			<path class="st6" d="M1621.9,588.1c0-10.3,8.8-18.2,20-18.2c13.8,0,21,11.3,21,25.7c0,18-8.7,28.8-21.8,28.8
				c-11.4,0-19-6.9-20-15.5h10.6c0.7,3.5,4.2,6.1,9,6.1c6.5,0,11.1-6.2,11.5-14.5c-2.1,3.3-7.2,5.6-11.7,5.6
				C1629.3,606.1,1621.9,598.2,1621.9,588.1z M1641.6,596.3c5.1,0,8.5-3.4,8.5-8.2c0-5-3.4-8.3-8.5-8.3c-4.9,0-8.2,3.4-8.2,8.3
				C1633.4,592.9,1636.7,596.3,1641.6,596.3z"/>
			<path class="st6" d="M1276.4,680.4c-9.6-1.6-15.8-8.5-16.1-18.4h11c0.5,5.4,4,8.8,9.7,8.8c5,0,8.5-2.1,8.5-6.2
				c0-10.4-27.6-2.4-27.6-23.4c0-7.8,5.9-13.5,14.6-14.8v-7h9.8v7.4c8.1,1.9,13.3,7.8,13.6,16.1H1289c-0.5-4.2-3.7-6.9-8.7-6.9
				c-4.6,0-7.4,2.1-7.4,5.3c0,11.1,28,2.1,28,23.2c0,8.5-5.8,14.2-14.7,15.8v7.8l-9.8-0.1V680.4z"/>
			<path class="st6" d="M1334.8,680.8h-3.8c-11.7,0-18.5-6.2-20.6-17.4h-7.1v-7.2h6.4v-1.1v-3.4v-1.1h-6.4v-7.2h7.1
				c2.1-11.1,9-17.2,20.6-17.2h3.8c10.5,0,17.8,6.3,18.8,15.8h-11.5c-0.8-3.6-3.7-6-7.8-6h-2.8c-5.3,0-8.6,2.7-9.8,7.4h14.5v7.2
				H1321v5.6h15.2v7.2h-14.6c1.2,4.8,4.6,7.5,9.9,7.5h2.8c4.3,0,7.3-2.6,8-6.5h11.4C1352.8,674.2,1345.5,680.8,1334.8,680.8z"/>
			<path class="st6" d="M1364.1,658.6c0-0.3,0-0.5-0.1-0.8h-8.8V649h5.5c-0.8-2.1-1.5-4.2-1.5-6.5c0-9.9,7.2-16.2,18.1-16.2
				c11.3,0,17.8,7,18.7,16.4h-11.5c-0.3-4.3-3.3-6.5-7.2-6.5c-4,0-6.9,2.6-6.9,7c0,2.3,0.7,4.2,1.6,5.9h16.7v8.7h-13.2v0.8
				c0,4.3-2.2,8.8-5,11.7h13.3c1.7,0,2.7-1,2.7-2.7v-2.9h11.4v5.3c0,6.6-3.6,10.2-10.1,10.2h-30.8V671
				C1362.5,668.2,1364.1,663.6,1364.1,658.6z"/>
			<path class="st6" d="M1401.9,651.1h9.4l-14.1-24.2h12.3l11.7,20.6l11.7-20.6h12.3l-14.1,24.2h9.4v7.2h-13.6v5.6h13.6v7.2h-13.6
				v9.1h-11.5v-9.1h-13.5v-7.2h13.5v-5.6h-13.5V651.1z"/>
			<path class="st6" d="M1509.5,650.3v5.5c0,10.3-4.9,16.7-12.6,16.7c-5.1,0-9.4-2-10.4-5.2c-1.2,3-4.4,5.6-10.7,5.6
				c-9.1,0-14.5-6.2-14.5-15.8c0.1-9.5,5.5-15.8,14.4-15.8c3.7,0,6.8,1.4,8.5,3.5v-3h8.6v18.4c0,2.1,1.8,3.6,3.8,3.6
				c2.6,0,4.1-2,4.1-8v-5.5c0-9.7-7.4-16.8-17.8-16.8h-9.7c-10.8,0-18.6,7.4-18.6,17.6v10.4c0,11.3,7.6,19.3,18.2,19.3h19v8.7h-19
				c-15.8,0.1-27.2-11.6-27.2-28v-10.4c0-15.3,11.5-26.3,27.6-26.3h9.7C1498.4,624.8,1509.5,635.5,1509.5,650.3z M1477.1,665.5
				c4.5,0,7.4-3.4,7.4-8.5c0-5-2.9-8.4-7.4-8.4c-4.4,0-7.5,3.4-7.5,8.4C1469.6,662.1,1472.7,665.6,1477.1,665.5z"/>
			<path class="st6" d="M1519.8,665.6h-9.1v-7.8h10.7l2-8.7h-9.4v-7.8h11l3.1-14.5h8.1l-3.1,14.5h9.1l3.2-14.5h8.1l-3.2,14.5h9.1
				v7.8h-10.7l-2,8.7h9.4v7.8h-11l-3.2,14.5h-8l3.2-14.5h-9.2l-3.2,14.5h-8.1L1519.8,665.6z M1538.5,657.9l2.1-8.7h-9.2l-1.9,8.7
				H1538.5z"/>
			<path class="st6" d="M1563,655.2c0-14.2,19.6-8.6,19.6-15.8c0-2.9-2.4-4.6-6.3-4.6c-4.5,0-7.3,2.7-7.5,7.2h-9.8
				c0.2-9.5,7.2-15.7,17.3-15.7c9.8,0,16.8,5.3,16.8,13.6c0,14.6-19.7,10.1-19.7,14.9c0,1.5,1.1,2.1,2.8,2.1h9.1v8.1h-10.4
				C1567.9,665,1563,661.6,1563,655.2z M1570,669.2h11.4v11H1570V669.2z"/>
			<path class="st6" d="M1621.9,667.4c0,14.2-19.6,8.6-19.6,15.8c0,2.9,2.4,4.6,6.3,4.6c4.5,0,7.3-2.7,7.5-7.2h9.8
				c-0.2,9.5-7.2,15.7-17.3,15.7c-9.8,0-16.8-5.3-16.8-13.6c0-14.6,19.7-10.1,19.7-14.9c0-1.5-1.1-2.1-2.8-2.1h-9.1v-8.1h10.4
				C1617,657.6,1621.9,661,1621.9,667.4z M1603.5,642.4h11.4v11h-11.4V642.4z"/>
			<path class="st6" d="M1627.2,626.9h13.5L1638,665h-8.4L1627.2,626.9z M1628.2,669.2h11.4v11h-11.4V669.2z"/>
			<path class="st6" d="M1646.4,657.5h8.4l2.5,38.2h-13.5L1646.4,657.5z M1644.9,642.4h11.4v11h-11.4V642.4z"/>
			<path class="st6" d="M1263.2,764.2h15.4v-15.4h9.1v15.4h15.4v9.1h-15.4v15.4h-9.1v-15.4h-15.4V764.2z"/>
			<path class="st6" d="M1309.4,764.2h39.8v9.1h-39.8V764.2z"/>
			<path class="st6" d="M1357.1,778.8l12-12l-12-11.9l6.5-6.5l12,11.9l11.9-11.9l6.5,6.5l-11.9,11.9l11.9,12l-6.5,6.5l-11.9-12
				l-12,12L1357.1,778.8z"/>
			<path class="st6" d="M1401.8,764.2h39.8v9.1h-39.8V764.2z M1416.1,746.3h11.4v11h-11.4V746.3z M1416.1,780.2h11.4v11h-11.4V780.2
				z"/>
			<path class="st6" d="M1448.1,757.2h39.8v9.1h-39.8V757.2z M1448.1,774.2h39.8v9.1h-39.8V774.2z"/>
			<path class="st6" d="M1502.7,739c6.9,0,11.7,5.3,11.7,12.2c0,6.9-4.7,12.2-11.7,12.2c-6.9,0-11.7-5.3-11.7-12.2
				C1491,744.3,1495.8,739,1502.7,739z M1530.6,739.6h9.4l-38.7,53.3h-9.4L1530.6,739.6z M1502.7,756.6c2.7,0,4.5-2.3,4.5-5.5
				c0-3.2-1.8-5.5-4.5-5.5c-2.6,0-4.3,2.3-4.3,5.5C1498.3,754.3,1500.1,756.6,1502.7,756.6z M1529.2,769.1c6.9,0,11.7,5.3,11.7,12.2
				c0,6.9-4.7,12.2-11.7,12.2c-6.9,0-11.7-5.3-11.7-12.2C1517.6,774.5,1522.4,769.1,1529.2,769.1z M1529.2,786.8
				c2.7,0,4.5-2.3,4.5-5.5s-1.8-5.5-4.5-5.5c-2.6,0-4.3,2.3-4.3,5.5S1526.6,786.8,1529.2,786.8z"/>
			<path class="st6" d="M1541.6,777.4c0-7.5,4.5-11.4,9.7-14.1c-2.7-3.4-4.6-6.9-4.6-10.4c0-8.4,5.8-13.9,14.5-13.9
				c8.7,0,14.4,5.6,14.4,13.8c0,7.6-4.8,11.2-10.1,13.9l8.1,8.8l4.5-5.3c3.1-4.1,6-5,10.4-5v9.8c-3.3,0-5.6,2.6-7.2,4.7l-1.8,2.4
				l9.9,10.9h-11.6l-4-4.5c-4,3.4-8.6,5.1-14.2,5.1C1549.2,793.5,1541.6,787.5,1541.6,777.4z M1559.7,784.2c2.5,0,5.3-0.8,7.9-2.6
				l-10.2-11.3c-3.3,1.8-5.6,3.7-5.6,7.2C1551.8,781.6,1554.7,784.2,1559.7,784.2z M1559.4,759.7c4-1.8,7.2-3.8,7.2-7.5
				c0-3.1-2.2-5.2-5.4-5.2c-3.2,0-5.3,2.1-5.3,5.4C1555.8,754.7,1557.6,757.4,1559.4,759.7z"/>
			<path class="st6" d="M1619.9,736.5c17.1,0,29.7,12.6,29.7,29.7c0,17.1-12.6,29.7-29.7,29.7c-17.1,0-29.7-12.6-29.7-29.7
				C1590.2,749.1,1602.8,736.5,1619.9,736.5z M1619.9,790.2c13.7,0,23.8-10.1,23.8-24c0-13.9-10.1-24.1-23.8-24.1
				c-13.7,0-23.8,10.2-23.8,24.1C1596.1,780.1,1606.2,790.2,1619.9,790.2z M1603.7,766.1c0-10.7,7.5-16.4,16.2-16.4
				c8,0,14.2,4.5,15.2,11.8h-8c-0.5-3.2-3.4-5.3-7.2-5.3c-4.8,0-8.6,3.4-8.6,9.8c0,6.5,3.8,9.9,8.6,9.9c3.9,0,6.8-2.1,7.4-5.3h7.5
				c-0.6,7.1-6.5,11.7-14.9,11.7C1611.1,782.4,1603.7,776.9,1603.7,766.1z"/>
		</g>
	</g>
	<g class="st11">
		<path class="st6" d="M416.4,174.7h-95.7V155l92.2-114.4h25.5V155h27.8v19.7h-27.8v44.7h-22V174.7z M416.7,155V64.7L343.9,155
			H416.7z"/>
		<path class="st6" d="M475.6,137.2v-14.3c0-54.6,17.6-84.2,60.8-84.2h8.9c43.7,0,61,29.6,61,84.2v14.3c0,54.6-17.4,84.2-61,84.2
			h-8.9C493.3,221.4,475.6,191.8,475.6,137.2z M537.2,201.8h7.9c27.8,0,39.6-20.7,39.6-62v-19.4c0-41.4-11.7-62-39.6-62h-7.9
			c-27.8,0-39.6,20.7-39.6,62v19.4C497.6,181.1,509.3,201.8,537.2,201.8z"/>
		<path class="st6" d="M624.5,137.2v-14.3c0-54.6,17.6-84.2,60.8-84.2h8.9c43.7,0,61,29.6,61,84.2v14.3c0,54.6-17.4,84.2-61,84.2
			h-8.9C642.1,221.4,624.5,191.8,624.5,137.2z M686,201.8h7.9c27.8,0,39.6-20.7,39.6-62v-19.4c0-41.4-11.7-62-39.6-62H686
			c-27.8,0-39.6,20.7-39.6,62v19.4C646.4,181.1,658.2,201.8,686,201.8z"/>
	</g>
	<g class="st11">
		<path class="st6" d="M921.9,791l93-146.9H785.3v-83.9h338.1v76.1l-117,181.4c-39,61.1-50.1,117-50.7,197.7h-97.5
			C858.1,930.8,873.1,867.7,921.9,791z"/>
		<path class="st6" d="M1124.7,802.1v-29.3c0-139.1,55.3-217.8,169-217.8h26.7c115.1,0,169.7,79.3,169.7,217.8v29.3
			c0,139.1-54.6,218.5-169.7,218.5h-26.7C1180,1020.5,1124.7,941.2,1124.7,802.1z M1299,936h17.6c43.6,0,75.4-34.5,75.4-104.7v-87.8
			c0-70.2-31.9-104.7-75.4-104.7H1299c-43.6,0-76.1,34.5-76.1,104.7v87.8C1222.9,901.5,1255.4,936,1299,936z"/>
		<path class="st6" d="M1513.5,802.1v-29.3c0-139.1,55.3-217.8,169-217.8h26.7c115.1,0,169.7,79.3,169.7,217.8v29.3
			c0,139.1-54.6,218.5-169.7,218.5h-26.7C1568.8,1020.5,1513.5,941.2,1513.5,802.1z M1687.8,936h17.6c43.6,0,75.4-34.5,75.4-104.7
			v-87.8c0-70.2-31.9-104.7-75.4-104.7h-17.6c-43.6,0-76.1,34.5-76.1,104.7v87.8C1611.7,901.5,1644.2,936,1687.8,936z"/>
	</g>
	<g class="st11">
		<path class="st6" d="M1638.7,239.2h10.3c0,15.1,11.8,25.4,27.7,25.4c16.3,0,26.6-7.8,26.6-21.7c0-13.8-10.3-21.1-26.6-21.1h-8.2
			v-9.5h8.2c14,0,22.3-8.6,22.3-20.3s-8.9-18.5-22.9-18.5c-13.4,0-21.8,8-22.8,21.7h-10.2c0.9-18.9,13.8-31.2,32.9-31.2
			c19.7,0,33.7,11.5,33.7,28c0,11.2-7.4,20.6-16.3,24.5c11.5,3.5,20.6,13.1,20.6,26.5c0,20.6-17.5,31.2-37.4,31.2
			C1655.4,274.2,1638.7,259.9,1638.7,239.2z"/>
		<path class="st6" d="M1719.5,223.7v-9.2c0-32.9,9.8-50.5,35.7-50.5h5.1c26,0,35.7,17.5,35.7,50.5v9.2c0,32.9-9.7,50.5-35.7,50.5
			h-5.1C1729.3,274.2,1719.5,256.6,1719.5,223.7z M1755.3,264.6h4.9c18.6,0,25.5-13.7,25.5-40.9v-9.2c0-27.2-6.9-40.9-25.5-40.9
			h-4.9c-18.6,0-25.5,13.7-25.5,40.9v9.2C1729.8,250.9,1736.7,264.6,1755.3,264.6z"/>
		<path class="st6" d="M1802.5,223.7v-9.2c0-32.9,9.8-50.5,35.7-50.5h5.1c26,0,35.7,17.5,35.7,50.5v9.2c0,32.9-9.7,50.5-35.7,50.5
			h-5.1C1812.3,274.2,1802.5,256.6,1802.5,223.7z M1838.3,264.6h4.9c18.6,0,25.5-13.7,25.5-40.9v-9.2c0-27.2-6.9-40.9-25.5-40.9
			h-4.9c-18.6,0-25.5,13.7-25.5,40.9v9.2C1812.8,250.9,1819.7,264.6,1838.3,264.6z"/>
	</g>
</g>
</svg>
