<?xml version="1.0" encoding="utf-8"?>
<!-- Generator: Adobe Illustrator 22.0.0, SVG Export Plug-In . SVG Version: 6.00 Build 0)  -->
<svg version="1.1" id="Layer_1" xmlns="http://www.w3.org/2000/svg" xmlns:xlink="http://www.w3.org/1999/xlink" x="0px" y="0px"
	 viewBox="0 0 283 283" style="enable-background:new 0 0 283 283;" xml:space="preserve">
<style type="text/css">
	.st0{fill:#BA71FF;}
	.st1{fill:#E9D9FF;}
	.st2{fill:#FFFFFF;}
	.st3{fill:#010101;}
</style>
<g>
	<rect class="st0" width="283" height="283"/>
	<rect y="192" class="st1" width="283" height="91"/>
	<g>
		<g>
			<path class="st2" d="M19.1,163.3V21h20.3v142.3H19.1z"/>
			<path class="st2" d="M124.9,166.3c-21.1,0-38.8-7.1-53-21.2c-14.2-14.2-21.2-31.8-21.2-53c0-21.1,7.1-38.8,21.2-53
				c14.2-14.2,31.8-21.2,53-21.2c20.6,0,37.9,6.7,51.8,20.1v38.8c-3.3-11.8-9.6-21.2-19.1-28.2c-9.5-7-20.4-10.5-32.7-10.5
				c-15.3,0-28.1,5.2-38.4,15.4C76.2,64,71,76.8,71,92.1c0,15.3,5.1,28.1,15.4,38.4c10.3,10.3,23.1,15.4,38.4,15.4
				c12.3,0,23.2-3.5,32.7-10.5c9.5-7,15.9-16.4,19.1-28.2v38.8C162.8,159.6,145.5,166.3,124.9,166.3z"/>
			<path class="st2" d="M263.9,163.3h-73V21h73v20.3h-52.7V82h52.7v20.3h-52.7v40.7h52.7V163.3z"/>
		</g>
	</g>
	<g>
		<g>
			<path class="st3" d="M19.1,259.4h32.1v8.8H19.1v-19.4c8.7-5.7,14.3-9.6,16.8-11.8c5-4.3,7.5-8.4,7.5-12.4c0-2.9-1-5.3-3-7.2
				c-2-1.9-4.6-2.9-7.7-2.9c-3.4,0-6.4,1.1-9.1,3.4c-2.7,2.3-4.1,5.1-4.4,8.4v-16.1c4.1-3,8.6-4.5,13.5-4.5c5.6,0,10.2,1.8,13.9,5.4
				c3.7,3.6,5.6,8.1,5.6,13.5c0,2-0.3,4-0.8,5.9c-0.6,1.9-1.5,3.7-2.9,5.5c-1.3,1.8-2.6,3.4-3.8,4.7c-1.2,1.3-3,2.9-5.5,4.8
				c-2.5,1.8-4.4,3.3-5.9,4.3c-1.5,1-3.8,2.6-7,4.7C23,256.9,20.6,258.4,19.1,259.4z"/>
			<path class="st3" d="M57.3,251.6v-28.2c0-5,1.7-9.3,5.1-12.7c3.4-3.5,7.6-5.2,12.5-5.2c4.9,0,9,1.7,12.4,5.2
				c3.4,3.5,5,7.7,5,12.7v28.2c0,5-1.7,9.3-5,12.7c-3.4,3.5-7.5,5.2-12.4,5.2c-5,0-9.2-1.7-12.5-5.2C59,260.9,57.3,256.7,57.3,251.6
				z M66.1,223.3v28.4c0,2.6,0.8,4.7,2.5,6.4c1.7,1.7,3.8,2.6,6.3,2.6c2.5,0,4.6-0.9,6.3-2.6c1.7-1.7,2.5-3.9,2.5-6.4v-28.4
				c0-2.6-0.8-4.7-2.5-6.4c-1.7-1.7-3.8-2.6-6.3-2.6c-2.5,0-4.6,0.9-6.3,2.6C66.9,218.6,66.1,220.7,66.1,223.3z"/>
			<path class="st3" d="M97.9,259.4H130v8.8H97.9v-19.4c8.7-5.7,14.3-9.6,16.8-11.8c5-4.3,7.5-8.4,7.5-12.4c0-2.9-1-5.3-3-7.2
				c-2-1.9-4.6-2.9-7.7-2.9c-3.4,0-6.4,1.1-9.1,3.4c-2.7,2.3-4.1,5.1-4.4,8.4v-16.1c4.1-3,8.6-4.5,13.5-4.5c5.6,0,10.2,1.8,13.9,5.4
				c3.7,3.6,5.6,8.1,5.6,13.5c0,2-0.3,4-0.8,5.9c-0.6,1.9-1.5,3.7-2.9,5.5c-1.3,1.8-2.6,3.4-3.8,4.7c-1.2,1.3-3,2.9-5.5,4.8
				c-2.5,1.8-4.4,3.3-5.9,4.3c-1.5,1-3.8,2.6-7,4.7C101.7,256.9,99.4,258.4,97.9,259.4z"/>
			<path class="st3" d="M133.5,233.6l25.7-26.8h21v61.4h-8.8V255h-37.9V233.6z M133.5,246.3h37.9v-39.5L133.5,246.3z"/>
		</g>
	</g>
	<polygon class="st3" points="241.5,206.3 232.7,206.3 260.8,234.4 201.5,234.4 201.5,240.6 260.8,240.6 232.7,268.7 241.5,268.7 
		263.9,246.3 263.9,240.6 263.9,237.5 263.9,237.5 263.9,234.4 263.9,228.7 	"/>
</g>
</svg>
