<?xml version="1.0" encoding="utf-8"?>
<!-- Generator: Adobe Illustrator 22.0.0, SVG Export Plug-In . SVG Version: 6.00 Build 0)  -->
<svg version="1.1" id="Layer_1" xmlns="http://www.w3.org/2000/svg" xmlns:xlink="http://www.w3.org/1999/xlink" x="0px" y="0px"
	 viewBox="0 0 2000 1333.3" style="enable-background:new 0 0 2000 1333.3;" xml:space="preserve">
<style type="text/css">
	.st0{fill:#F7F7F7;}
	.st1{fill:none;stroke:#CCCCCC;stroke-miterlimit:10;}
	.st2{fill:none;stroke:#203F58;stroke-miterlimit:10;}
	.st3{fill:#798C9B;}
</style>
<rect class="st0" width="2000" height="1333.3"/>
<g>
	<rect x="700" y="291" class="st1" width="600" height="751"/>
	<line class="st1" x1="700" y1="307.3" x2="1300" y2="307.3"/>
	<line class="st1" x1="700" y1="323.6" x2="1300" y2="323.6"/>
	<line class="st1" x1="700" y1="339.9" x2="1300" y2="339.9"/>
	<line class="st1" x1="700" y1="356.3" x2="1300" y2="356.3"/>
	<line class="st1" x1="700" y1="372.6" x2="1300" y2="372.6"/>
	<line class="st1" x1="700" y1="388.9" x2="1300" y2="388.9"/>
	<line class="st1" x1="700" y1="405.2" x2="1300" y2="405.2"/>
	<line class="st1" x1="700" y1="421.6" x2="1300" y2="421.6"/>
	<line class="st1" x1="700" y1="437.9" x2="1300" y2="437.9"/>
	<line class="st1" x1="700" y1="454.2" x2="1300" y2="454.2"/>
	<line class="st1" x1="700" y1="470.5" x2="1300" y2="470.5"/>
	<line class="st1" x1="700" y1="486.9" x2="1300" y2="486.9"/>
	<line class="st1" x1="700" y1="503.2" x2="1300" y2="503.2"/>
	<line class="st1" x1="700" y1="519.5" x2="1300" y2="519.5"/>
	<line class="st1" x1="700" y1="535.8" x2="1300" y2="535.8"/>
	<line class="st1" x1="700" y1="552.2" x2="1300" y2="552.2"/>
	<line class="st1" x1="700" y1="568.5" x2="1300" y2="568.5"/>
	<line class="st1" x1="700" y1="584.8" x2="1300" y2="584.8"/>
	<line class="st1" x1="700" y1="601.1" x2="1300" y2="601.1"/>
	<line class="st1" x1="700" y1="617.5" x2="1300" y2="617.5"/>
	<line class="st1" x1="700" y1="633.8" x2="1300" y2="633.8"/>
	<line class="st1" x1="700" y1="650.1" x2="1300" y2="650.1"/>
	<line class="st1" x1="700" y1="666.5" x2="1300" y2="666.5"/>
	<line class="st1" x1="700" y1="682.8" x2="1300" y2="682.8"/>
	<line class="st1" x1="700" y1="699.1" x2="1300" y2="699.1"/>
	<line class="st1" x1="700" y1="715.4" x2="1300" y2="715.4"/>
	<line class="st1" x1="700" y1="731.8" x2="1300" y2="731.8"/>
	<line class="st1" x1="700" y1="748.1" x2="1300" y2="748.1"/>
	<line class="st1" x1="700" y1="764.4" x2="1300" y2="764.4"/>
	<line class="st1" x1="700" y1="780.7" x2="1300" y2="780.7"/>
	<line class="st1" x1="700" y1="797.1" x2="1300" y2="797.1"/>
	<line class="st1" x1="700" y1="813.4" x2="1300" y2="813.4"/>
	<line class="st1" x1="700" y1="829.7" x2="1300" y2="829.7"/>
	<line class="st1" x1="700" y1="846" x2="1300" y2="846"/>
	<line class="st1" x1="700" y1="862.4" x2="1300" y2="862.4"/>
	<line class="st1" x1="700" y1="878.7" x2="1300" y2="878.7"/>
	<line class="st1" x1="700" y1="895" x2="1300" y2="895"/>
	<line class="st1" x1="700" y1="911.3" x2="1300" y2="911.3"/>
	<line class="st1" x1="700" y1="927.7" x2="1300" y2="927.7"/>
	<line class="st1" x1="700" y1="944" x2="1300" y2="944"/>
	<line class="st1" x1="700" y1="960.3" x2="1300" y2="960.3"/>
	<line class="st1" x1="700" y1="976.6" x2="1300" y2="976.6"/>
	<line class="st1" x1="700" y1="993" x2="1300" y2="993"/>
	<line class="st1" x1="700" y1="1009.3" x2="1300" y2="1009.3"/>
	<line class="st1" x1="700" y1="1025.6" x2="1300" y2="1025.6"/>
	<line class="st1" x1="1285.4" y1="1042" x2="1285.4" y2="291"/>
	<line class="st1" x1="1270.7" y1="1042" x2="1270.7" y2="291"/>
	<line class="st1" x1="1256.1" y1="1042" x2="1256.1" y2="291"/>
	<line class="st1" x1="1241.5" y1="1042" x2="1241.5" y2="291"/>
	<line class="st1" x1="1226.8" y1="1042" x2="1226.8" y2="291"/>
	<line class="st1" x1="1212.2" y1="1042" x2="1212.2" y2="291"/>
	<line class="st1" x1="1197.6" y1="1042" x2="1197.6" y2="291"/>
	<line class="st1" x1="1182.9" y1="1042" x2="1182.9" y2="291"/>
	<line class="st1" x1="1168.3" y1="1042" x2="1168.3" y2="291"/>
	<line class="st1" x1="1153.7" y1="1042" x2="1153.7" y2="291"/>
	<line class="st1" x1="1139" y1="1042" x2="1139" y2="291"/>
	<line class="st1" x1="1124.4" y1="1042" x2="1124.4" y2="291"/>
	<line class="st1" x1="1109.8" y1="1042" x2="1109.8" y2="291"/>
	<line class="st1" x1="1095.1" y1="1042" x2="1095.1" y2="291"/>
	<line class="st1" x1="1080.5" y1="1042" x2="1080.5" y2="291"/>
	<line class="st1" x1="1065.9" y1="1042" x2="1065.9" y2="291"/>
	<line class="st1" x1="1051.2" y1="1042" x2="1051.2" y2="291"/>
	<line class="st1" x1="1036.6" y1="1042" x2="1036.6" y2="291"/>
	<line class="st1" x1="1022" y1="1042" x2="1022" y2="291"/>
	<line class="st1" x1="1007.3" y1="1042" x2="1007.3" y2="291"/>
	<line class="st1" x1="992.7" y1="1042" x2="992.7" y2="291"/>
	<line class="st1" x1="978" y1="1042" x2="978" y2="291"/>
	<line class="st1" x1="963.4" y1="1042" x2="963.4" y2="291"/>
	<line class="st1" x1="948.8" y1="1042" x2="948.8" y2="291"/>
	<line class="st1" x1="934.1" y1="1042" x2="934.1" y2="291"/>
	<line class="st1" x1="919.5" y1="1042" x2="919.5" y2="291"/>
	<line class="st1" x1="904.9" y1="1042" x2="904.9" y2="291"/>
	<line class="st1" x1="890.2" y1="1042" x2="890.2" y2="291"/>
	<line class="st1" x1="875.6" y1="1042" x2="875.6" y2="291"/>
	<line class="st1" x1="861" y1="1042" x2="861" y2="291"/>
	<line class="st1" x1="846.3" y1="1042" x2="846.3" y2="291"/>
	<line class="st1" x1="831.7" y1="1042" x2="831.7" y2="291"/>
	<line class="st1" x1="817.1" y1="1042" x2="817.1" y2="291"/>
	<line class="st1" x1="802.4" y1="1042" x2="802.4" y2="291"/>
	<line class="st1" x1="787.8" y1="1042" x2="787.8" y2="291"/>
	<line class="st1" x1="773.2" y1="1042" x2="773.2" y2="291"/>
	<line class="st1" x1="758.5" y1="1042" x2="758.5" y2="291"/>
	<line class="st1" x1="743.9" y1="1042" x2="743.9" y2="291"/>
	<line class="st1" x1="729.3" y1="1042" x2="729.3" y2="291"/>
	<line class="st1" x1="714.6" y1="1042" x2="714.6" y2="291"/>
</g>
<g>
	<g>
		<g>
			<g>
				<path class="st2" d="M1300,1042l-156.4-236c76.8-50.5,126.2-137,126.2-235c0-152.8-122.3-279.5-283.8-279.5
					c-160.5,0-286,125.5-286,279.5c0,0,0,0,0,0l0,0V1042h108.1V792.1c48.4,37.7,109.8,60.4,177.9,60.4c16,0,31.5-1.6,46.6-4
					l128.1,193.4H1300z"/>
			</g>
		</g>
		<g>
			<circle class="st2" cx="984.9" cy="571.9" r="214.6"/>
		</g>
	</g>
</g>
<g>
	<g>
		<g>
			<g>
				<circle class="st3" cx="987.7" cy="291.3" r="7.5"/>
				<g>
					<g>
						<rect x="847.7" y="290.8" class="st3" width="280" height="1"/>
					</g>
				</g>
				<circle class="st3" cx="845.7" cy="291.3" r="5"/>
				<circle class="st3" cx="1127.7" cy="291.3" r="5"/>
			</g>
		</g>
		<g>
			<g>
				<circle class="st3" cx="987.7" cy="357.3" r="7.5"/>
				<g>
					<g>
						<rect x="871.7" y="356.8" class="st3" width="232" height="1"/>
					</g>
				</g>
				<circle class="st3" cx="869.7" cy="357.3" r="5"/>
				<circle class="st3" cx="1103.7" cy="357.3" r="5"/>
			</g>
		</g>
		<g>
			<g>
				<circle class="st3" cx="770.7" cy="564.3" r="7.5"/>
				<g>
					<g>
						<rect x="770.2" y="448.3" class="st3" width="1" height="232"/>
					</g>
				</g>
				<circle class="st3" cx="770.7" cy="446.3" r="5"/>
				<circle class="st3" cx="770.7" cy="680.3" r="5"/>
			</g>
		</g>
		<g>
			<g>
				<circle class="st3" cx="1199.7" cy="563.3" r="7.5"/>
				<g>
					<g>
						<rect x="1199.2" y="447.3" class="st3" width="1" height="232"/>
					</g>
				</g>
				<circle class="st3" cx="1199.7" cy="445.3" r="5"/>
				<circle class="st3" cx="1199.7" cy="679.3" r="5"/>
			</g>
		</g>
		<g>
			<g>
				<circle class="st3" cx="987.7" cy="786.3" r="7.5"/>
				<g>
					<g>
						<rect x="871.7" y="785.8" class="st3" width="232" height="1"/>
					</g>
				</g>
				<circle class="st3" cx="869.7" cy="786.3" r="5"/>
				<circle class="st3" cx="1103.7" cy="786.3" r="5"/>
			</g>
		</g>
		<g>
			<g>
				<circle class="st3" cx="1269" cy="563.3" r="7.5"/>
				<g>
					<g>
						<rect x="1268.5" y="423.3" class="st3" width="1" height="280"/>
					</g>
				</g>
				<circle class="st3" cx="1269" cy="421.3" r="5"/>
				<circle class="st3" cx="1269" cy="703.3" r="5"/>
			</g>
		</g>
		<g>
			<g>
				<circle class="st3" cx="699.3" cy="562" r="7.5"/>
				<g>
					<g>
						<rect x="698.8" y="422" class="st3" width="1" height="141"/>
					</g>
				</g>
				<circle class="st3" cx="699.3" cy="420" r="5"/>
			</g>
		</g>
	</g>
</g>
</svg>
