<?xml version="1.0" encoding="utf-8"?>
<!-- Generator: Adobe Illustrator 22.0.0, SVG Export Plug-In . SVG Version: 6.00 Build 0)  -->
<svg version="1.1" id="Layer_1" xmlns="http://www.w3.org/2000/svg" xmlns:xlink="http://www.w3.org/1999/xlink" x="0px" y="0px"
	 viewBox="0 0 1910 260.1" style="enable-background:new 0 0 1910 260.1;" xml:space="preserve">
<style type="text/css">
	.st0{fill:#1B1B27;}
</style>
<g>
	<g>
		<g>
			<g>
				<path class="st0" d="M523.4,66.7c-42.3,0-63.4,30.2-63.4,63.3s21.2,63.3,63.4,63.3s63.3-30.2,63.3-63.3S565.8,66.7,523.4,66.7z
					 M523.4,171c-24.8,0-38-19.1-38-41.1s13.2-41.2,38-41.2c24.9,0,38,19.3,38,41.2C561.5,151.9,548.4,171,523.4,171z"/>
			</g>
		</g>
		<g>
			<path class="st0" d="M673.6,141.7c-2.3,9.1-2.6,17.7-3.1,26.3h-3.4c-0.3-8.6-0.5-17.4-3.2-26.3L640.6,69h-38.9V191h23.4v-64.9
				c0-9.1-2.8-25.7-4.3-34.6l3.7-1.1l32.8,100.7h23l32-100.7l3.9,1.1c-1.6,9.1-4.4,25.7-4.4,34.6V191h23.5V69h-38.9L673.6,141.7z"/>
		</g>
		<g>
			<g>
				<path class="st0" d="M813.9,66.7c-42.3,0-63.4,30.2-63.4,63.3s21.2,63.3,63.4,63.3c42.3,0,63.3-30.2,63.3-63.3
					S856.1,66.7,813.9,66.7z M813.9,171c-24.8,0-38-19.1-38-41.1s13.2-41.2,38-41.2c24.9,0,38,19.3,38,41.2
					C851.9,151.9,838.8,171,813.9,171z"/>
			</g>
		</g>
		<g>
			<g>
				<path class="st0" d="M998.6,69h-12.4V51.6h-23V69h-12.4c-37.5,0-64,24-64,61c0,37.3,27.1,61,63.7,61h12.8v19h23v-19h12.8
					c36.6,0,63.7-23.7,63.7-61C1062.6,93.1,1036.1,69,998.6,69z M962.6,168.9h-10c-20.2,0-40.3-11.4-40.3-38.9
					c0-27.6,20-38.9,40.5-38.9h9.8L962.6,168.9L962.6,168.9z M996.9,168.9h-10V91.1h9.8c20.5,0,40.5,11.4,40.5,38.9
					C1037.2,157.6,1017,168.9,996.9,168.9z"/>
			</g>
		</g>
		<g>
			<g>
				<path class="st0" d="M1135.9,66.7c-42.3,0-63.4,30.2-63.4,63.3s21.2,63.3,63.4,63.3s63.3-30.2,63.3-63.3
					S1178.1,66.7,1135.9,66.7z M1135.9,171c-24.8,0-38-19.1-38-41.1s13.2-41.2,38-41.2c24.9,0,38,19.3,38,41.2
					C1173.9,151.9,1160.8,171,1135.9,171z"/>
			</g>
		</g>
		<g>
			<polygon class="st0" points="1298,69 1298,119.2 1238.4,119.2 1238.4,69 1214.1,69 1214.1,191 1238.4,191 1238.4,141 1298,141 
				1298,191 1322.4,191 1322.4,69 			"/>
		</g>
		<g>
			<g>
				<path class="st0" d="M413.2,69h-30.6l-39.5,101.8h-12.2v39.2h23v-19h88v19h23v-39.2h-12.1L413.2,69z M369.3,170.7l23.4-62.2
					c2.1-5.8,3.4-12,3.5-17.9h3.4c0.2,5.8,1.2,12,3.4,17.9l23.4,62.2H369.3z"/>
			</g>
		</g>
	</g>
</g>
<g>
	<g>
		<path class="st0" d="M1441.7,77.7c30.9,0,42.5,24,44.8,43.7l12-1.7c-2.6-25.4-19.7-52.7-56.8-52.7c-40.8,0-59.3,33.1-59.3,63.3
			c0,31.1,19.4,63,59.9,63c35.9,0,53.1-24.9,55.9-50.4l-12.2-1.6c-2.5,20.2-14.5,41.2-43.9,41.2c-33.1,0-47.6-26.9-47.6-52.2
			C1394.6,105.8,1407.8,77.7,1441.7,77.7z"/>
		<path class="st0" d="M1694.1,118.9h-40.3V79.6h67.5V69h-79.2V191h52c22.5,0,38.9-14.6,38.9-36S1716.6,118.9,1694.1,118.9z
			 M1691,180.4h-37.1v-50.9h37.1c17.9,0,30,10,30,25.4C1721.1,170.5,1708.9,180.4,1691,180.4z"/>
		<polygon class="st0" points="1517.5,191 1529.1,191 1529.1,79.7 1605.3,79.7 1605.3,191 1616.9,191 1616.9,69 1517.5,69 		"/>
	</g>
</g>
<path class="st0" d="M209.4,45.3L139.6,5c-6.1-3.6-13-5.4-19.9-5.4c-6.9,0-13.9,1.7-20,5.2L29.9,45.3C11.5,56,0,75.7,0,97v80.6
	c0,14.3,7.6,27.5,20,34.5l69.8,40.3c9.3,5.4,19.5,8.1,29.9,8.1s20.6-2.7,29.9-8.1l69.8-40.3c12.3-7,20-20.2,20-34.5V97
	C239.4,75.7,228,56,209.4,45.3z M214.7,200.6h-190l-13.2-23l95-163H133l94.9,163L214.7,200.6z"/>
</svg>
