<?xml version="1.0" encoding="utf-8"?>
<!-- Generator: Adobe Illustrator 22.0.0, SVG Export Plug-In . SVG Version: 6.00 Build 0)  -->
<svg version="1.1" id="Layer_1" xmlns="http://www.w3.org/2000/svg" xmlns:xlink="http://www.w3.org/1999/xlink" x="0px" y="0px"
	 viewBox="0 0 1400 725" style="enable-background:new 0 0 1400 725;" xml:space="preserve">
<style type="text/css">
	.st0{fill:#F8EEE8;}
	.st1{fill:#EFE3B1;}
	.st2{fill:#F7B233;}
	.st3{fill:#C6D6E5;}
	.st4{opacity:0.1;fill:#DA4937;enable-background:new    ;}
	.st5{opacity:0.2;fill:#DA4937;enable-background:new    ;}
	.st6{opacity:0.4;fill:#DA4937;enable-background:new    ;}
	.st7{opacity:0.6;fill:#DA4937;enable-background:new    ;}
	.st8{opacity:0.8;fill:#DA4937;enable-background:new    ;}
	.st9{opacity:0.1;enable-background:new    ;}
	.st10{opacity:0.2;enable-background:new    ;}
	.st11{opacity:0.4;enable-background:new    ;}
	.st12{opacity:0.6;enable-background:new    ;}
	.st13{opacity:0.8;enable-background:new    ;}
	.st14{fill:#DA4937;}
	.st15{fill:#FFFFFF;}
</style>
<rect class="st0" width="700" height="514"/>
<rect y="571" class="st1" width="466.7" height="154"/>
<rect x="466.7" y="571" class="st2" width="466.7" height="154"/>
<rect x="933.3" y="571" class="st3" width="466.7" height="154"/>
<rect x="700" y="514" class="st4" width="140" height="57"/>
<rect x="840" y="514" class="st5" width="140" height="57"/>
<rect x="980" y="514" class="st6" width="140" height="57"/>
<rect x="1120" y="514" class="st7" width="140" height="57"/>
<rect x="1260" y="514" class="st8" width="140" height="57"/>
<rect y="514" class="st9" width="140" height="57"/>
<rect x="140" y="514" class="st10" width="140" height="57"/>
<rect x="280" y="514" class="st11" width="140" height="57"/>
<rect x="420" y="514" class="st12" width="140" height="57"/>
<rect x="560" y="514" class="st13" width="140" height="57"/>
<g>
	<g>
		<g>
			<g>
				<rect x="700" class="st14" width="700" height="514"/>
			</g>
			<g>
				<g>
					<path class="st14" d="M591.9,26c-9.5,0-17.3,7.6-17.3,17.4c0,2.3,0.4,4.4,1.2,6.4c0.9,2.4,0.6,5.1-0.8,7.2
						c-0.9,1.3-2.3,2.1-4.2,2.1c-4.6,0-6.4-2-6.8-2.6V40.6c0-7.2-0.2-11.8,1.5-14.1H555c1.8,2.3,1.5,6.9,1.5,14.1v5.9
						c0,7.2,0.2,11.8-1.5,14.1h3.4c0,0,5.5,0,8.9,0c0.3,0,0.5,0,0.8,0c5.9,0,7-0.8,9.5-1.7c3.5-1.3,4.3-0.8,5.6-0.2
						c2.1,1,5.7,2.5,8.9,2.5c9.5,0,17.2-7.7,17.2-17.4C609.4,33.9,601.4,26,591.9,26z M595.6,59.4c-7.4-0.3-14.1-13.2-14.1-22
						c0-5.2,2.3-9.7,6.9-9.7c7.5,0,14.3,13.1,14.3,21.9C602.6,55,600.2,59.5,595.6,59.4z"/>
					<path class="st14" d="M647.9,26c-9.5,0-17.3,7.6-17.3,17.4c0,2.3,0.4,4.4,1.2,6.4c0.9,2.4,0.6,5.1-0.8,7.2
						c-0.9,1.3-2.3,2.1-4.2,2.1c-4.6,0-6.4-2-6.8-2.6V40.6c0-7.2-0.2-11.8,1.5-14.1H611c1.8,2.3,1.5,6.9,1.5,14.1v5.9
						c0,7.2,0.2,11.8-1.5,14.1h3.4c0,0,5.5,0,8.9,0c0.3,0,0.5,0,0.8,0c5.9,0,7-0.8,9.5-1.7c3.5-1.3,4.3-0.8,5.6-0.2
						c2.1,1,5.7,2.5,8.9,2.5c9.5,0,17.2-7.7,17.2-17.4C665.4,33.9,657.4,26,647.9,26z M651.6,59.4c-7.4-0.3-14.1-13.2-14.1-22
						c0-5.2,2.3-9.7,6.9-9.7c7.5,0,14.3,13.1,14.3,21.9C658.6,55,656.2,59.5,651.6,59.4z"/>
				</g>
			</g>
		</g>
	</g>
</g>
<g>
	<path d="M31.2,37.8h5.3c2.9,0,4.6,1.5,4.6,3.9c0,1.4-1,2.6-2.1,3c1.6,0.5,2.8,1.8,2.8,4c0,2.7-1.8,4.4-4.9,4.4h-5.7
		C31.2,53.1,31.2,37.8,31.2,37.8z M36.5,44.3c2,0,3.1-0.8,3.1-2.6c0-1.7-1.1-2.6-3.1-2.6h-3.9v5.1L36.5,44.3L36.5,44.3z M36.6,51.8
		c2.4,0,3.7-1.1,3.7-3.1s-1.3-3.1-3.7-3.1h-3.9v6.1L36.6,51.8L36.6,51.8z"/>
	<path d="M44.8,37.8h9.3v1.4h-7.9v5.3h6.5v1.4h-6.5v5.9h8.1v1.4h-9.6V37.8H44.8z"/>
	<path d="M55.8,51.8c1.4-0.1,1.9-0.7,2.1-1.8l1.8-12.1h7.5v14h1.9V57h-1.4v-3.9H56.6V57h-1.4v-5.3L55.8,51.8L55.8,51.8z M65.8,51.8
		V39.1H61L59.4,50c-0.1,0.7-0.4,1.2-0.8,1.7L65.8,51.8L65.8,51.8z"/>
	<path d="M71.6,51.8h1.5c0.8,0,1.2-0.4,1.6-1.1l0.8-1.7l-5.3-11.2h1.6l4.4,9.6l4.4-9.6h1.6L76,51.2c-0.6,1.2-1.3,1.9-2.8,1.9h-1.6
		V51.8z"/>
	<path d="M102,53.1H84.3V37.8h1.5v14h6.3v-14h1.5v14h6.3v-14h1.5v14h1.9V57H102V53.1z"/>
	<path d="M106,37.8h1.4V51l8.6-13.2h1.7v15.3h-1.4V40l-8.6,13.1H106V37.8z"/>
	<path d="M121.8,37.8h1.4V51l8.6-13.2h1.7v15.3h-1.4V40l-8.6,13.1h-1.7C121.8,53.1,121.8,37.8,121.8,37.8z M125.6,33.5
		c0,1.1,0.7,1.9,2,1.9c1.2,0,2-0.8,2-1.9h1.2c0,1.8-1.3,3-3.2,3c-1.9,0-3.2-1.2-3.2-3H125.6z"/>
	<path d="M154.5,53.1h-11.6V37.8h1.5v14h8.1v-14h1.5v14h1.9V57h-1.4V53.1z"/>
	<path d="M158.6,37.8h5.3c2.9,0,4.6,1.5,4.6,3.9c0,1.4-1,2.6-2.1,3c1.6,0.5,2.8,1.8,2.8,4c0,2.7-1.8,4.4-4.9,4.4h-5.7L158.6,37.8
		L158.6,37.8z M163.9,44.3c2,0,3.1-0.8,3.1-2.6c0-1.7-1.1-2.6-3.1-2.6H160v5.1L163.9,44.3L163.9,44.3z M164,51.8
		c2.4,0,3.7-1.1,3.7-3.1s-1.3-3.1-3.7-3.1h-3.9v6.1L164,51.8L164,51.8z"/>
	<path d="M172.2,37.8h9.3v1.4h-7.9v5.3h6.5v1.4h-6.5v5.9h8.1v1.4h-9.6L172.2,37.8L172.2,37.8z"/>
	<path d="M187.8,39.1h-5v-1.4h11.5v1.4h-5v14h-1.5V39.1z"/>
</g>
<g>
	<path class="st15" d="M732.2,37.8h5.3c2.9,0,4.6,1.5,4.6,3.9c0,1.4-1,2.6-2.1,3c1.6,0.5,2.8,1.8,2.8,4c0,2.7-1.8,4.4-4.9,4.4h-5.7
		L732.2,37.8L732.2,37.8z M737.5,44.3c2,0,3.1-0.8,3.1-2.6c0-1.7-1.1-2.6-3.1-2.6h-3.9v5.1L737.5,44.3L737.5,44.3z M737.6,51.8
		c2.4,0,3.7-1.1,3.7-3.1s-1.3-3.1-3.7-3.1h-3.9v6.1L737.6,51.8L737.6,51.8z"/>
	<path class="st15" d="M745.8,37.8h9.3v1.4h-7.9v5.3h6.5v1.4h-6.5v5.9h8.1v1.4h-9.6V37.8H745.8z"/>
	<path class="st15" d="M756.8,51.8c1.4-0.1,1.9-0.7,2.1-1.8l1.8-12.1h7.5v14h1.9V57h-1.4v-3.9h-11.2V57h-1.4v-5.3L756.8,51.8
		L756.8,51.8z M766.8,51.8V39.1H762L760.4,50c-0.1,0.7-0.4,1.2-0.8,1.7L766.8,51.8L766.8,51.8z"/>
	<path class="st15" d="M772.6,51.8h1.5c0.8,0,1.2-0.4,1.6-1.1l0.8-1.7l-5.3-11.2h1.6l4.4,9.6l4.4-9.6h1.6L777,51.2
		c-0.6,1.2-1.3,1.9-2.8,1.9h-1.6L772.6,51.8L772.6,51.8z"/>
	<path class="st15" d="M803,53.1h-17.6V37.8h1.5v14h6.3v-14h1.5v14h6.3v-14h1.5v14h1.9V57H803V53.1z"/>
	<path class="st15" d="M807,37.8h1.4V51l8.6-13.2h1.7v15.3h-1.4V40l-8.6,13.1H807V37.8z"/>
	<path class="st15" d="M822.8,37.8h1.4V51l8.6-13.2h1.7v15.3h-1.4V40l-8.6,13.1h-1.7V37.8z M826.6,33.5c0,1.1,0.7,1.9,2,1.9
		c1.2,0,2-0.8,2-1.9h1.2c0,1.8-1.3,3-3.2,3s-3.2-1.2-3.2-3H826.6z"/>
	<path class="st15" d="M855.5,53.1h-11.6V37.8h1.5v14h8.1v-14h1.5v14h1.9V57h-1.4V53.1z"/>
	<path class="st15" d="M859.6,37.8h5.3c2.9,0,4.6,1.5,4.6,3.9c0,1.4-1,2.6-2.1,3c1.6,0.5,2.8,1.8,2.8,4c0,2.7-1.8,4.4-4.9,4.4h-5.7
		L859.6,37.8L859.6,37.8z M864.9,44.3c2,0,3.1-0.8,3.1-2.6c0-1.7-1.1-2.6-3.1-2.6H861v5.1L864.9,44.3L864.9,44.3z M865,51.8
		c2.4,0,3.7-1.1,3.7-3.1s-1.3-3.1-3.7-3.1h-3.9v6.1L865,51.8L865,51.8z"/>
	<path class="st15" d="M873.2,37.8h9.3v1.4h-7.9v5.3h6.5v1.4h-6.5v5.9h8.1v1.4h-9.6V37.8H873.2z"/>
	<path class="st15" d="M888.8,39.1h-5v-1.4h11.5v1.4h-5v14h-1.5V39.1z"/>
</g>
<g>
	<path d="M19.3,605.2c0-3.4,2.3-5,4.7-5c2,0,3.8,1.3,4,3.1h-1c-0.2-1.3-1.5-2.2-3.1-2.2c-2.2,0-3.7,1.5-3.7,4.1
		c0,2.7,1.5,4.1,3.7,4.1c1.6,0,2.9-0.9,3.1-2.2h1c-0.2,1.8-1.9,3.1-4,3.1C21.6,610.2,19.3,608.6,19.3,605.2z"/>
	<path d="M29.2,605.2c0-2.9,2-5,4.7-5s4.8,2.1,4.8,5s-2,5-4.8,5S29.2,608.1,29.2,605.2z M34,609.4c2.2,0,3.8-1.8,3.8-4.1
		c0-2.4-1.6-4.1-3.8-4.1s-3.8,1.8-3.8,4.1C30.2,607.6,31.8,609.4,34,609.4z"/>
	<path d="M46.9,601.2h-5.2v8.9h-0.9v-9.8h7.1v9.8H47L46.9,601.2L46.9,601.2z"/>
	<path d="M50.3,600.3h3.6c1.9,0,3.1,1.1,3.1,2.8s-1.2,2.8-3.1,2.8h-2.7v4.1h-0.9C50.3,610,50.3,600.3,50.3,600.3z M53.9,605.1
		c1.5,0,2-0.9,2-2c0-1-0.5-2-2-2h-2.7v4H53.9z"/>
	<path d="M58,605.2c0-2.9,2-5,4.7-5s4.8,2.1,4.8,5s-2,5-4.8,5S58,608.1,58,605.2z M62.8,609.4c2.2,0,3.8-1.8,3.8-4.1
		c0-2.4-1.6-4.1-3.8-4.1S59,603,59,605.3C59,607.6,60.6,609.4,62.8,609.4z"/>
	<path d="M69.5,600.3h3.4c1.9,0,3,0.9,3,2.5c0,0.9-0.7,1.6-1.3,1.9c1,0.3,1.8,1.1,1.8,2.5c0,1.7-1.1,2.8-3.1,2.8h-3.7v-9.7H69.5z
		 M72.9,604.5c1.3,0,2-0.5,2-1.6s-0.7-1.6-2-1.6h-2.5v3.3h2.5V604.5z M72.9,609.2c1.5,0,2.3-0.7,2.3-2s-0.8-2-2.3-2h-2.5v3.9
		L72.9,609.2L72.9,609.2z"/>
	<path d="M77.6,605.2c0-2.9,2-5,4.7-5s4.8,2.1,4.8,5s-2,5-4.8,5S77.6,608.1,77.6,605.2z M82.4,609.4c2.2,0,3.8-1.8,3.8-4.1
		c0-2.4-1.6-4.1-3.8-4.1c-2.2,0-3.8,1.8-3.8,4.1C78.6,607.6,80.2,609.4,82.4,609.4z"/>
	<path d="M95.6,605.5h-1.5v4.6h-0.9v-4.6h-1.5l-3.2,4.6h-1.1l3.6-5.2l-2-3.1c-0.3-0.5-0.7-0.7-1-0.7h-0.6v-0.9H88
		c0.7,0,1.2,0.2,1.6,0.9l2.1,3.4h1.4v-4.3H94v4.3h1.4l2.1-3.4c0.4-0.7,1-0.9,1.6-0.9h0.6v0.9h-0.6c-0.3,0-0.7,0.2-1,0.7l-2,3.1
		l3.6,5.2h-1.1L95.6,605.5z"/>
	<path d="M100.5,609.2c0.9,0,1.2-0.4,1.4-1.2l1.2-7.8h4.8v8.9h1.2v3.4h-0.9V610H101v2.5h-0.9v-3.4L100.5,609.2L100.5,609.2z
		 M106.9,609.2v-8.1h-3.1l-1,7c-0.1,0.4-0.2,0.8-0.5,1.1H106.9z"/>
	<path d="M113.7,600.3h0.8l4,9.8h-1l-1.1-2.8h-4.6l-1.1,2.8h-1L113.7,600.3z M112.1,606.5h3.9l-2-5L112.1,606.5z"/>
	<path d="M123.5,605.5h-2.6v4.6H120v-9.8h0.9v4.3h2.6c0.2-2.7,2-4.4,4.5-4.4c2.7,0,4.5,2,4.5,5s-1.8,5-4.5,5
		C125.4,610.2,123.6,608.3,123.5,605.5z M128,609.4c2.1,0,3.5-1.7,3.5-4.1s-1.4-4.1-3.5-4.1c-2.1,0-3.5,1.7-3.5,4.1
		S125.9,609.4,128,609.4z"/>
	<path d="M145.7,610.1h-11.3v-9.8h0.9v8.9h4v-8.9h0.9v8.9h4v-8.9h0.9v8.9h1.2v3.4h-0.9v-2.5H145.7z"/>
	<path d="M148.3,600.3h0.9v8.4l5.5-8.4h1.1v9.8h-0.9v-8.4l-5.5,8.4h-1.1V600.3z"/>
	<path d="M158.4,600.3h0.9v8.4l5.5-8.4h1.1v9.8H165v-8.4l-5.5,8.4h-1.1V600.3z M160.8,597.6c0,0.7,0.5,1.2,1.3,1.2s1.3-0.5,1.3-1.2
		h0.8c0,1.1-0.8,1.9-2.1,1.9c-1.2,0-2.1-0.8-2.1-1.9H160.8z"/>
	<path d="M179.3,610.1h-7.4v-9.8h0.9v8.9h5.2v-8.9h0.9v8.9h1.2v3.4h-0.9v-2.5H179.3z"/>
	<path d="M181.9,600.3h3.4c1.9,0,3,0.9,3,2.5c0,0.9-0.7,1.6-1.3,1.9c1,0.3,1.8,1.1,1.8,2.5c0,1.7-1.1,2.8-3.1,2.8H182L181.9,600.3
		L181.9,600.3z M185.3,604.5c1.3,0,2-0.5,2-1.6s-0.7-1.6-2-1.6h-2.5v3.3h2.5V604.5z M185.3,609.2c1.5,0,2.3-0.7,2.3-2s-0.8-2-2.3-2
		h-2.5v3.9L185.3,609.2L185.3,609.2z"/>
	<path d="M190.6,600.3h6v0.9h-5v3.4h4.1v0.9h-4.1v3.8h5.2v0.9h-6.1L190.6,600.3L190.6,600.3z"/>
	<path d="M200.6,601.2h-3.2v-0.9h7.3v0.9h-3.2v8.9h-0.9L200.6,601.2L200.6,601.2z"/>
</g>
<g>
	<path d="M491.3,605.2c0-3.4,2.3-5,4.7-5c2,0,3.8,1.3,4,3.1h-1c-0.2-1.3-1.5-2.2-3.1-2.2c-2.2,0-3.7,1.5-3.7,4.1
		c0,2.7,1.5,4.1,3.7,4.1c1.6,0,2.9-0.9,3.1-2.2h1c-0.2,1.8-1.9,3.1-4,3.1C493.6,610.2,491.3,608.6,491.3,605.2z"/>
	<path d="M501.2,605.2c0-2.9,2-5,4.7-5s4.8,2.1,4.8,5s-2,5-4.8,5S501.2,608.1,501.2,605.2z M506,609.4c2.2,0,3.8-1.8,3.8-4.1
		c0-2.4-1.6-4.1-3.8-4.1c-2.2,0-3.8,1.8-3.8,4.1C502.2,607.6,503.8,609.4,506,609.4z"/>
	<path d="M518.9,601.2h-5.2v8.9h-0.9v-9.8h7.1v9.8H519L518.9,601.2L518.9,601.2z"/>
	<path d="M522.3,600.3h3.6c1.9,0,3.1,1.1,3.1,2.8s-1.2,2.8-3.1,2.8h-2.7v4.1h-0.9L522.3,600.3L522.3,600.3z M525.9,605.1
		c1.5,0,2-0.9,2-2c0-1-0.5-2-2-2h-2.7v4H525.9z"/>
	<path d="M530,605.2c0-2.9,2-5,4.7-5s4.8,2.1,4.8,5s-2,5-4.8,5S530,608.1,530,605.2z M534.8,609.4c2.2,0,3.8-1.8,3.8-4.1
		c0-2.4-1.6-4.1-3.8-4.1s-3.8,1.8-3.8,4.1C531,607.6,532.6,609.4,534.8,609.4z"/>
	<path d="M541.5,600.3h3.4c1.9,0,3,0.9,3,2.5c0,0.9-0.7,1.6-1.3,1.9c1,0.3,1.8,1.1,1.8,2.5c0,1.7-1.1,2.8-3.1,2.8h-3.7v-9.7H541.5z
		 M544.9,604.5c1.3,0,2-0.5,2-1.6s-0.7-1.6-2-1.6h-2.5v3.3h2.5V604.5z M544.9,609.2c1.5,0,2.3-0.7,2.3-2s-0.8-2-2.3-2h-2.5v3.9
		L544.9,609.2L544.9,609.2z"/>
	<path d="M549.6,605.2c0-2.9,2-5,4.7-5s4.8,2.1,4.8,5s-2,5-4.8,5S549.6,608.1,549.6,605.2z M554.4,609.4c2.2,0,3.8-1.8,3.8-4.1
		c0-2.4-1.6-4.1-3.8-4.1s-3.8,1.8-3.8,4.1C550.6,607.6,552.2,609.4,554.4,609.4z"/>
	<path d="M567.6,605.5h-1.5v4.6h-0.9v-4.6h-1.5l-3.2,4.6h-1.1l3.6-5.2l-2-3.1c-0.3-0.5-0.7-0.7-1-0.7h-0.6v-0.9h0.6
		c0.7,0,1.2,0.2,1.6,0.9l2.1,3.4h1.4v-4.3h0.9v4.3h1.4l2.1-3.4c0.4-0.7,1-0.9,1.6-0.9h0.6v0.9h-0.6c-0.3,0-0.7,0.2-1,0.7l-2,3.1
		l3.6,5.2h-1.1L567.6,605.5z"/>
	<path d="M572.5,609.2c0.9,0,1.2-0.4,1.4-1.2l1.2-7.8h4.8v8.9h1.2v3.4h-0.9V610H573v2.5h-0.9v-3.4L572.5,609.2L572.5,609.2z
		 M578.9,609.2v-8.1h-3.1l-1,7c-0.1,0.4-0.2,0.8-0.5,1.1H578.9z"/>
	<path d="M585.7,600.3h0.8l4,9.8h-1l-1.1-2.8h-4.6l-1.1,2.8h-1L585.7,600.3z M584.1,606.5h3.9l-2-5L584.1,606.5z"/>
	<path d="M595.5,605.5h-2.6v4.6H592v-9.8h0.9v4.3h2.6c0.2-2.7,2-4.4,4.5-4.4c2.7,0,4.5,2,4.5,5s-1.8,5-4.5,5
		C597.4,610.2,595.6,608.3,595.5,605.5z M600,609.4c2.1,0,3.5-1.7,3.5-4.1s-1.4-4.1-3.5-4.1s-3.5,1.7-3.5,4.1S597.9,609.4,600,609.4
		z"/>
	<path d="M617.7,610.1h-11.3v-9.8h0.9v8.9h4v-8.9h0.9v8.9h4v-8.9h0.9v8.9h1.2v3.4h-0.9v-2.5H617.7z"/>
	<path d="M620.3,600.3h0.9v8.4l5.5-8.4h1.1v9.8h-0.9v-8.4l-5.5,8.4h-1.1V600.3z"/>
	<path d="M630.4,600.3h0.9v8.4l5.5-8.4h1.1v9.8H637v-8.4l-5.5,8.4h-1.1V600.3z M632.8,597.6c0,0.7,0.5,1.2,1.3,1.2s1.3-0.5,1.3-1.2
		h0.8c0,1.1-0.8,1.9-2.1,1.9c-1.2,0-2.1-0.8-2.1-1.9H632.8z"/>
	<path d="M651.3,610.1h-7.4v-9.8h0.9v8.9h5.2v-8.9h0.9v8.9h1.2v3.4h-0.9L651.3,610.1L651.3,610.1z"/>
	<path d="M653.9,600.3h3.4c1.9,0,3,0.9,3,2.5c0,0.9-0.7,1.6-1.3,1.9c1,0.3,1.8,1.1,1.8,2.5c0,1.7-1.1,2.8-3.1,2.8H654v-9.7H653.9z
		 M657.3,604.5c1.3,0,2-0.5,2-1.6s-0.7-1.6-2-1.6h-2.5v3.3h2.5V604.5z M657.3,609.2c1.5,0,2.3-0.7,2.3-2s-0.8-2-2.3-2h-2.5v3.9
		L657.3,609.2L657.3,609.2z"/>
	<path d="M662.6,600.3h6v0.9h-5v3.4h4.1v0.9h-4.1v3.8h5.2v0.9h-6.1v-9.9H662.6z"/>
	<path d="M672.6,601.2h-3.2v-0.9h7.3v0.9h-3.2v8.9h-0.9L672.6,601.2L672.6,601.2z"/>
</g>
<g>
	<path d="M957.3,605.2c0-3.4,2.3-5,4.7-5c2,0,3.8,1.3,4,3.1h-1c-0.2-1.3-1.5-2.2-3.1-2.2c-2.2,0-3.7,1.5-3.7,4.1
		c0,2.7,1.5,4.1,3.7,4.1c1.6,0,2.9-0.9,3.1-2.2h1c-0.2,1.8-1.9,3.1-4,3.1C959.6,610.2,957.3,608.6,957.3,605.2z"/>
	<path d="M967.2,605.2c0-2.9,2-5,4.7-5s4.8,2.1,4.8,5s-2,5-4.8,5S967.2,608.1,967.2,605.2z M972,609.4c2.2,0,3.8-1.8,3.8-4.1
		c0-2.4-1.6-4.1-3.8-4.1s-3.8,1.8-3.8,4.1C968.2,607.6,969.8,609.4,972,609.4z"/>
	<path d="M984.9,601.2h-5.2v8.9h-0.9v-9.8h7.1v9.8H985L984.9,601.2L984.9,601.2z"/>
	<path d="M988.3,600.3h3.6c1.9,0,3.1,1.1,3.1,2.8s-1.2,2.8-3.1,2.8h-2.7v4.1h-0.9L988.3,600.3L988.3,600.3z M991.9,605.1
		c1.5,0,2-0.9,2-2c0-1-0.5-2-2-2h-2.7v4H991.9z"/>
	<path d="M996,605.2c0-2.9,2-5,4.7-5s4.8,2.1,4.8,5s-2,5-4.8,5S996,608.1,996,605.2z M1000.8,609.4c2.2,0,3.8-1.8,3.8-4.1
		c0-2.4-1.6-4.1-3.8-4.1s-3.8,1.8-3.8,4.1C997,607.6,998.6,609.4,1000.8,609.4z"/>
	<path d="M1007.5,600.3h3.4c1.9,0,3,0.9,3,2.5c0,0.9-0.7,1.6-1.3,1.9c1,0.3,1.8,1.1,1.8,2.5c0,1.7-1.1,2.8-3.1,2.8h-3.7v-9.7H1007.5
		z M1010.9,604.5c1.3,0,2-0.5,2-1.6s-0.7-1.6-2-1.6h-2.5v3.3h2.5V604.5z M1010.9,609.2c1.5,0,2.3-0.7,2.3-2s-0.8-2-2.3-2h-2.5v3.9
		L1010.9,609.2L1010.9,609.2z"/>
	<path d="M1015.6,605.2c0-2.9,2-5,4.7-5s4.8,2.1,4.8,5s-2,5-4.8,5C1017.6,610.2,1015.6,608.1,1015.6,605.2z M1020.4,609.4
		c2.2,0,3.8-1.8,3.8-4.1c0-2.4-1.6-4.1-3.8-4.1s-3.8,1.8-3.8,4.1C1016.6,607.6,1018.2,609.4,1020.4,609.4z"/>
	<path d="M1033.6,605.5h-1.5v4.6h-0.9v-4.6h-1.5l-3.2,4.6h-1.1l3.6-5.2l-2-3.1c-0.3-0.5-0.7-0.7-1-0.7h-0.6v-0.9h0.6
		c0.7,0,1.2,0.2,1.6,0.9l2.1,3.4h1.4v-4.3h0.9v4.3h1.4l2.1-3.4c0.4-0.7,1-0.9,1.6-0.9h0.6v0.9h-0.6c-0.3,0-0.7,0.2-1,0.7l-2,3.1
		l3.6,5.2h-1.1L1033.6,605.5z"/>
	<path d="M1038.5,609.2c0.9,0,1.2-0.4,1.4-1.2l1.2-7.8h4.8v8.9h1.2v3.4h-0.9V610h-7.1v2.5h-0.9v-3.4L1038.5,609.2L1038.5,609.2z
		 M1044.9,609.2v-8.1h-3.1l-1,7c-0.1,0.4-0.2,0.8-0.5,1.1H1044.9z"/>
	<path d="M1051.7,600.3h0.8l4,9.8h-1l-1.1-2.8h-4.6l-1.1,2.8h-1L1051.7,600.3z M1050.1,606.5h3.9l-2-5L1050.1,606.5z"/>
	<path d="M1061.5,605.5h-2.6v4.6h-0.9v-9.8h0.9v4.3h2.6c0.2-2.7,2-4.4,4.5-4.4c2.7,0,4.5,2,4.5,5s-1.8,5-4.5,5
		C1063.4,610.2,1061.6,608.3,1061.5,605.5z M1066,609.4c2.1,0,3.5-1.7,3.5-4.1s-1.4-4.1-3.5-4.1s-3.5,1.7-3.5,4.1
		S1063.9,609.4,1066,609.4z"/>
	<path d="M1083.7,610.1h-11.3v-9.8h0.9v8.9h4v-8.9h0.9v8.9h4v-8.9h0.9v8.9h1.2v3.4h-0.9v-2.5H1083.7z"/>
	<path d="M1086.3,600.3h0.9v8.4l5.5-8.4h1.1v9.8h-0.9v-8.4l-5.5,8.4h-1.1V600.3z"/>
	<path d="M1096.4,600.3h0.9v8.4l5.5-8.4h1.1v9.8h-0.9v-8.4l-5.5,8.4h-1.1V600.3z M1098.8,597.6c0,0.7,0.5,1.2,1.3,1.2
		s1.3-0.5,1.3-1.2h0.8c0,1.1-0.8,1.9-2.1,1.9c-1.2,0-2.1-0.8-2.1-1.9H1098.8z"/>
	<path d="M1117.3,610.1h-7.4v-9.8h0.9v8.9h5.2v-8.9h0.9v8.9h1.2v3.4h-0.9v-2.5H1117.3z"/>
	<path d="M1119.9,600.3h3.4c1.9,0,3,0.9,3,2.5c0,0.9-0.7,1.6-1.3,1.9c1,0.3,1.8,1.1,1.8,2.5c0,1.7-1.1,2.8-3.1,2.8h-3.7v-9.7H1119.9
		z M1123.3,604.5c1.3,0,2-0.5,2-1.6s-0.7-1.6-2-1.6h-2.5v3.3h2.5V604.5z M1123.3,609.2c1.5,0,2.3-0.7,2.3-2s-0.8-2-2.3-2h-2.5v3.9
		L1123.3,609.2L1123.3,609.2z"/>
	<path d="M1128.6,600.3h6v0.9h-5v3.4h4.1v0.9h-4.1v3.8h5.2v0.9h-6.1L1128.6,600.3L1128.6,600.3z"/>
	<path d="M1138.6,601.2h-3.2v-0.9h7.3v0.9h-3.2v8.9h-0.9L1138.6,601.2L1138.6,601.2z"/>
</g>
<g>
	<g>
		<g>
			<path class="st0" d="M1291.9,26c-9.5,0-17.3,7.6-17.3,17.4c0,2.3,0.4,4.4,1.2,6.4c0.9,2.4,0.6,5.1-0.8,7.2
				c-0.9,1.3-2.3,2.1-4.2,2.1c-4.6,0-6.4-2-6.8-2.6V40.6c0-7.2-0.2-11.8,1.5-14.1H1255c1.8,2.3,1.5,6.9,1.5,14.1v5.9
				c0,7.2,0.2,11.8-1.5,14.1h3.4c0,0,5.5,0,8.9,0c0.3,0,0.5,0,0.8,0c5.9,0,7-0.8,9.5-1.7c3.5-1.3,4.3-0.8,5.6-0.2
				c2.1,1,5.7,2.5,8.9,2.5c9.5,0,17.2-7.7,17.2-17.4C1309.4,33.9,1301.4,26,1291.9,26z M1295.6,59.4c-7.4-0.3-14.1-13.2-14.1-22
				c0-5.2,2.3-9.7,6.9-9.7c7.5,0,14.3,13.1,14.3,21.9C1302.6,55,1300.2,59.5,1295.6,59.4z"/>
			<path class="st0" d="M1347.9,26c-9.5,0-17.3,7.6-17.3,17.4c0,2.3,0.4,4.4,1.2,6.4c0.9,2.4,0.6,5.1-0.8,7.2
				c-0.9,1.3-2.3,2.1-4.2,2.1c-4.6,0-6.4-2-6.8-2.6V40.6c0-7.2-0.2-11.8,1.5-14.1H1311c1.8,2.3,1.5,6.9,1.5,14.1v5.9
				c0,7.2,0.2,11.8-1.5,14.1h3.4c0,0,5.5,0,8.9,0c0.3,0,0.5,0,0.8,0c5.9,0,7-0.8,9.5-1.7c3.5-1.3,4.3-0.8,5.6-0.2
				c2.1,1,5.7,2.5,8.9,2.5c9.5,0,17.2-7.7,17.2-17.4C1365.4,33.9,1357.4,26,1347.9,26z M1351.6,59.4c-7.4-0.3-14.1-13.2-14.1-22
				c0-5.2,2.3-9.7,6.9-9.7c7.5,0,14.3,13.1,14.3,21.9C1358.6,55,1356.2,59.5,1351.6,59.4z"/>
		</g>
	</g>
</g>
</svg>
