<?xml version="1.0" encoding="utf-8"?>
<!-- Generator: Adobe Illustrator 22.0.0, SVG Export Plug-In . SVG Version: 6.00 Build 0)  -->
<svg version="1.1" id="Layer_1" xmlns="http://www.w3.org/2000/svg" xmlns:xlink="http://www.w3.org/1999/xlink" x="0px" y="0px"
	 viewBox="0 0 1200 1200" style="enable-background:new 0 0 1200 1200;" xml:space="preserve">
<style type="text/css">
	.st0{fill:#BACCFC;}
	.st1{fill:#3F1B0E;}
</style>
<rect class="st0" width="1200" height="1200"/>
<circle class="st1" cx="600" cy="600" r="465"/>
<g>
	<g>
		<path class="st0" d="M175,526.9h22.3l21.5,54.9c-0.4-5.3-0.3-11.1,0.2-17.5c0.6-6.4,1.9-12.4,4.2-18c2.2-5.6,5.5-10.2,9.7-13.9
			c4.2-3.7,9.8-5.5,16.8-5.5h32.8c2.2,3.1,3.8,6.4,4.8,9.9c1,3.5,1.5,7.1,1.5,10.7c0,5.8-1,11.1-3.1,15.9c-2.1,4.7-4.7,9.2-7.8,13.4
			c-3.1,4.2-6.5,8.3-10.2,12.3c-3.7,4-7.1,8.3-10.2,12.9s-5.7,9.7-7.8,15.2c-2.1,5.6-3.1,12-3.1,19.2c0,2.2,0.2,5,0.6,8.5
			c0.4,3.4,1,6.9,1.7,10.4c0.7,3.5,1.5,6.9,2.5,10.1c1,3.2,2,5.7,3.1,7.5H232L175,526.9z M224.1,573.9c0,6.3,0.5,12.2,1.5,17.8
			c1,5.6,2.3,11.1,4,16.5c1.7,5.4,3.6,10.7,5.7,16.1c2.2,5.4,4.3,10.9,6.6,16.6c-0.7-10.2,0.3-19.3,2.9-27.4
			c2.6-8.1,5.7-15.7,9.1-22.5c3.4-6.9,6.6-13.4,9.6-19.6c3-6.2,4.5-12.5,4.5-18.9c0-5.7-1.6-10.3-4.7-13.9
			c-3.1-3.5-7.6-5.3-13.5-5.3c-5.2,0-9.4,1.4-12.7,4.1c-3.3,2.7-6,6.1-7.9,10.1c-2,4-3.3,8.5-4,13.3
			C224.4,565.5,224.1,569.9,224.1,573.9z"/>
		<path class="st0" d="M301.3,526.9h20.9v146.1h-20.9V526.9z"/>
		<path class="st0" d="M363.9,673.1H343V526.9h20.9v72.8l83.3-72.8h31.7l-83.3,72.8l83.5,73.3h-31.7l-83.5-73.3V673.1z"/>
		<path class="st0" d="M489.6,526.9h20.9v146.1h-20.9V526.9z"/>
		<path class="st0" d="M528.2,624.6c0.6,4.5,2,8.5,4.4,12.2c2.4,3.7,5.3,6.8,8.7,9.4c3.4,2.6,7.2,4.6,11.5,6.1
			c4.2,1.5,8.5,2.2,12.8,2.2c3.1,0,6.1-0.4,9.1-1.3c3-0.8,5.7-2.1,8.1-3.9c2.4-1.7,4.4-3.9,5.8-6.5c1.5-2.6,2.2-5.6,2.2-9.1
			c0-4.9-1.5-8.9-4.6-12c-3.1-3.1-6.9-5.9-11.6-8.4c-4.7-2.4-9.7-4.8-15.1-7.1c-5.4-2.3-10.5-5.1-15.1-8.5
			c-4.7-3.3-8.5-7.4-11.6-12.3c-3.1-4.9-4.6-11.1-4.6-18.8c0-6.7,1.2-12.6,3.7-17.8c2.4-5.2,5.7-9.6,9.9-13.3
			c4.2-3.6,9-6.4,14.6-8.2c5.6-1.9,11.5-2.8,17.7-2.8c5.8,0,11.5,0.9,17.1,2.6c5.6,1.7,10.7,4.4,15.4,8v38.4
			c-1-8.5-4.5-15.3-10.6-20.5c-6.1-5.1-13.4-7.7-21.7-7.7c-3.1,0-6.1,0.4-9.1,1.1c-3,0.8-5.7,2-8.1,3.5c-2.4,1.6-4.4,3.7-5.8,6.2
			c-1.5,2.5-2.2,5.6-2.2,9.2c0,5.1,1.5,9.4,4.6,12.7c3.1,3.3,6.9,6.3,11.6,9c4.7,2.6,9.7,5.2,15.1,7.7c5.4,2.5,10.5,5.5,15.1,8.9
			c4.7,3.4,8.5,7.5,11.6,12.3c3.1,4.8,4.6,10.9,4.6,18.3c0,6.5-1.3,12.4-3.8,17.4c-2.5,5.1-5.8,9.4-10,12.8c-4.2,3.5-9,6.1-14.6,7.9
			c-5.6,1.8-11.4,2.7-17.5,2.7c-6.7,0-13.3-1-19.8-3.1c-6.5-2.1-12.5-5.2-17.7-9.4V624.6z"/>
		<path class="st0" d="M628.4,526.9h101.4c-5.8,1.4-12.4,3.9-19.5,7.4c-7.2,3.5-13.9,7.8-20.2,12.7c-6.3,4.9-11.6,10.5-15.9,16.7
			c-4.2,6.2-6.4,12.7-6.4,19.5c0,5.6,1.5,10.2,4.6,14c3.1,3.8,7.5,5.6,13.4,5.6c4.6,0,8.6-1.1,12-3.4c3.4-2.3,6.3-5.2,8.7-8.8
			c2.4-3.5,4.1-7.5,5.3-11.8c1.2-4.3,1.8-8.4,1.8-12.3V615c-7.2,5.7-15.4,8.6-24.4,8.6c-5,0-9.4-0.9-13.1-2.6
			c-3.8-1.7-6.9-4.1-9.4-7.2c-2.5-3.1-4.4-6.6-5.6-10.6c-1.3-4-1.9-8.4-1.9-13.1c0-8.6,1.9-16.4,5.6-23.4c3.8-7,8.8-13.2,15.2-18.8
			h-30.7v104.4h64.5v20.9h-85.4V526.9z"/>
		<path class="st0" d="M782,672.8h-22.2l-30.1-146.1H752L782,672.8z M812.1,526.7h22.2l-30.1,146.1H782L812.1,526.7z"/>
		<path class="st0" d="M884.9,672.8h-22.2l-30.1-146.1h22.2L884.9,672.8z M914.9,526.7h22.2l-30.1,146.1h-22.2L914.9,526.7z"/>
		<path class="st0" d="M941.5,624.6c0.6,4.5,2,8.5,4.4,12.2c2.4,3.7,5.3,6.8,8.7,9.4c3.4,2.6,7.2,4.6,11.5,6.1
			c4.2,1.5,8.5,2.2,12.8,2.2c3.1,0,6.1-0.4,9.1-1.3c3-0.8,5.7-2.1,8.1-3.9c2.4-1.7,4.4-3.9,5.8-6.5c1.5-2.6,2.2-5.6,2.2-9.1
			c0-4.9-1.5-8.9-4.6-12c-3.1-3.1-6.9-5.9-11.6-8.4c-4.7-2.4-9.7-4.8-15.1-7.1c-5.4-2.3-10.5-5.1-15.1-8.5
			c-4.7-3.3-8.5-7.4-11.6-12.3c-3.1-4.9-4.6-11.1-4.6-18.8c0-6.7,1.2-12.6,3.7-17.8c2.4-5.2,5.7-9.6,9.9-13.3
			c4.2-3.6,9-6.4,14.6-8.2c5.6-1.9,11.5-2.8,17.7-2.8c5.8,0,11.5,0.9,17.1,2.6c5.6,1.7,10.7,4.4,15.4,8v38.4
			c-1-8.5-4.5-15.3-10.6-20.5c-6.1-5.1-13.4-7.7-21.7-7.7c-3.1,0-6.1,0.4-9.1,1.1c-3,0.8-5.7,2-8.1,3.5c-2.4,1.6-4.4,3.7-5.8,6.2
			c-1.5,2.5-2.2,5.6-2.2,9.2c0,5.1,1.5,9.4,4.6,12.7c3.1,3.3,6.9,6.3,11.6,9c4.7,2.6,9.7,5.2,15.1,7.7c5.4,2.5,10.5,5.5,15.1,8.9
			c4.7,3.4,8.5,7.5,11.6,12.3c3.1,4.8,4.6,10.9,4.6,18.3c0,6.5-1.3,12.4-3.8,17.4c-2.5,5.1-5.8,9.4-10,12.8c-4.2,3.5-9,6.1-14.6,7.9
			c-5.6,1.8-11.4,2.7-17.5,2.7c-6.7,0-13.3-1-19.8-3.1c-6.5-2.1-12.5-5.2-17.7-9.4V624.6z"/>
	</g>
</g>
</svg>
