<?xml version="1.0" encoding="utf-8"?>
<!-- Generator: Adobe Illustrator 22.0.0, SVG Export Plug-In . SVG Version: 6.00 Build 0)  -->
<svg version="1.1" id="Layer_1" xmlns="http://www.w3.org/2000/svg" xmlns:xlink="http://www.w3.org/1999/xlink" x="0px" y="0px"
	 viewBox="0 0 2000 389.6" style="enable-background:new 0 0 2000 389.6;" xml:space="preserve">
<style type="text/css">
	.st0{fill:#A028EB;}
</style>
<g>
	<g>
		<g>
			<path class="st0" d="M737,0l186.7,186.5c4.7,4.7,4.7,12.3,0,17L737,390h194.8L1127,195L931.8,0H737z"/>
		</g>
	</g>
</g>
<g>
	<g>
		<path class="st0" d="M1156.4,0v390h390V0H1156.4z"/>
	</g>
</g>
<g>
	<g>
		<path class="st0" d="M1608,195L1608,195c0,107.7,87.3,195,195,195l0,0c107.7,0,195-87.3,195-195l0,0c0-107.7-87.3-195-195-195l0,0
			C1695.3,0,1608,87.3,1608,195z"/>
	</g>
</g>
<rect x="436" y="181.6" class="st0" width="250.4" height="26.8"/>
<g id="_x3C_Groupsymbol_x3E__5_">
	<g>
		<g>
			<path class="st0" d="M243.7-0.2H129.1C57.8-0.2,0,57.6,0,128.9v38.2c0,71.3,57.8,129.1,129.1,129.1h118.8v-60H77.2
				c-8.1,0-14.6-6.5-14.6-14.6V77c0-8.1,6.5-14.6,14.6-14.6h218.5c8.1,0,14.6,6.5,14.6,14.6v312.8h62.5V128.9
				C372.8,57.6,315-0.2,243.7-0.2z"/>
		</g>
	</g>
	<g>
		<polygon class="st0" points="169.8,141.7 93.9,141.7 223.1,266.2 94.9,389.8 170.8,389.8 291.9,266.2 		"/>
	</g>
</g>
</svg>
