<?xml version="1.0" encoding="utf-8"?>
<!-- Generator: Adobe Illustrator 22.0.0, SVG Export Plug-In . SVG Version: 6.00 Build 0)  -->
<svg version="1.1" id="Layer_1" xmlns="http://www.w3.org/2000/svg" xmlns:xlink="http://www.w3.org/1999/xlink" x="0px" y="0px"
	 viewBox="0 0 2000 250" style="enable-background:new 0 0 2000 250;" xml:space="preserve">
<style type="text/css">
	.st0{fill:#A028EB;}
</style>
<g>
	<g>
		<path class="st0" d="M1000,100h-55.6c-3.3,0-5-4-2.7-6.4l39.3-39.3l-35.4-35.4l-39.3,39.3c-2.4,2.4-6.4,0.7-6.4-2.7V0h-50v55.6
			c0,3.3-4,5-6.4,2.7l-39.3-39.3l-35.4,35.4l39.3,39.3c2.4,2.4,0.7,6.4-2.7,6.4H750v50h55.6c3.3,0,5,4,2.7,6.4l-39.3,39.3l35.4,35.4
			l39.3-39.3c2.4-2.4,6.4-0.7,6.4,2.7V250h50v-55.6c0-3.3,4-5,6.4-2.7l39.3,39.3l35.4-35.4l-39.3-39.3c-2.4-2.4-0.7-6.4,2.7-6.4
			h55.6V100z"/>
	</g>
	<g>
		<g>
			<path class="st0" d="M1250,0v250h250V0H1250z M1445.6,203.1h-141.3c-4.1,0-7.5-3.4-7.5-7.5V54.4c0-4.1,3.4-7.5,7.5-7.5h141.3
				c4.1,0,7.5,3.4,7.5,7.5v141.3C1453.1,199.8,1449.8,203.1,1445.6,203.1z"/>
		</g>
	</g>
	<g>
		<g>
			<path class="st0" d="M1625,0L1625,0c-69,0-125,56-125,125v0c0,69,56,125,125,125h0c69,0,125-56,125-125v0C1750,56,1694,0,1625,0z
				 M1700,125c0,41.4-33.6,75-75,75h0c-41.4,0-75-33.6-75-75v0c0-41.4,33.6-75,75-75h0C1666.4,50,1700,83.6,1700,125L1700,125z"/>
		</g>
	</g>
	<g>
		<g>
			<g>
				<path class="st0" d="M555.6,192.7L500,250h64.3l60.7-62.5l-55.6-57.3c-2.8-2.9-2.8-7.5,0-10.4L625,62.5L564.3,0H500l55.6,57.3
					c2.8,2.9,2.8,7.5,0,10.4L500,125l55.6,57.3C558.4,185.2,558.4,189.8,555.6,192.7z"/>
			</g>
			<g>
				<path class="st0" d="M680.6,192.7L625,250h64.3l60.7-62.5l-55.6-57.3c-2.8-2.9-2.8-7.5,0-10.4L750,62.5L689.3,0H625l55.6,57.3
					c2.8,2.9,2.8,7.5,0,10.4L625,125l55.6,57.3C683.4,185.2,683.4,189.8,680.6,192.7z"/>
			</g>
		</g>
	</g>
	<g>
		<g>
			<g>
				<path class="st0" d="M1875,0L1875,0l0,50h0c41.4,0,75,33.6,75,75v0c0,41.4-33.6,75-75,75h0v50h0c69,0,125-56,125-125v0
					C2000,56,1944,0,1875,0z"/>
			</g>
			<g>
				<path class="st0" d="M1750,50c41.4,0,75,33.6,75,75v0c0,41.4-33.6,75-75,75h0v50h0c69,0,125-56,125-125v0c0-69-56-125-125-125h0
					L1750,50L1750,50z"/>
			</g>
		</g>
	</g>
	<g>
		<g>
			<path class="st0" d="M304.4,0H250l125,125V9.1c0-3.3,4-5,6.4-2.7L500,125V0h-74.4H304.4z"/>
			<path class="st0" d="M304.4,125H250l125,125V134.1c0-3.3,4-5,6.4-2.7L500,250V125h-74.4H304.4z"/>
		</g>
	</g>
	<g>
		<g>
			<path class="st0" d="M1125,0h-61.9l119.7,119.7c2.9,2.9,2.9,7.7,0,10.6L1063.1,250h61.9l125-125L1125,0z"/>
		</g>
		<g>
			<path class="st0" d="M1000,0v62.3l57.4,57.4c2.9,2.9,2.9,7.7,0,10.6l-57.4,57.4V250l125-125L1000,0z"/>
		</g>
	</g>
	<g>
		<path class="st0" d="M67.8,67.6c-2.9-2.9-2.9-7.7,0-10.6l57.1-57H0v0.1l57.2,57.3c2.9,2.9,2.9,7.7,0,10.6L0.1,125H0v0.1l57.2,57.3
			c2.9,2.9,2.9,7.7,0,10.6L0.1,250H125v-0.1l-57.2-57.3c-2.9-2.9-2.9-7.7,0-10.6l57.1-57h0.1v-0.1L67.8,67.6z"/>
		<path class="st0" d="M249.9,125L249.9,125L249.9,125l-57.1-57.4c-2.9-2.9-2.9-7.7,0-10.6l57.1-57H125v0.1l57.2,57.3
			c2.9,2.9,2.9,7.7,0,10.6l-57.1,57H125v0.1l57.2,57.3c2.9,2.9,2.9,7.7,0,10.6l-57.1,57H250v-0.1l-57.2-57.3
			c-2.9-2.9-2.9-7.7,0-10.6L249.9,125z"/>
	</g>
</g>
</svg>
