<?xml version="1.0" encoding="utf-8"?>
<!-- Generator: Adobe Illustrator 22.0.0, SVG Export Plug-In . SVG Version: 6.00 Build 0)  -->
<svg version="1.1" id="Layer_1" xmlns="http://www.w3.org/2000/svg" xmlns:xlink="http://www.w3.org/1999/xlink" x="0px" y="0px"
	 viewBox="0 0 2000 250" style="enable-background:new 0 0 2000 250;" xml:space="preserve">
<style type="text/css">
	.st0{fill:#A028EB;}
</style>
<g>
	<g>
		<g>
			<g>
				<g>
					<rect x="850" class="st0" width="50" height="250"/>
				</g>
				<g>
					<rect x="750" y="100" class="st0" width="250" height="50"/>
				</g>
			</g>
			<g>
				<g>
					
						<rect x="750" y="100" transform="matrix(0.7071 -0.7071 0.7071 0.7071 167.8932 655.3301)" class="st0" width="250" height="50"/>
				</g>
				<g>
					
						<rect x="850" y="0" transform="matrix(0.7071 -0.7071 0.7071 0.7071 167.8932 655.3301)" class="st0" width="50" height="250"/>
				</g>
			</g>
		</g>
	</g>
	<g>
		<g>
			<path class="st0" d="M1250,0v250h250V0H1250z M1453.1,203.1h-156.3V46.9h156.3V203.1z"/>
		</g>
	</g>
	<g>
		<g>
			<path class="st0" d="M1625,0L1625,0c-69,0-125,56-125,125v0c0,69,56,125,125,125h0c69,0,125-56,125-125v0C1750,56,1694,0,1625,0z
				 M1700,125c0,41.4-33.6,75-75,75h0c-41.4,0-75-33.6-75-75v0c0-41.4,33.6-75,75-75h0C1666.4,50,1700,83.6,1700,125L1700,125z"/>
		</g>
	</g>
	<g>
		<g>
			<g>
				<polygon class="st0" points="560.7,187.5 500,250 564.3,250 625,187.5 564.3,125 625,62.5 564.3,0 500,0 560.7,62.5 500,125 
									"/>
			</g>
			<g>
				<polygon class="st0" points="685.7,187.5 625,250 689.3,250 750,187.5 689.3,125 750,62.5 689.3,0 625,0 685.7,62.5 625,125 
									"/>
			</g>
		</g>
	</g>
	<g>
		<g>
			<g>
				<polygon class="st0" points="1125,0 1058.8,0 1183.8,125 1058.8,250 1125,250 1250,125 				"/>
			</g>
			<g>
				<polygon class="st0" points="1000,0 1000,66.3 1058.8,125 1000,183.8 1000,250 1125,125 				"/>
			</g>
		</g>
	</g>
	<g>
		<g>
			<g>
				<path class="st0" d="M1875,0L1875,0l0,50h0c41.4,0,75,33.6,75,75v0c0,41.4-33.6,75-75,75h0v50h0c69,0,125-56,125-125v0
					C2000,56,1944,0,1875,0z"/>
			</g>
			<g>
				<path class="st0" d="M1750,50c41.4,0,75,33.6,75,75v0c0,41.4-33.6,75-75,75h0v50h0c69,0,125-56,125-125v0c0-69-56-125-125-125h0
					L1750,50L1750,50z"/>
			</g>
		</g>
	</g>
	<g>
		<g>
			<g>
				<polygon class="st0" points="250,125 375,250 375,125 				"/>
			</g>
			<g>
				<polygon class="st0" points="375,0 500,125 500,0 				"/>
			</g>
			<g>
				<polygon class="st0" points="250,0 375,125 375,0 				"/>
			</g>
			<g>
				<polygon class="st0" points="375,125 500,250 500,125 				"/>
			</g>
		</g>
	</g>
	<g>
		<polygon class="st0" points="250,0 125,0 187.5,62.5 		"/>
		
			<rect x="143.3" y="80.8" transform="matrix(0.7071 -0.7071 0.7071 0.7071 -33.4709 169.1942)" class="st0" width="88.4" height="88.4"/>
		<polygon class="st0" points="250,250 187.5,187.5 125,250 		"/>
		<polygon class="st0" points="0,250 125,250 62.5,187.5 		"/>
		<polygon class="st0" points="0,0 62.5,62.5 125,0 		"/>
		
			<rect x="18.3" y="80.8" transform="matrix(0.7071 -0.7071 0.7071 0.7071 -70.0825 80.8058)" class="st0" width="88.4" height="88.4"/>
	</g>
</g>
<g>
	<g>
		<g>
			<g>
				<g>
					<g>
						<rect x="890.5" y="1190" class="st0" width="25" height="250"/>
					</g>
					<g>
						<rect x="778" y="1302.5" class="st0" width="250" height="25"/>
					</g>
				</g>
			</g>
		</g>
		<g>
			<g>
				<g>
					<g>
						
							<rect x="778" y="1302.5" transform="matrix(0.7071 -0.7071 0.7071 0.7071 -665.3629 1023.672)" class="st0" width="250" height="25"/>
					</g>
					<g>
						
							<rect x="890.5" y="1190" transform="matrix(0.7071 -0.7071 0.7071 0.7071 -665.3629 1023.672)" class="st0" width="25" height="250"/>
					</g>
				</g>
			</g>
		</g>
	</g>
	<g>
		<g>
			<g>
				<polygon class="st0" points="778,1252.5 715.9,1190 684.3,1190 746.3,1252.5 684.3,1315 746.3,1377.5 684.3,1440 715.9,1440 
					778,1377.5 715.9,1315 				"/>
			</g>
			<g>
				<polygon class="st0" points="621.8,1252.5 559.7,1190 528,1190 590.1,1252.5 528,1315 590.1,1377.5 528,1440 559.7,1440 
					621.8,1377.5 559.7,1315 				"/>
			</g>
			<g>
				<polygon class="st0" points="699.5,1252.5 637.4,1190 605.8,1190 667.8,1252.5 605.8,1315 667.8,1377.5 605.8,1440 637.4,1440 
					699.5,1377.5 637.4,1315 				"/>
			</g>
		</g>
	</g>
	<g>
		<g>
			<g>
				<polygon class="st0" points="1153,1190 1118.6,1190 1243.6,1315 1118.6,1440 1153,1440 1278,1315 				"/>
			</g>
			<g>
				<polygon class="st0" points="1089.9,1190 1055.5,1190 1180.5,1315 1055.5,1440 1089.9,1440 1214.9,1315 				"/>
			</g>
			<g>
				<polygon class="st0" points="1028,1190 1028,1224.4 1118.6,1315 1028,1405.6 1028,1440 1153,1315 				"/>
			</g>
		</g>
	</g>
	<g>
		<g>
			<g>
				<polygon class="st0" points="340.5,1315 403,1377.5 403,1315 				"/>
			</g>
			<g>
				<polygon class="st0" points="403,1377.5 465.5,1440 465.5,1377.5 				"/>
			</g>
			<g>
				<polygon class="st0" points="403,1315 465.5,1377.5 465.5,1315 				"/>
			</g>
			<g>
				<polygon class="st0" points="465.5,1315 528,1377.5 528,1315 				"/>
			</g>
			<g>
				<polygon class="st0" points="465.5,1377.5 528,1440 528,1377.5 				"/>
			</g>
			<g>
				<polygon class="st0" points="340.5,1377.5 403,1440 403,1377.5 				"/>
			</g>
			<g>
				<polygon class="st0" points="278,1377.5 340.5,1440 340.5,1377.5 				"/>
			</g>
			<g>
				<polygon class="st0" points="278,1315 340.5,1377.5 340.5,1315 				"/>
			</g>
			<g>
				<polygon class="st0" points="278,1252.5 340.5,1315 340.5,1252.5 				"/>
			</g>
			<g>
				<polygon class="st0" points="278,1190 340.5,1252.5 340.5,1190 				"/>
			</g>
			<g>
				<polygon class="st0" points="340.5,1252.5 403,1315 403,1252.5 				"/>
			</g>
			<g>
				<polygon class="st0" points="340.5,1190 403,1252.5 403,1190 				"/>
			</g>
			<g>
				<polygon class="st0" points="403,1252.5 465.5,1315 465.5,1252.5 				"/>
			</g>
			<g>
				<polygon class="st0" points="465.5,1190 528,1252.5 528,1190 				"/>
			</g>
			<g>
				<polygon class="st0" points="403,1190 465.5,1252.5 465.5,1190 				"/>
			</g>
			<g>
				<polygon class="st0" points="465.5,1252.5 528,1315 528,1252.5 				"/>
			</g>
		</g>
	</g>
	<g>
		<g>
			<g>
				<path class="st0" d="M1278,1190v250h250v-250H1278z M1503,1415h-200v-200h200V1415z"/>
			</g>
		</g>
		<path class="st0" d="M1331.1,1243.1v143.8h143.8v-143.8H1331.1z M1449.9,1361.9h-93.8v-93.8h93.8V1361.9z"/>
	</g>
	<g>
		<g>
			<g>
				<path class="st0" d="M1653,1190L1653,1190c-69,0-125,56-125,125v0c0,69,56,125,125,125h0c69,0,125-56,125-125v0
					C1778,1246,1722,1190,1653,1190z M1753,1315c0,55.2-44.8,100-100,100h0c-55.2,0-100-44.8-100-100v0c0-55.2,44.8-100,100-100h0
					C1708.2,1215,1753,1259.8,1753,1315L1753,1315z"/>
			</g>
		</g>
		<path class="st0" d="M1653,1243.1c-39.7,0-71.9,32.2-71.9,71.9s32.2,71.9,71.9,71.9s71.9-32.2,71.9-71.9
			S1692.7,1243.1,1653,1243.1z M1653,1361.3c-25.5,0-46.3-20.7-46.3-46.3s20.7-46.3,46.3-46.3s46.3,20.7,46.3,46.3
			S1678.5,1361.3,1653,1361.3z"/>
	</g>
	<g>
		<g>
			<g>
				<path class="st0" d="M1903,1190L1903,1190l0,25h0c55.2,0,100,44.8,100,100v0c0,55.2-44.8,100-100,100h0v25h0
					c69,0,125-56,125-125v0C2028,1246,1972,1190,1903,1190z"/>
			</g>
			<path class="st0" d="M1974.9,1315c0-39.7-32.2-71.9-71.9-71.9v25.6c25.5,0,46.3,20.7,46.3,46.3s-20.7,46.3-46.3,46.3v25.6
				C1942.7,1386.9,1974.9,1354.7,1974.9,1315z"/>
		</g>
		<g>
			<g>
				<path class="st0" d="M1778,1190L1778,1190l0,25h0c55.2,0,100,44.8,100,100v0c0,55.2-44.8,100-100,100h0v25h0
					c69,0,125-56,125-125v0C1903,1246,1847,1190,1778,1190z"/>
			</g>
			<path class="st0" d="M1849.9,1315c0-39.7-32.2-71.9-71.9-71.9v25.6c25.5,0,46.3,20.7,46.3,46.3s-20.7,46.3-46.3,46.3v25.6
				C1817.7,1386.9,1849.9,1354.7,1849.9,1315z"/>
		</g>
	</g>
	<g>
		<polygon class="st0" points="278,1190 215.5,1190 246.8,1221.3 		"/>
		
			<rect x="224.7" y="1230.4" transform="matrix(0.7071 -0.7071 0.7071 0.7071 -813.3798 541.3273)" class="st0" width="44.2" height="44.2"/>
		<polygon class="st0" points="215.5,1190 153,1190 184.3,1221.3 		"/>
		
			<rect x="162.2" y="1230.4" transform="matrix(0.7071 -0.7071 0.7071 0.7071 -831.6857 497.1332)" class="st0" width="44.2" height="44.2"/>
		<polygon class="st0" points="153,1190 90.5,1190 121.8,1221.3 		"/>
		
			<rect x="99.7" y="1230.4" transform="matrix(0.7071 -0.7071 0.7071 0.7071 -849.9915 452.939)" class="st0" width="44.2" height="44.2"/>
		
			<rect x="99.7" y="1292.9" transform="matrix(0.7071 -0.7071 0.7071 0.7071 -894.1857 471.2448)" class="st0" width="44.2" height="44.2"/>
		
			<rect x="37.2" y="1292.9" transform="matrix(0.7071 -0.7071 0.7071 0.7071 -912.4915 427.0507)" class="st0" width="44.2" height="44.2"/>
		<polygon class="st0" points="28,1190 59.3,1221.3 90.5,1190 		"/>
		
			<rect x="37.2" y="1230.4" transform="matrix(0.7071 -0.7071 0.7071 0.7071 -868.2973 408.7448)" class="st0" width="44.2" height="44.2"/>
		
			<rect x="224.7" y="1292.9" transform="matrix(0.7071 -0.7071 0.7071 0.7071 -857.574 559.6332)" class="st0" width="44.2" height="44.2"/>
		
			<rect x="224.7" y="1355.4" transform="matrix(0.7071 -0.7071 0.7071 0.7071 -901.7682 577.939)" class="st0" width="44.2" height="44.2"/>
		<polygon class="st0" points="278,1440 246.8,1408.8 215.5,1440 		"/>
		<polygon class="st0" points="153,1440 215.5,1440 184.3,1408.8 		"/>
		
			<rect x="162.2" y="1292.9" transform="matrix(0.7071 -0.7071 0.7071 0.7071 -875.8798 515.439)" class="st0" width="44.2" height="44.2"/>
		
			<rect x="162.2" y="1355.4" transform="matrix(0.7071 -0.7071 0.7071 0.7071 -920.074 533.7448)" class="st0" width="44.2" height="44.2"/>
		
			<rect x="99.7" y="1355.4" transform="matrix(0.7071 -0.7071 0.7071 0.7071 -938.3798 489.5507)" class="st0" width="44.2" height="44.2"/>
		<polygon class="st0" points="90.5,1440 153,1440 121.8,1408.8 		"/>
		<polygon class="st0" points="28,1440 90.5,1440 59.3,1408.8 		"/>
		
			<rect x="37.2" y="1355.4" transform="matrix(0.7071 -0.7071 0.7071 0.7071 -956.6857 445.3565)" class="st0" width="44.2" height="44.2"/>
	</g>
</g>
</svg>
