<?xml version="1.0" encoding="utf-8"?>
<!-- Generator: Adobe Illustrator 22.0.0, SVG Export Plug-In . SVG Version: 6.00 Build 0)  -->
<svg version="1.1" id="Layer_1" xmlns="http://www.w3.org/2000/svg" xmlns:xlink="http://www.w3.org/1999/xlink" x="0px" y="0px"
	 viewBox="0 0 2000 389.6" style="enable-background:new 0 0 2000 389.6;" xml:space="preserve">
<style type="text/css">
	.st0{fill:#A028EB;}
</style>
<g>
	<g>
		<g>
			<polygon class="st0" points="737,0 932.2,195 737,390 931.8,390 1127,195 931.8,0 			"/>
		</g>
	</g>
</g>
<g>
	<g>
		<path class="st0" d="M1156.4,0v390h390V0H1156.4z"/>
	</g>
</g>
<g>
	<g>
		<path class="st0" d="M1608,195L1608,195c0,107.7,87.3,195,195,195h0c107.7,0,195-87.3,195-195v0c0-107.7-87.3-195-195-195h0
			C1695.3,0,1608,87.3,1608,195z"/>
	</g>
</g>
<g id="_x3C_Groupsymbol_x3E__2_">
	<g>
		<polygon class="st0" points="165.7,141.9 87.7,141.9 218.6,265.9 81.1,390 159.1,390 291.6,265.9 		"/>
	</g>
	<g>
		<g>
			<path class="st0" d="M232.1,0H129.1C57.8,0,0,57.8,0,129.1v38.2c0,71.3,57.8,129.1,129.1,129.1h107.2v-60H67c-3.8,0-7-3.1-7-7V67
				c0-3.8,3.1-7,7-7h227.2c3.8,0,7,3.1,7,7v323h60V129.1C361.2,57.8,303.4,0,232.1,0z"/>
		</g>
	</g>
</g>
<rect x="430" y="181.6" class="st0" width="250.4" height="26.8"/>
</svg>
