<?xml version="1.0" encoding="utf-8"?>
<!-- Generator: Adobe Illustrator 22.0.0, SVG Export Plug-In . SVG Version: 6.00 Build 0)  -->
<svg version="1.1" id="Layer_1" xmlns="http://www.w3.org/2000/svg" xmlns:xlink="http://www.w3.org/1999/xlink" x="0px" y="0px"
	 viewBox="0 0 2000 250" style="enable-background:new 0 0 2000 250;" xml:space="preserve">
<style type="text/css">
	.st0{fill:#A028EB;}
</style>
<g>
	<g>
		<path class="st0" d="M1000,112.5h-82.8c-4.5,0-6.7-5.4-3.5-8.5l58.5-58.5l-17.7-17.7L896,86.3c-3.1,3.1-8.5,0.9-8.5-3.5V0h-25
			v82.8c0,4.5-5.4,6.7-8.5,3.5l-58.5-58.5l-17.7,17.7l58.5,58.5c3.1,3.1,0.9,8.5-3.5,8.5H750v25h82.8c4.5,0,6.7,5.4,3.5,8.5
			l-58.5,58.5l17.7,17.7l58.5-58.5c3.1-3.1,8.5-0.9,8.5,3.5V250h25v-82.8c0-4.5,5.4-6.7,8.5-3.5l58.5,58.5l17.7-17.7L913.7,146
			c-3.1-3.1-0.9-8.5,3.5-8.5h82.8V112.5z"/>
	</g>
	<g>
		<g>
			<g>
				<path class="st0" d="M750,62.5L687.9,0h-34.8l55.5,55.9c3.6,3.7,3.6,9.6,0,13.2L653.1,125l55.5,55.9c3.6,3.7,3.6,9.6,0,13.2
					L653.1,250h34.8l62.1-62.5l-55.5-55.9c-3.6-3.7-3.6-9.6,0-13.2L750,62.5z"/>
			</g>
			<g>
				<path class="st0" d="M673.4,62.5L611.4,0h-34.8l55.5,55.9c3.6,3.7,3.6,9.6,0,13.2L576.6,125l55.5,55.9c3.6,3.7,3.6,9.6,0,13.2
					L576.6,250h34.8l62.1-62.5l-55.5-55.9c-3.6-3.7-3.6-9.6,0-13.2L673.4,62.5z"/>
			</g>
			<g>
				<path class="st0" d="M596.9,62.5L534.8,0H500l55.5,55.9c3.6,3.7,3.6,9.6,0,13.2L500,125l55.5,55.9c3.6,3.7,3.6,9.6,0,13.2
					L500,250h34.8l62.1-62.5l-55.5-55.9c-3.6-3.7-3.6-9.6,0-13.2L596.9,62.5z"/>
			</g>
		</g>
	</g>
	<g>
		<g>
			<g>
				<path class="st0" d="M1125,0h-34.4L1209,118.4c3.7,3.7,3.7,9.6,0,13.3L1090.6,250h34.4l125-125L1125,0z"/>
			</g>
			<g>
				<path class="st0" d="M1061.9,0h-34.4l118.4,118.4c3.7,3.7,3.7,9.6,0,13.3L1027.5,250h34.4l125-125L1061.9,0z"/>
			</g>
			<g>
				<path class="st0" d="M1000,0v34.4l84,84c3.7,3.7,3.7,9.6,0,13.3l-84,84V250l125-125L1000,0z"/>
			</g>
		</g>
	</g>
	<g>
		<g>
			<path class="st0" d="M250,0l62.5,62.5V12.1c0-4.5,5.4-6.7,8.5-3.5l54,54V12.1c0-4.5,5.4-6.7,8.5-3.5l54,54V12.1
				c0-4.5,5.4-6.7,8.5-3.5l54,54V0H250z"/>
			<path class="st0" d="M250,62.5l62.5,62.5V74.6c0-4.5,5.4-6.7,8.5-3.5l54,54V74.6c0-4.5,5.4-6.7,8.5-3.5l54,54V74.6
				c0-4.5,5.4-6.7,8.5-3.5l54,54V62.5H250z"/>
		</g>
		<g>
			<path class="st0" d="M250,125l62.5,62.5v-50.4c0-4.5,5.4-6.7,8.5-3.5l54,54v-50.4c0-4.5,5.4-6.7,8.5-3.5l54,54v-50.4
				c0-4.5,5.4-6.7,8.5-3.5l54,54V125H250z"/>
			<path class="st0" d="M250,187.5l62.5,62.5v-50.4c0-4.5,5.4-6.7,8.5-3.5l54,54v-50.4c0-4.5,5.4-6.7,8.5-3.5l54,54v-50.4
				c0-4.5,5.4-6.7,8.5-3.5l54,54v-62.5H250z"/>
		</g>
	</g>
	<g>
		<g>
			<g>
				<path class="st0" d="M1250,0v250h250V0H1250z M1465.6,225h-181.3c-5.2,0-9.4-4.2-9.4-9.4V34.4c0-5.2,4.2-9.4,9.4-9.4h181.3
					c5.2,0,9.4,4.2,9.4,9.4v181.3C1475,220.8,1470.8,225,1465.6,225z"/>
			</g>
		</g>
		<path class="st0" d="M1303.1,53.1v143.8h143.8V53.1H1303.1z M1412.5,171.9h-75c-5.2,0-9.4-4.2-9.4-9.4v-75c0-5.2,4.2-9.4,9.4-9.4
			h75c5.2,0,9.4,4.2,9.4,9.4v75C1421.9,167.7,1417.7,171.9,1412.5,171.9z"/>
	</g>
	<g>
		<g>
			<g>
				<path class="st0" d="M1625,0L1625,0c-69,0-125,56-125,125v0c0,69,56,125,125,125h0c69,0,125-56,125-125v0C1750,56,1694,0,1625,0
					z M1725,125c0,55.2-44.8,100-100,100h0c-55.2,0-100-44.8-100-100v0c0-55.2,44.8-100,100-100h0C1680.2,25,1725,69.8,1725,125
					L1725,125z"/>
			</g>
		</g>
		<path class="st0" d="M1625,53.1c-39.7,0-71.9,32.2-71.9,71.9s32.2,71.9,71.9,71.9s71.9-32.2,71.9-71.9S1664.7,53.1,1625,53.1z
			 M1625,171.3c-25.5,0-46.3-20.7-46.3-46.3c0-25.5,20.7-46.3,46.3-46.3s46.3,20.7,46.3,46.3C1671.3,150.5,1650.5,171.3,1625,171.3z
			"/>
	</g>
	<g>
		<g>
			<g>
				<path class="st0" d="M1875,0L1875,0l0,25h0c55.2,0,100,44.8,100,100v0c0,55.2-44.8,100-100,100h0v25h0c69,0,125-56,125-125v0
					C2000,56,1944,0,1875,0z"/>
			</g>
			<path class="st0" d="M1946.9,125c0-39.7-32.2-71.9-71.9-71.9v25.6c25.5,0,46.3,20.7,46.3,46.3c0,25.5-20.7,46.3-46.3,46.3v25.6
				C1914.7,196.9,1946.9,164.7,1946.9,125z"/>
		</g>
		<g>
			<g>
				<path class="st0" d="M1750,0L1750,0l0,25h0c55.2,0,100,44.8,100,100v0c0,55.2-44.8,100-100,100h0v25h0c69,0,125-56,125-125v0
					C1875,56,1819,0,1750,0z"/>
			</g>
			<path class="st0" d="M1821.9,125c0-39.7-32.2-71.9-71.9-71.9v25.6c25.5,0,46.3,20.7,46.3,46.3c0,25.5-20.7,46.3-46.3,46.3v25.6
				C1789.7,196.9,1821.9,164.7,1821.9,125z"/>
		</g>
	</g>
	<g>
		<path class="st0" d="M250,0.1L250,0.1L187.6,0l24.5,24.5c3.7,3.7,3.7,9.6,0,13.3l-24.6,24.6v0.1h0.1L212.1,87
			c3.7,3.7,3.7,9.6,0,13.3l-24.6,24.6v0.1h0.1l24.5,24.5c3.7,3.7,3.7,9.6,0,13.3l-24.6,24.6v0.1h0.1l24.5,24.5
			c3.7,3.7,3.7,9.6,0,13.3l-24.6,24.6v0.1h62.4l-24.5-24.5c-3.7-3.7-3.7-9.6,0-13.3l24.6-24.6v-0.1h-0.1L225.4,163
			c-3.7-3.7-3.7-9.6,0-13.3l24.6-24.6V125h-0.1l-24.5-24.5c-3.7-3.7-3.7-9.6,0-13.3L250,62.6v-0.1h-0.1L225.4,38
			c-3.7-3.7-3.7-9.6,0-13.3L250,0.1z"/>
		<path class="st0" d="M37.9,163c-3.7-3.7-3.7-9.6,0-13.3l24.6-24.6V125h-0.1l-24.5-24.5c-3.7-3.7-3.7-9.6,0-13.3l24.6-24.6v-0.1
			h-0.1L37.9,38c-3.7-3.7-3.7-9.6,0-13.3L62.5,0.1V0H0.1l24.5,24.5c3.7,3.7,3.7,9.6,0,13.3L0,62.4v0.1h0.1L24.6,87
			c3.7,3.7,3.7,9.6,0,13.3L0,124.9v0.1h0.1l24.5,24.5c3.7,3.7,3.7,9.6,0,13.3L0,187.4v0.1h0.1L24.6,212c3.7,3.7,3.7,9.6,0,13.3
			L0,249.9v0.1h62.4l-24.5-24.5c-3.7-3.7-3.7-9.6,0-13.3l24.6-24.6v-0.1h-0.1L37.9,163z"/>
		<path class="st0" d="M100.4,163c-3.7-3.7-3.7-9.6,0-13.3l24.6-24.6V125h-0.1l-24.5-24.5c-3.7-3.7-3.7-9.6,0-13.3L125,62.6v-0.1
			h-0.1L100.4,38c-3.7-3.7-3.7-9.6,0-13.3L125,0.1V0H62.6l24.5,24.5c3.7,3.7,3.7,9.6,0,13.3L62.5,62.4v0.1h0.1L87.1,87
			c3.7,3.7,3.7,9.6,0,13.3l-24.6,24.6v0.1h0.1l24.5,24.5c3.7,3.7,3.7,9.6,0,13.3l-24.6,24.6v0.1h0.1L87.1,212
			c3.7,3.7,3.7,9.6,0,13.3l-24.6,24.6v0.1h62.4l-24.5-24.5c-3.7-3.7-3.7-9.6,0-13.3l24.6-24.6v-0.1h-0.1L100.4,163z"/>
		<path class="st0" d="M162.9,163c-3.7-3.7-3.7-9.6,0-13.3l24.6-24.6V125h-0.1l-24.5-24.5c-3.7-3.7-3.7-9.6,0-13.3l24.6-24.6v-0.1
			h-0.1L162.9,38c-3.7-3.7-3.7-9.6,0-13.3l24.6-24.6V0h-62.4l24.5,24.5c3.7,3.7,3.7,9.6,0,13.3L125,62.4v0.1h0.1L149.6,87
			c3.7,3.7,3.7,9.6,0,13.3L125,124.9v0.1h0.1l24.5,24.5c3.7,3.7,3.7,9.6,0,13.3L125,187.4v0.1h0.1l24.5,24.5c3.7,3.7,3.7,9.6,0,13.3
			L125,249.9v0.1h62.4l-24.5-24.5c-3.7-3.7-3.7-9.6,0-13.3l24.6-24.6v-0.1h-0.1L162.9,163z"/>
	</g>
</g>
</svg>
