<?xml version="1.0" encoding="utf-8"?>
<!-- Generator: Adobe Illustrator 22.0.0, SVG Export Plug-In . SVG Version: 6.00 Build 0)  -->
<svg version="1.1" id="Layer_1" xmlns="http://www.w3.org/2000/svg" xmlns:xlink="http://www.w3.org/1999/xlink" x="0px" y="0px"
	 viewBox="0 0 2000 389.6" style="enable-background:new 0 0 2000 389.6;" xml:space="preserve">
<style type="text/css">
	.st0{fill:#A028EB;}
</style>
<g>
	<g>
		<g>
			<path class="st0" d="M737,0l186.7,186.5c4.7,4.7,4.7,12.3,0,17L737,390h194.8L1127,195L931.8,0H737z"/>
		</g>
	</g>
</g>
<g>
	<g>
		<path class="st0" d="M1156.4,0v390h390V0H1156.4z"/>
	</g>
</g>
<g>
	<g>
		<path class="st0" d="M1608,195L1608,195c0,107.7,87.3,195,195,195l0,0c107.7,0,195-87.3,195-195l0,0c0-107.7-87.3-195-195-195l0,0
			C1695.3,0,1608,87.3,1608,195z"/>
	</g>
</g>
<rect x="436" y="181.6" class="st0" width="250.4" height="26.8"/>
<g id="_x3C_Groupsymbol_x3E__6_">
	<g>
		<path class="st0" d="M243.7,0H129.1C57.8,0,0,57.8,0,129.1v38.2c0,71.3,57.8,129.1,129.1,129.1h118.8v-60H75.1
			c-7.9,0-14.3-6.4-14.3-14.3V75.1c0-7.9,6.4-14.3,14.3-14.3h222.6c7.9,0,14.3,6.4,14.3,14.3V390h60.8V129.1
			C372.8,57.8,315,0,243.7,0z"/>
	</g>
	<polygon class="st0" points="169.8,141.9 93.9,141.9 223.1,266.4 94.9,390 170.8,390 294.4,266.4 	"/>
</g>
</svg>
