<?xml version="1.0" encoding="utf-8"?>
<!-- Generator: Adobe Illustrator 22.0.0, SVG Export Plug-In . SVG Version: 6.00 Build 0)  -->
<svg version="1.1" id="Layer_1" xmlns="http://www.w3.org/2000/svg" xmlns:xlink="http://www.w3.org/1999/xlink" x="0px" y="0px"
	 viewBox="0 0 2000 250" style="enable-background:new 0 0 2000 250;" xml:space="preserve">
<style type="text/css">
	.st0{fill:#A028EB;}
</style>
<g>
	<g>
		<path class="st0" d="M1000,112.5h-85.8c-3.3,0-5-4-2.7-6.4l60.6-60.6l-17.7-17.7l-60.6,60.6c-2.4,2.4-6.4,0.7-6.4-2.7V0h-25v85.8
			c0,3.3-4,5-6.4,2.7l-60.6-60.6l-17.7,17.7l60.6,60.6c2.4,2.4,0.7,6.4-2.7,6.4H750v25h85.8c3.3,0,5,4,2.7,6.4l-60.6,60.6l17.7,17.7
			l60.6-60.6c2.4-2.4,6.4-0.7,6.4,2.7V250h25v-85.8c0-3.3,4-5,6.4-2.7l60.6,60.6l17.7-17.7l-60.6-60.6c-2.4-2.4-0.7-6.4,2.7-6.4
			h85.8V112.5z"/>
	</g>
	<g>
		<g>
			<g>
				<path class="st0" d="M750,62.5L687.9,0h-31.7l56.8,57.2c2.9,2.9,2.9,7.6,0,10.6L656.3,125l56.8,57.2c2.9,2.9,2.9,7.6,0,10.6
					L656.3,250h31.7l62.1-62.5l-56.8-57.2c-2.9-2.9-2.9-7.6,0-10.6L750,62.5z"/>
			</g>
			<g>
				<path class="st0" d="M593.8,62.5L531.7,0H500l56.8,57.2c2.9,2.9,2.9,7.6,0,10.6L500,125l56.8,57.2c2.9,2.9,2.9,7.6,0,10.6
					L500,250h31.7l62.1-62.5l-56.8-57.2c-2.9-2.9-2.9-7.6,0-10.6L593.8,62.5z"/>
			</g>
			<g>
				<path class="st0" d="M671.5,62.5L609.4,0h-31.7l56.8,57.2c2.9,2.9,2.9,7.6,0,10.6L577.8,125l56.8,57.2c2.9,2.9,2.9,7.6,0,10.6
					L577.8,250h31.7l62.1-62.5l-56.8-57.2c-2.9-2.9-2.9-7.6,0-10.6L671.5,62.5z"/>
			</g>
		</g>
	</g>
	<g>
		<g>
			<g>
				<path class="st0" d="M1125,0h-34.4l119.7,119.7c2.9,2.9,2.9,7.7,0,10.6L1090.6,250h34.4l125-125L1125,0z"/>
			</g>
			<g>
				<path class="st0" d="M1061.9,0h-34.4l119.7,119.7c2.9,2.9,2.9,7.7,0,10.6L1027.5,250h34.4l125-125L1061.9,0z"/>
			</g>
			<g>
				<path class="st0" d="M1000,0v34.4l85.3,85.3c2.9,2.9,2.9,7.7,0,10.6l-85.3,85.3V250l125-125L1000,0z"/>
			</g>
		</g>
	</g>
	<g>
		<g>
			<path class="st0" d="M250,0l62.5,62.5V9.1c0-3.3,4-5,6.4-2.7L375,62.5V9.1c0-0.3,0-0.5,0.1-0.7c0.1-0.7,0.5-1.3,0.9-1.8
				c0.2-0.2,0.4-0.4,0.6-0.5c0.1-0.1,0.2-0.1,0.2-0.2c0.4-0.3,0.9-0.4,1.4-0.5c0,0,0,0,0.1,0c0.1,0,0.2,0,0.4,0c0.1,0,0.1,0,0.2,0
				c0.3,0,0.7,0.1,1,0.2c0,0,0,0,0.1,0c0.5,0.2,1,0.5,1.5,0.9l56.1,56.1V9.1c0-3.3,4-5,6.4-2.7L500,62.5V0H250z"/>
			<path class="st0" d="M437.5,62.5H250l62.5,62.5V71.6c0-3.3,4-5,6.4-2.7L375,125V71.6c0-0.3,0-0.5,0.1-0.7
				c0.1-0.7,0.5-1.3,0.9-1.8c0.2-0.2,0.4-0.4,0.6-0.5c0.1-0.1,0.2-0.1,0.2-0.2c0.4-0.3,0.9-0.4,1.4-0.5c0,0,0,0,0.1,0
				c0.1,0,0.2,0,0.4,0c0.1,0,0.1,0,0.2,0c0.3,0,0.7,0.1,1,0.2c0,0,0,0,0.1,0c0.5,0.2,1,0.5,1.5,0.9l56.1,56.1V71.6
				c0-3.3,4-5,6.4-2.7L500,125V62.5H437.5z"/>
		</g>
		<g>
			<path class="st0" d="M250,125l62.5,62.5v-53.4c0-3.3,4-5,6.4-2.7l56.1,56.1v-53.4c0-0.3,0-0.5,0.1-0.7c0.1-0.7,0.5-1.3,0.9-1.8
				c0.2-0.2,0.4-0.4,0.6-0.5c0.1-0.1,0.2-0.1,0.2-0.2c0.4-0.3,0.9-0.4,1.4-0.5c0,0,0,0,0.1,0c0.1,0,0.2,0,0.4,0c0.1,0,0.1,0,0.2,0
				c0.3,0,0.7,0.1,1,0.2c0,0,0,0,0.1,0c0.5,0.2,1,0.5,1.5,0.9l56.1,56.1v-53.4c0-3.3,4-5,6.4-2.7l56.1,56.1V125H250z"/>
			<path class="st0" d="M437.5,187.5H250l62.5,62.5v-53.4c0-3.3,4-5,6.4-2.7L375,250v-53.4c0-0.3,0-0.5,0.1-0.7
				c0.1-0.7,0.5-1.3,0.9-1.8c0.2-0.2,0.4-0.4,0.6-0.5c0.1-0.1,0.2-0.1,0.2-0.2c0.4-0.3,0.9-0.4,1.4-0.5c0,0,0,0,0.1,0
				c0.1,0,0.2,0,0.4,0c0.1,0,0.1,0,0.2,0c0.3,0,0.7,0.1,1,0.2c0,0,0,0,0.1,0c0.5,0.2,1,0.5,1.5,0.9l56.1,56.1v-53.4
				c0-3.3,4-5,6.4-2.7L500,250v-62.5H437.5z"/>
		</g>
	</g>
	<g>
		<g>
			<g>
				<path class="st0" d="M1250,0v250h250V0H1250z M1467.5,225h-185c-4.1,0-7.5-3.4-7.5-7.5v-185c0-4.1,3.4-7.5,7.5-7.5h185
					c4.1,0,7.5,3.4,7.5,7.5v185C1475,221.6,1471.6,225,1467.5,225z"/>
			</g>
		</g>
		<path class="st0" d="M1303.1,53.1v143.8h143.8V53.1H1303.1z M1414.4,171.9h-78.8c-4.1,0-7.5-3.4-7.5-7.5V85.6
			c0-4.1,3.4-7.5,7.5-7.5h78.8c4.1,0,7.5,3.4,7.5,7.5v78.8C1421.9,168.5,1418.5,171.9,1414.4,171.9z"/>
	</g>
	<g>
		<g>
			<g>
				<path class="st0" d="M1625,0L1625,0c-69,0-125,56-125,125v0c0,69,56,125,125,125h0c69,0,125-56,125-125v0C1750,56,1694,0,1625,0
					z M1725,125c0,55.2-44.8,100-100,100h0c-55.2,0-100-44.8-100-100v0c0-55.2,44.8-100,100-100h0C1680.2,25,1725,69.8,1725,125
					L1725,125z"/>
			</g>
		</g>
		<path class="st0" d="M1625,53.1c-39.7,0-71.9,32.2-71.9,71.9s32.2,71.9,71.9,71.9s71.9-32.2,71.9-71.9S1664.7,53.1,1625,53.1z
			 M1625,171.3c-25.5,0-46.3-20.7-46.3-46.3c0-25.5,20.7-46.3,46.3-46.3s46.3,20.7,46.3,46.3C1671.3,150.5,1650.5,171.3,1625,171.3z
			"/>
	</g>
	<g>
		<g>
			<g>
				<path class="st0" d="M1875,0L1875,0l0,25h0c55.2,0,100,44.8,100,100v0c0,55.2-44.8,100-100,100h0v25h0c69,0,125-56,125-125v0
					C2000,56,1944,0,1875,0z"/>
			</g>
			<path class="st0" d="M1946.9,125c0-39.7-32.2-71.9-71.9-71.9v25.6c25.5,0,46.3,20.7,46.3,46.3c0,25.5-20.7,46.3-46.3,46.3v25.6
				C1914.7,196.9,1946.9,164.7,1946.9,125z"/>
		</g>
		<g>
			<g>
				<path class="st0" d="M1750,0L1750,0l0,25h0c55.2,0,100,44.8,100,100v0c0,55.2-44.8,100-100,100h0v25h0c69,0,125-56,125-125v0
					C1875,56,1819,0,1750,0z"/>
			</g>
			<path class="st0" d="M1821.9,125c0-39.7-32.2-71.9-71.9-71.9v25.6c25.5,0,46.3,20.7,46.3,46.3c0,25.5-20.7,46.3-46.3,46.3v25.6
				C1789.7,196.9,1821.9,164.7,1821.9,125z"/>
		</g>
	</g>
	<g>
		<path class="st0" d="M249.9,62.5h0.1v-0.2l-25.9-26c-2.9-2.9-2.9-7.7,0-10.6L249.9,0h-62.4v0.2l25.9,26c2.9,2.9,2.9,7.7,0,10.6
			l-25.8,25.8h-0.1v0.2l25.9,26c2.9,2.9,2.9,7.7,0,10.6L187.6,125h-0.1v0.2l25.9,26c2.9,2.9,2.9,7.7,0,10.6l-25.8,25.8h-0.1v0.2
			l25.9,26c2.9,2.9,2.9,7.7,0,10.6L187.6,250H250v-0.2l-25.9-26c-2.9-2.9-2.9-7.7,0-10.6l25.8-25.8h0.1v-0.2l-25.9-26
			c-2.9-2.9-2.9-7.7,0-10.6l25.8-25.8h0.1v-0.2l-25.9-26c-2.9-2.9-2.9-7.7,0-10.6L249.9,62.5z"/>
		<path class="st0" d="M36.6,161.4c-2.9-2.9-2.9-7.7,0-10.6L62.4,125h0.1v-0.2l-25.9-26c-2.9-2.9-2.9-7.7,0-10.6l25.8-25.8h0.1v-0.2
			l-25.9-26c-2.9-2.9-2.9-7.7,0-10.6L62.4,0H0v0.2l25.9,26c2.9,2.9,2.9,7.7,0,10.6L0.1,62.5H0v0.2l25.9,26c2.9,2.9,2.9,7.7,0,10.6
			L0.1,125H0v0.2l25.9,26c2.9,2.9,2.9,7.7,0,10.6L0.1,187.5H0v0.2l25.9,26c2.9,2.9,2.9,7.7,0,10.6L0.1,250h62.4v-0.2l-25.9-26
			c-2.9-2.9-2.9-7.7,0-10.6l25.8-25.8h0.1v-0.2L36.6,161.4z"/>
		<path class="st0" d="M99.1,161.4c-2.9-2.9-2.9-7.7,0-10.6l25.8-25.8h0.1v-0.2l-25.9-26c-2.9-2.9-2.9-7.7,0-10.6l25.8-25.8h0.1
			v-0.2l-25.9-26c-2.9-2.9-2.9-7.7,0-10.6L124.9,0H62.5v0.2l25.9,26c2.9,2.9,2.9,7.7,0,10.6L62.6,62.5h-0.1v0.2l25.9,26
			c2.9,2.9,2.9,7.7,0,10.6L62.6,125h-0.1v0.2l25.9,26c2.9,2.9,2.9,7.7,0,10.6l-25.8,25.8h-0.1v0.2l25.9,26c2.9,2.9,2.9,7.7,0,10.6
			L62.6,250H125v-0.2l-25.9-26c-2.9-2.9-2.9-7.7,0-10.6l25.8-25.8h0.1v-0.2L99.1,161.4z"/>
		<path class="st0" d="M161.6,161.4c-2.9-2.9-2.9-7.7,0-10.6l25.8-25.8h0.1v-0.2l-25.9-26c-2.9-2.9-2.9-7.7,0-10.6l25.8-25.8h0.1
			v-0.2l-25.9-26c-2.9-2.9-2.9-7.7,0-10.6L187.4,0H125v0.2l25.9,26c2.9,2.9,2.9,7.7,0,10.6l-25.8,25.8H125v0.2l25.9,26
			c2.9,2.9,2.9,7.7,0,10.6L125.1,125H125v0.2l25.9,26c2.9,2.9,2.9,7.7,0,10.6l-25.8,25.8H125v0.2l25.9,26c2.9,2.9,2.9,7.7,0,10.6
			L125.1,250h62.4v-0.2l-25.9-26c-2.9-2.9-2.9-7.7,0-10.6l25.8-25.8h0.1v-0.2L161.6,161.4z"/>
	</g>
</g>
</svg>
