<?xml version="1.0" encoding="utf-8"?>
<!-- Generator: Adobe Illustrator 22.0.0, SVG Export Plug-In . SVG Version: 6.00 Build 0)  -->
<svg version="1.1" id="Layer_1" xmlns="http://www.w3.org/2000/svg" xmlns:xlink="http://www.w3.org/1999/xlink" x="0px" y="0px"
	 viewBox="0 0 2000 250" style="enable-background:new 0 0 2000 250;" xml:space="preserve">
<style type="text/css">
	.st0{fill:#A028EB;}
</style>
<g>
	<path class="st0" d="M1000,112.5h-72.2c-8.4,0-12.5-10.1-6.6-16l51-51l-17.7-17.7l-51,51c-5.9,5.9-16,1.7-16-6.6V0h-25v72.2
		c0,8.4-10.1,12.5-16,6.6l-51-51l-17.7,17.7l51,51c5.9,5.9,1.7,16-6.6,16H750v25h72.2c8.4,0,12.5,10.1,6.6,16l-51,51l17.7,17.7
		l51-51c5.9-5.9,16-1.7,16,6.6V250h25v-72.2c0-8.4,10.1-12.5,16-6.6l51,51l17.7-17.7l-51-51c-5.9-5.9-1.7-16,6.6-16h72.2V112.5z"/>
</g>
<g>
	<g>
		<g>
			<path class="st0" d="M750,62.5L687.9,0h-34.8l49,49.3c7.3,7.3,7.3,19.1,0,26.4l-49,49.3l49,49.3c7.3,7.3,7.3,19.1,0,26.4
				l-49,49.3h34.8l62.1-62.5l-49-49.3c-7.3-7.3-7.3-19.1,0-26.4L750,62.5z"/>
		</g>
		<g>
			<path class="st0" d="M673.4,62.5L611.4,0h-34.8l49,49.3c7.3,7.3,7.3,19.1,0,26.4l-49,49.3l49,49.3c7.3,7.3,7.3,19.1,0,26.4
				l-49,49.3h34.8l62.1-62.5l-49-49.3c-7.3-7.3-7.3-19.1,0-26.4L673.4,62.5z"/>
		</g>
		<g>
			<path class="st0" d="M596.9,62.5L534.8,0H500l49,49.3c7.3,7.3,7.3,19.1,0,26.4L500,125l49,49.3c7.3,7.3,7.3,19.1,0,26.4L500,250
				h34.8l62.1-62.5l-49-49.3c-7.3-7.3-7.3-19.1,0-26.4L596.9,62.5z"/>
		</g>
	</g>
</g>
<g>
	<g>
		<path class="st0" d="M250,0l62.5,62.5V22.6c0-8.4,10.1-12.5,16-6.6L375,62.5V22.6c0-8.4,10.1-12.5,16-6.6l46.5,46.5V22.6
			c0-8.4,10.1-12.5,16-6.6L500,62.5V0H250z"/>
	</g>
	<g>
		<path class="st0" d="M250,62.5l62.5,62.5V85.1c0-8.4,10.1-12.5,16-6.6L375,125V85.1c0-8.4,10.1-12.5,16-6.6l46.5,46.5V85.1
			c0-8.4,10.1-12.5,16-6.6L500,125V62.5H250z"/>
	</g>
	<g>
		<path class="st0" d="M250,125l62.5,62.5v-39.9c0-8.4,10.1-12.5,16-6.6l46.5,46.5v-39.9c0-8.4,10.1-12.5,16-6.6l46.5,46.5v-39.9
			c0-8.4,10.1-12.5,16-6.6l46.5,46.5V125H250z"/>
	</g>
	<g>
		<path class="st0" d="M250,187.5l62.5,62.5v-39.9c0-8.4,10.1-12.5,16-6.6L375,250v-39.9c0-8.4,10.1-12.5,16-6.6l46.5,46.5v-39.9
			c0-8.4,10.1-12.5,16-6.6L500,250v-62.5H250z"/>
	</g>
</g>
<g>
	<g>
		<g>
			<path class="st0" d="M1250,0v250h250V0H1250z M1459.4,225h-168.8c-8.6,0-15.6-7-15.6-15.6V40.6c0-8.6,7-15.6,15.6-15.6h168.8
				c8.6,0,15.6,7,15.6,15.6v168.8C1475,218,1468,225,1459.4,225z"/>
		</g>
	</g>
	<path class="st0" d="M1303.1,53.1v143.8h143.8V53.1H1303.1z M1406.3,171.9h-62.5c-8.6,0-15.6-7-15.6-15.6V93.8
		c0-8.6,7-15.6,15.6-15.6h62.5c8.6,0,15.6,7,15.6,15.6v62.5C1421.9,164.9,1414.9,171.9,1406.3,171.9z"/>
</g>
<g>
	<g>
		<g>
			<path class="st0" d="M1625,0L1625,0c-69,0-125,56-125,125v0c0,69,56,125,125,125h0c69,0,125-56,125-125v0C1750,56,1694,0,1625,0z
				 M1725,125c0,55.2-44.8,100-100,100h0c-55.2,0-100-44.8-100-100v0c0-55.2,44.8-100,100-100h0C1680.2,25,1725,69.8,1725,125
				L1725,125z"/>
		</g>
	</g>
	<path class="st0" d="M1625,53.1c-39.7,0-71.9,32.2-71.9,71.9s32.2,71.9,71.9,71.9s71.9-32.2,71.9-71.9S1664.7,53.1,1625,53.1z
		 M1625,171.3c-25.5,0-46.3-20.7-46.3-46.3c0-25.5,20.7-46.3,46.3-46.3s46.3,20.7,46.3,46.3C1671.3,150.5,1650.5,171.3,1625,171.3z"
		/>
</g>
<g>
	<g>
		<g>
			<path class="st0" d="M1875,0L1875,0l0,25h0c55.2,0,100,44.8,100,100v0c0,55.2-44.8,100-100,100h0v25h0c69,0,125-56,125-125v0
				C2000,56,1944,0,1875,0z"/>
		</g>
		<path class="st0" d="M1946.9,125c0-39.7-32.2-71.9-71.9-71.9v25.6c25.5,0,46.3,20.7,46.3,46.3c0,25.5-20.7,46.3-46.3,46.3v25.6
			C1914.7,196.9,1946.9,164.7,1946.9,125z"/>
	</g>
	<g>
		<g>
			<path class="st0" d="M1750,0L1750,0l0,25h0c55.2,0,100,44.8,100,100v0c0,55.2-44.8,100-100,100h0v25h0c69,0,125-56,125-125v0
				C1875,56,1819,0,1750,0z"/>
		</g>
		<path class="st0" d="M1821.9,125c0-39.7-32.2-71.9-71.9-71.9v25.6c25.5,0,46.3,20.7,46.3,46.3c0,25.5-20.7,46.3-46.3,46.3v25.6
			C1789.7,196.9,1821.9,164.7,1821.9,125z"/>
	</g>
</g>
<g>
	<path class="st0" d="M250,0.1L250,0.1L187.6,0l20.1,20.1c6.1,6.1,6.1,16,0,22.1l-20.2,20.2v0.1h0.1l20.1,20.1
		c6.1,6.1,6.1,16,0,22.1l-20.2,20.2v0.1h0.1l20.1,20.1c6.1,6.1,6.1,16,0,22.1l-20.2,20.2v0.1h0.1l20.1,20.1c6.1,6.1,6.1,16,0,22.1
		l-20.2,20.2v0.1h62.4l-20.1-20.1c-6.1-6.1-6.1-16,0-22.1l20.2-20.2v-0.1h-0.1l-20.1-20.1c-6.1-6.1-6.1-16,0-22.1l20.2-20.2V125
		h-0.1l-20.1-20.1c-6.1-6.1-6.1-16,0-22.1L250,62.6v-0.1h-0.1l-20.1-20.1c-6.1-6.1-6.1-16,0-22.1L250,0.1z"/>
	<path class="st0" d="M42.3,167.4c-6.1-6.1-6.1-16,0-22.1l20.2-20.2V125h-0.1l-20.1-20.1c-6.1-6.1-6.1-16,0-22.1l20.2-20.2v-0.1
		h-0.1L42.3,42.4c-6.1-6.1-6.1-16,0-22.1L62.5,0.1V0H0.1l20.1,20.1c6.1,6.1,6.1,16,0,22.1L0,62.4v0.1h0.1l20.1,20.1
		c6.1,6.1,6.1,16,0,22.1L0,124.9v0.1h0.1l20.1,20.1c6.1,6.1,6.1,16,0,22.1L0,187.4v0.1h0.1l20.1,20.1c6.1,6.1,6.1,16,0,22.1L0,249.9
		v0.1h62.4l-20.1-20.1c-6.1-6.1-6.1-16,0-22.1l20.2-20.2v-0.1h-0.1L42.3,167.4z"/>
	<path class="st0" d="M104.8,167.4c-6.1-6.1-6.1-16,0-22.1l20.2-20.2V125h-0.1l-20.1-20.1c-6.1-6.1-6.1-16,0-22.1L125,62.6v-0.1
		h-0.1l-20.1-20.1c-6.1-6.1-6.1-16,0-22.1L125,0.1V0H62.6l20.1,20.1c6.1,6.1,6.1,16,0,22.1L62.5,62.4v0.1h0.1l20.1,20.1
		c6.1,6.1,6.1,16,0,22.1l-20.2,20.2v0.1h0.1l20.1,20.1c6.1,6.1,6.1,16,0,22.1l-20.2,20.2v0.1h0.1l20.1,20.1c6.1,6.1,6.1,16,0,22.1
		l-20.2,20.2v0.1h62.4l-20.1-20.1c-6.1-6.1-6.1-16,0-22.1l20.2-20.2v-0.1h-0.1L104.8,167.4z"/>
	<path class="st0" d="M167.3,167.4c-6.1-6.1-6.1-16,0-22.1l20.2-20.2V125h-0.1l-20.1-20.1c-6.1-6.1-6.1-16,0-22.1l20.2-20.2v-0.1
		h-0.1l-20.1-20.1c-6.1-6.1-6.1-16,0-22.1l20.2-20.2V0h-62.4l20.1,20.1c6.1,6.1,6.1,16,0,22.1L125,62.4v0.1h0.1l20.1,20.1
		c6.1,6.1,6.1,16,0,22.1L125,124.9v0.1h0.1l20.1,20.1c6.1,6.1,6.1,16,0,22.1L125,187.4v0.1h0.1l20.1,20.1c6.1,6.1,6.1,16,0,22.1
		L125,249.9v0.1h62.4l-20.1-20.1c-6.1-6.1-6.1-16,0-22.1l20.2-20.2v-0.1h-0.1L167.3,167.4z"/>
</g>
<g>
	<g>
		<g>
			<path class="st0" d="M1125,0h-34.4l111.7,111.7c7.3,7.3,7.3,19.2,0,26.5L1090.6,250h34.4l125-125L1125,0z"/>
		</g>
		<g>
			<path class="st0" d="M1061.9,0h-34.4l111.7,111.7c7.3,7.3,7.3,19.2,0,26.5L1027.5,250h34.4l125-125L1061.9,0z"/>
		</g>
		<g>
			<path class="st0" d="M1000,0v34.4l77.4,77.4c7.3,7.3,7.3,19.2,0,26.5l-77.4,77.4V250l125-125L1000,0z"/>
		</g>
	</g>
</g>
</svg>
