<?xml version="1.0" encoding="utf-8"?>
<!-- Generator: Adobe Illustrator 22.0.0, SVG Export Plug-In . SVG Version: 6.00 Build 0)  -->
<svg version="1.1" id="Layer_1" xmlns="http://www.w3.org/2000/svg" xmlns:xlink="http://www.w3.org/1999/xlink" x="0px" y="0px"
	 viewBox="0 0 2000 389.6" style="enable-background:new 0 0 2000 389.6;" xml:space="preserve">
<style type="text/css">
	.st0{fill:#A028EB;}
</style>
<g>
	<g>
		<g>
			<path class="st0" d="M737,0l186.7,186.5c4.7,4.7,4.7,12.3,0,17L737,390h194.8L1127,195L931.8,0H737z"/>
		</g>
	</g>
</g>
<g>
	<g>
		<path class="st0" d="M1156.4,0v390h390V0H1156.4z"/>
	</g>
</g>
<g>
	<g>
		<path class="st0" d="M1608,195L1608,195c0,107.7,87.3,195,195,195l0,0c107.7,0,195-87.3,195-195l0,0c0-107.7-87.3-195-195-195l0,0
			C1695.3,0,1608,87.3,1608,195z"/>
	</g>
</g>
<rect x="430" y="181.6" class="st0" width="250.4" height="26.8"/>
<g id="_x3C_Groupsymbol_x3E__3_">
	<g>
		<g>
			<path class="st0" d="M243.4,0H129C57.8,0,0,57.8,0,129v38.2c0,71.2,57.8,129,129,129h118.7v-60h-176c-6.5,0-11.7-5.2-11.7-11.7
				V71.7C60,65.2,65.2,60,71.7,60h229.1c6.5,0,11.7,5.2,11.7,11.7v317.9h60V129C372.4,57.8,314.7,0,243.4,0z"/>
		</g>
	</g>
	<g>
		<polygon class="st0" points="169.6,141.7 93.8,141.7 222.9,266.2 94.8,389.6 170.6,389.6 294.1,266.2 		"/>
	</g>
</g>
</svg>
