<?xml version="1.0" encoding="utf-8"?>
<!-- Generator: Adobe Illustrator 22.0.0, SVG Export Plug-In . SVG Version: 6.00 Build 0)  -->
<svg version="1.1" id="Layer_1" xmlns="http://www.w3.org/2000/svg" xmlns:xlink="http://www.w3.org/1999/xlink" x="0px" y="0px"
	 viewBox="0 0 2000 250" style="enable-background:new 0 0 2000 250;" xml:space="preserve">
<style type="text/css">
	.st0{fill:#A028EB;}
</style>
<g>
	<path class="st0" d="M1000,100h-42c-8.4,0-12.5-10.1-6.6-16l29.7-29.7l-35.4-35.4L916,48.6c-5.9,5.9-16,1.7-16-6.6V0h-50v42
		c0,8.4-10.1,12.5-16,6.6l-29.7-29.7l-35.4,35.4L798.6,84c5.9,5.9,1.7,16-6.6,16h-42v50h42c8.4,0,12.5,10.1,6.6,16l-29.7,29.7
		l35.4,35.4l29.7-29.7c5.9-5.9,16-1.7,16,6.6v42h50v-42c0-8.4,10.1-12.5,16-6.6l29.7,29.7l35.4-35.4L951.4,166
		c-5.9-5.9-1.7-16,6.6-16h42V100z"/>
</g>
<g>
	<g>
		<path class="st0" d="M1250,0v250h250V0H1250z M1437.5,203.1h-125c-8.6,0-15.6-7-15.6-15.6v-125c0-8.6,7-15.6,15.6-15.6h125
			c8.6,0,15.6,7,15.6,15.6v125C1453.1,196.1,1446.1,203.1,1437.5,203.1z"/>
	</g>
</g>
<g>
	<g>
		<path class="st0" d="M1625,0L1625,0c-69,0-125,56-125,125v0c0,69,56,125,125,125h0c69,0,125-56,125-125v0C1750,56,1694,0,1625,0z
			 M1700,125c0,41.4-33.6,75-75,75h0c-41.4,0-75-33.6-75-75v0c0-41.4,33.6-75,75-75h0C1666.4,50,1700,83.6,1700,125L1700,125z"/>
	</g>
</g>
<g>
	<g>
		<g>
			<path class="st0" d="M548,200.6L500,250h64.3l60.7-62.5l-48-49.4c-7.1-7.3-7.1-18.8,0-26.1l48-49.4L564.3,0H500l48,49.4
				c7.1,7.3,7.1,18.8,0,26.1L500,125l48,49.4C555.1,181.7,555.1,193.3,548,200.6z"/>
		</g>
		<g>
			<path class="st0" d="M673,200.6L625,250h64.3l60.7-62.5l-48-49.4c-7.1-7.3-7.1-18.8,0-26.1l48-49.4L689.3,0H625l48,49.4
				c7.1,7.3,7.1,18.8,0,26.1L625,125l48,49.4C680.1,181.7,680.1,193.3,673,200.6z"/>
		</g>
	</g>
</g>
<g>
	<g>
		<g>
			<path class="st0" d="M1875,0L1875,0l0,50h0c41.4,0,75,33.6,75,75v0c0,41.4-33.6,75-75,75h0v50h0c69,0,125-56,125-125v0
				C2000,56,1944,0,1875,0z"/>
		</g>
		<g>
			<path class="st0" d="M1750,50c41.4,0,75,33.6,75,75v0c0,41.4-33.6,75-75,75h0v50h0c69,0,125-56,125-125v0c0-69-56-125-125-125h0
				L1750,50L1750,50z"/>
		</g>
	</g>
</g>
<g>
	<g>
		<path class="st0" d="M304.4,0H250l125,125V22.6c0-8.4,10.1-12.5,16-6.6l109,109V0h-74.4H304.4z"/>
		<path class="st0" d="M304.4,125H250l125,125V147.6c0-8.4,10.1-12.5,16-6.6l109,109V125h-74.4H304.4z"/>
	</g>
</g>
<g>
	<g>
		<path class="st0" d="M1125,0h-61.9l111.7,111.7c7.3,7.3,7.3,19.2,0,26.5L1063.1,250h61.9l125-125L1125,0z"/>
	</g>
	<g>
		<path class="st0" d="M1000,0v62.3l49.4,49.4c7.3,7.3,7.3,19.2,0,26.5l-49.4,49.4V250l125-125L1000,0z"/>
	</g>
</g>
<g>
	<path class="st0" d="M75.8,75.9c-7.3-7.3-7.3-19.2,0-26.5L125,0v0H0.1l49.2,49.1c7.3,7.3,7.3,19.2,0,26.5L0,125v0h0.1l49.2,49.1
		c7.3,7.3,7.3,19.2,0,26.5L0,250v0h124.9l-49.2-49.1c-7.3-7.3-7.3-19.2,0-26.5L125,125v0h-0.1L75.8,75.9z"/>
	<path class="st0" d="M250,0L250,0L125.1,0l49.2,49.1c7.3,7.3,7.3,19.2,0,26.5L125,125v0h0.1l49.2,49.1c7.3,7.3,7.3,19.2,0,26.5
		L125,250v0h124.9l-49.2-49.1c-7.3-7.3-7.3-19.2,0-26.5L250,125v0h-0.1l-49.2-49.1c-7.3-7.3-7.3-19.2,0-26.5L250,0z"/>
</g>
</svg>
