<?xml version="1.0" encoding="utf-8"?>
<!-- Generator: Adobe Illustrator 22.0.0, SVG Export Plug-In . SVG Version: 6.00 Build 0)  -->
<svg version="1.1" id="Layer_1" xmlns="http://www.w3.org/2000/svg" xmlns:xlink="http://www.w3.org/1999/xlink" x="0px" y="0px"
	 viewBox="0 0 2000 250" style="enable-background:new 0 0 2000 250;" xml:space="preserve">
<style type="text/css">
	.st0{fill:#A028EB;}
</style>
<g>
	<g>
		<g>
			<g>
				<g>
					<g>
						<rect x="862.5" class="st0" width="25" height="250"/>
					</g>
					<g>
						<rect x="750" y="112.5" class="st0" width="250" height="25"/>
					</g>
				</g>
			</g>
		</g>
		<g>
			<g>
				<g>
					<g>
						
							<rect x="750" y="112.5" transform="matrix(0.7071 -0.7071 0.7071 0.7071 167.8932 655.3301)" class="st0" width="250" height="25"/>
					</g>
					<g>
						
							<rect x="862.5" y="0" transform="matrix(0.7071 -0.7071 0.7071 0.7071 167.8932 655.3301)" class="st0" width="25" height="250"/>
					</g>
				</g>
			</g>
		</g>
	</g>
	<g>
		<g>
			<g>
				<polygon class="st0" points="750,62.5 687.9,0 656.3,0 718.3,62.5 656.3,125 718.3,187.5 656.3,250 687.9,250 750,187.5 
					687.9,125 				"/>
			</g>
			<g>
				<polygon class="st0" points="593.8,62.5 531.7,0 500,0 562.1,62.5 500,125 562.1,187.5 500,250 531.7,250 593.8,187.5 
					531.7,125 				"/>
			</g>
			<g>
				<polygon class="st0" points="671.5,62.5 609.4,0 577.8,0 639.8,62.5 577.8,125 639.8,187.5 577.8,250 609.4,250 671.5,187.5 
					609.4,125 				"/>
			</g>
		</g>
	</g>
	<g>
		<g>
			<g>
				<polygon class="st0" points="1125,0 1090.6,0 1215.6,125 1090.6,250 1125,250 1250,125 				"/>
			</g>
			<g>
				<polygon class="st0" points="1061.9,0 1027.5,0 1152.5,125 1027.5,250 1061.9,250 1186.9,125 				"/>
			</g>
			<g>
				<polygon class="st0" points="1000,0 1000,34.4 1090.6,125 1000,215.6 1000,250 1125,125 				"/>
			</g>
		</g>
	</g>
	<g>
		<g>
			<g>
				<polygon class="st0" points="312.5,125 375,187.5 375,125 				"/>
			</g>
			<g>
				<polygon class="st0" points="375,187.5 437.5,250 437.5,187.5 				"/>
			</g>
			<g>
				<polygon class="st0" points="375,125 437.5,187.5 437.5,125 				"/>
			</g>
			<g>
				<polygon class="st0" points="437.5,125 500,187.5 500,125 				"/>
			</g>
			<g>
				<polygon class="st0" points="437.5,187.5 500,250 500,187.5 				"/>
			</g>
			<g>
				<polygon class="st0" points="312.5,187.5 375,250 375,187.5 				"/>
			</g>
			<g>
				<polygon class="st0" points="250,187.5 312.5,250 312.5,187.5 				"/>
			</g>
			<g>
				<polygon class="st0" points="250,125 312.5,187.5 312.5,125 				"/>
			</g>
			<g>
				<polygon class="st0" points="250,62.5 312.5,125 312.5,62.5 				"/>
			</g>
			<g>
				<polygon class="st0" points="250,0 312.5,62.5 312.5,0 				"/>
			</g>
			<g>
				<polygon class="st0" points="312.5,62.5 375,125 375,62.5 				"/>
			</g>
			<g>
				<polygon class="st0" points="312.5,0 375,62.5 375,0 				"/>
			</g>
			<g>
				<polygon class="st0" points="375,62.5 437.5,125 437.5,62.5 				"/>
			</g>
			<g>
				<polygon class="st0" points="437.5,0 500,62.5 500,0 				"/>
			</g>
			<g>
				<polygon class="st0" points="375,0 437.5,62.5 437.5,0 				"/>
			</g>
			<g>
				<polygon class="st0" points="437.5,62.5 500,125 500,62.5 				"/>
			</g>
		</g>
	</g>
	<g>
		<g>
			<g>
				<path class="st0" d="M1250,0v250h250V0H1250z M1475,225h-200V25h200V225z"/>
			</g>
		</g>
		<path class="st0" d="M1303.1,53.1v143.8h143.8V53.1H1303.1z M1421.9,171.9h-93.8V78.1h93.8V171.9z"/>
	</g>
	<g>
		<g>
			<g>
				<path class="st0" d="M1625,0L1625,0c-69,0-125,56-125,125v0c0,69,56,125,125,125h0c69,0,125-56,125-125v0C1750,56,1694,0,1625,0
					z M1725,125c0,55.2-44.8,100-100,100h0c-55.2,0-100-44.8-100-100v0c0-55.2,44.8-100,100-100h0C1680.2,25,1725,69.8,1725,125
					L1725,125z"/>
			</g>
		</g>
		<path class="st0" d="M1625,53.1c-39.7,0-71.9,32.2-71.9,71.9s32.2,71.9,71.9,71.9s71.9-32.2,71.9-71.9S1664.7,53.1,1625,53.1z
			 M1625,171.3c-25.5,0-46.3-20.7-46.3-46.3c0-25.5,20.7-46.3,46.3-46.3s46.3,20.7,46.3,46.3C1671.3,150.5,1650.5,171.3,1625,171.3z
			"/>
	</g>
	<g>
		<g>
			<g>
				<path class="st0" d="M1875,0L1875,0l0,25h0c55.2,0,100,44.8,100,100v0c0,55.2-44.8,100-100,100h0v25h0c69,0,125-56,125-125v0
					C2000,56,1944,0,1875,0z"/>
			</g>
			<path class="st0" d="M1946.9,125c0-39.7-32.2-71.9-71.9-71.9v25.6c25.5,0,46.3,20.7,46.3,46.3c0,25.5-20.7,46.3-46.3,46.3v25.6
				C1914.7,196.9,1946.9,164.7,1946.9,125z"/>
		</g>
		<g>
			<g>
				<path class="st0" d="M1750,0L1750,0l0,25h0c55.2,0,100,44.8,100,100v0c0,55.2-44.8,100-100,100h0v25h0c69,0,125-56,125-125v0
					C1875,56,1819,0,1750,0z"/>
			</g>
			<path class="st0" d="M1821.9,125c0-39.7-32.2-71.9-71.9-71.9v25.6c25.5,0,46.3,20.7,46.3,46.3c0,25.5-20.7,46.3-46.3,46.3v25.6
				C1789.7,196.9,1821.9,164.7,1821.9,125z"/>
		</g>
	</g>
	<g>
		<polygon class="st0" points="250,0 187.5,0 218.8,31.3 		"/>
		
			<rect x="196.7" y="40.4" transform="matrix(0.7071 -0.7071 0.7071 0.7071 19.8762 172.9854)" class="st0" width="44.2" height="44.2"/>
		<polygon class="st0" points="187.5,0 125,0 156.3,31.3 		"/>
		
			<rect x="134.2" y="40.4" transform="matrix(0.7071 -0.7071 0.7071 0.7071 1.5704 128.7913)" class="st0" width="44.2" height="44.2"/>
		<polygon class="st0" points="125,0 62.5,0 93.8,31.3 		"/>
		
			<rect x="71.7" y="40.4" transform="matrix(0.7071 -0.7071 0.7071 0.7071 -16.7354 84.5971)" class="st0" width="44.2" height="44.2"/>
		
			<rect x="71.7" y="102.9" transform="matrix(0.7071 -0.7071 0.7071 0.7071 -60.9296 102.9029)" class="st0" width="44.2" height="44.2"/>
		
			<rect x="9.2" y="102.9" transform="matrix(0.7071 -0.7071 0.7071 0.7071 -79.2354 58.7087)" class="st0" width="44.2" height="44.2"/>
		<polygon class="st0" points="0,0 31.3,31.3 62.5,0 		"/>
		
			<rect x="9.2" y="40.4" transform="matrix(0.7071 -0.7071 0.7071 0.7071 -35.0413 40.4029)" class="st0" width="44.2" height="44.2"/>
		
			<rect x="196.7" y="102.9" transform="matrix(0.7071 -0.7071 0.7071 0.7071 -24.318 191.2913)" class="st0" width="44.2" height="44.2"/>
		
			<rect x="196.7" y="165.4" transform="matrix(0.7071 -0.7071 0.7071 0.7071 -68.5121 209.5971)" class="st0" width="44.2" height="44.2"/>
		<polygon class="st0" points="250,250 218.8,218.8 187.5,250 		"/>
		<polygon class="st0" points="125,250 187.5,250 156.3,218.8 		"/>
		
			<rect x="134.2" y="102.9" transform="matrix(0.7071 -0.7071 0.7071 0.7071 -42.6238 147.0971)" class="st0" width="44.2" height="44.2"/>
		
			<rect x="134.2" y="165.4" transform="matrix(0.7071 -0.7071 0.7071 0.7071 -86.818 165.4029)" class="st0" width="44.2" height="44.2"/>
		
			<rect x="71.7" y="165.4" transform="matrix(0.7071 -0.7071 0.7071 0.7071 -105.1238 121.2087)" class="st0" width="44.2" height="44.2"/>
		<polygon class="st0" points="62.5,250 125,250 93.8,218.8 		"/>
		<polygon class="st0" points="0,250 62.5,250 31.3,218.8 		"/>
		
			<rect x="9.2" y="165.4" transform="matrix(0.7071 -0.7071 0.7071 0.7071 -123.4296 77.0146)" class="st0" width="44.2" height="44.2"/>
	</g>
</g>
</svg>
