<?xml version="1.0" encoding="utf-8"?>
<!-- Generator: Adobe Illustrator 22.0.0, SVG Export Plug-In . SVG Version: 6.00 Build 0)  -->
<svg version="1.1" id="Layer_1" xmlns="http://www.w3.org/2000/svg" xmlns:xlink="http://www.w3.org/1999/xlink" x="0px" y="0px"
	 viewBox="0 0 2000 250" style="enable-background:new 0 0 2000 250;" xml:space="preserve">
<style type="text/css">
	.st0{fill:#A028EB;}
</style>
<g>
	<g>
		<path class="st0" d="M1000,100h-52.6c-4.5,0-6.7-5.4-3.5-8.5l37.2-37.2l-35.4-35.4l-37.2,37.2c-3.1,3.1-8.5,0.9-8.5-3.5V0h-50
			v52.6c0,4.5-5.4,6.7-8.5,3.5l-37.2-37.2l-35.4,35.4l37.2,37.2c3.1,3.1,0.9,8.5-3.5,8.5H750v50h52.6c4.5,0,6.7,5.4,3.5,8.5
			l-37.2,37.2l35.4,35.4l37.2-37.2c3.1-3.1,8.5-0.9,8.5,3.5V250h50v-52.6c0-4.5,5.4-6.7,8.5-3.5l37.2,37.2l35.4-35.4l-37.2-37.2
			c-3.1-3.1-0.9-8.5,3.5-8.5h52.6V100z"/>
	</g>
	<g>
		<g>
			<path class="st0" d="M1250,0v250h250V0H1250z M1443.8,203.1h-137.5c-5.2,0-9.4-4.2-9.4-9.4V56.3c0-5.2,4.2-9.4,9.4-9.4h137.5
				c5.2,0,9.4,4.2,9.4,9.4v137.5C1453.1,198.9,1448.9,203.1,1443.8,203.1z"/>
		</g>
	</g>
	<g>
		<g>
			<path class="st0" d="M1625,0L1625,0c-69,0-125,56-125,125v0c0,69,56,125,125,125h0c69,0,125-56,125-125v0C1750,56,1694,0,1625,0z
				 M1700,125c0,41.4-33.6,75-75,75h0c-41.4,0-75-33.6-75-75v0c0-41.4,33.6-75,75-75h0C1666.4,50,1700,83.6,1700,125L1700,125z"/>
		</g>
	</g>
	<g>
		<g>
			<g>
				<path class="st0" d="M554.3,194L500,250h64.3l60.7-62.5l-54.3-56c-3.5-3.6-3.5-9.4,0-13.1l54.3-56L564.3,0H500l54.3,56
					c3.5,3.6,3.5,9.4,0,13.1L500,125l54.3,56C557.9,184.6,557.9,190.4,554.3,194z"/>
			</g>
			<g>
				<path class="st0" d="M679.3,194L625,250h64.3l60.7-62.5l-54.3-56c-3.5-3.6-3.5-9.4,0-13.1l54.3-56L689.3,0H625l54.3,56
					c3.5,3.6,3.5,9.4,0,13.1L625,125l54.3,56C682.9,184.6,682.9,190.4,679.3,194z"/>
			</g>
		</g>
	</g>
	<g>
		<g>
			<g>
				<path class="st0" d="M1875,0L1875,0l0,50h0c41.4,0,75,33.6,75,75v0c0,41.4-33.6,75-75,75h0v50h0c69,0,125-56,125-125v0
					C2000,56,1944,0,1875,0z"/>
			</g>
			<g>
				<path class="st0" d="M1750,50c41.4,0,75,33.6,75,75v0c0,41.4-33.6,75-75,75h0v50h0c69,0,125-56,125-125v0c0-69-56-125-125-125h0
					L1750,50L1750,50z"/>
			</g>
		</g>
	</g>
	<g>
		<g>
			<path class="st0" d="M304.4,0H250l125,125V12.1c0-4.5,5.4-6.7,8.5-3.5L500,125V0h-74.4H304.4z"/>
			<path class="st0" d="M304.4,125H250l125,125V137.1c0-4.5,5.4-6.7,8.5-3.5L500,250V125h-74.4H304.4z"/>
		</g>
	</g>
	<g>
		<g>
			<path class="st0" d="M1125,0h-61.9l118.4,118.4c3.7,3.7,3.7,9.6,0,13.3L1063.1,250h61.9l125-125L1125,0z"/>
		</g>
		<g>
			<path class="st0" d="M1000,0v62.3l56,56c3.7,3.7,3.7,9.6,0,13.3l-56,56V250l125-125L1000,0z"/>
		</g>
	</g>
	<g>
		<path class="st0" d="M69.1,69.2c-3.7-3.7-3.7-9.6,0-13.3L125,0v0H0.1l55.8,55.8c3.7,3.7,3.7,9.6,0,13.3L0,125v0h0.1l55.8,55.8
			c3.7,3.7,3.7,9.6,0,13.3L0,250v0h124.9l-55.8-55.8c-3.7-3.7-3.7-9.6,0-13.3L125,125v0h-0.1L69.1,69.2z"/>
		<path class="st0" d="M250,0L250,0L125.1,0l55.8,55.8c3.7,3.7,3.7,9.6,0,13.3L125,125v0h0.1l55.8,55.8c3.7,3.7,3.7,9.6,0,13.3
			L125,250v0h124.9l-55.8-55.8c-3.7-3.7-3.7-9.6,0-13.3L250,125v0h-0.1l-55.8-55.8c-3.7-3.7-3.7-9.6,0-13.3L250,0z"/>
	</g>
</g>
</svg>
