<?xml version="1.0" encoding="utf-8"?>
<!-- Generator: Adobe Illustrator 22.0.0, SVG Export Plug-In . SVG Version: 6.00 Build 0)  -->
<svg version="1.1" id="Layer_1" xmlns="http://www.w3.org/2000/svg" xmlns:xlink="http://www.w3.org/1999/xlink" x="0px" y="0px"
	 viewBox="0 0 3500 3500" style="enable-background:new 0 0 3500 3500;" xml:space="preserve">
<style type="text/css">
	.st0{fill:#FFFFFF;}
	.st1{fill:#A028EB;}
	.st2{fill:#641496;}
	.st3{fill:#E8C968;}
	.st4{fill:#E1BEFA;}
	.st5{fill:#F5EBFF;}
	.st6{fill:#CD96F5;}
	.st7{fill:#AF55F0;}
	.st8{fill:#7D1EBE;}
	.st9{fill:#410F64;}
	.st10{fill:#2D0546;}
	.st11{fill:#1E002D;}
</style>
<g>
	<rect class="st0" width="3500" height="3500"/>
</g>
<g>
	<g>
		<g>
			<g>
				<g>
					<g>
						<g>
							<rect x="1270" y="2207.1" class="st1" width="45.7" height="457.1"/>
						</g>
						<g>
							<rect x="1064.3" y="2412.9" class="st1" width="457.1" height="45.7"/>
						</g>
					</g>
				</g>
			</g>
			<g>
				<g>
					<g>
						<g>
							
								<rect x="1064.3" y="2412.9" transform="matrix(0.7071 -0.7071 0.7071 0.7071 -1343.6584 1627.5951)" class="st1" width="457.1" height="45.7"/>
						</g>
						<g>
							
								<rect x="1269.9" y="2207.1" transform="matrix(0.7071 -0.7071 0.7071 0.7071 -1343.6293 1627.5245)" class="st1" width="45.7" height="457.1"/>
						</g>
					</g>
				</g>
			</g>
		</g>
		<g>
			<g>
				<polygon class="st1" points="2892.9,2664.3 3121.5,2892.9 2892.9,3121.4 3121.3,3121.4 3350,2892.9 3121.3,2664.3 				"/>
			</g>
		</g>
		<g>
			<g>
				<g>
					<polygon class="st1" points="150,378.6 378.7,607.1 150,835.7 378.5,835.7 607.1,607.1 378.5,378.6 					"/>
				</g>
			</g>
		</g>
		<g>
			<g>
				<path class="st1" d="M2207.1,378.6L2207.1,378.6c-126.2,0-228.6,102.3-228.6,228.6l0,0c0,126.2,102.3,228.6,228.6,228.6l0,0
					c126.2,0,228.6-102.3,228.6-228.6l0,0C2435.7,480.9,2333.4,378.6,2207.1,378.6z M2281.4,607.1c0,41-33.3,74.3-74.3,74.3l0,0
					c-41,0-74.3-33.3-74.3-74.3l0,0c0-41,33.3-74.3,74.3-74.3l0,0C2248.2,532.9,2281.4,566.1,2281.4,607.1L2281.4,607.1z"/>
			</g>
		</g>
		<g>
			<g>
				<polygon class="st1" points="3121.4,1292.9 3058.6,1292.9 3287.1,1521.4 3058.6,1750 3121.4,1750 3350,1521.4 				"/>
			</g>
			<g>
				<polygon class="st1" points="3006,1292.9 2943.1,1292.9 3171.7,1521.4 2943.1,1750 3006,1750 3234.6,1521.4 				"/>
			</g>
			<g>
				<polygon class="st1" points="2892.9,1292.9 2892.9,1355.7 3058.6,1521.4 2892.9,1687.1 2892.9,1750 3121.4,1521.4 				"/>
			</g>
		</g>
		<g>
			<g>
				<g>
					<polygon class="st1" points="1750,378.6 1687.1,378.6 1915.7,607.1 1687.1,835.7 1750,835.7 1978.6,607.1 					"/>
				</g>
				<g>
					<polygon class="st1" points="1634.6,378.6 1571.7,378.6 1800.3,607.1 1571.7,835.7 1634.6,835.7 1863.1,607.1 					"/>
				</g>
				<g>
					<polygon class="st1" points="1521.4,378.6 1521.4,441.4 1687.1,607.1 1521.4,772.9 1521.4,835.7 1750,607.1 					"/>
				</g>
			</g>
		</g>
		<g>
			<g>
				<path class="st1" d="M2207.1,1292.9L2207.1,1292.9v154.3l0,0c41,0,74.3,33.3,74.3,74.3l0,0c0,41-33.3,74.3-74.3,74.3l0,0V1750
					l0,0c126.2,0,228.6-102.3,228.6-228.6l0,0C2435.7,1395.2,2333.4,1292.9,2207.1,1292.9z"/>
			</g>
			<g>
				<path class="st1" d="M1978.6,1447.1c41,0,74.3,33.3,74.3,74.3l0,0c0,41-33.3,74.3-74.3,74.3l0,0V1750l0,0
					c126.2,0,228.6-102.3,228.6-228.6l0,0c0-126.2-102.3-228.6-228.6-228.6l0,0V1447.1L1978.6,1447.1z"/>
			</g>
		</g>
		<g>
			<polygon class="st1" points="1978.6,2321.4 1864.2,2207.1 1521.4,2207.1 1635.8,2321.4 1521.4,2435.7 1635.8,2550 1521.4,2664.3 
				1864.2,2664.3 1978.6,2550 1864.2,2435.7 			"/>
		</g>
		<g>
			<polygon class="st1" points="3350,492.9 3235.7,378.6 2892.9,378.6 3007.2,492.9 2892.9,607.1 3007.2,721.4 2892.9,835.7 
				3235.7,835.7 3350,721.4 3235.7,607.1 			"/>
		</g>
		<g>
			<g>
				<g>
					<polygon class="st1" points="1521.4,1064.3 1750,1292.9 1750,1064.3 					"/>
				</g>
				<g>
					<polygon class="st1" points="1521.4,835.7 1978.6,1292.9 1978.6,835.7 					"/>
				</g>
			</g>
		</g>
		<g>
			<g>
				<polygon class="st1" points="2435.7,1978.6 2664.3,2207.1 2664.3,1978.6 				"/>
			</g>
			<g>
				<polygon class="st1" points="2435.7,1750 2892.9,2207.1 2892.9,1750 				"/>
			</g>
		</g>
		<g>
			<g>
				<g>
					<rect x="332.9" y="1750" class="st1" width="91.4" height="457.1"/>
				</g>
				<g>
					<rect x="150" y="1932.9" class="st1" width="457.1" height="91.4"/>
				</g>
			</g>
			<g>
				<g>
					
						<rect x="150" y="1932.9" transform="matrix(0.7071 -0.7071 0.7071 0.7071 -1288.2008 847.2001)" class="st1" width="457.1" height="91.4"/>
				</g>
				<g>
					
						<rect x="332.9" y="1750" transform="matrix(0.7071 -0.7071 0.7071 0.7071 -1288.1509 847.1794)" class="st1" width="91.4" height="457.1"/>
				</g>
			</g>
		</g>
		<g>
			<g>
				<polygon class="st1" points="261,3007.1 150,3121.4 267.6,3121.4 378.6,3007.1 267.6,2892.9 378.6,2778.6 267.6,2664.3 
					150,2664.3 261,2778.6 150,2892.9 				"/>
			</g>
			<g>
				<polygon class="st1" points="489.5,3007.1 378.6,3121.4 496.2,3121.4 607.1,3007.1 496.2,2892.9 607.1,2778.6 496.2,2664.3 
					378.6,2664.3 489.5,2778.6 378.6,2892.9 				"/>
			</g>
		</g>
		<g>
			<g>
				<polygon class="st1" points="3003.8,2550 2892.9,2664.3 3010.5,2664.3 3121.4,2550 3010.5,2435.7 3121.4,2321.4 3010.5,2207.1 
					2892.9,2207.1 3003.8,2321.4 2892.9,2435.7 				"/>
			</g>
			<g>
				<polygon class="st1" points="3232.4,2550 3121.4,2664.3 3239,2664.3 3350,2550 3239,2435.7 3350,2321.4 3239,2207.1 
					3121.4,2207.1 3232.4,2321.4 3121.4,2435.7 				"/>
			</g>
		</g>
		<g>
			<g>
				<g>
					<polygon class="st1" points="718.1,1178.6 607.1,1292.9 724.8,1292.9 835.7,1178.6 724.8,1064.3 835.7,950 724.8,835.7 
						607.1,835.7 718.1,950 607.1,1064.3 					"/>
				</g>
				<g>
					<polygon class="st1" points="946.7,1178.6 835.7,1292.9 953.3,1292.9 1064.3,1178.6 953.3,1064.3 1064.3,950 953.3,835.7 
						835.7,835.7 946.7,950 835.7,1064.3 					"/>
				</g>
			</g>
		</g>
		<g>
			<g>
				<g>
					<polygon class="st1" points="2664.3,378.6 2543.1,378.6 2771.7,607.1 2543.1,835.7 2664.3,835.7 2892.9,607.1 					"/>
				</g>
				<g>
					<polygon class="st1" points="2435.7,378.6 2435.7,499.7 2543.1,607.1 2435.7,714.6 2435.7,835.7 2664.3,607.1 					"/>
				</g>
			</g>
		</g>
		<g>
			<g>
				<path class="st1" d="M2207.1,2664.3L2207.1,2664.3v91.4l0,0c75.7,0,137.1,61.4,137.1,137.1l0,0c0,75.7-61.4,137.1-137.1,137.1
					l0,0v91.4l0,0c126.2,0,228.6-102.3,228.6-228.6l0,0C2435.7,2766.6,2333.4,2664.3,2207.1,2664.3z"/>
			</g>
			<g>
				<path class="st1" d="M1978.6,2755.7c75.7,0,137.1,61.4,137.1,137.1l0,0c0,75.7-61.4,137.1-137.1,137.1l0,0v91.4l0,0
					c126.2,0,228.6-102.3,228.6-228.6l0,0c0-126.2-102.3-228.6-228.6-228.6l0,0V2755.7L1978.6,2755.7z"/>
			</g>
		</g>
		<g>
			<g>
				<polygon class="st1" points="1521.4,1978.6 1750,2207.1 1750,1978.6 				"/>
			</g>
			<g>
				<polygon class="st1" points="1750,1750 1978.6,1978.6 1978.6,1750 				"/>
			</g>
			<g>
				<polygon class="st1" points="1521.4,1750 1750,1978.6 1750,1750 				"/>
			</g>
			<g>
				<polygon class="st1" points="1750,1978.6 1978.6,2207.1 1978.6,1978.6 				"/>
			</g>
		</g>
		<g>
			<g>
				<g>
					<polygon class="st1" points="1064.3,607.1 1292.9,835.7 1292.9,607.1 					"/>
				</g>
				<g>
					<polygon class="st1" points="1292.9,378.6 1521.4,607.1 1521.4,378.6 					"/>
				</g>
				<g>
					<polygon class="st1" points="1064.3,378.6 1292.9,607.1 1292.9,378.6 					"/>
				</g>
				<g>
					<polygon class="st1" points="1292.9,607.1 1521.4,835.7 1521.4,607.1 					"/>
				</g>
			</g>
		</g>
		<g>
			<g>
				<path class="st1" d="M150,1292.9V1750h457.1v-457.1H150z M561.4,1704.3H195.7v-365.7h365.7V1704.3z"/>
			</g>
			<g>
				<path class="st1" d="M247.1,1390v262.9H510V1390H247.1z M464.3,1607.1H292.9v-171.4h171.4V1607.1z"/>
			</g>
		</g>
		<g>
			<g>
				<g>
					<path class="st1" d="M1292.9,1750L1292.9,1750v45.7l0,0c101,0,182.9,81.9,182.9,182.9l0,0c0,101-81.9,182.9-182.9,182.9l0,0
						v45.7l0,0c126.2,0,228.6-102.3,228.6-228.6l0,0C1521.4,1852.3,1419.1,1750,1292.9,1750z"/>
				</g>
				<g>
					<path class="st1" d="M1424.3,1978.6c0-72.6-58.8-131.4-131.4-131.4v46.9c46.7,0,84.6,37.9,84.6,84.6s-37.9,84.6-84.6,84.6v46.9
						C1365.4,2110,1424.3,2051.2,1424.3,1978.6z"/>
				</g>
			</g>
			<g>
				<g>
					<path class="st1" d="M1064.3,1750L1064.3,1750v45.7l0,0c101,0,182.9,81.9,182.9,182.9l0,0c0,101-81.9,182.9-182.9,182.9l0,0
						v45.7l0,0c126.2,0,228.6-102.3,228.6-228.6l0,0C1292.9,1852.3,1190.5,1750,1064.3,1750z"/>
				</g>
				<g>
					<path class="st1" d="M1195.7,1978.6c0-72.6-58.8-131.4-131.4-131.4v46.9c46.7,0,84.6,37.9,84.6,84.6s-37.9,84.6-84.6,84.6v46.9
						C1136.9,2110,1195.7,2051.2,1195.7,1978.6z"/>
				</g>
			</g>
		</g>
		<g>
			<g>
				<g>
					<g>
						<path class="st1" d="M378.6,835.7L378.6,835.7v45.7l0,0c101,0,182.9,81.9,182.9,182.9l0,0c0,101-81.9,182.9-182.9,182.9l0,0
							v45.7l0,0c126.2,0,228.6-102.3,228.6-228.6l0,0C607.1,938,504.8,835.7,378.6,835.7z"/>
					</g>
					<g>
						<path class="st1" d="M510,1064.3c0-72.6-58.8-131.4-131.4-131.4v46.9c46.7,0,84.6,37.9,84.6,84.6s-37.9,84.6-84.6,84.6v46.9
							C451.2,1195.7,510,1136.9,510,1064.3z"/>
					</g>
				</g>
				<g>
					<g>
						<path class="st1" d="M150,835.7L150,835.7v45.7l0,0c101,0,182.9,81.9,182.9,182.9l0,0c0,101-81.9,182.9-182.9,182.9l0,0v45.7
							l0,0c126.2,0,228.6-102.3,228.6-228.6l0,0C378.6,938,276.2,835.7,150,835.7z"/>
					</g>
					<g>
						<path class="st1" d="M281.4,1064.3c0-72.6-58.8-131.4-131.4-131.4v46.9c46.7,0,84.6,37.9,84.6,84.6S196.7,1149,150,1149v46.9
							C222.6,1195.7,281.4,1136.9,281.4,1064.3z"/>
					</g>
				</g>
			</g>
		</g>
		<g>
			<g>
				<polygon class="st1" points="1521.4,2664.3 1064.3,2664.3 1292.9,2892.9 				"/>
			</g>
			<g>
				<polygon class="st1" points="1064.3,3121.4 1521.4,3121.4 1292.9,2892.9 				"/>
			</g>
		</g>
		<g>
			<g>
				<polygon class="st1" points="1521.4,1292.9 1064.3,1292.9 1292.9,1521.4 				"/>
			</g>
			<g>
				<polygon class="st1" points="1064.3,1750 1521.4,1750 1292.9,1521.4 				"/>
			</g>
		</g>
	</g>
</g>
<g>
	<g>
		<g>
			<g>
				<rect x="1675.7" y="1292.9" class="st2" width="148.6" height="457.1"/>
			</g>
			<g>
				<rect x="1521.4" y="1447.1" class="st2" width="457.1" height="148.6"/>
			</g>
		</g>
		<g>
			<g>
				<polygon class="st2" points="2664.3,2207.1 2601.4,2207.1 2830,2435.7 2601.4,2664.3 2664.3,2664.3 2892.9,2435.7 				"/>
			</g>
			<g>
				<polygon class="st2" points="2548.9,2207.1 2486,2207.1 2714.6,2435.7 2486,2664.3 2548.9,2664.3 2777.4,2435.7 				"/>
			</g>
			<g>
				<polygon class="st2" points="2435.7,2207.1 2435.7,2270 2601.4,2435.7 2435.7,2601.4 2435.7,2664.3 2664.3,2435.7 				"/>
			</g>
		</g>
		<g>
			<polygon class="st2" points="2892.9,2778.6 2778.5,2664.3 2435.7,2664.3 2550.1,2778.6 2435.7,2892.9 2550.1,3007.1 
				2435.7,3121.4 2778.5,3121.4 2892.9,3007.1 2778.5,2892.9 			"/>
		</g>
		<g>
			<g>
				<path class="st2" d="M607.1,2207.1v457.1h457.1v-457.1H607.1z M978.6,2578.6H692.9v-285.7h285.7L978.6,2578.6L978.6,2578.6z"/>
			</g>
		</g>
		<g>
			<g>
				<path class="st2" d="M1292.9,835.7L1292.9,835.7c-126.2,0-228.6,102.3-228.6,228.6l0,0c0,126.2,102.3,228.6,228.6,228.6l0,0
					c126.2,0,228.6-102.3,228.6-228.6l0,0C1521.4,938,1419.1,835.7,1292.9,835.7z M1430,1064.3c0,75.7-61.4,137.1-137.1,137.1l0,0
					c-75.7,0-137.1-61.4-137.1-137.1l0,0c0-75.7,61.4-137.1,137.1-137.1l0,0C1368.6,927.1,1430,988.5,1430,1064.3L1430,1064.3z"/>
			</g>
		</g>
		<g>
			<g>
				<g>
					<polygon class="st2" points="3003.8,1178.6 2892.9,1292.9 3010.5,1292.9 3121.4,1178.6 3010.5,1064.3 3121.4,950 3010.5,835.7 
						2892.9,835.7 3003.8,950 2892.9,1064.3 					"/>
				</g>
				<g>
					<polygon class="st2" points="3232.4,1178.6 3121.4,1292.9 3239,1292.9 3350,1178.6 3239,1064.3 3350,950 3239,835.7 
						3121.4,835.7 3232.4,950 3121.4,1064.3 					"/>
				</g>
			</g>
		</g>
		<g>
			<g>
				<polygon class="st2" points="1750,2664.3 1628.9,2664.3 1857.4,2892.9 1628.9,3121.4 1750,3121.4 1978.6,2892.9 				"/>
			</g>
			<g>
				<polygon class="st2" points="1521.4,2664.3 1521.4,2785.4 1628.9,2892.9 1521.4,3000.3 1521.4,3121.4 1750,2892.9 				"/>
			</g>
		</g>
		<g>
			<g>
				<polygon class="st2" points="835.7,1750 714.6,1750 943.1,1978.6 714.6,2207.1 835.7,2207.1 1064.3,1978.6 				"/>
			</g>
			<g>
				<polygon class="st2" points="607.1,1750 607.1,1871.1 714.6,1978.6 607.1,2086 607.1,2207.1 835.7,1978.6 				"/>
			</g>
		</g>
		<g>
			<g>
				<g>
					<polygon class="st2" points="2435.7,1064.3 2664.3,1292.9 2664.3,1064.3 					"/>
				</g>
				<g>
					<polygon class="st2" points="2664.3,835.7 2892.9,1064.3 2892.9,835.7 					"/>
				</g>
				<g>
					<polygon class="st2" points="2435.7,835.7 2664.3,1064.3 2664.3,835.7 					"/>
				</g>
				<g>
					<polygon class="st2" points="2664.3,1064.3 2892.9,1292.9 2892.9,1064.3 					"/>
				</g>
			</g>
		</g>
		<g>
			<g>
				<polygon class="st2" points="3350,1750 3121.4,1750 3235.7,1864.3 				"/>
			</g>
			<g>
				
					<rect x="3154.9" y="1897.8" transform="matrix(0.7071 -0.7071 0.7071 0.7071 -451.3774 2867.499)" class="st2" width="161.6" height="161.6"/>
			</g>
			<g>
				<polygon class="st2" points="3350,2207.1 3235.7,2092.9 3121.4,2207.1 				"/>
			</g>
			<g>
				<polygon class="st2" points="2892.9,2207.1 3121.4,2207.1 3007.1,2092.9 				"/>
			</g>
			<g>
				<polygon class="st2" points="2892.9,1750 3007.1,1864.3 3121.4,1750 				"/>
			</g>
			<g>
				
					<rect x="2926.3" y="1897.8" transform="matrix(0.7071 -0.7071 0.7071 0.7071 -518.3431 2705.8672)" class="st2" width="161.6" height="161.6"/>
			</g>
		</g>
	</g>
</g>
<g>
	<g>
		<g>
			<g>
				<g>
					<polygon class="st3" points="1978.6,2207.1 2207.3,2435.7 1978.6,2664.3 2207,2664.3 2435.7,2435.7 2207,2207.1 					"/>
				</g>
			</g>
			<g>
				<g>
					<polygon class="st3" points="1067.7,2778.6 954.2,2664.3 896.3,2664.3 1009.8,2778.6 896.3,2892.9 1009.8,3007.1 896.3,3121.4 
						954.2,3121.4 1067.7,3007.1 954.2,2892.9 					"/>
				</g>
				<g>
					<polygon class="st3" points="782,2778.6 668.5,2664.3 610.6,2664.3 724.1,2778.6 610.6,2892.9 724.1,3007.1 610.6,3121.4 
						668.5,3121.4 782,3007.1 668.5,2892.9 					"/>
				</g>
				<g>
					<polygon class="st3" points="924.2,2778.6 810.6,2664.3 752.7,2664.3 866.3,2778.6 752.7,2892.9 866.3,3007.1 752.7,3121.4 
						810.6,3121.4 924.2,3007.1 810.6,2892.9 					"/>
				</g>
			</g>
			<g>
				<g>
					<polygon class="st3" points="2435.7,1864.3 2322.2,1750 2264.3,1750 2377.8,1864.3 2264.3,1978.6 2377.8,2092.9 2264.3,2207.1 
						2322.2,2207.1 2435.7,2092.9 2322.2,1978.6 					"/>
				</g>
				<g>
					<polygon class="st3" points="2150,1864.3 2036.5,1750 1978.6,1750 2092.1,1864.3 1978.6,1978.6 2092.1,2092.9 1978.6,2207.1 
						2036.5,2207.1 2150,2092.9 2036.5,1978.6 					"/>
				</g>
				<g>
					<polygon class="st3" points="2292.2,1864.3 2178.6,1750 2120.7,1750 2234.3,1864.3 2120.7,1978.6 2234.3,2092.9 2120.7,2207.1 
						2178.6,2207.1 2292.2,2092.9 2178.6,1978.6 					"/>
				</g>
			</g>
			<g>
				<g>
					<polygon class="st3" points="721.4,1521.4 835.7,1635.7 835.7,1521.4 					"/>
				</g>
				<g>
					<polygon class="st3" points="835.7,1635.7 950,1750 950,1635.7 					"/>
				</g>
				<g>
					<polygon class="st3" points="835.7,1521.4 950,1635.7 950,1521.4 					"/>
				</g>
				<g>
					<polygon class="st3" points="950,1521.4 1064.3,1635.7 1064.3,1521.4 					"/>
				</g>
				<g>
					<polygon class="st3" points="950,1635.7 1064.3,1750 1064.3,1635.7 					"/>
				</g>
				<g>
					<polygon class="st3" points="721.4,1635.7 835.7,1750 835.7,1635.7 					"/>
				</g>
				<g>
					<polygon class="st3" points="607.1,1635.7 721.4,1750 721.4,1635.7 					"/>
				</g>
				<g>
					<polygon class="st3" points="607.1,1521.4 721.4,1635.7 721.4,1521.4 					"/>
				</g>
				<g>
					<polygon class="st3" points="607.1,1407.1 721.4,1521.4 721.4,1407.1 					"/>
				</g>
				<g>
					<polygon class="st3" points="607.1,1292.9 721.4,1407.1 721.4,1292.9 					"/>
				</g>
				<g>
					<polygon class="st3" points="721.4,1407.1 835.7,1521.4 835.7,1407.1 					"/>
				</g>
				<g>
					<polygon class="st3" points="721.4,1292.9 835.7,1407.1 835.7,1292.9 					"/>
				</g>
				<g>
					<polygon class="st3" points="835.7,1407.1 950,1521.4 950,1407.1 					"/>
				</g>
				<g>
					<polygon class="st3" points="950,1292.9 1064.3,1407.1 1064.3,1292.9 					"/>
				</g>
				<g>
					<polygon class="st3" points="835.7,1292.9 950,1407.1 950,1292.9 					"/>
				</g>
				<g>
					<polygon class="st3" points="950,1407.1 1064.3,1521.4 1064.3,1407.1 					"/>
				</g>
			</g>
			<g>
				<g>
					<path class="st3" d="M378.6,2207.1L378.6,2207.1v91.4l0,0c75.7,0,137.1,61.4,137.1,137.1l0,0c0,75.7-61.4,137.1-137.1,137.1
						l0,0v91.4l0,0c126.2,0,228.6-102.3,228.6-228.6l0,0C607.1,2309.5,504.8,2207.1,378.6,2207.1z"/>
				</g>
				<g>
					<path class="st3" d="M150,2298.6c75.7,0,137.1,61.4,137.1,137.1l0,0c0,75.7-61.4,137.1-137.1,137.1l0,0v91.4l0,0
						c126.2,0,228.6-102.3,228.6-228.6l0,0c0-126.2-102.3-228.6-228.6-228.6l0,0V2298.6L150,2298.6z"/>
				</g>
			</g>
			<g>
				<g>
					<g>
						<g>
							<path class="st3" d="M607.1,378.6v457.1h457.1V378.6H607.1z M1018.6,790H652.9V424.3h365.7L1018.6,790L1018.6,790z"/>
						</g>
					</g>
					<g>
						<path class="st3" d="M704.3,475.7v262.9h262.9V475.7H704.3z M921.4,692.9H750V521.4h171.4V692.9z"/>
					</g>
				</g>
			</g>
			<g>
				<g>
					<path class="st3" d="M2664.3,1292.9L2664.3,1292.9c-126.2,0-228.6,102.3-228.6,228.6l0,0c0,126.2,102.3,228.6,228.6,228.6l0,0
						c126.2,0,228.6-102.3,228.6-228.6l0,0C2892.9,1395.2,2790.5,1292.9,2664.3,1292.9z M2847.1,1521.4
						c0,101-81.9,182.9-182.9,182.9l0,0c-101,0-182.9-81.9-182.9-182.9l0,0c0-101,81.9-182.9,182.9-182.9l0,0
						C2765.3,1338.6,2847.1,1420.4,2847.1,1521.4L2847.1,1521.4z"/>
				</g>
				<g>
					<path class="st3" d="M2664.3,1390c-72.6,0-131.4,58.8-131.4,131.4s58.8,131.4,131.4,131.4s131.4-58.8,131.4-131.4
						S2736.9,1390,2664.3,1390z M2664.3,1606c-46.7,0-84.6-37.9-84.6-84.6s37.9-84.6,84.6-84.6c46.7,0,84.6,37.9,84.6,84.6
						S2711,1606,2664.3,1606z"/>
				</g>
			</g>
			<g>
				<g>
					<g>
						<polygon class="st3" points="2435.7,835.7 2321.4,835.7 2378.6,892.9 						"/>
					</g>
					<g>
						
							<rect x="2338.2" y="909.6" transform="matrix(0.7071 -0.7071 0.7071 0.7071 24.9227 1960.1477)" class="st3" width="80.8" height="80.8"/>
					</g>
					<g>
						<polygon class="st3" points="2321.4,835.7 2207.1,835.7 2264.3,892.9 						"/>
					</g>
					<g>
						
							<rect x="2223.9" y="909.6" transform="matrix(0.7071 -0.7071 0.7071 0.7071 -8.5602 1879.3317)" class="st3" width="80.8" height="80.8"/>
					</g>
					<g>
						<polygon class="st3" points="2207.1,835.7 2092.9,835.7 2150,892.9 						"/>
					</g>
					<g>
						
							<rect x="2109.6" y="909.6" transform="matrix(0.7071 -0.7071 0.7071 0.7071 -42.0429 1798.5156)" class="st3" width="80.8" height="80.8"/>
					</g>
					<g>
						
							<rect x="2109.6" y="1023.9" transform="matrix(0.7071 -0.7071 0.7071 0.7071 -122.859 1831.9985)" class="st3" width="80.8" height="80.8"/>
					</g>
					<g>
						
							<rect x="1995.3" y="1023.9" transform="matrix(0.7071 -0.7071 0.7071 0.7071 -156.3418 1751.1825)" class="st3" width="80.8" height="80.8"/>
					</g>
					<g>
						<polygon class="st3" points="1978.6,835.7 2035.7,892.9 2092.9,835.7 						"/>
					</g>
					<g>
						
							<rect x="1995.3" y="909.6" transform="matrix(0.7071 -0.7071 0.7071 0.7071 -75.5257 1717.6996)" class="st3" width="80.8" height="80.8"/>
					</g>
					<g>
						
							<rect x="2338.2" y="1023.9" transform="matrix(0.7071 -0.7071 0.7071 0.7071 -55.8934 1993.6306)" class="st3" width="80.8" height="80.8"/>
					</g>
					<g>
						
							<rect x="2338.2" y="1138.2" transform="matrix(0.7071 -0.7071 0.7071 0.7071 -136.7095 2027.1134)" class="st3" width="80.8" height="80.8"/>
					</g>
					<g>
						<polygon class="st3" points="2435.7,1292.9 2378.6,1235.7 2321.4,1292.9 						"/>
					</g>
					<g>
						<polygon class="st3" points="2207.1,1292.9 2321.4,1292.9 2264.3,1235.7 						"/>
					</g>
					<g>
						
							<rect x="2223.9" y="1023.9" transform="matrix(0.7071 -0.7071 0.7071 0.7071 -89.3763 1912.8146)" class="st3" width="80.8" height="80.8"/>
					</g>
					<g>
						
							<rect x="2223.9" y="1138.2" transform="matrix(0.7071 -0.7071 0.7071 0.7071 -170.1923 1946.2974)" class="st3" width="80.8" height="80.8"/>
					</g>
					<g>
						
							<rect x="2109.6" y="1138.2" transform="matrix(0.7071 -0.7071 0.7071 0.7071 -203.675 1865.4813)" class="st3" width="80.8" height="80.8"/>
					</g>
					<g>
						<polygon class="st3" points="2092.9,1292.9 2207.1,1292.9 2150,1235.7 						"/>
					</g>
					<g>
						<polygon class="st3" points="1978.6,1292.9 2092.9,1292.9 2035.7,1235.7 						"/>
					</g>
					<g>
						
							<rect x="1995.3" y="1138.2" transform="matrix(0.7071 -0.7071 0.7071 0.7071 -237.1579 1784.6653)" class="st3" width="80.8" height="80.8"/>
					</g>
				</g>
			</g>
		</g>
	</g>
</g>
<g>
	<rect x="-2106" y="195" class="st4" width="1200" height="150"/>
</g>
<g>
	<rect x="-2106" y="45" class="st5" width="1200" height="150"/>
</g>
<g>
	<rect x="-2106" y="345" class="st6" width="1200" height="150"/>
</g>
<g>
	<rect x="-2106" y="495" class="st7" width="1200" height="150"/>
</g>
<g>
	<rect x="-2106" y="645" class="st1" width="1200" height="150"/>
</g>
<g>
	<rect x="-2106" y="795" class="st8" width="1200" height="150"/>
</g>
<g>
	<rect x="-2106" y="945" class="st2" width="1200" height="150"/>
</g>
<g>
	<rect x="-2106" y="1095" class="st9" width="1200" height="150"/>
</g>
<g>
	<rect x="-2106" y="1245" class="st10" width="1200" height="150"/>
</g>
<g>
	<rect x="-2106" y="1395" class="st11" width="1200" height="150"/>
</g>
<g>
	<rect x="-1071" y="195" class="st1" width="165" height="1200"/>
</g>
</svg>
