<?xml version="1.0" encoding="utf-8"?>
<!-- Generator: Adobe Illustrator 22.0.0, SVG Export Plug-In . SVG Version: 6.00 Build 0)  -->
<svg version="1.1" id="Layer_1" xmlns="http://www.w3.org/2000/svg" xmlns:xlink="http://www.w3.org/1999/xlink" x="0px" y="0px"
	 viewBox="0 0 264.1 306.2" style="enable-background:new 0 0 264.1 306.2;" xml:space="preserve">
<style type="text/css">
	.st0{fill:#FFFFFF;stroke:#FC2755;stroke-width:6;stroke-miterlimit:10;}
	.st1{fill:#FFFFFF;stroke:#121212;stroke-width:6;stroke-linejoin:round;stroke-miterlimit:10;}
	.st2{fill:#FFFFFF;stroke:#121212;stroke-width:6;stroke-miterlimit:10;}
	.st3{fill:#FFFFFF;stroke:#121212;stroke-width:6;stroke-linecap:round;stroke-miterlimit:10;}
	.st4{fill:none;stroke:#FC2755;stroke-width:6;stroke-linecap:round;stroke-miterlimit:10;}
	.st5{fill:#FC2755;}
</style>
<rect x="3" y="63.5" class="st0" width="144.7" height="240"/>
<g>
	<path class="st1" d="M206,159l-63.1,0.2c-7.4,0.1-14.7,0.9-22,2.3l-13.4,2.6c-6.4,1.4-10.6,7.7-9.2,14.1c0.5,2.6,1.9,4.8,3.7,6.4
		c-5.3,2.1-8.5,7.8-7.3,13.5c1,4.9,4.9,8.4,9.5,9.3c-4.5,2.5-7,7.7-5.9,12.9c1.1,5.3,5.6,9,10.7,9.4c-3.3,2.7-4.9,7.1-4,11.6
		c1.4,6.4,7.7,10.6,14.1,9.2l24.4-2.8c9.9-2.1,19.4,4.5,21,14.5l4.3,32.8c1,6.1,6.8,10.1,12.8,8.8h0c5.1-1.1,8.6-5.6,8.5-10.8
		l0.3-21.7c-0.3-11.8,1.4-27.1,7.1-38.3c1.9-3.7,4.8-6.7,8.4-8.8l0,0"/>
	
		<rect x="206" y="155.1" transform="matrix(-1 -4.229473e-11 4.229473e-11 -1 436.6023 385.1115)" class="st2" width="24.6" height="74.9"/>
	<circle class="st0" cx="218.3" cy="192.6" r="24.3"/>
	<line class="st3" x1="231.1" y1="159" x2="260.3" y2="159"/>
	<line class="st3" x1="231.1" y1="223.9" x2="260.3" y2="223.9"/>
	<polyline class="st4" points="218.3,172.6 218.3,192.6 231.6,192.6 	"/>
</g>
<g>
	<path class="st0" d="M40.4,173.6L40.4,173.6c-6.5,0-11.8,5.3-11.8,11.8v12.4c0,6.5,5.3,11.8,11.8,11.8h0c6.5,0,11.8-5.3,11.8-11.8
		v-12.4C52.2,178.9,46.9,173.6,40.4,173.6z"/>
	<rect x="19.8" y="191.5" class="st5" width="41.2" height="29.7"/>
</g>
</svg>
