<?xml version="1.0" encoding="utf-8"?>
<!-- Generator: Adobe Illustrator 22.0.0, SVG Export Plug-In . SVG Version: 6.00 Build 0)  -->
<svg version="1.1" id="Layer_1" xmlns="http://www.w3.org/2000/svg" xmlns:xlink="http://www.w3.org/1999/xlink" x="0px" y="0px"
	 viewBox="0 0 270 255" style="enable-background:new 0 0 270 255;" xml:space="preserve">
<style type="text/css">
	.st0{fill:#FFFFFF;}
	.st1{fill:none;stroke:#121212;stroke-width:6;stroke-miterlimit:10;}
	.st2{fill:none;stroke:#121212;stroke-width:6;stroke-linecap:round;stroke-miterlimit:10;}
	.st3{fill:#FEE9ED;stroke:#FC2755;stroke-width:6;stroke-miterlimit:10;}
	.st4{fill:#FFFFFF;stroke:#121212;stroke-width:6;stroke-linecap:round;stroke-miterlimit:10;}
	.st5{fill:#FC2755;}
</style>
<rect class="st0" width="270" height="255"/>
<path class="st1" d="M140.2,190.6h-20.8c-5.8,0-10.5-4.7-10.5-10.5v0c0-5.8,4.7-10.5,10.5-10.5h20.8c5.8,0,10.5,4.7,10.5,10.5v0
	C150.8,185.9,146,190.6,140.2,190.6z"/>
<path class="st1" d="M131.9,211.6h-20.8c-5.8,0-10.5-4.7-10.5-10.5v0c0-5.8,4.7-10.5,10.5-10.5h20.8c5.8,0,10.5,4.7,10.5,10.5v0
	C142.4,206.9,137.7,211.6,131.9,211.6z"/>
<path class="st1" d="M121.1,232.6h-16.5c-5.8,0-10.5-4.7-10.5-10.5v0c0-5.8,4.7-10.5,10.5-10.5h16.5c5.8,0,10.5,4.7,10.5,10.5v0
	C131.6,227.9,126.9,232.6,121.1,232.6z"/>
<path class="st2" d="M59.3,252l14-13.8c4.9-4.9,11.6-7.6,18.5-7.6h6.6"/>
<path class="st3" d="M196.3,173.6h-86c-6.6,0-12-5.4-12-12V19.7c0-6.6,5.4-12,12-12h86c6.6,0,12,5.4,12,12v141.9
	C208.3,168.3,202.9,173.6,196.3,173.6z"/>
<g>
	<line class="st2" x1="222.9" y1="65.8" x2="242" y2="46.7"/>
	<line class="st2" x1="222.9" y1="115.6" x2="242" y2="134.6"/>
	<line class="st2" x1="239.9" y1="90.6" x2="266.9" y2="90.6"/>
</g>
<path class="st4" d="M3,218.5l22.9-38.2c7.4-12.3,18.5-21.8,31.8-27.1l49.8-20c5.6-2.2,12,0.3,14.5,5.8l0,0
	c2.4,5.2,0.5,11.5-4.5,14.4l-24,14.3c-6.5,4.2-10.4,11.4-10.5,19.2v0c0,5.7-2.2,11.1-6,15.3l-9.6,10.6"/>
<g>
	<path class="st5" d="M124.2,77.1c0-15.8,10.8-29.2,29.8-29.2c17.8,0,28.6,9.5,28.6,22.7c0,11.5-5.9,16.4-12.5,21
		c-6.6,4.4-9.8,7.3-9.8,12.5v1.6h-15.8v-3.4c0-10,5.2-13.9,12.7-18.4c5.5-3.5,8-7,8-11.8c0-5.8-4.3-9.7-11-9.7
		c-7.7,0-12.7,5.9-12.7,14.6H124.2z M152.7,114.1c5.6,0,10,4,10,9.6c0,5.6-4.3,9.7-10,9.7c-5.6,0-10-4.1-10-9.7
		C142.8,118,147.1,114.1,152.7,114.1z"/>
</g>
</svg>
