<?xml version="1.0" encoding="utf-8"?>
<!-- Generator: Adobe Illustrator 22.0.0, SVG Export Plug-In . SVG Version: 6.00 Build 0)  -->
<svg version="1.1" id="Layer_1" xmlns="http://www.w3.org/2000/svg" xmlns:xlink="http://www.w3.org/1999/xlink" x="0px" y="0px"
	 viewBox="0 0 76 76" style="enable-background:new 0 0 76 76;" xml:space="preserve">
<style type="text/css">
	.st0{fill:#8F3CF2;}
	.st1{fill:none;stroke:#FFFFFF;stroke-width:2;}
	.st2{fill:none;stroke:#FFFFFF;}
</style>
<g>
	<circle class="st0" cx="38" cy="38" r="38"/>
	<g>
		<path class="st1" d="M35,37.9l16.1-9.3c1.4-0.8,1.9-2.6,1.1-4l0,0c-0.8-1.4-2.6-1.9-4-1.1L30.3,33.8c-0.2,0.1-0.4,0-0.4-0.2
			l0.4-9.7c0.1-1.4-1-2.7-2.4-2.9l0,0c-1.3-0.2-2.6,0.7-3,2L19.9,40c-0.6,2.1-0.4,4.3,0.7,6.2l4.6,7.9c1.3,2.2,3.6,3.7,6.1,3.9l0,0
			c2.4,0.2,4.7-0.3,6.8-1.5l7.8-4.5"/>
		<path class="st1" d="M49.6,39.6L49.6,39.6c0.8,1.4,0.3,3.2-1.1,4l-6.8,3.9c-1.4,0.8-3.2,0.3-4-1.1l0,0c-0.8-1.4-0.3-3.2,1.1-4
			l6.8-3.9C47,37.8,48.7,38.2,49.6,39.6z"/>
		<path class="st1" d="M47.5,34.1L47.5,34.1c0.8,1.4,0.3,3.2-1.1,4L37.9,43c-1.4,0.8-3.2,0.3-4-1.1l0,0c-0.8-1.4-0.3-3.2,1.1-4
			l8.5-4.9C44.9,32.2,46.7,32.7,47.5,34.1z"/>
		<path class="st1" d="M51.6,45.2L51.6,45.2c0.8,1.4,0.3,3.2-1.1,4l-5.1,2.9c-1.4,0.8-3.2,0.3-4-1.1l0,0c-0.8-1.4-0.3-3.2,1.1-4
			l5.1-2.9C49,43.3,50.8,43.8,51.6,45.2z"/>
		<path class="st2" d="M38.9,20v-3.9"/>
		<path class="st2" d="M41.8,20.9l2-3.4"/>
		<path class="st2" d="M35.9,20.9l-2-3.4"/>
	</g>
</g>
</svg>
