<?xml version="1.0" encoding="utf-8"?>
<!-- Generator: Adobe Illustrator 22.0.0, SVG Export Plug-In . SVG Version: 6.00 Build 0)  -->
<svg version="1.1" id="Layer_1" xmlns="http://www.w3.org/2000/svg" xmlns:xlink="http://www.w3.org/1999/xlink" x="0px" y="0px"
	 viewBox="0 0 265.3 307.3" style="enable-background:new 0 0 265.3 307.3;" xml:space="preserve">
<style type="text/css">
	.st0{fill:none;stroke:#121212;stroke-width:7.3469;stroke-miterlimit:10;}
	.st1{fill:none;stroke:#121212;stroke-width:7.3469;stroke-linecap:round;stroke-miterlimit:10;}
	.st2{fill:#FFFFFF;stroke:#FC2755;stroke-width:7.3469;stroke-miterlimit:10;}
	.st3{fill:#FFFFFF;stroke:#121212;stroke-width:7.3469;stroke-linecap:round;stroke-miterlimit:10;}
	.st4{fill:#FC2755;}
</style>
<g>
	<path class="st0" d="M140.9,242.2h-20.8c-5.8,0-10.5-4.7-10.5-10.5v0c0-5.8,4.7-10.5,10.5-10.5h20.8c5.8,0,10.5,4.7,10.5,10.5v0
		C151.4,237.5,146.7,242.2,140.9,242.2z"/>
	<path class="st0" d="M132.6,263.3h-20.8c-5.8,0-10.5-4.7-10.5-10.5v0c0-5.8,4.7-10.5,10.5-10.5h20.8c5.8,0,10.5,4.7,10.5,10.5v0
		C143.1,258.6,138.4,263.3,132.6,263.3z"/>
	<path class="st0" d="M121.7,284.3h-16.5c-5.8,0-10.5-4.7-10.5-10.5l0,0c0-5.8,4.7-10.5,10.5-10.5h16.5c5.8,0,10.5,4.7,10.5,10.5
		l0,0C132.2,279.6,127.5,284.3,121.7,284.3z"/>
	<path class="st1" d="M60,303.7l14-13.8c4.9-4.9,11.6-7.6,18.5-7.6H99"/>
	<path class="st2" d="M198.2,225.3h-88.5c-5.9,0-10.8-4.8-10.8-10.8V70.1c0-5.9,4.8-10.8,10.8-10.8h88.5c5.9,0,10.8,4.8,10.8,10.8
		v144.4C209,220.5,204.2,225.3,198.2,225.3z"/>
	<line class="st1" x1="201" y1="30.6" x2="201" y2="3.7"/>
	<line class="st1" x1="234.7" y1="67.3" x2="261.6" y2="67.3"/>
	<line class="st1" x1="229.1" y1="37.7" x2="248.2" y2="18.6"/>
	<path class="st3" d="M3.7,270.2L26.6,232c7.4-12.3,18.5-21.8,31.8-27.1l49.8-20c5.6-2.2,12,0.3,14.5,5.8l0,0
		c2.4,5.2,0.5,11.5-4.5,14.4l-24,14.3c-6.5,4.2-10.4,11.4-10.5,19.2v0c0,5.7-2.2,11.1-6,15.3l-9.6,10.6"/>
	<g>
		<path class="st4" d="M124.8,128.8c0-15.8,10.8-29.2,29.8-29.2c17.8,0,28.6,9.5,28.6,22.7c0,11.5-5.9,16.4-12.5,21
			c-6.6,4.4-9.8,7.3-9.8,12.5v1.6H145V154c0-10,5.2-13.9,12.7-18.4c5.5-3.5,8-7,8-11.8c0-5.8-4.3-9.7-11-9.7
			c-7.7,0-12.7,5.9-12.7,14.6H124.8z M153.4,165.7c5.6,0,10,4,10,9.6c0,5.6-4.3,9.7-10,9.7c-5.6,0-10-4.1-10-9.7
			C143.4,169.7,147.8,165.7,153.4,165.7z"/>
	</g>
</g>
</svg>
