<?xml version="1.0" encoding="utf-8"?>
<!-- Generator: Adobe Illustrator 22.0.0, SVG Export Plug-In . SVG Version: 6.00 Build 0)  -->
<svg version="1.1" id="Layer_1" xmlns="http://www.w3.org/2000/svg" xmlns:xlink="http://www.w3.org/1999/xlink" x="0px" y="0px"
	 viewBox="0 0 270 255" style="enable-background:new 0 0 270 255;" xml:space="preserve">
<style type="text/css">
	.st0{fill:#FFFFFF;}
	.st1{fill:#FFFFFF;stroke:#FC2755;stroke-width:6;stroke-miterlimit:10;}
	.st2{fill:#FC2755;}
	.st3{fill:#FFFFFF;stroke:#121212;stroke-width:6;stroke-linecap:round;stroke-linejoin:round;stroke-miterlimit:10;}
	.st4{fill:#FFFFFF;stroke:#121212;stroke-width:5.8235;stroke-linecap:round;stroke-miterlimit:10;}
</style>
<rect class="st0" width="270" height="255"/>
<path class="st1" d="M91,102.5H13c-5.5,0-10-4.5-10-10V36c0-5.5,4.5-10,10-10h78c5.5,0,10,4.5,10,10v56.5
	C101,98,96.5,102.5,91,102.5z"/>
<g>
	<path class="st2" d="M35,47.1h6.9v34.3h-7.1V59.2c-0.5,0.1-1.1,0.2-1.9,0.2h-5.7v-5.8h5.1c2,0,2.6-1.3,2.6-3.3V47.1z"/>
	<path class="st2" d="M46.5,63.5c0-10.2,5.8-16.7,14.1-16.7c8.3,0,14.2,6.4,14.2,16.7V65c0,10.4-5.8,16.7-14.2,16.7
		c-8.3,0-14.1-6.2-14.1-16.7V63.5z M67.7,63.7c0-7.1-2.9-10.9-7.1-10.9c-4.2,0-7.1,3.9-7.1,10.9v1.1c0,7.1,2.9,10.9,7.1,10.9
		c4.2,0,7.1-3.8,7.1-10.9V63.7z"/>
</g>
<g>
	<path class="st3" d="M116.2,252.2h117.8c14,0,25.3-11.3,25.3-25.3V6H141.5v220.8C141.5,240.8,130.2,252.2,116.2,252.2
		s-25.3-11.3-25.3-25.3v-26.5h50.7"/>
	<path class="st3" d="M140.5,226.8"/>
	<line class="st3" x1="152.3" y1="43.4" x2="247.3" y2="43.4"/>
	<line class="st3" x1="152.3" y1="80.7" x2="247.3" y2="80.7"/>
	<line class="st3" x1="152.3" y1="118" x2="247.3" y2="118"/>
	<line class="st3" x1="152.3" y1="155.4" x2="247.3" y2="155.4"/>
	<g>
		<path class="st2" d="M171.6,209.8l13-10.8c3-2.4,4.9-4.5,4.9-7.3c0-3.4-2.2-5.1-5.3-5.1c-3.3,0-5.5,2.3-5.5,6v0.5h-7.1v-1
			c0-6.5,4.9-11.5,12.7-11.5c8,0,12.4,4.4,12.4,10.8c0,5-2.7,8.1-7.1,11.6l-7.7,6.3h14.9v5.9h-25.2V209.8z"/>
		<path class="st2" d="M199.8,197.3c0-10.2,5.8-16.7,14.1-16.7c8.3,0,14.2,6.4,14.2,16.7v1.6c0,10.4-5.8,16.7-14.2,16.7
			c-8.3,0-14.1-6.2-14.1-16.7V197.3z M221,197.6c0-7.1-2.9-10.9-7.1-10.9c-4.2,0-7.1,3.9-7.1,10.9v1.1c0,7.1,2.9,10.9,7.1,10.9
			c4.2,0,7.1-3.8,7.1-10.9V197.6z"/>
	</g>
</g>
<g>
	<path class="st4" d="M78.2,162.3L54,146.8c-3.1-2-4.3-6.1-2.6-9.4l0,0c1.2-2.5,3.8-4,6.5-4h12L51.6,98.2c-1.8-3.4-0.5-7.5,2.8-9.4
		l0,0c3.4-1.9,7.8-0.6,9.6,2.9l10.8,20.6l17.3-0.3c3.8-0.1,7.5,1.1,10.5,3.4l3.3,2.5c3.4,2.5,5.7,6.2,6.5,10.4l2.9,15"/>
	<rect x="78" y="152" transform="matrix(0.8941 -0.4479 0.4479 0.8941 -60.8088 61.6536)" class="st4" width="44" height="14.8"/>
</g>
</svg>
