<?xml version="1.0" encoding="utf-8"?>
<!-- Generator: Adobe Illustrator 22.0.0, SVG Export Plug-In . SVG Version: 6.00 Build 0)  -->
<svg version="1.1" id="Layer_1" xmlns="http://www.w3.org/2000/svg" xmlns:xlink="http://www.w3.org/1999/xlink" x="0px" y="0px"
	 viewBox="0 0 220 166" style="enable-background:new 0 0 220 166;" xml:space="preserve">
<style type="text/css">
	.st0{fill:#AD73FA;}
	.st1{fill:#691CC2;}
	.st2{fill:#FFFFFF;}
</style>
<rect x="50" y="126" class="st0" width="60" height="20"/>
<rect x="50" y="106" class="st1" width="60" height="20"/>
<rect x="50" y="86" class="st0" width="60" height="20"/>
<rect x="50" y="66" class="st1" width="60" height="20"/>
<rect x="50" y="46" class="st0" width="50" height="20"/>
<rect x="20" y="106" class="st0" width="30" height="20"/>
<rect x="20" y="86" class="st1" width="30" height="20"/>
<rect x="20" y="66" class="st0" width="30" height="20"/>
<polygon class="st1" points="200,146 200,126 170,126 170,146 50,146 50,126 20,126 20,146 0,146 0,166 220,166 220,146 "/>
<rect x="170" y="106" class="st0" width="30" height="20"/>
<rect x="170" y="86" class="st1" width="30" height="20"/>
<rect x="170" y="66" class="st0" width="30" height="20"/>
<rect x="110" y="126" class="st0" width="60" height="20"/>
<rect x="110" y="106" class="st1" width="60" height="20"/>
<rect x="110" y="86" class="st0" width="60" height="20"/>
<rect x="110" y="66" class="st1" width="60" height="20"/>
<rect x="120" y="46" class="st0" width="50" height="20"/>
<path class="st2" d="M110,66L110,66c-20.7,0-37.5,16.8-37.5,37.5V146h75v-42.5C147.5,82.8,130.7,66,110,66z"/>
<circle class="st1" cx="110" cy="102.5" r="8.5"/>
<polygon class="st1" points="111.5,102 108.5,102 104.5,123 115.5,123 "/>
<polygon class="st0" points="77,0 77,28 111,14 "/>
<rect x="73" class="st1" width="4" height="46"/>
<polygon class="st0" points="147,0 147,28 181,14 "/>
<rect x="143" class="st1" width="4" height="46"/>
</svg>
