<?xml version="1.0" encoding="utf-8"?>
<!-- Generator: Adobe Illustrator 22.0.0, SVG Export Plug-In . SVG Version: 6.00 Build 0)  -->
<svg version="1.1" id="Layer_1" xmlns="http://www.w3.org/2000/svg" xmlns:xlink="http://www.w3.org/1999/xlink" x="0px" y="0px"
	 viewBox="0 0 400 400" style="enable-background:new 0 0 400 400;" xml:space="preserve">
<style type="text/css">
	.st0{fill:#FFFFFF;}
</style>
<g>
	<g>
		<g>
			<g>
				<path class="st0" d="M199.7,0L199.7,0C89.2,0-0.3,89.5-0.3,200v0c0,110.5,89.5,200,200,200h0c110.5,0,200-89.5,200-200v0
					C399.7,89.5,310.2,0,199.7,0z M359.7,200c0,88.4-71.6,160-160,160h0c-88.4,0-160-71.6-160-160v0c0-88.4,71.6-160,160-160h0
					C288.1,40,359.7,111.6,359.7,200L359.7,200z"/>
			</g>
		</g>
		<g>
			<path class="st0" d="M199.7,85c-63.5,0-115,51.5-115,115c0,63.5,51.5,115,115,115s115-51.5,115-115
				C314.7,136.5,263.2,85,199.7,85z M199.7,274c-40.9,0-74-33.1-74-74c0-40.9,33.1-74,74-74c40.9,0,74,33.1,74,74
				C273.7,240.9,240.6,274,199.7,274z"/>
		</g>
	</g>
</g>
</svg>
