<?xml version="1.0" encoding="utf-8"?>
<!-- Generator: Adobe Illustrator 22.0.0, SVG Export Plug-In . SVG Version: 6.00 Build 0)  -->
<svg version="1.1" id="Layer_1" xmlns="http://www.w3.org/2000/svg" xmlns:xlink="http://www.w3.org/1999/xlink" x="0px" y="0px"
	 viewBox="0 0 270 255" style="enable-background:new 0 0 270 255;" xml:space="preserve">
<style type="text/css">
	.st0{fill:#FFFFFF;}
	.st1{fill:#FEE9ED;stroke:#FC2755;stroke-width:6;stroke-linejoin:round;stroke-miterlimit:10;}
	.st2{fill:none;stroke:#FC2755;stroke-width:6;stroke-miterlimit:10;}
	.st3{fill:#FC2755;}
	.st4{fill:#FFFFFF;stroke:#121212;stroke-width:6;stroke-linecap:round;stroke-linejoin:round;stroke-miterlimit:10;}
	.st5{fill:#FFFFFF;stroke:#121212;stroke-width:6.1592;stroke-linejoin:round;stroke-miterlimit:10;}
	.st6{fill:#FEE9ED;stroke:#FC2755;stroke-width:6;stroke-miterlimit:10;}
	.st7{fill:#FEE9ED;stroke:#FC2755;stroke-width:6;stroke-linecap:round;stroke-miterlimit:10;}
</style>
<rect class="st0" width="270" height="255"/>
<rect x="2.9" y="7.9" class="st1" width="136" height="244.3"/>
<g>
	<path class="st2" d="M41.3,105.4L41.3,105.4c-6.5,0-11.8,5.3-11.8,11.8v12.4c0,6.5,5.3,11.8,11.8,11.8h0c6.5,0,11.8-5.3,11.8-11.8
		v-12.4C53,110.7,47.8,105.4,41.3,105.4z"/>
	<rect x="20.7" y="123.4" class="st3" width="41.2" height="29.7"/>
</g>
<g>
	<g>
		<path class="st4" d="M267.3,96.6h-67.6c-2.9,0-5.8-0.6-8.5-1.7L180,90.3c-2.7-1.1-5.6-1.7-8.5-1.7l-38.1,0
			c-7.1,0-12.9,5.8-12.9,12.9c0,3,1,5.8,2.7,8c-5,1.8-8.6,6.5-8.6,12.2c0,3.5,1.3,6.6,3.6,8.9c-3.9,2.2-6.4,6.4-6.4,11.2
			c0,4.5,2.4,8.5,5.9,10.8c-1.1,1.9-1.8,4.1-1.8,6.5c0,7.1,5.8,12.9,12.9,12.9l0.8,0h25c9,0,15.9,8,14.5,16.9l-3.9,26.7
			c-0.9,5.9,2.9,11.4,8.7,12.8l0,0c6,1.4,12-2.2,13.5-8.2l11.9-44.8c1.6-5.9,6.9-9.9,12.9-9.9h55"/>
	</g>
	
		<rect x="215.9" y="91.4" transform="matrix(-1 -4.459112e-11 4.459112e-11 -1 456.4176 261.6982)" class="st5" width="24.6" height="78.9"/>
	<g>
		<circle class="st6" cx="228.2" cy="130.8" r="24.3"/>
		<polyline class="st7" points="228.2,115.9 228.2,130.8 238.5,130.8 		"/>
	</g>
</g>
</svg>
