<?xml version="1.0" encoding="utf-8"?>
<!-- Generator: Adobe Illustrator 22.0.0, SVG Export Plug-In . SVG Version: 6.00 Build 0)  -->
<svg version="1.1" id="Layer_1" xmlns="http://www.w3.org/2000/svg" xmlns:xlink="http://www.w3.org/1999/xlink" x="0px" y="0px"
	 viewBox="0 0 400 400" style="enable-background:new 0 0 400 400;" xml:space="preserve">
<style type="text/css">
	.st0{fill:#FFFFFF;}
</style>
<g>
	<g>
		<g>
			<path class="st0" d="M400,100L300.7,0H245l81.8,82.4c9.7,9.7,9.7,25.5,0,35.2L245,200l81.8,82.4c9.7,9.7,9.7,25.5,0,35.2L245,400
				h55.7L400,300l-81.8-82.4c-9.7-9.7-9.7-25.5,0-35.2L400,100z"/>
		</g>
		<g>
			<path class="st0" d="M277.5,100L178.2,0h-55.7l81.8,82.4c9.7,9.7,9.7,25.5,0,35.2L122.5,200l81.8,82.4c9.7,9.7,9.7,25.5,0,35.2
				L122.5,400h55.7l99.3-100l-81.8-82.4c-9.7-9.7-9.7-25.5,0-35.2L277.5,100z"/>
		</g>
		<g>
			<path class="st0" d="M155,100L55.7,0H0l81.8,82.4c9.7,9.7,9.7,25.5,0,35.2L0,200l81.8,82.4c9.7,9.7,9.7,25.5,0,35.2L0,400h55.7
				L155,300l-81.8-82.4c-9.7-9.7-9.7-25.5,0-35.2L155,100z"/>
		</g>
	</g>
</g>
</svg>
