<?xml version="1.0" encoding="utf-8"?>
<!-- Generator: Adobe Illustrator 22.0.0, SVG Export Plug-In . SVG Version: 6.00 Build 0)  -->
<svg version="1.1" id="Layer_1" xmlns="http://www.w3.org/2000/svg" xmlns:xlink="http://www.w3.org/1999/xlink" x="0px" y="0px"
	 viewBox="0 0 270 255" style="enable-background:new 0 0 270 255;" xml:space="preserve">
<style type="text/css">
	.st0{fill:#FFFFFF;}
	.st1{fill:#FEE9ED;stroke:#FC2755;stroke-width:6;stroke-miterlimit:10;}
	.st2{fill:#FC2755;}
	.st3{fill:#FFFFFF;stroke:#121212;stroke-width:6;stroke-linecap:round;stroke-linejoin:round;stroke-miterlimit:10;}
	.st4{fill:#FFFFFF;stroke:#121212;stroke-width:5.8235;stroke-linecap:round;stroke-miterlimit:10;}
</style>
<rect class="st0" width="270" height="255"/>
<path class="st1" d="M91.4,102.8h-78c-5.5,0-10-4.5-10-10V36.3c0-5.5,4.5-10,10-10h78c5.5,0,10,4.5,10,10v56.5
	C101.4,98.3,97,102.8,91.4,102.8z"/>
<g>
	<path class="st2" d="M35.4,47.4h6.9v34.3h-7.1V59.5c-0.5,0.1-1.1,0.2-1.9,0.2h-5.7v-5.8h5.1c2,0,2.6-1.3,2.6-3.3V47.4z"/>
	<path class="st2" d="M47,63.7c0-10.2,5.8-16.7,14.1-16.7c8.3,0,14.2,6.4,14.2,16.7v1.6c0,10.4-5.8,16.7-14.2,16.7
		C52.8,82,47,75.7,47,65.3V63.7z M68.2,64c0-7.1-2.9-10.9-7.1-10.9c-4.2,0-7.1,3.9-7.1,10.9v1.1c0,7.1,2.9,10.9,7.1,10.9
		c4.2,0,7.1-3.8,7.1-10.9V64z"/>
</g>
<g>
	<path class="st3" d="M123.6,252.4h117.8c14,0,25.3-11.3,25.3-25.3V6.3H148.9v220.8C148.9,241.1,137.6,252.4,123.6,252.4
		s-25.3-11.3-25.3-25.3v-26.5h50.7"/>
	<path class="st3" d="M147.9,227.1"/>
	<line class="st3" x1="167.8" y1="43.6" x2="247.8" y2="43.6"/>
	<line class="st3" x1="167.8" y1="81" x2="247.8" y2="81"/>
	<line class="st3" x1="167.8" y1="118.3" x2="247.8" y2="118.3"/>
	<line class="st3" x1="167.8" y1="155.6" x2="247.8" y2="155.6"/>
	<g>
		<path class="st2" d="M179,210.1l13-10.8c3-2.4,4.9-4.5,4.9-7.3c0-3.4-2.2-5.1-5.3-5.1c-3.3,0-5.5,2.3-5.5,6v0.5h-7.1v-1
			c0-6.5,4.9-11.5,12.7-11.5c8,0,12.4,4.4,12.4,10.8c0,5-2.7,8.1-7.1,11.6l-7.7,6.3h14.9v5.9H179V210.1z"/>
		<path class="st2" d="M207.2,197.6c0-10.2,5.8-16.7,14.1-16.7c8.3,0,14.2,6.4,14.2,16.7v1.6c0,10.4-5.8,16.7-14.2,16.7
			c-8.3,0-14.1-6.2-14.1-16.7V197.6z M228.4,197.8c0-7.1-2.9-10.9-7.1-10.9c-4.2,0-7.1,3.9-7.1,10.9v1.1c0,7.1,2.9,10.9,7.1,10.9
			c4.2,0,7.1-3.8,7.1-10.9V197.8z"/>
	</g>
</g>
<g>
	<path class="st4" d="M78.6,162.5l-24.2-15.4c-3.1-2-4.3-6.1-2.6-9.4l0,0c1.2-2.5,3.8-4,6.5-4h12L52.1,98.5
		c-1.8-3.4-0.5-7.5,2.8-9.4l0,0c3.4-1.9,7.8-0.6,9.6,2.9l10.8,20.6l17.3-0.3c3.8-0.1,7.5,1.1,10.5,3.4l3.3,2.5
		c3.4,2.5,5.7,6.2,6.5,10.4l2.9,15"/>
	
		<rect x="78.4" y="152.2" transform="matrix(0.8941 -0.4479 0.4479 0.8941 -60.8791 61.878)" class="st4" width="44" height="14.8"/>
</g>
</svg>
