<?xml version="1.0" encoding="utf-8"?>
<!-- Generator: Adobe Illustrator 22.0.0, SVG Export Plug-In . SVG Version: 6.00 Build 0)  -->
<svg version="1.1" id="Layer_1" xmlns="http://www.w3.org/2000/svg" xmlns:xlink="http://www.w3.org/1999/xlink" x="0px" y="0px"
	 viewBox="0 0 3000 1875" style="enable-background:new 0 0 3000 1875;" xml:space="preserve">
<style type="text/css">
	.st0{fill:#3D4260;}
	.st1{fill:#DDE9F7;}
</style>
<g>
	<g>
		<g>
			<rect class="st0" width="3000" height="1875"/>
		</g>
	</g>
</g>
<g>
	<g>
		<g>
			<g>
				<g>
					<g>
						<path class="st1" d="M2223.4,1124.7h-452.5c-3.8,0-6.9-3.1-6.9-6.9V757.2c0-3.8,3.1-6.9,6.9-6.9h452.5c3.8,0,6.9,3.1,6.9,6.9
							v360.7C2230.3,1121.7,2227.2,1124.7,2223.4,1124.7z M1865.1,1060.9h264.1c15.6,0,28.3-12.7,28.3-28.3V842.4
							c0-15.6-12.7-28.3-28.3-28.3h-264.1c-15.6,0-28.3,12.7-28.3,28.3v190.1C1836.8,1048.2,1849.5,1060.9,1865.1,1060.9z"/>
					</g>
				</g>
				<g>
					<g>
						<path class="st1" d="M711.1,1124.7H439.3c-103.3,0-188.7-82.8-189.3-186.1c-0.6-103.7,83.6-188.3,187.2-188.3H711
							c3.8,0,6.9,3.1,6.9,6.9v360.7C718,1121.7,714.9,1124.7,711.1,1124.7z M446.2,814.1c-68.4,0-124,56-123.4,124.6
							c0.7,67.9,57,122.2,125,122.2h169.1c15.6,0,28.3-12.7,28.3-28.3V842.4c0-15.6-12.7-28.3-28.3-28.3L446.2,814.1L446.2,814.1z"
							/>
					</g>
				</g>
				<g>
					<g>
						<path class="st1" d="M2638.8,1124.7h-341c-3.8,0-6.9-3.1-6.9-6.9v-50c0-3.8,3.1-6.9,6.9-6.9h332.8c24.9,0,45.9-19.5,46.7-44.3
							c0.8-25.8-20-47.1-45.7-47.1h-238.9c-60.1,0-110.3-47.8-111.2-107.9c-0.9-61.2,48.6-111.3,109.6-111.3h342.7
							c3.8,0,6.9,3.1,6.9,6.9v50c0,3.8-3.1,6.9-6.9,6.9H2401c-24.9,0-45.9,19.5-46.7,44.3c-0.8,25.8,20,47.1,45.7,47.1h240.6
							c61,0,110.5,50.1,109.6,111.3C2749.1,1077,2698.9,1124.7,2638.8,1124.7z"/>
					</g>
				</g>
				<g>
					<g>
						<path class="st1" d="M844.7,1124.7h-59c-3.8,0-6.9-3.1-6.9-6.9V757.2c0-3.8,3.1-6.9,6.9-6.9h351.5
							c60.4,0,110.5,48.2,111,108.6c0.6,60.9-48.8,110.6-109.6,110.6h-91.9c-24.9,0-45.9,19.5-46.7,44.3
							c-0.8,25.8,20,47.1,45.7,47.1h182.6c3.8,0,6.9,3.1,6.9,6.9v50c0,3.8-3.1,6.9-6.9,6.9h-190.1c-60.4,0-110.5-48.2-111-108.6
							c-0.6-60.9,48.8-110.6,109.6-110.6h91.9c24.9,0,45.9-19.5,46.7-44.3c0.8-25.8-20-47.1-45.7-47.1H880
							c-15.6,0-28.3,12.7-28.3,28.3v275.4C851.7,1121.7,848.6,1124.7,844.7,1124.7z"/>
					</g>
				</g>
				<g>
					<path class="st1" d="M1715.6,905.6h-152.9c-15.6,0-28.3-12.7-28.3-28.3V749.4c0-3.8-3.1-6.9-6.9-6.9H1473
						c-3.8,0-6.9,3.1-6.9,6.9v127.9c0,15.6-12.7,28.3-28.3,28.3h-152.9c-3.8,0-6.9,3.1-6.9,6.9v50c0,3.8,3.1,6.9,6.9,6.9h152.9
						c15.6,0,28.3,12.7,28.3,28.3v127.9c0,3.8,3.1,6.9,6.9,6.9h54.5c3.8,0,6.9-3.1,6.9-6.9V997.7c0-15.6,12.7-28.3,28.3-28.3h152.9
						c3.8,0,6.9-3.1,6.9-6.9v-50C1722.5,908.7,1719.4,905.6,1715.6,905.6z"/>
				</g>
			</g>
		</g>
	</g>
</g>
</svg>
