<?xml version="1.0" encoding="utf-8"?>
<!-- Generator: Adobe Illustrator 22.0.0, SVG Export Plug-In . SVG Version: 6.00 Build 0)  -->
<svg version="1.1" id="Layer_1" xmlns="http://www.w3.org/2000/svg" xmlns:xlink="http://www.w3.org/1999/xlink" x="0px" y="0px"
	 viewBox="0 0 3000 2000" style="enable-background:new 0 0 3000 2000;" xml:space="preserve">
<style type="text/css">
	.st0{fill:#F3F4F4;}
</style>
<g>
	<rect width="3000" height="2000"/>
</g>
<g>
	<g>
		<g>
			<path class="st0" d="M2223.4,1187.2h-452.5c-3.8,0-6.9-3.1-6.9-6.9V819.7c0-3.8,3.1-6.9,6.9-6.9h452.5c3.8,0,6.9,3.1,6.9,6.9
				v360.7C2230.3,1184.2,2227.2,1187.2,2223.4,1187.2z M1865.1,1123.4h264.1c15.6,0,28.3-12.7,28.3-28.3V904.9
				c0-15.6-12.7-28.3-28.3-28.3h-264.1c-15.6,0-28.3,12.7-28.3,28.3v190.1C1836.8,1110.7,1849.5,1123.4,1865.1,1123.4z"/>
		</g>
	</g>
	<g>
		<g>
			<path class="st0" d="M711.1,1187.2H439.3c-103.3,0-188.7-82.8-189.3-186.1c-0.6-103.7,83.6-188.3,187.2-188.3h273.8
				c3.8,0,6.9,3.1,6.9,6.9v360.7C718,1184.2,714.9,1187.2,711.1,1187.2z M446.2,876.6c-68.4,0-124,56-123.4,124.6
				c0.7,67.9,57,122.2,125,122.2h169.1c15.6,0,28.3-12.7,28.3-28.3V904.9c0-15.6-12.7-28.3-28.3-28.3H446.2z"/>
		</g>
	</g>
	<g>
		<g>
			<path class="st0" d="M2638.8,1187.2h-341c-3.8,0-6.9-3.1-6.9-6.9v-50c0-3.8,3.1-6.9,6.9-6.9h332.8c24.9,0,45.9-19.5,46.7-44.3
				c0.8-25.8-20-47.1-45.7-47.1h-238.9c-60.1,0-110.3-47.8-111.2-107.9c-0.9-61.2,48.6-111.3,109.6-111.3h342.7
				c3.8,0,6.9,3.1,6.9,6.9v50c0,3.8-3.1,6.9-6.9,6.9h-332.8c-24.9,0-45.9,19.5-46.7,44.3c-0.8,25.8,20,47.1,45.7,47.1h240.6
				c61,0,110.5,50.1,109.6,111.3C2749.1,1139.5,2698.9,1187.2,2638.8,1187.2z"/>
		</g>
	</g>
	<g>
		<g>
			<path class="st0" d="M844.7,1187.2h-59c-3.8,0-6.9-3.1-6.9-6.9V819.7c0-3.8,3.1-6.9,6.9-6.9h351.5c60.4,0,110.5,48.2,111,108.6
				c0.6,60.9-48.8,110.6-109.6,110.6h-91.9c-24.9,0-45.9,19.5-46.7,44.3c-0.8,25.8,20,47.1,45.7,47.1h182.6c3.8,0,6.9,3.1,6.9,6.9
				v50c0,3.8-3.1,6.9-6.9,6.9h-190.1c-60.4,0-110.5-48.2-111-108.6c-0.6-60.9,48.8-110.6,109.6-110.6h91.9
				c24.9,0,45.9-19.5,46.7-44.3c0.8-25.8-20-47.1-45.7-47.1H880c-15.6,0-28.3,12.7-28.3,28.3v275.4
				C851.7,1184.2,848.6,1187.2,844.7,1187.2z"/>
		</g>
	</g>
	<g>
		<path class="st0" d="M1715.6,968.1h-152.9c-15.6,0-28.3-12.7-28.3-28.3V811.9c0-3.8-3.1-6.9-6.9-6.9H1473c-3.8,0-6.9,3.1-6.9,6.9
			v127.9c0,15.6-12.7,28.3-28.3,28.3h-152.9c-3.8,0-6.9,3.1-6.9,6.9v50c0,3.8,3.1,6.9,6.9,6.9h152.9c15.6,0,28.3,12.7,28.3,28.3
			v127.9c0,3.8,3.1,6.9,6.9,6.9h54.5c3.8,0,6.9-3.1,6.9-6.9v-127.9c0-15.6,12.7-28.3,28.3-28.3h152.9c3.8,0,6.9-3.1,6.9-6.9v-50
			C1722.5,971.2,1719.4,968.1,1715.6,968.1z"/>
	</g>
</g>
</svg>
