<?xml version="1.0" encoding="utf-8"?>
<!-- Generator: Adobe Illustrator 22.0.0, SVG Export Plug-In . SVG Version: 6.00 Build 0)  -->
<svg version="1.1" id="Layer_1" xmlns="http://www.w3.org/2000/svg" xmlns:xlink="http://www.w3.org/1999/xlink" x="0px" y="0px"
	 viewBox="0 0 3000 2000" style="enable-background:new 0 0 3000 2000;" xml:space="preserve">
<style type="text/css">
	.st0{fill:#13232D;}
	.st1{fill:#FFFFFF;}
</style>
<g>
	<rect class="st0" width="3000" height="2000"/>
</g>
<g>
	<g>
		<g>
			<path class="st1" d="M1995.1,1125.6h-285.2c-2.6,0-4.6-2.1-4.6-4.6V879c0-2.6,2.1-4.6,4.6-4.6h285.2c2.6,0,4.6,2.1,4.6,4.6v242
				C1999.8,1123.5,1997.7,1125.6,1995.1,1125.6z M1773.1,1082.8h158.8c10.5,0,19-8.5,19-19V936.2c0-10.5-8.5-19-19-19h-158.8
				c-10.5,0-19,8.5-19,19v127.6C1754.1,1074.3,1762.6,1082.8,1773.1,1082.8z"/>
		</g>
		<g>
			<path class="st1" d="M995.8,1125.6H813.5c-69.3,0-126.6-55.6-127-124.9c-0.4-69.6,56.1-126.3,125.6-126.3h183.7
				c2.6,0,4.6,2.1,4.6,4.6v242C1000.5,1123.5,998.4,1125.6,995.8,1125.6z M818.1,917.2c-45.9,0-83.2,37.6-82.8,83.6
				c0.4,45.6,38.3,82,83.8,82h113.5c10.5,0,19-8.5,19-19V936.2c0-10.5-8.5-19-19-19H818.1z"/>
		</g>
		<g>
			<path class="st1" d="M2238.9,1125.6h-199.2c-2.6,0-4.6-2.1-4.6-4.6v-33.6c0-2.6,2.1-4.6,4.6-4.6h193.6
				c16.7,0,30.8-13.1,31.3-29.8c0.5-17.3-13.4-31.6-30.7-31.6h-130.7c-40.3,0-74-32-74.6-72.4c-0.6-41.1,32.6-74.7,73.5-74.7h200.3
				c2.6,0,4.6,2.1,4.6,4.6v33.6c0,2.6-2.1,4.6-4.6,4.6h-193.6c-16.7,0-30.8,13.1-31.3,29.8c-0.5,17.3,13.4,31.6,30.7,31.6H2240
				c40.9,0,74.1,33.6,73.5,74.7C2312.9,1093.6,2279.2,1125.6,2238.9,1125.6z"/>
		</g>
		<g>
			<path class="st1" d="M1084,1125.6h-39.6c-2.6,0-4.6-2.1-4.6-4.6V879c0-2.6,2.1-4.6,4.6-4.6h230.2c40.5,0,74.1,32.3,74.5,72.8
				c0.4,40.8-32.7,74.2-73.5,74.2H1214c-16.7,0-30.8,13.1-31.3,29.8c-0.5,17.3,13.4,31.6,30.7,31.6h122.5c2.6,0,4.6,2.1,4.6,4.6
				v33.6c0,2.6-2.1,4.6-4.6,4.6l-127.5,0c-40.5,0-74.1-32.3-74.5-72.8c-0.4-40.8,32.7-74.2,73.5-74.2h61.7
				c16.7,0,30.8-13.1,31.3-29.8c0.5-17.3-13.4-31.6-30.7-31.6h-162c-10.5,0-19,8.5-19,19V1121
				C1088.7,1123.5,1086.6,1125.6,1084,1125.6z"/>
		</g>
		<path class="st1" d="M1669.4,978.6h-102.6c-10.5,0-19-8.5-19-19v-85.8c0-2.6-2.1-4.6-4.6-4.6h-36.6c-2.6,0-4.6,2.1-4.6,4.6v85.8
			c0,10.5-8.5,19-19,19h-102.6c-2.6,0-4.6,2.1-4.6,4.6v33.6c0,2.6,2.1,4.6,4.6,4.6H1483c10.5,0,19,8.5,19,19v85.8
			c0,2.6,2.1,4.6,4.6,4.6h36.6c2.6,0,4.6-2.1,4.6-4.6v-85.8c0-10.5,8.5-19,19-19h102.6c2.6,0,4.6-2.1,4.6-4.6v-33.6
			C1674,980.7,1671.9,978.6,1669.4,978.6z"/>
	</g>
</g>
</svg>
