<?xml version="1.0" encoding="utf-8"?>
<!-- Generator: Adobe Illustrator 22.0.0, SVG Export Plug-In . SVG Version: 6.00 Build 0)  -->
<svg version="1.1" id="logotype_v" xmlns="http://www.w3.org/2000/svg" xmlns:xlink="http://www.w3.org/1999/xlink" x="0px" y="0px"
	 viewBox="0 0 834 168.9" style="enable-background:new 0 0 834 168.9;" xml:space="preserve">
<style type="text/css">
	.st0{fill:#FFFFFF;}
</style>
<g>
	<g id="logo">
		<g>
			<g>
				<polygon class="st0" points="69.4,61.1 35.8,61.1 94.2,114.6 33,168 66.5,168 125.6,114.6 				"/>
				<g>
					<path class="st0" d="M100,0H55.6C24.9,0,0,24.9,0,55.6v16.5c0,30.7,24.9,55.6,55.6,55.6h46.2v-25.9H28.9c-1.7,0-3-1.4-3-3v-70
						c0-1.7,1.4-3,3-3h97.8c1.7,0,3,1.4,3,3V168h25.9V55.6C155.6,24.9,130.7,0,100,0z"/>
				</g>
			</g>
		</g>
	</g>
	<g id="name">
		<path class="st0" d="M282.6,61.1V168h-22.9v-36.2h-16.8L222.6,168H196l23.7-39.7c-13.1-5.3-20.9-16.8-20.9-31.9
			c0-21.2,15.9-35.3,39.4-35.3H282.6z M259.7,112.6V80.2h-19.9c-11,0-17.9,6.3-17.9,16.2c0,9.9,6.9,16.2,17.7,16.2H259.7z"/>
		<path class="st0" d="M303.6,168v-19.7h9.8c9,0,12.4-1.7,15.3-8.2l1.8-4.3l-41.1-74.7h25l27.2,51l22.8-51h23.5L348.8,146
			c-7.6,16.6-16.6,22-29.2,22H303.6z"/>
		<path class="st0" d="M386.1,133.6h22.4c1.2,11.8,8.6,17.1,21.2,17.1c11.3,0,18.8-5.2,18.8-14.5c0-9-6.1-13.3-18.9-13.3h-12.4
			v-17.9h11c12.4,0,18.2-5,18.2-13.6c0-8.4-6.7-13.1-17.6-13.1c-11.9,0-18.8,6.1-20.2,16h-22c1.4-20,16.9-34.2,42.6-34.2
			c25,0,40.2,10.8,40.2,29.3c0,13.1-7.6,20.5-18.2,23.4c10.8,2.7,20.5,10.1,20.5,24.7c0,19.7-16.8,31.3-42.6,31.3
			C402,168.9,387.4,157,386.1,133.6z"/>
		<path class="st0" d="M483.3,61.1h22.9V104h42.4V61.1h22.9V168h-22.9v-44.1h-42.4V168h-22.9V61.1z"/>
		<path class="st0" d="M578.7,168l39.1-106.9h27.5L684,168h-24.6l-8.2-23.4h-40.6l-8.2,23.4H578.7z M616.7,126.2h28.2l-14.2-40.6
			L616.7,126.2z"/>
		<path class="st0" d="M834,114.6c0,31.2-20.9,54.4-52.2,54.4c-27.9,0-47.6-18.6-51.5-45h-16.2V168h-22.9V61.1h22.9v43.2h16.3
			c4.1-25.8,23.7-44.1,51.3-44.1C813.1,60.2,834,83.4,834,114.6z M810.5,114.6c0-20.2-11-35-28.7-35c-17.6,0-28.6,14.8-28.6,35
			c0,20.2,11,35,28.6,35C799.5,149.5,810.5,134.7,810.5,114.6z"/>
	</g>
</g>
</svg>
