<?xml version="1.0" encoding="utf-8"?>
<!-- Generator: Adobe Illustrator 22.0.0, SVG Export Plug-In . SVG Version: 6.00 Build 0)  -->
<svg version="1.1" id="Layer_1" xmlns="http://www.w3.org/2000/svg" xmlns:xlink="http://www.w3.org/1999/xlink" x="0px" y="0px"
	 viewBox="0 0 300 58.8" style="enable-background:new 0 0 300 58.8;" xml:space="preserve">
<style type="text/css">
	.st0{fill:#A028EB;}
</style>
<g id="logotype_1_">
	<g>
		<g id="_x3C_Groupsymbol_x3E__9_">
			<g>
				<g>
					<path class="st0" d="M36.6,0H19.4C8.7,0,0,8.7,0,19.4v5.7c0,10.7,8.7,19.4,19.4,19.4h17.8v-9h-26c-1.2,0-2.2-1-2.2-2.2V11.2
						C9,10,10,9,11.2,9h33.5c1.2,0,2.2,1,2.2,2.2v47.3h9V19.4C55.9,8.7,47.3,0,36.6,0z"/>
				</g>
			</g>
			<g>
				<polygon class="st0" points="25.5,21.3 14.1,21.3 33.5,40 14.2,58.5 25.6,58.5 44.2,40 				"/>
			</g>
		</g>
		<g>
			<g>
				<path class="st0" d="M104.2,21.3v37.2h-8V45.9h-5.8l-8.1,12.6H73l9.3-13.8c-4.6-1.9-7.3-5.8-7.3-11.1c0-7.4,5.5-12.3,13.7-12.3
					H104.2z M96.2,39.2V27.9h-6.9c-3.8,0-6.2,2.2-6.2,5.6c0,3.5,2.4,5.6,6.2,5.6H96.2z"/>
			</g>
			<g>
				<path class="st0" d="M112.2,58.5v-6.9h3.4c3.1,0,4.3-0.6,5.3-2.9l0.6-1.5l-14.3-26h8.7l9.5,17.8l7.9-17.8h8.2L128,50.8
					c-2.7,5.8-5.8,7.7-10.2,7.7H112.2z"/>
			</g>
			<g>
				<path class="st0" d="M141.5,46.5h7.8c0.4,4.1,3,6,7.4,6c3.9,0,6.5-1.8,6.5-5.1c0-3.1-2.1-4.6-6.6-4.6h-4.3v-6.2h3.8
					c4.3,0,6.3-1.8,6.3-4.7c0-2.9-2.3-4.6-6.1-4.6c-4.1,0-6.5,2.1-7,5.6h-7.7c0.5-7,5.9-11.9,14.8-11.9c8.7,0,14,3.8,14,10.2
					c0,4.6-2.7,7.1-6.3,8.1c3.8,1,7.1,3.5,7.1,8.6c0,6.9-5.8,10.9-14.8,10.9C147,58.8,141.9,54.7,141.5,46.5z"/>
			</g>
			<g>
				<path class="st0" d="M176.1,21.3h8v14.9h14.8V21.3h8v37.2h-8V43.1h-14.8v15.4h-8V21.3z"/>
			</g>
			<g>
				<path class="st0" d="M210.2,58.5l13.6-37.2h9.6l13.5,37.2h-8.6l-2.9-8.1h-14.1l-2.9,8.1H210.2z M223.5,43.9h9.8l-4.9-14.1
					L223.5,43.9z"/>
			</g>
			<g>
				<path class="st0" d="M300,39.9c0,10.8-7.3,18.9-18.2,18.9c-9.7,0-16.6-6.5-17.9-15.7h-5.6v15.4h-8V21.3h8v15h5.7
					c1.4-9,8.2-15.4,17.9-15.4C292.7,21,300,29.1,300,39.9z M291.8,39.9c0-7-3.8-12.2-10-12.2c-6.1,0-9.9,5.2-9.9,12.2
					s3.8,12.2,9.9,12.2C288,52.1,291.8,46.9,291.8,39.9z"/>
			</g>
		</g>
	</g>
</g>
</svg>
