<?xml version="1.0" encoding="utf-8"?>
<!-- Generator: Adobe Illustrator 22.0.0, SVG Export Plug-In . SVG Version: 6.00 Build 0)  -->
<svg version="1.1" id="Layer_1" xmlns="http://www.w3.org/2000/svg" xmlns:xlink="http://www.w3.org/1999/xlink" x="0px" y="0px"
	 viewBox="0 0 303 59.4" style="enable-background:new 0 0 303 59.4;" xml:space="preserve">
<style type="text/css">
	.st0{fill:#A126E9;}
</style>
<g id="logotype_1_">
	<g>
		<g>
			<g id="_x3C_Groupsymbol_x3E__8_">
				<g>
					<g>
						<g>
							<path class="st0" d="M36.9,0H19.6C8.8,0,0,8.8,0,19.6v5.8C0,36.2,8.8,45,19.6,45h18v-9.1H10.2c-0.6,0-1.1-0.5-1.1-1.1V10.2
								c0-0.6,0.5-1.1,1.1-1.1h36.2c0.6,0,1.1,0.5,1.1,1.1v48.9h9.1V19.6C56.5,8.8,47.7,0,36.9,0z"/>
						</g>
					</g>
				</g>
				<g>
					<g>
						<polygon class="st0" points="25.7,21.5 14.2,21.5 33.8,40.4 14.4,59.1 25.9,59.1 44.6,40.4 						"/>
					</g>
				</g>
			</g>
			<g>
				<g>
					<g>
						<path class="st0" d="M105.2,21.5v37.6h-8.1V46.4h-5.9L83,59.1h-9.3l9.4-14c-4.6-1.9-7.4-5.9-7.4-11.2
							c0-7.5,5.6-12.4,13.9-12.4C89.6,21.5,105.2,21.5,105.2,21.5z M97.2,39.6V28.2h-7c-3.9,0-6.3,2.2-6.3,5.7s2.4,5.7,6.2,5.7
							C90.1,39.6,97.2,39.6,97.2,39.6z"/>
					</g>
				</g>
				<g>
					<g>
						<path class="st0" d="M113.4,59.1v-6.9h3.4c3.2,0,4.3-0.6,5.4-2.9l0.6-1.5l-14.4-26.3h8.8l9.6,17.9l8-17.9h8.3l-13.7,29.9
							c-2.7,5.9-5.9,7.7-10.3,7.7C119.1,59.1,113.4,59.1,113.4,59.1z"/>
					</g>
				</g>
				<g>
					<g>
						<path class="st0" d="M142.9,47h7.9c0.4,4.1,3,6,7.5,6c4,0,6.6-1.8,6.6-5.1c0-3.2-2.1-4.7-6.7-4.7h-4.3V37h3.9
							c4.3,0,6.4-1.8,6.4-4.8s-2.4-4.6-6.2-4.6c-4.2,0-6.6,2.1-7.1,5.6h-7.7c0.5-7,6-12,15-12c8.8,0,14.1,3.8,14.1,10.3
							c0,4.6-2.7,7.2-6.4,8.2c3.8,1,7.2,3.5,7.2,8.7c0,6.9-5.9,11-15,11C148.5,59.4,143.3,55.2,142.9,47z"/>
					</g>
				</g>
				<g>
					<g>
						<polygon class="st0" points="177.9,21.5 186,21.5 186,36.6 200.9,36.6 200.9,21.5 209,21.5 209,59.1 200.9,59.1 200.9,43.6 
							186,43.6 186,59.1 177.9,59.1 						"/>
					</g>
				</g>
				<g>
					<g>
						<path class="st0" d="M212.3,59.1L226,21.5h9.7l13.6,37.6h-8.6l-2.9-8.2h-14.3l-2.9,8.2H212.3z M225.7,44.4h9.9l-5-14.3
							L225.7,44.4z"/>
					</g>
				</g>
				<g>
					<g>
						<path class="st0" d="M303,40.3c0,11-7.4,19.1-18.4,19.1c-9.8,0-16.8-6.6-18.1-15.8h-5.7v15.5h-8.1V21.5h8.1v15.2h5.7
							c1.4-9.1,8.3-15.5,18-15.5C295.6,21.2,303,29.3,303,40.3z M294.7,40.3c0-7.1-3.9-12.3-10.1-12.3s-10,5.2-10,12.3
							s3.9,12.3,10,12.3C290.9,52.6,294.7,47.4,294.7,40.3z"/>
					</g>
				</g>
			</g>
		</g>
	</g>
</g>
</svg>
