<?xml version="1.0" encoding="utf-8"?>
<!-- Generator: Adobe Illustrator 22.0.0, SVG Export Plug-In . SVG Version: 6.00 Build 0)  -->
<svg version="1.1" id="Layer_1" xmlns="http://www.w3.org/2000/svg" xmlns:xlink="http://www.w3.org/1999/xlink" x="0px" y="0px"
	 viewBox="0 0 245.5 200" style="enable-background:new 0 0 245.5 200;" xml:space="preserve">
<style type="text/css">
	.st0{fill:#F3F3F3;}
</style>
<path class="st0" d="M183.5,136.6V74.8c0-16.3-8.8-31.5-22.9-39.7L107,4.1c-9.4-5.5-21.2-5.5-30.6,0L22.9,35.1
	C8.8,43.2,0,58.3,0,74.8v61.8c0,11,5.8,21,15.2,26.4l53.5,30.9c14.3,8.2,31.7,8.2,45.8,0l53.5-30.9
	C177.7,157.5,183.5,147.4,183.5,136.6z M166.7,156.4h-150L6.4,138.7l75-129.8h20.4l75,130L166.7,156.4z"/>
<g>
	<path class="st0" d="M183.5,11.7c0-6.9,4.3-11.7,10.9-11.7c5.1,0,8.8,3,9.6,7.7h-3c-0.9-3.2-3.3-5.1-6.7-5.1c-4.8,0-7.9,3.7-7.9,9
		c0,5.3,3,9,7.8,9c3.5,0,6-1.9,6.9-5.1h3c-0.9,4.7-4.6,7.7-9.8,7.7C187.7,23.3,183.5,18.6,183.5,11.7z"/>
	<path class="st0" d="M207.5,23.1V0.2h17.4v22.9H222V2.8h-11.7v20.3H207.5z"/>
	<path class="st0" d="M245.5,15.3c0,4.6-3.3,8-8.2,8c-5,0-8.2-3-8.2-9.4c0-8.9,2.1-12.3,9.4-13.2l5.7-0.7v2.5l-5.1,0.6
		c-5.3,0.7-6.7,2.1-7.3,7c1.2-1.6,3.3-2.6,6.1-2.6C242.3,7.5,245.5,10.6,245.5,15.3z M242.7,15.4c0-3.2-2.2-5.5-5.4-5.5
		c-3.3,0-5.5,2.3-5.5,5.2c0,3.7,2.3,5.9,5.4,5.9C240.5,21,242.7,18.6,242.7,15.4z"/>
</g>
</svg>
