<?xml version="1.0" encoding="utf-8"?>
<!-- Generator: Adobe Illustrator 22.0.0, SVG Export Plug-In . SVG Version: 6.00 Build 0)  -->
<svg version="1.1" id="Layer_1" xmlns="http://www.w3.org/2000/svg" xmlns:xlink="http://www.w3.org/1999/xlink" x="0px" y="0px"
	 viewBox="0 0 400 400" style="enable-background:new 0 0 400 400;" xml:space="preserve">
<style type="text/css">
	.st0{fill:#E1A5FF;}
</style>
<g>
	<g>
		<polygon class="st0" points="-800,0 -599.9,200 -800,400 -600.1,400 -400,200 -600.1,0 		"/>
	</g>
</g>
<g>
	<g>
		<polygon class="st0" points="600,0 545,0 745,200 545,400 600,400 800,200 		"/>
	</g>
	<g>
		<polygon class="st0" points="499,0 444,0 644,200 444,400 499,400 699,200 		"/>
	</g>
	<g>
		<polygon class="st0" points="400,0 400,55 545,200 400,345 400,400 600,200 		"/>
	</g>
</g>
<g>
	<g>
		<polygon class="st0" points="0,200 200,400 200,200 		"/>
	</g>
	<g>
		<polygon class="st0" points="200,0 400,200 400,0 		"/>
	</g>
	<g>
		<polygon class="st0" points="0,0 200,200 200,0 		"/>
	</g>
	<g>
		<polygon class="st0" points="200,200 400,400 400,200 		"/>
	</g>
</g>
<g>
	<g>
		<path class="st0" d="M1000,0L1000,0C889.5,0,800,89.5,800,200v0c0,110.5,89.5,200,200,200h0c110.5,0,200-89.5,200-200v0
			C1200,89.5,1110.5,0,1000,0z M1065,200c0,35.9-29.1,65-65,65h0c-35.9,0-65-29.1-65-65v0c0-35.9,29.1-65,65-65h0
			C1035.9,135,1065,164.1,1065,200L1065,200z"/>
	</g>
</g>
<g>
	<g>
		<path class="st0" d="M-400,0v400H0V0H-400z M-40,360h-320V40h320V360z"/>
	</g>
	<g>
		<path class="st0" d="M-315,85v230h230V85H-315z M-125,275h-150V125h150V275z"/>
	</g>
</g>
</svg>
