<?xml version="1.0" encoding="utf-8"?>
<!-- Generator: Adobe Illustrator 22.0.0, SVG Export Plug-In . SVG Version: 6.00 Build 0)  -->
<svg version="1.1" id="Layer_1" xmlns="http://www.w3.org/2000/svg" xmlns:xlink="http://www.w3.org/1999/xlink" x="0px" y="0px"
	 viewBox="0 0 400 400" style="enable-background:new 0 0 400 400;" xml:space="preserve">
<style type="text/css">
	.st0{fill:#E1A5FF;}
	.st1{fill:#A126E9;}
	.st2{fill:#410F64;}
</style>
<g>
	<polygon class="st0" points="305.9,400 306.1,400 306,399.9 	"/>
</g>
<g>
	<polygon class="st0" points="199.9,400 200.1,400 200,399.9 	"/>
</g>
<g>
	<polygon class="st1" points="231.9,901.5 232.1,901.5 232,901.4 	"/>
</g>
<g>
	
		<rect x="231.9" y="701.5" transform="matrix(0.7071 -0.7071 0.7071 0.7071 -428.1231 369.4874)" class="st1" width="0.1" height="0.1"/>
</g>
<g>
	
		<rect x="125.9" y="701.5" transform="matrix(0.7071 -0.7071 0.7071 0.7071 -459.1695 294.5347)" class="st1" width="0.1" height="0.1"/>
</g>
<g>
	<polygon class="st1" points="125.9,901.5 126.1,901.5 126,901.4 	"/>
</g>
<g>
	<path class="st2" d="M400,100L300.7,0H245l88.8,89.4c5.8,5.8,5.8,15.3,0,21.1L245,200l88.8,89.4c5.8,5.8,5.8,15.3,0,21.1L245,400
		h55.7L400,300l-88.8-89.4c-5.8-5.8-5.8-15.3,0-21.1L400,100z"/>
	<path class="st2" d="M277.5,100L178.2,0h-55.7l88.8,89.4c5.8,5.8,5.8,15.3,0,21.1L122.5,200l88.8,89.4c5.8,5.8,5.8,15.3,0,21.1
		L122.5,400h55.7l99.3-100l-88.8-89.4c-5.8-5.8-5.8-15.3,0-21.1L277.5,100z"/>
	<path class="st2" d="M155,100L55.7,0H0l88.8,89.4c5.8,5.8,5.8,15.3,0,21.1L0,200l88.8,89.4c5.8,5.8,5.8,15.3,0,21.1L0,400h55.7
		L155,300l-88.8-89.4c-5.8-5.8-5.8-15.3,0-21.1L155,100z"/>
</g>
</svg>
