<?xml version="1.0" encoding="utf-8"?>
<!-- Generator: Adobe Illustrator 22.0.0, SVG Export Plug-In . SVG Version: 6.00 Build 0)  -->
<svg version="1.1" id="Layer_1" xmlns="http://www.w3.org/2000/svg" xmlns:xlink="http://www.w3.org/1999/xlink" x="0px" y="0px"
	 viewBox="0 0 400 400" style="enable-background:new 0 0 400 400;" xml:space="preserve">
<style type="text/css">
	.st0{fill:#E1A5FF;}
	.st1{fill:#A126E9;}
</style>
<g>
	<polygon class="st0" points="305.9,400 306.1,400 306,399.9 	"/>
</g>
<g>
	<polygon class="st0" points="199.9,400 200.1,400 200,399.9 	"/>
</g>
<g>
	<polygon class="st1" points="231.9,901.5 232.1,901.5 232,901.4 	"/>
</g>
<g>
	
		<rect x="231.9" y="701.5" transform="matrix(0.7071 -0.7071 0.7071 0.7071 -428.1118 369.4588)" class="st1" width="0.1" height="0.1"/>
</g>
<g>
	<g>
		<g>
			<polygon class="st1" points="400,100 300.7,0 250,0 349.3,100 250,200 349.3,300 250,400 300.7,400 400,300 300.7,200 			"/>
		</g>
		<g>
			<polygon class="st1" points="150,100 50.7,0 0,0 99.3,100 0,200 99.3,300 0,400 50.7,400 150,300 50.7,200 			"/>
		</g>
		<g>
			<polygon class="st1" points="274.4,100 175.1,0 124.4,0 223.7,100 124.4,200 223.7,300 124.4,400 175.1,400 274.4,300 175.1,200 
							"/>
		</g>
	</g>
</g>
<g>
	
		<rect x="125.9" y="701.5" transform="matrix(0.7071 -0.7071 0.7071 0.7071 -459.1578 294.5059)" class="st1" width="0.1" height="0.1"/>
</g>
<g>
	<polygon class="st1" points="125.9,901.5 126.1,901.5 126,901.4 	"/>
</g>
</svg>
