<?xml version="1.0" encoding="utf-8"?>
<!-- Generator: Adobe Illustrator 22.0.0, SVG Export Plug-In . SVG Version: 6.00 Build 0)  -->
<svg version="1.1" id="Layer_1" xmlns="http://www.w3.org/2000/svg" xmlns:xlink="http://www.w3.org/1999/xlink" x="0px" y="0px"
	 viewBox="0 0 400 400" style="enable-background:new 0 0 400 400;" xml:space="preserve">
<style type="text/css">
	.st0{fill:#410F64;}
</style>
<g>
	<path class="st0" d="M0,0v400h400V0H0z M348,360H52c-6.6,0-12-5.4-12-12V52c0-6.6,5.4-12,12-12h296c6.6,0,12,5.4,12,12v296
		C360,354.6,354.6,360,348,360z"/>
	<path class="st0" d="M85,85v230h230V85H85z M263,275H137c-6.6,0-12-5.4-12-12V137c0-6.6,5.4-12,12-12h126c6.6,0,12,5.4,12,12v126
		C275,269.6,269.6,275,263,275z"/>
</g>
</svg>
