<?xml version="1.0" encoding="utf-8"?>
<!-- Generator: Adobe Illustrator 22.0.0, SVG Export Plug-In . SVG Version: 6.00 Build 0)  -->
<svg version="1.1" id="Layer_1" xmlns="http://www.w3.org/2000/svg" xmlns:xlink="http://www.w3.org/1999/xlink" x="0px" y="0px"
	 viewBox="0 0 400 400" style="enable-background:new 0 0 400 400;" xml:space="preserve">
<style type="text/css">
	.st0{fill:#CD96F5;}
</style>
<g>
	<path class="st0" d="M86.9,310.4L0,400h102.9L200,300l-86.9-89.6c-5.7-5.8-5.7-15.1,0-20.9L200,100L102.9,0H0l86.9,89.6
		c5.7,5.8,5.7,15.1,0,20.9L0,200l86.9,89.6C92.6,295.4,92.6,304.6,86.9,310.4z"/>
	<path class="st0" d="M286.9,310.4L200,400h102.9L400,300l-86.9-89.6c-5.7-5.8-5.7-15.1,0-20.9L400,100L302.9,0H200l86.9,89.6
		c5.7,5.8,5.7,15.1,0,20.9L200,200l86.9,89.6C292.6,295.4,292.6,304.6,286.9,310.4z"/>
</g>
</svg>
