<?xml version="1.0" encoding="utf-8"?>
<!-- Generator: Adobe Illustrator 22.0.0, SVG Export Plug-In . SVG Version: 6.00 Build 0)  -->
<svg version="1.1" id="Layer_1" xmlns="http://www.w3.org/2000/svg" xmlns:xlink="http://www.w3.org/1999/xlink" x="0px" y="0px"
	 viewBox="0 0 400 400" style="enable-background:new 0 0 400 400;" xml:space="preserve">
<style type="text/css">
	.st0{fill:#CD96F5;}
</style>
<path class="st0" d="M400,160h-88.9c-5.3,0-8-6.5-4.2-10.2l62.9-62.9l-56.6-56.6l-62.9,62.9c-3.8,3.8-10.2,1.1-10.2-4.2V0h-80v88.9
	c0,5.3-6.5,8-10.2,4.2L86.9,30.3L30.3,86.9l62.9,62.9c3.8,3.8,1.1,10.2-4.2,10.2H0v80h88.9c5.3,0,8,6.5,4.2,10.2l-62.9,62.9
	l56.6,56.6l62.9-62.9c3.8-3.8,10.2-1.1,10.2,4.2V400h80v-88.9c0-5.3,6.5-8,10.2-4.2l62.9,62.9l56.6-56.6l-62.9-62.9
	c-3.8-3.8-1.1-10.2,4.2-10.2H400V160z"/>
</svg>
