<?xml version="1.0" encoding="utf-8"?>
<!-- Generator: Adobe Illustrator 22.0.0, SVG Export Plug-In . SVG Version: 6.00 Build 0)  -->
<svg version="1.1" id="Layer_1" xmlns="http://www.w3.org/2000/svg" xmlns:xlink="http://www.w3.org/1999/xlink" x="0px" y="0px"
	 viewBox="0 0 400 400" style="enable-background:new 0 0 400 400;" xml:space="preserve">
<style type="text/css">
	.st0{fill:#CD96F5;}
</style>
<g>
	<path class="st0" d="M121.2,121.4c-11.7-11.7-11.7-30.7,0-42.4L200,0.1V0H0.1l78.7,78.6c11.7,11.7,11.7,30.7,0,42.4L0,199.9v0.1
		h0.1l78.7,78.6c11.7,11.7,11.7,30.7,0,42.4L0,399.9v0.1h199.9l-78.7-78.6c-11.7-11.7-11.7-30.7,0-42.4l78.8-78.9V200h-0.1
		L121.2,121.4z"/>
	<path class="st0" d="M400,0.1L400,0.1L200.1,0l78.7,78.6c11.7,11.7,11.7,30.7,0,42.4L200,199.9v0.1h0.1l78.7,78.6
		c11.7,11.7,11.7,30.7,0,42.4L200,399.9v0.1h199.9l-78.7-78.6c-11.7-11.7-11.7-30.7,0-42.4l78.8-78.9V200h-0.1l-78.7-78.6
		c-11.7-11.7-11.7-30.7,0-42.4L400,0.1z"/>
</g>
</svg>
