<?xml version="1.0" encoding="utf-8"?>
<!-- Generator: Adobe Illustrator 22.0.0, SVG Export Plug-In . SVG Version: 6.00 Build 0)  -->
<svg version="1.1" id="Layer_1" xmlns="http://www.w3.org/2000/svg" xmlns:xlink="http://www.w3.org/1999/xlink" x="0px" y="0px"
	 viewBox="0 0 400 400" style="enable-background:new 0 0 400 400;" xml:space="preserve">
<style type="text/css">
	.st0{fill:#CD96F5;}
</style>
<g>
	<path class="st0" d="M89,308.4L0,400h102.9L200,300l-89-91.6c-4.5-4.7-4.5-12.1,0-16.7l89-91.6L102.9,0H0l89,91.6
		c4.5,4.7,4.5,12.1,0,16.7L0,200l89,91.6C93.5,296.3,93.5,303.7,89,308.4z"/>
	<path class="st0" d="M289,308.4L200,400h102.9L400,300l-89-91.6c-4.5-4.7-4.5-12.1,0-16.7l89-91.6L302.9,0H200l89,91.6
		c4.5,4.7,4.5,12.1,0,16.7L200,200l89,91.6C293.5,296.3,293.5,303.7,289,308.4z"/>
</g>
</svg>
