<?xml version="1.0" encoding="utf-8"?>
<!-- Generator: Adobe Illustrator 22.0.0, SVG Export Plug-In . SVG Version: 6.00 Build 0)  -->
<svg version="1.1" id="Layer_1" xmlns="http://www.w3.org/2000/svg" xmlns:xlink="http://www.w3.org/1999/xlink" x="0px" y="0px"
	 viewBox="0 0 400 400" style="enable-background:new 0 0 400 400;" xml:space="preserve">
<style type="text/css">
	.st0{fill:#E1A5FF;}
</style>
<g>
	<g>
		<polygon class="st0" points="0,0 200.1,200 0,400 199.9,400 400,200 199.9,0 		"/>
	</g>
</g>
<g>
	<g>
		<polygon class="st0" points="1400,0 1345,0 1545,200 1345,400 1400,400 1600,200 		"/>
	</g>
	<g>
		<polygon class="st0" points="1299,0 1244,0 1444,200 1244,400 1299,400 1499,200 		"/>
	</g>
	<g>
		<polygon class="st0" points="1200,0 1200,55 1345,200 1200,345 1200,400 1400,200 		"/>
	</g>
</g>
<g>
	<g>
		<polygon class="st0" points="800,200 1000,400 1000,200 		"/>
	</g>
	<g>
		<polygon class="st0" points="1000,0 1200,200 1200,0 		"/>
	</g>
	<g>
		<polygon class="st0" points="800,0 1000,200 1000,0 		"/>
	</g>
	<g>
		<polygon class="st0" points="1000,200 1200,400 1200,200 		"/>
	</g>
</g>
<g>
	<g>
		<path class="st0" d="M1800,0L1800,0c-110.5,0-200,89.5-200,200v0c0,110.5,89.5,200,200,200h0c110.5,0,200-89.5,200-200v0
			C2000,89.5,1910.5,0,1800,0z M1865,200c0,35.9-29.1,65-65,65h0c-35.9,0-65-29.1-65-65v0c0-35.9,29.1-65,65-65h0
			C1835.9,135,1865,164.1,1865,200L1865,200z"/>
	</g>
</g>
<g>
	<g>
		<path class="st0" d="M400,0v400h400V0H400z M760,360H440V40h320V360z"/>
	</g>
	<g>
		<path class="st0" d="M485,85v230h230V85H485z M675,275H525V125h150V275z"/>
	</g>
</g>
</svg>
