<?xml version="1.0" encoding="utf-8"?>
<!-- Generator: Adobe Illustrator 22.0.0, SVG Export Plug-In . SVG Version: 6.00 Build 0)  -->
<svg version="1.1" id="Layer_1" xmlns="http://www.w3.org/2000/svg" xmlns:xlink="http://www.w3.org/1999/xlink" x="0px" y="0px"
	 viewBox="0 0 400 400" style="enable-background:new 0 0 400 400;" xml:space="preserve">
<style type="text/css">
	.st0{fill:#E1BEFA;}
</style>
<g>
	<g>
		<g>
			<path class="st0" d="M400,0.1V0h-99.9l32.2,32.2c9.8,9.8,9.8,25.6,0,35.4L300,99.9v0.1h0.1l32.2,32.2c9.8,9.8,9.8,25.6,0,35.4
				L300,199.9v0.1h0.1l32.2,32.2c9.8,9.8,9.8,25.6,0,35.4L300,299.9v0.1h0.1l32.2,32.2c9.8,9.8,9.8,25.6,0,35.4L300,399.9v0.1h99.9
				l-32.2-32.2c-9.8-9.8-9.8-25.6,0-35.4l32.3-32.4V300h-0.1l-32.2-32.2c-9.8-9.8-9.8-25.6,0-35.4l32.3-32.4V200h-0.1l-32.2-32.2
				c-9.8-9.8-9.8-25.6,0-35.4l32.3-32.4V100h-0.1l-32.2-32.2c-9.8-9.8-9.8-25.6,0-35.4L400,0.1z"/>
		</g>
		<g>
			<path class="st0" d="M67.7,267.8c-9.8-9.8-9.8-25.6,0-35.4l32.3-32.4V200h-0.1l-32.2-32.2c-9.8-9.8-9.8-25.6,0-35.4l32.3-32.4
				V100h-0.1L67.7,67.8c-9.8-9.8-9.8-25.6,0-35.4L100,0.1V0H0.1l32.2,32.2c9.8,9.8,9.8,25.6,0,35.4L0,99.9v0.1h0.1l32.2,32.2
				c9.8,9.8,9.8,25.6,0,35.4L0,199.9v0.1h0.1l32.2,32.2c9.8,9.8,9.8,25.6,0,35.4L0,299.9v0.1h0.1l32.2,32.2c9.8,9.8,9.8,25.6,0,35.4
				L0,399.9v0.1h99.9l-32.2-32.2c-9.8-9.8-9.8-25.6,0-35.4l32.3-32.4V300h-0.1L67.7,267.8z"/>
		</g>
		<g>
			<path class="st0" d="M167.7,267.8c-9.8-9.8-9.8-25.6,0-35.4l32.3-32.4V200h-0.1l-32.2-32.2c-9.8-9.8-9.8-25.6,0-35.4l32.3-32.4
				V100h-0.1l-32.2-32.2c-9.8-9.8-9.8-25.6,0-35.4L200,0.1V0h-99.9l32.2,32.2c9.8,9.8,9.8,25.6,0,35.4L100,99.9v0.1h0.1l32.2,32.2
				c9.8,9.8,9.8,25.6,0,35.4L100,199.9v0.1h0.1l32.2,32.2c9.8,9.8,9.8,25.6,0,35.4L100,299.9v0.1h0.1l32.2,32.2
				c9.8,9.8,9.8,25.6,0,35.4L100,399.9v0.1h99.9l-32.2-32.2c-9.8-9.8-9.8-25.6,0-35.4l32.3-32.4V300h-0.1L167.7,267.8z"/>
		</g>
		<g>
			<path class="st0" d="M267.7,267.8c-9.8-9.8-9.8-25.6,0-35.4l32.3-32.4V200h-0.1l-32.2-32.2c-9.8-9.8-9.8-25.6,0-35.4l32.3-32.4
				V100h-0.1l-32.2-32.2c-9.8-9.8-9.8-25.6,0-35.4L300,0.1V0h-99.9l32.2,32.2c9.8,9.8,9.8,25.6,0,35.4L200,99.9v0.1h0.1l32.2,32.2
				c9.8,9.8,9.8,25.6,0,35.4L200,199.9v0.1h0.1l32.2,32.2c9.8,9.8,9.8,25.6,0,35.4L200,299.9v0.1h0.1l32.2,32.2
				c9.8,9.8,9.8,25.6,0,35.4L200,399.9v0.1h99.9l-32.2-32.2c-9.8-9.8-9.8-25.6,0-35.4l32.3-32.4V300h-0.1L267.7,267.8z"/>
		</g>
	</g>
</g>
</svg>
