<?xml version="1.0" encoding="utf-8"?>
<!-- Generator: Adobe Illustrator 22.0.0, SVG Export Plug-In . SVG Version: 6.00 Build 0)  -->
<svg version="1.1" id="Layer_1" xmlns="http://www.w3.org/2000/svg" xmlns:xlink="http://www.w3.org/1999/xlink" x="0px" y="0px"
	 viewBox="0 0 400 400" style="enable-background:new 0 0 400 400;" xml:space="preserve">
<style type="text/css">
	.st0{fill:#E1A5FF;}
	.st1{fill:#A126E9;}
	.st2{fill:#410F64;}
</style>
<g>
	<polygon class="st0" points="305.9,400 306.1,400 306,399.9 	"/>
</g>
<g>
	<polygon class="st0" points="199.9,400 200.1,400 200,399.9 	"/>
</g>
<g>
	<polygon class="st1" points="231.9,901.5 232.1,901.5 232,901.4 	"/>
</g>
<g>
	
		<rect x="231.9" y="701.5" transform="matrix(0.7071 -0.7071 0.7071 0.7071 -428.1428 369.4985)" class="st1" width="0.1" height="0.1"/>
</g>
<g>
	
		<rect x="125.9" y="701.5" transform="matrix(0.7071 -0.7071 0.7071 0.7071 -459.1894 294.5461)" class="st1" width="0.1" height="0.1"/>
</g>
<g>
	<polygon class="st1" points="125.9,901.5 126.1,901.5 126,901.4 	"/>
</g>
<g>
	<path class="st2" d="M400,100L300.7,0H250l90.9,91.5c4.6,4.7,4.6,12.2,0,16.9L250,200l90.9,91.5c4.6,4.7,4.6,12.2,0,16.9L250,400
		h50.7L400,300l-90.9-91.5c-4.6-4.7-4.6-12.2,0-16.9L400,100z"/>
	<path class="st2" d="M150,100L50.7,0H0l90.9,91.5c4.6,4.7,4.6,12.2,0,16.9L0,200l90.9,91.5c4.6,4.7,4.6,12.2,0,16.9L0,400h50.7
		L150,300l-90.9-91.5c-4.6-4.7-4.6-12.2,0-16.9L150,100z"/>
	<path class="st2" d="M274.4,100L175.1,0h-50.7l90.9,91.5c4.6,4.7,4.6,12.2,0,16.9L124.4,200l90.9,91.5c4.6,4.7,4.6,12.2,0,16.9
		L124.4,400h50.7l99.3-100l-90.9-91.5c-4.6-4.7-4.6-12.2,0-16.9L274.4,100z"/>
</g>
</svg>
