<?xml version="1.0" encoding="utf-8"?>
<!-- Generator: Adobe Illustrator 22.0.0, SVG Export Plug-In . SVG Version: 6.00 Build 0)  -->
<svg version="1.1" id="Layer_1" xmlns="http://www.w3.org/2000/svg" xmlns:xlink="http://www.w3.org/1999/xlink" x="0px" y="0px"
	 viewBox="0 0 400 400" style="enable-background:new 0 0 400 400;" xml:space="preserve">
<style type="text/css">
	.st0{fill:#410F64;}
</style>
<g>
	<g>
		<path class="st0" d="M0,0l100,100V14.5c0-5.3,6.5-8,10.2-4.2L200,100V14.5c0-0.4,0.1-0.8,0.1-1.2c0.2-1.2,0.8-2.2,1.5-2.9
			c0.3-0.3,0.6-0.6,1-0.8c0.1-0.1,0.2-0.2,0.4-0.3c0.7-0.4,1.5-0.7,2.3-0.8c0,0,0.1,0,0.1,0c0.2,0,0.4,0,0.6,0c0.1,0,0.2,0,0.3,0
			c0.5,0,1.1,0.1,1.6,0.3c0,0,0.1,0,0.1,0c0.8,0.3,1.6,0.8,2.3,1.5L300,100V14.5c0-5.3,6.5-8,10.2-4.2L400,100V0H0z"/>
		<path class="st0" d="M300,100H0l100,100v-85.5c0-5.3,6.5-8,10.2-4.2L200,200v-85.5c0-0.4,0.1-0.8,0.1-1.2c0.2-1.2,0.8-2.2,1.5-2.9
			c0.3-0.3,0.6-0.6,1-0.8c0.1-0.1,0.2-0.2,0.4-0.3c0.7-0.4,1.5-0.7,2.3-0.8c0,0,0.1,0,0.1,0c0.2,0,0.4,0,0.6,0c0.1,0,0.2,0,0.3,0
			c0.5,0,1.1,0.1,1.6,0.3c0,0,0.1,0,0.1,0c0.8,0.3,1.6,0.8,2.3,1.5L300,200v-85.5c0-5.3,6.5-8,10.2-4.2L400,200V100H300z"/>
	</g>
	<g>
		<path class="st0" d="M0,200l100,100v-85.5c0-5.3,6.5-8,10.2-4.2L200,300v-85.5c0-0.4,0.1-0.8,0.1-1.2c0.2-1.2,0.8-2.2,1.5-2.9
			c0.3-0.3,0.6-0.6,1-0.8c0.1-0.1,0.2-0.2,0.4-0.3c0.7-0.4,1.5-0.7,2.3-0.8c0,0,0.1,0,0.1,0c0.2,0,0.4,0,0.6,0c0.1,0,0.2,0,0.3,0
			c0.5,0,1.1,0.1,1.6,0.3c0,0,0.1,0,0.1,0c0.8,0.3,1.6,0.8,2.3,1.5L300,300v-85.5c0-5.3,6.5-8,10.2-4.2L400,300V200H0z"/>
		<path class="st0" d="M300,300H0l100,100v-85.5c0-5.3,6.5-8,10.2-4.2L200,400v-85.5c0-0.4,0.1-0.8,0.1-1.2c0.2-1.2,0.8-2.2,1.5-2.9
			c0.3-0.3,0.6-0.6,1-0.8c0.1-0.1,0.2-0.2,0.4-0.3c0.7-0.4,1.5-0.7,2.3-0.8c0,0,0.1,0,0.1,0c0.2,0,0.4,0,0.6,0c0.1,0,0.2,0,0.3,0
			c0.5,0,1.1,0.1,1.6,0.3c0,0,0.1,0,0.1,0c0.8,0.3,1.6,0.8,2.3,1.5L300,400v-85.5c0-5.3,6.5-8,10.2-4.2L400,400V300H300z"/>
	</g>
</g>
</svg>
