<?xml version="1.0" encoding="utf-8"?>
<!-- Generator: Adobe Illustrator 22.0.0, SVG Export Plug-In . SVG Version: 6.00 Build 0)  -->
<svg version="1.1" id="Layer_1" xmlns="http://www.w3.org/2000/svg" xmlns:xlink="http://www.w3.org/1999/xlink" x="0px" y="0px"
	 viewBox="0 0 400 400" style="enable-background:new 0 0 400 400;" xml:space="preserve">
<style type="text/css">
	.st0{fill:#E1A5FF;}
</style>
<g>
	<g>
		<polygon class="st0" points="-1200,0 -999.9,200 -1200,400 -1000.1,400 -800,200 -1000.1,0 		"/>
	</g>
</g>
<g>
	<g>
		<polygon class="st0" points="200,0 145,0 345,200 145,400 200,400 400,200 		"/>
	</g>
	<g>
		<polygon class="st0" points="99,0 44,0 244,200 44,400 99,400 299,200 		"/>
	</g>
	<g>
		<polygon class="st0" points="0,0 0,55 145,200 0,345 0,400 200,200 		"/>
	</g>
</g>
<g>
	<g>
		<polygon class="st0" points="-400,200 -200,400 -200,200 		"/>
	</g>
	<g>
		<polygon class="st0" points="-200,0 0,200 0,0 		"/>
	</g>
	<g>
		<polygon class="st0" points="-400,0 -200,200 -200,0 		"/>
	</g>
	<g>
		<polygon class="st0" points="-200,200 0,400 0,200 		"/>
	</g>
</g>
<g>
	<g>
		<path class="st0" d="M600,0L600,0C489.5,0,400,89.5,400,200v0c0,110.5,89.5,200,200,200h0c110.5,0,200-89.5,200-200v0
			C800,89.5,710.5,0,600,0z M665,200c0,35.9-29.1,65-65,65h0c-35.9,0-65-29.1-65-65v0c0-35.9,29.1-65,65-65h0
			C635.9,135,665,164.1,665,200L665,200z"/>
	</g>
</g>
<g>
	<g>
		<path class="st0" d="M-800,0v400h400V0H-800z M-440,360h-320V40h320V360z"/>
	</g>
	<g>
		<path class="st0" d="M-715,85v230h230V85H-715z M-525,275h-150V125h150V275z"/>
	</g>
</g>
</svg>
