<?xml version="1.0" encoding="utf-8"?>
<!-- Generator: Adobe Illustrator 22.0.0, SVG Export Plug-In . SVG Version: 6.00 Build 0)  -->
<svg version="1.1" id="Layer_1" xmlns="http://www.w3.org/2000/svg" xmlns:xlink="http://www.w3.org/1999/xlink" x="0px" y="0px"
	 viewBox="0 0 400 400" style="enable-background:new 0 0 400 400;" xml:space="preserve">
<style type="text/css">
	.st0{fill:#A126E9;}
</style>
<g>
	<g>
		<g>
			<g>
				<path class="st0" d="M200,0L200,0v40l0,0c88.4,0,160,71.6,160,160l0,0c0,88.4-71.6,160-160,160l0,0v40l0,0
					c110.5,0,200-89.5,200-200l0,0C400,89.5,310.5,0,200,0z"/>
			</g>
			<g>
				<path class="st0" d="M315,200c0-63.5-51.5-115-115-115v41c40.9,0,74,33.1,74,74s-33.1,74-74,74v41C263.5,315,315,263.5,315,200z
					"/>
			</g>
		</g>
		<g>
			<g>
				<path class="st0" d="M0,0L0,0v40l0,0c88.4,0,160,71.6,160,160l0,0c0,88.4-71.6,160-160,160l0,0v40l0,0c110.5,0,200-89.5,200-200
					l0,0C200,89.5,110.5,0,0,0z"/>
			</g>
			<g>
				<path class="st0" d="M115,200C115,136.5,63.5,85,0,85v41c40.9,0,74,33.1,74,74s-33.1,74-74,74v41C63.5,315,115,263.5,115,200z"
					/>
			</g>
		</g>
	</g>
</g>
</svg>
