<?xml version="1.0" encoding="utf-8"?>
<!-- Generator: Adobe Illustrator 22.0.0, SVG Export Plug-In . SVG Version: 6.00 Build 0)  -->
<svg version="1.1" id="Layer_1" xmlns="http://www.w3.org/2000/svg" xmlns:xlink="http://www.w3.org/1999/xlink" x="0px" y="0px"
	 viewBox="0 0 400 400" style="enable-background:new 0 0 400 400;" xml:space="preserve">
<style type="text/css">
	.st0{fill:#410F64;}
</style>
<g>
	<path class="st0" d="M399.8,100h0.2v-0.2l-41.5-41.5c-4.7-4.7-4.7-12.3,0-17L399.8,0H300v0.2l41.5,41.5c4.7,4.7,4.7,12.3,0,17
		L300.2,100H300v0.2l41.5,41.5c4.7,4.7,4.7,12.3,0,17L300.2,200H300v0.2l41.5,41.5c4.7,4.7,4.7,12.3,0,17L300.2,300H300v0.2
		l41.5,41.5c4.7,4.7,4.7,12.3,0,17L300.2,400H400v-0.2l-41.5-41.5c-4.7-4.7-4.7-12.3,0-17l41.3-41.3h0.2v-0.2l-41.5-41.5
		c-4.7-4.7-4.7-12.3,0-17l41.3-41.3h0.2v-0.2l-41.5-41.5c-4.7-4.7-4.7-12.3,0-17L399.8,100z"/>
	<path class="st0" d="M58.5,258.2c-4.7-4.7-4.7-12.3,0-17L99.8,200h0.2v-0.2l-41.5-41.5c-4.7-4.7-4.7-12.3,0-17L99.8,100h0.2v-0.2
		L58.5,58.2c-4.7-4.7-4.7-12.3,0-17L99.8,0H0v0.2l41.5,41.5c4.7,4.7,4.7,12.3,0,17L0.2,100H0v0.2l41.5,41.5c4.7,4.7,4.7,12.3,0,17
		L0.2,200H0v0.2l41.5,41.5c4.7,4.7,4.7,12.3,0,17L0.2,300H0v0.2l41.5,41.5c4.7,4.7,4.7,12.3,0,17L0.2,400H100v-0.2l-41.5-41.5
		c-4.7-4.7-4.7-12.3,0-17L99.8,300h0.2v-0.2L58.5,258.2z"/>
	<path class="st0" d="M158.5,258.2c-4.7-4.7-4.7-12.3,0-17l41.3-41.3h0.2v-0.2l-41.5-41.5c-4.7-4.7-4.7-12.3,0-17l41.3-41.3h0.2
		v-0.2l-41.5-41.5c-4.7-4.7-4.7-12.3,0-17L199.8,0H100v0.2l41.5,41.5c4.7,4.7,4.7,12.3,0,17L100.2,100H100v0.2l41.5,41.5
		c4.7,4.7,4.7,12.3,0,17L100.2,200H100v0.2l41.5,41.5c4.7,4.7,4.7,12.3,0,17L100.2,300H100v0.2l41.5,41.5c4.7,4.7,4.7,12.3,0,17
		L100.2,400H200v-0.2l-41.5-41.5c-4.7-4.7-4.7-12.3,0-17l41.3-41.3h0.2v-0.2L158.5,258.2z"/>
	<path class="st0" d="M258.5,258.2c-4.7-4.7-4.7-12.3,0-17l41.3-41.3h0.2v-0.2l-41.5-41.5c-4.7-4.7-4.7-12.3,0-17l41.3-41.3h0.2
		v-0.2l-41.5-41.5c-4.7-4.7-4.7-12.3,0-17L299.8,0H200v0.2l41.5,41.5c4.7,4.7,4.7,12.3,0,17L200.2,100H200v0.2l41.5,41.5
		c4.7,4.7,4.7,12.3,0,17L200.2,200H200v0.2l41.5,41.5c4.7,4.7,4.7,12.3,0,17L200.2,300H200v0.2l41.5,41.5c4.7,4.7,4.7,12.3,0,17
		L200.2,400H300v-0.2l-41.5-41.5c-4.7-4.7-4.7-12.3,0-17l41.3-41.3h0.2v-0.2L258.5,258.2z"/>
</g>
</svg>
