<?xml version="1.0" encoding="utf-8"?>
<!-- Generator: Adobe Illustrator 22.0.0, SVG Export Plug-In . SVG Version: 6.00 Build 0)  -->
<svg version="1.1" id="Layer_1" xmlns="http://www.w3.org/2000/svg" xmlns:xlink="http://www.w3.org/1999/xlink" x="0px" y="0px"
	 viewBox="0 0 400 400" style="enable-background:new 0 0 400 400;" xml:space="preserve">
<style type="text/css">
	.st0{fill:#CD96F5;}
</style>
<g>
	<path class="st0" d="M110.6,110.8c-5.9-5.9-5.9-15.3,0-21.2L200,0.1V0H0.1l89.3,89.2c5.9,5.9,5.9,15.3,0,21.2L0,199.9v0.1h0.1
		l89.3,89.2c5.9,5.9,5.9,15.3,0,21.2L0,399.9v0.1h199.9l-89.3-89.2c-5.9-5.9-5.9-15.3,0-21.2l89.4-89.5V200h-0.1L110.6,110.8z"/>
	<path class="st0" d="M400,0.1L400,0.1L200.1,0l89.3,89.2c5.9,5.9,5.9,15.3,0,21.2L200,199.9v0.1h0.1l89.3,89.2
		c5.9,5.9,5.9,15.3,0,21.2L200,399.9v0.1h199.9l-89.3-89.2c-5.9-5.9-5.9-15.3,0-21.2l89.4-89.5V200h-0.1l-89.3-89.2
		c-5.9-5.9-5.9-15.3,0-21.2L400,0.1z"/>
</g>
</svg>
