<?xml version="1.0" encoding="utf-8"?>
<!-- Generator: Adobe Illustrator 22.0.0, SVG Export Plug-In . SVG Version: 6.00 Build 0)  -->
<svg version="1.1" id="Layer_1" xmlns="http://www.w3.org/2000/svg" xmlns:xlink="http://www.w3.org/1999/xlink" x="0px" y="0px"
	 viewBox="0 0 400 400" style="enable-background:new 0 0 400 400;" xml:space="preserve">
<style type="text/css">
	.st0{fill:#E1BEFA;}
</style>
<g>
	<g>
		<g>
			<g>
				<path class="st0" d="M0,0l100,100V36.2c0-13.4,16.2-20.1,25.6-10.6L200,100V36.2c0-13.4,16.2-20.1,25.6-10.6L300,100V36.2
					c0-13.4,16.2-20.1,25.6-10.6L400,100V0H0z"/>
			</g>
		</g>
		<g>
			<g>
				<path class="st0" d="M0,100l100,100v-63.8c0-13.4,16.2-20.1,25.6-10.6L200,200v-63.8c0-13.4,16.2-20.1,25.6-10.6L300,200v-63.8
					c0-13.4,16.2-20.1,25.6-10.6L400,200V100H0z"/>
			</g>
		</g>
		<g>
			<g>
				<path class="st0" d="M0,200l100,100v-63.8c0-13.4,16.2-20.1,25.6-10.6L200,300v-63.8c0-13.4,16.2-20.1,25.6-10.6L300,300v-63.8
					c0-13.4,16.2-20.1,25.6-10.6L400,300V200H0z"/>
			</g>
		</g>
		<g>
			<g>
				<path class="st0" d="M0,300l100,100v-63.8c0-13.4,16.2-20.1,25.6-10.6L200,400v-63.8c0-13.4,16.2-20.1,25.6-10.6L300,400v-63.8
					c0-13.4,16.2-20.1,25.6-10.6L400,400V300H0z"/>
			</g>
		</g>
	</g>
</g>
</svg>
