<?xml version="1.0" encoding="utf-8"?>
<!-- Generator: Adobe Illustrator 22.0.0, SVG Export Plug-In . SVG Version: 6.00 Build 0)  -->
<svg version="1.1" id="Layer_1" xmlns="http://www.w3.org/2000/svg" xmlns:xlink="http://www.w3.org/1999/xlink" x="0px" y="0px"
	 viewBox="0 0 400 400" style="enable-background:new 0 0 400 400;" xml:space="preserve">
<style type="text/css">
	.st0{fill:#CD96F5;}
</style>
<path class="st0" d="M400,160h-84.1c-7.1,0-10.7-8.6-5.7-13.7l59.5-59.5l-56.6-56.6l-59.5,59.5c-5,5-13.7,1.5-13.7-5.7V0h-80v84.1
	c0,7.1-8.6,10.7-13.7,5.7L86.9,30.3L30.3,86.9l59.5,59.5c5,5,1.5,13.7-5.7,13.7H0v80h84.1c7.1,0,10.7,8.6,5.7,13.7l-59.5,59.5
	l56.6,56.6l59.5-59.5c5-5,13.7-1.5,13.7,5.7V400h80v-84.1c0-7.1,8.6-10.7,13.7-5.7l59.5,59.5l56.6-56.6l-59.5-59.5
	c-5-5-1.5-13.7,5.7-13.7H400V160z"/>
</svg>
