<?xml version="1.0" encoding="utf-8"?>
<!-- Generator: Adobe Illustrator 22.0.0, SVG Export Plug-In . SVG Version: 6.00 Build 0)  -->
<svg version="1.1" id="Layer_1" xmlns="http://www.w3.org/2000/svg" xmlns:xlink="http://www.w3.org/1999/xlink" x="0px" y="0px"
	 viewBox="0 0 400 400" style="enable-background:new 0 0 400 400;" xml:space="preserve">
<style type="text/css">
	.st0{fill:#E1A5FF;}
	.st1{fill:#A126E9;}
	.st2{fill:#E1BEFA;}
</style>
<g>
	<polygon class="st0" points="305.9,400 306.1,400 306,399.9 	"/>
</g>
<g>
	<polygon class="st0" points="199.9,400 200.1,400 200,399.9 	"/>
</g>
<g>
	<polygon class="st1" points="231.9,901.5 232.1,901.5 232,901.4 	"/>
</g>
<g>
	
		<rect x="231.9" y="701.5" transform="matrix(0.7071 -0.7071 0.7071 0.7071 -428.1268 369.4935)" class="st1" width="0.1" height="0.1"/>
</g>
<g>
	
		<rect x="125.9" y="701.5" transform="matrix(0.7071 -0.7071 0.7071 0.7071 -459.1731 294.5409)" class="st1" width="0.1" height="0.1"/>
</g>
<g>
	<polygon class="st1" points="125.9,901.5 126.1,901.5 126,901.4 	"/>
</g>
<g>
	<g>
		<g>
			<path class="st2" d="M400.1,100L300.8,0h-55.7l78.3,78.9c11.6,11.7,11.6,30.6,0,42.3L245.1,200l78.3,78.9
				c11.6,11.7,11.6,30.6,0,42.3L245.1,400h55.7l99.3-100l-78.3-78.9c-11.6-11.7-11.6-30.6,0-42.3L400.1,100z"/>
		</g>
		<g>
			<path class="st2" d="M277.6,100L178.3,0h-55.7l78.3,78.9c11.6,11.7,11.6,30.6,0,42.3L122.6,200l78.3,78.9
				c11.6,11.7,11.6,30.6,0,42.3L122.6,400h55.7l99.3-100l-78.3-78.9c-11.6-11.7-11.6-30.6,0-42.3L277.6,100z"/>
		</g>
		<g>
			<path class="st2" d="M155.1,100L55.8,0H0.1l78.3,78.9c11.6,11.7,11.6,30.6,0,42.3L0.1,200l78.3,78.9c11.6,11.7,11.6,30.6,0,42.3
				L0.1,400h55.7l99.3-100l-78.3-78.9c-11.6-11.7-11.6-30.6,0-42.3L155.1,100z"/>
		</g>
	</g>
</g>
</svg>
