<?xml version="1.0" encoding="utf-8"?>
<!-- Generator: Adobe Illustrator 22.0.0, SVG Export Plug-In . SVG Version: 6.00 Build 0)  -->
<svg version="1.1" id="Layer_1" xmlns="http://www.w3.org/2000/svg" xmlns:xlink="http://www.w3.org/1999/xlink" x="0px" y="0px"
	 viewBox="0 0 400 400" style="enable-background:new 0 0 400 400;" xml:space="preserve">
<style type="text/css">
	.st0{fill:#410F64;}
</style>
<path class="st0" d="M400,180H267.6c-7.1,0-10.7-8.6-5.7-13.7l93.6-93.6l-28.3-28.3l-93.6,93.6c-5,5-13.7,1.5-13.7-5.7V0h-40v132.4
	c0,7.1-8.6,10.7-13.7,5.7L72.7,44.4L44.4,72.7l93.6,93.6c5,5,1.5,13.7-5.7,13.7H0v40h132.4c7.1,0,10.7,8.6,5.7,13.7l-93.6,93.6
	l28.3,28.3l93.6-93.6c5-5,13.7-1.5,13.7,5.7V400h40V267.6c0-7.1,8.6-10.7,13.7-5.7l93.6,93.6l28.3-28.3l-93.6-93.6
	c-5-5-1.5-13.7,5.7-13.7H400V180z"/>
</svg>
