<?xml version="1.0" encoding="utf-8"?>
<!-- Generator: Adobe Illustrator 22.0.0, SVG Export Plug-In . SVG Version: 6.00 Build 0)  -->
<svg version="1.1" id="Layer_1" xmlns="http://www.w3.org/2000/svg" xmlns:xlink="http://www.w3.org/1999/xlink" x="0px" y="0px"
	 viewBox="0 0 400 400" style="enable-background:new 0 0 400 400;" xml:space="preserve">
<style type="text/css">
	.st0{fill:#CD96F5;}
</style>
<g>
	<path class="st0" d="M108.5,108.2c-4.7-4.7-4.7-12.3,0-17L199.9,0H0v0.1l91.5,91.6c4.7,4.7,4.7,12.3,0,17L0.1,200H0v0.1l91.5,91.6
		c4.7,4.7,4.7,12.3,0,17L0.1,400H200v-0.1l-91.5-91.6c-4.7-4.7-4.7-12.3,0-17l91.3-91.3h0.1v-0.1L108.5,108.2z"/>
	<path class="st0" d="M399.9,200h0.1v-0.1l-91.5-91.6c-4.7-4.7-4.7-12.3,0-17L399.9,0H200v0.1l91.5,91.6c4.7,4.7,4.7,12.3,0,17
		L200.1,200H200v0.1l91.5,91.6c4.7,4.7,4.7,12.3,0,17L200.1,400H400v-0.1l-91.5-91.6c-4.7-4.7-4.7-12.3,0-17L399.9,200z"/>
</g>
</svg>
