<?xml version="1.0" encoding="utf-8"?>
<!-- Generator: Adobe Illustrator 22.0.0, SVG Export Plug-In . SVG Version: 6.00 Build 0)  -->
<svg version="1.1" id="Layer_1" xmlns="http://www.w3.org/2000/svg" xmlns:xlink="http://www.w3.org/1999/xlink" x="0px" y="0px"
	 viewBox="0 0 400 400" style="enable-background:new 0 0 400 400;" xml:space="preserve">
<style type="text/css">
	.st0{fill:#CD96F5;}
</style>
<g>
	<path class="st0" d="M76.8,320.9L0,400h102.9L200,300l-76.8-79.1c-11.3-11.6-11.3-30.2,0-41.8L200,100L102.9,0H0l76.8,79.1
		c11.3,11.6,11.3,30.2,0,41.8L0,200l76.8,79.1C88.1,290.7,88.1,309.3,76.8,320.9z"/>
	<path class="st0" d="M276.8,320.9L200,400h102.9L400,300l-76.8-79.1c-11.3-11.6-11.3-30.2,0-41.8L400,100L302.9,0H200l76.8,79.1
		c11.3,11.6,11.3,30.2,0,41.8L200,200l76.8,79.1C288.1,290.7,288.1,309.3,276.8,320.9z"/>
</g>
</svg>
