<?xml version="1.0" encoding="utf-8"?>
<!-- Generator: Adobe Illustrator 22.0.0, SVG Export Plug-In . SVG Version: 6.00 Build 0)  -->
<svg version="1.1" id="Layer_1" xmlns="http://www.w3.org/2000/svg" xmlns:xlink="http://www.w3.org/1999/xlink" x="0px" y="0px"
	 viewBox="0 0 400 400" style="enable-background:new 0 0 400 400;" xml:space="preserve">
<style type="text/css">
	.st0{fill:#410F64;}
</style>
<g>
	<path class="st0" d="M0,0v400h400V0H0z M345,360H55c-8.3,0-15-6.7-15-15V55c0-8.3,6.7-15,15-15h290c8.3,0,15,6.7,15,15v290
		C360,353.3,353.3,360,345,360z"/>
	<path class="st0" d="M85,85v230h230V85H85z M260,275H140c-8.3,0-15-6.7-15-15V140c0-8.3,6.7-15,15-15h120c8.3,0,15,6.7,15,15v120
		C275,268.3,268.3,275,260,275z"/>
</g>
</svg>
