<?xml version="1.0" encoding="utf-8"?>
<!-- Generator: Adobe Illustrator 22.0.0, SVG Export Plug-In . SVG Version: 6.00 Build 0)  -->
<svg version="1.1" id="Layer_1" xmlns="http://www.w3.org/2000/svg" xmlns:xlink="http://www.w3.org/1999/xlink" x="0px" y="0px"
	 viewBox="0 0 400 400" style="enable-background:new 0 0 400 400;" xml:space="preserve">
<style type="text/css">
	.st0{fill:#410F64;}
</style>
<g>
	<g>
		<path class="st0" d="M0,0l100,100V19.3c0-7.1,8.6-10.7,13.7-5.7L200,100V19.3c0-7.1,8.6-10.7,13.7-5.7L300,100V19.3
			c0-7.1,8.6-10.7,13.7-5.7L400,100V0H0z"/>
		<path class="st0" d="M0,100l100,100v-80.7c0-7.1,8.6-10.7,13.7-5.7L200,200v-80.7c0-7.1,8.6-10.7,13.7-5.7L300,200v-80.7
			c0-7.1,8.6-10.7,13.7-5.7L400,200V100H0z"/>
	</g>
	<g>
		<path class="st0" d="M0,200l100,100v-80.7c0-7.1,8.6-10.7,13.7-5.7L200,300v-80.7c0-7.1,8.6-10.7,13.7-5.7L300,300v-80.7
			c0-7.1,8.6-10.7,13.7-5.7L400,300V200H0z"/>
		<path class="st0" d="M0,300l100,100v-80.7c0-7.1,8.6-10.7,13.7-5.7L200,400v-80.7c0-7.1,8.6-10.7,13.7-5.7L300,400v-80.7
			c0-7.1,8.6-10.7,13.7-5.7L400,400V300H0z"/>
	</g>
</g>
</svg>
