<?xml version="1.0" encoding="utf-8"?>
<!-- Generator: Adobe Illustrator 22.0.0, SVG Export Plug-In . SVG Version: 6.00 Build 0)  -->
<svg version="1.1" id="Layer_1" xmlns="http://www.w3.org/2000/svg" xmlns:xlink="http://www.w3.org/1999/xlink" x="0px" y="0px"
	 viewBox="0 0 400 400" style="enable-background:new 0 0 400 400;" xml:space="preserve">
<style type="text/css">
	.st0{fill:#410F64;}
</style>
<g>
	<path class="st0" d="M400,0.1V0h-99.9l39.3,39.2c5.9,5.9,5.9,15.3,0,21.2L300,99.9v0.1h0.1l39.3,39.2c5.9,5.9,5.9,15.3,0,21.2
		L300,199.9v0.1h0.1l39.3,39.2c5.9,5.9,5.9,15.3,0,21.2L300,299.9v0.1h0.1l39.3,39.2c5.9,5.9,5.9,15.3,0,21.2L300,399.9v0.1h99.9
		l-39.3-39.2c-5.9-5.9-5.9-15.3,0-21.2l39.4-39.4V300h-0.1l-39.3-39.2c-5.9-5.9-5.9-15.3,0-21.2l39.4-39.4V200h-0.1l-39.3-39.2
		c-5.9-5.9-5.9-15.3,0-21.2l39.4-39.4V100h-0.1l-39.3-39.2c-5.9-5.9-5.9-15.3,0-21.2L400,0.1z"/>
	<path class="st0" d="M60.6,260.8c-5.9-5.9-5.9-15.3,0-21.2l39.4-39.4V200h-0.1l-39.3-39.2c-5.9-5.9-5.9-15.3,0-21.2l39.4-39.4V100
		h-0.1L60.6,60.8c-5.9-5.9-5.9-15.3,0-21.2L100,0.1V0H0.1l39.3,39.2c5.9,5.9,5.9,15.3,0,21.2L0,99.9v0.1h0.1l39.3,39.2
		c5.9,5.9,5.9,15.3,0,21.2L0,199.9v0.1h0.1l39.3,39.2c5.9,5.9,5.9,15.3,0,21.2L0,299.9v0.1h0.1l39.3,39.2c5.9,5.9,5.9,15.3,0,21.2
		L0,399.9v0.1h99.9l-39.3-39.2c-5.9-5.9-5.9-15.3,0-21.2l39.4-39.4V300h-0.1L60.6,260.8z"/>
	<path class="st0" d="M160.6,260.8c-5.9-5.9-5.9-15.3,0-21.2l39.4-39.4V200h-0.1l-39.3-39.2c-5.9-5.9-5.9-15.3,0-21.2l39.4-39.4V100
		h-0.1l-39.3-39.2c-5.9-5.9-5.9-15.3,0-21.2L200,0.1V0h-99.9l39.3,39.2c5.9,5.9,5.9,15.3,0,21.2L100,99.9v0.1h0.1l39.3,39.2
		c5.9,5.9,5.9,15.3,0,21.2L100,199.9v0.1h0.1l39.3,39.2c5.9,5.9,5.9,15.3,0,21.2L100,299.9v0.1h0.1l39.3,39.2
		c5.9,5.9,5.9,15.3,0,21.2L100,399.9v0.1h99.9l-39.3-39.2c-5.9-5.9-5.9-15.3,0-21.2l39.4-39.4V300h-0.1L160.6,260.8z"/>
	<path class="st0" d="M260.6,260.8c-5.9-5.9-5.9-15.3,0-21.2l39.4-39.4V200h-0.1l-39.3-39.2c-5.9-5.9-5.9-15.3,0-21.2l39.4-39.4V100
		h-0.1l-39.3-39.2c-5.9-5.9-5.9-15.3,0-21.2L300,0.1V0h-99.9l39.3,39.2c5.9,5.9,5.9,15.3,0,21.2L200,99.9v0.1h0.1l39.3,39.2
		c5.9,5.9,5.9,15.3,0,21.2L200,199.9v0.1h0.1l39.3,39.2c5.9,5.9,5.9,15.3,0,21.2L200,299.9v0.1h0.1l39.3,39.2
		c5.9,5.9,5.9,15.3,0,21.2L200,399.9v0.1h99.9l-39.3-39.2c-5.9-5.9-5.9-15.3,0-21.2l39.4-39.4V300h-0.1L260.6,260.8z"/>
</g>
</svg>
