<?xml version="1.0" encoding="utf-8"?>
<!-- Generator: Adobe Illustrator 22.0.0, SVG Export Plug-In . SVG Version: 6.00 Build 0)  -->
<svg version="1.1" id="Layer_1" xmlns="http://www.w3.org/2000/svg" xmlns:xlink="http://www.w3.org/1999/xlink" x="0px" y="0px"
	 viewBox="0 0 1000 500" style="enable-background:new 0 0 1000 500;" xml:space="preserve">
<style type="text/css">
	.st0{fill:#005FC9;}
	.st1{fill:#68EBF5;}
</style>
<g>
	<path class="st0" d="M250,250c138.1,0,250-111.9,250-250H375c0,69-56,125-125,125S125,69,125,0H0C0,138.1,111.9,250,250,250z"/>
	<path class="st0" d="M750,500c138.1,0,250-111.9,250-250H875c0,69-56,125-125,125s-125-56-125-125H500C500,388.1,611.9,500,750,500
		z"/>
</g>
<g>
	<path class="st0" d="M343.8,281.3c-17.3,0-31.3-14-31.3-31.3h15.6c0,8.6,7,15.6,15.6,15.6s15.6-7,15.6-15.6H375
		C375,267.3,361,281.3,343.8,281.3z"/>
	<path class="st0" d="M281.3,312.5c-17.3,0-31.3-14-31.3-31.3h15.6c0,8.6,7,15.6,15.6,15.6s15.6-7,15.6-15.6h15.6
		C312.5,298.5,298.5,312.5,281.3,312.5z"/>
</g>
<g>
	<path class="st0" d="M156.3,406.3c17.3,0,31.3-14,31.3-31.3h-15.6c0,8.6-7,15.6-15.6,15.6s-15.6-7-15.6-15.6H125
		C125,392.3,139,406.3,156.3,406.3z"/>
	<path class="st0" d="M218.8,437.5c17.3,0,31.3-14,31.3-31.3h-15.6c0,8.6-7,15.6-15.6,15.6s-15.6-7-15.6-15.6h-15.6
		C187.5,423.5,201.5,437.5,218.8,437.5z"/>
</g>
<g>
	<path class="st0" d="M62.5,437.5c34.5,0,62.5-28,62.5-62.5H93.8c0,17.3-14,31.3-31.3,31.3s-31.3-14-31.3-31.3H0
		C0,409.5,28,437.5,62.5,437.5z"/>
	<path class="st0" d="M187.5,500c34.5,0,62.5-28,62.5-62.5h-31.3c0,17.3-14,31.3-31.3,31.3s-31.3-14-31.3-31.3H125
		C125,472,153,500,187.5,500z"/>
</g>
<g>
	<path class="st0" d="M656.3,31.3c17.3,0,31.3-14,31.3-31.3h-15.6c0,8.6-7,15.6-15.6,15.6s-15.6-7-15.6-15.6L625,0
		C625,17.3,639,31.3,656.3,31.3z"/>
	<path class="st0" d="M718.8,62.5c17.3,0,31.3-14,31.3-31.3h-15.6c0,8.6-7,15.6-15.6,15.6s-15.6-7-15.6-15.6h-15.6
		C687.5,48.5,701.5,62.5,718.8,62.5z"/>
</g>
<g>
	<path class="st0" d="M906.3,156.3c17.3,0,31.3-14,31.3-31.3h-15.6c0,8.6-7,15.6-15.6,15.6s-15.6-7-15.6-15.6H875
		C875,142.3,889,156.3,906.3,156.3z"/>
	<path class="st0" d="M968.8,187.5c17.3,0,31.3-14,31.3-31.3h-15.6c0,8.6-7,15.6-15.6,15.6s-15.6-7-15.6-15.6h-15.6
		C937.5,173.5,951.5,187.5,968.8,187.5z"/>
</g>
<g>
	<path class="st0" d="M812.5,187.5c34.5,0,62.5-28,62.5-62.5h-31.3c0,17.3-14,31.3-31.3,31.3s-31.3-14-31.3-31.3H750
		C750,159.5,778,187.5,812.5,187.5z"/>
	<path class="st0" d="M937.5,250c34.5,0,62.5-28,62.5-62.5h-31.3c0,17.3-14,31.3-31.3,31.3s-31.3-14-31.3-31.3H875
		C875,222,903,250,937.5,250z"/>
</g>
<g>
	<g>
		<g>
			<path class="st1" d="M468.8,343.8c-17.3,0-31.3-14-31.3-31.3h15.6c0,8.6,7,15.6,15.6,15.6s15.6-7,15.6-15.6H500
				C500,329.8,486,343.8,468.8,343.8z"/>
			<path class="st1" d="M406.3,375c-17.3,0-31.3-14-31.3-31.3h15.6c0,8.6,7,15.6,15.6,15.6s15.6-7,15.6-15.6h15.6
				C437.5,361,423.5,375,406.3,375z"/>
		</g>
		<g>
			<path class="st1" d="M437.5,312.5c-34.5,0-62.5-28-62.5-62.5h31.3c0,17.3,14,31.3,31.3,31.3c17.3,0,31.3-14,31.3-31.3H500
				C500,284.5,472,312.5,437.5,312.5z"/>
			<path class="st1" d="M312.5,375c-34.5,0-62.5-28-62.5-62.5h31.3c0,17.3,14,31.3,31.3,31.3c17.3,0,31.3-14,31.3-31.3H375
				C375,347,347,375,312.5,375z"/>
		</g>
		<g>
			<path class="st1" d="M31.3,468.8c17.3,0,31.3-14,31.3-31.3H46.9c0,8.6-7,15.6-15.6,15.6s-15.6-7-15.6-15.6H0
				C0,454.8,14,468.8,31.3,468.8z"/>
			<path class="st1" d="M93.8,500c17.3,0,31.3-14,31.3-31.3h-15.6c0,8.6-7,15.6-15.6,15.6s-15.6-7-15.6-15.6H62.5
				C62.5,486,76.5,500,93.8,500z"/>
		</g>
		<g>
			<path class="st1" d="M125,375c69,0,125-56,125-125h-62.5c0,34.5-28,62.5-62.5,62.5s-62.5-28-62.5-62.5H0C0,319,56,375,125,375z"
				/>
			<path class="st1" d="M375,500c69,0,125-56,125-125h-62.5c0,34.5-28,62.5-62.5,62.5s-62.5-28-62.5-62.5H250
				C250,444,306,500,375,500z"/>
		</g>
		<g>
			<path class="st1" d="M531.3,93.8c17.3,0,31.3-14,31.3-31.3h-15.6c0,8.6-7,15.6-15.6,15.6s-15.6-7-15.6-15.6H500
				C500,79.8,514,93.8,531.3,93.8z"/>
			<path class="st1" d="M593.8,125c17.3,0,31.3-14,31.3-31.3h-15.6c0,8.6-7,15.6-15.6,15.6s-15.6-7-15.6-15.6h-15.6
				C562.5,111,576.5,125,593.8,125z"/>
		</g>
		<g>
			<path class="st1" d="M562.5,62.5C597,62.5,625,34.5,625,0l-31.3,0c0,17.3-14,31.3-31.3,31.3s-31.3-14-31.3-31.3L500,0
				C500,34.5,528,62.5,562.5,62.5z"/>
			<path class="st1" d="M687.5,125C722,125,750,97,750,62.5h-31.3c0,17.3-14,31.3-31.3,31.3s-31.3-14-31.3-31.3H625
				C625,97,653,125,687.5,125z"/>
		</g>
		<g>
			<path class="st1" d="M781.3,218.8c17.3,0,31.3-14,31.3-31.3h-15.6c0,8.6-7,15.6-15.6,15.6s-15.6-7-15.6-15.6H750
				C750,204.8,764,218.8,781.3,218.8z"/>
			<path class="st1" d="M843.8,250c17.3,0,31.3-14,31.3-31.3h-15.6c0,8.6-7,15.6-15.6,15.6s-15.6-7-15.6-15.6h-15.6
				C812.5,236,826.5,250,843.8,250z"/>
		</g>
		<g>
			<path class="st1" d="M875,125c-69,0-125-56-125-125l62.5,0c0,34.5,28,62.5,62.5,62.5c34.5,0,62.5-28,62.5-62.5l62.5,0
				C1000,69,944,125,875,125z"/>
			<path class="st1" d="M625,250c-69,0-125-56-125-125h62.5c0,34.5,28,62.5,62.5,62.5c34.5,0,62.5-28,62.5-62.5H750
				C750,194,694,250,625,250z"/>
		</g>
	</g>
</g>
</svg>
