<?xml version="1.0" encoding="utf-8"?>
<!-- Generator: Adobe Illustrator 22.0.0, SVG Export Plug-In . SVG Version: 6.00 Build 0)  -->
<svg version="1.1" id="Layer_1" xmlns="http://www.w3.org/2000/svg" xmlns:xlink="http://www.w3.org/1999/xlink" x="0px" y="0px"
	 viewBox="0 0 1000 500" style="enable-background:new 0 0 1000 500;" xml:space="preserve">
<style type="text/css">
	.st0{fill:url(#SVGID_1_);}
	.st1{fill:url(#SVGID_2_);}
	.st2{fill:url(#SVGID_3_);}
	.st3{fill:url(#SVGID_4_);}
	.st4{fill:url(#SVGID_5_);}
	.st5{fill:url(#SVGID_6_);}
	.st6{fill:url(#SVGID_7_);}
	.st7{fill:url(#SVGID_8_);}
	.st8{fill:url(#SVGID_9_);}
	.st9{fill:url(#SVGID_10_);}
	.st10{fill:url(#SVGID_11_);}
	.st11{fill:url(#SVGID_12_);}
	.st12{fill:url(#SVGID_13_);}
	.st13{fill:url(#SVGID_14_);}
	.st14{fill:url(#SVGID_15_);}
	.st15{fill:url(#SVGID_16_);}
	.st16{fill:url(#SVGID_17_);}
	.st17{fill:url(#SVGID_18_);}
	.st18{fill:url(#SVGID_19_);}
	.st19{fill:url(#SVGID_20_);}
</style>
<g>
	<g>
		
			<linearGradient id="SVGID_1_" gradientUnits="userSpaceOnUse" x1="156.2" y1="252" x2="156.2" y2="220.75" gradientTransform="matrix(1 0 0 -1 0 502)">
			<stop  offset="0" style="stop-color:#DCB9FF"/>
			<stop  offset="1" style="stop-color:#734BBE"/>
		</linearGradient>
		<path class="st0" d="M125,250h15.6c0,8.7,7,15.7,15.6,15.7s15.6-7,15.6-15.6h15.6c0,17.3-14,31.3-31.3,31.3S125,267.3,125,250z"/>
		
			<linearGradient id="SVGID_2_" gradientUnits="userSpaceOnUse" x1="62.5" y1="252" x2="62.5" y2="189.5" gradientTransform="matrix(1 0 0 -1 0 502)">
			<stop  offset="0" style="stop-color:#DCB9FF"/>
			<stop  offset="1" style="stop-color:#734BBE"/>
		</linearGradient>
		<path class="st1" d="M0,250h31.1c0,17.3,14,31.3,31.3,31.3s31.3-14,31.3-31.3H125c0,34.5-28,62.5-62.5,62.5S0,284.5,0,250z"/>
	</g>
	<g>
		
			<linearGradient id="SVGID_3_" gradientUnits="userSpaceOnUse" x1="562.5" y1="314.5" x2="562.5" y2="252" gradientTransform="matrix(1 0 0 -1 0 502)">
			<stop  offset="0" style="stop-color:#DCB9FF"/>
			<stop  offset="1" style="stop-color:#734BBE"/>
		</linearGradient>
		<path class="st2" d="M625,187.5h-31.1c0,17.3-14,31.3-31.3,31.3s-31.3-14-31.3-31.3H500c0,34.5,28,62.5,62.5,62.5
			S625,222,625,187.5z"/>
		
			<linearGradient id="SVGID_4_" gradientUnits="userSpaceOnUse" x1="656.25" y1="314.5" x2="656.25" y2="283.25" gradientTransform="matrix(1 0 0 -1 0 502)">
			<stop  offset="0" style="stop-color:#DCB9FF"/>
			<stop  offset="1" style="stop-color:#734BBE"/>
		</linearGradient>
		<path class="st3" d="M625,187.5h15.5c0,8.6,7,15.6,15.7,15.6c8.6,0,15.6-7,15.6-15.6h15.7c0,17.3-14,31.3-31.3,31.3
			S625,204.8,625,187.5z"/>
	</g>
	<g>
		
			<linearGradient id="SVGID_5_" gradientUnits="userSpaceOnUse" x1="312.5" y1="127" x2="312.5" y2="64.5" gradientTransform="matrix(1 0 0 -1 0 502)">
			<stop  offset="0" style="stop-color:#DCB9FF"/>
			<stop  offset="1" style="stop-color:#734BBE"/>
		</linearGradient>
		<path class="st4" d="M312.5,437.5c34.5,0,62.5-28,62.5-62.5h-31.2c0,17.3-14,31.3-31.3,31.3s-31.3-14-31.3-31.3H250
			C250,409.5,278,437.5,312.5,437.5z"/>
		
			<linearGradient id="SVGID_6_" gradientUnits="userSpaceOnUse" x1="125" y1="127" x2="125" y2="2" gradientTransform="matrix(1 0 0 -1 0 502)">
			<stop  offset="0" style="stop-color:#DCB9FF"/>
			<stop  offset="1" style="stop-color:#734BBE"/>
		</linearGradient>
		<path class="st5" d="M250,375h-62.5c0,34.5-28,62.5-62.5,62.5s-62.5-28-62.5-62.5H0c0,69,56,125,125,125S250,444,250,375z"/>
	</g>
	<g>
		
			<linearGradient id="SVGID_7_" gradientUnits="userSpaceOnUse" x1="906.25" y1="439.5" x2="906.25" y2="408.25" gradientTransform="matrix(1 0 0 -1 0 502)">
			<stop  offset="0" style="stop-color:#DCB9FF"/>
			<stop  offset="1" style="stop-color:#734BBE"/>
		</linearGradient>
		<path class="st6" d="M875,62.5h15.6c0,8.7,7,15.7,15.6,15.7c8.7,0,15.7-7,15.7-15.6h15.6c0,17.3-14,31.3-31.3,31.3
			S875,79.8,875,62.5z"/>
		
			<linearGradient id="SVGID_8_" gradientUnits="userSpaceOnUse" x1="812.5" y1="439.5" x2="812.5" y2="377" gradientTransform="matrix(1 0 0 -1 0 502)">
			<stop  offset="0" style="stop-color:#DCB9FF"/>
			<stop  offset="1" style="stop-color:#734BBE"/>
		</linearGradient>
		<path class="st7" d="M875,62.5h-31.1c0,17.3-14,31.3-31.3,31.3s-31.3-14-31.3-31.3H750c0,34.5,28,62.5,62.5,62.5S875,97,875,62.5z
			"/>
	</g>
	<g>
		
			<linearGradient id="SVGID_9_" gradientUnits="userSpaceOnUse" x1="250" y1="502" x2="250" y2="252" gradientTransform="matrix(1 0 0 -1 0 502)">
			<stop  offset="0" style="stop-color:#DCB9FF"/>
			<stop  offset="1" style="stop-color:#734BBE"/>
		</linearGradient>
		<path class="st8" d="M250,250c138.1,0,250-111.9,250-250H375c0,69-56,125-125,125S125,69,125,0H0C0,138.1,111.9,250,250,250z"/>
		
			<linearGradient id="SVGID_10_" gradientUnits="userSpaceOnUse" x1="625" y1="502" x2="625" y2="377" gradientTransform="matrix(1 0 0 -1 0 502)">
			<stop  offset="0" style="stop-color:#DCB9FF"/>
			<stop  offset="1" style="stop-color:#734BBE"/>
		</linearGradient>
		<path class="st9" d="M500,0h62.5c0,34.5,28,62.5,62.5,62.5s62.5-28,62.5-62.5H750c0,69-56,125-125,125S500,69,500,0z"/>
	</g>
</g>
<g>
	<g>
		
			<linearGradient id="SVGID_11_" gradientUnits="userSpaceOnUse" x1="93.75" y1="189.5" x2="93.75" y2="158.25" gradientTransform="matrix(1 0 0 -1 0 502)">
			<stop  offset="0" style="stop-color:#DCB9FF"/>
			<stop  offset="1" style="stop-color:#B987F5"/>
		</linearGradient>
		<path class="st10" d="M93.8,343.8c-17.3,0-31.3-14-31.3-31.3h15.6c0,8.6,7,15.6,15.6,15.6s15.6-7,15.6-15.6H125
			C125,329.8,111,343.8,93.8,343.8z"/>
		
			<linearGradient id="SVGID_12_" gradientUnits="userSpaceOnUse" x1="187.5" y1="189.5" x2="187.5" y2="127" gradientTransform="matrix(1 0 0 -1 0 502)">
			<stop  offset="0" style="stop-color:#DCB9FF"/>
			<stop  offset="1" style="stop-color:#B987F5"/>
		</linearGradient>
		<path class="st11" d="M125,312.5h31.1c0,17.3,14,31.3,31.3,31.3s31.3-14,31.3-31.3H250c0,34.5-28,62.5-62.5,62.5
			S125,347,125,312.5z"/>
	</g>
	<g>
		
			<linearGradient id="SVGID_13_" gradientUnits="userSpaceOnUse" x1="437.5" y1="64.5" x2="437.5" y2="2" gradientTransform="matrix(1 0 0 -1 0 502)">
			<stop  offset="0" style="stop-color:#DCB9FF"/>
			<stop  offset="1" style="stop-color:#B987F5"/>
		</linearGradient>
		<path class="st12" d="M437.5,500c34.5,0,62.5-28,62.5-62.5h-31.3c0,17.3-14,31.3-31.3,31.3s-31.3-14-31.3-31.3H375
			C375,472,403,500,437.5,500z"/>
		
			<linearGradient id="SVGID_14_" gradientUnits="userSpaceOnUse" x1="343.75" y1="64.5" x2="343.75" y2="33.25" gradientTransform="matrix(1 0 0 -1 0 502)">
			<stop  offset="0" style="stop-color:#DCB9FF"/>
			<stop  offset="1" style="stop-color:#B987F5"/>
		</linearGradient>
		<path class="st13" d="M343.8,468.8c-17.3,0-31.3-14-31.3-31.3h15.6c0,8.6,7,15.6,15.6,15.6s15.6-7,15.6-15.6H375
			C375,454.8,361,468.8,343.8,468.8z"/>
	</g>
	<g>
		
			<linearGradient id="SVGID_15_" gradientUnits="userSpaceOnUse" x1="750" y1="252" x2="750" y2="2" gradientTransform="matrix(1 0 0 -1 0 502)">
			<stop  offset="0" style="stop-color:#DCB9FF"/>
			<stop  offset="1" style="stop-color:#B987F5"/>
		</linearGradient>
		<path class="st14" d="M750,500c138.1,0,250-111.9,250-250H875c0,69-56,125-125,125s-125-56-125-125H500
			C500,388.1,611.9,500,750,500z"/>
		
			<linearGradient id="SVGID_16_" gradientUnits="userSpaceOnUse" x1="375" y1="252" x2="375" y2="127" gradientTransform="matrix(1 0 0 -1 0 502)">
			<stop  offset="0" style="stop-color:#DCB9FF"/>
			<stop  offset="1" style="stop-color:#B987F5"/>
		</linearGradient>
		<path class="st15" d="M500,250h-62.5c0,34.5-28,62.5-62.5,62.5s-62.5-28-62.5-62.5H250c0,69,56,125,125,125S500,319,500,250z"/>
	</g>
	<g>
		
			<linearGradient id="SVGID_17_" gradientUnits="userSpaceOnUse" x1="843.75" y1="502" x2="843.75" y2="470.75" gradientTransform="matrix(1 0 0 -1 0 502)">
			<stop  offset="0" style="stop-color:#DCB9FF"/>
			<stop  offset="1" style="stop-color:#B987F5"/>
		</linearGradient>
		<path class="st16" d="M843.8,31.3c-17.3,0-31.3-14-31.3-31.3h15.7c0,8.6,7,15.6,15.6,15.6c8.7,0,15.7-7,15.7-15.7L875,0
			C875,17.3,861,31.3,843.8,31.3z"/>
		
			<linearGradient id="SVGID_18_" gradientUnits="userSpaceOnUse" x1="937.5" y1="502" x2="937.5" y2="439.5" gradientTransform="matrix(1 0 0 -1 0 502)">
			<stop  offset="0" style="stop-color:#DCB9FF"/>
			<stop  offset="1" style="stop-color:#B987F5"/>
		</linearGradient>
		<path class="st17" d="M1000,0h-31.1c0,17.3-14,31.3-31.3,31.3s-31.3-14-31.3-31.3H875c0,34.5,28,62.5,62.5,62.5S1000,34.5,1000,0z
			"/>
	</g>
	<g>
		
			<linearGradient id="SVGID_19_" gradientUnits="userSpaceOnUse" x1="687.5" y1="377" x2="687.5" y2="314.5" gradientTransform="matrix(1 0 0 -1 0 502)">
			<stop  offset="0" style="stop-color:#DCB9FF"/>
			<stop  offset="1" style="stop-color:#B987F5"/>
		</linearGradient>
		<path class="st18" d="M750,125h-31.1c0,17.3-14,31.3-31.3,31.3s-31.3-14-31.3-31.3H625c0,34.5,28,62.5,62.5,62.5
			S750,159.5,750,125z"/>
		
			<linearGradient id="SVGID_20_" gradientUnits="userSpaceOnUse" x1="875" y1="377" x2="875" y2="252" gradientTransform="matrix(1 0 0 -1 0 502)">
			<stop  offset="0" style="stop-color:#DCB9FF"/>
			<stop  offset="1" style="stop-color:#B987F5"/>
		</linearGradient>
		<path class="st19" d="M750,125h62.5c0,34.5,28,62.5,62.5,62.5s62.5-28,62.5-62.5h62.5c0,69-56,125-125,125S750,194,750,125z"/>
	</g>
</g>
</svg>
