<?xml version="1.0" encoding="utf-8"?>
<!-- Generator: Adobe Illustrator 22.0.0, SVG Export Plug-In . SVG Version: 6.00 Build 0)  -->
<svg version="1.1" id="Layer_1" xmlns="http://www.w3.org/2000/svg" xmlns:xlink="http://www.w3.org/1999/xlink" x="0px" y="0px"
	 viewBox="0 0 1000 438" style="enable-background:new 0 0 1000 438;" xml:space="preserve">
<style type="text/css">
	.st0{fill:#FA5D59;}
	.st1{fill:#FFFFFF;}
	.st2{fill:#936DFC;}
</style>
<path class="st0" d="M125,188c69,0,125-56,125-125H0C0,132,56,188,125,188z"/>
<path class="st0" d="M250,437c138.1,0,250-111.9,250-250H0C0,325.1,111.9,437,250,437z"/>
<path class="st1" d="M250,312c69,0,125-56,125-125H125C125,256,181,312,250,312z"/>
<path class="st1" d="M125,125.5c34.5,0,62.5-28,62.5-62.5h-125C62.5,97.5,90.5,125.5,125,125.5z"/>
<path class="st2" d="M750,250c138.1,0,250-111.9,250-250H500C500,138.1,611.9,250,750,250z"/>
<path class="st2" d="M375,188c69,0,125-56,125-125H250C250,132,306,188,375,188z"/>
<path class="st0" d="M625,375c69,0,125-56,125-125H500C500,319,556,375,625,375z"/>
<path class="st2" d="M875,375c69,0,125-56,125-125H750C750,319,806,375,875,375z"/>
<path class="st2" d="M62.5,62.5C97,62.5,125,34.5,125,0H0C0,34.5,28,62.5,62.5,62.5z"/>
<path class="st2" d="M187.5,62.5C222,62.5,250,34.5,250,0H125C125,34.5,153,62.5,187.5,62.5z"/>
<path class="st0" d="M312.5,62.5C347,62.5,375,34.5,375,0H250C250,34.5,278,62.5,312.5,62.5z"/>
<path class="st0" d="M437.5,62.5C472,62.5,500,34.5,500,0H375C375,34.5,403,62.5,437.5,62.5z"/>
<path class="st2" d="M562.5,438c34.5,0,62.5-28,62.5-62.5H500C500,410,528,438,562.5,438z"/>
<path class="st2" d="M687.5,438c34.5,0,62.5-28,62.5-62.5H625C625,410,653,438,687.5,438z"/>
<path class="st0" d="M812.5,438c34.5,0,62.5-28,62.5-62.5H750C750,410,778,438,812.5,438z"/>
<path class="st0" d="M937.5,438c34.5,0,62.5-28,62.5-62.5H875C875,410,903,438,937.5,438z"/>
<path class="st1" d="M62.5,31.3c17.3,0,31.3-14,31.3-31.3H31.3C31.3,17.3,45.2,31.3,62.5,31.3z"/>
<path class="st1" d="M187.5,31.3c17.3,0,31.3-14,31.3-31.3h-62.5C156.3,17.3,170.2,31.3,187.5,31.3z"/>
<path class="st1" d="M312.5,31.3c17.3,0,31.3-14,31.3-31.3h-62.5C281.3,17.3,295.2,31.3,312.5,31.3z"/>
<path class="st1" d="M437.5,31.3c17.3,0,31.3-14,31.3-31.3h-62.5C406.3,17.3,420.2,31.3,437.5,31.3z"/>
<path class="st1" d="M562.5,406.8c17.3,0,31.3-14,31.3-31.3h-62.5C531.3,392.8,545.2,406.8,562.5,406.8z"/>
<path class="st1" d="M687.5,406.8c17.3,0,31.3-14,31.3-31.3h-62.5C656.3,392.8,670.2,406.8,687.5,406.8z"/>
<path class="st1" d="M812.5,406.8c17.3,0,31.3-14,31.3-31.3h-62.5C781.3,392.8,795.2,406.8,812.5,406.8z"/>
<path class="st1" d="M937.5,406.8c17.3,0,31.3-14,31.3-31.3h-62.5C906.3,392.8,920.2,406.8,937.5,406.8z"/>
<path class="st1" d="M375,125.5c34.5,0,62.5-28,62.5-62.5h-125C312.5,97.5,340.5,125.5,375,125.5z"/>
<path class="st1" d="M625,312.5c34.5,0,62.5-28,62.5-62.5h-125C562.5,284.5,590.5,312.5,625,312.5z"/>
<path class="st1" d="M875,312.5c34.5,0,62.5-28,62.5-62.5h-125C812.5,284.5,840.5,312.5,875,312.5z"/>
<path class="st1" d="M750,125c69,0,125-56,125-125H625C625,69,681,125,750,125z"/>
</svg>
