<?xml version="1.0" encoding="utf-8"?>
<!-- Generator: Adobe Illustrator 22.0.0, SVG Export Plug-In . SVG Version: 6.00 Build 0)  -->
<svg version="1.1" id="Layer_1" xmlns="http://www.w3.org/2000/svg" xmlns:xlink="http://www.w3.org/1999/xlink" x="0px" y="0px"
	 viewBox="0 0 1000 500" style="enable-background:new 0 0 1000 500;" xml:space="preserve">
<style type="text/css">
	.st0{fill:#B987F5;}
	.st1{fill:#734BBE;}
</style>
<g>
	<g>
		<path class="st0" d="M125,250h15.6c0,8.7,7,15.7,15.6,15.7s15.6-7,15.6-15.6h15.6c0,17.3-14,31.3-31.3,31.3S125,267.3,125,250z"/>
		<path class="st0" d="M0,250h31.1c0,17.3,14,31.3,31.3,31.3s31.3-14,31.3-31.3H125c0,34.5-28,62.5-62.5,62.5S0,284.5,0,250z"/>
	</g>
	<g>
		<path class="st0" d="M625,187.5h-31.1c0,17.3-14,31.3-31.3,31.3s-31.3-14-31.3-31.3H500c0,34.5,28,62.5,62.5,62.5
			S625,222,625,187.5z"/>
		<path class="st0" d="M625,187.5h15.5c0,8.6,7,15.6,15.7,15.6c8.6,0,15.6-7,15.6-15.6h15.7c0,17.3-14,31.3-31.3,31.3
			S625,204.8,625,187.5z"/>
	</g>
	<g>
		<path class="st0" d="M312.5,437.5c34.5,0,62.5-28,62.5-62.5h-31.2c0,17.3-14,31.3-31.3,31.3s-31.3-14-31.3-31.3H250
			C250,409.5,278,437.5,312.5,437.5z"/>
		<path class="st0" d="M250,375h-62.5c0,34.5-28,62.5-62.5,62.5s-62.5-28-62.5-62.5H0c0,69,56,125,125,125S250,444,250,375z"/>
	</g>
	<g>
		<path class="st0" d="M875,62.5h15.6c0,8.7,7,15.7,15.6,15.7c8.7,0,15.7-7,15.7-15.6h15.6c0,17.3-14,31.3-31.3,31.3
			S875,79.8,875,62.5z"/>
		<path class="st0" d="M875,62.5h-31.1c0,17.3-14,31.3-31.3,31.3s-31.3-14-31.3-31.3H750c0,34.5,28,62.5,62.5,62.5S875,97,875,62.5z
			"/>
	</g>
	<g>
		<path class="st0" d="M250,250c138.1,0,250-111.9,250-250H375c0,69-56,125-125,125S125,69,125,0H0C0,138.1,111.9,250,250,250z"/>
		<path class="st0" d="M500,0h62.5c0,34.5,28,62.5,62.5,62.5s62.5-28,62.5-62.5H750c0,69-56,125-125,125S500,69,500,0z"/>
	</g>
</g>
<g>
	<g>
		<path class="st1" d="M93.8,343.8c-17.3,0-31.3-14-31.3-31.3h15.6c0,8.6,7,15.6,15.6,15.6s15.6-7,15.6-15.6H125
			C125,329.8,111,343.8,93.8,343.8z"/>
		<path class="st1" d="M125,312.5h31.1c0,17.3,14,31.3,31.3,31.3s31.3-14,31.3-31.3H250c0,34.5-28,62.5-62.5,62.5S125,347,125,312.5
			z"/>
	</g>
	<g>
		<path class="st1" d="M437.5,500c34.5,0,62.5-28,62.5-62.5h-31.3c0,17.3-14,31.3-31.3,31.3s-31.3-14-31.3-31.3H375
			C375,472,403,500,437.5,500z"/>
		<path class="st1" d="M343.8,468.8c-17.3,0-31.3-14-31.3-31.3h15.6c0,8.6,7,15.6,15.6,15.6s15.6-7,15.6-15.6H375
			C375,454.8,361,468.8,343.8,468.8z"/>
	</g>
	<g>
		<path class="st1" d="M750,500c138.1,0,250-111.9,250-250H875c0,69-56,125-125,125s-125-56-125-125H500
			C500,388.1,611.9,500,750,500z"/>
		<path class="st1" d="M500,250h-62.5c0,34.5-28,62.5-62.5,62.5s-62.5-28-62.5-62.5H250c0,69,56,125,125,125S500,319,500,250z"/>
	</g>
	<g>
		<path class="st1" d="M843.8,31.3c-17.3,0-31.3-14-31.3-31.3h15.7c0,8.6,7,15.6,15.6,15.6c8.7,0,15.7-7,15.7-15.7L875,0
			C875,17.3,861,31.3,843.8,31.3z"/>
		<path class="st1" d="M1000-0.1h-31.1c0,17.3-14,31.3-31.3,31.3s-31.3-14-31.3-31.3H875c0,34.5,28,62.5,62.5,62.5
			S1000,34.4,1000-0.1z"/>
	</g>
	<g>
		<path class="st1" d="M750,125h-31.1c0,17.3-14,31.3-31.3,31.3s-31.3-14-31.3-31.3H625c0,34.5,28,62.5,62.5,62.5S750,159.5,750,125
			z"/>
		<path class="st1" d="M750,125h62.5c0,34.5,28,62.5,62.5,62.5s62.5-28,62.5-62.5h62.5c0,69-56,125-125,125S750,194,750,125z"/>
	</g>
</g>
</svg>
