<?xml version="1.0" encoding="utf-8"?>
<!-- Generator: Adobe Illustrator 22.0.0, SVG Export Plug-In . SVG Version: 6.00 Build 0)  -->
<svg version="1.1" id="Layer_1" xmlns="http://www.w3.org/2000/svg" xmlns:xlink="http://www.w3.org/1999/xlink" x="0px" y="0px"
	 viewBox="0 0 1000 500" style="enable-background:new 0 0 1000 500;" xml:space="preserve">
<style type="text/css">
	.st0{fill:#0F625C;}
	.st1{opacity:0;fill:#0F625C;}
	.st2{fill:none;stroke:#000000;stroke-miterlimit:10;}
</style>
<path class="st0" d="M239.5-431c138.1,0,250-111.9,250-250h-125c0,69-56,125-125,125s-125-56-125-125h-125
	C-10.5-542.9,101.4-431,239.5-431z"/>
<g>
	<g>
		<path class="st0" d="M-736.2,319.6c1.3-10.3,1.9-20.7,1.9-31.3h-125c0,5.3-0.3,10.5-1,15.7L-736.2,319.6z"/>
		<path class="st0" d="M-1022.9,407.2l-38.6,118.9c9.9,3.2,20,5.8,30.4,7.8l23.4-122.8C-1012.9,410.1-1018,408.8-1022.9,407.2z"/>
		<path class="st0" d="M-931,401.4l53.2,113.1c9.5-4.5,18.7-9.5,27.5-15.1l-67-105.6C-921.7,396.6-926.3,399.2-931,401.4z"/>
		<path class="st1" d="M-917.3,393.8l67,105.6c8.9-5.6,17.3-11.8,25.4-18.5l-79.7-96.3C-908.6,387.9-912.9,391-917.3,393.8z"/>
		<path class="st1" d="M-976.4,413l7.8,124.7c10.6-0.7,21-2,31.2-3.9l-23.4-122.8C-965.9,412-971.1,412.7-976.4,413z"/>
		<path class="st0" d="M-904.6,384.6l79.7,96.3c8.1-6.7,15.7-13.9,22.9-21.5l-91.1-85.6C-896.7,377.6-900.6,381.2-904.6,384.6z"/>
		<path class="st0" d="M-960.8,411.1l23.4,122.8c10.4-2,20.5-4.6,30.4-7.8l-38.6-118.9C-950.6,408.8-955.7,410.1-960.8,411.1z"/>
		<path class="st1" d="M-945.6,407.2l38.6,118.9c10-3.3,19.8-7.1,29.2-11.6L-931,401.4C-935.8,403.6-940.6,405.6-945.6,407.2z"/>
		<path class="st0" d="M-868,334.3l116.3,46c3.8-9.7,7.1-19.6,9.7-29.9l-121.1-31.1C-864.5,324.5-866.1,329.5-868,334.3z"/>
		<path class="st1" d="M-860.2,304c-0.7,5.2-1.6,10.4-2.9,15.4l121.1,31.1c2.6-10.1,4.5-20.4,5.8-30.9L-860.2,304z"/>
		<path class="st0" d="M-883.2,361.7l101.2,73.5c6.1-8.4,11.8-17.3,16.9-26.5l-109.6-60.2C-877.3,353.1-880.1,357.5-883.2,361.7z"/>
		<path class="st1" d="M-874.7,348.5l109.6,60.2c5-9.1,9.5-18.6,13.4-28.4l-116.3-46C-870,339.2-872.2,343.9-874.7,348.5z"/>
		<path class="st1" d="M-893.2,373.8l91.1,85.6c7.2-7.6,13.9-15.7,20-24.2l-101.2-73.5C-886.2,366-889.6,370-893.2,373.8z"/>
		<path class="st1" d="M-1007.7,411.1l-23.4,122.8c10.2,1.9,20.6,3.2,31.2,3.9l7.8-124.7C-997.4,412.7-1002.6,412-1007.7,411.1z"/>
		<path class="st1" d="M-1100.5,334.3l-116.3,46c3.9,9.8,8.4,19.3,13.4,28.4l109.6-60.2C-1096.3,343.9-1098.6,339.2-1100.5,334.3z"
			/>
		<path class="st1" d="M-1085.4,361.7l-101.2,73.5c6.2,8.5,12.9,16.6,20,24.2l91.1-85.6C-1079,370-1082.3,366-1085.4,361.7z"/>
		<path class="st0" d="M-1093.8,348.5l-109.6,60.2c5.1,9.2,10.7,18,16.9,26.5l101.2-73.5C-1088.5,357.5-1091.3,353.1-1093.8,348.5z"
			/>
		<path class="st1" d="M-1108.3,304l-124,15.7c1.3,10.5,3.3,20.8,5.8,30.9l121.1-31.1C-1106.7,314.3-1107.6,309.2-1108.3,304z"/>
		<path class="st0" d="M-1105.4,319.4l-121.1,31.1c2.6,10.2,5.9,20.2,9.7,29.9l116.3-46C-1102.4,329.5-1104.1,324.5-1105.4,319.4z"
			/>
		<path class="st0" d="M-1109.3,288.3h-125c0,10.6,0.7,21.1,1.9,31.3l124-15.7C-1108.9,298.8-1109.3,293.6-1109.3,288.3z"/>
		<path class="st1" d="M-1037.5,401.4l-53.2,113.1c9.4,4.4,19.2,8.3,29.2,11.6l38.6-118.9C-1027.9,405.6-1032.8,403.6-1037.5,401.4z
			"/>
		<path class="st0" d="M-984.3,413.3c-2.6,0-5.3-0.1-7.8-0.3l-7.8,124.7c5.2,0.3,10.4,0.5,15.7,0.5c5.3,0,10.5-0.2,15.7-0.5
			l-7.8-124.7C-979,413.2-981.6,413.3-984.3,413.3z"/>
		<path class="st0" d="M-1051.2,393.8l-67,105.6c8.8,5.6,18,10.7,27.5,15.1l53.2-113.1C-1042.2,399.2-1046.8,396.6-1051.2,393.8z"/>
		<path class="st1" d="M-1063.9,384.6l-79.7,96.3c8.1,6.7,16.5,12.8,25.4,18.5l67-105.6C-1055.7,391-1059.9,387.9-1063.9,384.6z"/>
		<path class="st0" d="M-1075.4,373.8l-91.1,85.6c7.2,7.6,14.8,14.8,22.9,21.5l79.7-96.3C-1068,381.2-1071.8,377.6-1075.4,373.8z"/>
	</g>
	<g>
		<path class="st0" d="M-485.2,304c0.6-5.1,1-10.4,1-15.7h-62.5c0,2.7-0.2,5.3-0.5,7.8L-485.2,304z"/>
		<path class="st0" d="M-628.6,347.7l-19.3,59.5c4.9,1.6,10,2.9,15.2,3.9l11.7-61.4C-623.6,349.2-626.1,348.5-628.6,347.7z"/>
		<path class="st0" d="M-582.7,344.8l26.6,56.6c4.8-2.2,9.3-4.8,13.8-7.6l-33.5-52.8C-578,342.5-580.3,343.7-582.7,344.8z"/>
		<path class="st1" d="M-575.8,341.1l33.5,52.8c4.4-2.8,8.7-5.9,12.7-9.2l-39.8-48.2C-571.4,338.1-573.6,339.6-575.8,341.1z"/>
		<path class="st1" d="M-605.3,350.7l3.9,62.4c5.3-0.3,10.5-1,15.6-1.9l-11.7-61.4C-600.1,350.2-602.7,350.5-605.3,350.7z"/>
		<path class="st0" d="M-569.4,336.4l39.8,48.2c4-3.3,7.9-6.9,11.4-10.8l-45.6-42.8C-565.5,333-567.4,334.8-569.4,336.4z"/>
		<path class="st0" d="M-597.6,349.7l11.7,61.4c5.2-1,10.3-2.3,15.2-3.9l-19.3-59.5C-592.4,348.5-595,349.2-597.6,349.7z"/>
		<path class="st1" d="M-590,347.7l19.3,59.5c5-1.6,9.9-3.6,14.6-5.8l-26.6-56.6C-585,346-587.4,346.9-590,347.7z"/>
		<path class="st0" d="M-551.1,311.3l58.1,23c1.9-4.8,3.5-9.8,4.8-14.9l-60.6-15.5C-549.4,306.4-550.2,308.9-551.1,311.3z"/>
		<path class="st1" d="M-547.3,296.1c-0.3,2.6-0.8,5.2-1.5,7.7l60.6,15.5c1.3-5,2.3-10.2,2.9-15.4L-547.3,296.1z"/>
		<path class="st0" d="M-558.7,325l50.6,36.7c3.1-4.2,5.9-8.6,8.4-13.2l-54.8-30.1C-555.8,320.7-557.2,322.9-558.7,325z"/>
		<path class="st1" d="M-554.5,318.4l54.8,30.1c2.5-4.6,4.8-9.3,6.7-14.2l-58.1-23C-552.1,313.7-553.2,316.1-554.5,318.4z"/>
		<path class="st1" d="M-563.7,331.1l45.6,42.8c3.6-3.8,6.9-7.9,10-12.1l-50.6-36.7C-560.3,327.1-561.9,329.2-563.7,331.1z"/>
		<path class="st1" d="M-621,349.7l-11.7,61.4c5.1,1,10.3,1.6,15.6,1.9l3.9-62.4C-615.8,350.5-618.4,350.2-621,349.7z"/>
		<path class="st1" d="M-667.4,311.3l-58.1,23c1.9,4.9,4.2,9.6,6.7,14.2l54.8-30.1C-665.3,316.1-666.4,313.7-667.4,311.3z"/>
		<path class="st1" d="M-659.8,325l-50.6,36.7c3.1,4.2,6.4,8.3,10,12.1l45.6-42.8C-656.6,329.2-658.3,327.1-659.8,325z"/>
		<path class="st0" d="M-664,318.4l-54.8,30.1c2.5,4.6,5.4,9,8.4,13.2l50.6-36.7C-661.4,322.9-662.8,320.7-664,318.4z"/>
		<path class="st1" d="M-671.3,296.1l-62,7.8c0.7,5.3,1.6,10.4,2.9,15.4l60.6-15.5C-670.5,301.3-670.9,298.7-671.3,296.1z"/>
		<path class="st0" d="M-669.8,303.8l-60.6,15.5c1.3,5.1,2.9,10.1,4.8,14.9l58.1-23C-668.3,308.9-669.2,306.4-669.8,303.8z"/>
		<path class="st0" d="M-671.8,288.3h-62.5c0,5.3,0.3,10.5,1,15.7l62-7.8C-671.6,293.6-671.8,290.9-671.8,288.3z"/>
		<path class="st1" d="M-635.9,344.8l-26.6,56.6c4.7,2.2,9.6,4.2,14.6,5.8l19.3-59.5C-631.1,346.9-633.5,346-635.9,344.8z"/>
		<path class="st0" d="M-609.3,350.8c-1.3,0-2.6,0-3.9-0.1l-3.9,62.4c2.6,0.2,5.2,0.3,7.8,0.3s5.3-0.1,7.8-0.3l-3.9-62.4
			C-606.6,350.7-607.9,350.8-609.3,350.8z"/>
		<path class="st0" d="M-642.8,341.1l-33.5,52.8c4.4,2.8,9,5.3,13.8,7.6l26.6-56.6C-638.3,343.7-640.6,342.5-642.8,341.1z"/>
		<path class="st1" d="M-649.1,336.4l-39.8,48.2c4,3.3,8.3,6.4,12.7,9.2l33.5-52.8C-645,339.6-647.1,338.1-649.1,336.4z"/>
		<path class="st0" d="M-654.8,331.1l-45.6,42.8c3.6,3.8,7.4,7.4,11.4,10.8l39.8-48.2C-651.1,334.8-653,333-654.8,331.1z"/>
	</g>
</g>
<path class="st0" d="M-822-59.1c138.1,0,250-111.9,250-250h-125c0,69-56,125-125,125s-125-56-125-125h-125
	C-1072-171-960.1-59.1-822-59.1z"/>
<line class="st2" x1="-522" y1="-309.1" x2="-1122" y2="-309.1"/>
<line class="st2" x1="-1122" y1="-309.1" x2="-522" y2="-309.1"/>
<line class="st2" x1="-1119.7" y1="-346.7" x2="-524.4" y2="-271.5"/>
<line class="st2" x1="-1119.7" y1="-271.5" x2="-524.4" y2="-346.7"/>
<line class="st2" x1="-1112.6" y1="-234.5" x2="-531.5" y2="-383.7"/>
<line class="st2" x1="-1101" y1="-198.7" x2="-543.1" y2="-419.6"/>
<line class="st2" x1="-1084.9" y1="-164.6" x2="-559.1" y2="-453.7"/>
<line class="st2" x1="-1064.7" y1="-132.8" x2="-579.3" y2="-485.5"/>
<line class="st2" x1="-1040.7" y1="-103.8" x2="-603.3" y2="-514.5"/>
<line class="st2" x1="-1013.3" y1="-78" x2="-630.8" y2="-540.3"/>
<line class="st2" x1="-982.8" y1="-55.8" x2="-661.3" y2="-562.4"/>
<line class="st2" x1="-949.8" y1="-37.7" x2="-694.3" y2="-580.6"/>
<line class="st2" x1="-914.7" y1="-23.8" x2="-729.3" y2="-594.5"/>
<line class="st2" x1="-878.2" y1="-14.5" x2="-765.8" y2="-603.8"/>
<line class="st2" x1="-840.9" y1="-9.7" x2="-803.2" y2="-608.5"/>
<line class="st2" x1="-803.2" y1="-9.7" x2="-840.9" y2="-608.5"/>
<line class="st2" x1="-765.8" y1="-14.5" x2="-878.2" y2="-603.8"/>
<line class="st2" x1="-729.3" y1="-23.8" x2="-914.7" y2="-594.5"/>
<line class="st2" x1="-694.3" y1="-37.7" x2="-949.8" y2="-580.6"/>
<line class="st2" x1="-661.3" y1="-55.8" x2="-982.8" y2="-562.4"/>
<line class="st2" x1="-630.8" y1="-78" x2="-1013.3" y2="-540.3"/>
<line class="st2" x1="-603.3" y1="-103.8" x2="-1040.7" y2="-514.5"/>
<line class="st2" x1="-579.3" y1="-132.8" x2="-1064.7" y2="-485.5"/>
<line class="st2" x1="-559.1" y1="-164.6" x2="-1084.9" y2="-453.7"/>
<line class="st2" x1="-543.1" y1="-198.7" x2="-1101" y2="-419.6"/>
<line class="st2" x1="-531.5" y1="-234.5" x2="-1112.6" y2="-383.7"/>
<g>
	<g>
		<path class="st1" d="M250,180c48.1,0,93.3-18.7,127.3-52.7C411.3,93.3,430,48.1,430,0h-12.5c0,92.5-75,167.5-167.5,167.5
			S82.5,92.5,82.5,0H70c0,48.1,18.7,93.3,52.7,127.3S201.9,180,250,180z"/>
		<path class="st1" d="M103.3,146.7c19.1,19.1,41.4,34.1,66,44.5c25.4,10.7,52.7,16.3,80.8,16.3c28.1,0,55.3-5.5,80.8-16.3
			c24.5-10.4,46.8-25.4,66-44.5c19.1-19.1,34.1-41.4,44.5-66C452,55.3,457.5,28.1,457.5,0H445c0,107.7-87.3,195-195,195
			S55,107.7,55,0H42.5c0,28.1,5.5,55.3,16.3,80.8C69.2,105.3,84.1,127.6,103.3,146.7z"/>
		<path class="st1" d="M250,152.5c40.7,0,79-15.9,107.8-44.7C386.6,79,402.5,40.7,402.5,0H390c0,77.3-62.7,140-140,140
			S110,77.3,110,0H97.5c0,40.7,15.9,79,44.7,107.8C171,136.6,209.3,152.5,250,152.5z"/>
		<path class="st1" d="M83.8,166.2c21.6,21.6,46.7,38.5,74.7,50.4c29,12.3,59.7,18.5,91.5,18.5c31.7,0,62.5-6.2,91.5-18.5
			c28-11.8,53.1-28.8,74.7-50.4c21.6-21.6,38.5-46.7,50.4-74.7C478.8,62.5,485,31.7,485,0h-12.5c0,122.9-99.6,222.5-222.5,222.5
			S27.5,122.9,27.5,0H15c0,31.7,6.2,62.5,18.5,91.5C45.3,119.4,62.2,144.6,83.8,166.2z"/>
		<path class="st0" d="M466.5,91.5c-11.8,28-28.8,53.1-50.4,74.7c-21.6,21.6-46.7,38.5-74.7,50.4c-29,12.3-59.7,18.5-91.5,18.5
			c-31.7,0-62.5-6.2-91.5-18.5c-28-11.8-53.1-28.8-74.7-50.4s-38.5-46.7-50.4-74.7C21.2,62.5,15,31.7,15,0H0
			c0,138.1,111.9,250,250,250S500,138.1,500,0h-15C485,31.7,478.8,62.5,466.5,91.5z"/>
		<path class="st0" d="M441.2,80.8c-10.4,24.5-25.4,46.8-44.5,66c-19.1,19.1-41.4,34.1-66,44.5c-25.4,10.7-52.7,16.3-80.8,16.3
			c-28.1,0-55.3-5.5-80.8-16.3c-24.5-10.4-46.8-25.4-66-44.5s-34.1-41.4-44.5-66C48,55.3,42.5,28.1,42.5,0h-15
			c0,122.9,99.6,222.5,222.5,222.5S472.5,122.9,472.5,0h-15C457.5,28.1,452,55.3,441.2,80.8z"/>
		<path class="st0" d="M377.3,127.3c-34,34-79.2,52.7-127.3,52.7c-48.1,0-93.3-18.7-127.3-52.7S70,48.1,70,0H55
			c0,107.7,87.3,195,195,195S445,107.7,445,0h-15C430,48.1,411.3,93.3,377.3,127.3z"/>
		<path class="st0" d="M357.8,107.8c-28.8,28.8-67.1,44.7-107.8,44.7c-40.7,0-79-15.9-107.8-44.7C113.4,79,97.5,40.7,97.5,0h-15
			c0,92.5,75,167.5,167.5,167.5S417.5,92.5,417.5,0h-15C402.5,40.7,386.6,79,357.8,107.8z"/>
		<path class="st0" d="M338.4,88.4C314.8,112,283.4,125,250,125c-33.4,0-64.8-13-88.4-36.6C138,64.8,125,33.4,125,0h-15
			c0,77.3,62.7,140,140,140S390,77.3,390,0h-15C375,33.4,362,64.8,338.4,88.4z"/>
	</g>
	<g>
		<path class="st1" d="M625,90c24,0,46.6-9.4,63.6-26.4C705.6,46.6,715,24,715,0h-6.3c0,46.3-37.5,83.8-83.8,83.8
			S541.3,46.3,541.3,0H535c0,24,9.4,46.6,26.4,63.6C578.4,80.6,601,90,625,90z"/>
		<path class="st1" d="M551.6,73.4c9.6,9.6,20.7,17.1,33,22.2c12.7,5.4,26.3,8.1,40.4,8.1s27.7-2.8,40.4-8.1
			c12.3-5.2,23.4-12.7,33-22.2c9.6-9.6,17.1-20.7,22.2-33C726,27.7,728.8,14,728.8,0h-6.3c0,53.8-43.7,97.5-97.5,97.5
			S527.5,53.8,527.5,0h-6.3c0,14,2.8,27.7,8.1,40.4C534.6,52.7,542.1,63.8,551.6,73.4z"/>
		<path class="st1" d="M625,76.3c20.4,0,39.5-7.9,53.9-22.3c14.4-14.4,22.3-33.5,22.3-53.9H695c0,38.7-31.3,70-70,70s-70-31.3-70-70
			h-6.3c0,20.4,7.9,39.5,22.3,53.9C585.5,68.3,604.6,76.3,625,76.3z"/>
		<path class="st1" d="M541.9,83.1c10.8,10.8,23.4,19.3,37.4,25.2c14.5,6.1,29.9,9.2,45.7,9.2s31.3-3.1,45.7-9.2
			c14-5.9,26.6-14.4,37.4-25.2c10.8-10.8,19.3-23.4,25.2-37.4c6.1-14.5,9.2-29.9,9.2-45.7h-6.3c0,61.4-49.8,111.3-111.3,111.3
			S513.8,61.4,513.8,0h-6.3c0,15.9,3.1,31.3,9.2,45.7C522.6,59.7,531.1,72.3,541.9,83.1z"/>
		<path class="st0" d="M733.3,45.7c-5.9,14-14.4,26.6-25.2,37.4c-10.8,10.8-23.4,19.3-37.4,25.2c-14.5,6.1-29.9,9.2-45.7,9.2
			s-31.3-3.1-45.7-9.2c-14-5.9-26.6-14.4-37.4-25.2c-10.8-10.8-19.3-23.4-25.2-37.4c-6.1-14.5-9.2-29.9-9.2-45.7H500
			c0,69,56,125,125,125S750,69,750,0h-7.5C742.5,15.9,739.4,31.3,733.3,45.7z"/>
		<path class="st0" d="M720.6,40.4c-5.2,12.3-12.7,23.4-22.2,33c-9.6,9.6-20.7,17.1-33,22.2c-12.7,5.4-26.3,8.1-40.4,8.1
			s-27.7-2.8-40.4-8.1c-12.3-5.2-23.4-12.7-33-22.2s-17.1-20.7-22.2-33C524,27.7,521.3,14,521.3,0h-7.5
			c0,61.4,49.8,111.3,111.3,111.3S736.3,61.4,736.3,0h-7.5C728.8,14,726,27.7,720.6,40.4z"/>
		<path class="st0" d="M688.6,63.6C671.6,80.6,649,90,625,90c-24,0-46.6-9.4-63.6-26.4C544.4,46.6,535,24,535,0h-7.5
			c0,53.8,43.7,97.5,97.5,97.5S722.5,53.8,722.5,0H715C715,24,705.6,46.6,688.6,63.6z"/>
		<path class="st0" d="M678.9,53.9c-14.4,14.4-33.5,22.3-53.9,22.3c-20.4,0-39.5-7.9-53.9-22.3C556.7,39.5,548.8,20.4,548.8,0h-7.5
			c0,46.3,37.5,83.8,83.8,83.8S708.8,46.3,708.8,0h-7.5C701.3,20.4,693.3,39.5,678.9,53.9z"/>
		<path class="st0" d="M669.2,44.2C657.4,56,641.7,62.5,625,62.5s-32.4-6.5-44.2-18.3C569,32.4,562.5,16.7,562.5,0H555
			c0,38.7,31.3,70,70,70s70-31.3,70-70h-7.5C687.5,16.7,681,32.4,669.2,44.2z"/>
	</g>
</g>
<g>
	<g>
		<path class="st1" d="M750,430c-48.1,0-93.3-18.7-127.3-52.7c-34-34-52.7-79.2-52.7-127.3h12.5c0,92.5,75,167.5,167.5,167.5
			s167.5-75,167.5-167.5H930c0,48.1-18.7,93.3-52.7,127.3S798.1,430,750,430z"/>
		<path class="st1" d="M896.7,396.7c-19.1,19.1-41.4,34.1-66,44.5c-25.4,10.7-52.7,16.3-80.8,16.3c-28.1,0-55.3-5.5-80.8-16.3
			c-24.5-10.4-46.8-25.4-66-44.5c-19.1-19.1-34.1-41.4-44.5-66c-10.7-25.4-16.3-52.7-16.3-80.8H555c0,107.7,87.3,195,195,195
			s195-87.3,195-195h12.5c0,28.1-5.5,55.3-16.3,80.8C930.8,355.3,915.9,377.6,896.7,396.7z"/>
		<path class="st1" d="M750,402.5c-40.7,0-79-15.9-107.8-44.7c-28.8-28.8-44.7-67.1-44.7-107.8H610c0,77.3,62.7,140,140,140
			s140-62.7,140-140h12.5c0,40.7-15.9,79-44.7,107.8C829,386.6,790.7,402.5,750,402.5z"/>
		<path class="st1" d="M916.2,416.2c-21.6,21.6-46.7,38.5-74.7,50.4c-29,12.3-59.7,18.5-91.5,18.5c-31.7,0-62.5-6.2-91.5-18.5
			c-28-11.8-53.1-28.8-74.7-50.4c-21.6-21.6-38.5-46.7-50.4-74.7c-12.3-29-18.5-59.7-18.5-91.5h12.5c0,122.9,99.6,222.5,222.5,222.5
			S972.5,372.9,972.5,250H985c0,31.7-6.2,62.5-18.5,91.5C954.7,369.4,937.8,394.6,916.2,416.2z"/>
		<path class="st0" d="M533.5,341.5c11.8,28,28.8,53.1,50.4,74.7c21.6,21.6,46.7,38.5,74.7,50.4c29,12.3,59.7,18.5,91.5,18.5
			c31.7,0,62.5-6.2,91.5-18.5c28-11.8,53.1-28.8,74.7-50.4s38.5-46.7,50.4-74.7c12.3-29,18.5-59.7,18.5-91.5h15
			c0,138.1-111.9,250-250,250S500,388.1,500,250h15C515,281.7,521.2,312.5,533.5,341.5z"/>
		<path class="st0" d="M558.8,330.8c10.4,24.5,25.4,46.8,44.5,66c19.1,19.1,41.4,34.1,66,44.5c25.4,10.7,52.7,16.3,80.8,16.3
			c28.1,0,55.3-5.5,80.8-16.3c24.5-10.4,46.8-25.4,66-44.5s34.1-41.4,44.5-66c10.7-25.4,16.3-52.7,16.3-80.8h15
			c0,122.9-99.6,222.5-222.5,222.5S527.5,372.9,527.5,250h15C542.5,278.1,548,305.3,558.8,330.8z"/>
		<path class="st0" d="M622.7,377.3c34,34,79.2,52.7,127.3,52.7c48.1,0,93.3-18.7,127.3-52.7S930,298.1,930,250h15
			c0,107.7-87.3,195-195,195s-195-87.3-195-195h15C570,298.1,588.7,343.3,622.7,377.3z"/>
		<path class="st0" d="M642.2,357.8c28.8,28.8,67.1,44.7,107.8,44.7c40.7,0,79-15.9,107.8-44.7c28.8-28.8,44.7-67.1,44.7-107.8h15
			c0,92.5-75,167.5-167.5,167.5s-167.5-75-167.5-167.5h15C597.5,290.7,613.4,329,642.2,357.8z"/>
		<path class="st0" d="M661.6,338.4c23.6,23.6,55,36.6,88.4,36.6c33.4,0,64.8-13,88.4-36.6c23.6-23.6,36.6-55,36.6-88.4h15
			c0,77.3-62.7,140-140,140s-140-62.7-140-140h15C625,283.4,638,314.8,661.6,338.4z"/>
	</g>
	<g>
		<path class="st1" d="M375,340c-24,0-46.6-9.4-63.6-26.4c-17-17-26.4-39.6-26.4-63.6h6.3c0,46.3,37.5,83.8,83.8,83.8
			s83.8-37.5,83.8-83.8h6.3c0,24-9.4,46.6-26.4,63.6S399,340,375,340z"/>
		<path class="st1" d="M448.4,323.4c-9.6,9.6-20.7,17.1-33,22.2c-12.7,5.4-26.3,8.1-40.4,8.1c-14,0-27.7-2.8-40.4-8.1
			c-12.3-5.2-23.4-12.7-33-22.2c-9.6-9.6-17.1-20.7-22.2-33c-5.4-12.7-8.1-26.3-8.1-40.4h6.3c0,53.8,43.7,97.5,97.5,97.5
			s97.5-43.7,97.5-97.5h6.3c0,14-2.8,27.7-8.1,40.4C465.4,302.7,457.9,313.8,448.4,323.4z"/>
		<path class="st1" d="M375,326.3c-20.4,0-39.5-7.9-53.9-22.3c-14.4-14.4-22.3-33.5-22.3-53.9h6.3c0,38.7,31.3,70,70,70
			s70-31.3,70-70h6.3c0,20.4-7.9,39.5-22.3,53.9C414.5,318.3,395.4,326.3,375,326.3z"/>
		<path class="st1" d="M458.1,333.1c-10.8,10.8-23.4,19.3-37.4,25.2c-14.5,6.1-29.9,9.2-45.7,9.2c-15.9,0-31.3-3.1-45.7-9.2
			c-14-5.9-26.6-14.4-37.4-25.2c-10.8-10.8-19.3-23.4-25.2-37.4c-6.1-14.5-9.2-29.9-9.2-45.7h6.3c0,61.4,49.8,111.3,111.3,111.3
			S486.3,311.4,486.3,250h6.3c0,15.9-3.1,31.3-9.2,45.7C477.4,309.7,468.9,322.3,458.1,333.1z"/>
		<path class="st0" d="M266.7,295.7c5.9,14,14.4,26.6,25.2,37.4c10.8,10.8,23.4,19.3,37.4,25.2c14.5,6.1,29.9,9.2,45.7,9.2
			c15.9,0,31.3-3.1,45.7-9.2c14-5.9,26.6-14.4,37.4-25.2s19.3-23.4,25.2-37.4c6.1-14.5,9.2-29.9,9.2-45.7h7.5c0,69-56,125-125,125
			s-125-56-125-125h7.5C257.5,265.9,260.6,281.3,266.7,295.7z"/>
		<path class="st0" d="M279.4,290.4c5.2,12.3,12.7,23.4,22.2,33c9.6,9.6,20.7,17.1,33,22.2c12.7,5.4,26.3,8.1,40.4,8.1
			c14,0,27.7-2.8,40.4-8.1c12.3-5.2,23.4-12.7,33-22.2s17.1-20.7,22.2-33c5.4-12.7,8.1-26.3,8.1-40.4h7.5
			c0,61.4-49.8,111.3-111.3,111.3S263.8,311.4,263.8,250h7.5C271.3,264,274,277.7,279.4,290.4z"/>
		<path class="st0" d="M311.4,313.6c17,17,39.6,26.4,63.6,26.4c24,0,46.6-9.4,63.6-26.4S465,274,465,250h7.5
			c0,53.8-43.7,97.5-97.5,97.5s-97.5-43.7-97.5-97.5h7.5C285,274,294.4,296.6,311.4,313.6z"/>
		<path class="st0" d="M321.1,303.9c14.4,14.4,33.5,22.3,53.9,22.3c20.4,0,39.5-7.9,53.9-22.3c14.4-14.4,22.3-33.5,22.3-53.9h7.5
			c0,46.3-37.5,83.8-83.8,83.8s-83.8-37.5-83.8-83.8h7.5C298.8,270.4,306.7,289.5,321.1,303.9z"/>
		<path class="st0" d="M330.8,294.2c11.8,11.8,27.5,18.3,44.2,18.3c16.7,0,32.4-6.5,44.2-18.3c11.8-11.8,18.3-27.5,18.3-44.2h7.5
			c0,38.7-31.3,70-70,70s-70-31.3-70-70h7.5C312.5,266.7,319,282.4,330.8,294.2z"/>
	</g>
</g>
<g>
	<g>
		<path class="st1" d="M875,215c-24,0-46.6-9.4-63.6-26.4c-17-17-26.4-39.6-26.4-63.6h6.3c0,46.3,37.5,83.8,83.8,83.8
			s83.8-37.5,83.8-83.8h6.3c0,24-9.4,46.6-26.4,63.6C921.6,205.6,899,215,875,215z"/>
		<path class="st1" d="M948.4,198.4c-9.6,9.6-20.7,17.1-33,22.2c-12.7,5.4-26.3,8.1-40.4,8.1s-27.7-2.8-40.4-8.1
			c-12.3-5.2-23.4-12.7-33-22.2c-9.6-9.6-17.1-20.7-22.2-33c-5.4-12.7-8.1-26.3-8.1-40.4h6.3c0,53.8,43.7,97.5,97.5,97.5
			s97.5-43.7,97.5-97.5h6.3c0,14-2.8,27.7-8.1,40.4C965.4,177.7,957.9,188.8,948.4,198.4z"/>
		<path class="st1" d="M875,201.3c-20.4,0-39.5-7.9-53.9-22.3c-14.4-14.4-22.3-33.5-22.3-53.9h6.3c0,38.7,31.3,70,70,70
			s70-31.3,70-70h6.3c0,20.4-7.9,39.5-22.3,53.9C914.5,193.3,895.4,201.3,875,201.3z"/>
		<path class="st1" d="M958.1,208.1c-10.8,10.8-23.4,19.3-37.4,25.2c-14.5,6.1-29.9,9.2-45.7,9.2c-15.9,0-31.3-3.1-45.7-9.2
			c-14-5.9-26.6-14.4-37.4-25.2c-10.8-10.8-19.3-23.4-25.2-37.4c-6.1-14.5-9.2-29.9-9.2-45.7h6.3c0,61.4,49.8,111.3,111.3,111.3
			S986.3,186.4,986.3,125h6.3c0,15.9-3.1,31.3-9.2,45.7C977.4,184.7,968.9,197.3,958.1,208.1z"/>
		<path class="st0" d="M766.7,170.7c5.9,14,14.4,26.6,25.2,37.4c10.8,10.8,23.4,19.3,37.4,25.2c14.5,6.1,29.9,9.2,45.7,9.2
			c15.9,0,31.3-3.1,45.7-9.2c14-5.9,26.6-14.4,37.4-25.2s19.3-23.4,25.2-37.4c6.1-14.5,9.2-29.9,9.2-45.7h7.5c0,69-56,125-125,125
			s-125-56-125-125h7.5C757.5,140.9,760.6,156.3,766.7,170.7z"/>
		<path class="st0" d="M779.4,165.4c5.2,12.3,12.7,23.4,22.2,33c9.6,9.6,20.7,17.1,33,22.2c12.7,5.4,26.3,8.1,40.4,8.1
			s27.7-2.8,40.4-8.1c12.3-5.2,23.4-12.7,33-22.2s17.1-20.7,22.2-33c5.4-12.7,8.1-26.3,8.1-40.4h7.5c0,61.4-49.8,111.3-111.3,111.3
			S763.8,186.4,763.8,125h7.5C771.3,139,774,152.7,779.4,165.4z"/>
		<path class="st0" d="M811.4,188.6c17,17,39.6,26.4,63.6,26.4s46.6-9.4,63.6-26.4c17-17,26.4-39.6,26.4-63.6h7.5
			c0,53.8-43.7,97.5-97.5,97.5s-97.5-43.7-97.5-97.5h7.5C785,149,794.4,171.6,811.4,188.6z"/>
		<path class="st0" d="M821.1,178.9c14.4,14.4,33.5,22.3,53.9,22.3c20.4,0,39.5-7.9,53.9-22.3c14.4-14.4,22.3-33.5,22.3-53.9h7.5
			c0,46.3-37.5,83.8-83.8,83.8s-83.8-37.5-83.8-83.8h7.5C798.8,145.4,806.7,164.5,821.1,178.9z"/>
		<path class="st0" d="M830.8,169.2c11.8,11.8,27.5,18.3,44.2,18.3s32.4-6.5,44.2-18.3c11.8-11.8,18.3-27.5,18.3-44.2h7.5
			c0,38.7-31.3,70-70,70s-70-31.3-70-70h7.5C812.5,141.7,819,157.4,830.8,169.2z"/>
	</g>
	<g>
		<path class="st1" d="M687.5,170c-12,0-23.3-4.7-31.8-13.2S642.5,137,642.5,125h3.1c0,23.1,18.7,41.9,41.9,41.9
			c23.1,0,41.9-18.7,41.9-41.9h3.1c0,12-4.7,23.3-13.2,31.8C710.8,165.3,699.5,170,687.5,170z"/>
		<path class="st1" d="M724.2,161.7c-4.8,4.8-10.4,8.5-16.5,11.1c-6.4,2.7-13.2,4.1-20.2,4.1s-13.8-1.4-20.2-4.1
			c-6.1-2.6-11.7-6.3-16.5-11.1c-4.8-4.8-8.5-10.4-11.1-16.5c-2.7-6.4-4.1-13.2-4.1-20.2h3.1c0,26.9,21.8,48.8,48.8,48.8
			s48.8-21.8,48.8-48.8h3.1c0,7-1.4,13.8-4.1,20.2C732.7,151.3,729,156.9,724.2,161.7z"/>
		<path class="st1" d="M687.5,163.1c-10.2,0-19.8-4-27-11.2c-7.2-7.2-11.2-16.8-11.2-27h3.1c0,19.3,15.7,35,35,35s35-15.7,35-35h3.1
			c0,10.2-4,19.8-11.2,27C707.3,159.2,697.7,163.1,687.5,163.1z"/>
		<path class="st1" d="M729,166.5c-5.4,5.4-11.7,9.6-18.7,12.6c-7.2,3.1-14.9,4.6-22.9,4.6s-15.6-1.6-22.9-4.6
			c-7-3-13.3-7.2-18.7-12.6s-9.6-11.7-12.6-18.7c-3.1-7.2-4.6-14.9-4.6-22.9h3.1c0,30.7,24.9,55.6,55.6,55.6s55.6-24.9,55.6-55.6
			h3.1c0,7.9-1.6,15.6-4.6,22.9C738.7,154.9,734.4,161.1,729,166.5z"/>
		<path class="st0" d="M633.4,147.9c3,7,7.2,13.3,12.6,18.7s11.7,9.6,18.7,12.6c7.2,3.1,14.9,4.6,22.9,4.6s15.6-1.6,22.9-4.6
			c7-3,13.3-7.2,18.7-12.6c5.4-5.4,9.6-11.7,12.6-18.7c3.1-7.2,4.6-14.9,4.6-22.9h3.8c0,34.5-28,62.5-62.5,62.5S625,159.5,625,125
			h3.8C628.8,132.9,630.3,140.6,633.4,147.9z"/>
		<path class="st0" d="M639.7,145.2c2.6,6.1,6.3,11.7,11.1,16.5c4.8,4.8,10.4,8.5,16.5,11.1c6.4,2.7,13.2,4.1,20.2,4.1
			s13.8-1.4,20.2-4.1c6.1-2.6,11.7-6.3,16.5-11.1s8.5-10.4,11.1-16.5c2.7-6.4,4.1-13.2,4.1-20.2h3.8c0,30.7-24.9,55.6-55.6,55.6
			s-55.6-24.9-55.6-55.6h3.8C635.6,132,637,138.8,639.7,145.2z"/>
		<path class="st0" d="M655.7,156.8c8.5,8.5,19.8,13.2,31.8,13.2s23.3-4.7,31.8-13.2c8.5-8.5,13.2-19.8,13.2-31.8h3.8
			c0,26.9-21.8,48.8-48.8,48.8s-48.8-21.8-48.8-48.8h3.8C642.5,137,647.2,148.3,655.7,156.8z"/>
		<path class="st0" d="M660.5,152c7.2,7.2,16.8,11.2,27,11.2s19.8-4,27-11.2c7.2-7.2,11.2-16.8,11.2-27h3.8
			c0,23.1-18.7,41.9-41.9,41.9c-23.1,0-41.9-18.7-41.9-41.9h3.8C649.4,135.2,653.3,144.8,660.5,152z"/>
		<path class="st0" d="M665.4,147.1c5.9,5.9,13.7,9.2,22.1,9.2s16.2-3.3,22.1-9.2c5.9-5.9,9.2-13.7,9.2-22.1h3.8
			c0,19.3-15.7,35-35,35s-35-15.7-35-35h3.8C656.3,133.3,659.5,141.2,665.4,147.1z"/>
	</g>
</g>
<g>
	<g>
		<path class="st1" d="M125,465c24,0,46.6-9.4,63.6-26.4c17-17,26.4-39.6,26.4-63.6h-6.3c0,46.3-37.5,83.8-83.8,83.8
			S41.3,421.3,41.3,375H35c0,24,9.4,46.6,26.4,63.6S101,465,125,465z"/>
		<path class="st1" d="M51.6,448.4c9.6,9.6,20.7,17.1,33,22.2c12.7,5.4,26.3,8.1,40.4,8.1c14,0,27.7-2.8,40.4-8.1
			c12.3-5.2,23.4-12.7,33-22.2c9.6-9.6,17.1-20.7,22.2-33c5.4-12.7,8.1-26.3,8.1-40.4h-6.3c0,53.8-43.7,97.5-97.5,97.5
			S27.5,428.8,27.5,375h-6.3c0,14,2.8,27.7,8.1,40.4C34.6,427.7,42.1,438.8,51.6,448.4z"/>
		<path class="st1" d="M125,451.3c20.4,0,39.5-7.9,53.9-22.3c14.4-14.4,22.3-33.5,22.3-53.9H195c0,38.7-31.3,70-70,70
			s-70-31.3-70-70h-6.3c0,20.4,7.9,39.5,22.3,53.9C85.5,443.3,104.6,451.3,125,451.3z"/>
		<path class="st1" d="M41.9,458.1c10.8,10.8,23.4,19.3,37.4,25.2c14.5,6.1,29.9,9.2,45.7,9.2c15.9,0,31.3-3.1,45.7-9.2
			c14-5.9,26.6-14.4,37.4-25.2c10.8-10.8,19.3-23.4,25.2-37.4c6.1-14.5,9.2-29.9,9.2-45.7h-6.3c0,61.4-49.8,111.3-111.3,111.3
			S13.8,436.4,13.8,375H7.5c0,15.9,3.1,31.3,9.2,45.7C22.6,434.7,31.1,447.3,41.9,458.1z"/>
		<path class="st0" d="M233.3,420.7c-5.9,14-14.4,26.6-25.2,37.4c-10.8,10.8-23.4,19.3-37.4,25.2c-14.5,6.1-29.9,9.2-45.7,9.2
			c-15.9,0-31.3-3.1-45.7-9.2c-14-5.9-26.6-14.4-37.4-25.2s-19.3-23.4-25.2-37.4c-6.1-14.5-9.2-29.9-9.2-45.7H0c0,69,56,125,125,125
			s125-56,125-125h-7.5C242.5,390.9,239.4,406.3,233.3,420.7z"/>
		<path class="st0" d="M220.6,415.4c-5.2,12.3-12.7,23.4-22.2,33c-9.6,9.6-20.7,17.1-33,22.2c-12.7,5.4-26.3,8.1-40.4,8.1
			c-14,0-27.7-2.8-40.4-8.1c-12.3-5.2-23.4-12.7-33-22.2s-17.1-20.7-22.2-33C24,402.7,21.3,389,21.3,375h-7.5
			c0,61.4,49.8,111.3,111.3,111.3S236.3,436.4,236.3,375h-7.5C228.8,389,226,402.7,220.6,415.4z"/>
		<path class="st0" d="M188.6,438.6c-17,17-39.6,26.4-63.6,26.4c-24,0-46.6-9.4-63.6-26.4S35,399,35,375h-7.5
			c0,53.8,43.7,97.5,97.5,97.5s97.5-43.7,97.5-97.5H215C215,399,205.6,421.6,188.6,438.6z"/>
		<path class="st0" d="M178.9,428.9c-14.4,14.4-33.5,22.3-53.9,22.3c-20.4,0-39.5-7.9-53.9-22.3c-14.4-14.4-22.3-33.5-22.3-53.9
			h-7.5c0,46.3,37.5,83.8,83.8,83.8s83.8-37.5,83.8-83.8h-7.5C201.3,395.4,193.3,414.5,178.9,428.9z"/>
		<path class="st0" d="M169.2,419.2c-11.8,11.8-27.5,18.3-44.2,18.3c-16.7,0-32.4-6.5-44.2-18.3C69,407.4,62.5,391.7,62.5,375H55
			c0,38.7,31.3,70,70,70s70-31.3,70-70h-7.5C187.5,391.7,181,407.4,169.2,419.2z"/>
	</g>
	<g>
		<path class="st1" d="M312.5,420c12,0,23.3-4.7,31.8-13.2c8.5-8.5,13.2-19.8,13.2-31.8h-3.1c0,23.1-18.7,41.9-41.9,41.9
			s-41.9-18.7-41.9-41.9h-3.1c0,12,4.7,23.3,13.2,31.8C289.2,415.3,300.5,420,312.5,420z"/>
		<path class="st1" d="M275.8,411.7c4.8,4.8,10.4,8.5,16.5,11.1c6.4,2.7,13.2,4.1,20.2,4.1s13.8-1.4,20.2-4.1
			c6.1-2.6,11.7-6.3,16.5-11.1c4.8-4.8,8.5-10.4,11.1-16.5c2.7-6.4,4.1-13.2,4.1-20.2h-3.1c0,26.9-21.8,48.8-48.8,48.8
			s-48.8-21.8-48.8-48.8h-3.1c0,7,1.4,13.8,4.1,20.2C267.3,401.3,271,406.9,275.8,411.7z"/>
		<path class="st1" d="M312.5,413.1c10.2,0,19.8-4,27-11.2c7.2-7.2,11.2-16.8,11.2-27h-3.1c0,19.3-15.7,35-35,35s-35-15.7-35-35
			h-3.1c0,10.2,4,19.8,11.2,27C292.7,409.2,302.3,413.1,312.5,413.1z"/>
		<path class="st1" d="M271,416.5c5.4,5.4,11.7,9.6,18.7,12.6c7.2,3.1,14.9,4.6,22.9,4.6c7.9,0,15.6-1.6,22.9-4.6
			c7-3,13.3-7.2,18.7-12.6c5.4-5.4,9.6-11.7,12.6-18.7c3.1-7.2,4.6-14.9,4.6-22.9h-3.1c0,30.7-24.9,55.6-55.6,55.6
			s-55.6-24.9-55.6-55.6h-3.1c0,7.9,1.6,15.6,4.6,22.9C261.3,404.9,265.6,411.1,271,416.5z"/>
		<path class="st0" d="M366.6,397.9c-3,7-7.2,13.3-12.6,18.7c-5.4,5.4-11.7,9.6-18.7,12.6c-7.2,3.1-14.9,4.6-22.9,4.6
			c-7.9,0-15.6-1.6-22.9-4.6c-7-3-13.3-7.2-18.7-12.6s-9.6-11.7-12.6-18.7c-3.1-7.2-4.6-14.9-4.6-22.9H250c0,34.5,28,62.5,62.5,62.5
			s62.5-28,62.5-62.5h-3.8C371.3,382.9,369.7,390.6,366.6,397.9z"/>
		<path class="st0" d="M360.3,395.2c-2.6,6.1-6.3,11.7-11.1,16.5c-4.8,4.8-10.4,8.5-16.5,11.1c-6.4,2.7-13.2,4.1-20.2,4.1
			s-13.8-1.4-20.2-4.1c-6.1-2.6-11.7-6.3-16.5-11.1s-8.5-10.4-11.1-16.5c-2.7-6.4-4.1-13.2-4.1-20.2h-3.8
			c0,30.7,24.9,55.6,55.6,55.6s55.6-24.9,55.6-55.6h-3.8C364.4,382,363,388.8,360.3,395.2z"/>
		<path class="st0" d="M344.3,406.8c-8.5,8.5-19.8,13.2-31.8,13.2s-23.3-4.7-31.8-13.2c-8.5-8.5-13.2-19.8-13.2-31.8h-3.8
			c0,26.9,21.8,48.8,48.8,48.8s48.8-21.8,48.8-48.8h-3.8C357.5,387,352.8,398.3,344.3,406.8z"/>
		<path class="st0" d="M339.5,402c-7.2,7.2-16.8,11.2-27,11.2c-10.2,0-19.8-4-27-11.2c-7.2-7.2-11.2-16.8-11.2-27h-3.8
			c0,23.1,18.7,41.9,41.9,41.9s41.9-18.7,41.9-41.9h-3.8C350.6,385.2,346.7,394.8,339.5,402z"/>
		<path class="st0" d="M334.6,397.1c-5.9,5.9-13.7,9.2-22.1,9.2s-16.2-3.3-22.1-9.2c-5.9-5.9-9.2-13.7-9.2-22.1h-3.8
			c0,19.3,15.7,35,35,35s35-15.7,35-35h-3.8C343.8,383.3,340.5,391.2,334.6,397.1z"/>
	</g>
</g>
<g>
	<g>
		<path class="st1" d="M62.5,295c12,0,23.3-4.7,31.8-13.2c8.5-8.5,13.2-19.8,13.2-31.8h-3.1c0,23.1-18.7,41.9-41.9,41.9
			S20.6,273.1,20.6,250h-3.1c0,12,4.7,23.3,13.2,31.8C39.2,290.3,50.5,295,62.5,295z"/>
		<path class="st1" d="M25.8,286.7c4.8,4.8,10.4,8.5,16.5,11.1c6.4,2.7,13.2,4.1,20.2,4.1c7,0,13.8-1.4,20.2-4.1
			c6.1-2.6,11.7-6.3,16.5-11.1c4.8-4.8,8.5-10.4,11.1-16.5c2.7-6.4,4.1-13.2,4.1-20.2h-3.1c0,26.9-21.8,48.8-48.8,48.8
			S13.8,276.9,13.8,250h-3.1c0,7,1.4,13.8,4.1,20.2C17.3,276.3,21,281.9,25.8,286.7z"/>
		<path class="st1" d="M62.5,288.1c10.2,0,19.8-4,27-11.2s11.2-16.8,11.2-27h-3.1c0,19.3-15.7,35-35,35s-35-15.7-35-35h-3.1
			c0,10.2,4,19.8,11.2,27C42.7,284.2,52.3,288.1,62.5,288.1z"/>
		<path class="st1" d="M21,291.5c5.4,5.4,11.7,9.6,18.7,12.6c7.2,3.1,14.9,4.6,22.9,4.6c7.9,0,15.6-1.6,22.9-4.6
			c7-3,13.3-7.2,18.7-12.6c5.4-5.4,9.6-11.7,12.6-18.7c3.1-7.2,4.6-14.9,4.6-22.9h-3.1c0,30.7-24.9,55.6-55.6,55.6
			S6.9,280.7,6.9,250H3.8c0,7.9,1.6,15.6,4.6,22.9C11.3,279.9,15.6,286.1,21,291.5z"/>
		<path class="st0" d="M116.6,272.9c-3,7-7.2,13.3-12.6,18.7c-5.4,5.4-11.7,9.6-18.7,12.6c-7.2,3.1-14.9,4.6-22.9,4.6
			c-7.9,0-15.6-1.6-22.9-4.6c-7-3-13.3-7.2-18.7-12.6c-5.4-5.4-9.6-11.7-12.6-18.7c-3.1-7.2-4.6-14.9-4.6-22.9H0
			c0,34.5,28,62.5,62.5,62.5s62.5-28,62.5-62.5h-3.8C121.3,257.9,119.7,265.6,116.6,272.9z"/>
		<path class="st0" d="M110.3,270.2c-2.6,6.1-6.3,11.7-11.1,16.5c-4.8,4.8-10.4,8.5-16.5,11.1c-6.4,2.7-13.2,4.1-20.2,4.1
			c-7,0-13.8-1.4-20.2-4.1c-6.1-2.6-11.7-6.3-16.5-11.1s-8.5-10.4-11.1-16.5c-2.7-6.4-4.1-13.2-4.1-20.2H6.9
			c0,30.7,24.9,55.6,55.6,55.6s55.6-24.9,55.6-55.6h-3.8C114.4,257,113,263.8,110.3,270.2z"/>
		<path class="st0" d="M94.3,281.8c-8.5,8.5-19.8,13.2-31.8,13.2c-12,0-23.3-4.7-31.8-13.2c-8.5-8.5-13.2-19.8-13.2-31.8h-3.8
			c0,26.9,21.8,48.8,48.8,48.8s48.8-21.8,48.8-48.8h-3.8C107.5,262,102.8,273.3,94.3,281.8z"/>
		<path class="st0" d="M89.5,277c-7.2,7.2-16.8,11.2-27,11.2c-10.2,0-19.8-4-27-11.2c-7.2-7.2-11.2-16.8-11.2-27h-3.8
			c0,23.1,18.7,41.9,41.9,41.9s41.9-18.7,41.9-41.9h-3.8C100.6,260.2,96.7,269.8,89.5,277z"/>
		<path class="st0" d="M84.6,272.1c-5.9,5.9-13.7,9.2-22.1,9.2c-8.3,0-16.2-3.3-22.1-9.2c-5.9-5.9-9.2-13.7-9.2-22.1h-3.8
			c0,19.3,15.7,35,35,35s35-15.7,35-35h-3.8C93.8,258.3,90.5,266.2,84.6,272.1z"/>
	</g>
	<g>
		<path class="st1" d="M156.3,272.5c6,0,11.7-2.3,15.9-6.6c4.2-4.2,6.6-9.9,6.6-15.9h-1.6c0,11.6-9.4,20.9-20.9,20.9
			s-20.9-9.4-20.9-20.9h-1.6c0,6,2.3,11.7,6.6,15.9C144.6,270.2,150.2,272.5,156.3,272.5z"/>
		<path class="st1" d="M137.9,268.3c2.4,2.4,5.2,4.3,8.2,5.6c3.2,1.3,6.6,2,10.1,2s6.9-0.7,10.1-2c3.1-1.3,5.9-3.2,8.2-5.6
			c2.4-2.4,4.3-5.2,5.6-8.2c1.3-3.2,2-6.6,2-10.1h-1.6c0,13.5-10.9,24.4-24.4,24.4s-24.4-10.9-24.4-24.4h-1.6c0,3.5,0.7,6.9,2,10.1
			C133.6,263.2,135.5,265.9,137.9,268.3z"/>
		<path class="st1" d="M156.3,269.1c5.1,0,9.9-2,13.5-5.6s5.6-8.4,5.6-13.5h-1.6c0,9.7-7.8,17.5-17.5,17.5s-17.5-7.8-17.5-17.5h-1.6
			c0,5.1,2,9.9,5.6,13.5S151.2,269.1,156.3,269.1z"/>
		<path class="st1" d="M135.5,270.8c2.7,2.7,5.8,4.8,9.3,6.3c3.6,1.5,7.5,2.3,11.4,2.3c4,0,7.8-0.8,11.4-2.3
			c3.5-1.5,6.6-3.6,9.3-6.3c2.7-2.7,4.8-5.8,6.3-9.3c1.5-3.6,2.3-7.5,2.3-11.4h-1.6c0,15.4-12.5,27.8-27.8,27.8
			s-27.8-12.5-27.8-27.8h-1.6c0,4,0.8,7.8,2.3,11.4C130.7,264.9,132.8,268.1,135.5,270.8z"/>
		<path class="st0" d="M183.3,261.4c-1.5,3.5-3.6,6.6-6.3,9.3c-2.7,2.7-5.8,4.8-9.3,6.3c-3.6,1.5-7.5,2.3-11.4,2.3
			c-4,0-7.8-0.8-11.4-2.3c-3.5-1.5-6.6-3.6-9.3-6.3c-2.7-2.7-4.8-5.8-6.3-9.3c-1.5-3.6-2.3-7.5-2.3-11.4H125
			c0,17.3,14,31.3,31.3,31.3s31.3-14,31.3-31.3h-1.9C185.6,254,184.8,257.8,183.3,261.4z"/>
		<path class="st0" d="M180.2,260.1c-1.3,3.1-3.2,5.9-5.6,8.2c-2.4,2.4-5.2,4.3-8.2,5.6c-3.2,1.3-6.6,2-10.1,2s-6.9-0.7-10.1-2
			c-3.1-1.3-5.9-3.2-8.2-5.6s-4.3-5.2-5.6-8.2c-1.3-3.2-2-6.6-2-10.1h-1.9c0,15.4,12.5,27.8,27.8,27.8s27.8-12.5,27.8-27.8h-1.9
			C182.2,253.5,181.5,256.9,180.2,260.1z"/>
		<path class="st0" d="M172.2,265.9c-4.2,4.2-9.9,6.6-15.9,6.6s-11.7-2.3-15.9-6.6c-4.2-4.2-6.6-9.9-6.6-15.9h-1.9
			c0,13.5,10.9,24.4,24.4,24.4s24.4-10.9,24.4-24.4h-1.9C178.8,256,176.4,261.7,172.2,265.9z"/>
		<path class="st0" d="M169.7,263.5c-3.6,3.6-8.4,5.6-13.5,5.6c-5.1,0-9.9-2-13.5-5.6s-5.6-8.4-5.6-13.5h-1.9
			c0,11.6,9.4,20.9,20.9,20.9s20.9-9.4,20.9-20.9h-1.9C175.3,255.1,173.3,259.9,169.7,263.5z"/>
		<path class="st0" d="M167.3,261c-3,3-6.9,4.6-11,4.6s-8.1-1.6-11-4.6c-3-3-4.6-6.9-4.6-11h-1.9c0,9.7,7.8,17.5,17.5,17.5
			s17.5-7.8,17.5-17.5h-1.9C171.9,254.2,170.2,258.1,167.3,261z"/>
	</g>
</g>
<g>
	<g>
		<path class="st1" d="M562.5,232.5c12,0,23.3-4.7,31.8-13.2s13.2-19.8,13.2-31.8h-3.1c0,23.1-18.7,41.9-41.9,41.9
			s-41.9-18.7-41.9-41.9h-3.1c0,12,4.7,23.3,13.2,31.8S550.5,232.5,562.5,232.5z"/>
		<path class="st1" d="M525.8,224.2c4.8,4.8,10.4,8.5,16.5,11.1c6.4,2.7,13.2,4.1,20.2,4.1s13.8-1.4,20.2-4.1
			c6.1-2.6,11.7-6.3,16.5-11.1s8.5-10.4,11.1-16.5c2.7-6.4,4.1-13.2,4.1-20.2h-3.1c0,26.9-21.8,48.8-48.8,48.8s-48.8-21.8-48.8-48.8
			h-3.1c0,7,1.4,13.8,4.1,20.2C517.3,213.8,521,219.4,525.8,224.2z"/>
		<path class="st1" d="M562.5,225.6c10.2,0,19.8-4,27-11.2c7.2-7.2,11.2-16.8,11.2-27h-3.1c0,19.3-15.7,35-35,35s-35-15.7-35-35
			h-3.1c0,10.2,4,19.8,11.2,27C542.7,221.7,552.3,225.6,562.5,225.6z"/>
		<path class="st1" d="M521,229c5.4,5.4,11.7,9.6,18.7,12.6c7.2,3.1,14.9,4.6,22.9,4.6s15.6-1.6,22.9-4.6c7-3,13.3-7.2,18.7-12.6
			c5.4-5.4,9.6-11.7,12.6-18.7c3.1-7.2,4.6-14.9,4.6-22.9h-3.1c0,30.7-24.9,55.6-55.6,55.6s-55.6-24.9-55.6-55.6h-3.1
			c0,7.9,1.6,15.6,4.6,22.9C511.3,217.4,515.6,223.6,521,229z"/>
		<path class="st0" d="M616.6,210.4c-3,7-7.2,13.3-12.6,18.7c-5.4,5.4-11.7,9.6-18.7,12.6c-7.2,3.1-14.9,4.6-22.9,4.6
			s-15.6-1.6-22.9-4.6c-7-3-13.3-7.2-18.7-12.6c-5.4-5.4-9.6-11.7-12.6-18.7c-3.1-7.2-4.6-14.9-4.6-22.9H500
			c0,34.5,28,62.5,62.5,62.5s62.5-28,62.5-62.5h-3.8C621.3,195.4,619.7,203.1,616.6,210.4z"/>
		<path class="st0" d="M610.3,207.7c-2.6,6.1-6.3,11.7-11.1,16.5s-10.4,8.5-16.5,11.1c-6.4,2.7-13.2,4.1-20.2,4.1
			s-13.8-1.4-20.2-4.1c-6.1-2.6-11.7-6.3-16.5-11.1s-8.5-10.4-11.1-16.5c-2.7-6.4-4.1-13.2-4.1-20.2h-3.8
			c0,30.7,24.9,55.6,55.6,55.6s55.6-24.9,55.6-55.6h-3.8C614.4,194.5,613,201.3,610.3,207.7z"/>
		<path class="st0" d="M594.3,219.3c-8.5,8.5-19.8,13.2-31.8,13.2c-12,0-23.3-4.7-31.8-13.2s-13.2-19.8-13.2-31.8h-3.8
			c0,26.9,21.8,48.8,48.8,48.8s48.8-21.8,48.8-48.8h-3.8C607.5,199.5,602.8,210.8,594.3,219.3z"/>
		<path class="st0" d="M589.5,214.5c-7.2,7.2-16.8,11.2-27,11.2c-10.2,0-19.8-4-27-11.2c-7.2-7.2-11.2-16.8-11.2-27h-3.8
			c0,23.1,18.7,41.9,41.9,41.9s41.9-18.7,41.9-41.9h-3.8C600.6,197.7,596.7,207.3,589.5,214.5z"/>
		<path class="st0" d="M584.6,209.6c-5.9,5.9-13.7,9.2-22.1,9.2s-16.2-3.3-22.1-9.2c-5.9-5.9-9.2-13.7-9.2-22.1h-3.8
			c0,19.3,15.7,35,35,35s35-15.7,35-35h-3.8C593.8,195.8,590.5,203.7,584.6,209.6z"/>
	</g>
	<g>
		<path class="st1" d="M656.3,210c6,0,11.7-2.3,15.9-6.6c4.2-4.2,6.6-9.9,6.6-15.9h-1.6c0,11.6-9.4,20.9-20.9,20.9
			s-20.9-9.4-20.9-20.9h-1.6c0,6,2.3,11.7,6.6,15.9C644.6,207.7,650.2,210,656.3,210z"/>
		<path class="st1" d="M637.9,205.8c2.4,2.4,5.2,4.3,8.2,5.6c3.2,1.3,6.6,2,10.1,2s6.9-0.7,10.1-2c3.1-1.3,5.9-3.2,8.2-5.6
			s4.3-5.2,5.6-8.2c1.3-3.2,2-6.6,2-10.1h-1.6c0,13.5-10.9,24.4-24.4,24.4s-24.4-10.9-24.4-24.4h-1.6c0,3.5,0.7,6.9,2,10.1
			C633.6,200.7,635.5,203.4,637.9,205.8z"/>
		<path class="st1" d="M656.3,206.6c5.1,0,9.9-2,13.5-5.6c3.6-3.6,5.6-8.4,5.6-13.5h-1.6c0,9.7-7.8,17.5-17.5,17.5
			s-17.5-7.8-17.5-17.5h-1.6c0,5.1,2,9.9,5.6,13.5C646.4,204.6,651.2,206.6,656.3,206.6z"/>
		<path class="st1" d="M635.5,208.3c2.7,2.7,5.8,4.8,9.3,6.3c3.6,1.5,7.5,2.3,11.4,2.3s7.8-0.8,11.4-2.3c3.5-1.5,6.6-3.6,9.3-6.3
			c2.7-2.7,4.8-5.8,6.3-9.3c1.5-3.6,2.3-7.5,2.3-11.4h-1.6c0,15.4-12.5,27.8-27.8,27.8s-27.8-12.5-27.8-27.8h-1.6
			c0,4,0.8,7.8,2.3,11.4C630.7,202.4,632.8,205.6,635.5,208.3z"/>
		<path class="st0" d="M683.3,198.9c-1.5,3.5-3.6,6.6-6.3,9.3c-2.7,2.7-5.8,4.8-9.3,6.3c-3.6,1.5-7.5,2.3-11.4,2.3
			s-7.8-0.8-11.4-2.3c-3.5-1.5-6.6-3.6-9.3-6.3c-2.7-2.7-4.8-5.8-6.3-9.3c-1.5-3.6-2.3-7.5-2.3-11.4H625c0,17.3,14,31.3,31.3,31.3
			s31.3-14,31.3-31.3h-1.9C685.6,191.5,684.8,195.3,683.3,198.9z"/>
		<path class="st0" d="M680.2,197.6c-1.3,3.1-3.2,5.9-5.6,8.2s-5.2,4.3-8.2,5.6c-3.2,1.3-6.6,2-10.1,2s-6.9-0.7-10.1-2
			c-3.1-1.3-5.9-3.2-8.2-5.6s-4.3-5.2-5.6-8.2c-1.3-3.2-2-6.6-2-10.1h-1.9c0,15.4,12.5,27.8,27.8,27.8s27.8-12.5,27.8-27.8h-1.9
			C682.2,191,681.5,194.4,680.2,197.6z"/>
		<path class="st0" d="M672.2,203.4c-4.2,4.2-9.9,6.6-15.9,6.6s-11.7-2.3-15.9-6.6c-4.2-4.2-6.6-9.9-6.6-15.9h-1.9
			c0,13.5,10.9,24.4,24.4,24.4s24.4-10.9,24.4-24.4h-1.9C678.8,193.5,676.4,199.2,672.2,203.4z"/>
		<path class="st0" d="M669.7,201c-3.6,3.6-8.4,5.6-13.5,5.6s-9.9-2-13.5-5.6c-3.6-3.6-5.6-8.4-5.6-13.5h-1.9
			c0,11.6,9.4,20.9,20.9,20.9s20.9-9.4,20.9-20.9h-1.9C675.3,192.6,673.3,197.4,669.7,201z"/>
		<path class="st0" d="M667.3,198.5c-3,3-6.9,4.6-11,4.6s-8.1-1.6-11-4.6c-3-3-4.6-6.9-4.6-11h-1.9c0,9.7,7.8,17.5,17.5,17.5
			s17.5-7.8,17.5-17.5h-1.9C671.9,191.7,670.2,195.6,667.3,198.5z"/>
	</g>
</g>
<g>
	<g>
		<path class="st1" d="M812.5,107.5c12,0,23.3-4.7,31.8-13.2s13.2-19.8,13.2-31.8h-3.1c0,23.1-18.7,41.9-41.9,41.9
			s-41.9-18.7-41.9-41.9h-3.1c0,12,4.7,23.3,13.2,31.8S800.5,107.5,812.5,107.5z"/>
		<path class="st1" d="M775.8,99.2c4.8,4.8,10.4,8.5,16.5,11.1c6.4,2.7,13.2,4.1,20.2,4.1s13.8-1.4,20.2-4.1
			c6.1-2.6,11.7-6.3,16.5-11.1s8.5-10.4,11.1-16.5c2.7-6.4,4.1-13.2,4.1-20.2h-3.1c0,26.9-21.8,48.8-48.8,48.8s-48.8-21.8-48.8-48.8
			h-3.1c0,7,1.4,13.8,4.1,20.2C767.3,88.8,771,94.4,775.8,99.2z"/>
		<path class="st1" d="M812.5,100.6c10.2,0,19.8-4,27-11.2c7.2-7.2,11.2-16.8,11.2-27h-3.1c0,19.3-15.7,35-35,35s-35-15.7-35-35
			h-3.1c0,10.2,4,19.8,11.2,27C792.7,96.7,802.3,100.6,812.5,100.6z"/>
		<path class="st1" d="M771,104c5.4,5.4,11.7,9.6,18.7,12.6c7.2,3.1,14.9,4.6,22.9,4.6s15.6-1.6,22.9-4.6c7-3,13.3-7.2,18.7-12.6
			c5.4-5.4,9.6-11.7,12.6-18.7c3.1-7.2,4.6-14.9,4.6-22.9h-3.1c0,30.7-24.9,55.6-55.6,55.6s-55.6-24.9-55.6-55.6h-3.1
			c0,7.9,1.6,15.6,4.6,22.9C761.3,92.4,765.6,98.6,771,104z"/>
		<path class="st0" d="M866.6,85.4c-3,7-7.2,13.3-12.6,18.7c-5.4,5.4-11.7,9.6-18.7,12.6c-7.2,3.1-14.9,4.6-22.9,4.6
			s-15.6-1.6-22.9-4.6c-7-3-13.3-7.2-18.7-12.6c-5.4-5.4-9.6-11.7-12.6-18.7c-3.1-7.2-4.6-14.9-4.6-22.9H750
			c0,34.5,28,62.5,62.5,62.5S875,97,875,62.5h-3.8C871.3,70.4,869.7,78.1,866.6,85.4z"/>
		<path class="st0" d="M860.3,82.7c-2.6,6.1-6.3,11.7-11.1,16.5s-10.4,8.5-16.5,11.1c-6.4,2.7-13.2,4.1-20.2,4.1s-13.8-1.4-20.2-4.1
			c-6.1-2.6-11.7-6.3-16.5-11.1s-8.5-10.4-11.1-16.5c-2.7-6.4-4.1-13.2-4.1-20.2h-3.8c0,30.7,24.9,55.6,55.6,55.6
			s55.6-24.9,55.6-55.6h-3.8C864.4,69.5,863,76.3,860.3,82.7z"/>
		<path class="st0" d="M844.3,94.3c-8.5,8.5-19.8,13.2-31.8,13.2c-12,0-23.3-4.7-31.8-13.2s-13.2-19.8-13.2-31.8h-3.8
			c0,26.9,21.8,48.8,48.8,48.8s48.8-21.8,48.8-48.8h-3.8C857.5,74.5,852.8,85.8,844.3,94.3z"/>
		<path class="st0" d="M839.5,89.5c-7.2,7.2-16.8,11.2-27,11.2c-10.2,0-19.8-4-27-11.2c-7.2-7.2-11.2-16.8-11.2-27h-3.8
			c0,23.1,18.7,41.9,41.9,41.9s41.9-18.7,41.9-41.9h-3.8C850.6,72.7,846.7,82.3,839.5,89.5z"/>
		<path class="st0" d="M834.6,84.6c-5.9,5.9-13.7,9.2-22.1,9.2s-16.2-3.3-22.1-9.2c-5.9-5.9-9.2-13.7-9.2-22.1h-3.8
			c0,19.3,15.7,35,35,35s35-15.7,35-35h-3.8C843.8,70.8,840.5,78.7,834.6,84.6z"/>
	</g>
	<g>
		<path class="st1" d="M906.3,85c6,0,11.7-2.3,15.9-6.6s6.6-9.9,6.6-15.9h-1.6c0,11.6-9.4,20.9-20.9,20.9s-20.9-9.4-20.9-20.9h-1.6
			c0,6,2.3,11.7,6.6,15.9S900.2,85,906.3,85z"/>
		<path class="st1" d="M887.9,80.8c2.4,2.4,5.2,4.3,8.2,5.6c3.2,1.3,6.6,2,10.1,2s6.9-0.7,10.1-2c3.1-1.3,5.9-3.2,8.2-5.6
			s4.3-5.2,5.6-8.2c1.3-3.2,2-6.6,2-10.1h-1.6c0,13.5-10.9,24.4-24.4,24.4S881.9,76,881.9,62.5h-1.6c0,3.5,0.7,6.9,2,10.1
			C883.6,75.7,885.5,78.4,887.9,80.8z"/>
		<path class="st1" d="M906.3,81.6c5.1,0,9.9-2,13.5-5.6c3.6-3.6,5.6-8.4,5.6-13.5h-1.6c0,9.7-7.8,17.5-17.5,17.5
			s-17.5-7.8-17.5-17.5h-1.6c0,5.1,2,9.9,5.6,13.5C896.4,79.6,901.2,81.6,906.3,81.6z"/>
		<path class="st1" d="M885.5,83.3c2.7,2.7,5.8,4.8,9.3,6.3c3.6,1.5,7.5,2.3,11.4,2.3s7.8-0.8,11.4-2.3c3.5-1.5,6.6-3.6,9.3-6.3
			s4.8-5.8,6.3-9.3c1.5-3.6,2.3-7.5,2.3-11.4h-1.6c0,15.4-12.5,27.8-27.8,27.8s-27.8-12.5-27.8-27.8h-1.6c0,4,0.8,7.8,2.3,11.4
			C880.7,77.4,882.8,80.6,885.5,83.3z"/>
		<path class="st0" d="M933.3,73.9c-1.5,3.5-3.6,6.6-6.3,9.3s-5.8,4.8-9.3,6.3c-3.6,1.5-7.5,2.3-11.4,2.3s-7.8-0.8-11.4-2.3
			c-3.5-1.5-6.6-3.6-9.3-6.3c-2.7-2.7-4.8-5.8-6.3-9.3c-1.5-3.6-2.3-7.5-2.3-11.4H875c0,17.3,14,31.3,31.3,31.3s31.3-14,31.3-31.3
			h-1.9C935.6,66.5,934.8,70.3,933.3,73.9z"/>
		<path class="st0" d="M930.2,72.6c-1.3,3.1-3.2,5.9-5.6,8.2s-5.2,4.3-8.2,5.6c-3.2,1.3-6.6,2-10.1,2s-6.9-0.7-10.1-2
			c-3.1-1.3-5.9-3.2-8.2-5.6s-4.3-5.2-5.6-8.2c-1.3-3.2-2-6.6-2-10.1h-1.9c0,15.4,12.5,27.8,27.8,27.8s27.8-12.5,27.8-27.8h-1.9
			C932.2,66,931.5,69.4,930.2,72.6z"/>
		<path class="st0" d="M922.2,78.4c-4.2,4.2-9.9,6.6-15.9,6.6s-11.7-2.3-15.9-6.6s-6.6-9.9-6.6-15.9h-1.9
			c0,13.5,10.9,24.4,24.4,24.4s24.4-10.9,24.4-24.4h-1.9C928.8,68.5,926.4,74.2,922.2,78.4z"/>
		<path class="st0" d="M919.7,76c-3.6,3.6-8.4,5.6-13.5,5.6s-9.9-2-13.5-5.6c-3.6-3.6-5.6-8.4-5.6-13.5h-1.9
			c0,11.6,9.4,20.9,20.9,20.9s20.9-9.4,20.9-20.9h-1.9C925.3,67.6,923.3,72.4,919.7,76z"/>
		<path class="st0" d="M917.3,73.5c-3,3-6.9,4.6-11,4.6s-8.1-1.6-11-4.6c-3-3-4.6-6.9-4.6-11h-1.9c0,9.7,7.8,17.5,17.5,17.5
			s17.5-7.8,17.5-17.5h-1.9C921.9,66.7,920.2,70.6,917.3,73.5z"/>
	</g>
</g>
<g>
	<g>
		<path class="st1" d="M937.5,45c-12,0-23.3-4.7-31.8-13.2S892.5,12,892.5,0l3.1,0c0,23.1,18.7,41.9,41.9,41.9
			c23.1,0,41.9-18.7,41.9-41.9l3.1,0c0,12-4.7,23.3-13.2,31.8C960.8,40.3,949.5,45,937.5,45z"/>
		<path class="st1" d="M974.2,36.7c-4.8,4.8-10.4,8.5-16.5,11.1c-6.4,2.7-13.2,4.1-20.2,4.1s-13.8-1.4-20.2-4.1
			c-6.1-2.6-11.7-6.3-16.5-11.1c-4.8-4.8-8.5-10.4-11.1-16.5C887,13.8,885.6,7,885.6,0l3.1,0c0,26.9,21.8,48.8,48.8,48.8
			S986.3,26.9,986.3,0l3.1,0c0,7-1.4,13.8-4.1,20.2C982.7,26.3,979,31.9,974.2,36.7z"/>
		<path class="st1" d="M937.5,38.1c-10.2,0-19.8-4-27-11.2c-7.2-7.2-11.2-16.8-11.2-27l3.1,0c0,19.3,15.7,35,35,35s35-15.7,35-35
			l3.1,0c0,10.2-4,19.8-11.2,27C957.3,34.2,947.7,38.1,937.5,38.1z"/>
		<path class="st1" d="M979,41.5c-5.4,5.4-11.7,9.6-18.7,12.6c-7.2,3.1-14.9,4.6-22.9,4.6s-15.6-1.6-22.9-4.6
			c-7-3-13.3-7.2-18.7-12.6s-9.6-11.7-12.6-18.7c-3.1-7.2-4.6-14.9-4.6-22.9l3.1,0c0,30.7,24.9,55.6,55.6,55.6S993.1,30.7,993.1,0
			l3.1,0c0,7.9-1.6,15.6-4.6,22.9C988.7,29.9,984.4,36.1,979,41.5z"/>
		<path class="st0" d="M883.4,22.9c3,7,7.2,13.3,12.6,18.7s11.7,9.6,18.7,12.6c7.2,3.1,14.9,4.6,22.9,4.6s15.6-1.6,22.9-4.6
			c7-3,13.3-7.2,18.7-12.6c5.4-5.4,9.6-11.7,12.6-18.7c3.1-7.2,4.6-14.9,4.6-22.9l3.8,0c0,34.5-28,62.5-62.5,62.5S875,34.5,875,0
			l3.8,0C878.8,7.9,880.3,15.6,883.4,22.9z"/>
		<path class="st0" d="M889.7,20.2c2.6,6.1,6.3,11.7,11.1,16.5c4.8,4.8,10.4,8.5,16.5,11.1c6.4,2.7,13.2,4.1,20.2,4.1
			s13.8-1.4,20.2-4.1c6.1-2.6,11.7-6.3,16.5-11.1s8.5-10.4,11.1-16.5C988,13.8,989.4,7,989.4,0l3.8,0c0,30.7-24.9,55.6-55.6,55.6
			S881.9,30.7,881.9,0l3.8,0C885.6,7,887,13.8,889.7,20.2z"/>
		<path class="st0" d="M905.7,31.8c8.5,8.5,19.8,13.2,31.8,13.2s23.3-4.7,31.8-13.2c8.5-8.5,13.2-19.8,13.2-31.8l3.8,0
			c0,26.9-21.8,48.8-48.8,48.8S888.8,26.9,888.8,0l3.8,0C892.5,12,897.2,23.3,905.7,31.8z"/>
		<path class="st0" d="M910.5,27c7.2,7.2,16.8,11.2,27,11.2s19.8-4,27-11.2c7.2-7.2,11.2-16.8,11.2-27l3.8,0
			c0,23.1-18.7,41.9-41.9,41.9c-23.1,0-41.9-18.7-41.9-41.9l3.8,0C899.4,10.2,903.3,19.8,910.5,27z"/>
		<path class="st0" d="M915.4,22.1c5.9,5.9,13.7,9.2,22.1,9.2s16.2-3.3,22.1-9.2c5.9-5.9,9.2-13.7,9.2-22.1l3.8,0
			c0,19.3-15.7,35-35,35s-35-15.7-35-35l3.8,0C906.3,8.3,909.5,16.2,915.4,22.1z"/>
	</g>
	<g>
		<path class="st1" d="M843.8,22.5c-6,0-11.7-2.3-15.9-6.6S821.3,6,821.3,0l1.6,0c0,11.6,9.4,20.9,20.9,20.9s20.9-9.4,20.9-20.9
			l1.6,0c0,6-2.3,11.7-6.6,15.9S849.8,22.5,843.8,22.5z"/>
		<path class="st1" d="M862.1,18.3c-2.4,2.4-5.2,4.3-8.2,5.6c-3.2,1.3-6.6,2-10.1,2s-6.9-0.7-10.1-2c-3.1-1.3-5.9-3.2-8.2-5.6
			s-4.3-5.2-5.6-8.2c-1.3-3.2-2-6.6-2-10.1l1.6,0c0,13.5,10.9,24.4,24.4,24.4c13.5,0,24.4-10.9,24.4-24.4l1.6,0
			c0,3.5-0.7,6.9-2,10.1C866.4,13.2,864.5,15.9,862.1,18.3z"/>
		<path class="st1" d="M843.8,19.1c-5.1,0-9.9-2-13.5-5.6c-3.6-3.6-5.6-8.4-5.6-13.5l1.6,0c0,9.7,7.8,17.5,17.5,17.5
			S861.3,9.7,861.3,0l1.6,0c0,5.1-2,9.9-5.6,13.5C853.6,17.1,848.8,19.1,843.8,19.1z"/>
		<path class="st1" d="M864.5,20.8c-2.7,2.7-5.8,4.8-9.3,6.3c-3.6,1.5-7.5,2.3-11.4,2.3s-7.8-0.8-11.4-2.3c-3.5-1.5-6.6-3.6-9.3-6.3
			c-2.7-2.7-4.8-5.8-6.3-9.3c-1.5-3.6-2.3-7.5-2.3-11.4l1.6,0c0,15.4,12.5,27.8,27.8,27.8S871.6,15.4,871.6,0l1.6,0
			c0,4-0.8,7.8-2.3,11.4C869.3,14.9,867.2,18.1,864.5,20.8z"/>
		<path class="st0" d="M816.7,11.4c1.5,3.5,3.6,6.6,6.3,9.3c2.7,2.7,5.8,4.8,9.3,6.3c3.6,1.5,7.5,2.3,11.4,2.3s7.8-0.8,11.4-2.3
			c3.5-1.5,6.6-3.6,9.3-6.3c2.7-2.7,4.8-5.8,6.3-9.3c1.5-3.6,2.3-7.5,2.3-11.4l1.9,0c0,17.3-14,31.3-31.3,31.3s-31.3-14-31.3-31.3
			l1.9,0C814.4,4,815.2,7.8,816.7,11.4z"/>
		<path class="st0" d="M819.8,10.1c1.3,3.1,3.2,5.9,5.6,8.2s5.2,4.3,8.2,5.6c3.2,1.3,6.6,2,10.1,2s6.9-0.7,10.1-2
			c3.1-1.3,5.9-3.2,8.2-5.6s4.3-5.2,5.6-8.2c1.3-3.2,2-6.6,2-10.1l1.9,0c0,15.4-12.5,27.8-27.8,27.8S815.9,15.4,815.9,0l1.9,0
			C817.8,3.5,818.5,6.9,819.8,10.1z"/>
		<path class="st0" d="M827.8,15.9c4.2,4.2,9.9,6.6,15.9,6.6s11.7-2.3,15.9-6.6S866.3,6,866.3,0l1.9,0c0,13.5-10.9,24.4-24.4,24.4
			c-13.5,0-24.4-10.9-24.4-24.4l1.9,0C821.3,6,823.6,11.7,827.8,15.9z"/>
		<path class="st0" d="M830.3,13.5c3.6,3.6,8.4,5.6,13.5,5.6s9.9-2,13.5-5.6c3.6-3.6,5.6-8.4,5.6-13.5l1.9,0
			c0,11.6-9.4,20.9-20.9,20.9S822.8,11.6,822.8,0l1.9,0C824.7,5.1,826.7,9.9,830.3,13.5z"/>
		<path class="st0" d="M832.7,11c3,3,6.9,4.6,11,4.6s8.1-1.6,11-4.6c3-3,4.6-6.9,4.6-11l1.9,0c0,9.7-7.8,17.5-17.5,17.5
			S826.3,9.7,826.3,0l1.9,0C828.1,4.2,829.8,8.1,832.7,11z"/>
	</g>
</g>
<g>
	<g>
		<path class="st1" d="M437.5,482.5c-12,0-23.3-4.7-31.8-13.2c-8.5-8.5-13.2-19.8-13.2-31.8h3.1c0,23.1,18.7,41.9,41.9,41.9
			s41.9-18.7,41.9-41.9h3.1c0,12-4.7,23.3-13.2,31.8C460.8,477.8,449.5,482.5,437.5,482.5z"/>
		<path class="st1" d="M474.2,474.2c-4.8,4.8-10.4,8.5-16.5,11.1c-6.4,2.7-13.2,4.1-20.2,4.1s-13.8-1.4-20.2-4.1
			c-6.1-2.6-11.7-6.3-16.5-11.1c-4.8-4.8-8.5-10.4-11.1-16.5c-2.7-6.4-4.1-13.2-4.1-20.2h3.1c0,26.9,21.8,48.8,48.8,48.8
			s48.8-21.8,48.8-48.8h3.1c0,7-1.4,13.8-4.1,20.2C482.7,463.8,479,469.4,474.2,474.2z"/>
		<path class="st1" d="M437.5,475.6c-10.2,0-19.8-4-27-11.2s-11.2-16.8-11.2-27h3.1c0,19.3,15.7,35,35,35s35-15.7,35-35h3.1
			c0,10.2-4,19.8-11.2,27C457.3,471.7,447.7,475.6,437.5,475.6z"/>
		<path class="st1" d="M479,479c-5.4,5.4-11.7,9.6-18.7,12.6c-7.2,3.1-14.9,4.6-22.9,4.6c-7.9,0-15.6-1.6-22.9-4.6
			c-7-3-13.3-7.2-18.7-12.6c-5.4-5.4-9.6-11.7-12.6-18.7c-3.1-7.2-4.6-14.9-4.6-22.9h3.1c0,30.7,24.9,55.6,55.6,55.6
			s55.6-24.9,55.6-55.6h3.1c0,7.9-1.6,15.6-4.6,22.9C488.7,467.4,484.4,473.6,479,479z"/>
		<path class="st0" d="M383.4,460.4c3,7,7.2,13.3,12.6,18.7c5.4,5.4,11.7,9.6,18.7,12.6c7.2,3.1,14.9,4.6,22.9,4.6
			c7.9,0,15.6-1.6,22.9-4.6c7-3,13.3-7.2,18.7-12.6s9.6-11.7,12.6-18.7c3.1-7.2,4.6-14.9,4.6-22.9h3.8c0,34.5-28,62.5-62.5,62.5
			S375,472,375,437.5h3.8C378.8,445.4,380.3,453.1,383.4,460.4z"/>
		<path class="st0" d="M389.7,457.7c2.6,6.1,6.3,11.7,11.1,16.5c4.8,4.8,10.4,8.5,16.5,11.1c6.4,2.7,13.2,4.1,20.2,4.1
			s13.8-1.4,20.2-4.1c6.1-2.6,11.7-6.3,16.5-11.1s8.5-10.4,11.1-16.5c2.7-6.4,4.1-13.2,4.1-20.2h3.8c0,30.7-24.9,55.6-55.6,55.6
			s-55.6-24.9-55.6-55.6h3.8C385.6,444.5,387,451.3,389.7,457.7z"/>
		<path class="st0" d="M405.7,469.3c8.5,8.5,19.8,13.2,31.8,13.2s23.3-4.7,31.8-13.2c8.5-8.5,13.2-19.8,13.2-31.8h3.8
			c0,26.9-21.8,48.8-48.8,48.8s-48.8-21.8-48.8-48.8h3.8C392.5,449.5,397.2,460.8,405.7,469.3z"/>
		<path class="st0" d="M410.5,464.5c7.2,7.2,16.8,11.2,27,11.2c10.2,0,19.8-4,27-11.2c7.2-7.2,11.2-16.8,11.2-27h3.8
			c0,23.1-18.7,41.9-41.9,41.9s-41.9-18.7-41.9-41.9h3.8C399.4,447.7,403.3,457.3,410.5,464.5z"/>
		<path class="st0" d="M415.4,459.6c5.9,5.9,13.7,9.2,22.1,9.2s16.2-3.3,22.1-9.2c5.9-5.9,9.2-13.7,9.2-22.1h3.8
			c0,19.3-15.7,35-35,35s-35-15.7-35-35h3.8C406.3,445.8,409.5,453.7,415.4,459.6z"/>
	</g>
	<g>
		<path class="st1" d="M343.8,460c-6,0-11.7-2.3-15.9-6.6c-4.2-4.2-6.6-9.9-6.6-15.9h1.6c0,11.6,9.4,20.9,20.9,20.9
			c11.6,0,20.9-9.4,20.9-20.9h1.6c0,6-2.3,11.7-6.6,15.9C355.4,457.7,349.8,460,343.8,460z"/>
		<path class="st1" d="M362.1,455.8c-2.4,2.4-5.2,4.3-8.2,5.6c-3.2,1.3-6.6,2-10.1,2s-6.9-0.7-10.1-2c-3.1-1.3-5.9-3.2-8.2-5.6
			c-2.4-2.4-4.3-5.2-5.6-8.2c-1.3-3.2-2-6.6-2-10.1h1.6c0,13.5,10.9,24.4,24.4,24.4s24.4-10.9,24.4-24.4h1.6c0,3.5-0.7,6.9-2,10.1
			C366.4,450.7,364.5,453.4,362.1,455.8z"/>
		<path class="st1" d="M343.8,456.6c-5.1,0-9.9-2-13.5-5.6s-5.6-8.4-5.6-13.5h1.6c0,9.7,7.8,17.5,17.5,17.5s17.5-7.8,17.5-17.5h1.6
			c0,5.1-2,9.9-5.6,13.5S348.8,456.6,343.8,456.6z"/>
		<path class="st1" d="M364.5,458.3c-2.7,2.7-5.8,4.8-9.3,6.3c-3.6,1.5-7.5,2.3-11.4,2.3s-7.8-0.8-11.4-2.3
			c-3.5-1.5-6.6-3.6-9.3-6.3c-2.7-2.7-4.8-5.8-6.3-9.3c-1.5-3.6-2.3-7.5-2.3-11.4h1.6c0,15.4,12.5,27.8,27.8,27.8
			s27.8-12.5,27.8-27.8h1.6c0,4-0.8,7.8-2.3,11.4C369.3,452.4,367.2,455.6,364.5,458.3z"/>
		<path class="st0" d="M316.7,448.9c1.5,3.5,3.6,6.6,6.3,9.3c2.7,2.7,5.8,4.8,9.3,6.3c3.6,1.5,7.5,2.3,11.4,2.3s7.8-0.8,11.4-2.3
			c3.5-1.5,6.6-3.6,9.3-6.3c2.7-2.7,4.8-5.8,6.3-9.3c1.5-3.6,2.3-7.5,2.3-11.4h1.9c0,17.3-14,31.3-31.3,31.3s-31.3-14-31.3-31.3h1.9
			C314.4,441.5,315.2,445.3,316.7,448.9z"/>
		<path class="st0" d="M319.8,447.6c1.3,3.1,3.2,5.9,5.6,8.2c2.4,2.4,5.2,4.3,8.2,5.6c3.2,1.3,6.6,2,10.1,2s6.9-0.7,10.1-2
			c3.1-1.3,5.9-3.2,8.2-5.6s4.3-5.2,5.6-8.2c1.3-3.2,2-6.6,2-10.1h1.9c0,15.4-12.5,27.8-27.8,27.8s-27.8-12.5-27.8-27.8h1.9
			C317.8,441,318.5,444.4,319.8,447.6z"/>
		<path class="st0" d="M327.8,453.4c4.2,4.2,9.9,6.6,15.9,6.6s11.7-2.3,15.9-6.6c4.2-4.2,6.6-9.9,6.6-15.9h1.9
			c0,13.5-10.9,24.4-24.4,24.4s-24.4-10.9-24.4-24.4h1.9C321.3,443.5,323.6,449.2,327.8,453.4z"/>
		<path class="st0" d="M330.3,451c3.6,3.6,8.4,5.6,13.5,5.6s9.9-2,13.5-5.6s5.6-8.4,5.6-13.5h1.9c0,11.6-9.4,20.9-20.9,20.9
			c-11.6,0-20.9-9.4-20.9-20.9h1.9C324.7,442.6,326.7,447.4,330.3,451z"/>
		<path class="st0" d="M332.7,448.5c3,3,6.9,4.6,11,4.6s8.1-1.6,11-4.6c3-3,4.6-6.9,4.6-11h1.9c0,9.7-7.8,17.5-17.5,17.5
			s-17.5-7.8-17.5-17.5h1.9C328.1,441.7,329.8,445.6,332.7,448.5z"/>
	</g>
</g>
<g>
	<g>
		<path class="st1" d="M187.5,357.5c-12,0-23.3-4.7-31.8-13.2c-8.5-8.5-13.2-19.8-13.2-31.8h3.1c0,23.1,18.7,41.9,41.9,41.9
			s41.9-18.7,41.9-41.9h3.1c0,12-4.7,23.3-13.2,31.8C210.8,352.8,199.5,357.5,187.5,357.5z"/>
		<path class="st1" d="M224.2,349.2c-4.8,4.8-10.4,8.5-16.5,11.1c-6.4,2.7-13.2,4.1-20.2,4.1c-7,0-13.8-1.4-20.2-4.1
			c-6.1-2.6-11.7-6.3-16.5-11.1c-4.8-4.8-8.5-10.4-11.1-16.5c-2.7-6.4-4.1-13.2-4.1-20.2h3.1c0,26.9,21.8,48.8,48.8,48.8
			s48.8-21.8,48.8-48.8h3.1c0,7-1.4,13.8-4.1,20.2C232.7,338.8,229,344.4,224.2,349.2z"/>
		<path class="st1" d="M187.5,350.6c-10.2,0-19.8-4-27-11.2s-11.2-16.8-11.2-27h3.1c0,19.3,15.7,35,35,35s35-15.7,35-35h3.1
			c0,10.2-4,19.8-11.2,27C207.3,346.7,197.7,350.6,187.5,350.6z"/>
		<path class="st1" d="M229,354c-5.4,5.4-11.7,9.6-18.7,12.6c-7.2,3.1-14.9,4.6-22.9,4.6c-7.9,0-15.6-1.6-22.9-4.6
			c-7-3-13.3-7.2-18.7-12.6c-5.4-5.4-9.6-11.7-12.6-18.7c-3.1-7.2-4.6-14.9-4.6-22.9h3.1c0,30.7,24.9,55.6,55.6,55.6
			s55.6-24.9,55.6-55.6h3.1c0,7.9-1.6,15.6-4.6,22.9C238.7,342.4,234.4,348.6,229,354z"/>
		<path class="st0" d="M133.4,335.4c3,7,7.2,13.3,12.6,18.7c5.4,5.4,11.7,9.6,18.7,12.6c7.2,3.1,14.9,4.6,22.9,4.6
			c7.9,0,15.6-1.6,22.9-4.6c7-3,13.3-7.2,18.7-12.6s9.6-11.7,12.6-18.7c3.1-7.2,4.6-14.9,4.6-22.9h3.8c0,34.5-28,62.5-62.5,62.5
			S125,347,125,312.5h3.8C128.8,320.4,130.3,328.1,133.4,335.4z"/>
		<path class="st0" d="M139.7,332.7c2.6,6.1,6.3,11.7,11.1,16.5c4.8,4.8,10.4,8.5,16.5,11.1c6.4,2.7,13.2,4.1,20.2,4.1
			c7,0,13.8-1.4,20.2-4.1c6.1-2.6,11.7-6.3,16.5-11.1s8.5-10.4,11.1-16.5c2.7-6.4,4.1-13.2,4.1-20.2h3.8c0,30.7-24.9,55.6-55.6,55.6
			s-55.6-24.9-55.6-55.6h3.8C135.6,319.5,137,326.3,139.7,332.7z"/>
		<path class="st0" d="M155.7,344.3c8.5,8.5,19.8,13.2,31.8,13.2c12,0,23.3-4.7,31.8-13.2c8.5-8.5,13.2-19.8,13.2-31.8h3.8
			c0,26.9-21.8,48.8-48.8,48.8s-48.8-21.8-48.8-48.8h3.8C142.5,324.5,147.2,335.8,155.7,344.3z"/>
		<path class="st0" d="M160.5,339.5c7.2,7.2,16.8,11.2,27,11.2c10.2,0,19.8-4,27-11.2c7.2-7.2,11.2-16.8,11.2-27h3.8
			c0,23.1-18.7,41.9-41.9,41.9s-41.9-18.7-41.9-41.9h3.8C149.4,322.7,153.3,332.3,160.5,339.5z"/>
		<path class="st0" d="M165.4,334.6c5.9,5.9,13.7,9.2,22.1,9.2c8.3,0,16.2-3.3,22.1-9.2c5.9-5.9,9.2-13.7,9.2-22.1h3.8
			c0,19.3-15.7,35-35,35s-35-15.7-35-35h3.8C156.3,320.8,159.5,328.7,165.4,334.6z"/>
	</g>
	<g>
		<path class="st1" d="M93.8,335c-6,0-11.7-2.3-15.9-6.6c-4.2-4.2-6.6-9.9-6.6-15.9h1.6c0,11.6,9.4,20.9,20.9,20.9
			s20.9-9.4,20.9-20.9h1.6c0,6-2.3,11.7-6.6,15.9C105.4,332.7,99.8,335,93.8,335z"/>
		<path class="st1" d="M112.1,330.8c-2.4,2.4-5.2,4.3-8.2,5.6c-3.2,1.3-6.6,2-10.1,2c-3.5,0-6.9-0.7-10.1-2
			c-3.1-1.3-5.9-3.2-8.2-5.6c-2.4-2.4-4.3-5.2-5.6-8.2c-1.3-3.2-2-6.6-2-10.1h1.6c0,13.5,10.9,24.4,24.4,24.4s24.4-10.9,24.4-24.4
			h1.6c0,3.5-0.7,6.9-2,10.1C116.4,325.7,114.5,328.4,112.1,330.8z"/>
		<path class="st1" d="M93.8,331.6c-5.1,0-9.9-2-13.5-5.6s-5.6-8.4-5.6-13.5h1.6c0,9.7,7.8,17.5,17.5,17.5s17.5-7.8,17.5-17.5h1.6
			c0,5.1-2,9.9-5.6,13.5C103.6,329.6,98.8,331.6,93.8,331.6z"/>
		<path class="st1" d="M114.5,333.3c-2.7,2.7-5.8,4.8-9.3,6.3c-3.6,1.5-7.5,2.3-11.4,2.3c-4,0-7.8-0.8-11.4-2.3
			c-3.5-1.5-6.6-3.6-9.3-6.3c-2.7-2.7-4.8-5.8-6.3-9.3c-1.5-3.6-2.3-7.5-2.3-11.4h1.6c0,15.4,12.5,27.8,27.8,27.8
			s27.8-12.5,27.8-27.8h1.6c0,4-0.8,7.8-2.3,11.4C119.3,327.4,117.2,330.6,114.5,333.3z"/>
		<path class="st0" d="M66.7,323.9c1.5,3.5,3.6,6.6,6.3,9.3c2.7,2.7,5.8,4.8,9.3,6.3c3.6,1.5,7.5,2.3,11.4,2.3c4,0,7.8-0.8,11.4-2.3
			c3.5-1.5,6.6-3.6,9.3-6.3c2.7-2.7,4.8-5.8,6.3-9.3c1.5-3.6,2.3-7.5,2.3-11.4h1.9c0,17.3-14,31.3-31.3,31.3s-31.3-14-31.3-31.3h1.9
			C64.4,316.5,65.2,320.3,66.7,323.9z"/>
		<path class="st0" d="M69.8,322.6c1.3,3.1,3.2,5.9,5.6,8.2c2.4,2.4,5.2,4.3,8.2,5.6c3.2,1.3,6.6,2,10.1,2c3.5,0,6.9-0.7,10.1-2
			c3.1-1.3,5.9-3.2,8.2-5.6s4.3-5.2,5.6-8.2c1.3-3.2,2-6.6,2-10.1h1.9c0,15.4-12.5,27.8-27.8,27.8s-27.8-12.5-27.8-27.8h1.9
			C67.8,316,68.5,319.4,69.8,322.6z"/>
		<path class="st0" d="M77.8,328.4c4.2,4.2,9.9,6.6,15.9,6.6c6,0,11.7-2.3,15.9-6.6c4.2-4.2,6.6-9.9,6.6-15.9h1.9
			c0,13.5-10.9,24.4-24.4,24.4S69.4,326,69.4,312.5h1.9C71.3,318.5,73.6,324.2,77.8,328.4z"/>
		<path class="st0" d="M80.3,326c3.6,3.6,8.4,5.6,13.5,5.6c5.1,0,9.9-2,13.5-5.6c3.6-3.6,5.6-8.4,5.6-13.5h1.9
			c0,11.6-9.4,20.9-20.9,20.9s-20.9-9.4-20.9-20.9h1.9C74.7,317.6,76.7,322.4,80.3,326z"/>
		<path class="st0" d="M82.7,323.5c3,3,6.9,4.6,11,4.6c4.2,0,8.1-1.6,11-4.6c3-3,4.6-6.9,4.6-11h1.9c0,9.7-7.8,17.5-17.5,17.5
			s-17.5-7.8-17.5-17.5h1.9C78.1,316.7,79.8,320.6,82.7,323.5z"/>
	</g>
</g>
</svg>
