<?xml version="1.0" encoding="utf-8"?>
<!-- Generator: Adobe Illustrator 22.0.0, SVG Export Plug-In . SVG Version: 6.00 Build 0)  -->
<svg version="1.1" id="Layer_1" xmlns="http://www.w3.org/2000/svg" xmlns:xlink="http://www.w3.org/1999/xlink" x="0px" y="0px"
	 viewBox="0 0 1000 438" style="enable-background:new 0 0 1000 438;" xml:space="preserve">
<style type="text/css">
	.st0{fill:#FA5D59;}
	.st1{fill:#936DFC;}
</style>
<path class="st0" d="M250,438c138.1,0,250-111.9,250-250H0C0,326.1,111.9,438,250,438z"/>
<path class="st1" d="M750,250c138.1,0,250-111.9,250-250H500C500,138.1,611.9,250,750,250z"/>
<path class="st0" d="M125,188c69,0,125-56,125-125H0C0,132,56,188,125,188z"/>
<path class="st1" d="M375,188c69,0,125-56,125-125H250C250,132,306,188,375,188z"/>
<path class="st0" d="M625,375c69,0,125-56,125-125H500C500,319,556,375,625,375z"/>
<path class="st1" d="M875,375c69,0,125-56,125-125H750C750,319,806,375,875,375z"/>
<g>
	<path class="st1" d="M62.5,62.5C97,62.5,125,34.5,125,0H0C0,34.5,28,62.5,62.5,62.5z"/>
	<path class="st1" d="M187.5,62.5C222,62.5,250,34.5,250,0H125C125,34.5,153,62.5,187.5,62.5z"/>
</g>
<g>
	<path class="st0" d="M312.5,62.5C347,62.5,375,34.5,375,0H250C250,34.5,278,62.5,312.5,62.5z"/>
	<path class="st0" d="M437.5,62.5C472,62.5,500,34.5,500,0H375C375,34.5,403,62.5,437.5,62.5z"/>
</g>
<g>
	<path class="st1" d="M562.5,438c34.5,0,62.5-28,62.5-62.5H500C500,410,528,438,562.5,438z"/>
	<path class="st1" d="M687.5,438c34.5,0,62.5-28,62.5-62.5H625C625,410,653,438,687.5,438z"/>
</g>
<g>
	<path class="st0" d="M812.5,438c34.5,0,62.5-28,62.5-62.5H750C750,410,778,438,812.5,438z"/>
	<path class="st0" d="M937.5,438c34.5,0,62.5-28,62.5-62.5H875C875,410,903,438,937.5,438z"/>
</g>
</svg>
