<?xml version="1.0" encoding="utf-8"?>
<!-- Generator: Adobe Illustrator 22.0.0, SVG Export Plug-In . SVG Version: 6.00 Build 0)  -->
<svg version="1.1" id="Layer_1" xmlns="http://www.w3.org/2000/svg" xmlns:xlink="http://www.w3.org/1999/xlink" x="0px" y="0px"
	 viewBox="0 0 1000 500" style="enable-background:new 0 0 1000 500;" xml:space="preserve">
<style type="text/css">
	.st0{fill:#734BBE;}
	.st1{opacity:0;}
	.st2{fill:#B987F5;}
</style>
<g>
	<g>
		<g>
			<g>
				<path class="st0" d="M250,250c138.1,0,250-111.9,250-250H375c0,69-56,125-125,125S125,69,125,0H0C0,138.1,111.9,250,250,250z"/>
				<path class="st0" d="M750,500c138.1,0,250-111.9,250-250H875c0,69-56,125-125,125s-125-56-125-125H500
					C500,388.1,611.9,500,750,500z"/>
			</g>
		</g>
		<g>
			<g>
				<path class="st0" d="M62.5,437.5c34.5,0,62.5-28,62.5-62.5H93.8c0,17.3-14,31.3-31.3,31.3s-31.3-14-31.3-31.3H0
					C0,409.5,28,437.5,62.5,437.5z"/>
				<path class="st0" d="M187.5,500c34.5,0,62.5-28,62.5-62.5h-31.3c0,17.3-14,31.3-31.3,31.3s-31.3-14-31.3-31.3H125
					C125,472,153,500,187.5,500z"/>
			</g>
		</g>
		<g>
			<g>
				<path class="st0" d="M562.5,187.5c34.5,0,62.5-28,62.5-62.5h-31.3c0,17.3-14,31.3-31.3,31.3s-31.3-14-31.3-31.3H500
					C500,159.5,528,187.5,562.5,187.5z"/>
				<path class="st0" d="M687.5,250c34.5,0,62.5-28,62.5-62.5h-31.3c0,17.3-14,31.3-31.3,31.3s-31.3-14-31.3-31.3H625
					C625,222,653,250,687.5,250z"/>
			</g>
		</g>
		<g class="st1">
			<path class="st0" d="M375,250h15.6c0,8.7,7,15.7,15.6,15.7s15.6-7,15.6-15.6h15.6c0,17.3-14,31.3-31.3,31.3S375,267.3,375,250z"
				/>
			<path class="st0" d="M437.5,281.3h15.6c0,8.6,7,15.6,15.6,15.6s15.6-7,15.6-15.6H500c0,17.3-14,31.3-31.3,31.3
				S437.5,298.5,437.5,281.3z"/>
		</g>
		<g class="st1">
			<path class="st0" d="M875,0l15.6,0c0,8.7,7,15.7,15.6,15.7c8.7,0,15.7-7,15.7-15.6l15.6,0c0,17.3-14,31.3-31.3,31.3
				S875,17.3,875,0z"/>
			<path class="st0" d="M937.5,31.3h15.6c0,8.6,7,15.6,15.6,15.6c8.7,0,15.7-7,15.7-15.6h15.6c0,17.3-14,31.3-31.3,31.3
				S937.5,48.5,937.5,31.3z"/>
		</g>
		<g class="st1">
			<path class="st0" d="M843.8,93.8c-17.3,0-31.3-14-31.3-31.3h15.7c0,8.6,7,15.6,15.6,15.6c8.7,0,15.7-7,15.7-15.7H875
				C875,79.8,861,93.8,843.8,93.8z"/>
			<path class="st0" d="M781.3,125C764,125,750,111,750,93.8h15.7c0,8.6,7,15.6,15.6,15.6c8.7,0,15.7-7,15.7-15.6h15.5
				C812.5,111,798.5,125,781.3,125z"/>
		</g>
		<g class="st1">
			<path class="st0" d="M343.8,343.8c-17.3,0-31.3-14-31.3-31.3h15.6c0,8.6,7,15.6,15.6,15.6s15.6-7,15.6-15.6H375
				C375,329.8,361,343.8,343.8,343.8z"/>
			<path class="st0" d="M281.3,375c-17.3,0-31.3-14-31.3-31.3h15.6c0,8.6,7,15.6,15.6,15.6s15.6-7,15.6-15.6h15.6
				C312.5,361,298.5,375,281.3,375z"/>
		</g>
	</g>
</g>
<g>
	<g>
		<g>
			<path class="st2" d="M250,250h31.1c0,17.3,14,31.3,31.3,31.3s31.3-14,31.3-31.3H375c0,34.5-28,62.5-62.5,62.5S250,284.5,250,250z
				"/>
			<path class="st2" d="M375,312.5h31.1c0,17.3,14,31.3,31.3,31.3s31.3-14,31.3-31.3H500c0,34.5-28,62.5-62.5,62.5
				S375,347,375,312.5z"/>
		</g>
	</g>
	<g class="st1">
		<g>
			<path class="st2" d="M93.8,468.8c-17.3,0-31.3-14-31.3-31.3h15.6c0,8.6,7,15.6,15.6,15.6s15.6-7,15.6-15.6H125
				C125,454.8,111,468.8,93.8,468.8z"/>
			<path class="st2" d="M31.3,500C14,500,0,486,0,468.8h15.6c0,8.6,7,15.6,15.6,15.6s15.6-7,15.6-15.6h15.6
				C62.5,486,48.5,500,31.3,500z"/>
		</g>
	</g>
	<g class="st1">
		<g>
			<path class="st2" d="M125,375h15.6c0,8.6,7,15.6,15.6,15.6s15.6-7,15.6-15.6h15.6c0,17.3-14,31.3-31.3,31.3S125,392.3,125,375z"
				/>
			<path class="st2" d="M187.5,406.3h15.6c0,8.6,7,15.6,15.6,15.6s15.6-7,15.6-15.6H250c0,17.3-14,31.3-31.3,31.3
				S187.5,423.5,187.5,406.3z"/>
		</g>
	</g>
	<g class="st1">
		<g>
			<path class="st2" d="M625,125h15.5c0,8.6,7,15.6,15.7,15.6c8.6,0,15.6-7,15.6-15.6h15.7c0,17.2-14,31.2-31.3,31.2
				S625,142.3,625,125z"/>
			<path class="st2" d="M687.5,156.3H703c0,8.6,7,15.6,15.7,15.6c8.6,0,15.6-7,15.6-15.6H750c0,17.3-14,31.3-31.3,31.3
				S687.5,173.5,687.5,156.3z"/>
		</g>
	</g>
	<g class="st1">
		<g>
			<path class="st2" d="M593.8,218.8c-17.3,0-31.3-14-31.3-31.3h15.6c0,8.6,7,15.6,15.7,15.6c8.6,0,15.6-7,15.6-15.6H625
				C625,204.8,611,218.8,593.8,218.8z"/>
			<path class="st2" d="M531.3,250c-17.3,0-31.3-14-31.3-31.3h15.6c0,8.6,7,15.6,15.7,15.6c8.6,0,15.6-7,15.6-15.6h15.6
				C562.5,236,548.5,250,531.3,250z"/>
		</g>
	</g>
	<g>
		<g>
			<path class="st2" d="M125,375c69,0,125-56,125-125h-62.5c0,34.5-28,62.5-62.5,62.5s-62.5-28-62.5-62.5H0C0,319,56,375,125,375z"
				/>
			<path class="st2" d="M375,500c69,0,125-56,125-125h-62.5c0,34.5-28,62.5-62.5,62.5s-62.5-28-62.5-62.5H250
				C250,444,306,500,375,500z"/>
		</g>
	</g>
	<g>
		<g>
			<path class="st2" d="M812.5,62.5C847,62.5,875,34.5,875,0l-31.3,0c0,17.3-14,31.3-31.3,31.3s-31.3-14-31.3-31.3H750
				C750,34.5,778,62.5,812.5,62.5z"/>
			<path class="st2" d="M937.5,125c34.5,0,62.5-28,62.5-62.5h-31.3c0,17.3-14,31.3-31.3,31.3s-31.3-14-31.3-31.3H875
				C875,97,903,125,937.5,125z"/>
		</g>
	</g>
	<g>
		<g>
			<path class="st2" d="M500,0l62.5,0c0,34.5,28,62.5,62.5,62.5s62.5-28,62.5-62.5L750,0c0,69-56,125-125,125S500,69,500,0z"/>
			<path class="st2" d="M750,125h62.5c0,34.5,28,62.5,62.5,62.5s62.5-28,62.5-62.5h62.5c0,69-56,125-125,125S750,194,750,125z"/>
		</g>
	</g>
</g>
</svg>
