<?xml version="1.0" encoding="utf-8"?>
<!-- Generator: Adobe Illustrator 22.0.0, SVG Export Plug-In . SVG Version: 6.00 Build 0)  -->
<svg version="1.1" id="Layer_1" xmlns="http://www.w3.org/2000/svg" xmlns:xlink="http://www.w3.org/1999/xlink" x="0px" y="0px"
	 viewBox="0 0 1000 500" style="enable-background:new 0 0 1000 500;" xml:space="preserve">
<style type="text/css">
	.st0{fill:#211432;}
	.st1{fill:url(#SVGID_1_);}
	.st2{fill:url(#SVGID_2_);}
	.st3{fill:url(#SVGID_3_);}
	.st4{fill:url(#SVGID_4_);}
	.st5{fill:url(#SVGID_5_);}
	.st6{fill:url(#SVGID_6_);}
	.st7{fill:url(#SVGID_7_);}
	.st8{fill:url(#SVGID_8_);}
	.st9{fill:url(#SVGID_9_);}
	.st10{fill:url(#SVGID_10_);}
	.st11{fill:url(#SVGID_11_);}
	.st12{fill:url(#SVGID_12_);}
	.st13{fill:url(#SVGID_13_);}
	.st14{fill:url(#SVGID_14_);}
	.st15{fill:url(#SVGID_15_);}
	.st16{fill:url(#SVGID_16_);}
	.st17{fill:url(#SVGID_17_);}
	.st18{fill:url(#SVGID_18_);}
	.st19{fill:url(#SVGID_19_);}
	.st20{fill:url(#SVGID_20_);}
	.st21{fill:#5F32B4;}
</style>
<rect x="-1235" y="-226.5" class="st0" width="2437.5" height="953"/>
<g>
	<g>
		
			<radialGradient id="SVGID_1_" cx="441.967" cy="378.253" r="124.6925" gradientTransform="matrix(1 0 0 1 -316.967 0)" gradientUnits="userSpaceOnUse">
			<stop  offset="0.5641" style="stop-color:#734BBE"/>
			<stop  offset="1" style="stop-color:#491F83"/>
		</radialGradient>
		<path class="st1" d="M125,500c69.1,0,125-56,125-125h-62.5c0,34.5-28,62.5-62.5,62.5s-62.5-28-62.5-62.5H0C0,444,56,500,125,500z"
			/>
		
			<radialGradient id="SVGID_2_" cx="629.467" cy="374.7516" r="63.2097" fx="626.9639" fy="374.6256" gradientTransform="matrix(1 0 0 1 -316.967 0)" gradientUnits="userSpaceOnUse">
			<stop  offset="0.5641" style="stop-color:#734BBE"/>
			<stop  offset="1" style="stop-color:#491F83"/>
		</radialGradient>
		<path class="st2" d="M250,375h31.3c0,17.3,14,31.3,31.3,31.3s31.3-14,31.3-31.3H375c0,34.5-28,62.5-62.5,62.5S250,409.5,250,375z"
			/>
	</g>
	<g>
		
			<radialGradient id="SVGID_3_" cx="1129.467" cy="64.1265" r="62.3462" gradientTransform="matrix(1 0 0 1 -316.967 0)" gradientUnits="userSpaceOnUse">
			<stop  offset="0.5641" style="stop-color:#734BBE"/>
			<stop  offset="1" style="stop-color:#491F83"/>
		</radialGradient>
		<path class="st3" d="M812.5,125C847,125,875,97,875,62.5h-31.3c0,17.3-14,31.3-31.3,31.3s-31.3-14-31.3-31.3H750
			C750,97,778,125,812.5,125z"/>
		
			<radialGradient id="SVGID_4_" cx="1223.217" cy="62.3758" r="31.6049" fx="1221.9656" fy="62.3128" gradientTransform="matrix(1 0 0 1 -316.967 0)" gradientUnits="userSpaceOnUse">
			<stop  offset="0.5641" style="stop-color:#734BBE"/>
			<stop  offset="1" style="stop-color:#491F83"/>
		</radialGradient>
		<path class="st4" d="M875,62.5h15.6c0,8.6,7,15.6,15.6,15.6s15.6-7,15.6-15.6h15.6c0,17.3-14,31.3-31.3,31.3S875,79.8,875,62.5z"
			/>
	</g>
	<g>
		
			<radialGradient id="SVGID_5_" cx="879.467" cy="189.1265" r="62.3462" gradientTransform="matrix(1 0 0 1 -316.967 0)" gradientUnits="userSpaceOnUse">
			<stop  offset="0.5641" style="stop-color:#734BBE"/>
			<stop  offset="1" style="stop-color:#491F83"/>
		</radialGradient>
		<path class="st5" d="M562.5,250c34.5,0,62.5-28,62.5-62.5h-31.3c0,17.3-14,31.3-31.3,31.3s-31.3-14-31.3-31.3H500
			C500,222,528,250,562.5,250z"/>
		
			<radialGradient id="SVGID_6_" cx="973.217" cy="187.3758" r="31.6049" fx="971.9655" fy="187.3128" gradientTransform="matrix(1 0 0 1 -316.967 0)" gradientUnits="userSpaceOnUse">
			<stop  offset="0.5641" style="stop-color:#734BBE"/>
			<stop  offset="1" style="stop-color:#491F83"/>
		</radialGradient>
		<path class="st6" d="M625,187.5h15.6c0,8.6,7,15.6,15.6,15.6s15.6-7,15.6-15.6h15.6c0,17.3-14,31.3-31.3,31.3S625,204.8,625,187.5
			z"/>
	</g>
	<g>
		
			<radialGradient id="SVGID_7_" cx="379.467" cy="251.6265" r="62.3462" gradientTransform="matrix(1 0 0 1 -316.967 0)" gradientUnits="userSpaceOnUse">
			<stop  offset="0.5641" style="stop-color:#734BBE"/>
			<stop  offset="1" style="stop-color:#491F83"/>
		</radialGradient>
		<path class="st7" d="M62.5,312.5c34.5,0,62.5-28,62.5-62.5H93.8c0,17.3-14,31.3-31.3,31.2c-17.3,0-31.3-14-31.3-31.2H0
			C0,284.5,28,312.5,62.5,312.5z"/>
		
			<radialGradient id="SVGID_8_" cx="473.217" cy="249.8758" r="31.6049" fx="471.9655" fy="249.8128" gradientTransform="matrix(1 0 0 1 -316.967 0)" gradientUnits="userSpaceOnUse">
			<stop  offset="0.5641" style="stop-color:#734BBE"/>
			<stop  offset="1" style="stop-color:#491F83"/>
		</radialGradient>
		<path class="st8" d="M125,250h15.6c0,8.6,7,15.6,15.6,15.6c8.6,0,15.6-7,15.6-15.6h15.6c0,17.3-14,31.3-31.3,31.2
			C139,281.2,125,267.3,125,250z"/>
	</g>
	<g>
		<radialGradient id="SVGID_9_" cx="250" cy="6.5059" r="249.3849" gradientUnits="userSpaceOnUse">
			<stop  offset="0.5641" style="stop-color:#734BBE"/>
			<stop  offset="1" style="stop-color:#491F83"/>
		</radialGradient>
		<path class="st9" d="M250,250c138.1,0,250-111.9,250-250H375c0,69-56,125-125,125S125,69,125,0H0C0,138.1,111.9,250,250,250z"/>
		<radialGradient id="SVGID_10_" cx="625" cy="-0.4969" r="126.4195" fx="619.9939" fy="-0.7487" gradientUnits="userSpaceOnUse">
			<stop  offset="0.5641" style="stop-color:#734BBE"/>
			<stop  offset="1" style="stop-color:#491F83"/>
		</radialGradient>
		<path class="st10" d="M500,0h62.5c0,34.5,28,62.5,62.5,62.5s62.5-28,62.5-62.5H750c0,69-56,125-125,125S500,69,500,0z"/>
	</g>
</g>
<g>
	<g>
		
			<radialGradient id="SVGID_11_" cx="-218" cy="256.5059" r="249.3849" gradientTransform="matrix(-1 0 0 1 532 0)" gradientUnits="userSpaceOnUse">
			<stop  offset="0.5744" style="stop-color:#B987F5"/>
			<stop  offset="1" style="stop-color:#734BBE"/>
		</radialGradient>
		<path class="st11" d="M1000,250H875c0,69-56,125-125,125s-125-56-125-125H500c0,138.1,111.9,250,250,250S1000,388.1,1000,250z"/>
		
			<radialGradient id="SVGID_12_" cx="157" cy="249.5031" r="126.4195" fx="151.9939" fy="249.2513" gradientTransform="matrix(-1 0 0 1 532 0)" gradientUnits="userSpaceOnUse">
			<stop  offset="0.5744" style="stop-color:#B987F5"/>
			<stop  offset="1" style="stop-color:#734BBE"/>
		</radialGradient>
		<path class="st12" d="M375,375c-69,0-125-56-125-125h62.5c0,34.5,28,62.5,62.5,62.5s62.5-28,62.5-62.5H500
			C500,319,444,375,375,375z"/>
	</g>
	<g>
		
			<radialGradient id="SVGID_13_" cx="-343" cy="128.253" r="124.6925" gradientTransform="matrix(-1 0 0 1 532 0)" gradientUnits="userSpaceOnUse">
			<stop  offset="0.5744" style="stop-color:#B987F5"/>
			<stop  offset="1" style="stop-color:#734BBE"/>
		</radialGradient>
		<path class="st13" d="M1000,125h-62.5c0,34.5-28,62.5-62.5,62.5s-62.5-28-62.5-62.5H750c0,69.1,56,125,125,125
			S1000,194.1,1000,125z"/>
		
			<radialGradient id="SVGID_14_" cx="-155.5" cy="124.7516" r="63.2097" fx="-158.003" fy="124.6256" gradientTransform="matrix(-1 0 0 1 532 0)" gradientUnits="userSpaceOnUse">
			<stop  offset="0.5744" style="stop-color:#B987F5"/>
			<stop  offset="1" style="stop-color:#734BBE"/>
		</radialGradient>
		<path class="st14" d="M687.5,187.5c-34.5,0-62.5-28-62.5-62.5h31.3c0,17.3,14,31.3,31.3,31.3s31.3-14,31.3-31.3H750
			C750,159.5,722,187.5,687.5,187.5z"/>
	</g>
	<g>
		
			<radialGradient id="SVGID_15_" cx="-405.5" cy="1.6265" r="62.3462" gradientTransform="matrix(-1 0 0 1 532 0)" gradientUnits="userSpaceOnUse">
			<stop  offset="0.5744" style="stop-color:#B987F5"/>
			<stop  offset="1" style="stop-color:#734BBE"/>
		</radialGradient>
		<path class="st15" d="M1000,0l-31.3,0c0,17.3-14,31.3-31.3,31.3s-31.3-14-31.3-31.3L875,0c0,34.5,28,62.5,62.5,62.5
			S1000,34.5,1000,0z"/>
		
			<radialGradient id="SVGID_16_" cx="-311.75" cy="-0.1242" r="31.6049" fx="-313.0015" fy="-0.1872" gradientTransform="matrix(-1 0 0 1 532 0)" gradientUnits="userSpaceOnUse">
			<stop  offset="0.5744" style="stop-color:#B987F5"/>
			<stop  offset="1" style="stop-color:#734BBE"/>
		</radialGradient>
		<path class="st16" d="M843.8,31.3c-17.3,0-31.3-14-31.3-31.3l15.6,0c0,8.6,7,15.6,15.6,15.6s15.6-7,15.6-15.6L875,0
			C875,17.3,861,31.3,843.8,31.3z"/>
	</g>
	<g>
		
			<radialGradient id="SVGID_17_" cx="94.5" cy="439.1265" r="62.3462" gradientTransform="matrix(-1 0 0 1 532 0)" gradientUnits="userSpaceOnUse">
			<stop  offset="0.5744" style="stop-color:#B987F5"/>
			<stop  offset="1" style="stop-color:#734BBE"/>
		</radialGradient>
		<path class="st17" d="M500,437.5h-31.3c0,17.3-14,31.3-31.3,31.3s-31.3-14-31.3-31.3H375c0,34.5,28,62.5,62.5,62.5
			S500,472,500,437.5z"/>
		
			<radialGradient id="SVGID_18_" cx="188.25" cy="437.3758" r="31.6049" fx="186.9985" fy="437.3128" gradientTransform="matrix(-1 0 0 1 532 0)" gradientUnits="userSpaceOnUse">
			<stop  offset="0.5744" style="stop-color:#B987F5"/>
			<stop  offset="1" style="stop-color:#734BBE"/>
		</radialGradient>
		<path class="st18" d="M343.8,468.8c-17.3,0-31.3-14-31.3-31.3h15.6c0,8.6,7,15.6,15.6,15.6s15.6-7,15.6-15.6H375
			C375,454.8,361,468.8,343.8,468.8z"/>
	</g>
	<g>
		
			<radialGradient id="SVGID_19_" cx="344.5" cy="314.1265" r="62.3462" gradientTransform="matrix(-1 0 0 1 532 0)" gradientUnits="userSpaceOnUse">
			<stop  offset="0.5744" style="stop-color:#B987F5"/>
			<stop  offset="1" style="stop-color:#734BBE"/>
		</radialGradient>
		<path class="st19" d="M250,312.5h-31.3c0,17.3-14,31.3-31.3,31.3s-31.3-14-31.3-31.3H125c0,34.5,28,62.5,62.5,62.5
			S250,347,250,312.5z"/>
		
			<radialGradient id="SVGID_20_" cx="438.25" cy="312.3758" r="31.6049" fx="436.9985" fy="312.3128" gradientTransform="matrix(-1 0 0 1 532 0)" gradientUnits="userSpaceOnUse">
			<stop  offset="0.5744" style="stop-color:#B987F5"/>
			<stop  offset="1" style="stop-color:#734BBE"/>
		</radialGradient>
		<path class="st20" d="M93.8,343.8c-17.3,0-31.3-14-31.3-31.3h15.6c0,8.6,7,15.6,15.6,15.6s15.6-7,15.6-15.6H125
			C125,329.8,111,343.8,93.8,343.8z"/>
	</g>
</g>
<rect x="1465" y="68.5" class="st21" width="169" height="238"/>
</svg>
