<?xml version="1.0" encoding="utf-8"?>
<!-- Generator: Adobe Illustrator 22.0.0, SVG Export Plug-In . SVG Version: 6.00 Build 0)  -->
<svg version="1.1" id="Layer_1" xmlns="http://www.w3.org/2000/svg" xmlns:xlink="http://www.w3.org/1999/xlink" x="0px" y="0px"
	 viewBox="0 0 1000 500" style="enable-background:new 0 0 1000 500;" xml:space="preserve">
<style type="text/css">
	.st0{fill:#0F625C;}
	.st1{fill:#14E5C5;}
</style>
<g>
	<g>
		<g>
			<path class="st0" d="M1711.1,734.3c138.1,0,250-111.9,250-250h-125c0,69-56,125-125,125s-125-56-125-125h-125
				C1461.1,622.5,1573,734.3,1711.1,734.3z"/>
			<path class="st0" d="M2211.1,984.3c138.1,0,250-111.9,250-250h-125c0,69-56,125-125,125s-125-56-125-125h-125
				C1961.1,872.5,2073,984.3,2211.1,984.3z"/>
		</g>
		<g>
			<path class="st0" d="M1804.9,765.7c-17.3,0-31.3-14-31.3-31.3h15.6c0,8.6,7,15.6,15.6,15.6c8.6,0,15.6-7,15.6-15.6h15.7
				C1836.1,751.7,1822.1,765.7,1804.9,765.7z"/>
			<path class="st0" d="M1742.4,796.8c-17.3,0-31.3-14-31.3-31.3h15.6c0,8.6,7,15.6,15.6,15.6s15.6-7,15.6-15.6h15.6
				C1773.6,782.8,1759.6,796.8,1742.4,796.8z"/>
		</g>
		<g>
			<path class="st0" d="M1617.4,890.7c17.3,0,31.3-14,31.3-31.3h-15.6c0,8.6-7,15.6-15.6,15.6c-8.6,0-15.6-7-15.6-15.6h-15.8
				C1586.1,876.7,1600.1,890.7,1617.4,890.7z"/>
			<path class="st0" d="M1679.9,921.8c17.3,0,31.3-14,31.3-31.3h-15.6c0,8.6-7,15.6-15.6,15.6c-8.6,0-15.6-7-15.6-15.6h-15.6
				C1648.6,907.8,1662.6,921.8,1679.9,921.8z"/>
		</g>
		<g>
			<path class="st0" d="M1523.6,921.8c34.5,0,62.5-28,62.5-62.5h-31.2c0,17.3-14,31.3-31.3,31.3s-31.3-14-31.3-31.3h-31.2
				C1461.1,893.8,1489.1,921.8,1523.6,921.8z"/>
			<path class="st0" d="M1648.6,984.3c34.5,0,62.5-28,62.5-62.5h-31.3c0,17.3-14,31.3-31.3,31.3c-17.3,0-31.3-14-31.3-31.3h-31.1
				C1586.1,956.3,1614.1,984.3,1648.6,984.3z"/>
		</g>
		<g>
			<path class="st0" d="M2117.4,515.7c17.3,0,31.3-14,31.3-31.3h-15.6c0,8.6-7,15.6-15.6,15.6c-8.6,0-15.6-7-15.6-15.6h-15.8
				C2086.1,501.6,2100.1,515.7,2117.4,515.7z"/>
			<path class="st0" d="M2179.9,546.8c17.3,0,31.3-14,31.3-31.3h-15.6c0,8.6-7,15.6-15.6,15.6c-8.6,0-15.6-7-15.6-15.6h-15.6
				C2148.6,532.8,2162.6,546.8,2179.9,546.8z"/>
		</g>
		<g>
			<path class="st0" d="M2367.4,640.7c17.3,0,31.3-14,31.3-31.3h-15.6c0,8.6-7,15.6-15.6,15.6c-8.6,0-15.6-7-15.6-15.6h-15.8
				C2336.1,626.7,2350.1,640.7,2367.4,640.7z"/>
			<path class="st0" d="M2429.9,671.8c17.3,0,31.3-14,31.3-31.3h-15.6c0,8.6-7,15.6-15.6,15.6c-8.6,0-15.6-7-15.6-15.6h-15.6
				C2398.6,657.8,2412.6,671.8,2429.9,671.8z"/>
		</g>
		<g>
			<path class="st0" d="M2273.6,671.8c34.5,0,62.5-28,62.5-62.5h-31.3c0,17.3-14,31.3-31.3,31.3s-31.3-14-31.3-31.3h-31.1
				C2211.1,643.8,2239.1,671.8,2273.6,671.8z"/>
			<path class="st0" d="M2398.6,734.3c34.5,0,62.5-28,62.5-62.5h-31.3c0,17.3-14,31.3-31.3,31.3s-31.3-14-31.3-31.3h-31.1
				C2336.1,706.3,2364.1,734.3,2398.6,734.3z"/>
		</g>
	</g>
</g>
<g>
	<g>
		<g>
			<path class="st1" d="M1929.9,828.2c-17.3,0-31.3-14-31.3-31.3h15.6c0,8.6,7,15.6,15.6,15.6c8.6,0,15.6-7,15.6-15.6h15.7
				C1961.1,814.2,1947.1,828.2,1929.9,828.2z"/>
			<path class="st1" d="M1867.4,859.3c-17.3,0-31.3-14-31.3-31.3h15.6c0,8.6,7,15.6,15.6,15.6c8.6,0,15.6-7,15.6-15.6h15.6
				C1898.6,845.3,1884.6,859.3,1867.4,859.3z"/>
		</g>
		<g>
			<path class="st1" d="M1898.6,796.8c-34.5,0-62.5-28-62.5-62.5h31.3c0,17.3,14,31.3,31.3,31.3c17.3,0,31.3-14,31.3-31.3h31.1
				C1961.1,768.8,1933.1,796.8,1898.6,796.8z"/>
			<path class="st1" d="M1773.6,859.3c-34.5,0-62.5-28-62.5-62.5h31.3c0,17.3,14,31.3,31.3,31.3c17.3,0,31.3-14,31.3-31.3h31.1
				C1836.1,831.3,1808.1,859.3,1773.6,859.3z"/>
		</g>
		<g>
			<path class="st1" d="M1492.4,953.2c17.3,0,31.3-14,31.3-31.3H1508c0,8.6-7,15.6-15.6,15.6c-8.6,0-15.6-7-15.6-15.6h-15.7
				C1461.1,939.2,1475.1,953.2,1492.4,953.2z"/>
			<path class="st1" d="M1554.9,984.3c17.3,0,31.3-14,31.3-31.3h-15.6c0,8.6-7,15.6-15.6,15.6s-15.6-7-15.6-15.6h-15.8
				C1523.6,970.3,1537.6,984.3,1554.9,984.3z"/>
		</g>
		<g>
			<path class="st1" d="M1586.1,859.3c69,0,125-56,125-125h-62.5c0,34.5-28,62.5-62.5,62.5s-62.5-28-62.5-62.5h-62.5
				C1461.1,803.3,1517.1,859.3,1586.1,859.3z"/>
			<path class="st1" d="M1836.1,984.3c69,0,125-56,125-125h-62.5c0,34.5-28,62.5-62.5,62.5s-62.5-28-62.5-62.5h-62.5
				C1711.1,928.3,1767.1,984.3,1836.1,984.3z"/>
		</g>
		<g>
			<path class="st1" d="M1992.4,578.2c17.3,0,31.3-14,31.3-31.3h-15.6c0,8.6-7,15.6-15.6,15.6s-15.6-7-15.6-15.6h-15.8
				C1961.1,564.2,1975.1,578.2,1992.4,578.2z"/>
			<path class="st1" d="M2054.9,609.3c17.3,0,31.3-14,31.3-31.3h-15.6c0,8.6-7,15.6-15.6,15.6c-8.6,0-15.6-7-15.6-15.6h-15.6
				C2023.6,595.3,2037.6,609.3,2054.9,609.3z"/>
		</g>
		<g>
			<path class="st1" d="M2023.6,546.8c34.5,0,62.5-28,62.5-62.5h-31.3c0,17.3-14,31.3-31.3,31.3c-17.3,0-31.3-14-31.3-31.3h-31.1
				C1961.1,518.8,1989.1,546.8,2023.6,546.8z"/>
			<path class="st1" d="M2148.6,609.3c34.5,0,62.5-28,62.5-62.5h-31.3c0,17.3-14,31.3-31.3,31.3s-31.3-14-31.3-31.3h-31.1
				C2086.1,581.3,2114.1,609.3,2148.6,609.3z"/>
		</g>
		<g>
			<path class="st1" d="M2242.4,703.2c17.3,0,31.3-14,31.3-31.3h-15.6c0,8.6-7,15.6-15.6,15.6c-8.6,0-15.6-7-15.6-15.6h-15.8
				C2211.1,689.2,2225.1,703.2,2242.4,703.2z"/>
			<path class="st1" d="M2304.9,734.3c17.3,0,31.3-14,31.3-31.3h-15.6c0,8.6-7,15.6-15.6,15.6c-8.6,0-15.6-7-15.6-15.6h-15.6
				C2273.6,720.3,2287.6,734.3,2304.9,734.3z"/>
		</g>
		<g>
			<path class="st1" d="M2336.1,609.3c-69,0-125-56-125-125h62.5c0,34.5,28,62.5,62.5,62.5s62.5-28,62.5-62.5h62.5
				C2461.1,553.3,2405.1,609.3,2336.1,609.3z"/>
			<path class="st1" d="M2086.1,734.3c-69,0-125-56-125-125h62.5c0,34.5,28,62.5,62.5,62.5s62.5-28,62.5-62.5h62.5
				C2211.1,678.3,2155.1,734.3,2086.1,734.3z"/>
		</g>
	</g>
</g>
<g>
	<g>
		<path class="st0" d="M250,250c138.1,0,250-111.9,250-250H375c0,69-56,125-125,125S125,69,125,0H0C0,138.1,111.9,250,250,250z"/>
		<path class="st0" d="M750,500c138.1,0,250-111.9,250-250H875c0,69-56,125-125,125s-125-56-125-125H500
			C500,388.1,611.9,500,750,500z"/>
	</g>
	<g>
		<path class="st0" d="M62.5,437.5c34.5,0,62.5-28,62.5-62.5H93.8c0,17.3-14,31.3-31.3,31.3s-31.3-14-31.3-31.3H0
			C0,409.5,28,437.5,62.5,437.5z"/>
		<path class="st0" d="M187.5,500c34.5,0,62.5-28,62.5-62.5h-31.3c0,17.3-14,31.3-31.3,31.3s-31.3-14-31.3-31.3H125
			C125,472,153,500,187.5,500z"/>
	</g>
	<g>
		<path class="st1" d="M250,250h31.1c0,17.3,14,31.3,31.3,31.3s31.3-14,31.3-31.3H375c0,34.5-28,62.5-62.5,62.5S250,284.5,250,250z"
			/>
		<path class="st1" d="M375,312.5h31.1c0,17.3,14,31.3,31.3,31.3s31.3-14,31.3-31.3H500c0,34.5-28,62.5-62.5,62.5S375,347,375,312.5
			z"/>
	</g>
	<g>
		<path class="st1" d="M125,375c69,0,125-56,125-125h-62.5c0,34.5-28,62.5-62.5,62.5s-62.5-28-62.5-62.5H0C0,319,56,375,125,375z"/>
		<path class="st1" d="M375,500c69,0,125-56,125-125h-62.5c0,34.5-28,62.5-62.5,62.5s-62.5-28-62.5-62.5H250
			C250,444,306,500,375,500z"/>
	</g>
	<g>
		<g>
			<path class="st0" d="M562.5,187.5c34.5,0,62.5-28,62.5-62.5h-31.3c0,17.3-14,31.3-31.3,31.3s-31.3-14-31.3-31.3H500
				C500,159.5,528,187.5,562.5,187.5z"/>
			<path class="st0" d="M687.5,250c34.5,0,62.5-28,62.5-62.5h-31.3c0,17.3-14,31.3-31.3,31.3s-31.3-14-31.3-31.3H625
				C625,222,653,250,687.5,250z"/>
		</g>
		<g>
			<path class="st1" d="M812.5,62.5C847,62.5,875,34.5,875,0l-31.3,0c0,17.3-14,31.3-31.3,31.3s-31.3-14-31.3-31.3H750
				C750,34.5,778,62.5,812.5,62.5z"/>
			<path class="st1" d="M937.5,125c34.5,0,62.5-28,62.5-62.5h-31.3c0,17.3-14,31.3-31.3,31.3s-31.3-14-31.3-31.3H875
				C875,97,903,125,937.5,125z"/>
		</g>
		<g>
			<path class="st1" d="M500,0l62.5,0c0,34.5,28,62.5,62.5,62.5s62.5-28,62.5-62.5L750,0c0,69-56,125-125,125S500,69,500,0z"/>
			<path class="st1" d="M750,125h62.5c0,34.5,28,62.5,62.5,62.5s62.5-28,62.5-62.5h62.5c0,69-56,125-125,125S750,194,750,125z"/>
		</g>
	</g>
</g>
</svg>
