<?xml version="1.0" encoding="utf-8"?>
<!-- Generator: Adobe Illustrator 22.0.0, SVG Export Plug-In . SVG Version: 6.00 Build 0)  -->
<svg version="1.1" id="Layer_1" xmlns="http://www.w3.org/2000/svg" xmlns:xlink="http://www.w3.org/1999/xlink" x="0px" y="0px"
	 viewBox="0 0 224.7 224.7" style="enable-background:new 0 0 224.7 224.7;" xml:space="preserve">
<style type="text/css">
	.st0{fill:none;stroke:#6E72B3;stroke-width:8;stroke-linecap:round;stroke-linejoin:round;stroke-miterlimit:10;}
	.st1{opacity:0.5;fill:none;stroke:#FFFFFF;stroke-width:2;stroke-linecap:round;stroke-linejoin:round;stroke-miterlimit:10;}
</style>
<g>
	<path class="st0" d="M151.7,129.8V147c0,10.3-8.3,18.6-18.6,18.6h-5.9"/>
	<path class="st0" d="M72.9,96.1v-0.2c0-21.8,17.6-39.4,39.4-39.4h0c21.8,0,39.4,17.6,39.4,39.4v0.3"/>
	<path class="st0" d="M72.9,129.8h-9.7c-5.4,0-9.7-4.3-9.7-9.7v-14.2c0-5.4,4.3-9.7,9.7-9.7h9.7V129.8z"/>
	<path class="st0" d="M161.4,129.8h-9.7V96.2h9.7c5.4,0,9.7,4.3,9.7,9.7v14.2C171.1,125.5,166.8,129.8,161.4,129.8z"/>
	<path class="st0" d="M129.9,124.4c-3.5,6.1-10.1,10.2-17.6,10.2c-7.5,0-14.1-4.1-17.6-10.2"/>
	<circle class="st0" cx="113.3" cy="165.6" r="9.7"/>
</g>
<circle class="st1" cx="112.3" cy="112.3" r="111.3"/>
</svg>
