<?xml version="1.0" encoding="utf-8"?>
<!-- Generator: Adobe Illustrator 22.0.0, SVG Export Plug-In . SVG Version: 6.00 Build 0)  -->
<svg version="1.1" id="Layer_1" xmlns="http://www.w3.org/2000/svg" xmlns:xlink="http://www.w3.org/1999/xlink" x="0px" y="0px"
	 viewBox="0 0 2003.7 270.1" style="enable-background:new 0 0 2003.7 270.1;" xml:space="preserve">
<style type="text/css">
	.st0{opacity:0;}
	.st1{fill:#202134;}
</style>
<g class="st0">
	<path class="st1" d="M225.8,270.1c-0.1,0-0.2,0-0.3,0H39c-15.7,0-29.8-9.4-35.9-23.8s-3-31.1,8-42.4L197.8,11.8
		c11.1-11.4,27.9-14.9,42.6-8.9c14.7,6,24.3,20.3,24.3,36.1v96.1L384.6,11.8c11.1-11.4,27.9-14.9,42.6-8.9
		c14.7,6,24.3,20.3,24.3,36.1v192.1c0,21.5-17.5,39-39,39s-39-17.5-39-39V135L253.8,258.3c0,0,0,0,0,0c0,0,0,0,0,0c0,0,0,0,0,0
		c0,0,0,0,0,0c0,0,0,0,0,0c-0.8,0.8-1.7,1.6-2.6,2.4c0,0,0,0,0,0c0,0,0,0,0,0c-6.4,5.4-14.5,8.8-23.4,9.2
		C227.1,270.1,226.4,270.1,225.8,270.1z M131.3,192.1h55.5V135L131.3,192.1z"/>
</g>
<g>
	<g>
		<path class="st1" d="M636,54.6l39.6,131.1h21v68.7h-32.5v-36.2H558.6v36.2h-32.5v-68.7h21l39.5-131.2L636,54.6L636,54.6z
			 M611.4,85.9h-1.2l-27.8,99.8h56.8L611.4,85.9z"/>
		<path class="st1" d="M724,213c-9.3-5.3-16.5-12.7-21.6-22.1c-5.1-9.4-7.7-20.2-7.7-32.4c0-12,2.6-22.7,7.7-32.3
			c5.1-9.5,12.3-16.9,21.6-22.2c9.3-5.3,19.9-7.9,31.6-7.9c11.9,0,22.5,2.6,31.8,7.9s16.6,12.7,21.8,22.2s7.8,20.2,7.8,32.3
			s-2.6,22.9-7.8,32.4c-5.2,9.4-12.5,16.8-21.8,22.1s-19.9,7.9-31.9,7.9C743.8,221,733.2,218.3,724,213z M775.4,183
			c4.9-6,7.4-14.1,7.4-24.5c0-10.2-2.4-18.4-7.4-24.5c-4.9-6-11.5-9-19.8-9s-14.7,3-19.5,9s-7.1,14.1-7.1,24.5
			c0,10.2,2.3,18.4,7.1,24.5c4.8,6,11.2,9,19.5,9C764,192,770.5,189,775.4,183z"/>
		<path class="st1" d="M861.8,218.3H830V99h42l32.7,81.5h1.2L938.4,99H979v119.2h-32v-74.4h-1.2l-29.9,74.4h-22.8L863,143.9h-1.2
			V218.3z"/>
		<path class="st1" d="M1021.4,213c-9.3-5.3-16.5-12.7-21.7-22.1c-5.1-9.4-7.7-20.2-7.7-32.4c0-12,2.6-22.7,7.7-32.3
			c5.1-9.5,12.3-16.9,21.7-22.2c9.3-5.3,19.9-7.9,31.6-7.9c11.9,0,22.5,2.6,31.8,7.9s16.6,12.7,21.8,22.2c5.2,9.5,7.8,20.2,7.8,32.3
			s-2.6,22.9-7.8,32.4c-5.2,9.4-12.5,16.8-21.8,22.1s-19.9,7.9-31.9,7.9C1041.1,221,1030.6,218.3,1021.4,213z M1072.8,183
			c4.9-6,7.4-14.1,7.4-24.5c0-10.2-2.4-18.4-7.4-24.5c-4.9-6-11.5-9-19.8-9s-14.7,3-19.5,9s-7.1,14.1-7.1,24.5
			c0,10.2,2.3,18.4,7.1,24.5c4.8,6,11.2,9,19.5,9S1067.9,189,1072.8,183z"/>
		<path class="st1" d="M1267.6,189.9c-5.1,9.2-12.3,16.5-21.4,21.9c-9.1,5.5-19.4,8.5-31,9.1v44h-34.3v-44
			c-11.4-0.6-21.6-3.7-30.7-9.1c-9.1-5.5-16.3-12.8-21.4-21.9c-5.1-9.2-7.7-19.6-7.7-31.3s2.6-22.1,7.7-31.3s12.3-16.5,21.4-21.9
			c9.1-5.5,19.3-8.5,30.7-9.1V54.6h34.3v41.6c11.5,0.6,21.8,3.7,31,9.1c9.1,5.5,16.3,12.8,21.4,21.9c5.1,9.2,7.7,19.6,7.7,31.3
			C1275.3,170.3,1272.7,180.8,1267.6,189.9z M1161.3,183c5.5,6.3,12.6,9.8,21.3,10.4V124c-8.7,0.6-15.8,4-21.3,10.2
			s-8.2,14.3-8.2,24.3C1153.1,168.6,1155.8,176.7,1161.3,183z M1213.6,193.7c8.9-0.8,16.1-4.3,21.5-10.6c5.5-6.3,8.2-14.5,8.2-24.5
			s-2.7-18.1-8.2-24.3s-12.6-9.7-21.5-10.5V193.7z"/>
		<path class="st1" d="M1311.2,213c-9.3-5.3-16.5-12.7-21.7-22.1c-5.1-9.4-7.7-20.2-7.7-32.4c0-12,2.6-22.7,7.7-32.3
			s12.3-16.9,21.7-22.2c9.3-5.3,19.9-7.9,31.6-7.9c11.9,0,22.5,2.6,31.8,7.9c9.4,5.3,16.6,12.7,21.8,22.2c5.2,9.5,7.8,20.2,7.8,32.3
			s-2.6,22.9-7.8,32.4c-5.2,9.4-12.5,16.8-21.8,22.1s-19.9,7.9-31.9,7.9C1331,221,1320.5,218.3,1311.2,213z M1362.6,183
			c4.9-6,7.4-14.1,7.4-24.5c0-10.2-2.4-18.4-7.4-24.5c-4.9-6-11.5-9-19.8-9s-14.7,3-19.5,9s-7.1,14.1-7.1,24.5
			c0,10.2,2.3,18.4,7.1,24.5c4.8,6,11.2,9,19.5,9S1357.7,189,1362.6,183z"/>
		<path class="st1" d="M1494.4,143.5V99h34.2v119.2h-34.2v-46.5h-43v46.5h-34.2V99h34.2v44.4L1494.4,143.5L1494.4,143.5z"/>
		<path class="st1" d="M1627.7,210.1c-11.6-7-20.6-16.9-26.9-29.6c-6.3-12.7-9.4-27.4-9.4-44.1c0-16.5,3.1-31.2,9.4-44
			s15.2-22.7,26.8-29.7c11.5-7,24.8-10.5,39.7-10.5c16.5,0,30.7,4.3,42.3,12.9s20.1,21,25.4,37.3l-19,3.2
			c-3.8-11.2-9.8-19.9-18.3-25.8c-8.5-6-18.6-9-30.7-9c-17.2,0-30.6,5.8-40.4,17.5c-9.7,11.7-14.7,27.7-14.7,47.9
			c0,20.4,4.9,36.4,14.7,48c9.8,11.6,23.4,17.4,40.6,17.4c12.3,0,22.7-3,31.2-9s14.7-14.7,18.3-25.8l19,3.2
			c-5.3,16.2-13.8,28.6-25.6,37.3c-11.8,8.6-26.1,12.9-42.9,12.9C1652.7,220.6,1639.3,217.1,1627.7,210.1z"/>
		<path class="st1" d="M1777.2,218.3h-21V54.6h120.4v163.6h-21V73.3h-78.3L1777.2,218.3L1777.2,218.3z"/>
		<path class="st1" d="M1910.7,201.6c-9.6-12.6-14.4-30.5-14.4-53.5c0-28.7,5.4-50.2,16.1-64.4c10.8-14.3,27.8-22.8,51.2-25.8
			c14.3-1.7,25.2-3.6,32.5-5.6l3.1,18c-8.3,2.3-20.3,4.4-36.2,6.3c-10.2,1.3-18.6,3.7-25,7.3c-6.4,3.6-11.4,8.9-15.1,16
			s-6.3,16.5-7.8,28.4h1.2c8.7-15.6,21.8-23.4,39-23.4c9.6,0,18.2,2.4,25.4,7.3c7.3,4.9,13,11.6,17.1,20.2c4,8.6,6.1,18.6,6.1,29.8
			c0,11.7-2.2,21.9-6.5,30.7s-10.3,15.6-18.3,20.5c-7.9,4.9-17,7.3-27.4,7.3C1934,220.6,1920.3,214.2,1910.7,201.6z M1975.6,192.4
			c5.6-7.1,8.5-17.2,8.5-30.3c0-12.8-2.8-22.6-8.3-29.5c-5.6-6.8-13.5-10.2-24-10.2c-10.9,0-19.3,3.5-25.4,10.5c-6,7-9,16.7-9,29.2
			s3.1,22.4,9.1,29.8c6.1,7.4,14.5,11.1,25.3,11.1C1962,203.1,1970,199.5,1975.6,192.4z"/>
	</g>
</g>
<path class="st1" d="M429.2,2.7c-13.4-5.6-28.9-2.4-38.9,8.2L261.4,145.1V36.2c0-14.9-8.9-27.9-22.4-33.5
	c-13.4-5.6-28.9-2.4-38.9,8.2L10.1,208.6c-10,10.4-12.9,25.8-7.4,39.1c5.5,13.3,18.7,22.1,32.9,22.1h189.9c0.5,0,1.3,0,1.8,0.3
	c8.2-0.5,15.5-3.5,21.3-8.5c0.8-0.8,1.6-1.6,2.4-2.4L354,152.1c22.8-23.9,20.4-54.5,20.4-54.5h5.6v136.2c0,20,16,36.2,35.8,36.2
	c19.7,0,35.8-16.2,35.8-36.2V36.2C451.6,21.3,442.6,8.3,429.2,2.7z M190.1,197.7h-70l45.4-47.1c21.3-23.6,19-53,19-53h5.6
	L190.1,197.7z"/>
</svg>
