<?xml version="1.0" encoding="utf-8"?>
<!-- Generator: Adobe Illustrator 22.0.0, SVG Export Plug-In . SVG Version: 6.00 Build 0)  -->
<svg version="1.1" id="Layer_1" xmlns="http://www.w3.org/2000/svg" xmlns:xlink="http://www.w3.org/1999/xlink" x="0px" y="0px"
	 viewBox="0 0 186.1 101.4" style="enable-background:new 0 0 186.1 101.4;" xml:space="preserve">
<style type="text/css">
	.st0{fill:#FFFFFF;}
</style>
<g>
	<path class="st0" d="M186.1,5c0,2.8-2.3,5-5,5c-2.9,0-5.1-2.3-5.1-5s2.3-4.9,5.1-4.9C183.9,0,186.1,2.3,186.1,5z M177.2,5
		c0,2.1,1.6,3.9,3.9,3.9c2.1,0,3.8-1.8,3.8-3.9c0-2.3-1.6-4-3.8-4S177.2,2.8,177.2,5z M180.3,7.5h-1.1V2.6c0.5-0.1,1.1-0.1,1.9-0.1
		c0.9,0,1.4,0.1,1.8,0.4c0.3,0.3,0.5,0.6,0.5,1.1s-0.4,1-1,1.1l0,0c0.5,0.1,0.8,0.5,0.9,1.3c0.1,0.8,0.3,1,0.4,1.3h-1.3
		c-0.1-0.1-0.3-0.6-0.4-1.3c-0.1-0.5-0.4-0.8-1-0.8h-0.5v1.9H180.3z M180.3,4.8h0.5c0.6,0,1.1-0.3,1.1-0.8s-0.4-0.8-1-0.8
		c-0.3,0-0.5,0-0.6,0L180.3,4.8L180.3,4.8z"/>
</g>
<g>
	<path class="st0" d="M85.8,101.4c0,0-0.1,0-0.1,0H13.6c-5.4,0-10.4-3.3-12.5-8.3c-2.1-5-1-10.8,2.8-14.7L76.1,4.1
		c3.8-4,9.7-5.2,14.8-3.1c5.1,2.1,8.5,7,8.5,12.6v40.9l49-50.4c3.8-4,9.7-5.2,14.8-3.1c5.1,2.1,8.5,7,8.5,12.6v74.3
		c0,7.5-6.1,13.6-13.6,13.6c-7.5,0-13.6-6.1-13.6-13.6V47l-49,50.4c0,0,0,0,0,0c0,0,0,0,0,0c0,0,0,0,0,0c0,0,0,0,0,0
		c-0.3,0.3-0.6,0.6-0.9,0.9c0,0,0,0,0,0c0,0,0,0,0,0c-2.2,1.9-5,3-8.1,3.2C86.3,101.4,86,101.4,85.8,101.4z M45.7,74.3h26.6V47
		L45.7,74.3z"/>
</g>
</svg>
