<?xml version="1.0" encoding="utf-8"?>
<!-- Generator: Adobe Illustrator 22.0.0, SVG Export Plug-In . SVG Version: 6.00 Build 0)  -->
<svg version="1.1" id="Layer_1" xmlns="http://www.w3.org/2000/svg" xmlns:xlink="http://www.w3.org/1999/xlink" x="0px" y="0px"
	 viewBox="0 0 1935.4 260.9" style="enable-background:new 0 0 1935.4 260.9;" xml:space="preserve">
<style type="text/css">
	.st0{fill:#0A0A0A;}
</style>
<path class="st0" d="M209.4,45.7L139.6,5.4c-6.1-3.6-13-5.4-19.9-5.4s-13.9,1.7-20,5.2L29.9,45.7C11.5,56.4,0,76.1,0,97.4V178
	c0,14.3,7.6,27.5,20,34.5l69.8,40.3c9.3,5.4,19.5,8.1,29.9,8.1s20.6-2.7,29.9-8.1l69.8-40.3c12.3-7,20-20.2,20-34.5V97.4
	C239.4,76.1,228,56.4,209.4,45.7z M214.7,201h-190l-13.2-23l95-163H133l94.9,163L214.7,201z"/>
<g>
	<path class="st0" d="M369,243.8H341v-57.2h15.3l40.6-124.1h40.8l40.6,124.1h15.3v57.2h-28.1v-30.2H369V243.8z M415.5,92.3
		l-29.4,94.4h62.4l-29.4-94.4H415.5z"/>
	<path class="st0" d="M528.9,205.8c-11.2-6.6-20-15.8-26.4-27.6c-6.5-11.8-9.7-25.2-9.7-40.2c0-15,3.2-28.4,9.7-40.2
		c6.5-11.8,15.3-21,26.4-27.6c11.2-6.6,23.4-9.9,36.8-9.9s25.7,3.3,36.8,9.9c11.2,6.6,20,15.8,26.4,27.6c6.5,11.8,9.7,25.2,9.7,40.2
		c0,15-3.2,28.4-9.7,40.2c-6.5,11.8-15.3,21-26.4,27.6c-11.2,6.6-23.4,9.9-36.8,9.9S540.1,212.5,528.9,205.8z M588.4,182.4
		c6.9-4.2,12.3-10.2,16.3-17.9c4-7.7,5.9-16.5,5.9-26.4s-2-18.7-5.9-26.4c-4-7.7-9.4-13.7-16.3-17.9c-6.9-4.2-14.5-6.4-22.7-6.4
		c-8.2,0-15.8,2.1-22.7,6.4c-6.9,4.2-12.3,10.2-16.3,17.9c-4,7.7-5.9,16.5-5.9,26.4s2,18.8,5.9,26.4c4,7.7,9.4,13.7,16.3,17.9
		c6.9,4.2,14.5,6.4,22.7,6.4C573.9,188.8,581.5,186.7,588.4,182.4z"/>
	<path class="st0" d="M686.8,213.6h-28.1V62.5h44.7l36.5,108h4.3l36.1-108h44.9v151.1h-28.1V107.4h-4.3L757,213.6h-30l-35.8-106.2
		h-4.3V213.6z"/>
	<path class="st0" d="M881.5,205.8c-11.2-6.6-20-15.8-26.4-27.6c-6.5-11.8-9.7-25.2-9.7-40.2c0-15,3.2-28.4,9.7-40.2
		c6.5-11.8,15.3-21,26.4-27.6c11.2-6.6,23.4-9.9,36.8-9.9s25.7,3.3,36.8,9.9c11.2,6.6,20,15.8,26.4,27.6c6.5,11.8,9.7,25.2,9.7,40.2
		c0,15-3.2,28.4-9.7,40.2c-6.5,11.8-15.3,21-26.4,27.6c-11.2,6.6-23.4,9.9-36.8,9.9S892.6,212.5,881.5,205.8z M941,182.4
		c6.9-4.2,12.3-10.2,16.3-17.9c4-7.7,5.9-16.5,5.9-26.4s-2-18.7-5.9-26.4c-4-7.7-9.4-13.7-16.3-17.9c-6.9-4.2-14.5-6.4-22.7-6.4
		c-8.2,0-15.8,2.1-22.7,6.4c-6.9,4.2-12.3,10.2-16.3,17.9c-4,7.7-5.9,16.5-5.9,26.4s2,18.8,5.9,26.4c4,7.7,9.4,13.7,16.3,17.9
		c6.9,4.2,14.5,6.4,22.7,6.4C926.5,188.8,934.1,186.7,941,182.4z"/>
	<path class="st0" d="M1101.4,77.6c13.5,0,25.3,2.5,35.3,7.6c10,5,17.7,12,23,20.8c5.3,8.9,8,18.8,8,29.9c0,11.1-2.7,21.1-8,29.9
		c-5.3,8.9-13,15.8-23,20.8c-10,5-21.8,7.6-35.3,7.6h-2.4v23.7h-28.1v-23.7h-1.9c-13.7,0-25.5-2.5-35.5-7.6c-10-5-17.6-12-22.9-20.8
		c-5.3-8.9-7.9-18.8-7.9-29.9c0-11.1,2.6-21.1,7.9-29.9c5.3-8.9,12.9-15.8,22.9-20.8c10-5,21.8-7.6,35.5-7.6h1.9V58.2h28.1v19.4
		H1101.4z M1041.1,160.2c6.9,6.3,16.3,9.4,28.1,9.4h1.7v-67.4h-1.7c-11.8,0-21.2,3.1-28.1,9.4c-6.9,6.3-10.4,14.4-10.4,24.3
		S1034.2,153.9,1041.1,160.2z M1100.9,169.6c11.8,0,21.2-3.1,28.2-9.4c7-6.3,10.5-14.4,10.5-24.3s-3.5-18-10.5-24.3
		c-7-6.3-16.4-9.4-28.2-9.4h-1.9v67.4H1100.9z"/>
	<path class="st0" d="M1215.3,205.8c-11.2-6.6-20-15.8-26.4-27.6c-6.5-11.8-9.7-25.2-9.7-40.2c0-15,3.2-28.4,9.7-40.2
		c6.5-11.8,15.3-21,26.4-27.6c11.2-6.6,23.4-9.9,36.8-9.9s25.7,3.3,36.8,9.9c11.2,6.6,20,15.8,26.4,27.6c6.5,11.8,9.7,25.2,9.7,40.2
		c0,15-3.2,28.4-9.7,40.2c-6.5,11.8-15.3,21-26.4,27.6c-11.2,6.6-23.4,9.9-36.8,9.9S1226.4,212.5,1215.3,205.8z M1274.7,182.4
		c6.9-4.2,12.3-10.2,16.3-17.9c4-7.7,5.9-16.5,5.9-26.4s-2-18.7-5.9-26.4c-4-7.7-9.4-13.7-16.3-17.9c-6.9-4.2-14.5-6.4-22.7-6.4
		c-8.2,0-15.8,2.1-22.7,6.4c-6.9,4.2-12.3,10.2-16.3,17.9c-4,7.7-5.9,16.5-5.9,26.4s2,18.8,5.9,26.4c4,7.7,9.4,13.7,16.3,17.9
		c6.9,4.2,14.5,6.4,22.7,6.4C1260.3,188.8,1267.8,186.7,1274.7,182.4z"/>
	<path class="st0" d="M1373.2,213.6h-28.1V62.5h28.1v60.9h68V62.5h28.1v151.1h-28.1v-62h-68V213.6z"/>
	<path class="st0" d="M1570.7,205.9c-11.1-6.5-19.8-15.7-26.2-27.5c-6.4-11.8-9.6-25.3-9.6-40.4c0-15.1,3.2-28.6,9.6-40.4
		c6.4-11.8,15.1-21,26.2-27.5c11.1-6.5,23.2-9.8,36.5-9.8c16.3,0,30.4,4.5,42.4,13.6c12,9.1,20.2,21.4,24.5,37.1h-18.4
		c-3.7-10.8-9.9-19.3-18.6-25.4c-8.6-6.1-18.6-9.2-30-9.2c-10.1,0-19.3,2.6-27.7,7.8c-8.4,5.2-15.1,12.5-20,21.8
		c-4.9,9.4-7.3,20-7.3,32c0,11.9,2.4,22.6,7.3,32c4.9,9.4,11.6,16.6,20,21.8c8.4,5.2,17.7,7.8,27.7,7.8c11.4,0,21.4-3.1,30-9.4
		c8.6-6.3,14.8-15,18.6-26.2h18.4c-4.3,16.1-12.5,28.8-24.5,38c-12,9.2-26.2,13.8-42.4,13.8C1594,215.8,1581.8,212.5,1570.7,205.9z"
		/>
	<path class="st0" d="M1710.9,213.6h-17.3V62.5h118.7v151.1h-17.3V78.7h-84.2V213.6z"/>
	<path class="st0" d="M1858.6,208.9c-7.7-4.6-13.7-11.2-18.1-19.6c-4.4-8.5-6.6-18.4-6.6-29.6v-6.5c0-18.7,2.3-33.7,6.9-45
		c4.6-11.3,12.4-20,23.3-26.2c4.9-2.7,10.1-4.7,15.5-6c5.5-1.3,12.4-2.4,20.7-3.2c5-0.6,8.7-2.1,10.9-4.6c2.2-2.5,3.4-6.2,3.6-10.9
		h14c-0.1,9.1-2.4,16.1-6.8,21.1c-4.4,5-11.2,7.9-20.4,8.7c-6.5,0.6-12.1,1.5-16.9,2.7c-4.8,1.2-9.2,3-13.1,5.3
		c-12.5,7.5-19.7,19.4-21.6,35.6h1.1c8.6-11.5,20.5-17.3,35.6-17.3c8.9,0,17.1,2.2,24.5,6.6c7.4,4.4,13.3,10.5,17.6,18.2
		c4.3,7.8,6.5,16.4,6.5,25.9c0,9.9-2.2,18.8-6.6,26.7c-4.4,7.8-10.4,14-18.1,18.5c-7.7,4.5-16.4,6.7-26,6.7
		C1875,215.8,1866.3,213.5,1858.6,208.9z M1902.3,196c5.3-3.1,9.4-7.4,12.4-13.1c3-5.6,4.5-11.9,4.5-19c0-7.1-1.5-13.4-4.5-19
		c-3-5.6-7.2-10-12.4-13.1c-5.3-3.1-11.1-4.6-17.6-4.6c-6.5,0-12.3,1.5-17.6,4.6c-5.3,3.1-9.4,7.4-12.4,13.1c-3,5.6-4.5,11.9-4.5,19
		c0,7.1,1.5,13.4,4.5,19c3,5.6,7.2,10,12.4,13.1c5.3,3.1,11.1,4.6,17.6,4.6C1891.1,200.6,1897,199.1,1902.3,196z"/>
</g>
</svg>
