<?xml version="1.0" encoding="utf-8"?>
<!-- Generator: Adobe Illustrator 22.0.0, SVG Export Plug-In . SVG Version: 6.00 Build 0)  -->
<svg version="1.1" id="Layer_1" xmlns="http://www.w3.org/2000/svg" xmlns:xlink="http://www.w3.org/1999/xlink" x="0px" y="0px"
	 viewBox="0 0 800 101.8" style="enable-background:new 0 0 800 101.8;" xml:space="preserve">
<style type="text/css">
	.st0{fill:#FFFFFF;}
</style>
<g>
	<g>
		<g>
			<g>
				<path class="st0" d="M260.4,18.8L276,70.5h8.3v27.1h-12.8V83.4h-41.6v14.3H217V70.6h8.3l15.6-51.7L260.4,18.8L260.4,18.8z
					 M250.7,31.2h-0.5l-11,39.4h22.4L250.7,31.2z"/>
				<path class="st0" d="M295.1,81.3c-3.7-2.1-6.5-5-8.5-8.7s-3-8-3-12.8c0-4.7,1-9,3-12.7s4.9-6.7,8.5-8.8
					c3.7-2.1,7.8-3.1,12.5-3.1s8.9,1,12.5,3.1c3.7,2.1,6.6,5,8.6,8.8c2.1,3.8,3.1,8,3.1,12.7c0,4.8-1,9.1-3.1,12.8s-4.9,6.6-8.6,8.7
					s-7.9,3.1-12.6,3.1C302.9,84.5,298.7,83.4,295.1,81.3z M315.4,69.5c1.9-2.4,2.9-5.6,2.9-9.6s-1-7.3-2.9-9.6
					c-1.9-2.4-4.5-3.6-7.8-3.6s-5.8,1.2-7.7,3.6c-1.9,2.4-2.8,5.6-2.8,9.6s0.9,7.3,2.8,9.6c1.9,2.4,4.4,3.6,7.7,3.6
					C310.8,73,313.4,71.9,315.4,69.5z"/>
				<path class="st0" d="M349.4,83.4h-12.5v-47h16.6l12.9,32.2h0.5l12.8-32.2h16v47h-12.6V54h-0.5l-11.8,29.3h-9L349.9,54h-0.5V83.4
					z"/>
				<path class="st0" d="M412.4,81.3c-3.7-2.1-6.5-5-8.5-8.7s-3-8-3-12.8c0-4.7,1-9,3-12.7s4.9-6.7,8.5-8.8
					c3.7-2.1,7.8-3.1,12.5-3.1s8.9,1,12.5,3.1c3.7,2.1,6.6,5,8.6,8.8c2.1,3.8,3.1,8,3.1,12.7c0,4.8-1,9.1-3.1,12.8s-4.9,6.6-8.6,8.7
					s-7.9,3.1-12.6,3.1C420.2,84.5,416,83.4,412.4,81.3z M432.7,69.5c1.9-2.4,2.9-5.6,2.9-9.6s-1-7.3-2.9-9.6
					c-1.9-2.4-4.5-3.6-7.8-3.6s-5.8,1.2-7.7,3.6c-1.9,2.4-2.8,5.6-2.8,9.6s0.9,7.3,2.8,9.6c1.9,2.4,4.4,3.6,7.7,3.6
					C428.1,73,430.7,71.9,432.7,69.5z"/>
				<path class="st0" d="M509.5,72.2c-2,3.6-4.8,6.5-8.4,8.7s-7.7,3.4-12.2,3.6v17.3h-13.6V84.5c-4.5-0.2-8.5-1.4-12.1-3.6
					s-6.4-5-8.4-8.7c-2-3.6-3-7.7-3-12.4s1-8.7,3-12.4c2-3.6,4.8-6.5,8.4-8.7s7.6-3.4,12.1-3.6V18.8h13.6v16.4
					c4.5,0.2,8.6,1.4,12.2,3.6c3.6,2.2,6.4,5,8.4,8.7c2,3.6,3,7.7,3,12.4S511.5,68.6,509.5,72.2z M467.6,69.5
					c2.2,2.5,4.9,3.9,8.4,4.1V46.2c-3.4,0.2-6.2,1.6-8.4,4.1c-2.2,2.5-3.2,5.7-3.2,9.6C464.3,63.8,465.4,67,467.6,69.5z M488.2,73.7
					c3.5-0.3,6.3-1.7,8.5-4.2s3.2-5.7,3.2-9.6s-1.1-7.1-3.2-9.6c-2.2-2.5-5-3.8-8.5-4.1V73.7z"/>
				<path class="st0" d="M526.7,81.3c-3.7-2.1-6.5-5-8.5-8.7s-3-8-3-12.8c0-4.7,1-9,3-12.7s4.9-6.7,8.5-8.8
					c3.7-2.1,7.8-3.1,12.5-3.1s8.9,1,12.5,3.1c3.7,2.1,6.6,5,8.6,8.8c2.1,3.8,3.1,8,3.1,12.7c0,4.8-1,9.1-3.1,12.8s-4.9,6.6-8.6,8.7
					c-3.7,2.1-7.9,3.1-12.6,3.1C534.5,84.5,530.4,83.4,526.7,81.3z M547,69.5c1.9-2.4,2.9-5.6,2.9-9.6s-1-7.3-2.9-9.6
					c-1.9-2.4-4.5-3.6-7.8-3.6s-5.8,1.2-7.7,3.6c-1.9,2.4-2.8,5.6-2.8,9.6s0.9,7.3,2.8,9.6c1.9,2.4,4.4,3.6,7.7,3.6
					C542.5,73,545.1,71.9,547,69.5z"/>
				<path class="st0" d="M599,53.9V36.3h13.5v47H599V65h-17v18.4h-13.5v-47H582v17.5H599z"/>
				<path class="st0" d="M651.6,80.1c-4.6-2.8-8.1-6.7-10.6-11.7s-3.7-10.8-3.7-17.4c0-6.5,1.2-12.3,3.7-17.3s6-8.9,10.6-11.7
					c4.5-2.8,9.8-4.1,15.7-4.1c6.5,0,12.1,1.7,16.7,5.1s8,8.3,10.1,14.7l-7.5,1.3c-1.5-4.4-3.9-7.8-7.2-10.2s-7.3-3.6-12.1-3.6
					c-6.8,0-12.1,2.3-15.9,6.9c-3.8,4.6-5.8,10.9-5.8,18.9c0,8.1,1.9,14.4,5.8,19c3.9,4.6,9.2,6.9,16,6.9c4.9,0,9-1.2,12.3-3.6
					c3.4-2.4,5.8-5.8,7.2-10.2l7.5,1.3c-2.1,6.4-5.5,11.3-10.1,14.7c-4.6,3.4-10.3,5.1-16.9,5.1C661.4,84.3,656.2,82.9,651.6,80.1z"
					/>
				<path class="st0" d="M710.6,83.4h-8.3V18.8h47.5v64.6h-8.3V26.2h-30.9V83.4z"/>
				<path class="st0" d="M763.3,76.8c-3.8-5-5.7-12-5.7-21.1c0-11.3,2.1-19.8,6.4-25.4c4.2-5.6,11-9,20.2-10.2
					c5.7-0.7,9.9-1.4,12.8-2.2l1.2,7.1c-3.3,0.9-8,1.8-14.3,2.5c-4.1,0.5-7.3,1.4-9.9,2.9c-2.5,1.4-4.5,3.5-5.9,6.3
					s-2.5,6.5-3.1,11.2h0.5c3.4-6.1,8.6-9.2,15.4-9.2c3.8,0,7.2,1,10.1,2.9c2.9,1.9,5.1,4.6,6.7,8c1.6,3.4,2.4,7.3,2.4,11.8
					c0,4.6-0.8,8.7-2.5,12.1c-1.7,3.5-4.1,6.2-7.2,8.1c-3.1,1.9-6.7,2.9-10.8,2.9C772.4,84.3,767,81.8,763.3,76.8z M788.8,73.2
					c2.2-2.8,3.3-6.8,3.3-11.9c0-5-1.1-8.9-3.3-11.6c-2.2-2.7-5.3-4.1-9.5-4.1c-4.3,0-7.6,1.4-10,4.1c-2.4,2.8-3.6,6.6-3.6,11.5
					s1.2,8.8,3.6,11.8c2.4,2.9,5.7,4.4,10,4.4C783.5,77.4,786.6,76,788.8,73.2z"/>
			</g>
		</g>
		<g>
			<g>
				<path class="st0" d="M168.5,0.9c-4.5-1.8-9.7-0.8-13.1,2.7L100,60.1V12c0-4.9-2.9-9.2-7.4-11.1s-9.7-0.8-13.1,2.7L3.4,81
					C0,84.4-1,89.6,0.9,94s6.2,7.3,11,7.3h76l0,0c0.4,0,0.8,0,1.2-0.1c0.2,0,0.4-0.1,0.6-0.1s0.4,0,0.6-0.1c0.2,0,0.4-0.1,0.7-0.2
					c0.2,0,0.3-0.1,0.5-0.1c0.2-0.1,0.4-0.1,0.6-0.2s0.3-0.1,0.5-0.2s0.4-0.2,0.5-0.3c0.2-0.1,0.4-0.2,0.5-0.3
					c0.2-0.1,0.3-0.2,0.5-0.3c0.2-0.1,0.3-0.2,0.5-0.3c0.3-0.2,0.6-0.4,0.9-0.7c0.1-0.1,0.2-0.1,0.2-0.2c0.2-0.2,0.4-0.4,0.7-0.6
					l0,0L152,41.2v48.2c0,6.6,5.4,12,12,12s12-5.4,12-12V12C176,7.1,173,2.7,168.5,0.9z M76,77.4H40.5L76,41.2V77.4z"/>
			</g>
		</g>
	</g>
</g>
</svg>
