<?xml version="1.0" encoding="utf-8"?>
<!-- Generator: Adobe Illustrator 22.0.0, SVG Export Plug-In . SVG Version: 6.00 Build 0)  -->
<svg version="1.1" id="Layer_1" xmlns="http://www.w3.org/2000/svg" xmlns:xlink="http://www.w3.org/1999/xlink" x="0px" y="0px"
	 viewBox="0 0 1910 260.1" style="enable-background:new 0 0 1910 260.1;" xml:space="preserve">
<style type="text/css">
	.st0{opacity:0;}
	.st1{fill:#FFFFFF;}
	.st2{fill:#202134;}
</style>
<g class="st0">
	<path class="st1" d="M422.1,4.4c-13.9-7.7-31-5-41.8,6.1L254.7,139.6v-104c0-12-5.7-23.5-15.8-30c-14.2-9.2-32.5-6.8-43.9,4.9
		L9.8,201c-11.1,11.4-13.2,29.2-4.3,43c6.5,10.3,18.2,16,30.3,16c0,0,100.5,0,158.7,0c25.8,0,50.5-10.5,68.5-29l84.3-86.4
		c9.3-9.5,14.5-22.3,14.5-35.5V92.3h8.7v132c0,18.7,14.4,34.8,33.1,35.7c20,0.9,36.4-15,36.4-34.7V35.8
		C440,22.9,433.4,10.6,422.1,4.4z M185.2,92.3v88.1c0,5.6-4.5,10.1-10.1,10.1h-25.5c-13.6,0-26.7,5.5-36.3,15.2l-7.4,7.5l-6.1-6.1
		l62.1-62.9c9.4-9.5,14.7-22.4,14.7-35.8V92.3H185.2z"/>
	<g>
		<g>
			<g>
				<g>
					<g>
						<path class="st1" d="M734.9,77.5c-41.4,0-62.1,29.6-62.1,61.9c0,32.4,20.8,61.9,62.1,61.9s61.9-29.6,61.9-61.9
							C796.9,107.1,776.3,77.5,734.9,77.5z M734.9,179.6c-24.2,0-37.2-18.7-37.2-40.1c0-21.5,13-40.3,37.2-40.3
							c24.4,0,37.2,18.9,37.2,40.3C772.1,160.9,759.3,179.6,734.9,179.6z"/>
					</g>
				</g>
				<g>
					<path class="st1" d="M881.8,150.8c-2.2,8.8-2.6,17.3-2.9,25.8h-3.3c-0.3-8.5-0.5-17-3.1-25.8l-22.8-71.1h-38.1v119.4h22.8
						v-63.5c0-8.8-2.8-25.1-4.2-33.9l3.6-1l32,98.5h22.5l31.3-98.5l3.8,1c-1.6,8.8-4.3,25.1-4.3,33.9v63.5h23V79.7H904L881.8,150.8z
						"/>
				</g>
				<g>
					<g>
						<path class="st1" d="M1019.1,77.5c-41.4,0-62.1,29.6-62.1,61.9c0,32.4,20.8,61.9,62.1,61.9c41.4,0,61.9-29.6,61.9-61.9
							S1060.4,77.5,1019.1,77.5z M1019.1,179.6c-24.2,0-37.2-18.7-37.2-40.1c0-21.5,13-40.3,37.2-40.3c24.4,0,37.2,18.9,37.2,40.3
							C1056.3,160.9,1043.5,179.6,1019.1,179.6z"/>
					</g>
				</g>
				<g>
					<g>
						<path class="st1" d="M1199.8,79.7h-12.1v-17h-22.5v17h-12.1c-36.7,0-62.6,23.5-62.6,59.7c0,36.5,26.5,59.7,62.3,59.7h12.5
							v18.5h22.5v-18.5h12.5c35.8,0,62.3-23.2,62.3-59.7C1262.5,103.3,1236.5,79.7,1199.8,79.7z M1164.6,177.5h-9.8
							c-19.7,0-39.5-11.1-39.5-38.1s19.6-38.1,39.6-38.1h9.7L1164.6,177.5L1164.6,177.5z M1198.1,177.5h-9.8v-76.1h9.7
							c20.1,0,39.6,11.1,39.6,38.1C1237.5,166.4,1217.8,177.5,1198.1,177.5z"/>
					</g>
				</g>
				<g>
					<g>
						<path class="st1" d="M1334.1,77.5c-41.4,0-62.1,29.6-62.1,61.9c0,32.4,20.8,61.9,62.1,61.9s61.9-29.6,61.9-61.9
							S1375.5,77.5,1334.1,77.5z M1334.1,179.6c-24.2,0-37.2-18.7-37.2-40.1c0-21.5,13-40.3,37.2-40.3c24.4,0,37.2,18.9,37.2,40.3
							C1371.3,160.9,1358.5,179.6,1334.1,179.6z"/>
					</g>
				</g>
				<g>
					<polygon class="st1" points="1492.8,79.7 1492.8,128.9 1434.5,128.9 1434.5,79.7 1410.8,79.7 1410.8,199.1 1434.5,199.1 
						1434.5,150.1 1492.8,150.1 1492.8,199.1 1516.7,199.1 1516.7,79.7 					"/>
				</g>
				<g>
					<g>
						<path class="st1" d="M627,79.7h-30l-38.7,99.5h-11.9v38.4H569v-18.5h86v18.5h22.5v-38.4h-11.9L627,79.7z M584.1,179.3
							l22.8-60.9c2.1-5.7,3.3-11.8,3.5-17.5h3.3c0.2,5.7,1.2,11.8,3.3,17.5l22.8,60.9H584.1z"/>
					</g>
				</g>
			</g>
			<g>
				<path class="st1" d="M1624.8,88.2c30.3,0,41.5,23.5,43.8,42.7l11.8-1.7c-2.6-24.9-19.2-51.6-55.5-51.6c-40,0-58,32.4-58,61.9
					c0,30.5,19,61.6,58.7,61.6c35.1,0,51.9-24.4,54.7-49.3l-11.9-1.6c-2.4,19.7-14.2,40.3-42.9,40.3c-32.4,0-46.5-26.3-46.5-51
					C1578.8,115.7,1591.7,88.2,1624.8,88.2z"/>
				<path class="st1" d="M1871.9,128.5h-39.5V90.1h66V79.7H1821v119.4h50.9c22,0,38.1-14.4,38.1-35.3S1893.9,128.5,1871.9,128.5z
					 M1868.8,188.7h-36.3v-49.8h36.3c17.5,0,29.4,9.9,29.4,24.9C1898.2,179,1886.2,188.7,1868.8,188.7z"/>
				<polygon class="st1" points="1699,199.1 1710.4,199.1 1710.4,90.1 1784.8,90.1 1784.8,199.1 1796.3,199.1 1796.3,79.7 
					1699,79.7 				"/>
			</g>
		</g>
	</g>
</g>
<g>
	<g>
		<path class="st2" d="M19.9,211.8L89.5,252c18.4,10.7,41.2,10.7,59.6,0l69.6-40.2c12.3-7.1,19.9-20.3,19.9-34.4V97.2
			c0-21.3-11.3-40.9-29.9-51.6L139.2,5.4c-12.3-7.1-27.4-7.1-39.7,0L29.9,45.6C11.5,56.2,0,75.9,0,97.2l0,80.2
			C0,191.7,7.7,204.8,19.9,211.8z M13.3,177.4l92.8-160.6h26.5l92.5,160.6l-13.3,23H26.5L13.3,177.4z"/>
	</g>
	<g>
		<g>
			<path class="st2" d="M499.3,71.5c-37.7,0-56.7,27-56.7,56.5c0,29.5,19,56.5,56.7,56.5s56.5-27,56.5-56.5
				C555.9,98.5,537.1,71.5,499.3,71.5z M499.3,164.7c-22.1,0-34-17.1-34-36.6c0-19.6,11.8-36.8,34-36.8c22.3,0,34,17.2,34,36.8
				C533.3,147.6,521.6,164.7,499.3,164.7z"/>
			<path class="st2" d="M633.4,138.5c-2.1,8.1-2.4,15.8-2.7,23.5h-3c-0.3-7.7-0.5-15.5-2.8-23.5L604,73.5h-34.7v109h20.8v-58
				c0-8.1-2.5-22.9-3.8-31l3.3-0.9l29.2,89.9h20.5L668,92.7l3.5,0.9c-1.4,8.1-3.9,22.9-3.9,31v58h21v-109h-34.7L633.4,138.5z"/>
			<path class="st2" d="M758.6,71.5c-37.7,0-56.7,27-56.7,56.5c0,29.5,19,56.5,56.7,56.5s56.5-27,56.5-56.5
				C815.2,98.5,796.4,71.5,758.6,71.5z M758.6,164.7c-22.1,0-34-17.1-34-36.6c0-19.6,11.8-36.8,34-36.8c22.3,0,34,17.2,34,36.8
				C792.6,147.6,780.9,164.7,758.6,164.7z"/>
			<path class="st2" d="M923.6,73.5h-11.1V58.1H892v15.5h-11.1c-33.5,0-57.2,21.5-57.2,54.5c0,33.3,24.2,54.5,56.9,54.5H892v16.9
				h20.5v-16.9h11.4c32.7,0,56.9-21.2,56.9-54.5C980.8,95,957.1,73.5,923.6,73.5z M891.5,162.8h-9c-18,0-36-10.1-36-34.7
				c0-24.6,17.8-34.7,36.2-34.7h8.8V162.8z M922,162.8h-9V93.3h8.8c18.3,0,36.2,10.1,36.2,34.7C958,152.7,940,162.8,922,162.8z"/>
			<path class="st2" d="M1046.1,71.5c-37.7,0-56.7,27-56.7,56.5c0,29.5,19,56.5,56.7,56.5s56.5-27,56.5-56.5
				C1102.7,98.5,1083.9,71.5,1046.1,71.5z M1046.1,164.7c-22.1,0-34-17.1-34-36.6c0-19.6,11.8-36.8,34-36.8c22.3,0,34,17.2,34,36.8
				C1080.1,147.6,1068.4,164.7,1046.1,164.7z"/>
			<polygon class="st2" points="1190.9,73.5 1190.9,118.4 1137.7,118.4 1137.7,73.5 1116.1,73.5 1116.1,182.5 1137.7,182.5 
				1137.7,137.8 1190.9,137.8 1190.9,182.5 1212.7,182.5 1212.7,73.5 			"/>
			<path class="st2" d="M400.8,73.5h-27.3l-35.3,90.8h-10.9v35h20.5v-16.9h78.5v16.9H447v-35h-10.9L400.8,73.5z M361.6,164.4
				l20.8-55.6c1.9-5.2,3-10.7,3.2-16h3c0.2,5.2,1.1,10.7,3,16l20.8,55.6H361.6z"/>
		</g>
		<g>
			<path class="st2" d="M1311.4,81.3c27.6,0,37.9,21.5,40,39l10.7-1.6c-2.4-22.7-17.5-47.1-50.7-47.1c-36.5,0-52.9,29.5-52.9,56.5
				c0,27.8,17.4,56.2,53.5,56.2c32.1,0,47.4-22.3,49.9-45l-10.9-1.4c-2.2,18-12.9,36.8-39.2,36.8c-29.5,0-42.5-24-42.5-46.6
				C1269.4,106.4,1281.3,81.3,1311.4,81.3z"/>
			<path class="st2" d="M1536.9,118.1h-36V83h60.2v-9.5h-70.7v109h46.4c20.1,0,34.7-13.1,34.7-32.2S1557,118.1,1536.9,118.1z
				 M1534.1,173h-33.2v-45.5h33.2c16,0,26.8,9,26.8,22.7C1560.9,164.2,1550,173,1534.1,173z"/>
			<polygon class="st2" points="1379.2,182.5 1389.6,182.5 1389.6,83 1457.5,83 1457.5,182.5 1467.9,182.5 1467.9,73.5 1379.2,73.5 
							"/>
		</g>
	</g>
</g>
</svg>
