<?xml version="1.0" encoding="utf-8"?>
<!-- Generator: Adobe Illustrator 22.0.0, SVG Export Plug-In . SVG Version: 6.00 Build 0)  -->
<svg version="1.1" id="Layer_1" xmlns="http://www.w3.org/2000/svg" xmlns:xlink="http://www.w3.org/1999/xlink" x="0px" y="0px"
	 viewBox="0 0 2068.5 260" style="enable-background:new 0 0 2068.5 260;" xml:space="preserve">
<style type="text/css">
	.st0{fill:#FFFFFF;}
</style>
<path class="st0" d="M422.1,4.4c-13.9-7.7-31-5-41.8,6.1L254.7,139.6l0-104c0-12-5.7-23.5-15.8-30c-14.2-9.2-32.5-6.8-43.9,4.9
	L9.8,201c-11.1,11.4-13.2,29.2-4.3,43C12,254.3,23.7,260,35.8,260c0,0,100.5,0,158.7,0c25.8,0,50.5-10.5,68.5-29l84.3-86.4
	c9.3-9.5,14.5-22.3,14.5-35.5V92.3h8.7l0,132c0,18.7,14.4,34.8,33.1,35.7c20,0.9,36.4-15,36.4-34.7l0-189.5
	C440,22.9,433.4,10.6,422.1,4.4z M185.2,92.3v88.1c0,5.6-4.5,10.1-10.1,10.1l-25.5,0c-13.6,0-26.7,5.5-36.3,15.2l-7.4,7.5l-6.1-6.1
	l62.1-62.9c9.4-9.5,14.7-22.4,14.7-35.8V92.3H185.2z"/>
<g>
	<g>
		<g>
			<g>
				<g>
					<path class="st0" d="M756.9,70.2c-46.2,0-69.3,33-69.3,69.2c0,36.1,23.2,69.2,69.3,69.2c46.2,0,69.2-33,69.2-69.2
						C826,103.2,803,70.2,756.9,70.2z M756.9,184.1c-27,0-41.5-20.9-41.5-44.8c0-24,14.5-45,41.5-45c27.2,0,41.5,21.1,41.5,45
						C798.4,163.3,784.1,184.1,756.9,184.1z"/>
				</g>
			</g>
			<g>
				<path class="st0" d="M920.8,152.1c-2.5,9.9-2.9,19.3-3.3,28.8h-3.7c-0.4-9.5-0.6-18.9-3.5-28.8l-25.5-79.4h-42.5V206h25.5v-70.9
					c0-9.9-3.1-28-4.6-37.9l4.1-1.2L903.1,206h25.1l35-109.9l4.2,1.2c-1.7,9.9-4.8,28-4.8,37.9V206h25.7V72.7h-42.5L920.8,152.1z"/>
			</g>
			<g>
				<g>
					<path class="st0" d="M1074,70.2c-46.2,0-69.3,33-69.3,69.2c0,36.1,23.2,69.2,69.3,69.2c46.2,0,69.2-33,69.2-69.2
						C1143.2,103.2,1120.2,70.2,1074,70.2z M1074,184.1c-27,0-41.5-20.9-41.5-44.8c0-24,14.5-45,41.5-45c27.2,0,41.5,21.1,41.5,45
						C1115.5,163.3,1101.2,184.1,1074,184.1z"/>
				</g>
			</g>
			<g>
				<g>
					<path class="st0" d="M1275.8,72.7h-13.5v-19h-25.1v19h-13.5c-40.9,0-69.9,26.3-69.9,66.6c0,40.8,29.6,66.6,69.5,66.6h13.9v20.7
						h25.1V206h13.9c40,0,69.5-25.9,69.5-66.6C1345.7,99,1316.7,72.7,1275.8,72.7z M1236.5,181.8h-11c-22,0-44-12.4-44-42.5
						c0-30.1,21.8-42.5,44.2-42.5h10.8V181.8z M1273.9,181.8h-11v-85h10.8c22.4,0,44.2,12.4,44.2,42.5
						C1317.9,169.5,1295.9,181.8,1273.9,181.8z"/>
				</g>
			</g>
			<g>
				<g>
					<path class="st0" d="M1425.7,70.2c-46.2,0-69.3,33-69.3,69.2c0,36.1,23.2,69.2,69.3,69.2c46.2,0,69.2-33,69.2-69.2
						C1494.8,103.2,1471.8,70.2,1425.7,70.2z M1425.7,184.1c-27,0-41.5-20.9-41.5-44.8c0-24,14.5-45,41.5-45
						c27.2,0,41.5,21.1,41.5,45C1467.2,163.3,1452.9,184.1,1425.7,184.1z"/>
				</g>
			</g>
			<g>
				<polygon class="st0" points="1602.8,72.7 1602.8,127.5 1537.7,127.5 1537.7,72.7 1511.2,72.7 1511.2,206 1537.7,206 
					1537.7,151.3 1602.8,151.3 1602.8,206 1629.5,206 1629.5,72.7 				"/>
			</g>
			<g>
				<g>
					<path class="st0" d="M636.3,72.7h-33.4l-43.2,111.1h-13.3v42.9h25.1V206h96.1v20.7h25.1v-42.9h-13.3L636.3,72.7z M588.4,183.8
						l25.5-68c2.3-6.4,3.7-13.1,3.9-19.5h3.7c0.2,6.4,1.4,13.1,3.7,19.5l25.5,68H588.4z"/>
				</g>
			</g>
		</g>
		<g>
			<path class="st0" d="M1750.2,82.2c33.8,0,46.4,26.3,48.9,47.7l13.1-1.9c-2.9-27.8-21.4-57.6-62-57.6c-44.6,0-64.7,36.1-64.7,69.2
				c0,34,21.2,68.8,65.5,68.8c39.2,0,57.9-27.2,61-55.1l-13.3-1.7c-2.7,22-15.8,45-47.9,45c-36.1,0-52-29.4-52-57
				C1698.8,112.9,1713.3,82.2,1750.2,82.2z"/>
			<path class="st0" d="M2026,127.2h-44V84.3h73.7V72.7h-86.4V206h56.8c24.5,0,42.5-16,42.5-39.4S2050.5,127.2,2026,127.2z
				 M2022.5,194.4h-40.6v-55.6h40.6c19.5,0,32.8,11,32.8,27.8C2055.3,183.6,2042,194.4,2022.5,194.4z"/>
			<polygon class="st0" points="1833,206 1845.8,206 1845.8,84.3 1928.8,84.3 1928.8,206 1941.6,206 1941.6,72.7 1833,72.7 			"/>
		</g>
	</g>
</g>
</svg>
