<?xml version="1.0" encoding="utf-8"?>
<!-- Generator: Adobe Illustrator 22.0.0, SVG Export Plug-In . SVG Version: 6.00 Build 0)  -->
<svg version="1.1" id="Layer_1" xmlns="http://www.w3.org/2000/svg" xmlns:xlink="http://www.w3.org/1999/xlink" x="0px" y="0px"
	 viewBox="0 0 430 254.3" style="enable-background:new 0 0 430 254.3;" xml:space="preserve">
<style type="text/css">
	.st0{fill:#FFFFFF;}
</style>
<path class="st0" d="M203.7,44.6L135.8,5.4c-6-3.5-12.7-5.2-19.4-5.2S103,1.9,97,5.4L29.2,44.6C11.2,55,0,74.2,0,95v78.3
	c0,13.9,7.4,26.8,19.4,33.6l67.9,39.3c9,5.2,19,7.8,29.1,7.8s20.1-2.6,29.1-7.8l67.9-39.2c12-6.8,19.4-19.7,19.4-33.6V95
	C232.9,74.2,221.7,55,203.7,44.6z M208.8,195.8H24l-12.8-22.4l92.3-158.6h25.8l92.3,158.6L208.8,195.8z"/>
</svg>
