<?xml version="1.0" encoding="utf-8"?>
<!-- Generator: Adobe Illustrator 22.0.0, SVG Export Plug-In . SVG Version: 6.00 Build 0)  -->
<svg version="1.1" id="Layer_1" xmlns="http://www.w3.org/2000/svg" xmlns:xlink="http://www.w3.org/1999/xlink" x="0px" y="0px"
	 viewBox="0 0 2013.8 260" style="enable-background:new 0 0 2013.8 260;" xml:space="preserve">
<style type="text/css">
	.st0{fill:#FFFFFF;}
</style>
<g>
	<g>
		<path class="st0" d="M647.3,49.1l39.5,131h20.9v68.7h-32.5v-36.2H570v36.2h-32.5V180h20.9L597.9,49L647.3,49.1L647.3,49.1z
			 M622.7,80.3h-1.2L593.7,180h56.7L622.7,80.3z"/>
		<path class="st0" d="M735.2,207.3c-9.3-5.3-16.4-12.7-21.6-22.1c-5.1-9.4-7.7-20.2-7.7-32.4c0-12,2.6-22.7,7.7-32.3
			c5.1-9.5,12.3-16.9,21.6-22.2c9.3-5.3,19.9-7.9,31.6-7.9c11.9,0,22.5,2.6,31.8,7.9s16.6,12.7,21.8,22.2c5.2,9.5,7.8,20.2,7.8,32.3
			s-2.6,22.9-7.8,32.4c-5.2,9.4-12.5,16.8-21.8,22.1s-19.9,7.9-31.9,7.9C755,215.3,744.4,212.6,735.2,207.3z M786.6,177.4
			c4.9-6,7.4-14.1,7.4-24.5c0-10.2-2.3-18.4-7.4-24.5c-4.9-6-11.4-9-19.8-9c-8.4,0-14.7,3-19.5,9c-4.8,6-7,14.1-7,24.5
			c0,10.2,2.2,18.4,7,24.5c4.8,6,11.2,9,19.5,9C775.1,186.4,781.7,183.3,786.6,177.4z"/>
		<path class="st0" d="M872.9,212.6h-31.8V93.4h42l32.7,81.4h1.2l32.5-81.4H990v119.1h-32v-74.4h-1.2l-29.8,74.4h-22.8l-30-74.3
			h-1.2L872.9,212.6L872.9,212.6z"/>
		<path class="st0" d="M1032.3,207.3c-9.3-5.3-16.4-12.7-21.7-22.1c-5.1-9.4-7.7-20.2-7.7-32.4c0-12,2.6-22.7,7.7-32.3
			c5.1-9.5,12.3-16.9,21.7-22.2c9.3-5.3,19.9-7.9,31.6-7.9c11.9,0,22.5,2.6,31.8,7.9s16.6,12.7,21.8,22.2c5.2,9.5,7.8,20.2,7.8,32.3
			s-2.6,22.9-7.8,32.4c-5.2,9.4-12.5,16.8-21.8,22.1c-9.3,5.3-19.9,7.9-31.9,7.9C1052,215.3,1041.5,212.6,1032.3,207.3z
			 M1083.7,177.4c4.9-6,7.4-14.1,7.4-24.5c0-10.2-2.3-18.4-7.4-24.5c-4.9-6-11.4-9-19.8-9c-8.3,0-14.7,3-19.5,9
			c-4.8,6-7,14.1-7,24.5c0,10.2,2.2,18.4,7,24.5c4.8,6,11.2,9,19.5,9C1072.2,186.4,1078.8,183.3,1083.7,177.4z"/>
		<path class="st0" d="M1278.3,184.2c-5.1,9.2-12.3,16.4-21.4,21.9c-9.1,5.5-19.4,8.5-31,9.1v43.9h-34.2v-43.9
			c-11.3-0.6-21.6-3.7-30.6-9.1c-9.1-5.5-16.2-12.8-21.4-21.9c-5.1-9.2-7.7-19.6-7.7-31.3c0-11.6,2.6-22.1,7.7-31.3
			s12.3-16.4,21.4-21.9c9.1-5.5,19.3-8.5,30.6-9.1V49.1h34.2v41.6c11.4,0.6,21.8,3.7,31,9.1c9.1,5.5,16.2,12.8,21.4,21.9
			c5.1,9.2,7.7,19.6,7.7,31.3C1285.9,164.6,1283.4,175.1,1278.3,184.2z M1172.1,177.4c5.5,6.3,12.6,9.8,21.2,10.4v-69.4
			c-8.7,0.6-15.8,4-21.2,10.2c-5.5,6.2-8.2,14.3-8.2,24.3C1163.9,163,1166.6,171,1172.1,177.4z M1224.3,188
			c8.9-0.8,16-4.3,21.5-10.6c5.5-6.3,8.2-14.5,8.2-24.5s-2.7-18.1-8.2-24.3c-5.5-6.2-12.6-9.7-21.5-10.5V188z"/>
		<path class="st0" d="M1321.8,207.3c-9.3-5.3-16.4-12.7-21.7-22.1c-5.1-9.4-7.7-20.2-7.7-32.4c0-12,2.6-22.7,7.7-32.3
			s12.3-16.9,21.7-22.2c9.3-5.3,19.9-7.9,31.6-7.9c11.9,0,22.5,2.6,31.8,7.9c9.4,5.3,16.6,12.7,21.8,22.2c5.2,9.5,7.8,20.2,7.8,32.3
			s-2.6,22.9-7.8,32.4c-5.2,9.4-12.5,16.8-21.8,22.1c-9.3,5.3-19.9,7.9-31.9,7.9C1341.6,215.3,1331.1,212.6,1321.8,207.3z
			 M1373.2,177.4c4.9-6,7.4-14.1,7.4-24.5c0-10.2-2.3-18.4-7.4-24.5c-4.9-6-11.4-9-19.8-9c-8.4,0-14.7,3-19.5,9
			c-4.8,6-7,14.1-7,24.5c0,10.2,2.2,18.4,7,24.5c4.8,6,11.2,9,19.5,9S1368.3,183.3,1373.2,177.4z"/>
		<path class="st0" d="M1504.9,137.8V93.4h34.1v119.1h-34.1V166H1462v46.5h-34.1V93.4h34.1v44.3L1504.9,137.8L1504.9,137.8z"/>
		<path class="st0" d="M1638.1,204.4c-11.5-6.9-20.5-16.9-26.9-29.5s-9.4-27.4-9.4-44c0-16.4,3.1-31.2,9.4-43.9
			c6.3-12.8,15.2-22.7,26.8-29.6c11.4-6.9,24.8-10.5,39.6-10.5c16.4,0,30.6,4.3,42.3,12.9c11.6,8.6,20.1,20.9,25.3,37.3l-19,3.2
			c-3.8-11.2-9.8-19.9-18.3-25.7c-8.5-6-18.6-9-30.6-9c-17.2,0-30.5,5.8-40.4,17.5c-9.7,11.6-14.7,27.7-14.7,47.8
			c0,20.3,4.9,36.4,14.7,47.9c9.8,11.5,23.4,17.4,40.6,17.4c12.3,0,22.7-3,31.2-9c8.5-6,14.7-14.7,18.3-25.7l19,3.2
			c-5.3,16.1-13.8,28.6-25.5,37.3c-11.7,8.6-26.1,12.9-42.9,12.9C1663,214.9,1649.6,211.4,1638.1,204.4z"/>
		<path class="st0" d="M1787.4,212.6h-20.9V49.1h120.2v163.5h-20.9V67.8h-78.3L1787.4,212.6L1787.4,212.6z"/>
		<path class="st0" d="M1920.8,195.9c-9.6-12.6-14.4-30.4-14.4-53.4c0-28.7,5.4-50.2,16-64.4c10.8-14.3,27.8-22.8,51.2-25.7
			c14.3-1.7,25.1-3.6,32.5-5.6l3.1,18c-8.3,2.2-20.3,4.4-36.2,6.3c-10.2,1.3-18.6,3.7-24.9,7.3c-6.4,3.6-11.3,8.9-15.1,15.9
			c-3.7,7-6.3,16.4-7.8,28.4h1.2c8.7-15.6,21.8-23.4,38.9-23.4c9.6,0,18.2,2.3,25.3,7.3c7.3,4.9,13,11.5,17.1,20.2
			c4,8.6,6.1,18.6,6.1,29.7c0,11.6-2.2,21.9-6.5,30.6c-4.3,8.8-10.3,15.6-18.3,20.4c-7.9,4.9-17,7.3-27.4,7.3
			C1944.1,214.9,1930.4,208.5,1920.8,195.9z M1985.6,186.7c5.6-7,8.5-17.2,8.5-30.2c0-12.8-2.8-22.6-8.3-29.4
			c-5.6-6.7-13.5-10.2-24-10.2c-10.9,0-19.3,3.5-25.3,10.5c-6,6.9-9,16.7-9,29.2c0,12.5,3.1,22.4,9.1,29.7
			c6.1,7.4,14.5,11.1,25.2,11.1C1972.1,197.4,1980,193.8,1985.6,186.7z"/>
	</g>
</g>
<path class="st0" d="M422.1,4.4c-13.9-7.7-31-5-41.8,6.1L254.7,139.6l0-104c0-12-5.7-23.5-15.8-30c-14.2-9.2-32.5-6.8-43.9,4.9
	L9.8,201c-11.1,11.4-13.2,29.2-4.3,43C12,254.3,23.7,260,35.8,260c0,0,100.5,0,158.7,0c25.8,0,50.5-10.5,68.5-29l84.3-86.4
	c9.3-9.5,14.5-22.3,14.5-35.5V92.3h8.7l0,132c0,18.7,14.4,34.8,33.1,35.7c20,0.9,36.4-15,36.4-34.7l0-189.5
	C440,22.9,433.4,10.6,422.1,4.4z M185.2,92.3v88.1c0,5.6-4.5,10.1-10.1,10.1l-25.5,0c-13.6,0-26.7,5.5-36.3,15.2l-7.4,7.5l-6.1-6.1
	l62.1-62.9c9.4-9.5,14.7-22.4,14.7-35.8V92.3H185.2z"/>
</svg>
