<?xml version="1.0" encoding="utf-8"?>
<!-- Generator: Adobe Illustrator 22.0.0, SVG Export Plug-In . SVG Version: 6.00 Build 0)  -->
<svg version="1.1" id="Layer_1" xmlns="http://www.w3.org/2000/svg" xmlns:xlink="http://www.w3.org/1999/xlink" x="0px" y="0px"
	 viewBox="0 0 1284.3 145" style="enable-background:new 0 0 1284.3 145;" xml:space="preserve">
<style type="text/css">
	.st0{fill:#202134;}
</style>
<g>
	<g>
		<g>
			<g>
				<g>
					<path class="st0" d="M176.4,13.8c-38.7,0-58.1,27.7-58.1,58c0,30.3,19.4,58,58.1,58s58-27.7,58-58
						C234.4,41.5,215.1,13.8,176.4,13.8z M176.4,109.3c-22.7,0-34.8-17.5-34.8-37.6c0-20.1,12.1-37.7,34.8-37.7
						c22.8,0,34.8,17.7,34.8,37.7C211.2,91.9,199.3,109.3,176.4,109.3z"/>
				</g>
			</g>
			<g>
				<path class="st0" d="M313.9,82.5c-2.1,8.3-2.4,16.2-2.8,24.1h-3.1c-0.3-7.9-0.5-15.9-2.9-24.1l-21.4-66.6h-35.6v111.8h21.4V68.2
					c0-8.3-2.6-23.5-3.9-31.7l3.4-1l30,92.2h21.1l29.3-92.2l3.6,1c-1.5,8.3-4,23.5-4,31.7v59.4h21.5V15.9h-35.6L313.9,82.5z"/>
			</g>
			<g>
				<g>
					<path class="st0" d="M442.4,13.8c-38.7,0-58.1,27.7-58.1,58c0,30.3,19.4,58,58.1,58s58-27.7,58-58
						C500.3,41.5,481.1,13.8,442.4,13.8z M442.4,109.3c-22.7,0-34.8-17.5-34.8-37.6c0-20.1,12.1-37.7,34.8-37.7
						c22.8,0,34.8,17.7,34.8,37.7C477.2,91.9,465.2,109.3,442.4,109.3z"/>
				</g>
			</g>
			<g>
				<g>
					<path class="st0" d="M611.6,15.9h-11.4V0h-21.1v15.9h-11.4c-34.3,0-58.6,22-58.6,55.9c0,34.2,24.8,55.9,58.3,55.9h11.7V145
						h21.1v-17.4h11.7c33.5,0,58.3-21.7,58.3-55.9C670.2,37.9,645.9,15.9,611.6,15.9z M578.6,107.4h-9.2
						c-18.5,0-36.9-10.4-36.9-35.6c0-25.3,18.3-35.6,37.1-35.6h9V107.4z M609.9,107.4h-9.2V36.1h9c18.8,0,37.1,10.4,37.1,35.6
						C646.9,97,628.4,107.4,609.9,107.4z"/>
				</g>
			</g>
			<g>
				<g>
					<path class="st0" d="M737.2,13.8c-38.7,0-58.1,27.7-58.1,58c0,30.3,19.4,58,58.1,58c38.7,0,58-27.7,58-58
						C795.2,41.5,776,13.8,737.2,13.8z M737.2,109.3c-22.7,0-34.8-17.5-34.8-37.6c0-20.1,12.1-37.7,34.8-37.7
						c22.8,0,34.8,17.7,34.8,37.7C772.1,91.9,760.1,109.3,737.2,109.3z"/>
				</g>
			</g>
			<g>
				<polygon class="st0" points="885.8,15.9 885.8,61.9 831.2,61.9 831.2,15.9 809,15.9 809,127.6 831.2,127.6 831.2,81.8 
					885.8,81.8 885.8,127.6 908.1,127.6 908.1,15.9 				"/>
			</g>
			<g>
				<g>
					<path class="st0" d="M75.4,15.9h-28l-36.2,93.2H0V145h21.1v-17.4h80.6V145h21.1v-35.9h-11.1L75.4,15.9z M35.2,109.1l21.4-57
						c1.9-5.3,3.1-11,3.2-16.4h3.1C63,41,64,46.7,66,52l21.4,57H35.2z"/>
				</g>
			</g>
		</g>
	</g>
	<g>
		<g>
			<path class="st0" d="M1017.3,23.8c28.3,0,38.9,22,41,40l11-1.6c-2.4-23.3-18-48.3-52-48.3c-37.4,0-54.3,30.3-54.3,58
				c0,28.5,17.8,57.7,54.9,57.7c32.9,0,48.6-22.8,51.2-46.2L1058,82c-2.3,18.5-13.3,37.7-40.2,37.7c-30.3,0-43.6-24.6-43.6-47.8
				C974.3,49.6,986.4,23.8,1017.3,23.8z"/>
			<path class="st0" d="M1248.6,61.6h-36.9v-36h61.8v-9.7H1201v111.8h47.6c20.6,0,35.6-13.4,35.6-33S1269.2,61.6,1248.6,61.6z
				 M1245.7,117.9h-34V71.3h34c16.4,0,27.5,9.2,27.5,23.3C1273.2,108.9,1262.1,117.9,1245.7,117.9z"/>
			<polygon class="st0" points="1086.8,127.6 1097.5,127.6 1097.5,25.6 1167.2,25.6 1167.2,127.6 1177.8,127.6 1177.8,15.9 
				1086.8,15.9 			"/>
		</g>
	</g>
</g>
</svg>
