<?xml version="1.0" encoding="utf-8"?>
<!-- Generator: Adobe Illustrator 22.0.0, SVG Export Plug-In . SVG Version: 6.00 Build 0)  -->
<svg version="1.1" id="Layer_1" xmlns="http://www.w3.org/2000/svg" xmlns:xlink="http://www.w3.org/1999/xlink" x="0px" y="0px"
	 viewBox="0 0 1910 260.1" style="enable-background:new 0 0 1910 260.1;" xml:space="preserve">
<style type="text/css">
	.st0{opacity:0;}
	.st1{fill:#202134;}
	.st2{fill:#FFFFFF;}
</style>
<g class="st0">
	<path class="st1" d="M18.3,205.2l63.9,36.9c16.9,9.8,37.8,9.8,54.8,0l63.9-36.9c11.3-6.6,18.3-18.6,18.3-31.6V99.8
		c0-19.5-10.4-37.6-27.4-47.4l-63.9-36.9c-11.3-6.6-25.2-6.6-36.5,0L27.4,52.4C10.5,62.2,0,80.3,0,99.8l0,73.8
		C0,186.7,7,198.8,18.3,205.2z M12.2,173.6L97.5,25.9h24.4l85.1,147.6l-12.2,21.1H24.3L12.2,173.6z"/>
</g>
<g>
	<path class="st1" d="M18.3,205.2l63.9,36.9c16.9,9.8,37.8,9.8,54.8,0l63.9-36.9c11.3-6.6,18.3-18.6,18.3-31.6V99.8
		c0-19.5-10.4-37.6-27.4-47.4l-63.9-36.9c-11.3-6.6-25.2-6.6-36.5,0L27.4,52.4C10.5,62.2,0,80.3,0,99.8l0,73.8
		C0,186.7,7,198.8,18.3,205.2z M10.6,173.6L10.6,173.6c7.8-6.3,14.4-14.1,19.4-22.8L87.7,49.5c4.5-7.9,7.8-16.3,9.8-25.2l0,0h24.4v0
		c2,8.8,5.3,17.3,9.7,25.2l56.9,101c5.1,9,11.9,16.8,20.1,23.1l0,0l-12.2,21.1h0c-9.4-2.7-19-4.1-28.8-4.1l-118.4,0
		c-9,0-17.9,1.4-26.5,4.1h0L10.6,173.6z"/>
</g>
<g>
	<g>
		<g>
			<g>
				<path class="st1" d="M479.4,72c-38.7,0-58.1,27.7-58.1,58c0,30.3,19.4,58,58.1,58s58-27.7,58-58C537.4,99.7,518.2,72,479.4,72z
					 M479.4,167.6c-22.7,0-34.8-17.5-34.8-37.6c0-20.1,12.1-37.7,34.8-37.7c22.8,0,34.8,17.7,34.8,37.7
					C514.3,150.1,502.3,167.6,479.4,167.6z"/>
			</g>
		</g>
		<g>
			<path class="st1" d="M616.9,140.7c-2.1,8.3-2.4,16.2-2.8,24.1h-3.1c-0.3-7.9-0.5-15.9-2.9-24.1l-21.4-66.6h-35.6v111.8h21.4
				v-59.4c0-8.3-2.6-23.5-3.9-31.7l3.4-1l30,92.2h21.1l29.3-92.2l3.6,1c-1.5,8.3-4,23.5-4,31.7v59.4h21.5V74.1h-35.6L616.9,140.7z"
				/>
		</g>
		<g>
			<g>
				<path class="st1" d="M745.4,72c-38.7,0-58.1,27.7-58.1,58c0,30.3,19.4,58,58.1,58c38.7,0,58-27.7,58-58
					C803.4,99.7,784.1,72,745.4,72z M745.4,167.6c-22.7,0-34.8-17.5-34.8-37.6c0-20.1,12.1-37.7,34.8-37.7
					c22.8,0,34.8,17.7,34.8,37.7C780.2,150.1,768.2,167.6,745.4,167.6z"/>
			</g>
		</g>
		<g>
			<g>
				<path class="st1" d="M914.6,74.1h-11.4V58.2h-21.1v15.9h-11.4c-34.3,0-58.6,22-58.6,55.9c0,34.2,24.8,55.9,58.3,55.9h11.7v17.4
					h21.1v-17.4h11.7c33.5,0,58.3-21.7,58.3-55.9C973.2,96.2,948.9,74.1,914.6,74.1z M881.6,165.6h-9.2c-18.5,0-36.9-10.4-36.9-35.6
					c0-25.3,18.3-35.6,37.1-35.6h9V165.6z M913,165.6h-9.2V94.4h9c18.8,0,37.1,10.4,37.1,35.6C949.9,155.3,931.4,165.6,913,165.6z"
					/>
			</g>
		</g>
		<g>
			<g>
				<path class="st1" d="M1040.3,72c-38.7,0-58.1,27.7-58.1,58c0,30.3,19.4,58,58.1,58c38.7,0,58-27.7,58-58
					C1098.3,99.7,1079,72,1040.3,72z M1040.3,167.6c-22.7,0-34.8-17.5-34.8-37.6c0-20.1,12.1-37.7,34.8-37.7
					c22.8,0,34.8,17.7,34.8,37.7C1075.1,150.1,1063.1,167.6,1040.3,167.6z"/>
			</g>
		</g>
		<g>
			<polygon class="st1" points="1188.8,74.1 1188.8,120.1 1134.2,120.1 1134.2,74.1 1112,74.1 1112,185.9 1134.2,185.9 
				1134.2,140.1 1188.8,140.1 1188.8,185.9 1211.1,185.9 1211.1,74.1 			"/>
		</g>
		<g>
			<g>
				<path class="st1" d="M378.4,74.1h-28l-36.2,93.2H303v35.9h21.1v-17.4h80.6v17.4h21.1v-35.9h-11.1L378.4,74.1z M338.2,167.3
					l21.4-57c1.9-5.3,3.1-11,3.2-16.4h3.1c0.2,5.3,1.1,11,3.1,16.4l21.4,57H338.2z"/>
			</g>
		</g>
	</g>
</g>
<g>
	<g>
		<path class="st1" d="M1320.4,82.1c28.3,0,38.9,22,41,40l11-1.6c-2.4-23.3-18-48.3-52-48.3c-37.4,0-54.3,30.3-54.3,58
			c0,28.5,17.8,57.7,54.9,57.7c32.9,0,48.6-22.8,51.2-46.2l-11.2-1.5c-2.3,18.5-13.3,37.7-40.2,37.7c-30.3,0-43.6-24.6-43.6-47.8
			C1277.3,107.8,1289.4,82.1,1320.4,82.1z"/>
		<path class="st1" d="M1551.6,119.8h-36.9v-36h61.8v-9.7H1504v111.8h47.6c20.6,0,35.6-13.4,35.6-33S1572.2,119.8,1551.6,119.8z
			 M1548.7,176.2h-34v-46.6h34c16.4,0,27.5,9.2,27.5,23.3C1576.3,167.1,1565.1,176.2,1548.7,176.2z"/>
		<polygon class="st1" points="1389.8,185.9 1400.5,185.9 1400.5,83.9 1470.2,83.9 1470.2,185.9 1480.9,185.9 1480.9,74.1 
			1389.8,74.1 		"/>
	</g>
</g>
<g class="st0">
	<path class="st2" d="M482.3,71.9c-39.4,0-59.1,27.4-59.1,58.1c0,30.6,19.8,58,59.1,58c39.4,0,59-27.4,59-58
		C541.3,99.2,521.7,71.9,482.3,71.9z M482.3,163.7c-20.1,0-31.3-15.5-31.3-33.7c0-18.3,11.2-33.7,31.3-33.7
		c20.1,0,31.1,15.4,31.1,33.7C513.4,148.2,502.4,163.7,482.3,163.7z"/>
	<path class="st2" d="M622.2,133.1c-2.3,9.6-2.8,18.8-3.1,28.2h-3.4c-0.5-9.4-0.8-18.6-3.1-28.2l-16.8-59h-42.3v111.8h25.1v-51.3
		c0-9.7-2.8-27.4-3.9-36.6l3.9-1.1l26.1,89.1H630l25.8-89.1l3.7,1.1c-1.1,9.2-3.9,26.9-3.9,36.6v51.3h25.1V74.1h-42.3L622.2,133.1z"
		/>
	<path class="st2" d="M752.3,71.9c-39.4,0-59.1,27.4-59.1,58.1c0,30.6,19.8,58,59.1,58c39.4,0,59-27.4,59-58
		C811.2,99.2,791.6,71.9,752.3,71.9z M752.3,163.7c-20.1,0-31.3-15.5-31.3-33.7c0-18.3,11.2-33.7,31.3-33.7
		c20.1,0,31.1,15.4,31.1,33.7C783.4,148.2,772.4,163.7,752.3,163.7z"/>
	<path class="st2" d="M923.5,74.1h-10.4V58.2h-24.8v15.9h-10.4c-35.1,0-59.3,22.4-59.3,55.9c0,34,24.6,55.9,59.1,55.9h10.6v17.4
		h24.8v-17.4h10.6c34.5,0,59.1-21.9,59.1-55.9C982.8,96.5,958.6,74.1,923.5,74.1z M887.7,161.6h-7.5c-16.4,0-33.7-8.3-33.7-31.6
		c0-23.5,17.2-31.6,33.9-31.6h7.4V161.6z M921.2,161.6h-7.5V98.4h7.4c16.7,0,33.9,8.1,33.9,31.6
		C954.9,153.3,937.6,161.6,921.2,161.6z"/>
	<path class="st2" d="M1049.6,71.9c-39.4,0-59.1,27.4-59.1,58.1c0,30.6,19.8,58,59.1,58c39.4,0,59-27.4,59-58
		C1108.6,99.2,1089,71.9,1049.6,71.9z M1049.6,163.7c-20.1,0-31.3-15.5-31.3-33.7c0-18.3,11.2-33.7,31.3-33.7
		c20.1,0,31.1,15.4,31.1,33.7C1080.7,148.2,1069.7,163.7,1049.6,163.7z"/>
	<polygon class="st2" points="1196.3,74.1 1196.3,118.5 1147.6,118.5 1147.6,74.1 1120.9,74.1 1120.9,185.9 1147.6,185.9 
		1147.6,142 1196.3,142 1196.3,185.9 1223.1,185.9 1223.1,74.1 	"/>
	<path class="st2" d="M376.2,74.1h-33.7l-34.6,90.7H293v38.4h24.8v-17.4h83v17.4h24.8v-38.4h-14.9L376.2,74.1z M336.6,164.8
		l17.5-48.9c2.1-6.2,3.2-12.1,3.6-18.5h3.2c0.3,6.3,1.3,12.5,3.4,18.5l17.7,48.9H336.6z"/>
</g>
</svg>
