<?xml version="1.0" encoding="utf-8"?>
<!-- Generator: Adobe Illustrator 22.0.0, SVG Export Plug-In . SVG Version: 6.00 Build 0)  -->
<svg version="1.1" id="Layer_1" xmlns="http://www.w3.org/2000/svg" xmlns:xlink="http://www.w3.org/1999/xlink" x="0px" y="0px"
	 viewBox="0 0 201.4 101.5" style="enable-background:new 0 0 201.4 101.5;" xml:space="preserve">
<style type="text/css">
	.st0{opacity:0;}
	.st1{fill:#FFFFFF;}
</style>
<g class="st0">
	<path class="st1" d="M85.8,101.4L85.8,101.4H13.6c-5.4,0-10.4-3.3-12.5-8.3s-1-10.8,2.8-14.7L76.1,4.1c3.8-4,9.7-5.2,14.8-3.1
		c5.1,2.1,8.5,7,8.5,12.6v40.9l49-50.4c3.8-4,9.7-5.2,14.8-3.1s8.5,7,8.5,12.6v74.3c0,7.5-6.1,13.6-13.6,13.6s-13.6-6.1-13.6-13.6
		V47l-49,50.4l0,0l0,0l0,0l0,0c-0.3,0.3-0.6,0.6-0.9,0.9l0,0l0,0c-2.2,1.9-5,3-8.1,3.2C86.3,101.4,86,101.4,85.8,101.4z M45.7,74.3
		h26.6V47L45.7,74.3z"/>
</g>
<path class="st1" d="M161.3,1c-5-2.1-10.9-0.9-14.6,3.1L98.3,54.5V13.6C98.3,8,94.9,3.1,89.8,1c-5-2.1-10.9-0.9-14.6,3.1L3.8,78.4
	C0.1,82.3-1,88.1,1,93.1c2.1,5,7,8.3,12.4,8.3h71.4c0.2,0,0.5,0,0.7,0.1c3.1-0.2,5.8-1.3,8-3.2c0.3-0.3,0.6-0.6,0.9-0.9l38.3-39.9
	c8.6-9,7.5-20.9,7.5-20.9h2.6v51.2c0,7.5,6,13.6,13.5,13.6c7.4,0,13.5-6.1,13.5-13.6V13.6C169.7,8,166.4,3.1,161.3,1z M71.5,74.3
	H45.2L61.8,57c8-8.9,7-20.3,7-20.3h2.7V74.3z"/>
<g>
	<path class="st1" d="M180.9,8.6c-0.6-0.4-1.1-0.9-1.5-1.6S179,5.5,179,4.6s0.2-1.7,0.5-2.4s0.8-1.2,1.5-1.6
		c0.6-0.4,1.3-0.6,2.2-0.6s1.7,0.2,2.3,0.7s1.1,1.1,1.4,2l-1,0.2c-0.2-0.6-0.5-1.1-1-1.4s-1-0.5-1.7-0.5c-0.9,0-1.7,0.3-2.2,1
		c-0.5,0.6-0.8,1.5-0.8,2.6s0.3,2,0.8,2.6s1.3,0.9,2.2,0.9c0.7,0,1.2-0.2,1.7-0.5s0.8-0.8,1-1.4l1,0.2c-0.3,0.9-0.8,1.6-1.4,2
		c-0.6,0.5-1.4,0.7-2.3,0.7C182.3,9.1,181.6,8.9,180.9,8.6z"/>
	<path class="st1" d="M189,9h-1.1V0.1h6.5V9h-1.1V1.1H189V9z"/>
	<path class="st1" d="M196.3,8.1c-0.5-0.7-0.8-1.7-0.8-2.9c0-1.6,0.3-2.7,0.9-3.5c0.6-0.8,1.5-1.2,2.8-1.4c0.8-0.1,1.4-0.2,1.8-0.3
		l0.2,1c-0.4,0.1-1.1,0.2-2,0.3c-0.6,0.1-1,0.2-1.4,0.4s-0.6,0.5-0.8,0.9s-0.3,0.9-0.4,1.5h0.1c0.5-0.8,1.2-1.3,2.1-1.3
		c0.5,0,1,0.1,1.4,0.4s0.7,0.6,0.9,1.1s0.3,1,0.3,1.6s-0.1,1.2-0.4,1.7s-0.6,0.8-1,1.1s-0.9,0.4-1.5,0.4
		C197.5,9.1,196.8,8.8,196.3,8.1z M199.8,7.6c0.3-0.4,0.5-0.9,0.5-1.6s-0.2-1.2-0.4-1.6c-0.3-0.4-0.7-0.6-1.3-0.6s-1,0.2-1.4,0.6
		c-0.3,0.4-0.5,0.9-0.5,1.6s0.2,1.2,0.5,1.6s0.8,0.6,1.4,0.6C199.1,8.2,199.5,8,199.8,7.6z"/>
</g>
</svg>
