<?xml version="1.0" encoding="utf-8"?>
<!-- Generator: Adobe Illustrator 22.0.0, SVG Export Plug-In . SVG Version: 6.00 Build 0)  -->
<svg version="1.1" id="Layer_1" xmlns="http://www.w3.org/2000/svg" xmlns:xlink="http://www.w3.org/1999/xlink" x="0px" y="0px"
	 viewBox="0 0 171.7 101.5" style="enable-background:new 0 0 171.7 101.5;" xml:space="preserve">
<style type="text/css">
	.st0{fill:#FFFFFF;}
</style>
<g>
	<path class="st0" d="M85.8,101.4L85.8,101.4H13.6c-5.4,0-10.4-3.3-12.5-8.3s-1-10.8,2.8-14.7L76.1,4.1c3.8-4,9.7-5.2,14.8-3.1
		c5.1,2.1,8.5,7,8.5,12.6v40.9l49-50.4c3.8-4,9.7-5.2,14.8-3.1s8.5,7,8.5,12.6v74.3c0,7.5-6.1,13.6-13.6,13.6s-13.6-6.1-13.6-13.6
		V47l-49,50.4l0,0l0,0l0,0l0,0c-0.3,0.3-0.6,0.6-0.9,0.9l0,0l0,0c-2.2,1.9-5,3-8.1,3.2C86.3,101.4,86,101.4,85.8,101.4z M45.7,74.3
		h26.6V47L45.7,74.3z"/>
</g>
</svg>
