<?xml version="1.0" encoding="utf-8"?>
<!-- Generator: Adobe Illustrator 22.0.0, SVG Export Plug-In . SVG Version: 6.00 Build 0)  -->
<svg version="1.1" id="Layer_1" xmlns="http://www.w3.org/2000/svg" xmlns:xlink="http://www.w3.org/1999/xlink" x="0px" y="0px"
	 viewBox="0 0 490.9 254.1" style="enable-background:new 0 0 490.9 254.1;" xml:space="preserve">
<style type="text/css">
	.st0{fill:#FFFFFF;}
	.st1{opacity:0;fill:#FFFFFF;}
</style>
<g>
	<path class="st0" d="M237.5,19.7c-1.4-0.9-2.6-2.1-3.4-3.7s-1.2-3.4-1.2-5.5s0.4-3.9,1.2-5.5s1.9-2.8,3.3-3.7s3.1-1.3,5-1.3
		c2.1,0,3.8,0.5,5.3,1.6s2.5,2.6,3.2,4.7l-2.4,0.4c-0.5-1.4-1.2-2.5-2.3-3.2c-1.1-0.8-2.3-1.1-3.8-1.1c-2.1,0-3.8,0.7-5,2.2
		s-1.8,3.5-1.8,6s0.6,4.5,1.8,6c1.2,1.4,2.9,2.2,5.1,2.2c1.5,0,2.8-0.4,3.9-1.1c1.1-0.8,1.8-1.8,2.3-3.2l2.4,0.4
		c-0.7,2-1.7,3.6-3.2,4.7s-3.3,1.6-5.4,1.6C240.6,21,239,20.6,237.5,19.7z"/>
	<path class="st0" d="M256.2,20.7h-2.6V0.3h15v20.4H266V2.6h-9.8V20.7L256.2,20.7z"/>
	<path class="st0" d="M272.8,18.6c-1.2-1.6-1.8-3.8-1.8-6.7c0-3.6,0.7-6.3,2-8c1.4-1.8,3.5-2.8,6.4-3.2c1.8-0.2,3.1-0.4,4.1-0.7
		l0.4,2.2c-1,0.3-2.5,0.5-4.5,0.8c-1.3,0.2-2.3,0.5-3.1,0.9c-0.8,0.4-1.4,1.1-1.9,2s-0.8,2.1-1,3.5h0.2c1.1-2,2.7-2.9,4.9-2.9
		c1.2,0,2.3,0.3,3.2,0.9c0.9,0.6,1.6,1.4,2.1,2.5s0.8,2.3,0.8,3.7c0,1.5-0.3,2.7-0.8,3.8s-1.3,2-2.3,2.6s-2.1,0.9-3.4,0.9
		C275.8,21,274,20.2,272.8,18.6z M280.9,17.5c0.7-0.9,1.1-2.1,1.1-3.8c0-1.6-0.3-2.8-1-3.7c-0.7-0.8-1.7-1.3-3-1.3
		c-1.4,0-2.4,0.4-3.2,1.3c-0.8,0.9-1.1,2.1-1.1,3.6c0,1.6,0.4,2.8,1.1,3.7c0.8,0.9,1.8,1.4,3.2,1.4
		C279.2,18.8,280.2,18.4,280.9,17.5z"/>
</g>
<path class="st1" d="M412.6,4.3c-13.6-7.5-30.3-4.9-40.9,6L249,136.5V34.8c0-11.7-5.6-23-15.5-29.3c-13.9-9-31.7-6.6-42.9,4.8
	L9.6,196.5c-10.8,11.1-12.9,28.5-4.2,42c6.4,10,17.7,15.6,29.6,15.6c0,0,98.2,0,155.1,0c25.2,0,49.4-10.2,67-28.3l82.4-84.5
	c9.1-9.3,14.1-21.8,14.1-34.7V90.2h8.5v129c0,18.3,14.1,34,32.3,34.9c19.5,0.9,35.6-14.6,35.6-33.9V35
	C430,22.4,423.6,10.4,412.6,4.3z M181,90.2v86.1c0,5.5-4.4,9.9-9.9,9.9h-24.9c-13.3,0-26.1,5.3-35.4,14.8l-7.3,7.4l-6-6l60.7-61.4
	c9.2-9.3,14.4-21.9,14.4-35V90.2H181z"/>
<g>
	<path class="st0" d="M19.4,206.8L87.3,246c18,10.4,40.2,10.4,58.2,0l67.9-39.2c12-7,19.4-19.8,19.4-33.6V94.9
		c0-20.8-11-40-29.2-50.4L135.8,5.2c-12-7-26.8-7-38.8,0L29.2,44.5C11.2,54.9,0,74.1,0,94.9l0,78.3C0,187.1,7.4,200,19.4,206.8z
		 M13,173.2l90.6-156.8h25.9l90.3,156.8l-13,22.4h-181L13,173.2z"/>
</g>
</svg>
