<!--?xml version="1.0" encoding="utf-8"?-->
<!-- Generator: Adobe Illustrator 22.0.0, SVG Export Plug-In . SVG Version: 6.00 Build 0)  -->
<svg version="1.1" id="Layer_1" xmlns="http://www.w3.org/2000/svg" xmlns:xlink="http://www.w3.org/1999/xlink" x="0px" y="0px" viewBox="0 0 2224.6 291.7" style="enable-background:new 0 0 2224.6 291.7;" xml:space="preserve" width="2224.60009765625" height="291.70001220703125">
<style type="text/css">
	.st0{fill:none;stroke:#202134;stroke-width:77.9824;stroke-linecap:round;stroke-linejoin:round;stroke-miterlimit:10;}
	.st1{fill:#202134;}
</style>
<polyline class="st0 svg-elem-1" points="454.6,252.7 454.6,39 246.8,252.7 246.8,39 39,252.7 246.8,252.7 "></polyline>
<g>
	<g>
		<path class="st1 svg-elem-2" d="M703,56.4L747,202.2h23.4v76.4h-36.1v-40.3H617v40.3h-36.1v-76.4h23.4l43.9-145.9H703z M675.7,91.2h-1.3
			l-30.9,111h63.2L675.7,91.2z"></path>
		<path class="st1 svg-elem-3" d="M800.9,232.6c-10.3-5.9-18.3-14.1-24-24.6c-5.7-10.5-8.6-22.5-8.6-36c0-13.3,2.9-25.3,8.6-35.9
			c5.7-10.6,13.7-18.8,24-24.7c10.3-5.9,22.1-8.8,35.2-8.8c13.2,0,25,2.9,35.4,8.8c10.4,5.9,18.5,14.1,24.3,24.7
			c5.8,10.6,8.7,22.5,8.7,35.9c0,13.5-2.9,25.5-8.7,36c-5.8,10.5-13.9,18.7-24.2,24.6c-10.3,5.9-22.1,8.8-35.5,8.8
			C823,241.5,811.2,238.5,800.9,232.6z M858.1,199.2c5.5-6.7,8.2-15.7,8.2-27.2c0-11.4-2.7-20.5-8.2-27.2c-5.5-6.7-12.8-10-22-10
			c-9.2,0-16.4,3.3-21.7,10c-5.3,6.7-7.9,15.7-7.9,27.2c0,11.4,2.6,20.5,7.9,27.2c5.3,6.7,12.5,10,21.7,10
			C845.4,209.2,852.7,205.9,858.1,199.2z"></path>
		<path class="st1 svg-elem-4" d="M954.2,238.4h-35.4V105.8h46.8l36.4,90.7h1.3l36.1-90.7h45.2v132.6h-35.6v-82.7h-1.3l-33.3,82.7H989
			l-33.5-82.7h-1.3V238.4z"></path>
		<path class="st1 svg-elem-5" d="M1131.7,232.6c-10.3-5.9-18.3-14.1-24.1-24.6c-5.7-10.5-8.6-22.5-8.6-36c0-13.3,2.9-25.3,8.6-35.9
			c5.7-10.6,13.7-18.8,24.1-24.7c10.3-5.9,22.1-8.8,35.2-8.8c13.2,0,25,2.9,35.4,8.8c10.4,5.9,18.5,14.1,24.3,24.7
			c5.8,10.6,8.7,22.5,8.7,35.9c0,13.5-2.9,25.5-8.7,36c-5.8,10.5-13.9,18.7-24.2,24.6c-10.3,5.9-22.1,8.8-35.5,8.8
			C1153.7,241.5,1142,238.5,1131.7,232.6z M1188.9,199.2c5.5-6.7,8.2-15.7,8.2-27.2c0-11.4-2.7-20.5-8.2-27.2
			c-5.5-6.7-12.8-10-22-10c-9.2,0-16.4,3.3-21.7,10c-5.3,6.7-7.9,15.7-7.9,27.2c0,11.4,2.6,20.5,7.9,27.2c5.3,6.7,12.5,10,21.7,10
			C1176.1,209.2,1183.4,205.9,1188.9,199.2z"></path>
		<path class="st1 svg-elem-6" d="M1405.6,206.9c-5.7,10.2-13.7,18.4-23.8,24.4c-10.1,6.1-21.6,9.4-34.5,10.1v48.9h-38.2v-48.9
			c-12.7-0.7-24-4.1-34.2-10.1c-10.1-6.1-18.1-14.2-23.8-24.4c-5.7-10.2-8.6-21.8-8.6-34.8s2.9-24.6,8.6-34.8
			c5.7-10.2,13.7-18.4,23.8-24.4c10.1-6.1,21.5-9.4,34.2-10.1V56.4h38.2v46.3c12.8,0.7,24.3,4.1,34.5,10.1
			c10.1,6.1,18.1,14.2,23.8,24.4c5.7,10.2,8.6,21.8,8.6,34.8S1411.3,196.7,1405.6,206.9z M1287.3,199.2c6.1,7,14,10.9,23.7,11.6
			v-77.2c-9.7,0.7-17.6,4.5-23.7,11.4c-6.1,6.9-9.1,15.9-9.1,27C1278.2,183.2,1281.2,192.2,1287.3,199.2z M1345.5,211.1
			c9.9-0.9,17.9-4.8,23.9-11.8c6.1-7,9.1-16.1,9.1-27.2c0-11.1-3-20.1-9.1-27c-6.1-6.9-14-10.8-23.9-11.7V211.1z"></path>
		<path class="st1 svg-elem-7" d="M1454.1,232.6c-10.3-5.9-18.3-14.1-24.1-24.6c-5.7-10.5-8.6-22.5-8.6-36c0-13.3,2.9-25.3,8.6-35.9
			c5.7-10.6,13.7-18.8,24.1-24.7c10.3-5.9,22.1-8.8,35.2-8.8c13.2,0,25,2.9,35.4,8.8c10.4,5.9,18.5,14.1,24.3,24.7
			c5.8,10.6,8.7,22.5,8.7,35.9c0,13.5-2.9,25.5-8.7,36c-5.8,10.5-13.9,18.7-24.2,24.6c-10.3,5.9-22.1,8.8-35.5,8.8
			C1476.1,241.5,1464.4,238.5,1454.1,232.6z M1511.3,199.2c5.5-6.7,8.2-15.7,8.2-27.2c0-11.4-2.7-20.5-8.2-27.2
			c-5.5-6.7-12.8-10-22-10c-9.2,0-16.4,3.3-21.7,10c-5.3,6.7-7.9,15.7-7.9,27.2c0,11.4,2.6,20.5,7.9,27.2c5.3,6.7,12.5,10,21.7,10
			C1498.5,209.2,1505.8,205.9,1511.3,199.2z"></path>
		<path class="st1 svg-elem-8" d="M1657.8,155.2v-49.4h38v132.6h-38v-51.7h-47.8v51.7h-38V105.8h38v49.4H1657.8z"></path>
		<path class="st1 svg-elem-9" d="M1806.1,229.3c-12.9-7.8-22.9-18.8-29.9-32.9c-7-14.1-10.5-30.5-10.5-49c0-18.4,3.5-34.7,10.5-48.9
			c7-14.2,16.9-25.2,29.8-33c12.8-7.8,27.6-11.7,44.2-11.7c18.4,0,34.1,4.8,47.1,14.4s22.4,23.4,28.3,41.5l-21.1,3.6
			c-4.2-12.5-10.9-22.1-20.3-28.7c-9.4-6.7-20.7-10-34.1-10c-19.1,0-34,6.5-44.9,19.5c-10.8,13-16.3,30.8-16.3,53.3
			c0,22.7,5.5,40.5,16.4,53.4c10.9,12.9,26,19.4,45.2,19.4c13.7,0,25.3-3.3,34.7-10c9.4-6.7,16.3-16.3,20.4-28.7l21.1,3.6
			c-5.9,18-15.4,31.8-28.5,41.5c-13.1,9.6-29,14.4-47.7,14.4C1833.9,241,1819,237.1,1806.1,229.3z"></path>
		<path class="st1 svg-elem-10" d="M1972.4,238.4H1949v-182h133.9v182h-23.4V77.2h-87.1V238.4z"></path>
		<path class="st1 svg-elem-11" d="M2120.9,219.9c-10.7-14-16-33.9-16-59.5c0-31.9,6-55.8,17.9-71.6c12-15.9,30.9-25.4,56.9-28.7
			c15.9-1.9,28-4,36.1-6.2l3.4,20c-9.2,2.6-22.6,4.9-40.3,7c-11.4,1.4-20.7,4.1-27.8,8.1c-7.1,4-12.7,9.9-16.8,17.8
			c-4.1,7.9-7,18.4-8.7,31.6h1.3c9.7-17.3,24.2-26,43.4-26c10.7,0,20.2,2.7,28.3,8.1c8.1,5.4,14.5,12.9,19,22.5
			c4.5,9.6,6.8,20.7,6.8,33.1c0,13-2.4,24.4-7.2,34.2c-4.8,9.8-11.5,17.4-20.3,22.8c-8.8,5.4-18.9,8.1-30.5,8.1
			C2146.8,241,2131.6,233.9,2120.9,219.9z M2193.1,209.6c6.2-7.9,9.4-19.1,9.4-33.7c0-14.2-3.1-25.1-9.2-32.8
			c-6.2-7.6-15-11.4-26.7-11.4c-12.1,0-21.5,3.9-28.2,11.7c-6.7,7.8-10,18.6-10,32.5c0,13.9,3.4,24.9,10.1,33.2
			c6.8,8.2,16.1,12.3,28.1,12.3C2178,221.5,2186.9,217.5,2193.1,209.6z"></path>
	</g>
</g>
</svg>
