<?xml version="1.0" encoding="utf-8"?>
<!-- Generator: Adobe Illustrator 22.0.0, SVG Export Plug-In . SVG Version: 6.00 Build 0)  -->
<svg version="1.1" id="Layer_1" xmlns="http://www.w3.org/2000/svg" xmlns:xlink="http://www.w3.org/1999/xlink" x="0px" y="0px"
	 viewBox="0 0 186.1 101.4" style="enable-background:new 0 0 186.1 101.4;" xml:space="preserve">
<style type="text/css">
	.st0{fill:#FFFFFF;}
</style>
<g>
	<g>
		<g>
			<g>
				<path class="st0" d="M168.6,0.9c-4.5-1.8-9.7-0.8-13.1,2.7l-55.4,56.5V12c0-4.9-2.9-9.2-7.4-11.1S83,0.1,79.6,3.6L3.5,81
					C0.1,84.4-0.9,89.6,1,94s6.2,7.3,11,7.3h76l0,0c0.4,0,0.8,0,1.2-0.1c0.2,0,0.4-0.1,0.6-0.1s0.4,0,0.6-0.1c0.2,0,0.4-0.1,0.7-0.2
					c0.2,0,0.3-0.1,0.5-0.1c0.2-0.1,0.4-0.1,0.6-0.2s0.3-0.1,0.5-0.2s0.4-0.2,0.5-0.3c0.2-0.1,0.4-0.2,0.5-0.3
					c0.2-0.1,0.3-0.2,0.5-0.3c0.2-0.1,0.3-0.2,0.5-0.3c0.3-0.2,0.6-0.4,0.9-0.7c0.1-0.1,0.2-0.1,0.2-0.2c0.2-0.2,0.4-0.4,0.7-0.6
					l0,0l55.6-56.4v48.2c0,6.6,5.4,12,12,12s12-5.4,12-12V12C176.1,7.1,173.1,2.7,168.6,0.9z M76.1,77.4H40.6l35.5-36.2V77.4z"/>
			</g>
		</g>
	</g>
</g>
<g>
	<path class="st0" d="M186.1,4c0,2.2-1.8,4-4,4c-2.3,0-4.1-1.8-4.1-4c0-2.2,1.8-3.9,4.1-3.9C184.4,0,186.1,1.8,186.1,4z M179,4
		c0,1.7,1.3,3.1,3.1,3.1c1.7,0,3-1.4,3-3.1c0-1.8-1.3-3.2-3-3.2S179,2.2,179,4z M181.5,6h-0.9V2.1c0.4-0.1,0.9-0.1,1.5-0.1
		c0.7,0,1.1,0.1,1.4,0.3c0.2,0.2,0.4,0.5,0.4,0.9c0,0.4-0.3,0.8-0.8,0.9v0c0.4,0.1,0.6,0.4,0.7,1c0.1,0.6,0.2,0.8,0.3,1h-1
		c-0.1-0.1-0.2-0.5-0.3-1c-0.1-0.4-0.3-0.6-0.8-0.6h-0.4V6z M181.5,3.8h0.4c0.5,0,0.9-0.2,0.9-0.6c0-0.4-0.3-0.6-0.8-0.6
		c-0.2,0-0.4,0-0.5,0V3.8z"/>
</g>
</svg>
