<?xml version="1.0" encoding="utf-8"?>
<!-- Generator: Adobe Illustrator 22.0.0, SVG Export Plug-In . SVG Version: 6.00 Build 0)  -->
<svg version="1.1" id="Layer_1" xmlns="http://www.w3.org/2000/svg" xmlns:xlink="http://www.w3.org/1999/xlink" x="0px" y="0px"
	 viewBox="0 0 430 254.3" style="enable-background:new 0 0 430 254.3;" xml:space="preserve">
<style type="text/css">
	.st0{fill:#FFFFFF;}
	.st1{fill:#FFFFFF;fill-opacity:0;}
</style>
<path class="st0" d="M203.7,44.6L135.8,5.4c-6-3.5-12.7-5.2-19.4-5.2S103,1.9,97,5.4L29.2,44.6C11.2,55,0,74.2,0,95v78.3
	c0,13.9,7.4,26.8,19.4,33.6l67.9,39.3c9,5.2,19,7.8,29.1,7.8s20.1-2.6,29.1-7.8l67.9-39.2c12-6.8,19.4-19.7,19.4-33.6V95
	C232.9,74.2,221.7,55,203.7,44.6z M208.8,195.8H24l-12.8-22.4l92.3-158.6h25.8l92.3,158.6L208.8,195.8z"/>
<g>
	<path class="st0" d="M237.9,21.5c-1.5-1-2.8-2.3-3.7-4s-1.3-3.7-1.3-6s0.4-4.2,1.3-6s2.1-3,3.6-4s3.4-1.4,5.4-1.4
		c2.3,0,4.1,0.5,5.7,1.7c1.6,1.2,2.7,2.8,3.5,5.1l-2.6,0.4c-0.5-1.5-1.3-2.7-2.5-3.5c-1.2-0.9-2.5-1.2-4.1-1.2
		c-2.3,0-4.1,0.8-5.4,2.4s-1.9,3.8-1.9,6.5s0.6,4.9,1.9,6.5c1.3,1.5,3.1,2.4,5.5,2.4c1.6,0,3-0.4,4.2-1.2c1.2-0.9,1.9-1.9,2.5-3.5
		l2.6,0.4c-0.8,2.2-1.8,3.9-3.5,5.1c-1.6,1.2-3.6,1.7-5.8,1.7C241.2,22.9,239.5,22.5,237.9,21.5z"/>
	<path class="st0" d="M258.1,22.6h-2.8V0.5h16.2v22.1h-2.8V3h-10.6V22.6L258.1,22.6z"/>
	<path class="st0" d="M276.1,20.3c-1.3-1.7-1.9-4.1-1.9-7.3c0-3.9,0.8-6.8,2.2-8.7c1.5-1.9,3.8-3,6.9-3.5c1.9-0.2,3.4-0.4,4.4-0.8
		l0.4,2.4c-1.1,0.3-2.7,0.5-4.9,0.9c-1.4,0.2-2.5,0.5-3.4,1c-0.9,0.4-1.5,1.2-2.1,2.2s-0.9,2.3-1.1,3.8h0.2c1.2-2.2,2.9-3.1,5.3-3.1
		c1.3,0,2.5,0.3,3.5,1c1,0.6,1.7,1.5,2.3,2.7c0.5,1.2,0.9,2.5,0.9,4c0,1.6-0.3,2.9-0.9,4.1c-0.5,1.2-1.4,2.2-2.5,2.8
		c-1.1,0.6-2.3,1-3.7,1C279.3,22.9,277.4,22.1,276.1,20.3z M284.9,19.2c0.8-1,1.2-2.3,1.2-4.1c0-1.7-0.3-3-1.1-4
		c-0.8-0.9-1.8-1.4-3.2-1.4c-1.5,0-2.6,0.4-3.5,1.4s-1.2,2.3-1.2,3.9c0,1.7,0.4,3,1.2,4c0.9,1,1.9,1.5,3.5,1.5
		C283,20.6,284.1,20.1,284.9,19.2z"/>
</g>
<path class="st1" d="M412.6,4.5c-13.6-7.5-30.3-4.9-40.9,6L249,136.7V35c0-11.7-5.6-23-15.5-29.3c-13.9-9-31.7-6.6-42.9,4.8
	L9.6,196.7c-10.8,11.1-12.9,28.5-4.2,42c6.4,10,17.7,15.6,29.6,15.6c0,0,98.2,0,155.1,0c25.2,0,49.4-10.2,67-28.3l82.4-84.5
	c9.1-9.3,14.1-21.8,14.1-34.7V90.4h8.5v129c0,18.3,14.1,34,32.3,34.9c19.5,0.9,35.6-14.6,35.6-33.9V35.2
	C430,22.6,423.6,10.6,412.6,4.5z M181,90.4v86.1c0,5.5-4.4,9.9-9.9,9.9h-24.9c-13.3,0-26.1,5.3-35.4,14.8l-7.3,7.4l-6-6l60.7-61.4
	c9.2-9.3,14.4-21.9,14.4-35V90.4H181z"/>
</svg>
