<?xml version="1.0" encoding="utf-8"?>
<!-- Generator: Adobe Illustrator 22.0.0, SVG Export Plug-In . SVG Version: 6.00 Build 0)  -->
<svg version="1.1" id="Layer_1" xmlns="http://www.w3.org/2000/svg" xmlns:xlink="http://www.w3.org/1999/xlink" x="0px" y="0px"
	 viewBox="0 0 197.3 101.5" style="enable-background:new 0 0 197.3 101.5;" xml:space="preserve">
<style type="text/css">
	.st0{fill:#FFFFFF;}
</style>
<g>
	<path class="st0" d="M85.8,101.4L85.8,101.4H13.6c-5.4,0-10.4-3.3-12.5-8.3s-1-10.8,2.8-14.7L76.1,4.1c3.8-4,9.7-5.2,14.8-3.1
		c5.1,2.1,8.5,7,8.5,12.6v40.9l49-50.4c3.8-4,9.7-5.2,14.8-3.1s8.5,7,8.5,12.6v74.3c0,7.5-6.1,13.6-13.6,13.6s-13.6-6.1-13.6-13.6
		V47l-49,50.4l0,0l0,0l0,0l0,0c-0.3,0.3-0.6,0.6-0.9,0.9l0,0l0,0c-2.2,1.9-5,3-8.1,3.2C86.3,101.4,86,101.4,85.8,101.4z M45.7,74.3
		h26.6V47L45.7,74.3z"/>
</g>
<g>
	<path class="st0" d="M176.9,8.6c-0.6-0.4-1.1-0.9-1.5-1.6S175,5.5,175,4.6c0-0.9,0.2-1.7,0.5-2.4s0.8-1.2,1.5-1.6
		c0.6-0.4,1.3-0.6,2.2-0.6c0.9,0,1.7,0.2,2.3,0.7c0.6,0.5,1.1,1.1,1.4,2l-1,0.2c-0.2-0.6-0.5-1.1-1-1.4c-0.5-0.3-1-0.5-1.7-0.5
		c-0.9,0-1.7,0.3-2.2,1c-0.5,0.6-0.8,1.5-0.8,2.6c0,1.1,0.3,2,0.8,2.6s1.3,0.9,2.2,0.9c0.7,0,1.2-0.2,1.7-0.5c0.5-0.3,0.8-0.8,1-1.4
		l1,0.2c-0.3,0.9-0.8,1.6-1.4,2c-0.6,0.5-1.4,0.7-2.3,0.7C178.3,9.1,177.6,8.9,176.9,8.6z"/>
	<path class="st0" d="M185,9h-1.1V0.1h6.5V9h-1.1V1.1H185V9z"/>
	<path class="st0" d="M192.3,8.1c-0.5-0.7-0.8-1.7-0.8-2.9c0-1.6,0.3-2.7,0.9-3.5c0.6-0.8,1.5-1.2,2.8-1.4c0.8-0.1,1.4-0.2,1.8-0.3
		l0.2,1c-0.4,0.1-1.1,0.2-2,0.3c-0.6,0.1-1,0.2-1.4,0.4s-0.6,0.5-0.8,0.9c-0.2,0.4-0.3,0.9-0.4,1.5h0.1c0.5-0.8,1.2-1.3,2.1-1.3
		c0.5,0,1,0.1,1.4,0.4s0.7,0.6,0.9,1.1c0.2,0.5,0.3,1,0.3,1.6c0,0.6-0.1,1.2-0.4,1.7s-0.6,0.8-1,1.1c-0.4,0.3-0.9,0.4-1.5,0.4
		C193.5,9.1,192.8,8.8,192.3,8.1z M195.8,7.6c0.3-0.4,0.5-0.9,0.5-1.6c0-0.7-0.2-1.2-0.4-1.6c-0.3-0.4-0.7-0.6-1.3-0.6
		c-0.6,0-1,0.2-1.4,0.6c-0.3,0.4-0.5,0.9-0.5,1.6s0.2,1.2,0.5,1.6c0.3,0.4,0.8,0.6,1.4,0.6C195.1,8.2,195.5,8,195.8,7.6z"/>
</g>
</svg>
