<?xml version="1.0" encoding="utf-8"?>
<!-- Generator: Adobe Illustrator 22.0.0, SVG Export Plug-In . SVG Version: 6.00 Build 0)  -->
<svg version="1.1" id="Layer_1" xmlns="http://www.w3.org/2000/svg" xmlns:xlink="http://www.w3.org/1999/xlink" x="0px" y="0px"
	 viewBox="0 0 1284.2 150.2" style="enable-background:new 0 0 1284.2 150.2;" xml:space="preserve">
<style type="text/css">
	.st0{fill:#FFFFFF;}
</style>
<g>
	<path class="st0" d="M22.6,150.2H0v-46.1h12.3L45,4.2h32.9l32.7,100h12.3v46.1h-22.6v-24.3H22.6V150.2z M60,28.2l-23.7,76h50.3
		l-23.7-76C62.9,28.2,60,28.2,60,28.2z"/>
	<path class="st0" d="M151.4,119.6c-9-5.3-16.1-12.7-21.3-22.2c-5.2-9.5-7.8-20.3-7.8-32.4s2.6-22.9,7.8-32.4
		c5.2-9.5,12.3-16.9,21.3-22.2c9-5.3,18.8-8,29.6-8c10.8,0,20.7,2.7,29.6,8c9,5.3,16.1,12.7,21.3,22.2c5.2,9.5,7.8,20.3,7.8,32.4
		s-2.6,22.9-7.8,32.4s-12.3,16.9-21.3,22.2c-9,5.3-18.8,8-29.6,8C170.2,127.6,160.4,125,151.4,119.6z M199.3,100.8
		c5.6-3.4,9.9-8.2,13.1-14.4c3.2-6.2,4.8-13.3,4.8-21.3s-1.6-15.1-4.8-21.3c-3.2-6.2-7.6-11-13.1-14.4c-5.6-3.4-11.7-5.2-18.3-5.2
		c-6.6,0-12.7,1.7-18.3,5.2c-5.6,3.4-9.9,8.2-13.1,14.4c-3.2,6.2-4.8,13.3-4.8,21.3s1.6,15.1,4.8,21.3c3.2,6.2,7.6,11,13.1,14.4
		c5.6,3.4,11.7,5.2,18.3,5.2C187.6,105.9,193.7,104.2,199.3,100.8z"/>
	<path class="st0" d="M278.5,125.9h-22.6V4.2h36l29.4,87h3.5l29.1-87H390v121.7h-22.6V40.4h-3.5l-28.8,85.5h-24.2l-28.8-85.5h-3.5
		L278.5,125.9L278.5,125.9z"/>
	<path class="st0" d="M435.4,119.6c-9-5.3-16.1-12.7-21.3-22.2c-5.2-9.5-7.8-20.3-7.8-32.4s2.6-22.9,7.8-32.4s12.3-16.9,21.3-22.2
		c9-5.3,18.8-8,29.6-8c10.8,0,20.7,2.7,29.6,8c9,5.3,16.1,12.7,21.3,22.2c5.2,9.5,7.8,20.3,7.8,32.4s-2.6,22.9-7.8,32.4
		s-12.3,16.9-21.3,22.2c-9,5.3-18.8,8-29.6,8C454.2,127.6,444.3,125,435.4,119.6z M483.3,100.8c5.6-3.4,9.9-8.2,13.1-14.4
		c3.2-6.2,4.8-13.3,4.8-21.3s-1.6-15.1-4.8-21.3c-3.2-6.2-7.6-11-13.1-14.4c-5.6-3.4-11.7-5.2-18.3-5.2s-12.7,1.7-18.3,5.2
		c-5.6,3.4-9.9,8.2-13.1,14.4c-3.2,6.2-4.8,13.3-4.8,21.3s1.6,15.1,4.8,21.3c3.2,6.2,7.6,11,13.1,14.4c5.6,3.4,11.7,5.2,18.3,5.2
		C471.6,105.9,477.7,104.2,483.3,100.8z"/>
	<path class="st0" d="M612.5,16.4c10.9,0,20.4,2,28.4,6.1c8.1,4,14.3,9.7,18.5,16.8c4.3,7.2,6.4,15.1,6.4,24.1
		c0,8.9-2.2,17-6.4,24.1c-4.3,7.2-10.5,12.7-18.5,16.8c-8.1,4-17.6,6.1-28.4,6.1h-1.9v19.1h-22.6v-19.1h-1.5c-11,0-20.5-2-28.6-6.1
		c-8.1-4-14.2-9.7-18.4-16.8c-4.3-7.2-6.4-15.1-6.4-24.1c0-8.9,2.1-17,6.4-24.1c4.3-7.2,10.4-12.7,18.4-16.8
		c8.1-4,17.6-6.1,28.6-6.1h1.5V0.7h22.6v15.6H612.5z M563.9,82.9c5.6,5.1,13.1,7.6,22.6,7.6h1.4V36.2h-1.4c-9.5,0-17.1,2.5-22.6,7.6
		s-8.4,11.6-8.4,19.6C555.5,71.3,558.4,77.8,563.9,82.9z M612.1,90.5c9.5,0,17.1-2.5,22.7-7.6c5.6-5.1,8.5-11.6,8.5-19.6
		s-2.8-14.5-8.5-19.6c-5.6-5.1-13.2-7.6-22.7-7.6h-1.5v54.3H612.1z"/>
	<path class="st0" d="M704.2,119.6c-9-5.3-16.1-12.7-21.3-22.2c-5.2-9.5-7.8-20.3-7.8-32.4s2.6-22.9,7.8-32.4s12.3-16.9,21.3-22.2
		c9-5.3,18.8-8,29.6-8s20.7,2.7,29.6,8c9,5.3,16.1,12.7,21.3,22.2c5.2,9.5,7.8,20.3,7.8,32.4s-2.6,22.9-7.8,32.4
		s-12.3,16.9-21.3,22.2c-9,5.3-18.8,8-29.6,8S713.2,125,704.2,119.6z M752.1,100.8c5.6-3.4,9.9-8.2,13.1-14.4
		c3.2-6.2,4.8-13.3,4.8-21.3s-1.6-15.1-4.8-21.3c-3.2-6.2-7.6-11-13.1-14.4c-5.6-3.4-11.7-5.2-18.3-5.2c-6.6,0-12.7,1.7-18.3,5.2
		c-5.6,3.4-9.9,8.2-13.1,14.4c-3.2,6.2-4.8,13.3-4.8,21.3s1.6,15.1,4.8,21.3c3.2,6.2,7.6,11,13.1,14.4c5.6,3.4,11.7,5.2,18.3,5.2
		C740.5,105.9,746.5,104.2,752.1,100.8z"/>
	<path class="st0" d="M831.4,125.9h-22.6V4.2h22.6v49.1h54.8V4.2h22.6v121.7h-22.6V76h-54.8V125.9z"/>
	<path class="st0" d="M990.5,119.7c-8.9-5.2-15.9-12.6-21.1-22.2c-5.2-9.5-7.7-20.4-7.7-32.5s2.6-23,7.7-32.5
		c5.2-9.5,12.2-16.9,21.1-22.2s18.7-7.9,29.4-7.9c13.1,0,24.5,3.6,34.2,11c9.7,7.3,16.3,17.2,19.7,29.9H1059c-3-8.7-8-15.5-15-20.5
		c-6.9-4.9-15-7.4-24.2-7.4c-8.1,0-15.5,2.1-22.3,6.3c-6.8,4.2-12.2,10.1-16.1,17.6c-3.9,7.6-5.9,16.1-5.9,25.8
		c0,9.6,1.9,18.2,5.9,25.8c3.9,7.6,9.3,13.4,16.1,17.6c6.8,4.2,14.3,6.3,22.3,6.3c9.2,0,17.2-2.5,24.2-7.6
		c6.9-5.1,11.9-12.1,15-21.1h14.8c-3.5,13-10.1,23.2-19.7,30.6c-9.7,7.4-21.1,11.1-34.2,11.1C1009.3,127.7,999.5,125,990.5,119.7z"
		/>
	<path class="st0" d="M1103.4,125.9h-13.9V4.2h95.6v121.7h-13.9V17.2h-67.8L1103.4,125.9L1103.4,125.9z"/>
	<path class="st0" d="M1222.4,122.1c-6.2-3.7-11-9-14.6-15.8c-3.5-6.8-5.3-14.8-5.3-23.8v-5.2c0-15.1,1.9-27.1,5.6-36.2
		c3.7-9.1,10-16.1,18.8-21.1c3.9-2.2,8.1-3.8,12.5-4.8c4.4-1,10-1.9,16.7-2.6c4-0.5,7-1.7,8.8-3.7c1.8-2,2.7-5,2.9-8.8h11.3
		c-0.1,7.3-1.9,13-5.5,17s-9,6.4-16.4,7c-5.2,0.5-9.7,1.2-13.6,2.2c-3.9,1-7.4,2.4-10.6,4.3c-10.1,6-15.9,15.6-17.4,28.7h0.9
		c6.9-9.3,16.5-13.9,28.7-13.9c7.2,0,13.8,1.8,19.7,5.3c6,3.5,10.7,8.5,14.2,14.7c3.5,6.3,5.2,13.2,5.2,20.9c0,8-1.8,15.1-5.3,21.5
		c-3.5,6.3-8.4,11.3-14.6,14.9s-13.2,5.4-20.9,5.4C1235.6,127.7,1228.6,125.8,1222.4,122.1z M1257.6,111.7c4.3-2.5,7.6-6,10-10.6
		c2.4-4.5,3.6-9.6,3.6-15.3s-1.2-10.8-3.6-15.3s-5.8-8.1-10-10.6c-4.3-2.5-8.9-3.7-14.2-3.7s-9.9,1.2-14.2,3.7
		c-4.3,2.5-7.6,6-10,10.6c-2.4,4.5-3.6,9.6-3.6,15.3s1.2,10.8,3.6,15.3s5.8,8.1,10,10.6c4.3,2.5,8.9,3.7,14.2,3.7
		C1248.6,115.4,1253.3,114.2,1257.6,111.7z"/>
</g>
</svg>
