<?xml version="1.0" encoding="utf-8"?>
<!-- Generator: Adobe Illustrator 22.0.0, SVG Export Plug-In . SVG Version: 6.00 Build 0)  -->
<svg version="1.1" id="Layer_1" xmlns="http://www.w3.org/2000/svg" xmlns:xlink="http://www.w3.org/1999/xlink" x="0px" y="0px"
	 viewBox="0 0 1971.2 254.5" style="enable-background:new 0 0 1971.2 254.5;" xml:space="preserve">
<style type="text/css">
	.st0{fill:#202134;}
</style>
<g>
	<g>
		<path class="st0" d="M633.6,48.9l38.7,128.2h20.5v67.2H661v-35.4H557.9v35.4h-31.8v-67.2h20.5l38.6-128.3L633.6,48.9L633.6,48.9z
			 M609.5,79.5h-1.2l-27.2,97.6h55.5L609.5,79.5z"/>
		<path class="st0" d="M719.6,203.8c-9.1-5.2-16.1-12.4-21.1-21.6c-5-9.2-7.5-19.8-7.5-31.7c0-11.7,2.5-22.2,7.5-31.6
			c5-9.3,12-16.5,21.1-21.7c9.1-5.2,19.5-7.7,30.9-7.7c11.6,0,22,2.5,31.1,7.7s16.2,12.4,21.3,21.7s7.6,19.8,7.6,31.6
			s-2.5,22.4-7.6,31.7c-5.1,9.2-12.2,16.4-21.3,21.6s-19.5,7.7-31.2,7.7C739,211.6,728.6,209,719.6,203.8z M769.9,174.5
			c4.8-5.9,7.2-13.8,7.2-24c0-10-2.3-18-7.2-24c-4.8-5.9-11.2-8.8-19.4-8.8s-14.4,2.9-19.1,8.8c-4.7,5.9-6.9,13.8-6.9,24
			c0,10,2.2,18,6.9,24c4.7,5.9,11,8.8,19.1,8.8C758.7,183.3,765.1,180.3,769.9,174.5z"/>
		<path class="st0" d="M854.4,209h-31.1V92.3h41.1l32,79.7h1.2l31.8-79.7H969v116.6h-31.3v-72.8h-1.2l-29.2,72.8H885l-29.4-72.7
			h-1.2L854.4,209L854.4,209z"/>
		<path class="st0" d="M1010.4,203.8c-9.1-5.2-16.1-12.4-21.2-21.6c-5-9.2-7.5-19.8-7.5-31.7c0-11.7,2.5-22.2,7.5-31.6
			c5-9.3,12-16.5,21.2-21.7c9.1-5.2,19.5-7.7,30.9-7.7c11.6,0,22,2.5,31.1,7.7s16.2,12.4,21.3,21.7c5.1,9.3,7.6,19.8,7.6,31.6
			s-2.5,22.4-7.6,31.7c-5.1,9.2-12.2,16.4-21.3,21.6c-9.1,5.2-19.5,7.7-31.2,7.7C1029.7,211.6,1019.4,209,1010.4,203.8z
			 M1060.7,174.5c4.8-5.9,7.2-13.8,7.2-24c0-10-2.3-18-7.2-24c-4.8-5.9-11.2-8.8-19.4-8.8c-8.1,0-14.4,2.9-19.1,8.8
			c-4.7,5.9-6.9,13.8-6.9,24c0,10,2.2,18,6.9,24c4.7,5.9,11,8.8,19.1,8.8C1049.5,183.3,1055.9,180.3,1060.7,174.5z"/>
		<path class="st0" d="M1251.2,181.2c-5,9-12,16.1-20.9,21.4c-8.9,5.4-19,8.3-30.3,8.9v43h-33.5v-43c-11.1-0.6-21.1-3.6-30-8.9
			c-8.9-5.4-15.9-12.5-20.9-21.4c-5-9-7.5-19.2-7.5-30.6s2.5-21.6,7.5-30.6s12-16.1,20.9-21.4c8.9-5.4,18.9-8.3,30-8.9V48.9h33.5
			v40.7c11.2,0.6,21.3,3.6,30.3,8.9c8.9,5.4,15.9,12.5,20.9,21.4c5,9,7.5,19.2,7.5,30.6C1258.7,162,1256.2,172.3,1251.2,181.2z
			 M1147.3,174.5c5.4,6.2,12.3,9.6,20.8,10.2v-67.9c-8.5,0.6-15.5,3.9-20.8,10c-5.4,6.1-8,14-8,23.8
			C1139.2,160.4,1141.9,168.3,1147.3,174.5z M1198.4,184.9c8.7-0.8,15.7-4.2,21-10.4c5.4-6.2,8-14.2,8-24s-2.6-17.7-8-23.8
			s-12.3-9.5-21-10.3V184.9z"/>
		<path class="st0" d="M1293.8,203.8c-9.1-5.2-16.1-12.4-21.2-21.6c-5-9.2-7.5-19.8-7.5-31.7c0-11.7,2.5-22.2,7.5-31.6
			s12-16.5,21.2-21.7c9.1-5.2,19.5-7.7,30.9-7.7c11.6,0,22,2.5,31.1,7.7c9.2,5.2,16.2,12.4,21.3,21.7c5.1,9.3,7.6,19.8,7.6,31.6
			s-2.5,22.4-7.6,31.7c-5.1,9.2-12.2,16.4-21.3,21.6c-9.1,5.2-19.5,7.7-31.2,7.7C1313.2,211.6,1302.9,209,1293.8,203.8z
			 M1344.1,174.5c4.8-5.9,7.2-13.8,7.2-24c0-10-2.3-18-7.2-24c-4.8-5.9-11.2-8.8-19.4-8.8s-14.4,2.9-19.1,8.8
			c-4.7,5.9-6.9,13.8-6.9,24c0,10,2.2,18,6.9,24c4.7,5.9,11,8.8,19.1,8.8S1339.3,180.3,1344.1,174.5z"/>
		<path class="st0" d="M1473,135.8V92.3h33.4v116.6H1473v-45.5h-42v45.5h-33.4V92.3h33.4v43.4L1473,135.8L1473,135.8z"/>
		<path class="st0" d="M1603.4,201c-11.3-6.8-20.1-16.5-26.3-28.9c-6.2-12.4-9.2-26.8-9.2-43.1c0-16.1,3-30.5,9.2-43
			s14.9-22.2,26.2-29c11.2-6.8,24.3-10.3,38.8-10.3c16.1,0,30,4.2,41.4,12.6s19.7,20.5,24.8,36.5l-18.6,3.1
			c-3.7-11-9.6-19.5-17.9-25.2c-8.3-5.9-18.2-8.8-30-8.8c-16.8,0-29.9,5.7-39.5,17.1c-9.5,11.4-14.4,27.1-14.4,46.8
			c0,19.9,4.8,35.6,14.4,46.9c9.6,11.3,22.9,17,39.7,17c12,0,22.2-2.9,30.5-8.8c8.3-5.9,14.4-14.4,17.9-25.2l18.6,3.1
			c-5.2,15.8-13.5,28-25,36.5c-11.5,8.4-25.5,12.6-42,12.6C1627.8,211.2,1614.7,207.8,1603.4,201z"/>
		<path class="st0" d="M1749.5,209H1729V48.9h117.7v160h-20.5V67.2h-76.6L1749.5,209L1749.5,209z"/>
		<path class="st0" d="M1880.1,192.6c-9.4-12.3-14.1-29.8-14.1-52.3c0-28.1,5.3-49.1,15.7-63c10.6-14,27.2-22.3,50.1-25.2
			c14-1.7,24.6-3.5,31.8-5.5l3,17.6c-8.1,2.2-19.9,4.3-35.4,6.2c-10,1.3-18.2,3.6-24.4,7.1c-6.3,3.5-11.1,8.7-14.8,15.6
			c-3.6,6.9-6.2,16.1-7.6,27.8h1.2c8.5-15.3,21.3-22.9,38.1-22.9c9.4,0,17.8,2.3,24.8,7.1c7.1,4.8,12.7,11.3,16.7,19.8
			c3.9,8.4,6,18.2,6,29.1c0,11.4-2.2,21.4-6.4,30c-4.2,8.6-10.1,15.3-17.9,20c-7.7,4.8-16.6,7.1-26.8,7.1
			C1902.9,211.2,1889.5,205,1880.1,192.6z M1943.6,183.6c5.5-6.9,8.3-16.8,8.3-29.6c0-12.5-2.7-22.1-8.1-28.8
			c-5.5-6.6-13.2-10-23.5-10c-10.7,0-18.9,3.4-24.8,10.3c-5.9,6.8-8.8,16.3-8.8,28.6c0,12.2,3,21.9,8.9,29.1
			c6,7.2,14.2,10.9,24.7,10.9C1930.3,194.1,1938.1,190.6,1943.6,183.6z"/>
	</g>
</g>
<path class="st0" d="M412.4,4.3c-13.6-7.5-30.3-4.9-40.9,6L248.9,136.4l0-101.7c0-11.7-5.6-23-15.5-29.3c-13.9-9-31.7-6.6-42.8,4.8
	L9.6,196.4c-10.9,11.2-12.9,28.5-4.2,42.1c6.4,10,17.7,15.6,29.6,15.6l179.7,0c0.1,0,0.2,0,0.3,0c0.6,0,1.2,0,1.7,0
	c7.7-0.4,14.7-3.3,20.2-8c0,0,0,0,0,0h0c0.8-0.7,1.6-1.4,2.3-2.2c0,0,0,0,0,0c0,0,0,0,0,0c0,0,0,0,0,0c0,0,0,0,0,0l108-111
	c4-4.1,6.2-9.6,6.2-15.3v-12.6h8.5l0,114.2c0,18.3,14.1,34,32.3,34.9c19.5,0.9,35.6-14.6,35.6-33.9l0-185.1
	C429.8,22.4,423.4,10.4,412.4,4.3z M170.4,186.1l-66.8,0v-8.5h9.7c5.9,0,11.6-2.4,15.7-6.6l37.3-38.2c4-4.1,6.2-9.6,6.2-15.3v-12.6
	h8.5v70.7C181,181.4,176.2,186.1,170.4,186.1z"/>
</svg>
