<?xml version="1.0" encoding="utf-8"?>
<!-- Generator: Adobe Illustrator 22.0.0, SVG Export Plug-In . SVG Version: 6.00 Build 0)  -->
<svg version="1.1" id="Layer_1" xmlns="http://www.w3.org/2000/svg" xmlns:xlink="http://www.w3.org/1999/xlink" x="0px" y="0px"
	 viewBox="0 0 490.8 254.3" style="enable-background:new 0 0 490.8 254.3;" xml:space="preserve">
<style type="text/css">
	.st0{fill:#FFFFFF;}
</style>
<g>
	<path class="st0" d="M443.8,19.7c-1.4-0.9-2.6-2.1-3.4-3.7c-0.8-1.6-1.2-3.4-1.2-5.5c0-2.1,0.4-3.9,1.2-5.5s1.9-2.8,3.3-3.7
		c1.4-0.9,3.1-1.3,5-1.3c2.1,0,3.8,0.5,5.3,1.6s2.5,2.6,3.2,4.7l-2.4,0.4c-0.5-1.4-1.2-2.5-2.3-3.2c-1.1-0.8-2.3-1.1-3.8-1.1
		c-2.1,0-3.8,0.7-5,2.2c-1.2,1.5-1.8,3.5-1.8,6c0,2.5,0.6,4.5,1.8,6c1.2,1.4,2.9,2.2,5.1,2.2c1.5,0,2.8-0.4,3.9-1.1
		c1.1-0.8,1.8-1.8,2.3-3.2l2.4,0.4c-0.7,2-1.7,3.6-3.2,4.7c-1.5,1.1-3.3,1.6-5.4,1.6C446.9,21,445.3,20.6,443.8,19.7z"/>
	<path class="st0" d="M462.5,20.7h-2.6V0.3h15v20.4h-2.6V2.6h-9.8L462.5,20.7L462.5,20.7z"/>
	<path class="st0" d="M479.1,18.6c-1.2-1.6-1.8-3.8-1.8-6.7c0-3.6,0.7-6.3,2-8c1.4-1.8,3.5-2.8,6.4-3.2c1.8-0.2,3.1-0.4,4.1-0.7
		l0.4,2.2c-1,0.3-2.5,0.5-4.5,0.8c-1.3,0.2-2.3,0.5-3.1,0.9c-0.8,0.4-1.4,1.1-1.9,2c-0.5,0.9-0.8,2.1-1,3.5h0.2
		c1.1-2,2.7-2.9,4.9-2.9c1.2,0,2.3,0.3,3.2,0.9c0.9,0.6,1.6,1.4,2.1,2.5c0.5,1.1,0.8,2.3,0.8,3.7c0,1.5-0.3,2.7-0.8,3.8
		s-1.3,2-2.3,2.6c-1,0.6-2.1,0.9-3.4,0.9C482.1,21,480.3,20.2,479.1,18.6z M487.2,17.5c0.7-0.9,1.1-2.1,1.1-3.8c0-1.6-0.3-2.8-1-3.7
		c-0.7-0.8-1.7-1.3-3-1.3c-1.4,0-2.4,0.4-3.2,1.3c-0.8,0.9-1.1,2.1-1.1,3.6c0,1.6,0.4,2.8,1.1,3.7c0.8,0.9,1.8,1.4,3.2,1.4
		C485.5,18.8,486.5,18.4,487.2,17.5z"/>
</g>
<path class="st0" d="M412.8,4.3c-13.6-7.5-30.3-4.9-40.9,6L249.1,136.6l0-101.8c0-11.7-5.6-23-15.5-29.3c-13.9-9-31.8-6.6-42.9,4.8
	L9.6,196.6c-10.9,11.2-12.9,28.5-4.2,42.1c6.4,10,17.8,15.6,29.6,15.6l179.8,0c0.1,0,0.2,0,0.3,0c0.6,0,1.2,0,1.7,0
	c7.7-0.4,14.7-3.3,20.2-8c0,0,0,0,0,0h0c0.8-0.7,1.6-1.4,2.3-2.2c0,0,0,0,0,0c0,0,0,0,0,0c0,0,0,0,0,0c0,0,0,0,0,0l108.1-111.1
	c4-4.1,6.2-9.6,6.2-15.3V105h8.5l0,114.3c0,18.3,14.1,34,32.3,34.9c19.5,0.9,35.6-14.6,35.6-34l0-185.3
	C430.3,22.4,423.8,10.4,412.8,4.3z M181.1,175.7c0,5.8-4.7,10.6-10.6,10.6l-36,0c-5.8,0-11.4,2.3-15.6,6.4l-8.5,8.5l-6-6l61.7-62.3
	c4.1-4.1,6.4-9.7,6.4-15.5V105h8.5V175.7z"/>
</svg>
