<?xml version="1.0" encoding="utf-8"?>
<!-- Generator: Adobe Illustrator 22.0.0, SVG Export Plug-In . SVG Version: 6.00 Build 0)  -->
<svg version="1.1" id="Layer_1" xmlns="http://www.w3.org/2000/svg" xmlns:xlink="http://www.w3.org/1999/xlink" x="0px" y="0px"
	 viewBox="0 0 200 200" style="enable-background:new 0 0 200 200;" xml:space="preserve">
<style type="text/css">
	.st0{fill:#27283F;}
	.st1{fill:#4E507E;}
</style>
<path class="st0" d="M100,0c55.2,0,100,44.8,100,100s-44.8,100-100,100S0,155.2,0,100S44.8,0,100,0z"/>
<g>
	<g>
		<g>
			<g>
				<path class="st1" d="M100,124.2c-13.4,0-24.2-10.9-24.2-24.2S86.6,75.8,100,75.8s24.2,10.9,24.2,24.2S113.4,124.2,100,124.2z
					 M100,82.7c-9.5,0-17.3,7.8-17.3,17.3s7.8,17.3,17.3,17.3s17.3-7.8,17.3-17.3S109.5,82.7,100,82.7z"/>
				<circle class="st1" cx="126" cy="74" r="5.2"/>
				<path class="st1" d="M120.8,145H79.2C65.9,145,55,134.1,55,120.8V79.2C55,65.9,65.9,55,79.2,55h41.5c13.4,0,24.2,10.9,24.2,24.2
					v41.5C145,134.1,134.1,145,120.8,145z M79.2,61.9c-9.5,0-17.3,7.8-17.3,17.3v41.5c0,9.5,7.8,17.3,17.3,17.3h41.5
					c9.5,0,17.3-7.8,17.3-17.3V79.2c0-9.5-7.8-17.3-17.3-17.3C120.7,61.9,79.2,61.9,79.2,61.9z"/>
			</g>
		</g>
	</g>
</g>
<g>
	<text transform="matrix(1 0 0 1 -552.6807 -476.0039)" style="fill:#6E72B3; font-family:'TTNeorisTrial-Md'; font-size:24px;">Ремонт обслуживание</text>
	<text transform="matrix(1 0 0 1 -552.6807 -453.0039)" style="fill:#6E72B3; font-family:'TTNeorisTrial-Md'; font-size:24px;">и установка домофонов</text>
</g>
</svg>
