<?xml version="1.0" encoding="utf-8"?>
<!-- Generator: Adobe Illustrator 22.0.0, SVG Export Plug-In . SVG Version: 6.00 Build 0)  -->
<svg version="1.1" id="Layer_1" xmlns="http://www.w3.org/2000/svg" xmlns:xlink="http://www.w3.org/1999/xlink" x="0px" y="0px"
	 viewBox="0 0 200 200" style="enable-background:new 0 0 200 200;" xml:space="preserve">
<style type="text/css">
	.st0{opacity:0.5;fill:#6C70B0;}
	.st1{fill:#13141F;}
</style>
<path class="st0" d="M100,0c55.2,0,100,44.8,100,100s-44.8,100-100,100S0,155.2,0,100S44.8,0,100,0z"/>
<g>
	<g>
		<g>
			<g>
				<g>
					<path class="st1" d="M100,125.8c-14.3,0-25.8-11.6-25.8-25.8S85.7,74.2,100,74.2s25.8,11.6,25.8,25.8S114.3,125.8,100,125.8z
						 M100,81.5c-10.1,0-18.5,8.3-18.5,18.5s8.3,18.5,18.5,18.5s18.5-8.3,18.5-18.5S110.1,81.5,100,81.5z"/>
					<circle class="st1" cx="127.8" cy="72.2" r="5.6"/>
					<path class="st1" d="M122.2,148.1H77.8c-14.2,0-25.8-11.6-25.8-25.8V77.8c0-14.2,11.6-25.8,25.8-25.8h44.3
						c14.3,0,25.8,11.6,25.8,25.8v44.3C148.1,136.4,136.4,148.1,122.2,148.1z M77.8,59.3c-10.1,0-18.5,8.3-18.5,18.5v44.3
						c0,10.1,8.3,18.5,18.5,18.5h44.3c10.1,0,18.5-8.3,18.5-18.5V77.8c0-10.1-8.3-18.5-18.5-18.5C122.1,59.3,77.8,59.3,77.8,59.3z"
						/>
				</g>
			</g>
		</g>
	</g>
</g>
<g>
	<text transform="matrix(1 0 0 1 -552.6807 -476.0039)" style="fill:#6E72B3; font-family:'TTNeorisTrial-Md'; font-size:24px;">Ремонт обслуживание</text>
	<text transform="matrix(1 0 0 1 -552.6807 -453.0039)" style="fill:#6E72B3; font-family:'TTNeorisTrial-Md'; font-size:24px;">и установка домофонов</text>
</g>
</svg>
