<?xml version="1.0" encoding="utf-8"?>
<!-- Generator: Adobe Illustrator 22.0.0, SVG Export Plug-In . SVG Version: 6.00 Build 0)  -->
<svg version="1.1" id="Layer_1" xmlns="http://www.w3.org/2000/svg" xmlns:xlink="http://www.w3.org/1999/xlink" x="0px" y="0px"
	 viewBox="0 0 200 200" style="enable-background:new 0 0 200 200;" xml:space="preserve">
<style type="text/css">
	.st0{fill:#0E2B3D;}
	.st1{fill:#FFFFFF;}
</style>
<path class="st0" d="M100,0c55.2,0,100,44.8,100,100s-44.8,100-100,100S0,155.2,0,100S44.8,0,100,0z"/>
<g>
	<g>
		<path class="st1" d="M100,129.1c-16,0-29.1-13-29.1-29.1S84,70.9,100,70.9s29.1,13,29.1,29.1S116,129.1,100,129.1z M100,79.2
			c-11.5,0-20.8,9.3-20.8,20.8s9.3,20.8,20.8,20.8s20.8-9.3,20.8-20.8S111.5,79.2,100,79.2z"/>
		<circle class="st1" cx="131.2" cy="68.8" r="6.2"/>
		<path class="st1" d="M124.9,154H75.1C59,154,46,141,46,124.9V75.1C46,59,59,46,75.1,46h49.8c16,0,29.1,13,29.1,29.1v49.8
			C154,141,141,154,124.9,154z M75.1,54.3c-11.5,0-20.8,9.3-20.8,20.8v49.8c0,11.5,9.3,20.8,20.8,20.8h49.8
			c11.5,0,20.8-9.3,20.8-20.8V75.1c0-11.5-9.3-20.8-20.8-20.8H75.1z"/>
	</g>
</g>
</svg>
