<?xml version="1.0" encoding="utf-8"?>
<!-- Generator: Adobe Illustrator 22.0.0, SVG Export Plug-In . SVG Version: 6.00 Build 0)  -->
<svg version="1.1" id="Layer_1" xmlns="http://www.w3.org/2000/svg" xmlns:xlink="http://www.w3.org/1999/xlink" x="0px" y="0px"
	 viewBox="0 0 2475 1500" style="enable-background:new 0 0 2475 1500;" xml:space="preserve">
<style type="text/css">
	.st0{fill:#251441;}
	.st1{fill:#AD73FA;}
	.st2{fill:#8F3CF2;}
	.st3{fill:#691CC2;}
	.st4{fill:#412170;}
	.st5{fill:#CCADFF;}
	.st6{fill:#E3D7FF;}
</style>
<rect class="st0" width="2475" height="1500"/>
<g>
	<g>
		<g id="XMLID_65_">
			<polygon class="st0" points="2492.5,0 1905,0 1905,1500 2492.5,1500 3260,750 			"/>
		</g>
		<g id="XMLID_64_">
			<polygon class="st0" points="1905,0 1317.5,0 1317.5,1500 1905,1500 2672.5,750 			"/>
		</g>
		<g id="XMLID_63_">
			<polygon class="st0" points="1317.5,0 730,0 730,1500 1317.5,1500 2085,750 			"/>
		</g>
		<g id="XMLID_62_">
			<polygon class="st0" points="730,0 142.5,0 142.5,1500 730,1500 1497.5,750 			"/>
		</g>
		<g id="XMLID_61_">
			<polygon class="st0" points="142.5,0 -445,0 -445,1500 142.5,1500 910,750 			"/>
		</g>
	</g>
</g>
<g>
	<g>
		<g id="XMLID_14_">
			<polygon class="st1" points="2492.5,1812 1905,1812 1905,3312 2492.5,3312 3260,2562 			"/>
		</g>
		<g id="XMLID_8_">
			<polygon class="st2" points="1905,1812 1317.5,1812 1317.5,3312 1905,3312 2672.5,2562 			"/>
		</g>
		<g id="XMLID_6_">
			<polygon class="st3" points="1317.5,1812 730,1812 730,3312 1317.5,3312 2085,2562 			"/>
		</g>
		<g id="XMLID_4_">
			<polygon class="st4" points="730,1812 142.5,1812 142.5,3312 730,3312 1497.5,2562 			"/>
		</g>
		<g id="XMLID_2_">
			<polygon class="st0" points="142.5,1812 -445,1812 -445,3312 142.5,3312 910,2562 			"/>
		</g>
	</g>
</g>
<rect x="188" y="-329" transform="matrix(6.123234e-17 -1 1 6.123234e-17 517 81)" class="st0" width="222" height="222"/>
<rect x="410" y="-329" transform="matrix(6.123234e-17 -1 1 6.123234e-17 739 303)" class="st4" width="222" height="222"/>
<rect x="632" y="-329" transform="matrix(6.123234e-17 -1 1 6.123234e-17 961 525)" class="st3" width="222" height="222"/>
<rect x="855" y="-329" transform="matrix(6.123234e-17 -1 1 6.123234e-17 1184 748)" class="st2" width="222" height="222"/>
<rect x="1076" y="-329" transform="matrix(6.123234e-17 -1 1 6.123234e-17 1405 969)" class="st1" width="222" height="222"/>
<rect x="1297" y="-329" transform="matrix(6.123234e-17 -1 1 6.123234e-17 1626 1190)" class="st5" width="222" height="222"/>
<rect x="1518" y="-329" transform="matrix(6.123234e-17 -1 1 6.123234e-17 1847 1411)" class="st6" width="222" height="222"/>
</svg>
