<?xml version="1.0" encoding="utf-8"?>
<!-- Generator: Adobe Illustrator 22.0.0, SVG Export Plug-In . SVG Version: 6.00 Build 0)  -->
<svg version="1.1" id="Layer_1" xmlns="http://www.w3.org/2000/svg" xmlns:xlink="http://www.w3.org/1999/xlink" x="0px" y="0px"
	 viewBox="0 0 970 490" style="enable-background:new 0 0 970 490;" xml:space="preserve">
<style type="text/css">
	.st0{fill:#691CC2;}
	.st1{fill:#E3D7FF;}
	.st2{fill:#AD73FA;}
	.st3{fill:none;stroke:#251441;stroke-width:19;stroke-miterlimit:10;}
	.st4{fill:#251441;}
</style>
<rect class="st0" width="970" height="490"/>
<g>
	<path class="st1" d="M618.1,417H351.9c-17.6,0-31.9-14.3-31.9-31.9V84.9c0-17.6,14.3-31.9,31.9-31.9h266.2
		c17.6,0,31.9,14.3,31.9,31.9v300.2C650,402.7,635.7,417,618.1,417z"/>
	<g>
		<g>
			<g>
				<rect x="352" y="354" class="st2" width="266" height="25"/>
			</g>
			<g>
				<rect x="352" y="262" class="st2" width="266" height="25"/>
			</g>
			<g>
				<rect x="352" y="308" class="st2" width="266" height="25"/>
			</g>
			<g>
				<g>
					<g>
						<path class="st2" d="M475,191.5h-90c-18.2,0-33,14.8-33,33v17h156v-17C508,206.3,493.2,191.5,475,191.5z"/>
					</g>
					<g>
						<path class="st2" d="M430,171L430,171c-22.1,0-40-17.9-40-40l0,0c0-22.1,17.9-40,40-40l0,0c22.1,0,40,17.9,40,40l0,0
							C470,153.1,452.1,171,430,171z"/>
					</g>
				</g>
			</g>
		</g>
	</g>
	<g>
		<g>
			<circle class="st1" cx="618.7" cy="193" r="91.5"/>
			<g>
				<circle class="st3" cx="618.7" cy="193" r="91.5"/>
				<line class="st3" x1="683.2" y1="257.4" x2="746" y2="320.3"/>
			</g>
		</g>
		<g>
			<g>
				<polygon class="st4" points="612.8,238.8 577.8,203.8 577.8,177.2 612.8,212.2 666.7,158.2 666.7,184.8 				"/>
			</g>
		</g>
	</g>
</g>
</svg>
