<?xml version="1.0" encoding="utf-8"?>
<!-- Generator: Adobe Illustrator 22.0.0, SVG Export Plug-In . SVG Version: 6.00 Build 0)  -->
<svg version="1.1" id="Layer_1" xmlns="http://www.w3.org/2000/svg" xmlns:xlink="http://www.w3.org/1999/xlink" x="0px" y="0px"
	 viewBox="0 0 970 490" style="enable-background:new 0 0 970 490;" xml:space="preserve">
<style type="text/css">
	.st0{fill:#691CC2;}
	.st1{fill:#8F3CF2;}
	.st2{fill:#AD73FA;}
	.st3{fill:#E3D7FF;}
	.st4{fill:#251441;}
	.st5{fill:none;stroke:#251441;stroke-width:19;stroke-miterlimit:10;}
</style>
<rect class="st0" width="970" height="490"/>
<g>
	<g>
		<g>
			<g>
				<g>
					<g>
						<path class="st1" d="M568.5,86c0-18.2-14.8-33-33-33h-194c-18.2,0-33,14.8-33,33v298c0,18.2,14.8,33,33,33h133.3l93.7-93.7V86
							z"/>
					</g>
					<g>
						<path class="st1" d="M568.5,323.3h-60.7c-18.2,0-33,14.8-33,33V417L568.5,323.3z"/>
					</g>
				</g>
			</g>
		</g>
		<g>
			<g>
				<g>
					<g>
						<path class="st2" d="M615,86c0-18.2-14.8-33-33-33H388c-18.2,0-33,14.8-33,33v298c0,18.2,14.8,33,33,33h133.3l93.7-93.7V86z"
							/>
					</g>
					<g>
						<path class="st2" d="M615,323.3h-60.7c-18.2,0-33,14.8-33,33V417L615,323.3z"/>
					</g>
				</g>
			</g>
		</g>
		<g>
			<g>
				<path class="st3" d="M661.5,86c0-18.2-14.8-33-33-33h-194c-18.2,0-33,14.8-33,33v298c0,18.2,14.8,33,33,33h133.3l93.7-93.7V86z"
					/>
				<path class="st2" d="M661.5,323.3h-60.7c-18.2,0-33,14.8-33,33V417L661.5,323.3z"/>
			</g>
		</g>
	</g>
	<g>
		<g>
			<g>
				
					<rect x="568" y="107.1" transform="matrix(-1 -4.490065e-11 4.490065e-11 -1 1155 240.75)" class="st4" width="19" height="26.5"/>
				
					<rect x="568" y="223.1" transform="matrix(-1 -4.490065e-11 4.490065e-11 -1 1155 472.75)" class="st4" width="19" height="26.5"/>
			</g>
			<g>
				<rect x="597" y="114.9" transform="matrix(-0.866 -0.5 0.5 -0.866 1067.6716 542.3728)" class="st4" width="19" height="26.5"/>
				<rect x="539" y="215.4" transform="matrix(-0.866 -0.5 0.5 -0.866 909.2127 700.8318)" class="st4" width="19" height="26.5"/>
			</g>
			<g>
				
					<rect x="618.2" y="136.1" transform="matrix(-0.5 -0.866 0.866 -0.5 812.2317 767.6922)" class="st4" width="19" height="26.5"/>
				
					<rect x="517.8" y="194.1" transform="matrix(-0.5 -0.866 0.866 -0.5 611.3138 767.6922)" class="st4" width="19" height="26.5"/>
			</g>
			<g>
				
					<rect x="626" y="165.1" transform="matrix(6.123234e-17 -1 1 6.123234e-17 457.125 813.875)" class="st4" width="19" height="26.5"/>
				
					<rect x="510" y="165.1" transform="matrix(6.123234e-17 -1 1 6.123234e-17 341.125 697.875)" class="st4" width="19" height="26.5"/>
			</g>
			<g>
				<rect x="618.2" y="194.1" transform="matrix(0.5 -0.866 0.866 0.5 134.2727 647.3172)" class="st4" width="19" height="26.5"/>
				<rect x="517.8" y="136.1" transform="matrix(0.5 -0.866 0.866 0.5 134.2727 531.3172)" class="st4" width="19" height="26.5"/>
			</g>
			<g>
				<rect x="597" y="215.4" transform="matrix(0.866 -0.5 0.5 0.866 -33.0466 333.8772)" class="st4" width="19" height="26.5"/>
				<rect x="539" y="114.9" transform="matrix(0.866 -0.5 0.5 0.866 9.4123 291.4182)" class="st4" width="19" height="26.5"/>
			</g>
			<circle class="st5" cx="577.5" cy="178.4" r="43.5"/>
		</g>
		<g>
			<g>
				
					<rect x="457" y="182" transform="matrix(-1 -4.490065e-11 4.490065e-11 -1 933 388.7175)" class="st4" width="19" height="24.7"/>
				
					<rect x="457" y="261.3" transform="matrix(-1 -4.490065e-11 4.490065e-11 -1 933 547.2825)" class="st4" width="19" height="24.7"/>
			</g>
			<g>
				
					<rect x="485" y="193.6" transform="matrix(-0.7071 -0.7071 0.7071 -0.7071 698.5742 701.2977)" class="st4" width="19" height="24.7"/>
				
					<rect x="429" y="249.7" transform="matrix(-0.7071 -0.7071 0.7071 -0.7071 563.2305 757.3589)" class="st4" width="19" height="24.7"/>
			</g>
			<g>
				
					<rect x="496.6" y="221.6" transform="matrix(6.123234e-17 -1 1 6.123234e-17 272.1412 740.1412)" class="st4" width="19" height="24.7"/>
				
					<rect x="417.4" y="221.6" transform="matrix(6.123234e-17 -1 1 6.123234e-17 192.8587 660.8588)" class="st4" width="19" height="24.7"/>
			</g>
			<g>
				
					<rect x="485" y="249.7" transform="matrix(0.7071 -0.7071 0.7071 0.7071 -40.439 426.4329)" class="st4" width="19" height="24.7"/>
				
					<rect x="429" y="193.6" transform="matrix(0.7071 -0.7071 0.7071 0.7071 -17.2176 370.3717)" class="st4" width="19" height="24.7"/>
			</g>
			<circle class="st5" cx="466.5" cy="234" r="27.5"/>
		</g>
	</g>
</g>
</svg>
