<?xml version="1.0" encoding="utf-8"?>
<!-- Generator: Adobe Illustrator 22.0.0, SVG Export Plug-In . SVG Version: 6.00 Build 0)  -->
<svg version="1.1" id="Layer_1" xmlns="http://www.w3.org/2000/svg" xmlns:xlink="http://www.w3.org/1999/xlink" x="0px" y="0px"
	 viewBox="0 0 2475 200" style="enable-background:new 0 0 2475 200;" xml:space="preserve">
<style type="text/css">
	.st0{fill:#AD73FA;}
	.st1{fill:#351A60;}
	.st2{fill:#412170;}
	.st3{fill:#691CC2;}
	.st4{fill:#8F3CF2;}
	.st5{fill:#251441;}
	.st6{fill:#CCADFF;}
	.st7{fill:#E3D7FF;}
</style>
<rect class="st0" width="2475" height="200"/>
<g>
	<g>
		<g id="XMLID_65_">
			<polygon class="st1" points="2474.3,0 2199.8,0 2199.8,701 2474.3,701 2833,350.5 			"/>
		</g>
		<g id="XMLID_64_">
			<polygon class="st2" points="2199.8,0 1925.2,0 1925.2,701 2199.8,701 2558.4,350.5 			"/>
		</g>
		<g id="XMLID_63_">
			<polygon class="st3" points="1925.2,0 1650.6,0 1650.6,701 1925.2,701 2283.9,350.5 			"/>
		</g>
		<g id="XMLID_62_">
			<polygon class="st4" points="1650.6,0 1376.1,0 1376.1,701 1650.6,701 2009.3,350.5 			"/>
		</g>
		<g id="XMLID_61_">
			<polygon class="st0" points="1376.1,0 1101.5,0 1101.5,701 1376.1,701 1734.8,350.5 			"/>
		</g>
	</g>
</g>
<g>
	<g>
		<g id="XMLID_9_">
			<polygon class="st0" points="2774.5,1993 2187,1993 2187,3493 2774.5,3493 3542,2743 			"/>
		</g>
		<g id="XMLID_7_">
			<polygon class="st4" points="2187,1993 1599.5,1993 1599.5,3493 2187,3493 2954.5,2743 			"/>
		</g>
		<g id="XMLID_5_">
			<polygon class="st3" points="1599.5,1993 1012,1993 1012,3493 1599.5,3493 2367,2743 			"/>
		</g>
		<g id="XMLID_3_">
			<polygon class="st2" points="1012,1993 424.5,1993 424.5,3493 1012,3493 1779.5,2743 			"/>
		</g>
		<g id="XMLID_1_">
			<polygon class="st5" points="424.5,1993 -163,1993 -163,3493 424.5,3493 1192,2743 			"/>
		</g>
	</g>
</g>
<rect x="-1774" y="-563" transform="matrix(6.123234e-17 -1 1 6.123234e-17 -1211 -2115)" class="st5" width="222" height="222"/>
<rect x="-1552" y="-563" transform="matrix(6.123234e-17 -1 1 6.123234e-17 -989 -1893)" class="st2" width="222" height="222"/>
<rect x="-1330" y="-563" transform="matrix(6.123234e-17 -1 1 6.123234e-17 -767 -1671)" class="st3" width="222" height="222"/>
<rect x="-1107" y="-563" transform="matrix(6.123234e-17 -1 1 6.123234e-17 -544 -1448)" class="st4" width="222" height="222"/>
<rect x="-886" y="-563" transform="matrix(6.123234e-17 -1 1 6.123234e-17 -323 -1227)" class="st0" width="222" height="222"/>
<rect x="-665" y="-563" transform="matrix(6.123234e-17 -1 1 6.123234e-17 -102 -1006)" class="st6" width="222" height="222"/>
<rect x="-444" y="-563" transform="matrix(6.123234e-17 -1 1 6.123234e-17 119 -785)" class="st7" width="222" height="222"/>
<rect y="200" class="st5" width="2475" height="1315"/>
</svg>
