<?xml version="1.0" encoding="utf-8"?>
<!-- Generator: Adobe Illustrator 22.0.0, SVG Export Plug-In . SVG Version: 6.00 Build 0)  -->
<svg version="1.1" id="Layer_1" xmlns="http://www.w3.org/2000/svg" xmlns:xlink="http://www.w3.org/1999/xlink" x="0px" y="0px"
	 viewBox="0 0 970 490" style="enable-background:new 0 0 970 490;" xml:space="preserve">
<style type="text/css">
	.st0{fill:#691CC2;}
	.st1{fill:#E3D7FF;}
	.st2{fill:#AD73FA;}
	.st3{fill:#251441;}
</style>
<rect class="st0" width="970" height="490"/>
<g>
	<g>
		<g>
			<path class="st1" d="M618.3,86c0-18.2-14.8-33-33-33h-194c-18.2,0-33,14.8-33,33v298c0,18.2,14.8,33,33,33h133.3l93.7-93.7V86z"
				/>
			<path class="st2" d="M618.3,323.3h-60.7c-18.2,0-33,14.8-33,33V417L618.3,323.3z"/>
		</g>
		<g>
			<g>
				<rect x="383.3" y="95" class="st3" width="39" height="38"/>
				<rect x="383.3" y="160.5" class="st3" width="210" height="10"/>
				<rect x="383.3" y="198" class="st3" width="210" height="10"/>
				<rect x="383.3" y="235.5" class="st3" width="210" height="10"/>
				<rect x="383.3" y="273" class="st3" width="210" height="10"/>
			</g>
		</g>
	</g>
	<g>
		<path class="st3" d="M358.8,459.5L358.8,459.5c-43.6,0-79-35.4-79-79l0,0c0-43.6,35.4-79,79-79l0,0c43.6,0,79,35.4,79,79l0,0
			C437.8,424.1,402.4,459.5,358.8,459.5z"/>
		<g>
			<polygon class="st1" points="349.3,423.8 314.3,388.8 314.3,362.2 349.3,397.2 403.2,343.2 403.2,369.8 			"/>
		</g>
	</g>
</g>
</svg>
