<?xml version="1.0" encoding="utf-8"?>
<!-- Generator: Adobe Illustrator 22.0.0, SVG Export Plug-In . SVG Version: 6.00 Build 0)  -->
<svg version="1.1" id="Layer_1" xmlns="http://www.w3.org/2000/svg" xmlns:xlink="http://www.w3.org/1999/xlink" x="0px" y="0px"
	 viewBox="0 0 970 490" style="enable-background:new 0 0 970 490;" xml:space="preserve">
<style type="text/css">
	.st0{fill:#691CC2;}
	.st1{fill:#8F3CF2;}
	.st2{fill:#AD73FA;}
	.st3{fill:#E3D7FF;}
	.st4{fill:#251441;}
</style>
<rect class="st0" width="970" height="490"/>
<g>
	<g>
		<g>
			<g>
				<g>
					<path class="st1" d="M568.5,86c0-18.2-14.8-33-33-33h-194c-18.2,0-33,14.8-33,33v298c0,18.2,14.8,33,33,33h133.3l93.7-93.7V86z
						"/>
				</g>
				<g>
					<path class="st1" d="M568.5,323.3h-60.7c-18.2,0-33,14.8-33,33V417L568.5,323.3z"/>
				</g>
			</g>
		</g>
	</g>
	<g>
		<g>
			<g>
				<g>
					<path class="st2" d="M615,86c0-18.2-14.8-33-33-33H388c-18.2,0-33,14.8-33,33v298c0,18.2,14.8,33,33,33h133.3l93.7-93.7V86z"/>
				</g>
				<g>
					<path class="st2" d="M615,323.3h-60.7c-18.2,0-33,14.8-33,33V417L615,323.3z"/>
				</g>
			</g>
		</g>
	</g>
	<g>
		<g>
			<path class="st3" d="M661.5,86c0-18.2-14.8-33-33-33h-194c-18.2,0-33,14.8-33,33v298c0,18.2,14.8,33,33,33h133.3l93.7-93.7V86z"
				/>
			<path class="st2" d="M661.5,323.3h-60.7c-18.2,0-33,14.8-33,33V417L661.5,323.3z"/>
		</g>
	</g>
	<g>
		<g>
			<g>
				<g>
					<path class="st4" d="M564.4,267.8H484c-16.6,0-30-13.5-30-30v-96.3h18.8v96.3c0,6.2,5.1,11.3,11.3,11.3h80.4V267.8z"/>
				</g>
				<g>
					<polygon class="st4" points="577.7,258.5 542.7,223.4 516.1,223.4 551.2,258.5 516.1,293.5 542.7,293.5 					"/>
				</g>
			</g>
			<g>
				<g>
					<path class="st4" d="M498.6,132.2H579c16.6,0,30,13.5,30,30v96.3h-18.8v-96.3c0-6.2-5.1-11.3-11.3-11.3h-80.4V132.2z"/>
				</g>
				<g>
					<polygon class="st4" points="485.3,141.5 520.3,176.6 546.9,176.6 511.8,141.5 546.9,106.5 520.3,106.5 					"/>
				</g>
			</g>
		</g>
	</g>
</g>
</svg>
