<?xml version="1.0" encoding="utf-8"?>
<!-- Generator: Adobe Illustrator 22.0.0, SVG Export Plug-In . SVG Version: 6.00 Build 0)  -->
<svg version="1.1" id="Layer_1" xmlns="http://www.w3.org/2000/svg" xmlns:xlink="http://www.w3.org/1999/xlink" x="0px" y="0px"
	 viewBox="0 0 1200 876" style="enable-background:new 0 0 1200 876;" xml:space="preserve">
<style type="text/css">
	.st0{fill:#251441;}
	.st1{fill:#AD73FA;}
	.st2{fill:#412170;}
	.st3{fill:#691CC2;}
	.st4{fill:#8F3CF2;}
	.st5{fill:#CCADFF;}
	.st6{fill:#E3D7FF;}
</style>
<rect x="162" y="-162" transform="matrix(6.123234e-17 -1 1 6.123234e-17 162 1038)" class="st0" width="876" height="1200"/>
<g>
	<polygon class="st1" points="23,1879.5 23,1727.9 223,1527.9 223,1679.5 	"/>
	<polygon class="st2" points="423,1879.5 223,1679.5 223,1527.9 423,1727.9 	"/>
	<polygon class="st1" points="423,1879.5 423,1727.9 623,1527.9 623,1679.5 	"/>
	<polygon class="st2" points="823,1879.5 623,1679.5 623,1527.9 823,1727.9 	"/>
	<polygon class="st1" points="823,1879.5 823,1727.9 1023,1527.9 1023,1679.5 	"/>
	<polygon class="st2" points="1223,1879.5 1023,1679.5 1023,1527.9 1223,1727.9 	"/>
	<polygon class="st1" points="23,1528.5 23,1414.8 173,1264.8 173,1378.5 	"/>
	<polygon class="st2" points="323,1528.5 173,1378.5 173,1264.8 323,1414.8 	"/>
	<polygon class="st1" points="323,1528.5 323,1414.8 473,1264.8 473,1378.5 	"/>
	<polygon class="st2" points="623,1528.5 473,1378.5 473,1264.8 623,1414.8 	"/>
	<polygon class="st1" points="623,1528.5 623,1414.8 773,1264.8 773,1378.5 	"/>
	<polygon class="st2" points="923,1528.5 773,1378.5 773,1264.8 923,1414.8 	"/>
	<polygon class="st1" points="923,1528.5 923,1414.8 1073,1264.8 1073,1378.5 	"/>
	<polygon class="st2" points="1223,1528.5 1073,1378.5 1073,1264.8 1223,1414.8 	"/>
	<g>
		<polygon class="st1" points="23,1264.8 23,1208 98,1133 98,1189.8 		"/>
		<polygon class="st2" points="173,1264.8 98,1189.8 98,1133 173,1208 		"/>
		<polygon class="st1" points="173,1264.8 173,1208 248,1133 248,1189.8 		"/>
		<polygon class="st2" points="323,1264.8 248,1189.8 248,1133 323,1208 		"/>
		<polygon class="st1" points="323,1264.8 323,1208 398,1133 398,1189.8 		"/>
		<polygon class="st2" points="473,1264.8 398,1189.8 398,1133 473,1208 		"/>
		<polygon class="st1" points="473,1264.8 473,1208 548,1133 548,1189.8 		"/>
		<polygon class="st2" points="623,1264.8 548,1189.8 548,1133 623,1208 		"/>
		<polygon class="st1" points="623,1264.8 623,1208 698,1133 698,1189.8 		"/>
		<polygon class="st2" points="773,1264.8 698,1189.8 698,1133 773,1208 		"/>
		<polygon class="st1" points="773,1264.8 773,1208 848,1133 848,1189.8 		"/>
		<polygon class="st2" points="923,1264.8 848,1189.8 848,1133 923,1208 		"/>
		<polygon class="st1" points="923,1264.8 923,1208 998,1133 998,1189.8 		"/>
		<polygon class="st2" points="1073,1264.8 998,1189.8 998,1133 1073,1208 		"/>
		<polygon class="st1" points="1073,1264.8 1073,1208 1148,1133 1148,1189.8 		"/>
		<polygon class="st2" points="1223,1264.8 1148,1189.8 1148,1133 1223,1208 		"/>
	</g>
</g>
<rect x="-155" y="-471" transform="matrix(6.123234e-17 -1 1 6.123234e-17 316.0002 -403.9998)" class="st0" width="222" height="222"/>
<rect x="67" y="-471" transform="matrix(6.123234e-17 -1 1 6.123234e-17 538.0002 -181.9998)" class="st2" width="222" height="222"/>
<rect x="289" y="-471" transform="matrix(6.123234e-17 -1 1 6.123234e-17 760.0002 40.0002)" class="st3" width="222" height="222"/>
<rect x="512" y="-471" transform="matrix(6.123234e-17 -1 1 6.123234e-17 983.0002 263.0002)" class="st4" width="222" height="222"/>
<rect x="733" y="-471" transform="matrix(6.123234e-17 -1 1 6.123234e-17 1204.0002 484.0002)" class="st1" width="222" height="222"/>
<rect x="954" y="-471" transform="matrix(6.123234e-17 -1 1 6.123234e-17 1425.0002 705.0002)" class="st5" width="222" height="222"/>
<rect x="1175" y="-471" transform="matrix(6.123234e-17 -1 1 6.123234e-17 1646.0002 926.0002)" class="st6" width="222" height="222"/>
<g>
	<g>
		<g>
			<g>
				<polygon class="st1" points="0,131.8 0,75 75,0 75,56.8 				"/>
				<polygon class="st2" points="150,131.8 75,56.8 75,0 150,75 				"/>
				<polygon class="st1" points="150,131.8 150,75 225,0 225,56.8 				"/>
				<polygon class="st2" points="300,131.8 225,56.8 225,0 300,75 				"/>
				<polygon class="st1" points="300,131.8 300,75 375,0 375,56.8 				"/>
				<polygon class="st2" points="450,131.8 375,56.8 375,0 450,75 				"/>
				<polygon class="st1" points="450,131.8 450,75 525,0 525,56.8 				"/>
				<polygon class="st2" points="600,131.8 525,56.8 525,0 600,75 				"/>
				<polygon class="st1" points="600,131.8 600,75 675,0 675,56.8 				"/>
				<polygon class="st2" points="750,131.8 675,56.8 675,0 750,75 				"/>
				<polygon class="st1" points="750,131.8 750,75 825,0 825,56.8 				"/>
				<polygon class="st2" points="900,131.8 825,56.8 825,0 900,75 				"/>
				<polygon class="st1" points="900,131.8 900,75 975,0 975,56.8 				"/>
				<polygon class="st2" points="1050,131.8 975,56.8 975,0 1050,75 				"/>
				<polygon class="st1" points="1050,131.8 1050,75 1125,0 1125,56.8 				"/>
				<polygon class="st2" points="1200,131.8 1125,56.8 1125,0 1200,75 				"/>
			</g>
		</g>
		<g>
			<g>
				<polygon class="st1" points="1200,75 1200,131.8 1125,206.8 1125,150 				"/>
				<polygon class="st2" points="1050,75 1125,150 1125,206.8 1050,131.8 				"/>
				<polygon class="st1" points="1050,75 1050,131.8 975,206.8 975,150 				"/>
				<polygon class="st2" points="900,75 975,150 975,206.8 900,131.8 				"/>
				<polygon class="st1" points="900,75 900,131.8 825,206.8 825,150 				"/>
				<polygon class="st2" points="750,75 825,150 825,206.8 750,131.8 				"/>
				<polygon class="st1" points="750,75 750,131.8 675,206.8 675,150 				"/>
				<polygon class="st2" points="600,75 675,150 675,206.8 600,131.8 				"/>
				<polygon class="st1" points="600,75 600,131.8 525,206.8 525,150 				"/>
				<polygon class="st2" points="450,75 525,150 525,206.8 450,131.8 				"/>
				<polygon class="st1" points="450,75 450,131.8 375,206.8 375,150 				"/>
				<polygon class="st2" points="300,75 375,150 375,206.8 300,131.8 				"/>
				<polygon class="st1" points="300,75 300,131.8 225,206.8 225,150 				"/>
				<polygon class="st2" points="150,75 225,150 225,206.8 150,131.8 				"/>
				<polygon class="st1" points="150,75 150,131.8 75,206.8 75,150 				"/>
				<polygon class="st2" points="0,75 75,150 75,206.8 0,131.8 				"/>
			</g>
		</g>
	</g>
	<g>
		<polygon class="st1" points="0,338.5 0,224.8 150,74.8 150,188.5 		"/>
		<polygon class="st2" points="300,338.5 150,188.5 150,74.8 300,224.8 		"/>
		<polygon class="st1" points="300,338.5 300,224.8 450,74.8 450,188.5 		"/>
		<polygon class="st2" points="600,338.5 450,188.5 450,74.8 600,224.8 		"/>
		<polygon class="st1" points="600,338.5 600,224.8 750,74.8 750,188.5 		"/>
		<polygon class="st2" points="900,338.5 750,188.5 750,74.8 900,224.8 		"/>
		<polygon class="st1" points="900,338.5 900,224.8 1050,74.8 1050,188.5 		"/>
		<polygon class="st2" points="1200,338.5 1050,188.5 1050,74.8 1200,224.8 		"/>
	</g>
	<g>
		<polygon class="st1" points="1200,224.8 1200,338.5 1050,488.5 1050,374.8 		"/>
		<polygon class="st2" points="900,224.8 1050,374.8 1050,488.5 900,338.5 		"/>
		<polygon class="st1" points="900,224.8 900,338.5 750,488.5 750,374.8 		"/>
		<polygon class="st2" points="600,224.8 750,374.8 750,488.5 600,338.5 		"/>
		<polygon class="st1" points="600,224.8 600,338.5 450,488.5 450,374.8 		"/>
		<polygon class="st2" points="300,224.8 450,374.8 450,488.5 300,338.5 		"/>
		<polygon class="st1" points="300,224.8 300,338.5 150,488.5 150,374.8 		"/>
		<polygon class="st2" points="0,224.8 150,374.8 150,488.5 0,338.5 		"/>
	</g>
	<g>
		<g>
			<polygon class="st1" points="0,676.5 0,524.9 200,324.9 200,476.5 			"/>
			<polygon class="st2" points="400,676.5 200,476.5 200,324.9 400,524.9 			"/>
			<polygon class="st1" points="400,676.5 400,524.9 600,324.9 600,476.5 			"/>
			<polygon class="st2" points="800,676.5 600,476.5 600,324.9 800,524.9 			"/>
			<polygon class="st1" points="800,676.5 800,524.9 1000,324.9 1000,476.5 			"/>
			<polygon class="st2" points="1200,676.5 1000,476.5 1000,324.9 1200,524.9 			"/>
		</g>
		<g>
			<polygon class="st1" points="1200,524.9 1200,676.5 1000,876.5 1000,724.9 			"/>
			<polygon class="st2" points="800,524.9 1000,724.9 1000,876.5 800,676.5 			"/>
			<polygon class="st1" points="800,524.9 800,676.5 600,876.5 600,724.9 			"/>
			<polygon class="st2" points="400,524.9 600,724.9 600,876.5 400,676.5 			"/>
			<polygon class="st1" points="400,524.9 400,676.5 200,876.5 200,724.9 			"/>
			<polygon class="st2" points="0,524.9 200,724.9 200,876.5 0,676.5 			"/>
		</g>
	</g>
</g>
</svg>
