<?xml version="1.0" encoding="utf-8"?>
<!-- Generator: Adobe Illustrator 22.0.0, SVG Export Plug-In . SVG Version: 6.00 Build 0)  -->
<svg version="1.1" id="Layer_1" xmlns="http://www.w3.org/2000/svg" xmlns:xlink="http://www.w3.org/1999/xlink" x="0px" y="0px"
	 viewBox="0 0 202 202" style="enable-background:new 0 0 202 202;" xml:space="preserve">
<style type="text/css">
	.st0{fill:none;stroke:#6E72B3;stroke-width:2;stroke-miterlimit:10;}
	.st1{fill:none;stroke:#6E72B3;stroke-width:9;stroke-linecap:round;stroke-linejoin:round;stroke-miterlimit:10;}
</style>
<path class="st0" d="M101,1c55.2,0,100,44.8,100,100s-44.8,100-100,100S1,156.2,1,101S45.8,1,101,1z"/>
<g>
	<ellipse class="st1" cx="101" cy="65.1" rx="45" ry="18.1"/>
	<path class="st1" d="M56,69.7v20c0,10,20.1,18.1,45,18.1s45-8.1,45-18.1v-20"/>
	<path class="st1" d="M56,93.3v20c0,10,20.1,18.1,45,18.1s45-8.1,45-18.1v-20"/>
	<path class="st1" d="M56,116.9v20c0,10,20.1,18.1,45,18.1s45-8.1,45-18.1v-20"/>
</g>
</svg>
