<?xml version="1.0" encoding="utf-8"?>
<!-- Generator: Adobe Illustrator 22.0.0, SVG Export Plug-In . SVG Version: 6.00 Build 0)  -->
<svg version="1.1" id="Layer_1" xmlns="http://www.w3.org/2000/svg" xmlns:xlink="http://www.w3.org/1999/xlink" x="0px" y="0px"
	 viewBox="0 0 104.1 104.1" style="enable-background:new 0 0 104.1 104.1;" xml:space="preserve">
<style type="text/css">
	.st0{fill:none;stroke:#6E72B3;stroke-width:8;stroke-linecap:round;stroke-linejoin:round;stroke-miterlimit:10;}
</style>
<g>
	<g>
		<path class="st0" d="M79.1,14.5L79.1,14.5C79.1,8.7,83.8,4,89.6,4l0,0c5.8,0,10.5,4.7,10.5,10.5l0,0c0,5.8-4.7,10.5-10.5,10.5l0,0
			C83.8,24.9,79.1,20.2,79.1,14.5z"/>
		<path class="st0" d="M79.1,89.5L79.1,89.5c0-5.8,4.7-10.5,10.5-10.5l0,0c5.8,0,10.5,4.7,10.5,10.5l0,0c0,5.8-4.7,10.5-10.5,10.5
			l0,0C83.8,100,79.1,95.3,79.1,89.5z"/>
		<line class="st0" x1="89.5" y1="38.5" x2="89.5" y2="65.5"/>
	</g>
	<g>
		<path class="st0" d="M4,14.5L4,14.5C4,8.7,8.7,4,14.5,4l0,0C20.3,4,25,8.7,25,14.5l0,0C25,20.3,20.3,25,14.5,25l0,0
			C8.7,24.9,4,20.2,4,14.5z"/>
		<path class="st0" d="M4,89.5L4,89.5C4,83.7,8.7,79,14.5,79l0,0C20.3,79,25,83.7,25,89.5l0,0c0,5.8-4.7,10.5-10.5,10.5l0,0
			C8.7,100,4,95.3,4,89.5z"/>
		<line class="st0" x1="14.5" y1="38.5" x2="14.5" y2="65.5"/>
	</g>
	<line class="st0" x1="38.5" y1="14.5" x2="65.5" y2="14.5"/>
	<g>
		<path class="st0" d="M89.5,79.1L89.5,79.1c5.8,0,10.5,4.7,10.5,10.5l0,0c0,5.8-4.7,10.5-10.5,10.5l0,0c-5.8,0-10.5-4.7-10.5-10.5
			l0,0C79.1,83.8,83.8,79.1,89.5,79.1z"/>
		<path class="st0" d="M14.5,79.1L14.5,79.1c5.8,0,10.5,4.7,10.5,10.5l0,0c0,5.8-4.7,10.5-10.5,10.5l0,0C8.7,100.1,4,95.4,4,89.6
			l0,0C4,83.8,8.7,79.1,14.5,79.1z"/>
		<line class="st0" x1="65.5" y1="89.5" x2="38.5" y2="89.5"/>
	</g>
</g>
</svg>
