<?xml version="1.0" encoding="utf-8"?>
<!-- Generator: Adobe Illustrator 22.0.0, SVG Export Plug-In . SVG Version: 6.00 Build 0)  -->
<svg version="1.1" id="Layer_1" xmlns="http://www.w3.org/2000/svg" xmlns:xlink="http://www.w3.org/1999/xlink" x="0px" y="0px"
	 viewBox="0 0 105.1 105.1" style="enable-background:new 0 0 105.1 105.1;" xml:space="preserve">
<style type="text/css">
	.st0{fill:none;stroke:#6E72B3;stroke-width:9;stroke-linecap:round;stroke-linejoin:round;stroke-miterlimit:10;}
</style>
<g>
	<g>
		<path class="st0" d="M79.6,15L79.6,15c0-5.8,4.7-10.5,10.5-10.5l0,0c5.8,0,10.5,4.7,10.5,10.5l0,0c0,5.8-4.7,10.5-10.5,10.5l0,0
			C84.3,25.4,79.6,20.7,79.6,15z"/>
		<path class="st0" d="M79.6,90L79.6,90c0-5.8,4.7-10.5,10.5-10.5l0,0c5.8,0,10.5,4.7,10.5,10.5l0,0c0,5.8-4.7,10.5-10.5,10.5l0,0
			C84.3,100.5,79.6,95.8,79.6,90z"/>
		<line class="st0" x1="90" y1="39" x2="90" y2="66"/>
	</g>
	<g>
		<path class="st0" d="M4.5,15L4.5,15C4.5,9.2,9.2,4.5,15,4.5l0,0c5.8,0,10.5,4.7,10.5,10.5l0,0c0,5.8-4.7,10.5-10.5,10.5l0,0
			C9.2,25.4,4.5,20.7,4.5,15z"/>
		<path class="st0" d="M4.5,90L4.5,90c0-5.8,4.7-10.5,10.5-10.5l0,0c5.8,0,10.5,4.7,10.5,10.5l0,0c0,5.8-4.7,10.5-10.5,10.5l0,0
			C9.2,100.5,4.5,95.8,4.5,90z"/>
		<line class="st0" x1="15" y1="39" x2="15" y2="66"/>
	</g>
	<line class="st0" x1="39" y1="15" x2="66" y2="15"/>
	<g>
		<path class="st0" d="M90,79.6L90,79.6c5.8,0,10.5,4.7,10.5,10.5l0,0c0,5.8-4.7,10.5-10.5,10.5l0,0c-5.8,0-10.5-4.7-10.5-10.5l0,0
			C79.6,84.3,84.3,79.6,90,79.6z"/>
		<path class="st0" d="M15,79.6L15,79.6c5.8,0,10.5,4.7,10.5,10.5l0,0c0,5.8-4.7,10.5-10.5,10.5l0,0c-5.8,0-10.5-4.7-10.5-10.5l0,0
			C4.5,84.3,9.2,79.6,15,79.6z"/>
		<line class="st0" x1="66" y1="90" x2="39" y2="90"/>
	</g>
</g>
</svg>
