<?xml version="1.0" encoding="utf-8"?>
<!-- Generator: Adobe Illustrator 22.0.0, SVG Export Plug-In . SVG Version: 6.00 Build 0)  -->
<svg version="1.1" id="Layer_1" xmlns="http://www.w3.org/2000/svg" xmlns:xlink="http://www.w3.org/1999/xlink" x="0px" y="0px"
	 viewBox="0 0 102.1 102.1" style="enable-background:new 0 0 102.1 102.1;" xml:space="preserve">
<style type="text/css">
	.st0{fill:none;stroke:#B09FE2;stroke-width:7;stroke-linecap:round;stroke-linejoin:round;stroke-miterlimit:10;}
</style>
<g>
	<g>
		<path class="st0" d="M78.1,13.5L78.1,13.5C78.1,7.7,82.8,3,88.6,3l0,0c5.8,0,10.5,4.7,10.5,10.5l0,0c0,5.8-4.7,10.5-10.5,10.5l0,0
			C82.8,23.9,78.1,19.2,78.1,13.5z"/>
		<path class="st0" d="M78.1,88.5L78.1,88.5c0-5.8,4.7-10.5,10.5-10.5l0,0c5.8,0,10.5,4.7,10.5,10.5l0,0c0,5.8-4.7,10.5-10.5,10.5
			l0,0C82.8,99,78.1,94.3,78.1,88.5z"/>
		<line class="st0" x1="88.5" y1="37.5" x2="88.5" y2="64.5"/>
	</g>
	<g>
		<path class="st0" d="M3,13.5L3,13.5C3,7.7,7.7,3,13.5,3l0,0C19.3,3,24,7.7,24,13.5l0,0C24,19.3,19.3,24,13.5,24l0,0
			C7.7,23.9,3,19.2,3,13.5z"/>
		<path class="st0" d="M3,88.5L3,88.5C3,82.7,7.7,78,13.5,78l0,0C19.3,78,24,82.7,24,88.5l0,0C24,94.3,19.3,99,13.5,99l0,0
			C7.7,99,3,94.3,3,88.5z"/>
		<line class="st0" x1="13.5" y1="37.5" x2="13.5" y2="64.5"/>
	</g>
	<line class="st0" x1="37.5" y1="13.5" x2="64.5" y2="13.5"/>
	<g>
		<path class="st0" d="M88.5,78.1L88.5,78.1c5.8,0,10.5,4.7,10.5,10.5l0,0c0,5.8-4.7,10.5-10.5,10.5l0,0c-5.8,0-10.5-4.7-10.5-10.5
			l0,0C78.1,82.8,82.8,78.1,88.5,78.1z"/>
		<path class="st0" d="M13.5,78.1L13.5,78.1c5.8,0,10.5,4.7,10.5,10.5l0,0c0,5.8-4.7,10.5-10.5,10.5l0,0C7.7,99.1,3,94.4,3,88.6l0,0
			C3,82.8,7.7,78.1,13.5,78.1z"/>
		<line class="st0" x1="64.5" y1="88.5" x2="37.5" y2="88.5"/>
	</g>
</g>
</svg>
