<?xml version="1.0" encoding="utf-8"?>
<!-- Generator: Adobe Illustrator 22.0.0, SVG Export Plug-In . SVG Version: 6.00 Build 0)  -->
<svg version="1.1" id="Layer_1" xmlns="http://www.w3.org/2000/svg" xmlns:xlink="http://www.w3.org/1999/xlink" x="0px" y="0px"
	 viewBox="0 0 1200 1200" style="enable-background:new 0 0 1200 1200;" xml:space="preserve">
<style type="text/css">
	.st0{fill:#FFFFFF;}
	.st1{fill:#D481F2;}
	.st2{fill:none;stroke:#FFFFFF;stroke-width:2;stroke-miterlimit:10;}
	.st3{fill:#111111;}
</style>
<rect class="st0" width="1200" height="1200"/>
<path class="st1" d="M600,1100L600,1100c-276.1,0-500-223.9-500-500l0,0c0-276.1,223.9-500,500-500l0,0c276.1,0,500,223.9,500,500
	l0,0C1100,876.1,876.1,1100,600,1100z"/>
<g>
	<g>
		<g>
			<path class="st2" d="M639.3,1098.6h-78.6c-50.3-50.3-78.5-78.5-128.8-128.8V230.2c50.3-50.3,78.5-78.5,128.8-128.8h78.6
				c50.3,50.3,78.5,78.5,128.8,128.8v739.6C717.8,1020.1,689.6,1048.3,639.3,1098.6z"/>
			<path class="st2" d="M101.4,639.3v-78.6c50.3-50.3,78.5-78.5,128.8-128.8h739.6c50.3,50.3,78.5,78.5,128.8,128.8v78.6
				c-50.3,50.3-78.5,78.5-128.8,128.8H230.2C179.9,717.8,151.7,689.6,101.4,639.3z"/>
		</g>
		<g>
			<path class="st2" d="M716.8,1086.3l-77.6,12.3c-57.6-41.8-89.8-65.3-147.4-107.1L376.1,261.1c41.8-57.6,65.3-89.8,107.1-147.4
				l77.6-12.3c57.6,41.8,89.8,65.3,147.4,107.1l115.7,730.5C782.1,996.5,758.6,1028.8,716.8,1086.3z"/>
			<path class="st2" d="M113.7,716.8l-12.3-77.6c41.8-57.6,65.3-89.8,107.1-147.4l730.5-115.7c57.6,41.8,89.8,65.3,147.4,107.1
				l12.3,77.6c-41.8,57.6-65.3,89.8-107.1,147.4L261.1,823.9C203.5,782.1,171.2,758.6,113.7,716.8z"/>
		</g>
		<g>
			<path class="st2" d="M791.5,1062.1l-74.7,24.3c-63.4-32.3-98.9-50.4-162.4-82.7L325.8,300.3c32.3-63.4,50.4-98.9,82.7-162.4
				l74.7-24.3c63.4,32.3,98.9,50.4,162.4,82.7l228.5,703.4C841.9,963.1,823.8,998.7,791.5,1062.1z"/>
			<path class="st2" d="M137.9,791.5l-24.3-74.7c32.3-63.4,50.4-98.9,82.7-162.4l703.4-228.5c63.4,32.3,98.9,50.4,162.4,82.7
				l24.3,74.7c-32.3,63.4-50.4,98.9-82.7,162.4L300.3,874.2C236.9,841.9,201.3,823.8,137.9,791.5z"/>
		</g>
		<g>
			<path class="st2" d="M861.4,1026.4l-70,35.7c-67.7-22-105.6-34.3-173.3-56.3l-335.8-659c22-67.7,34.3-105.6,56.3-173.3l70-35.7
				c67.7,22,105.6,34.3,173.3,56.3l335.8,659C895.7,920.8,883.4,958.8,861.4,1026.4z"/>
			<path class="st2" d="M173.6,861.4l-35.7-70c22-67.7,34.3-105.6,56.3-173.3l659-335.8c67.7,22,105.6,34.3,173.3,56.3l35.7,70
				c-22,67.7-34.3,105.6-56.3,173.3l-659,335.8C279.2,895.7,241.2,883.4,173.6,861.4z"/>
		</g>
		<g>
			<path class="st2" d="M924.9,980.3l-63.6,46.2c-70.3-11.1-109.7-17.4-180-28.5L246.6,399.7c11.1-70.3,17.4-109.7,28.5-180
				l63.6-46.2c70.3,11.1,109.7,17.4,180,28.5l434.7,598.3C942.2,870.6,936,910,924.9,980.3z"/>
			<path class="st2" d="M219.7,924.9l-46.2-63.6c11.1-70.3,17.4-109.7,28.5-180l598.3-434.7c70.3,11.1,109.7,17.4,180,28.5
				l46.2,63.6c-11.1,70.3-17.4,109.7-28.5,180L399.7,953.4C329.4,942.2,290,936,219.7,924.9z"/>
		</g>
		<g>
			<path class="st2" d="M980.4,924.8l-55.6,55.6c-71.2,0-111.1,0-182.2,0L219.6,457.4c0-71.2,0-111.1,0-182.2l55.6-55.6
				c71.2,0,111.1,0,182.2,0l522.9,522.9C980.4,813.7,980.4,853.6,980.4,924.8z"/>
			<path class="st2" d="M275.2,980.4l-55.6-55.6c0-71.2,0-111.1,0-182.2l522.9-522.9c71.2,0,111.1,0,182.2,0l55.6,55.6
				c0,71.2,0,111.1,0,182.2L457.4,980.4C386.3,980.4,346.4,980.4,275.2,980.4z"/>
		</g>
		<g>
			<path class="st2" d="M1026.5,861.3l-46.2,63.6c-70.3,11.1-109.7,17.4-180,28.5L202,518.7c-11.1-70.3-17.4-109.7-28.5-180
				l46.2-63.6c70.3-11.1,109.7-17.4,180-28.5L998,681.3C1009.1,751.6,1015.4,791,1026.5,861.3z"/>
			<path class="st2" d="M338.7,1026.5l-63.6-46.2c-11.1-70.3-17.4-109.7-28.5-180L681.3,202c70.3-11.1,109.7-17.4,180-28.5
				l63.6,46.2c11.1,70.3,17.4,109.7,28.5,180L518.7,998C448.4,1009.1,409,1015.4,338.7,1026.5z"/>
		</g>
		<g>
			<path class="st2" d="M1062.1,791.4l-35.7,70c-67.7,22-105.6,34.3-173.3,56.3l-659-335.8c-22-67.7-34.3-105.6-56.3-173.3l35.7-70
				c67.7-22,105.6-34.3,173.3-56.3l659,335.8C1027.8,685.7,1040.1,723.7,1062.1,791.4z"/>
			<path class="st2" d="M408.6,1062.1l-70-35.7c-22-67.7-34.3-105.6-56.3-173.3l335.8-659c67.7-22,105.6-34.3,173.3-56.3l70,35.7
				c22,67.7,34.3,105.6,56.3,173.3l-335.8,659C514.3,1027.8,476.3,1040.1,408.6,1062.1z"/>
		</g>
		<g>
			<path class="st2" d="M1086.4,716.7l-24.3,74.7c-63.4,32.3-98.9,50.4-162.4,82.7L196.4,645.6c-32.3-63.4-50.4-98.9-82.7-162.4
				l24.3-74.7c63.4-32.3,98.9-50.4,162.4-82.7l703.4,228.5C1035.9,617.8,1054.1,653.3,1086.4,716.7z"/>
			<path class="st2" d="M483.3,1086.4l-74.7-24.3c-32.3-63.4-50.4-98.9-82.7-162.4l228.5-703.4c63.4-32.3,98.9-50.4,162.4-82.7
				l74.7,24.3c32.3,63.4,50.4,98.9,82.7,162.4l-228.5,703.4C582.2,1035.9,546.7,1054.1,483.3,1086.4z"/>
		</g>
		<g>
			<path class="st2" d="M1098.6,639.2l-12.3,77.6c-57.6,41.8-89.8,65.3-147.4,107.1L208.5,708.2c-41.8-57.6-65.3-89.8-107.1-147.4
				l12.3-77.6c57.6-41.8,89.8-65.3,147.4-107.1l730.5,115.7C1033.4,549.3,1056.8,581.6,1098.6,639.2z"/>
			<path class="st2" d="M560.8,1098.6l-77.6-12.3c-41.8-57.6-65.3-89.8-107.1-147.4l115.7-730.5c57.6-41.8,89.8-65.3,147.4-107.1
				l77.6,12.3c41.8,57.6,65.3,89.8,107.1,147.4L708.2,991.5C650.7,1033.4,618.4,1056.8,560.8,1098.6z"/>
		</g>
	</g>
	<g>
		<g>
			<path class="st2" d="M665.3,1095.9l-78.5,4.1c-52.9-47.6-82.5-74.3-135.4-121.9l-38.7-738.5c47.6-52.9,74.3-82.5,121.9-135.4
				l78.5-4.1c52.9,47.6,82.5,74.3,135.4,121.9l38.7,738.5C739.6,1013.4,713,1043,665.3,1095.9z"/>
			<path class="st2" d="M104.1,665.3l-4.1-78.5c47.6-52.9,74.3-82.5,121.9-135.4l738.5-38.7c52.9,47.6,82.5,74.3,135.4,121.9
				l4.1,78.5c-47.6,52.9-74.3,82.5-121.9,135.4l-738.5,38.7C186.6,739.6,157,713,104.1,665.3z"/>
		</g>
		<g>
			<path class="st2" d="M742.1,1079.6l-76.9,16.3c-59.7-38.8-93.1-60.5-152.8-99.2L358.7,273.3c38.8-59.7,60.5-93.1,99.2-152.8
				l76.9-16.3c59.7,38.8,93.1,60.5,152.8,99.2l153.8,723.4C802.6,986.4,780.9,1019.9,742.1,1079.6z"/>
			<path class="st2" d="M120.4,742.1l-16.3-76.9c38.8-59.7,60.5-93.1,99.2-152.8l723.4-153.8c59.7,38.8,93.1,60.5,152.8,99.2
				l16.3,76.9c-38.8,59.7-60.5,93.1-99.2,152.8L273.3,841.3C213.6,802.6,180.1,780.9,120.4,742.1z"/>
		</g>
		<g>
			<path class="st2" d="M815.4,1051.4l-73.4,28.2c-65-28.9-101.5-45.2-166.5-74.1L310.5,315c28.9-65,45.2-101.5,74.1-166.5
				l73.4-28.2c65,28.9,101.5,45.2,166.5,74.1l265,690.4C860.5,950,844.3,986.4,815.4,1051.4z"/>
			<path class="st2" d="M148.6,815.4L120.4,742c28.9-65,45.2-101.5,74.1-166.5l690.4-265c65,28.9,101.5,45.2,166.5,74.1l28.2,73.4
				c-28.9,65-45.2,101.5-74.1,166.5L315,889.5C250,860.5,213.6,844.3,148.6,815.4z"/>
		</g>
		<g>
			<path class="st2" d="M883.3,1012.2l-68.1,39.3c-68.7-18.4-107.3-28.7-176-47.2L269.5,363.8c18.4-68.7,28.7-107.3,47.2-176
				l68.1-39.3c68.7,18.4,107.3,28.7,176,47.2l369.8,640.5C912.1,904.9,901.8,943.4,883.3,1012.2z"/>
			<path class="st2" d="M187.8,883.3l-39.3-68.1c18.4-68.7,28.7-107.3,47.2-176l640.5-369.8c68.7,18.4,107.3,28.7,176,47.2
				l39.3,68.1c-18.4,68.7-28.7,107.3-47.2,176L363.8,930.5C295.1,912.1,256.6,901.8,187.8,883.3z"/>
		</g>
		<g>
			<path class="st2" d="M944.3,962.8l-61.1,49.5c-70.8-7.4-110.4-11.6-181.2-19L236.6,418.4c7.4-70.8,11.6-110.4,19-181.2l61.1-49.5
				c70.8,7.4,110.4,11.6,181.2,19l465.4,574.7C955.9,852.3,951.8,892,944.3,962.8z"/>
			<path class="st2" d="M237.2,944.3l-49.5-61.1c7.4-70.8,11.6-110.4,19-181.2l574.7-465.4c70.8,7.4,110.4,11.6,181.2,19l49.5,61.1
				c-7.4,70.8-11.6,110.4-19,181.2L418.4,963.4C347.7,955.9,308,951.8,237.2,944.3z"/>
		</g>
		<g>
			<path class="st2" d="M996.8,904.4l-52.6,58.4c-71.1,3.7-110.9,5.8-182,9.5L212.7,477.5c-3.7-71.1-5.8-110.9-9.5-182l52.6-58.4
				c71.1-3.7,110.9-5.8,182-9.5l549.6,494.9C991,793.5,993.1,833.4,996.8,904.4z"/>
			<path class="st2" d="M295.6,996.8l-58.4-52.6c-3.7-71.1-5.8-110.9-9.5-182l494.9-549.6c71.1-3.7,110.9-5.8,182-9.5l58.4,52.6
				c3.7,71.1,5.8,110.9,9.5,182L477.5,987.3C406.5,991,366.6,993.1,295.6,996.8z"/>
		</g>
		<g>
			<path class="st2" d="M1039.6,838.6l-42.8,65.9c-69.6,14.8-108.6,23.1-178.2,37.9L198.3,539.6C183.5,470,175.2,431,160.4,361.4
				l42.8-65.9c69.6-14.8,108.6-23.1,178.2-37.9l620.2,402.8C1016.5,730,1024.8,769,1039.6,838.6z"/>
			<path class="st2" d="M361.4,1039.6l-65.9-42.8c-14.8-69.6-23.1-108.6-37.9-178.2l402.8-620.2c69.6-14.8,108.6-23.1,178.2-37.9
				l65.9,42.8c14.8,69.6,23.1,108.6,37.9,178.2l-402.8,620.2C470,1016.5,431,1024.8,361.4,1039.6z"/>
		</g>
		<g>
			<path class="st2" d="M1071.5,766.9l-32,71.8c-66.4,25.5-103.7,39.8-170.1,65.3L193.8,603.2c-25.5-66.4-39.8-103.7-65.3-170.1
				l32-71.8c66.4-25.5,103.7-39.8,170.1-65.3l675.6,300.8C1031.7,663.2,1046,700.5,1071.5,766.9z"/>
			<path class="st2" d="M433.1,1071.5l-71.8-32c-25.5-66.4-39.8-103.7-65.3-170.1l300.8-675.6c66.4-25.5,103.7-39.8,170.1-65.3
				l71.8,32c25.5,66.4,39.8,103.7,65.3,170.1l-300.8,675.6C536.8,1031.7,499.5,1046,433.1,1071.5z"/>
		</g>
		<g>
			<path class="st2" d="M1091.8,691.1l-20.3,75.9c-61.6,35.6-96.2,55.5-157.8,91.1L199.3,666.7c-35.6-61.6-55.5-96.2-91.1-157.8
				l20.3-75.9c61.6-35.6,96.2-55.5,157.8-91.1l714.4,191.4C1036.3,594.9,1056.2,629.5,1091.8,691.1z"/>
			<path class="st2" d="M508.9,1091.8l-75.9-20.3c-35.6-61.6-55.5-96.2-91.1-157.8l191.4-714.4c61.6-35.6,96.2-55.5,157.8-91.1
				l75.9,20.3c35.6,61.6,55.5,96.2,91.1,157.8l-191.4,714.4C605.1,1036.3,570.5,1056.2,508.9,1091.8z"/>
		</g>
		<g>
			<path class="st2" d="M1100,613l-8.2,78.2c-55.3,44.8-86.3,69.9-141.6,114.7l-735.5-77.3C169.9,673.3,144.8,642.3,100,587
				l8.2-78.2c55.3-44.8,86.3-69.9,141.6-114.7l735.5,77.3C1030.1,526.7,1055.2,557.7,1100,613z"/>
			<path class="st2" d="M587,1100l-78.2-8.2c-44.8-55.3-69.9-86.3-114.7-141.6l77.3-735.5c55.3-44.8,86.3-69.9,141.6-114.7l78.2,8.2
				c44.8,55.3,69.9,86.3,114.7,141.6l-77.3,735.5C673.3,1030.1,642.3,1055.2,587,1100z"/>
		</g>
	</g>
	<g>
		<g>
			<path class="st2" d="M691.2,1091.8L613,1100c-55.3-44.8-86.3-69.9-141.6-114.7l-77.3-735.5c44.8-55.3,69.9-86.3,114.7-141.6
				L587,100c55.3,44.8,86.3,69.9,141.6,114.7l77.3,735.5C761.1,1005.5,736,1036.5,691.2,1091.8z"/>
			<path class="st2" d="M108.2,691.2L100,613c44.8-55.3,69.9-86.3,114.7-141.6l735.5-77.3c55.3,44.8,86.3,69.9,141.6,114.7l8.2,78.2
				c-44.8,55.3-69.9,86.3-114.7,141.6l-735.5,77.3C194.5,761.1,163.5,736,108.2,691.2z"/>
		</g>
		<g>
			<path class="st2" d="M767,1071.5l-75.9,20.3c-61.6-35.6-96.2-55.5-157.8-91.1L341.9,286.3c35.6-61.6,55.5-96.2,91.1-157.8
				l75.9-20.3c61.6,35.6,96.2,55.5,157.8,91.1l191.4,714.4C822.5,975.3,802.6,1009.8,767,1071.5z"/>
			<path class="st2" d="M128.5,767l-20.3-75.9c35.6-61.6,55.5-96.2,91.1-157.8l714.4-191.4c61.6,35.6,96.2,55.5,157.8,91.1
				l20.3,75.9c-35.6,61.6-55.5,96.2-91.1,157.8L286.3,858.1C224.7,822.5,190.2,802.6,128.5,767z"/>
		</g>
		<g>
			<path class="st2" d="M838.7,1039.5l-71.8,32c-66.4-25.5-103.7-39.8-170.1-65.3L296,330.6c25.5-66.4,39.8-103.7,65.3-170.1
				l71.8-32c66.4,25.5,103.7,39.8,170.1,65.3L904,869.4C878.5,935.9,864.2,973.1,838.7,1039.5z"/>
			<path class="st2" d="M160.5,838.7l-32-71.8c25.5-66.4,39.8-103.7,65.3-170.1L869.4,296c66.4,25.5,103.7,39.8,170.1,65.3l32,71.8
				c-25.5,66.4-39.8,103.7-65.3,170.1L330.6,904C264.1,878.5,226.9,864.2,160.5,838.7z"/>
		</g>
		<g>
			<path class="st2" d="M904.5,996.8l-65.9,42.8c-69.6-14.8-108.6-23.1-178.2-37.9L257.6,381.5c14.8-69.6,23.1-108.6,37.9-178.2
				l65.9-42.8c69.6,14.8,108.6,23.1,178.2,37.9l402.8,620.2C927.6,888.2,919.3,927.2,904.5,996.8z"/>
			<path class="st2" d="M203.2,904.5l-42.8-65.9c14.8-69.6,23.1-108.6,37.9-178.2l620.2-402.8c69.6,14.8,108.6,23.1,178.2,37.9
				l42.8,65.9c-14.8,69.6-23.1,108.6-37.9,178.2L381.5,942.4C311.8,927.6,272.8,919.3,203.2,904.5z"/>
		</g>
		<g>
			<path class="st2" d="M962.8,944.3l-58.4,52.6c-71.1-3.7-110.9-5.8-182-9.5L227.6,437.7c3.7-71.1,5.8-110.9,9.5-182l58.4-52.6
				c71.1,3.7,110.9,5.8,182,9.5l494.9,549.6C968.7,833.4,966.6,873.2,962.8,944.3z"/>
			<path class="st2" d="M255.7,962.8l-52.6-58.4c3.7-71.1,5.8-110.9,9.5-182l549.6-494.9c71.1,3.7,110.9,5.8,182,9.5l52.6,58.4
				c-3.7,71.1-5.8,110.9-9.5,182L437.7,972.4C366.6,968.7,326.8,966.6,255.7,962.8z"/>
		</g>
		<g>
			<path class="st2" d="M1012.2,883.3l-49.5,61.1c-70.8,7.4-110.4,11.6-181.2,19L206.8,498c-7.4-70.8-11.6-110.4-19-181.2l49.5-61.1
				c70.8-7.4,110.4-11.6,181.2-19L993.2,702C1000.6,772.8,1004.8,812.5,1012.2,883.3z"/>
			<path class="st2" d="M316.7,1012.2l-61.1-49.5c-7.4-70.8-11.6-110.4-19-181.2L702,206.8c70.8-7.4,110.4-11.6,181.2-19l61.1,49.5
				c7.4,70.8,11.6,110.4,19,181.2L498,993.2C427.2,1000.6,387.5,1004.8,316.7,1012.2z"/>
		</g>
		<g>
			<path class="st2" d="M1051.5,815.3l-39.3,68.1c-68.7,18.4-107.3,28.7-176,47.2L195.7,560.7c-18.4-68.7-28.7-107.3-47.2-176
				l39.3-68.1c68.7-18.4,107.3-28.7,176-47.2l640.5,369.8C1022.7,708,1033.1,746.5,1051.5,815.3z"/>
			<path class="st2" d="M384.7,1051.5l-68.1-39.3c-18.4-68.7-28.7-107.3-47.2-176l369.8-640.5c68.7-18.4,107.3-28.7,176-47.2
				l68.1,39.3c18.4,68.7,28.7,107.3,47.2,176l-369.8,640.5C492,1022.7,453.5,1033.1,384.7,1051.5z"/>
		</g>
		<g>
			<path class="st2" d="M1079.6,742l-28.2,73.4c-65,28.9-101.5,45.2-166.5,74.1l-690.4-265c-28.9-65-45.2-101.5-74.1-166.5
				l28.2-73.4c65-28.9,101.5-45.2,166.5-74.1l690.4,265C1034.4,640.6,1050.6,677,1079.6,742z"/>
			<path class="st2" d="M458,1079.6l-73.4-28.2c-28.9-65-45.2-101.5-74.1-166.5l265-690.4c65-28.9,101.5-45.2,166.5-74.1l73.4,28.2
				c28.9,65,45.2,101.5,74.1,166.5l-265,690.4C559.4,1034.4,523,1050.6,458,1079.6z"/>
		</g>
		<g>
			<path class="st2" d="M1095.9,665.2l-16.3,76.9c-59.7,38.8-93.1,60.5-152.8,99.2L203.3,687.6c-38.8-59.7-60.5-93.1-99.2-152.8
				l16.3-76.9c59.7-38.8,93.1-60.5,152.8-99.2l723.4,153.8C1035.4,572.1,1057.1,605.6,1095.9,665.2z"/>
			<path class="st2" d="M534.8,1095.9l-76.9-16.3c-38.8-59.7-60.5-93.1-99.2-152.8l153.8-723.4c59.7-38.8,93.1-60.5,152.8-99.2
				l76.9,16.3c38.8,59.7,60.5,93.1,99.2,152.8L687.6,996.7C627.9,1035.4,594.4,1057.1,534.8,1095.9z"/>
		</g>
		<g>
			<path class="st2" d="M1100,586.9l-4.1,78.5c-52.9,47.6-82.5,74.3-135.4,121.9l-738.5-38.7C174.3,695.7,147.6,666,100,613.1
				l4.1-78.5c52.9-47.6,82.5-74.3,135.4-121.9l738.5,38.7C1025.7,504.3,1052.4,534,1100,586.9z"/>
			<path class="st2" d="M613.1,1100l-78.5-4.1c-47.6-52.9-74.3-82.5-121.9-135.4l38.7-738.5c52.9-47.6,82.5-74.3,135.4-121.9
				l78.5,4.1c47.6,52.9,74.3,82.5,121.9,135.4l-38.7,738.5C695.7,1025.7,666,1052.4,613.1,1100z"/>
		</g>
	</g>
</g>
<g>
	<g>
		<path class="st3" d="M217.9,215.8C207.3,227.9,202,244,202,264c0,16.5,4,48.7,11.9,96.4c8,47.8,18.9,94.9,32.7,141.3
			c13.9,46.4,27.1,69.7,39.8,69.7c20.3,0,30.5-22.9,30.5-68.6c0-19.8-3.5-41.1-10.4-64.1s-14.4-43.1-22.6-60.4
			c-8.1-17.2-15.6-36.6-22.6-57.9c-6.9-21.4-10.4-40.6-10.4-57.7c0-12.7,2.4-23.7,7.3-33s13.2-13.9,25-13.9h149.5
			c-5.6,4.7-11,12.2-16.1,22.3c-5.2,10.2-8.9,19-11.3,26.5s-6.2,19.8-11.5,36.9c-16.8,56-29.9,105-39.1,146.8
			c-9.3,41.9-20.1,96.9-32.5,165c-3.5,20.1-0.3,34.9,9.7,44.7H136.1c10-9.7,13.3-24.6,9.7-44.7c-12.4-68.1-23.2-123.1-32.5-165
			C104,406.6,91,357.7,74.2,301.6c-5.3-17.1-9.1-29.4-11.5-36.9s-6.1-16.4-11.3-26.5c-5.2-10.2-10.5-17.6-16.1-22.3h182.6V215.8z"/>
		<path class="st3" d="M474.9,605.9V268c0-24.5-5.2-41.9-15.5-52.2h148.2c-10.3,10.3-15.5,27.7-15.5,52.2v337.9
			c0,24.5,5.2,41.9,15.5,52.2H459.4C469.7,647.8,474.9,630.4,474.9,605.9z"/>
		<path class="st3" d="M642.9,658.1c10.3-10.3,15.5-27.7,15.5-52.2V268c0-24.5-5.2-41.9-15.5-52.2h123c16.2,0,27.9,3.9,35.2,11.7
			c7.2,7.8,10.8,17,10.8,27.6c0,15.9-4.3,30.7-13,44.2c-8.7,13.6-19.2,25.1-31.4,34.5S743,352,730.6,360.1
			c-12.4,8.1-22.9,16.4-31.6,25c-8.7,8.6-13,17-13,25.2c0,9.1,4.7,13.7,14.2,13.7c9.1,0,22.6-5.2,40.5-15.7
			c17.8-10.5,35.7-23.4,53.5-38.9s33.5-33.6,46.9-54.4s20.1-40,20.1-57.7c0-15-4.1-28.9-12.4-41.6h93.3c9.1,0,17.2,3.9,24.1,11.7
			c6.9,7.8,10.4,17.6,10.4,29.4c0,23.6-7.8,44.5-23.4,62.8c-15.6,18.3-34.6,32.8-56.8,43.6c-22.3,10.8-44.5,20.2-66.6,28.3
			c-22.1,8.1-41,15.9-56.6,23.2c-15.6,7.4-23.4,14.7-23.4,22.1c0,6.8,8.4,9.6,25.2,8.4c7.4-0.6,21.2-4.3,41.4-11.1
			c20.2-6.8,36.2-10,48-9.7c6.5,0,12.5,1.6,17.9,4.9c5.5,3.2,9.9,6.9,13.3,11.1c3.4,4.1,6.8,9.9,10.2,17.2
			c3.4,7.4,5.9,13.8,7.5,19.2c1.6,5.5,3.8,12.5,6.4,21.2c2.7,8.7,4.6,15,5.7,18.8c15.9,46.9,28.2,80.4,36.9,100.6
			c8.7,20.2,18.1,33.7,28.1,40.5H895c-18.9,0-32.2-3-40-9.1c-7.8-6-13.9-16.7-18.4-32.1c-13-44.8-23.4-75.5-31.4-92
			c-9.1-18.9-20.6-34.8-34.5-47.8s-28.8-19.3-44.7-19c-13.9,0.3-24.1,3.8-30.7,10.6c-6.6,6.8-10,14.2-10,22.1
			c0,10.6,3.4,20.1,10.2,28.3c6.8,8.3,15,15.4,24.5,21.5s19.2,12.5,28.8,19.2c9.6,6.8,17.8,15.8,24.5,27
			c6.8,11.2,10.2,24.2,10.2,38.9c0,7.7-2.5,15-7.5,21.9s-10.3,10.4-15.9,10.4H642.9V658.1z"/>
		<path class="st3" d="M1032.1,605.9V268c0-24.5-5.2-41.9-15.5-52.2h148.2c-10.3,10.3-15.5,27.7-15.5,52.2v337.9
			c0,24.5,5.2,41.9,15.5,52.2h-148.2C1026.9,647.8,1032.1,630.4,1032.1,605.9z"/>
	</g>
	<g>
		<path class="st3" d="M95.7,963.4c-18.4-13.9-27.7-29.9-27.7-48c0-5.6,5-12.2,15-19.9s20.7-14.2,32.3-19.4s19.9-7.8,25.1-7.6
			c4.8,0.2,8.7,1.8,11.8,4.9c3.1,3.1,4.2,7.3,3.4,12.7c-0.8,6-1.4,10.7-1.8,14.2c-0.4,3.5-0.7,8.2-0.9,14.2s0,10.8,0.7,14.4
			s1.9,7.7,3.6,12.3c1.7,4.6,4,8.1,6.9,10.6s6.8,4.6,11.7,6.4c4.9,1.8,10.5,2.7,16.9,2.7c11.8,0,22-3.9,30.7-11.7s13-17.4,13-28.7
			c0-14-5-25.1-15.1-33.5s-23.8-15.3-41.1-20.6c-10.2-3.2-18.5-5.9-25-8.1c-6.5-2.2-14-5-22.6-8.5s-15.5-6.9-20.8-10.3
			c-5.3-3.4-10.9-7.6-16.8-12.6S84.5,816.6,81.2,811c-3.3-5.6-6-12.1-8.1-19.6S70,775.8,70,767c0-25.1,9.1-46.6,27.4-64.3
			c18.2-17.8,39.9-26.6,65.1-26.6c7.4,0,18.3,2,32.9,6c14.6,4,26.5,6,35.9,6c7.8,0,15.2-2,22.1-6c7-4,11.6-6,13.8-6
			c6.4,0,8.6,6.5,6.6,19.4c-2.4,15.6-8.7,30.1-18.8,43.7c-9.8,13-19.9,19.5-30.5,19.7c-9.8,0-19.9-1.9-30.4-5.7s-19.4-7.9-26.9-12.3
			c-7.5-4.4-16.2-8.5-26-12.3c-9.9-3.8-19.3-5.7-28.3-5.7c-5.6,0-10.3,2-14.2,6.1c-3.9,4.1-5.8,9-5.8,14.8c0,4.4,1.1,8.5,3.4,12.3
			s5.1,7,8.5,9.6s8.1,5,14.1,7.2s11.5,3.9,16.6,5.2s11.6,2.5,19.4,3.7c7.9,1.2,14.4,2,19.6,2.5c5.2,0.5,11.9,1.1,20,1.9
			c25.3,2.4,45.7,11.3,61.2,26.6c15.5,15.4,23.2,34.5,23.2,57.4c0,14-2.3,27.4-7,40.4s-11.6,25-20.8,36.2s-21.6,20.1-37.3,26.9
			c-15.7,6.8-33.5,10.2-53.4,10.2C135.7,984.2,114.1,977.2,95.7,963.4z"/>
		<path class="st3" d="M303.7,774.6c4.5-17.9,11.1-34.3,19.7-49.2c8.7-15,20.1-26.9,34.3-35.9c14.2-9,30.1-13.5,47.9-13.5
			c7.4,0,18.4,2,32.9,6c14.6,4,26.5,6,35.9,6c7.8,0,15.2-2,22.1-6c7-4,11.6-6,13.8-6c2.8,0,4.8,1.3,6,4s1.6,6.2,1.2,10.5
			c-0.4,4.3-1.3,8.9-2.7,13.9s-3.2,10-5.4,15c-1.8,4.2-3.8,8.3-6.1,12.3c-2.3,4-5.2,8.2-8.8,12.6c-3.6,4.4-7.7,7.9-12.4,10.6
			c-4.7,2.7-9.5,4-14.5,4c-12,0-23.4-1.9-34.4-5.7s-19.9-7.9-26.8-12.3c-6.9-4.4-14.9-8.5-23.9-12.3c-9.1-3.8-17.9-5.7-26.5-5.7
			c-4.8,0-8.9,1.3-12.3,4s-5.9,6.1-7.6,10.2c-1.7,4.1-2.9,8-3.6,11.7s-1,7.1-1,10.3c0,0.2-0.1,2-0.1,5.5s-0.1,6.5-0.1,9.1
			s0.1,5.5,0.4,8.8s0.9,5.9,1.8,7.8c0.9,1.9,2.1,2.8,3.7,2.8c2.2,0,5-1.3,8.5-3.9s8.1-5.2,13.8-7.8c5.7-2.6,12.4-3.9,20.2-3.9
			c10.4,0,24.4,4.1,42,12.3c17.7,8.2,30.1,12.3,37.3,12.3c5.4,0,10.1-1.9,14.2-5.8c4.1-3.9,6.6-5.8,7.6-5.8c5,0,7.5,5.7,7.5,17.1
			c0,5.4-1,10.9-3,16.5s-4.9,11-8.7,16.2c-3.8,5.2-9.1,9.4-16,12.7s-14.7,4.9-23.5,4.9c-8.2,0-16.1-1.8-23.8-5.5
			c-7.7-3.7-14.3-8.2-19.9-13.5s-10.9-10.6-16-16s-10.2-9.9-15.3-13.6c-5.1-3.7-9.9-5.5-14.5-5.5c-7.6,0-9.7,5.6-6.3,16.8
			c9,27.5,22.8,50,41.4,67.5s38.3,26.2,59.1,26.2c9.8,0,18.3-1.5,25.7-4.5c7.4-3,13.1-6.7,17.1-11.1c4-4.4,7.4-8.8,10.2-13.2
			c2.8-4.4,5.4-8.1,7.9-11.1s5-4.5,7.6-4.5c5,0,7.5,5.4,7.5,16.2c0,10.4-2.2,21.2-6.7,32.5s-10.8,21.8-19,31.7s-18.7,18-31.7,24.4
			s-27,9.6-42.2,9.6c-35.3,0-64.3-13.3-87.1-39.9c-22.7-26.6-34.1-64.7-34.1-114.1C297,811,299.2,792.5,303.7,774.6z"/>
		<path class="st3" d="M548.4,713.6c-1.6-5.1-4.1-11.1-7.6-18s-7.1-11.9-10.9-15.1h123.6c-7.2,8.2-10.8,19-10.8,32.6
			c0,11.2,2.7,32.9,8.1,65.2c5.4,32.3,12.8,64.2,22.1,95.6c9.4,31.4,18.4,47.1,26.9,47.1c7.4,0,13.3-5.9,17.8-17.7
			s7.3-25.9,8.5-42.3c1.2-16.5,1.6-32.8,1.2-49.1c-0.4-16.3-1.6-29.6-3.6-39.9c-4.6-16.4-7.8-27.5-9.6-33.5
			c-3.6-11.6-6.2-19.9-7.8-25s-4.1-11.1-7.6-18s-7.1-11.9-10.9-15.1h123.6c-7.2,8.2-10.8,19-10.8,32.6c0,11.2,2.7,32.9,8.1,65.2
			c5.4,32.3,12.8,64.2,22.1,95.6c9.4,31.4,18.4,47.1,26.9,47.1c13.8,0,20.6-15.5,20.6-46.4c0-13.4-2.3-27.8-7-43.4
			c-4.7-15.6-9.8-29.2-15.3-40.8c-5.5-11.7-10.6-24.7-15.3-39.2s-7-27.5-7-39c0-8.6,1.6-16,4.9-22.3c3.3-6.3,8.9-9.4,16.9-9.4h101.1
			c-3.8,3.2-7.4,8.2-10.9,15.1c-3.5,6.9-6,12.9-7.6,18s-4.2,13.4-7.8,25c-11.4,37.9-20.2,71-26.5,99.3s-13.6,65.5-22,111.6
			c-2.4,13.6-0.2,23.6,6.6,30.2H756c6.8-6.6,9-16.7,6.6-30.2c-7.8-43.3-14.2-76.4-19.1-99.3c-5.2,22.3-11.7,55.4-19.4,99.3
			c-2.4,13.6-0.2,23.6,6.6,30.2H598.1c6.8-6.6,9-16.7,6.6-30.2c-8.2-45.1-15.5-81.9-21.8-110.5c-6.4-28.6-15.3-62.1-26.6-100.4
			C552.6,727,550,718.7,548.4,713.6z"/>
		<path class="st3" d="M981.5,963.4c-18.4-13.9-27.7-29.9-27.7-48c0-5.6,5-12.2,15-19.9s20.7-14.2,32.3-19.4
			c11.6-5.3,19.9-7.8,25.1-7.6c4.8,0.2,8.7,1.8,11.8,4.9c3.1,3.1,4.2,7.3,3.4,12.7c-0.8,6-1.4,10.7-1.8,14.2s-0.7,8.2-0.9,14.2
			c-0.2,6,0,10.8,0.7,14.4s1.9,7.7,3.6,12.3s4,8.1,6.9,10.6s6.8,4.6,11.7,6.4c4.9,1.8,10.5,2.7,16.9,2.7c11.8,0,22-3.9,30.7-11.7
			s13-17.4,13-28.7c0-14-5-25.1-15.1-33.5s-23.8-15.3-41.1-20.6c-10.2-3.2-18.5-5.9-25-8.1c-6.5-2.2-14-5-22.6-8.5
			s-15.5-6.9-20.8-10.3c-5.3-3.4-10.9-7.6-16.8-12.6c-5.9-5-10.5-10.3-13.8-15.9c-3.3-5.6-6-12.1-8.1-19.6s-3.1-15.6-3.1-24.4
			c0-25.1,9.1-46.6,27.4-64.3c18.3-17.8,39.9-26.6,65.1-26.6c7.4,0,18.3,2,32.9,6s26.5,6,35.9,6c7.8,0,15.2-2,22.1-6
			c7-4,11.6-6,13.8-6c6.4,0,8.6,6.5,6.6,19.4c-2.4,15.6-8.7,30.1-18.8,43.7c-9.8,13-19.9,19.5-30.5,19.7c-9.8,0-19.9-1.9-30.4-5.7
			s-19.4-7.9-26.9-12.3c-7.5-4.4-16.2-8.5-26-12.3c-9.9-3.8-19.3-5.7-28.3-5.7c-5.6,0-10.3,2-14.2,6.1s-5.8,9-5.8,14.8
			c0,4.4,1.1,8.5,3.4,12.3c2.3,3.8,5.1,7,8.5,9.6s8.1,5,14.1,7.2s11.5,3.9,16.6,5.2c5.1,1.3,11.6,2.5,19.4,3.7
			c7.9,1.2,14.4,2,19.6,2.5s11.9,1.1,20,1.9c25.3,2.4,45.7,11.3,61.2,26.6c15.5,15.4,23.2,34.5,23.2,57.4c0,14-2.3,27.4-7,40.4
			s-11.6,25-20.8,36.2c-9.2,11.2-21.6,20.1-37.2,26.9c-15.7,6.8-33.5,10.2-53.4,10.2C1021.5,984.2,1000,977.2,981.5,963.4z"/>
	</g>
</g>
</svg>
