<?xml version="1.0" encoding="utf-8"?>
<!-- Generator: Adobe Illustrator 22.0.0, SVG Export Plug-In . SVG Version: 6.00 Build 0)  -->
<svg version="1.1" id="Layer_1" xmlns="http://www.w3.org/2000/svg" xmlns:xlink="http://www.w3.org/1999/xlink" x="0px" y="0px"
	 viewBox="0 0 1200 1200" style="enable-background:new 0 0 1200 1200;" xml:space="preserve">
<style type="text/css">
	.st0{fill:#D7E5F4;}
</style>
<rect width="1200" height="1200"/>
<circle cx="600" cy="600" r="464"/>
<g>
	<path class="st0" d="M78,514.9h36c-1.5,5.4-0.5,13.6,2.4,21.7l42.8,115.6c22.1-43.8,35.5-94.6,32.4-137.2h30.2
		c-7.1,10.2-12.4,28.7-18.7,45.5c-13.1,34.1-30.9,74-43.8,99v25.8H141L78,514.9z"/>
	<path class="st0" d="M237.3,685.1c6.3-8.3,10-24.8,10-50.4v-69.6c0-25.5-3.6-42.1-10-50.4h47.2c-6.3,8.3-10,24.8-10,50.4v69.6
		c0,25.5,3.6,42.1,10,50.4H237.3z"/>
	<path class="st0" d="M301.6,685.1c6.3-8.3,11.2-24.8,11.2-50.4v-69.6c0-25.5-4.9-42.1-11.2-50.4h48.7c-5.4,5.4-10,13.9-12.4,27.7
		c-7.3,44.3-13.6,93.2-21.4,130.9c10.5-38.7,24.1-68.8,40.4-92.9c19.9-29.4,34.5-47,37.7-65.7h43.8c-11.2,4.6-36.2,21.4-58.6,45.7
		l30.2,64.7c9.2,19.9,21.4,43.3,31.9,59.8h-44.3c0-10.5-8-37.2-16.3-54.7l-21.9-46.7c-11.4,17.8-18.5,34.5-18.5,56.2
		c0,19.5,5.8,35,11.4,45.2H301.6z"/>
	<path class="st0" d="M457.8,685.1c6.3-8.3,10-24.8,10-50.4v-69.6c0-25.5-3.6-42.1-10-50.4H505c-6.3,8.3-10,24.8-10,50.4v69.6
		c0,25.5,3.6,42.1,10,50.4H457.8z"/>
	<path class="st0" d="M521,613.9h0.5c17.3,43.8,42.1,68.4,72,69.1c16.3,0.5,31.9-8.5,31.9-26.8c0-21.9-24.3-33.6-49.6-46.5
		c-24.6-12.4-49.1-25.3-49.1-54c0-28,25.5-42.8,56-42.8c24.1,0,38.9,4.4,49.4,9.2l5.4,49.1h-0.5c-15.6-31.6-39.9-54.7-62.5-54.7
		c-14.8,0-30.7,9-30.2,25.8c0.2,16.5,16.1,25.3,44.8,39.2c33.3,16.1,55,31.4,55,59.6c0,27.2-22.9,46-57.4,46
		c-28.5,0-48.7-4.9-61.3-10L521,613.9z"/>
	<path class="st0" d="M660.4,685.1c6.3-8.3,11.2-24.8,11.2-50.4v-69.6c0-25.5-4.9-42.1-11.2-50.4H764l1.5,33.1H765
		c-9.7-16.1-27-30.4-45.7-30.4c-12.4,0-21.4,7.8-21.4,22.4c0,15.8,10.2,29.9,38.4,29.9h17.5v29.4h-0.2
		c-16.5-15.8-28.7-26.3-40.4-30.9c-4.9-2.2-10-3.2-14.4-3.4v117c26.3-2.9,61.1-15.3,74-32.1l-1,35.3H660.4z"/>
	<path class="st0" d="M782.5,514.9h36c-1.5,5.4-0.5,13.6,2.4,21.7l42.8,115.6c8.8-17.5,16.5-36.5,22.1-56l-30.2-81.3h36
		c-1.5,5.4-0.5,13.6,2.4,21.7L937,652.1c22.1-43.8,35.5-94.6,32.4-137.2h30.2c-7.1,10.2-12.4,28.7-18.7,45.5
		c-13.1,34.1-30.9,74-43.8,99v25.8h-18.2l-29.7-80.3c-8.8,20.4-18,40.4-25.3,54.5v25.8h-18.2L782.5,514.9z"/>
	<path class="st0" d="M999.1,613.9h0.5c17.3,43.8,42.1,68.4,72,69.1c16.3,0.5,31.9-8.5,31.9-26.8c0-21.9-24.3-33.6-49.6-46.5
		c-24.6-12.4-49.1-25.3-49.1-54c0-28,25.5-42.8,56-42.8c24.1,0,38.9,4.4,49.4,9.2l5.4,49.1h-0.5c-15.6-31.6-39.9-54.7-62.5-54.7
		c-14.8,0-30.7,9-30.2,25.8c0.2,16.5,16.1,25.3,44.8,39.2c33.3,16.1,55,31.4,55,59.6c0,27.2-22.9,46-57.4,46
		c-28.5,0-48.7-4.9-61.3-10L999.1,613.9z"/>
</g>
</svg>
