<?xml version="1.0" encoding="utf-8"?>
<!-- Generator: Adobe Illustrator 22.0.0, SVG Export Plug-In . SVG Version: 6.00 Build 0)  -->
<svg version="1.1" id="Layer_1" xmlns="http://www.w3.org/2000/svg" xmlns:xlink="http://www.w3.org/1999/xlink" x="0px" y="0px"
	 viewBox="0 0 1200 1200" style="enable-background:new 0 0 1200 1200;" xml:space="preserve">
<style type="text/css">
	.st0{fill:#151515;}
	.st1{fill:#FFFFFF;}
</style>
<rect class="st0" width="1200" height="1200"/>
<g>
	<path class="st1" d="M62,514.4h35.5c-1.4,5.3-0.5,13.4,2.4,21.4l42.2,114c21.8-43.2,35-93.3,31.9-135.3h29.8
		c-7,10.1-12.2,28.3-18.5,44.9c-13,33.6-30.5,72.9-43.2,97.7v25.4h-18L62,514.4z"/>
	<path class="st1" d="M216,682.3c6.2-8.2,9.8-24.5,9.8-49.7V564c0-25.2-3.6-41.5-9.8-49.7h46.5c-6.2,8.2-9.8,24.5-9.8,49.7v68.6
		c0,25.2,3.6,41.5,9.8,49.7H216z"/>
	<path class="st1" d="M276.1,682.3c6.2-8.2,11-24.5,11-49.7V564c0-25.2-4.8-41.5-11-49.7h48c-5.3,5.3-9.8,13.7-12.2,27.4
		c-7.2,43.7-13.4,91.9-21.1,129.1c10.3-38.2,23.8-67.9,39.8-91.7c19.7-29,34.1-46.3,37.2-64.8H411c-11,4.6-35.8,21.1-57.8,45.1
		l29.8,63.8c9.1,19.7,21.1,42.7,31.4,59h-43.7c0-10.3-7.9-36.7-16.1-54L333,582.3c-11.3,17.5-18.2,34.1-18.2,55.4
		c0,19.2,5.8,34.6,11.3,44.6H276.1z"/>
	<path class="st1" d="M427,682.3c6.2-8.2,9.8-24.5,9.8-49.7V564c0-25.2-3.6-41.5-9.8-49.7h46.5c-6.2,8.2-9.8,24.5-9.8,49.7v68.6
		c0,25.2,3.6,41.5,9.8,49.7H427z"/>
	<path class="st1" d="M486.1,612h0.5c17,43.2,41.5,67.4,71,68.1c16.1,0.5,31.4-8.4,31.4-26.4c0-21.6-24-33.1-48.9-45.8
		c-24.2-12.2-48.5-25-48.5-53.3c0-27.6,25.2-42.2,55.2-42.2c23.8,0,38.4,4.3,48.7,9.1l5.3,48.5h-0.5c-15.4-31.2-39.4-54-61.7-54
		c-14.6,0-30.2,8.9-29.8,25.4c0.2,16.3,15.8,25,44.2,38.6c32.9,15.8,54.2,31,54.2,58.8c0,26.9-22.6,45.3-56.6,45.3
		c-28.1,0-48-4.8-60.5-9.8L486.1,612z"/>
	<path class="st1" d="M706.8,512.4c28.3,0,46.1,9.6,46.1,25.2c0,13-14.2,25.4-29.3,37c-22.3,16.6-37.7,28.8-44.4,45.6
		c3.6-4.8,10.1-9.4,18.7-13.4c35.3-18.2,84.7-30.5,124.3-62.1V576l-43.9,10.8c1.2,9.1,1.7,16.6,1.7,22.6c0,44.4-31.7,73.9-75.6,74.9
		c-48.2,0.7-86.1-38.4-86.1-85.2C618.2,549.4,658.1,512.4,706.8,512.4z M677.3,651.6c-7.2-13.2-4.3-28.1,3.6-40.3
		c7.7-13.2,18.7-26.6,29.5-39.4c8.2-10.3,14.6-21.6,14.6-32.2c0-10.1-6.7-22.6-30-22.6c-32.6,0-51.8,29-51.8,64.5
		C643.2,610.1,656.9,636,677.3,651.6z M686.6,657.6c8.2,5.3,20.6,9.6,35.5,9.6c28.3,0,54.2-23.8,54.5-51.8c0-8.9-2.4-19-8.2-26.4
		c-19.9,4.8-37.2,8.2-49.9,12.7c-19.9,6.7-39.1,15.8-41.8,30.2C675.1,641.8,679.4,652.3,686.6,657.6z"/>
	<path class="st1" d="M781.4,514.4h35.5c-1.4,5.3-0.5,13.4,2.4,21.4l42.2,114c8.6-17.3,16.3-36,21.8-55.2l-29.8-80.1h35.5
		c-1.4,5.3-0.5,13.4,2.4,21.4l42.2,114c21.8-43.2,35-93.3,31.9-135.3h29.8c-7,10.1-12.2,28.3-18.5,44.9
		c-13,33.6-30.5,72.9-43.2,97.7v25.4h-18l-29.3-79.2c-8.6,20.2-17.8,39.8-25,53.7v25.4h-18L781.4,514.4z"/>
	<path class="st1" d="M991.8,612h0.5c17,43.2,41.5,67.4,71,68.1c16.1,0.5,31.4-8.4,31.4-26.4c0-21.6-24-33.1-49-45.8
		c-24.2-12.2-48.5-25-48.5-53.3c0-27.6,25.2-42.2,55.2-42.2c23.8,0,38.4,4.3,48.7,9.1l5.3,48.5h-0.5c-15.4-31.2-39.4-54-61.7-54
		c-14.6,0-30.2,8.9-29.8,25.4c0.2,16.3,15.8,25,44.2,38.6c32.9,15.8,54.2,31,54.2,58.8c0,26.9-22.6,45.3-56.6,45.3
		c-28.1,0-48-4.8-60.5-9.8L991.8,612z"/>
</g>
</svg>
