<?xml version="1.0" encoding="utf-8"?>
<!-- Generator: Adobe Illustrator 22.0.0, SVG Export Plug-In . SVG Version: 6.00 Build 0)  -->
<svg version="1.1" id="Layer_2" xmlns="http://www.w3.org/2000/svg" xmlns:xlink="http://www.w3.org/1999/xlink" x="0px" y="0px"
	 viewBox="0 0 1200 1200" style="enable-background:new 0 0 1200 1200;" xml:space="preserve">
<style type="text/css">
	.st0{fill:#F1EC9B;}
	.st1{fill:#201F24;}
	.st2{fill:#FFFFFF;}
</style>
<rect class="st0" width="1200" height="1200"/>
<circle class="st1" cx="600" cy="600" r="250"/>
<g>
	<path class="st2" d="M367.2,564.5h9.3l21.7,60.5l21.6-60.5h9.1l-25.5,70.9h-10.6L367.2,564.5z"/>
	<path class="st2" d="M438.7,564.5h8.8v70.9h-8.8V564.5z"/>
	<path class="st2" d="M463.2,564.5h8.8v40.2l35.8-40.2h10.7l-25.9,29.9l28,41H510l-23.9-34.3L472.1,617v18.4h-8.8V564.5z"/>
	<path class="st2" d="M529.9,564.5h8.8v70.9h-8.8V564.5z"/>
	<path class="st2" d="M560.7,612.3c0.7,9.5,8.1,15.8,18.9,15.8c9.5,0,16.3-4.4,16.3-12.1c0-8.8-8.7-10.6-19.5-12.5
		c-11.4-1.9-23.2-5.7-23.2-19.5c0-12.1,9.8-20.2,24.2-20.2c15.8,0,25.5,8.8,26.3,21.6h-9.1c-1-8.2-7.6-13.6-17.2-13.6
		c-9.2,0-15.4,4.1-15.4,11.7c0,8.5,8.6,10.2,19.3,12.1c11.6,1.9,23.4,5.8,23.4,19.6c0,12.3-10.3,20.9-25.2,20.9
		c-17.3,0-27.5-9.8-28-23.8H560.7z"/>
	<path class="st2" d="M616.9,564.5h45.2v8.1h-36.4v22.7H656v8.1h-30.3v23.9h37.7v8.1h-46.5V564.5z"/>
	<path class="st2" d="M788.8,612.3c0.7,9.5,8.1,15.8,18.9,15.8c9.5,0,16.3-4.4,16.3-12.1c0-8.8-8.7-10.6-19.5-12.5
		c-11.4-1.9-23.2-5.7-23.2-19.5c0-12.1,9.8-20.2,24.2-20.2c15.8,0,25.5,8.8,26.3,21.6h-9.1c-1-8.2-7.6-13.6-17.2-13.6
		c-9.2,0-15.4,4.1-15.4,11.7c0,8.5,8.6,10.2,19.3,12.1c11.5,1.9,23.4,5.8,23.4,19.6c0,12.3-10.3,20.9-25.2,20.9
		c-17.3,0-27.5-9.8-28-23.8H788.8z"/>
	<g>
		<path class="st2" d="M750.4,636c-10.5,0-19-8.5-19-19v-33.5c0-5.2-4.3-9.5-9.5-9.5s-9.5,4.3-9.5,9.5V617c0,10.5-8.5,19-19,19
			s-19-8.5-19-19v-52.5h9V617c0,5.5,4.5,10,10,10s10-4.5,10-10v-33.5c0-10.2,8.3-18.5,18.5-18.5s18.5,8.3,18.5,18.5V617
			c0,5.5,4.5,10,10,10s10-4.5,10-10v-52.5h9V617C769.4,627.5,760.9,636,750.4,636z"/>
	</g>
</g>
</svg>
