<?xml version="1.0" encoding="utf-8"?>
<!-- Generator: Adobe Illustrator 22.0.0, SVG Export Plug-In . SVG Version: 6.00 Build 0)  -->
<svg version="1.1" id="Layer_1" xmlns="http://www.w3.org/2000/svg" xmlns:xlink="http://www.w3.org/1999/xlink" x="0px" y="0px"
	 viewBox="0 0 1200 1200" style="enable-background:new 0 0 1200 1200;" xml:space="preserve">
<style type="text/css">
	.st0{fill:#F9EAC5;}
</style>
<rect width="1200" height="1200"/>
<g>
	<path class="st0" d="M209.1,528.5c-3.4,3.9-5.2,9.1-5.2,15.6c0,5.3,1.3,15.7,3.9,31.2c2.6,15.5,6.1,30.7,10.6,45.7
		c4.5,15,8.8,22.5,12.9,22.5c6.6,0,9.9-7.4,9.9-22.2c0-6.4-1.1-13.3-3.4-20.7c-2.2-7.4-4.7-14-7.3-19.5c-2.6-5.6-5.1-11.8-7.3-18.7
		c-2.2-6.9-3.4-13.1-3.4-18.7c0-4.1,0.8-7.7,2.4-10.7c1.6-3,4.3-4.5,8.1-4.5h48.4c-1.8,1.5-3.6,3.9-5.2,7.2
		c-1.7,3.3-2.9,6.2-3.6,8.6c-0.8,2.4-2,6.4-3.7,11.9c-5.4,18.1-9.7,34-12.7,47.5c-3,13.5-6.5,31.3-10.5,53.4
		c-1.1,6.5-0.1,11.3,3.1,14.5h-63.4c3.2-3.1,4.3-8,3.1-14.5c-4-22-7.5-39.8-10.5-53.4c-3-13.5-7.2-29.4-12.7-47.5
		c-1.7-5.5-3-9.5-3.7-11.9c-0.8-2.4-2-5.3-3.6-8.6c-1.7-3.3-3.4-5.7-5.2-7.2H209.1z"/>
	<path class="st0" d="M292.2,654.7V545.3c0-7.9-1.7-13.5-5-16.9h47.9c-3.3,3.3-5,9-5,16.9v109.3c0,7.9,1.7,13.5,5,16.9h-47.9
		C290.6,668.2,292.2,662.6,292.2,654.7z"/>
	<path class="st0" d="M346.6,671.5c3.3-3.3,5-9,5-16.9V545.3c0-7.9-1.7-13.5-5-16.9h39.8c5.2,0,9,1.3,11.4,3.8
		c2.3,2.5,3.5,5.5,3.5,8.9c0,5.2-1.4,9.9-4.2,14.3c-2.8,4.4-6.2,8.1-10.2,11.2c-4,3.1-7.9,5.9-11.9,8.5c-4,2.6-7.4,5.3-10.2,8.1
		c-2.8,2.8-4.2,5.5-4.2,8.2c0,3,1.5,4.4,4.6,4.4c3,0,7.3-1.7,13.1-5.1c5.8-3.4,11.5-7.6,17.3-12.6c5.8-5,10.8-10.9,15.2-17.6
		c4.3-6.7,6.5-13,6.5-18.7c0-4.9-1.3-9.3-4-13.5h30.2c3,0,5.6,1.3,7.8,3.8c2.2,2.5,3.4,5.7,3.4,9.5c0,7.6-2.5,14.4-7.6,20.3
		c-5.1,5.9-11.2,10.6-18.4,14.1c-7.2,3.5-14.4,6.5-21.5,9.2c-7.2,2.6-13.3,5.1-18.3,7.5c-5.1,2.4-7.6,4.8-7.6,7.2
		c0,2.2,2.7,3.1,8.2,2.7c2.4-0.2,6.8-1.4,13.4-3.6c6.5-2.2,11.7-3.2,15.5-3.1c2.1,0,4,0.5,5.8,1.6c1.8,1,3.2,2.2,4.3,3.6
		c1.1,1.3,2.2,3.2,3.3,5.6c1.1,2.4,1.9,4.5,2.4,6.2c0.5,1.8,1.2,4.1,2.1,6.9c0.9,2.8,1.5,4.8,1.9,6.1c5.2,15.2,9.1,26,11.9,32.6
		c2.8,6.5,5.8,10.9,9.1,13.1h-30.8c-6.1,0-10.4-1-13-2.9c-2.5-2-4.5-5.4-5.9-10.4c-4.2-14.5-7.6-24.4-10.2-29.8
		c-3-6.1-6.7-11.3-11.2-15.5c-4.5-4.2-9.3-6.2-14.5-6.2c-4.5,0.1-7.8,1.2-9.9,3.4c-2.1,2.2-3.2,4.6-3.2,7.2c0,3.4,1.1,6.5,3.3,9.2
		c2.2,2.7,4.8,5,7.9,6.9c3.1,2,6.2,4,9.3,6.2s5.7,5.1,7.9,8.7c2.2,3.6,3.3,7.8,3.3,12.6c0,2.5-0.8,4.8-2.4,7.1
		c-1.6,2.2-3.3,3.4-5.2,3.4H346.6z"/>
	<path class="st0" d="M472.5,654.7V545.3c0-7.9-1.7-13.5-5-16.9h47.9c-3.3,3.3-5,9-5,16.9v109.3c0,7.9,1.7,13.5,5,16.9h-47.9
		C470.8,668.2,472.5,662.6,472.5,654.7z"/>
	<path class="st0" d="M538.7,663.7c-8.8-6.6-13.2-14.3-13.2-23c0-2.7,2.4-5.8,7.2-9.5c4.8-3.7,9.9-6.8,15.5-9.3
		c5.5-2.5,9.5-3.7,12-3.6c2.3,0.1,4.2,0.9,5.7,2.4s2,3.5,1.6,6.1c-0.4,2.9-0.7,5.1-0.9,6.8c-0.2,1.7-0.3,3.9-0.4,6.8
		c-0.1,2.9,0,5.2,0.4,6.9c0.3,1.7,0.9,3.7,1.7,5.9c0.8,2.2,1.9,3.9,3.3,5.1c1.4,1.2,3.2,2.2,5.6,3.1c2.3,0.9,5,1.3,8.1,1.3
		c5.6,0,10.5-1.9,14.7-5.6c4.2-3.7,6.2-8.3,6.2-13.7c0-6.7-2.4-12-7.2-16c-4.8-4-11.4-7.3-19.7-9.9c-4.9-1.5-8.8-2.8-11.9-3.9
		s-6.7-2.4-10.8-4.1c-4.1-1.7-7.4-3.3-9.9-4.9c-2.5-1.6-5.2-3.6-8-6c-2.8-2.4-5-4.9-6.6-7.6c-1.6-2.7-2.9-5.8-3.9-9.4
		c-1-3.6-1.5-7.5-1.5-11.7c0-12,4.4-22.3,13.1-30.8c8.7-8.5,19.1-12.7,31.1-12.7c3.5,0,8.8,1,15.7,2.9c7,1.9,12.7,2.9,17.2,2.9
		c3.7,0,7.2-1,10.6-2.9c3.3-1.9,5.5-2.9,6.6-2.9c3.1,0,4.1,3.1,3.1,9.3c-1.1,7.4-4.1,14.4-9,20.9c-4.7,6.2-9.5,9.3-14.6,9.4
		c-4.7,0-9.5-0.9-14.5-2.7c-5-1.8-9.3-3.8-12.9-5.9c-3.6-2.1-7.7-4.1-12.4-5.9c-4.7-1.8-9.2-2.7-13.5-2.7c-2.7,0-4.9,1-6.8,2.9
		c-1.9,2-2.8,4.3-2.8,7.1c0,2.1,0.5,4.1,1.6,5.9c1.1,1.8,2.5,3.3,4.1,4.6c1.6,1.2,3.9,2.4,6.7,3.4c2.9,1,5.5,1.9,7.9,2.5
		c2.4,0.6,5.5,1.2,9.3,1.8c3.8,0.6,6.9,1,9.4,1.2c2.5,0.2,5.7,0.5,9.6,0.9c12.1,1.1,21.9,5.4,29.3,12.7c7.4,7.3,11.1,16.5,11.1,27.5
		c0,6.7-1.1,13.1-3.4,19.3c-2.2,6.2-5.6,12-9.9,17.3c-4.4,5.3-10.3,9.6-17.8,12.9c-7.5,3.2-16,4.9-25.5,4.9
		C557.8,673.7,547.5,670.4,538.7,663.7z"/>
	<path class="st0" d="M638.2,573.5c2.1-8.5,5.3-16.4,9.4-23.5c4.2-7.2,9.6-12.9,16.4-17.2s14.4-6.4,22.9-6.4c3.5,0,8.8,1,15.7,2.9
		c7,1.9,12.7,2.9,17.2,2.9c3.7,0,7.3-1,10.6-2.9c3.3-1.9,5.5-2.9,6.6-2.9c1.3,0,2.3,0.6,2.9,1.9c0.6,1.3,0.8,3,0.6,5
		c-0.2,2.1-0.6,4.3-1.3,6.7c-0.7,2.4-1.5,4.8-2.6,7.2c-0.9,2-1.8,4-2.9,5.9c-1.1,1.9-2.5,3.9-4.2,6c-1.7,2.1-3.7,3.8-5.9,5.1
		c-2.2,1.3-4.6,1.9-6.9,1.9c-5.7,0-11.2-0.9-16.5-2.7c-5.2-1.8-9.5-3.8-12.8-5.9c-3.3-2.1-7.1-4.1-11.4-5.9
		c-4.3-1.8-8.6-2.7-12.7-2.7c-2.3,0-4.2,0.6-5.9,1.9c-1.6,1.3-2.8,2.9-3.6,4.9c-0.8,2-1.4,3.8-1.7,5.6c-0.3,1.8-0.5,3.4-0.5,4.9
		c0,0.1,0,1-0.1,2.6c0,1.7-0.1,3.1-0.1,4.4c0,1.2,0.1,2.6,0.2,4.2c0.1,1.6,0.4,2.8,0.9,3.7c0.4,0.9,1,1.4,1.8,1.4
		c1,0,2.4-0.6,4.1-1.9c1.7-1.2,3.9-2.5,6.6-3.7c2.7-1.2,5.9-1.9,9.7-1.9c5,0,11.7,2,20.1,5.9c8.4,3.9,14.4,5.9,17.8,5.9
		c2.6,0,4.8-0.9,6.8-2.8c2-1.9,3.2-2.8,3.6-2.8c2.4,0,3.6,2.7,3.6,8.2c0,2.6-0.5,5.2-1.4,7.9c-1,2.7-2.3,5.2-4.2,7.7
		c-1.8,2.5-4.4,4.5-7.7,6.1c-3.3,1.6-7,2.4-11.2,2.4c-3.9,0-7.7-0.9-11.4-2.6c-3.7-1.8-6.8-3.9-9.5-6.4c-2.7-2.5-5.2-5.1-7.7-7.7
		c-2.4-2.6-4.9-4.7-7.3-6.5c-2.4-1.8-4.7-2.6-6.9-2.6c-3.6,0-4.6,2.7-3,8c4.3,13.2,10.9,23.9,19.8,32.3c8.9,8.3,18.3,12.5,28.3,12.5
		c4.7,0,8.8-0.7,12.3-2.1c3.5-1.4,6.2-3.2,8.2-5.3c1.9-2.1,3.5-4.2,4.9-6.3c1.3-2.1,2.6-3.9,3.8-5.3c1.2-1.4,2.4-2.1,3.6-2.1
		c2.4,0,3.6,2.6,3.6,7.7c0,5-1.1,10.1-3.2,15.5c-2.1,5.4-5.2,10.4-9.1,15.2c-3.9,4.7-9,8.6-15.2,11.7c-6.2,3.1-12.9,4.6-20.2,4.6
		c-16.9,0-30.8-6.4-41.6-19.1C640.4,641.9,635,623.7,635,600C635,590.8,636,582,638.2,573.5z"/>
	<path class="st0" d="M755.2,544.3c-0.8-2.4-2-5.3-3.6-8.6c-1.7-3.3-3.4-5.7-5.2-7.2h59.1c-3.4,3.9-5.2,9.1-5.2,15.6
		c0,5.3,1.3,15.7,3.9,31.2c2.6,15.5,6.1,30.7,10.6,45.7c4.5,15,8.8,22.5,12.9,22.5c3.5,0,6.4-2.8,8.5-8.4c2.1-5.6,3.5-12.4,4.1-20.2
		c0.6-7.9,0.8-15.7,0.6-23.5c-0.2-7.8-0.8-14.1-1.7-19.1c-2.2-7.8-3.7-13.2-4.6-16c-1.7-5.5-3-9.5-3.7-11.9c-0.8-2.4-2-5.3-3.6-8.6
		c-1.7-3.3-3.4-5.7-5.2-7.2H881c-3.4,3.9-5.2,9.1-5.2,15.6c0,5.3,1.3,15.7,3.9,31.2c2.6,15.5,6.1,30.7,10.6,45.7
		c4.5,15,8.8,22.5,12.9,22.5c6.6,0,9.9-7.4,9.9-22.2c0-6.4-1.1-13.3-3.4-20.7c-2.2-7.4-4.7-14-7.3-19.5c-2.6-5.6-5.1-11.8-7.3-18.7
		c-2.2-6.9-3.4-13.1-3.4-18.7c0-4.1,0.8-7.7,2.4-10.7c1.6-3,4.3-4.5,8.1-4.5h48.4c-1.8,1.5-3.6,3.9-5.2,7.2
		c-1.7,3.3-2.9,6.2-3.6,8.6c-0.8,2.4-2,6.4-3.7,11.9c-5.4,18.1-9.7,34-12.7,47.5s-6.5,31.3-10.5,53.4c-1.1,6.5-0.1,11.3,3.1,14.5
		h-63.4c3.2-3.1,4.3-8,3.1-14.5c-3.7-20.7-6.8-36.5-9.2-47.5c-2.5,10.7-5.6,26.5-9.3,47.5c-1.1,6.5-0.1,11.3,3.1,14.5H779
		c3.2-3.1,4.3-8,3.1-14.5c-3.9-21.6-7.4-39.2-10.4-52.9s-7.3-29.7-12.7-48C757.2,550.7,756,546.7,755.2,544.3z"/>
	<path class="st0" d="M962.4,663.7c-8.8-6.6-13.2-14.3-13.2-23c0-2.7,2.4-5.8,7.2-9.5c4.8-3.7,9.9-6.8,15.5-9.3
		c5.5-2.5,9.5-3.7,12-3.6c2.3,0.1,4.2,0.9,5.7,2.4s2,3.5,1.6,6.1c-0.4,2.9-0.7,5.1-0.9,6.8c-0.2,1.7-0.3,3.9-0.4,6.8
		c-0.1,2.9,0,5.2,0.4,6.9c0.3,1.7,0.9,3.7,1.7,5.9c0.8,2.2,1.9,3.9,3.3,5.1c1.4,1.2,3.2,2.2,5.6,3.1c2.3,0.9,5,1.3,8.1,1.3
		c5.6,0,10.5-1.9,14.7-5.6c4.2-3.7,6.2-8.3,6.2-13.7c0-6.7-2.4-12-7.2-16c-4.8-4-11.4-7.3-19.7-9.9c-4.9-1.5-8.8-2.8-11.9-3.9
		s-6.7-2.4-10.8-4.1c-4.1-1.7-7.4-3.3-9.9-4.9c-2.5-1.6-5.2-3.6-8-6c-2.8-2.4-5-4.9-6.6-7.6s-2.9-5.8-3.9-9.4
		c-1-3.6-1.5-7.5-1.5-11.7c0-12,4.4-22.3,13.1-30.8c8.7-8.5,19.1-12.7,31.1-12.7c3.5,0,8.8,1,15.7,2.9c7,1.9,12.7,2.9,17.2,2.9
		c3.7,0,7.2-1,10.6-2.9c3.3-1.9,5.5-2.9,6.6-2.9c3.1,0,4.1,3.1,3.1,9.3c-1.1,7.4-4.2,14.4-9,20.9c-4.7,6.2-9.5,9.3-14.6,9.4
		c-4.7,0-9.5-0.9-14.5-2.7c-5-1.8-9.3-3.8-12.9-5.9c-3.6-2.1-7.7-4.1-12.4-5.9c-4.7-1.8-9.2-2.7-13.5-2.7c-2.7,0-4.9,1-6.8,2.9
		c-1.9,2-2.8,4.3-2.8,7.1c0,2.1,0.5,4.1,1.6,5.9c1.1,1.8,2.5,3.3,4.1,4.6c1.6,1.2,3.9,2.4,6.7,3.4c2.9,1,5.5,1.9,7.9,2.5
		c2.4,0.6,5.5,1.2,9.3,1.8c3.8,0.6,6.9,1,9.4,1.2c2.5,0.2,5.7,0.5,9.6,0.9c12.1,1.1,21.9,5.4,29.3,12.7c7.4,7.3,11.1,16.5,11.1,27.5
		c0,6.7-1.1,13.1-3.4,19.3c-2.2,6.2-5.6,12-9.9,17.3c-4.4,5.3-10.3,9.6-17.8,12.9c-7.5,3.2-16,4.9-25.5,4.9
		C981.5,673.7,971.2,670.4,962.4,663.7z"/>
</g>
</svg>
