<?xml version="1.0" encoding="utf-8"?>
<!-- Generator: Adobe Illustrator 22.0.0, SVG Export Plug-In . SVG Version: 6.00 Build 0)  -->
<svg version="1.1" id="Layer_1" xmlns="http://www.w3.org/2000/svg" xmlns:xlink="http://www.w3.org/1999/xlink" x="0px" y="0px"
	 viewBox="0 0 1200 1200" style="enable-background:new 0 0 1200 1200;" xml:space="preserve">
<style type="text/css">
	.st0{fill:#184221;}
	.st1{fill:#D2FFA5;}
</style>
<rect class="st0" width="1200" height="1200"/>
<circle class="st1" cx="600" cy="600" r="465"/>
<g>
	<g>
		<path class="st0" d="M345.5,288h99.9l96.2,245.6c-1.9-23.6-1.6-49.8,0.9-78.4c2.5-28.6,8.7-55.4,18.7-80.3
			c10-24.9,24.4-45.6,43.4-62.1c19-16.5,44-24.7,75.2-24.7h146.6c10,13.7,17.1,28.5,21.5,44.4c4.3,15.9,6.5,31.9,6.5,48.1
			c0,26.1-4.7,49.8-14,71c-9.3,21.2-21,41.1-35,59.8c-14,18.7-29.3,37.1-45.8,55.1c-16.5,18.1-31.8,37.3-45.8,57.9
			s-25.7,43.3-35,68.2c-9.3,24.9-14,53.6-14,85.9c0,10,0.9,22.6,2.8,37.8c1.9,15.3,4.3,30.8,7.5,46.7c3.1,15.9,6.8,31,11.2,45.3
			c4.3,14.3,9,25.5,14,33.6h-99.9L345.5,288z M565,498.1c0,28,2.2,54.6,6.5,79.8c4.3,25.2,10.3,49.8,17.7,73.8
			c7.5,24,16,47.9,25.7,71.9c9.6,24,19.4,48.7,29.4,74.2c-3.1-45.4,1.2-86.4,13.1-122.8c11.8-36.4,25.4-70,40.6-100.9
			c15.2-30.8,29.6-60.1,43-87.8c13.4-27.7,20.1-55.9,20.1-84.5c0-25.5-7-46.2-21-62.1C726.1,324,706,316,679.8,316
			c-23,0-42,6.1-57,18.2c-14.9,12.1-26.8,27.2-35.5,45.3c-8.7,18.1-14.6,37.8-17.7,59.3C566.5,460.3,565,480.1,565,498.1z"/>
	</g>
</g>
</svg>
