<?xml version="1.0" encoding="utf-8"?>
<!-- Generator: Adobe Illustrator 22.0.0, SVG Export Plug-In . SVG Version: 6.00 Build 0)  -->
<svg version="1.1" id="Layer_1" xmlns="http://www.w3.org/2000/svg" xmlns:xlink="http://www.w3.org/1999/xlink" x="0px" y="0px"
	 viewBox="0 0 1200 1200" style="enable-background:new 0 0 1200 1200;" xml:space="preserve">
<style type="text/css">
	.st0{fill:#FFFFFF;}
	.st1{fill:none;stroke:#000000;stroke-miterlimit:10;}
</style>
<rect class="st0" width="1200" height="1200"/>
<g>
	<g>
		<rect x="449.2" y="264.9" width="107.8" height="21.6"/>
		<rect x="449.2" y="308" width="107.8" height="21.6"/>
		<rect x="449.2" y="351.1" width="107.8" height="21.6"/>
	</g>
	<g>
		<rect x="178.2" y="264.9" width="107.8" height="35.9"/>
		<rect x="178.2" y="336.7" width="107.8" height="35.9"/>
	</g>
	<g>
		<rect x="232.1" y="564.1" transform="matrix(-1 -4.487711e-11 4.487711e-11 -1 518.0593 1182.0305)" width="53.9" height="53.9"/>
		<rect x="178.2" y="618" transform="matrix(-1 -4.484336e-11 4.484336e-11 -1 410.2426 1289.8473)" width="53.9" height="53.9"/>
	</g>
	<g>
		<rect x="492.3" y="607.2" transform="matrix(-1.836970e-16 1 -1 -1.836970e-16 1164.2108 71.7281)" width="107.8" height="21.6"/>
		
			<rect x="449.2" y="607.2" transform="matrix(-1.836970e-16 1 -1 -1.836970e-16 1121.0841 114.8547)" width="107.8" height="21.6"/>
		
			<rect x="406.1" y="607.2" transform="matrix(-1.836970e-16 1 -1 -1.836970e-16 1077.9575 157.9814)" width="107.8" height="21.6"/>
	</g>
	<path d="M535.5,863.3h-64.7h-21.6v21.6v64.7v21.6h21.6h64.7H557v-21.6v-64.7v-21.6H535.5z M535.5,949.5h-64.7v-64.7h64.7V949.5z"/>
	<polygon points="828.1,372.7 720.2,372.7 720.2,264.9 774.2,319.2 828.1,264.9 	"/>
	<polygon points="1057.4,605.7 1057.4,564.1 1032.9,564.1 1032.9,605.7 991.3,605.7 991.3,630.2 1032.9,630.2 1032.9,671.9 
		1057.4,671.9 1057.4,630.2 1099.1,630.2 1099.1,605.7 	"/>
	<g>
		<rect x="1057.4" y="264.9" width="41.7" height="41.7"/>
		<rect x="991.3" y="264.9" width="41.7" height="41.7"/>
		<rect x="991.3" y="331" width="41.7" height="41.7"/>
		<rect x="1057.4" y="331" width="41.7" height="41.7"/>
	</g>
	<polygon points="828.1,671.9 720.2,564.1 828.1,564.1 	"/>
	<g>
		<polygon points="991.3,971.1 991.3,863.3 1045.2,917.2 		"/>
		<polygon points="1099.1,863.3 1099.1,971.1 1045.2,917.2 		"/>
	</g>
	<g>
		<polygon points="774.2,971.1 720.2,917.2 774.2,917.2 		"/>
		<polygon points="774.2,863.3 828.1,917.2 774.2,917.2 		"/>
	</g>
	<rect x="190.1" y="875.2" transform="matrix(0.7071 0.7071 -0.7071 0.7071 716.504 104.528)" width="83.9" height="83.9"/>
	<line class="st1" x1="100" y1="223.5" x2="286" y2="223.5"/>
	<g>
		<path d="M100.1,236c0-4.6,2.5-7.8,6.1-7.8c3.6,0,6.1,3.3,6.1,7.8v0.7c0,4.8-2.5,7.8-6.1,7.8c-3.6,0-6.1-3-6.1-7.8V236z M110.4,236
			c0-3.8-1.7-6.1-4.2-6.1c-2.5,0-4.2,2.3-4.2,6.1v0.6c0,3.8,1.7,6.1,4.2,6.1c2.5,0,4.2-2.3,4.2-6.1V236z"/>
		<path d="M117.2,228.3h1.9v16.1h-1.9v-11.6c-0.2,0.2-0.6,0.3-1.1,0.3h-2.6v-1.7h2.6c0.8,0,1.1-0.6,1.1-1.4V228.3z"/>
	</g>
	<line class="st1" x1="371.3" y1="223.5" x2="557.3" y2="223.5"/>
	<g>
		<path d="M371.4,236c0-4.6,2.5-7.8,6.1-7.8c3.6,0,6.1,3.3,6.1,7.8v0.7c0,4.8-2.5,7.8-6.1,7.8c-3.6,0-6.1-3-6.1-7.8V236z M381.7,236
			c0-3.8-1.7-6.1-4.2-6.1c-2.5,0-4.2,2.3-4.2,6.1v0.6c0,3.8,1.7,6.1,4.2,6.1c2.5,0,4.2-2.3,4.2-6.1V236z"/>
		<path d="M385.2,242.8l6.3-5.4c1.5-1.3,2.7-2.5,2.7-4.3c0-2-1.4-3.2-3.5-3.2c-2.1,0-3.5,1.4-3.5,3.6v0.3h-1.9v-0.4
			c0-3,2.1-5.2,5.4-5.2c3.5,0,5.5,1.9,5.5,4.8c0,2.4-1.6,3.9-3.5,5.6l-4.8,4.1h8.4v1.8h-11.1V242.8z"/>
	</g>
	<line class="st1" x1="642.7" y1="223.5" x2="828.7" y2="223.5"/>
	<g>
		<path d="M642.8,236c0-4.6,2.5-7.8,6.1-7.8c3.6,0,6.1,3.3,6.1,7.8v0.7c0,4.8-2.5,7.8-6.1,7.8c-3.6,0-6.1-3-6.1-7.8V236z M653.1,236
			c0-3.8-1.7-6.1-4.2-6.1c-2.5,0-4.2,2.3-4.2,6.1v0.6c0,3.8,1.7,6.1,4.2,6.1c2.5,0,4.2-2.3,4.2-6.1V236z"/>
		<path d="M668.1,239.9c0,2.7-2.3,4.6-5.8,4.6s-5.8-1.9-5.8-5.1h1.9c0,2.1,1.7,3.4,4,3.4c2.1,0,3.7-1.2,3.7-3c0-1.7-1.4-2.8-3.9-2.8
			h-1.4v-1.7h1.3c2.4,0,3.6-1.2,3.6-2.8c0-1.6-1.5-2.7-3.4-2.7c-2,0-3.5,1.2-3.5,3.1h-1.9c0-2.8,2.2-4.8,5.4-4.8
			c3.3,0,5.4,1.7,5.4,4.3c0,2-1.1,3.2-2.6,3.6C666.6,236.3,668.1,237.5,668.1,239.9z"/>
	</g>
	<line class="st1" x1="914" y1="223.5" x2="1100" y2="223.5"/>
	<g>
		<path d="M914.1,236c0-4.6,2.5-7.8,6.1-7.8c3.6,0,6.1,3.3,6.1,7.8v0.7c0,4.8-2.5,7.8-6.1,7.8c-3.6,0-6.1-3-6.1-7.8V236z M924.4,236
			c0-3.8-1.7-6.1-4.2-6.1c-2.5,0-4.2,2.3-4.2,6.1v0.6c0,3.8,1.7,6.1,4.2,6.1c2.5,0,4.2-2.3,4.2-6.1V236z"/>
		<path d="M927.6,238.7l8.2-10.5h2.2v10.4h2.6v1.8H938v3.9h-1.9v-3.9h-8.5V238.7z M929.8,238.7h6.3v-8L929.8,238.7z"/>
	</g>
	<line class="st1" x1="100" y1="525.4" x2="286" y2="525.4"/>
	<g>
		<path d="M100.1,537.8c0-4.6,2.5-7.8,6.1-7.8c3.6,0,6.1,3.3,6.1,7.8v0.7c0,4.8-2.5,7.8-6.1,7.8c-3.6,0-6.1-3-6.1-7.8V537.8z
			 M110.4,537.9c0-3.8-1.7-6.1-4.2-6.1c-2.5,0-4.2,2.3-4.2,6.1v0.6c0,3.8,1.7,6.1,4.2,6.1c2.5,0,4.2-2.3,4.2-6.1V537.9z"/>
		<path d="M125.7,540.9c0,3.6-2.6,5.5-5.6,5.5c-3.6,0-5.7-2.3-5.8-5.1h1.9c0.2,1.9,1.6,3.4,3.9,3.4c1.9,0,3.7-1.3,3.7-3.8
			c0-2.2-1.4-3.7-3.6-3.7c-1,0-3,0.3-3.7,2.2l-1.9,0l0.5-9.2h9.7v1.8h-7.9l-0.4,5.1c1-1.2,2.4-1.5,3.9-1.5
			C123.5,535.5,125.7,537.7,125.7,540.9z"/>
	</g>
	<line class="st1" x1="371.3" y1="525.4" x2="557.3" y2="525.4"/>
	<g>
		<path d="M371.4,537.8c0-4.6,2.5-7.8,6.1-7.8c3.6,0,6.1,3.3,6.1,7.8v0.7c0,4.8-2.5,7.8-6.1,7.8c-3.6,0-6.1-3-6.1-7.8V537.8z
			 M381.7,537.9c0-3.8-1.7-6.1-4.2-6.1c-2.5,0-4.2,2.3-4.2,6.1v0.6c0,3.8,1.7,6.1,4.2,6.1c2.5,0,4.2-2.3,4.2-6.1V537.9z"/>
		<path d="M385.7,538.3c0-5.1,2.3-8.3,6.1-8.3c2.9,0,4.9,1.8,5.3,4.5h-1.9c-0.4-1.6-1.5-2.7-3.5-2.7c-2.8,0-4.4,2.6-4.4,6.2
			c0,0.2,0,0.4,0,0.8c0-0.1,0-0.2,0.1-0.4c0.7-1.6,2.3-2.7,4.5-2.7c3.2,0,5.4,2.1,5.4,5.4c0,3.1-2.3,5.4-5.6,5.4
			c-2.2,0-3.9-1-4.9-2.7C386.1,542.3,385.7,540.4,385.7,538.3z M391.9,537.3c-2.2,0-3.8,1.5-3.8,3.7c0,2.2,1.5,3.7,3.7,3.7
			c2.2,0,3.7-1.5,3.7-3.7C395.5,538.9,394.1,537.3,391.9,537.3z"/>
	</g>
	<line class="st1" x1="642.7" y1="525.4" x2="828.7" y2="525.4"/>
	<g>
		<path d="M642.8,537.8c0-4.6,2.5-7.8,6.1-7.8c3.6,0,6.1,3.3,6.1,7.8v0.7c0,4.8-2.5,7.8-6.1,7.8c-3.6,0-6.1-3-6.1-7.8V537.8z
			 M653.1,537.9c0-3.8-1.7-6.1-4.2-6.1c-2.5,0-4.2,2.3-4.2,6.1v0.6c0,3.8,1.7,6.1,4.2,6.1c2.5,0,4.2-2.3,4.2-6.1V537.9z"/>
		<path d="M655.8,530.1h11.4v1.4l-7.9,14.8h-2.1l7.9-14.4h-9.3V530.1z"/>
	</g>
	<line class="st1" x1="914" y1="525.4" x2="1100" y2="525.4"/>
	<g>
		<path d="M914.1,537.8c0-4.6,2.5-7.8,6.1-7.8c3.6,0,6.1,3.3,6.1,7.8v0.7c0,4.8-2.5,7.8-6.1,7.8c-3.6,0-6.1-3-6.1-7.8V537.8z
			 M924.4,537.9c0-3.8-1.7-6.1-4.2-6.1c-2.5,0-4.2,2.3-4.2,6.1v0.6c0,3.8,1.7,6.1,4.2,6.1c2.5,0,4.2-2.3,4.2-6.1V537.9z"/>
		<path d="M940,542c0,2.6-2.2,4.5-5.9,4.5s-5.9-1.9-5.9-4.5c0-2.2,1.4-3.6,3.2-4c-1.5-0.3-2.8-1.7-2.8-3.6c0-2.5,2.1-4.3,5.4-4.3
			s5.4,1.8,5.4,4.3c0,1.8-1.2,3.3-2.8,3.6C938.6,538.4,940,539.7,940,542z M938,541.8c0-1.7-1.6-2.9-3.9-2.9s-3.9,1.2-3.9,2.9
			c0,1.7,1.6,3,3.9,3C936.5,544.8,938,543.5,938,541.8z M934.2,536.9c2.1,0,3.4-1.1,3.4-2.7c0-1.6-1.4-2.6-3.4-2.6s-3.4,1.1-3.4,2.6
			C930.7,535.9,932.1,536.9,934.2,536.9z"/>
	</g>
	<line class="st1" x1="100" y1="821.9" x2="286" y2="821.9"/>
	<g>
		<path d="M100.1,834.3c0-4.6,2.5-7.8,6.1-7.8c3.6,0,6.1,3.3,6.1,7.8v0.7c0,4.8-2.5,7.8-6.1,7.8c-3.6,0-6.1-3-6.1-7.8V834.3z
			 M110.4,834.4c0-3.8-1.7-6.1-4.2-6.1c-2.5,0-4.2,2.3-4.2,6.1v0.6c0,3.8,1.7,6.1,4.2,6.1c2.5,0,4.2-2.3,4.2-6.1V834.4z"/>
		<path d="M114.5,838.5h1.9c0.4,1.6,1.5,2.7,3.5,2.7c2.8,0,4.4-2.6,4.4-6.2c0-0.2,0-0.4,0-0.8c0,0.1,0,0.2-0.1,0.4
			c-0.7,1.6-2.3,2.7-4.5,2.7c-3.2,0-5.4-2.1-5.4-5.4c0-3.1,2.3-5.4,5.6-5.4c2.2,0,3.9,1,4.9,2.7c0.8,1.4,1.3,3.3,1.3,5.5
			c0,5.1-2.3,8.3-6.1,8.3C116.9,842.9,114.9,841.2,114.5,838.5z M123.5,831.9c0-2.2-1.5-3.7-3.7-3.7c-2.2,0-3.7,1.5-3.7,3.7
			c0,2.1,1.4,3.7,3.6,3.7C122,835.6,123.5,834.1,123.5,831.9z"/>
	</g>
	<line class="st1" x1="371.3" y1="821.9" x2="557.3" y2="821.9"/>
	<g>
		<path d="M374.3,826.6h1.9v16.1h-1.9v-11.6c-0.2,0.2-0.6,0.3-1.1,0.3h-2.6v-1.7h2.6c0.8,0,1.1-0.6,1.1-1.4V826.6z"/>
		<path d="M378.8,834.3c0-4.6,2.5-7.8,6.1-7.8c3.6,0,6.1,3.3,6.1,7.8v0.7c0,4.8-2.5,7.8-6.1,7.8c-3.6,0-6.1-3-6.1-7.8V834.3z
			 M389.1,834.4c0-3.8-1.7-6.1-4.2-6.1c-2.5,0-4.2,2.3-4.2,6.1v0.6c0,3.8,1.7,6.1,4.2,6.1c2.5,0,4.2-2.3,4.2-6.1V834.4z"/>
	</g>
	<line class="st1" x1="642.7" y1="821.9" x2="828.7" y2="821.9"/>
	<g>
		<path d="M645.6,826.6h1.9v16.1h-1.9v-11.6c-0.2,0.2-0.6,0.3-1.1,0.3h-2.6v-1.7h2.6c0.8,0,1.1-0.6,1.1-1.4V826.6z"/>
		<path d="M653,826.6h1.9v16.1h-1.9v-11.6c-0.2,0.2-0.6,0.3-1.1,0.3h-2.6v-1.7h2.6c0.8,0,1.1-0.6,1.1-1.4V826.6z"/>
	</g>
	<line class="st1" x1="914" y1="821.9" x2="1100" y2="821.9"/>
	<g>
		<path d="M917,826.6h1.9v16.1h-1.9v-11.6c-0.2,0.2-0.6,0.3-1.1,0.3h-2.6v-1.7h2.6c0.8,0,1.1-0.6,1.1-1.4V826.6z"/>
		<path d="M921,841.1l6.3-5.4c1.5-1.3,2.7-2.5,2.7-4.3c0-2-1.4-3.2-3.5-3.2c-2.1,0-3.5,1.4-3.5,3.6v0.3h-1.9v-0.4
			c0-3,2.1-5.2,5.4-5.2c3.5,0,5.5,1.9,5.5,4.8c0,2.4-1.6,3.9-3.5,5.6l-4.8,4.1h8.4v1.8H921V841.1z"/>
	</g>
</g>
</svg>
