<?xml version="1.0" encoding="utf-8"?>
<!-- Generator: Adobe Illustrator 22.0.0, SVG Export Plug-In . SVG Version: 6.00 Build 0)  -->
<svg version="1.1" id="Layer_1" xmlns="http://www.w3.org/2000/svg" xmlns:xlink="http://www.w3.org/1999/xlink" x="0px" y="0px"
	 viewBox="0 0 1200 1200" style="enable-background:new 0 0 1200 1200;" xml:space="preserve">
<style type="text/css">
	.st0{fill:#FFFFFF;}
	.st1{fill:none;stroke:#000000;stroke-miterlimit:10;}
</style>
<rect class="st0" width="1200" height="1200"/>
<line class="st1" x1="958" y1="276" x2="1140" y2="276"/>
<line class="st1" x1="654.5" y1="520.5" x2="1140" y2="520.5"/>
<line class="st1" x1="487.5" y1="744.5" x2="1140" y2="744.5"/>
<line class="st1" x1="259.5" y1="914.5" x2="1140" y2="914.5"/>
<line class="st1" x1="168" y1="1060.5" x2="1140" y2="1060.5"/>
<g>
	<path d="M1084.9,265.4c-0.8,0-1.6-0.1-2.4-0.4s-1.5-0.8-2.2-1.5s-1.2-1.6-1.6-2.9s-0.6-2.7-0.6-4.5c0-1.7,0.2-3.3,0.5-4.6
		s0.8-2.5,1.4-3.4s1.4-1.6,2.2-2.1s1.9-0.7,3-0.7s2.1,0.2,2.9,0.7c0.9,0.4,1.6,1,2.1,1.8s0.9,1.7,1.1,2.7h-2.3
		c-0.2-0.9-0.6-1.6-1.3-2.2s-1.5-0.9-2.5-0.9c-1.5,0-2.7,0.7-3.6,2s-1.3,3.2-1.3,5.6h0.2c0.4-0.5,0.8-1,1.3-1.4s1-0.7,1.6-0.9
		s1.2-0.3,1.9-0.3c1.1,0,2.2,0.3,3.1,0.8c0.9,0.6,1.7,1.3,2.2,2.3s0.8,2.1,0.8,3.4c0,1.2-0.3,2.3-0.8,3.3s-1.3,1.8-2.3,2.4
		C1087.4,265.1,1086.2,265.4,1084.9,265.4z M1084.9,263.2c0.8,0,1.5-0.2,2.2-0.6c0.6-0.4,1.2-0.9,1.5-1.6c0.4-0.7,0.6-1.4,0.6-2.3
		c0-0.8-0.2-1.6-0.5-2.2c-0.4-0.7-0.9-1.2-1.5-1.6s-1.3-0.6-2.2-0.6s-1.5,0.2-2.2,0.6s-1.2,1-1.6,1.6c-0.4,0.7-0.6,1.4-0.6,2.2
		s0.2,1.5,0.6,2.2s0.9,1.2,1.5,1.6C1083.4,263,1084.1,263.2,1084.9,263.2z"/>
	<path d="M1100.3,265.4c-1.4,0-2.7-0.4-3.7-1.2s-1.8-1.9-2.3-3.4s-0.8-3.3-0.8-5.5c0-2.1,0.3-3.9,0.8-5.5c0.5-1.5,1.3-2.7,2.3-3.5
		s2.2-1.2,3.7-1.2s2.7,0.4,3.7,1.2s1.8,1.9,2.3,3.5c0.5,1.5,0.8,3.3,0.8,5.5c0,2.1-0.3,4-0.8,5.5s-1.3,2.6-2.3,3.4
		C1102.9,265,1101.7,265.4,1100.3,265.4z M1100.3,263.3c1,0,1.8-0.3,2.5-0.9s1.2-1.5,1.5-2.7c0.4-1.2,0.5-2.6,0.5-4.3
		s-0.2-3.1-0.5-4.3c-0.4-1.2-0.9-2.1-1.5-2.7s-1.5-0.9-2.5-0.9c-1.5,0-2.6,0.7-3.4,2.1s-1.2,3.4-1.2,5.9c0,1.7,0.2,3.1,0.5,4.3
		c0.4,1.2,0.9,2.1,1.6,2.7C1098.5,263,1099.3,263.3,1100.3,263.3z"/>
	<path d="M1109.8,265.1v-19.6h6.6c1.5,0,2.8,0.3,3.8,0.8c1,0.6,1.7,1.3,2.2,2.2s0.7,2,0.7,3.2s-0.2,2.2-0.7,3.2
		c-0.5,0.9-1.2,1.7-2.2,2.3s-2.2,0.8-3.8,0.8h-4.7v-2.1h4.7c1.1,0,1.9-0.2,2.5-0.5c0.6-0.4,1.1-0.9,1.4-1.5s0.4-1.3,0.4-2.1
		s-0.1-1.5-0.4-2.1s-0.8-1.1-1.4-1.5s-1.5-0.5-2.6-0.5h-4.2v17.5L1109.8,265.1L1109.8,265.1z"/>
	<path d="M1124.6,247.6v-2.1h14.7v2.1h-6.2v17.5h-2.4v-17.5H1124.6z"/>
</g>
<g>
	<path d="M1084.8,510.4c-1.3,0-2.4-0.2-3.4-0.6s-1.8-1-2.3-1.8c-0.6-0.8-0.9-1.7-0.9-2.7h2.4c0.1,0.6,0.3,1.2,0.7,1.6
		c0.4,0.5,0.9,0.8,1.5,1.1c0.6,0.2,1.3,0.4,2.1,0.4c0.8,0,1.6-0.1,2.2-0.4c0.7-0.3,1.2-0.7,1.5-1.2c0.4-0.5,0.6-1.1,0.6-1.8
		c0-0.7-0.2-1.4-0.5-1.9c-0.4-0.6-0.9-1-1.6-1.3s-1.5-0.5-2.5-0.5h-1.6V499h1.6c0.8,0,1.5-0.1,2-0.4c0.6-0.3,1-0.7,1.4-1.2
		s0.5-1.1,0.5-1.8c0-0.7-0.1-1.2-0.4-1.7s-0.7-0.9-1.2-1.1s-1.2-0.4-1.9-0.4c-0.7,0-1.3,0.1-1.9,0.4s-1.1,0.6-1.5,1.1
		s-0.6,1-0.6,1.7h-2.3c0-1,0.3-1.9,0.9-2.7s1.3-1.4,2.3-1.8c0.9-0.4,2-0.7,3.1-0.7c1.2,0,2.3,0.2,3.1,0.7c0.9,0.5,1.5,1.1,2,1.9
		s0.7,1.7,0.7,2.6c0,1.1-0.3,2.1-0.9,2.8c-0.6,0.8-1.4,1.3-2.4,1.6v0.2c1.2,0.2,2.2,0.7,2.9,1.6c0.7,0.8,1,1.9,1,3.1
		c0,1.1-0.3,2-0.9,2.9c-0.6,0.8-1.4,1.5-2.4,2C1087.2,510.1,1086.1,510.4,1084.8,510.4z"/>
	<path d="M1100.5,510.4c-0.8,0-1.6-0.1-2.4-0.4s-1.5-0.8-2.2-1.5s-1.2-1.6-1.6-2.9s-0.6-2.7-0.6-4.5c0-1.7,0.2-3.3,0.5-4.6
		c0.3-1.3,0.8-2.5,1.4-3.4s1.4-1.6,2.2-2.1s1.9-0.7,3-0.7s2.1,0.2,2.9,0.7c0.9,0.4,1.6,1,2.1,1.8s0.9,1.7,1.1,2.7h-2.3
		c-0.2-0.9-0.6-1.6-1.3-2.2s-1.5-0.9-2.5-0.9c-1.5,0-2.7,0.7-3.6,2s-1.3,3.2-1.3,5.6h0.2c0.4-0.5,0.8-1,1.3-1.4s1-0.7,1.6-0.9
		c0.6-0.2,1.2-0.3,1.9-0.3c1.1,0,2.2,0.3,3.1,0.8c0.9,0.6,1.7,1.3,2.2,2.3s0.8,2.1,0.8,3.4c0,1.2-0.3,2.3-0.8,3.3s-1.3,1.8-2.3,2.4
		C1103,510.1,1101.9,510.4,1100.5,510.4z M1100.5,508.2c0.8,0,1.5-0.2,2.2-0.6c0.6-0.4,1.2-0.9,1.5-1.6c0.4-0.7,0.6-1.4,0.6-2.3
		c0-0.8-0.2-1.6-0.5-2.2c-0.4-0.7-0.9-1.2-1.5-1.6s-1.3-0.6-2.2-0.6s-1.5,0.2-2.2,0.6s-1.2,1-1.6,1.6c-0.4,0.7-0.6,1.4-0.6,2.2
		s0.2,1.5,0.6,2.2s0.9,1.2,1.5,1.6C1099,508,1099.7,508.2,1100.5,508.2z"/>
	<path d="M1109.8,510.1v-19.6h6.6c1.5,0,2.8,0.3,3.8,0.8c1,0.6,1.7,1.3,2.2,2.2s0.7,2,0.7,3.2s-0.2,2.2-0.7,3.2
		c-0.5,0.9-1.2,1.7-2.2,2.3s-2.2,0.8-3.8,0.8h-4.7v-2.1h4.7c1.1,0,1.9-0.2,2.5-0.5c0.6-0.4,1.1-0.9,1.4-1.5s0.4-1.3,0.4-2.1
		c0-0.8-0.1-1.5-0.4-2.1s-0.8-1.1-1.4-1.5s-1.5-0.5-2.6-0.5h-4.2v17.5L1109.8,510.1L1109.8,510.1z"/>
	<path d="M1124.6,492.6v-2.1h14.7v2.1h-6.2v17.5h-2.4v-17.5H1124.6z"/>
</g>
<g>
	<path d="M1079.1,733.1v-1.7l6.5-7.1c0.8-0.8,1.4-1.5,1.9-2.2c0.5-0.6,0.9-1.2,1.1-1.7s0.4-1.1,0.4-1.7c0-0.7-0.2-1.3-0.5-1.8
		s-0.8-0.9-1.3-1.2c-0.6-0.3-1.2-0.4-1.9-0.4c-0.8,0-1.4,0.2-2,0.5s-1,0.7-1.3,1.3s-0.5,1.2-0.5,2h-2.3c0-1.2,0.3-2.2,0.8-3
		c0.5-0.9,1.3-1.5,2.2-2c0.9-0.5,1.9-0.7,3.1-0.7s2.2,0.2,3.1,0.7s1.6,1.1,2.1,2c0.5,0.8,0.8,1.7,0.8,2.8c0,0.7-0.1,1.4-0.4,2.1
		c-0.3,0.7-0.7,1.4-1.3,2.3c-0.6,0.8-1.5,1.9-2.6,3.1l-4.4,4.7v0.2h9.1v2.1h-12.6V733.1z"/>
	<path d="M1100.4,733.4c-1.3,0-2.5-0.2-3.5-0.7s-1.8-1.1-2.3-1.9s-0.8-1.8-0.8-2.8c0-0.8,0.2-1.6,0.5-2.3s0.8-1.3,1.4-1.8
		s1.2-0.8,1.9-0.9v-0.1c-0.9-0.2-1.7-0.8-2.2-1.6c-0.6-0.8-0.8-1.7-0.8-2.8c0-1,0.3-1.9,0.8-2.7s1.2-1.4,2.1-1.9s1.9-0.7,3.1-0.7
		c1.1,0,2.1,0.2,3,0.7s1.6,1.1,2.1,1.9c0.5,0.8,0.8,1.7,0.8,2.7s-0.3,2-0.8,2.8c-0.6,0.8-1.3,1.3-2.2,1.6v0.1
		c0.7,0.1,1.3,0.4,1.9,0.9s1,1.1,1.4,1.8c0.3,0.7,0.5,1.5,0.5,2.3c0,1.1-0.3,2-0.9,2.8s-1.4,1.5-2.4,1.9S1101.7,733.4,1100.4,733.4z
		 M1100.4,731.2c0.9,0,1.7-0.1,2.3-0.4c0.6-0.3,1.1-0.7,1.5-1.2s0.5-1.1,0.5-1.8s-0.2-1.4-0.6-2s-0.9-1-1.5-1.3
		c-0.7-0.3-1.4-0.5-2.2-0.5c-0.8,0-1.6,0.2-2.2,0.5c-0.7,0.3-1.2,0.8-1.5,1.3c-0.4,0.6-0.6,1.2-0.6,2c0,0.7,0.2,1.3,0.5,1.8
		c0.4,0.5,0.9,0.9,1.5,1.2C1098.8,731.1,1099.5,731.2,1100.4,731.2z M1100.4,721.9c0.7,0,1.3-0.1,1.9-0.4s1-0.7,1.3-1.2
		s0.5-1.1,0.5-1.8s-0.2-1.2-0.5-1.7s-0.7-0.9-1.3-1.1c-0.5-0.3-1.2-0.4-1.9-0.4c-0.7,0-1.4,0.1-1.9,0.4c-0.5,0.3-1,0.7-1.3,1.1
		c-0.3,0.5-0.5,1.1-0.5,1.7c0,0.7,0.2,1.3,0.5,1.8s0.7,0.9,1.3,1.2S1099.7,721.9,1100.4,721.9z"/>
	<path d="M1109.8,733.1v-19.6h6.6c1.5,0,2.8,0.3,3.8,0.8c1,0.6,1.7,1.3,2.2,2.2s0.7,2,0.7,3.2s-0.2,2.2-0.7,3.2
		c-0.5,0.9-1.2,1.7-2.2,2.3s-2.2,0.8-3.8,0.8h-4.7v-2.1h4.7c1.1,0,1.9-0.2,2.5-0.5c0.6-0.4,1.1-0.9,1.4-1.5s0.4-1.3,0.4-2.1
		s-0.1-1.5-0.4-2.1s-0.8-1.1-1.4-1.5s-1.5-0.5-2.6-0.5h-4.2v17.5h-2.3V733.1z"/>
	<path d="M1124.6,715.6v-2.1h14.7v2.1h-6.2v17.5h-2.4v-17.5H1124.6z"/>
</g>
<g>
	<path d="M1090.3,883.4V903h-2.3v-17h-0.1l-4.8,3.2v-2.4l4.9-3.3L1090.3,883.4L1090.3,883.4z"/>
	<path d="M1093,899.1v-2l8.6-13.7h1.4v3h-1l-6.5,10.3v0.2h11.6v2.1H1093V899.1z M1102.2,903.1v-4.6v-0.9v-14.1h2.3v19.6H1102.2z"/>
	<path d="M1109.8,903.1v-19.6h6.6c1.5,0,2.8,0.3,3.8,0.8c1,0.6,1.7,1.3,2.2,2.2s0.7,2,0.7,3.2s-0.2,2.2-0.7,3.2
		c-0.5,0.9-1.2,1.7-2.2,2.3s-2.2,0.8-3.8,0.8h-4.7v-2.1h4.7c1.1,0,1.9-0.2,2.5-0.5c0.6-0.4,1.1-0.9,1.4-1.5s0.4-1.3,0.4-2.1
		s-0.1-1.5-0.4-2.1s-0.8-1.1-1.4-1.5s-1.5-0.5-2.6-0.5h-4.2v17.5h-2.3V903.1z"/>
	<path d="M1124.6,885.6v-2.1h14.7v2.1h-6.2v17.5h-2.4v-17.5H1124.6z"/>
</g>
<g>
	<path d="M1100.4,1048.4c-1.3,0-2.5-0.2-3.5-0.7s-1.8-1.1-2.3-1.9s-0.8-1.8-0.8-2.8c0-0.8,0.2-1.6,0.5-2.3c0.3-0.7,0.8-1.3,1.4-1.8
		s1.2-0.8,1.9-0.9v-0.1c-0.9-0.2-1.7-0.8-2.2-1.6c-0.6-0.8-0.8-1.7-0.8-2.8c0-1,0.3-1.9,0.8-2.7s1.2-1.4,2.1-1.9s1.9-0.7,3.1-0.7
		c1.1,0,2.1,0.2,3,0.7s1.6,1.1,2.1,1.9s0.8,1.7,0.8,2.7s-0.3,2-0.8,2.8c-0.6,0.8-1.3,1.3-2.2,1.6v0.1c0.7,0.1,1.3,0.4,1.9,0.9
		s1,1.1,1.4,1.8c0.3,0.7,0.5,1.5,0.5,2.3c0,1.1-0.3,2-0.9,2.8s-1.4,1.5-2.4,1.9S1101.7,1048.4,1100.4,1048.4z M1100.4,1046.2
		c0.9,0,1.7-0.1,2.3-0.4c0.6-0.3,1.1-0.7,1.5-1.2s0.5-1.1,0.5-1.8c0-0.7-0.2-1.4-0.6-2s-0.9-1-1.5-1.3c-0.7-0.3-1.4-0.5-2.2-0.5
		c-0.8,0-1.6,0.2-2.2,0.5c-0.7,0.3-1.2,0.8-1.5,1.3c-0.4,0.6-0.6,1.2-0.6,2c0,0.7,0.2,1.3,0.5,1.8c0.4,0.5,0.9,0.9,1.5,1.2
		C1098.8,1046.1,1099.5,1046.2,1100.4,1046.2z M1100.4,1036.9c0.7,0,1.3-0.1,1.9-0.4s1-0.7,1.3-1.2s0.5-1.1,0.5-1.8
		c0-0.7-0.2-1.2-0.5-1.7s-0.7-0.9-1.3-1.1c-0.5-0.3-1.2-0.4-1.9-0.4c-0.7,0-1.4,0.1-1.9,0.4s-1,0.7-1.3,1.1
		c-0.3,0.5-0.5,1.1-0.5,1.7c0,0.7,0.2,1.3,0.5,1.8s0.7,0.9,1.3,1.2S1099.7,1036.9,1100.4,1036.9z"/>
	<path d="M1109.8,1048.1v-19.6h6.6c1.5,0,2.8,0.3,3.8,0.8c1,0.6,1.7,1.3,2.2,2.2c0.5,0.9,0.7,2,0.7,3.2s-0.2,2.2-0.7,3.2
		c-0.5,0.9-1.2,1.7-2.2,2.3s-2.2,0.8-3.8,0.8h-4.7v-2.1h4.7c1.1,0,1.9-0.2,2.5-0.5c0.6-0.4,1.1-0.9,1.4-1.5s0.4-1.3,0.4-2.1
		c0-0.8-0.1-1.5-0.4-2.1s-0.8-1.1-1.4-1.5s-1.5-0.5-2.6-0.5h-4.2v17.5h-2.3V1048.1z"/>
	<path d="M1124.6,1030.6v-2.1h14.7v2.1h-6.2v17.5h-2.4v-17.5H1124.6z"/>
</g>
<g>
	<path d="M58,141.6h17.8l41.4,115.4l41.2-115.4h17.4L127,276.8h-20.3L58,141.6z"/>
	<path d="M188.6,141.6h16.8v135.3h-16.8V141.6z"/>
	<path d="M229.8,141.6h16.8v76.7l68.2-76.7h20.5l-49.5,57l53.3,78.3h-20.1l-45.6-65.5l-26.9,30.3v35.2h-16.8V141.6z"/>
	<path d="M351.1,141.6h16.8v135.3h-16.8V141.6z"/>
	<path d="M404.3,232.6c1.4,18.2,15.5,30.1,36.1,30.1c18.2,0,31.1-8.3,31.1-23c0-16.8-16.6-20.3-37.1-23.8
		c-21.8-3.7-44.3-10.8-44.3-37.1c0-23,18.7-38.5,46.2-38.5c30.1,0,48.7,16.8,50.2,41.2h-17.4c-1.9-15.7-14.5-25.9-32.9-25.9
		c-17.6,0-29.4,7.7-29.4,22.2c0,16.2,16.4,19.5,36.7,23c22,3.7,44.6,11,44.6,37.3c0,23.4-19.7,39.8-48.1,39.8
		c-33,0-52.4-18.7-53.3-45.4H404.3z"/>
	<path d="M507.6,141.6h86.2V157h-69.4v43.3h57.8v15.5h-57.8v45.6h71.9v15.5h-88.7V141.6z"/>
	<path d="M823.9,232.6c1.4,18.2,15.5,30.1,36.1,30.1c18.2,0,31.1-8.3,31.1-23c0-16.8-16.6-20.3-37.1-23.8
		c-21.8-3.7-44.3-10.8-44.3-37.1c0-23,18.7-38.5,46.2-38.5c30.1,0,48.7,16.8,50.2,41.2h-17.4c-1.9-15.7-14.5-25.9-32.9-25.9
		c-17.6,0-29.4,7.7-29.4,22.2c0,16.2,16.4,19.5,36.7,23c22,3.7,44.6,11,44.6,37.3c0,23.4-19.7,39.8-48.1,39.8
		c-33,0-52.4-18.7-53.3-45.4H823.9z"/>
	<g>
		<path d="M756.5,277.9c-20,0-36.2-16.3-36.2-36.2v-63.9c0-10-8.1-18.1-18.1-18.1s-18.1,8.1-18.1,18.1v63.9
			c0,20-16.3,36.2-36.2,36.2s-36.2-16.3-36.2-36.2V141.6h17.2v100.1c0,10.5,8.6,19.1,19.1,19.1s19.1-8.6,19.1-19.1v-63.9
			c0-19.5,15.8-35.3,35.3-35.3s35.3,15.8,35.3,35.3v63.9c0,10.5,8.6,19.1,19.1,19.1s19.1-8.6,19.1-19.1V141.6h17.2v100.1
			C792.7,261.7,776.5,277.9,756.5,277.9z"/>
	</g>
</g>
<g>
	<path d="M58,433.7h11.5l26.8,74.8l26.7-74.8h11.3l-31.6,87.8H89.6L58,433.7z"/>
	<path d="M142.7,433.7h10.9v87.8h-10.9V433.7z"/>
	<path d="M169.4,433.7h10.9v49.8l44.3-49.8h13.3l-32.1,37l34.6,50.8h-13L197.8,479l-17.4,19.7v22.8h-10.9V433.7z"/>
	<path d="M248.2,433.7h10.9v87.8h-10.9V433.7z"/>
	<path d="M282.6,492.7c0.9,11.8,10,19.6,23.4,19.6c11.8,0,20.2-5.4,20.2-14.9c0-10.9-10.8-13.2-24.1-15.4
		c-14.2-2.4-28.7-7-28.7-24.1c0-14.9,12.2-24.9,30-24.9c19.6,0,31.6,10.9,32.6,26.7h-11.3c-1.3-10.2-9.4-16.8-21.3-16.8
		c-11.4,0-19.1,5-19.1,14.4c0,10.5,10.7,12.7,23.8,14.9c14.3,2.4,29,7.1,29,24.2c0,15.2-12.8,25.8-31.2,25.8
		c-21.4,0-34-12.2-34.6-29.5H282.6z"/>
	<path d="M349.7,433.7h55.9v10h-45v28.1h37.5v10h-37.5v29.6h46.6v10h-57.5V433.7z"/>
	<path d="M554.9,492.7c0.9,11.8,10,19.6,23.4,19.6c11.8,0,20.2-5.4,20.2-14.9c0-10.9-10.8-13.2-24.1-15.4
		c-14.2-2.4-28.7-7-28.7-24.1c0-14.9,12.2-24.9,30-24.9c19.6,0,31.6,10.9,32.6,26.7H597c-1.3-10.2-9.4-16.8-21.3-16.8
		c-11.4,0-19.1,5-19.1,14.4c0,10.5,10.7,12.7,23.8,14.9c14.3,2.4,29,7.1,29,24.2c0,15.2-12.8,25.8-31.2,25.8
		c-21.4,0-34-12.2-34.6-29.5H554.9z"/>
	<g>
		<path d="M511.1,522.2c-13,0-23.5-10.5-23.5-23.5v-41.4c0-6.5-5.3-11.8-11.8-11.8c-6.5,0-11.8,5.3-11.8,11.8v41.4
			c0,13-10.5,23.5-23.5,23.5s-23.5-10.5-23.5-23.5v-65h11.1v65c0,6.8,5.6,12.4,12.4,12.4s12.4-5.6,12.4-12.4v-41.4
			c0-12.6,10.3-22.9,22.9-22.9c12.6,0,22.9,10.3,22.9,22.9v41.4c0,6.8,5.6,12.4,12.4,12.4c6.8,0,12.4-5.6,12.4-12.4v-65h11.1v65
			C534.6,511.6,524.1,522.2,511.1,522.2z"/>
	</g>
</g>
<g>
	<path d="M58,683h8.2l19.1,53.2l19-53.2h8l-22.5,62.4h-9.4L58,683z"/>
	<path d="M118.2,683h7.8v62.4h-7.8V683z"/>
	<path d="M137.2,683h7.8v35.4l31.5-35.4h9.4l-22.8,26.3l24.6,36.1h-9.3l-21-30.2l-12.4,14v16.2h-7.8V683z"/>
	<path d="M193.2,683h7.8v62.4h-7.8V683z"/>
	<path d="M217.7,725c0.6,8.4,7.1,13.9,16.7,13.9c8.4,0,14.3-3.8,14.3-10.6c0-7.8-7.7-9.4-17.1-11c-10.1-1.7-20.4-5-20.4-17.1
		c0-10.6,8.6-17.7,21.3-17.7c13.9,0,22.5,7.8,23.2,19h-8c-0.9-7.2-6.7-11.9-15.2-11.9c-8.1,0-13.5,3.6-13.5,10.2
		c0,7.5,7.6,9,16.9,10.6c10.2,1.7,20.6,5.1,20.6,17.2c0,10.8-9.1,18.4-22.2,18.4c-15.2,0-24.2-8.6-24.6-20.9H217.7z"/>
	<path d="M265.4,683h39.7v7.1h-32v20h26.6v7.1h-26.6v21h33.2v7.1h-40.9V683z"/>
	<path d="M411.2,725c0.6,8.4,7.1,13.9,16.7,13.9c8.4,0,14.3-3.8,14.3-10.6c0-7.8-7.7-9.4-17.1-11c-10.1-1.7-20.4-5-20.4-17.1
		c0-10.6,8.6-17.7,21.3-17.7c13.9,0,22.5,7.8,23.2,19h-8c-0.9-7.2-6.7-11.9-15.2-11.9c-8.1,0-13.5,3.6-13.5,10.2
		c0,7.5,7.6,9,16.9,10.6c10.2,1.7,20.6,5.1,20.6,17.2c0,10.8-9.1,18.4-22.2,18.4c-15.2,0-24.2-8.6-24.6-20.9H411.2z"/>
	<g>
		<path d="M380.1,745.9c-9.2,0-16.7-7.5-16.7-16.7v-29.5c0-4.6-3.7-8.4-8.4-8.4c-4.6,0-8.4,3.7-8.4,8.4v29.5
			c0,9.2-7.5,16.7-16.7,16.7s-16.7-7.5-16.7-16.7V683h7.9v46.2c0,4.8,3.9,8.8,8.8,8.8s8.8-3.9,8.8-8.8v-29.5c0-9,7.3-16.3,16.3-16.3
			c9,0,16.3,7.3,16.3,16.3v29.5c0,4.8,3.9,8.8,8.8,8.8s8.8-3.9,8.8-8.8V683h7.9v46.2C396.8,738.4,389.3,745.9,380.1,745.9z"/>
	</g>
</g>
<g>
	<path d="M58,884.8h3.8l8.9,24.8l8.8-24.8h3.7l-10.4,29h-4.4L58,884.8z"/>
	<path d="M86,884.8h3.6v29H86V884.8z"/>
	<path d="M94.9,884.8h3.6v16.5l14.6-16.5h4.4l-10.6,12.2l11.4,16.8H114l-9.8-14.1l-5.8,6.5v7.5h-3.6V884.8z"/>
	<path d="M120.9,884.8h3.6v29h-3.6V884.8z"/>
	<path d="M132.3,904.4c0.3,3.9,3.3,6.5,7.8,6.5c3.9,0,6.7-1.8,6.7-4.9c0-3.6-3.6-4.4-8-5.1c-4.7-0.8-9.5-2.3-9.5-8
		c0-4.9,4-8.3,9.9-8.3c6.5,0,10.4,3.6,10.8,8.8h-3.7c-0.4-3.4-3.1-5.6-7-5.6c-3.8,0-6.3,1.7-6.3,4.8c0,3.5,3.5,4.2,7.9,4.9
		c4.7,0.8,9.6,2.4,9.6,8c0,5-4.2,8.5-10.3,8.5c-7.1,0-11.2-4-11.4-9.7H132.3z"/>
	<path d="M154.5,884.8H173v3.3h-14.9v9.3h12.4v3.3h-12.4v9.8h15.4v3.3h-19V884.8z"/>
	<path d="M222.4,904.4c0.3,3.9,3.3,6.5,7.8,6.5c3.9,0,6.7-1.8,6.7-4.9c0-3.6-3.6-4.4-8-5.1c-4.7-0.8-9.5-2.3-9.5-8
		c0-4.9,4-8.3,9.9-8.3c6.5,0,10.4,3.6,10.8,8.8h-3.7c-0.4-3.4-3.1-5.6-7-5.6c-3.8,0-6.3,1.7-6.3,4.8c0,3.5,3.5,4.2,7.9,4.9
		c4.7,0.8,9.6,2.4,9.6,8c0,5-4.2,8.5-10.3,8.5c-7.1,0-11.2-4-11.4-9.7H222.4z"/>
	<g>
		<path d="M207.9,914.1c-4.3,0-7.8-3.5-7.8-7.8v-13.7c0-2.1-1.7-3.9-3.9-3.9s-3.9,1.7-3.9,3.9v13.7c0,4.3-3.5,7.8-7.8,7.8
			c-4.3,0-7.8-3.5-7.8-7.8v-21.5h3.7v21.5c0,2.3,1.8,4.1,4.1,4.1c2.3,0,4.1-1.8,4.1-4.1v-13.7c0-4.2,3.4-7.6,7.6-7.6
			s7.6,3.4,7.6,7.6v13.7c0,2.3,1.8,4.1,4.1,4.1c2.3,0,4.1-1.8,4.1-4.1v-21.5h3.7v21.5C215.7,910.6,212.2,914.1,207.9,914.1z"/>
	</g>
</g>
<g>
	<path d="M58,1045.7h1.9l4.4,12.3l4.4-12.3h1.9l-5.2,14.4h-2.2L58,1045.7z"/>
	<path d="M71.9,1045.7h1.8v14.4h-1.8V1045.7z"/>
	<path d="M76.3,1045.7h1.8v8.2l7.3-8.2h2.2l-5.3,6.1l5.7,8.3h-2.1l-4.9-7l-2.9,3.2v3.7h-1.8V1045.7z"/>
	<path d="M89.2,1045.7H91v14.4h-1.8V1045.7z"/>
	<path d="M94.9,1055.4c0.1,1.9,1.6,3.2,3.8,3.2c1.9,0,3.3-0.9,3.3-2.4c0-1.8-1.8-2.2-3.9-2.5c-2.3-0.4-4.7-1.2-4.7-3.9
		c0-2.4,2-4.1,4.9-4.1c3.2,0,5.2,1.8,5.3,4.4h-1.9c-0.2-1.7-1.5-2.8-3.5-2.8c-1.9,0-3.1,0.8-3.1,2.4c0,1.7,1.7,2.1,3.9,2.4
		c2.3,0.4,4.8,1.2,4.8,4c0,2.5-2.1,4.2-5.1,4.2c-3.5,0-5.6-2-5.7-4.8H94.9z"/>
	<path d="M105.9,1045.7h9.2v1.6h-7.4v4.6h6.1v1.6h-6.1v4.9h7.7v1.6h-9.4V1045.7z"/>
	<path d="M139.5,1055.4c0.1,1.9,1.6,3.2,3.8,3.2c1.9,0,3.3-0.9,3.3-2.4c0-1.8-1.8-2.2-3.9-2.5c-2.3-0.4-4.7-1.2-4.7-3.9
		c0-2.4,2-4.1,4.9-4.1c3.2,0,5.2,1.8,5.3,4.4h-1.9c-0.2-1.7-1.5-2.8-3.5-2.8c-1.9,0-3.1,0.8-3.1,2.4c0,1.7,1.7,2.1,3.9,2.4
		c2.3,0.4,4.8,1.2,4.8,4c0,2.5-2.1,4.2-5.1,4.2c-3.5,0-5.6-2-5.7-4.8H139.5z"/>
	<g>
		<path d="M132.3,1060.2c-2.1,0-3.9-1.7-3.9-3.9v-6.8c0-1.1-0.9-1.9-1.9-1.9s-1.9,0.9-1.9,1.9v6.8c0,2.1-1.7,3.9-3.9,3.9
			c-2.1,0-3.9-1.7-3.9-3.9v-10.7h1.8v10.7c0,1.1,0.9,2,2,2c1.1,0,2-0.9,2-2v-6.8c0-2.1,1.7-3.8,3.8-3.8c2.1,0,3.8,1.7,3.8,3.8v6.8
			c0,1.1,0.9,2,2,2c1.1,0,2-0.9,2-2v-10.7h1.8v10.7C136.2,1058.5,134.5,1060.2,132.3,1060.2z"/>
	</g>
</g>
</svg>
