<?xml version="1.0" encoding="utf-8"?>
<!-- Generator: Adobe Illustrator 22.0.0, SVG Export Plug-In . SVG Version: 6.00 Build 0)  -->
<svg version="1.1" id="Layer_1" xmlns="http://www.w3.org/2000/svg" xmlns:xlink="http://www.w3.org/1999/xlink" x="0px" y="0px"
	 viewBox="0 0 1200 1200" style="enable-background:new 0 0 1200 1200;" xml:space="preserve">
<style type="text/css">
	.st0{fill:#F4EFC9;}
	.st1{fill:#151515;}
</style>
<rect class="st0" width="1200" height="1200"/>
<g>
	<path class="st1" d="M113,574h24c-1,3.6-0.3,9.1,1.6,14.5l28.6,77.2c14.8-29.2,23.7-63.2,21.6-91.6H209
		c-4.7,6.8-8.3,19.2-12.5,30.4c-8.8,22.7-20.6,49.4-29.2,66.1v17.2h-12.2L113,574z"/>
	<path class="st1" d="M217.2,687.7c4.2-5.5,6.7-16.6,6.7-33.6v-46.5c0-17.1-2.4-28.1-6.7-33.6h31.5c-4.2,5.5-6.7,16.6-6.7,33.6v46.5
		c0,17.1,2.4,28.1,6.7,33.6H217.2z"/>
	<path class="st1" d="M258,687.7c4.2-5.5,7.5-16.6,7.5-33.6v-46.5c0-17.1-3.2-28.1-7.5-33.6h32.5c-3.6,3.6-6.7,9.3-8.3,18.5
		c-4.9,29.6-9.1,62.2-14.3,87.4c7-25.8,16.1-46,27-62.1c13.3-19.7,23.1-31.4,25.2-43.9h29.2c-7.5,3.1-24.2,14.3-39.2,30.5l20.1,43.2
		c6.2,13.3,14.3,28.9,21.3,40H322c0-7-5.4-24.9-10.9-36.6l-14.6-31.2c-7.6,11.9-12.3,23.1-12.3,37.5c0,13,3.9,23.4,7.6,30.2H258z"/>
	<path class="st1" d="M360.1,687.7c4.2-5.5,6.7-16.6,6.7-33.6v-46.5c0-17.1-2.4-28.1-6.7-33.6h31.5c-4.2,5.5-6.7,16.6-6.7,33.6v46.5
		c0,17.1,2.4,28.1,6.7,33.6H360.1z"/>
	<path class="st1" d="M400.1,640.1h0.3c11.5,29.2,28.1,45.6,48.1,46.1c10.9,0.3,21.3-5.7,21.3-17.9c0-14.6-16.2-22.4-33.1-31
		c-16.4-8.3-32.8-16.9-32.8-36.1c0-18.7,17.1-28.6,37.4-28.6c16.1,0,26,2.9,33,6.2l3.6,32.8h-0.3c-10.4-21.1-26.6-36.5-41.7-36.5
		c-9.9,0-20.5,6-20.1,17.2c0.2,11,10.7,16.9,29.9,26.2c22.3,10.7,36.7,21,36.7,39.8c0,18.2-15.3,30.7-38.3,30.7
		c-19,0-32.5-3.2-40.9-6.7L400.1,640.1z"/>
	<path class="st1" d="M549.5,572.7c19.2,0,31.2,6.5,31.2,17.1c0,8.8-9.6,17.2-19.8,25c-15.1,11.2-25.5,19.5-30.1,30.9
		c2.4-3.2,6.8-6.3,12.7-9.1c23.9-12.3,57.3-20.6,84.1-42.1v21.3l-29.7,7.3c0.8,6.2,1.1,11.2,1.1,15.3c0,30.1-21.4,50-51.2,50.7
		c-32.7,0.5-58.3-26-58.3-57.7C489.6,597.7,516.5,572.7,549.5,572.7z M529.5,666.9c-4.9-8.9-2.9-19,2.4-27.3
		c5.2-8.9,12.7-18,20-26.6c5.5-7,9.9-14.6,9.9-21.8c0-6.8-4.5-15.3-20.3-15.3c-22.1,0-35.1,19.7-35.1,43.7
		C506.5,638.8,515.7,656.3,529.5,666.9z M535.9,671c5.5,3.6,14,6.5,24,6.5c19.2,0,36.7-16.1,36.9-35.1c0-6-1.6-12.8-5.5-17.9
		c-13.5,3.2-25.2,5.5-33.8,8.6c-13.5,4.5-26.5,10.7-28.3,20.5C528.1,660.2,531,667.4,535.9,671z"/>
	<path class="st1" d="M600,574h24c-1,3.6-0.3,9.1,1.6,14.5l28.6,77.2c5.8-11.7,11-24.4,14.8-37.4L648.9,574h24
		c-1,3.6-0.3,9.1,1.6,14.5l28.6,77.2c14.8-29.2,23.7-63.2,21.6-91.6h20.1c-4.7,6.8-8.3,19.2-12.5,30.4
		c-8.8,22.7-20.6,49.4-29.2,66.1v17.2H691l-19.8-53.6c-5.8,13.6-12,27-16.9,36.4v17.2h-12.2L600,574z"/>
	<path class="st1" d="M742.5,640.1h0.3c11.5,29.2,28.1,45.6,48.1,46.1c10.9,0.3,21.3-5.7,21.3-17.9c0-14.6-16.2-22.4-33.1-31
		c-16.4-8.3-32.8-16.9-32.8-36.1c0-18.7,17.1-28.6,37.4-28.6c16.1,0,26,2.9,33,6.2l3.6,32.8h-0.3c-10.4-21.1-26.6-36.5-41.7-36.5
		c-9.9,0-20.5,6-20.1,17.2c0.2,11,10.7,16.9,29.9,26.2c22.3,10.7,36.7,21,36.7,39.8c0,18.2-15.3,30.7-38.3,30.7
		c-19,0-32.5-3.2-40.9-6.7L742.5,640.1z"/>
</g>
<g>
	<g>
		<g>
			<path class="st1" d="M977.1,573.7v36.5c0,13.1,15.8,19.7,25.2,10.5l28.3-27.9c3.9-3.8,8.8-6.5,14.1-7.7l0,0l-12.6-8.4l-42.2,41.7
				c-0.7,0.7-1.8,0.2-1.8-0.7v-34.4c0-5.2,1.7-10.3,4.7-14.5h0L977.1,573.7z"/>
			<circle class="st1" cx="1005.1" cy="579.7" r="8.6"/>
		</g>
		<g>
			<path class="st1" d="M1025.3,687.9v-36.5c0-13.1-15.8-19.7-25.2-10.5l-28.3,27.9c-3.9,3.8-8.8,6.5-14.1,7.7l0,0l12.6,8.4
				l42.2-41.7c0.7-0.7,1.8-0.2,1.8,0.7v34.4c0,5.2-1.7,10.3-4.7,14.5l0,0L1025.3,687.9z"/>
			<circle class="st1" cx="997.2" cy="681.9" r="8.6"/>
		</g>
	</g>
	<g>
		<g>
			<path class="st1" d="M1058.3,606.7h-36.5c-13.1,0-19.7,15.8-10.5,25.2l27.9,28.3c3.8,3.9,6.5,8.8,7.7,14.1l0,0l8.4-12.6
				l-41.7-42.2c-0.7-0.7-0.2-1.8,0.7-1.8h34.4c5.2,0,10.3,1.7,14.5,4.7l0,0L1058.3,606.7z"/>
			<circle class="st1" cx="1052.3" cy="634.8" r="8.6"/>
		</g>
		<g>
			<path class="st1" d="M944.1,654.9h36.5c13.1,0,19.7-15.8,10.5-25.2l-27.9-28.3c-3.8-3.9-6.5-8.8-7.7-14.1l0,0l-8.4,12.6
				l41.7,42.2c0.7,0.7,0.2,1.8-0.7,1.8h-34.4c-5.2,0-10.3-1.7-14.5-4.7l0,0L944.1,654.9z"/>
			<circle class="st1" cx="950.1" cy="626.9" r="8.6"/>
		</g>
	</g>
</g>
</svg>
