<?xml version="1.0" encoding="utf-8"?>
<!-- Generator: Adobe Illustrator 22.0.0, SVG Export Plug-In . SVG Version: 6.00 Build 0)  -->
<svg version="1.1" id="Layer_1" xmlns="http://www.w3.org/2000/svg" xmlns:xlink="http://www.w3.org/1999/xlink" x="0px" y="0px"
	 viewBox="0 0 1200 1200" style="enable-background:new 0 0 1200 1200;" xml:space="preserve">
<style type="text/css">
	.st0{fill:#D1E8E7;}
</style>
<rect class="st0" width="1200" height="1200"/>
<g>
	<path d="M75.1,673.2L24.5,526.8H77l18,60.4c5.6,19.4,7.5,41.4,7.1,66.4h15c-0.6-25,1.5-47.8,6.9-66.4l18.2-60.4h50.2l-50,146.3
		H75.1z"/>
	<path d="M204.9,673.2V526.8h47v146.3H204.9z"/>
	<path d="M373.5,673.2l-37.4-59.8l-14,14.6v45.1h-44.9V526.8h44.9v11.7c0,22.4-12.8,35.3-25.7,47.5l10.7,10.5l60.6-69.6h56
		L368.9,585l60,88.2H373.5z"/>
	<path d="M437.3,673.2V526.8h47v146.3H437.3z"/>
	<path d="M500.2,632l46.8-10.2c2.1,12.3,10.5,21.9,26.1,21.9c14.8,0,20.7-5.6,20.7-13.2c0-6.5-4.8-11.5-16.1-12.8l-18.2-2.3
		c-36.2-4.4-52-17.8-52-45.4c0-27,25.1-46.8,65.6-46.8c38.9,0,62.7,16.1,68.4,41l-46.8,9.6c-2.9-10.2-10.5-18-23.2-18
		c-11.9,0-17.6,5.4-17.6,12.3c0,7.1,5,10.9,15.5,12.1l18.4,2.1c34.5,4,55,20.1,55,46.2c0,28.8-24.5,48.1-70.2,48.1
		C529,676.7,505.2,658.3,500.2,632z"/>
	<path d="M661.8,673.2V526.8h116v35.3h-71.1v20.7h56.2V615h-56.2v22.6h71.1v35.5H661.8z"/>
	<path d="M823.9,673.2l-37-146.3h52.2l5.9,28.6c4.6,23.2,4.4,63.3,4,91.7h15c-0.4-26.7-0.6-45.3,5.9-84.8l7.9-35.5h64.6l8.6,35.3
		c6.7,34.9,6.5,58.3,6.1,85h15c-0.2-28.3-0.8-67.8,3.1-90.2l6.1-30.1h50.9l-33.9,146.3h-65.9l-10-44.1c-4.4-22.6-4.6-50.2-4.2-77.9
		h-15c0.4,27.7,0.2,55.1-4.2,77.9l-10.2,44.1H823.9z"/>
	<path d="M1032.9,632l46.8-10.2c2.1,12.3,10.5,21.9,26.1,21.9c14.8,0,20.7-5.6,20.7-13.2c0-6.5-4.8-11.5-16.1-12.8l-18.2-2.3
		c-36.2-4.4-52-17.8-52-45.4c0-27,25.1-46.8,65.6-46.8c38.9,0,62.7,16.1,68.4,41l-46.8,9.6c-2.9-10.2-10.5-18-23.2-18
		c-11.9,0-17.6,5.4-17.6,12.3c0,7.1,5,10.9,15.5,12.1l18.4,2.1c34.5,4,55,20.1,55,46.2c0,28.8-24.5,48.1-70.2,48.1
		C1061.8,676.7,1038,658.3,1032.9,632z"/>
</g>
</svg>
