<?xml version="1.0" encoding="utf-8"?>
<!-- Generator: Adobe Illustrator 22.0.0, SVG Export Plug-In . SVG Version: 6.00 Build 0)  -->
<svg version="1.1" id="Layer_1" xmlns="http://www.w3.org/2000/svg" xmlns:xlink="http://www.w3.org/1999/xlink" x="0px" y="0px"
	 viewBox="0 0 1200 1200" style="enable-background:new 0 0 1200 1200;" xml:space="preserve">
<style type="text/css">
	.st0{fill:#E5D1E4;}
</style>
<rect width="1200" height="1200"/>
<circle class="st0" cx="600" cy="600" r="464"/>
<g>
	<path d="M207.8,654.7L170,545.3h39.2l13.4,45.1c4.2,14.5,5.6,30.9,5.3,49.6h11.2c-0.5-18.7,1.1-35.7,5.2-49.6l13.6-45.1h37.5
		l-37.3,109.3H207.8z"/>
	<path d="M304.8,654.7V545.3h35.1v109.3H304.8z"/>
	<path d="M430.8,654.7l-28-44.7l-10.5,10.9v33.7h-33.6V545.3h33.6v8.7c0,16.7-9.5,26.4-19.2,35.5l8,7.8l45.3-52h41.9l-40.9,43.4
		l44.8,65.9H430.8z"/>
	<path d="M478.4,654.7V545.3h35.1v109.3H478.4z"/>
	<path d="M525.4,623.9l35-7.7c1.6,9.2,7.8,16.4,19.5,16.4c11.1,0,15.5-4.2,15.5-9.8c0-4.8-3.6-8.6-12-9.5l-13.6-1.7
		c-27-3.3-38.9-13.3-38.9-33.9c0-20.1,18.7-35,49-35c29,0,46.9,12,51.1,30.6l-35,7.2c-2.2-7.7-7.8-13.4-17.3-13.4
		c-8.9,0-13.1,4.1-13.1,9.2c0,5.3,3.7,8.1,11.6,9.1l13.7,1.6c25.8,3,41.1,15,41.1,34.5c0,21.6-18.3,35.9-52.5,35.9
		C547,657.3,529.2,643.6,525.4,623.9z"/>
	<path d="M646.1,654.7V545.3h86.7v26.4h-53.1v15.5h42v24.1h-42v16.9h53.1v26.5H646.1z"/>
	<path d="M767.3,654.7l-27.6-109.3h39l4.4,21.4c3.4,17.3,3.3,47.3,3,68.5h11.2c-0.3-19.9-0.5-33.8,4.4-63.3l5.9-26.5h48.3l6.4,26.4
		c5,26.1,4.8,43.6,4.5,63.5h11.2c-0.2-21.2-0.6-50.7,2.3-67.4l4.5-22.5H923l-25.3,109.3h-49.3l-7.5-33c-3.3-16.9-3.4-37.5-3.1-58.2
		h-11.2c0.3,20.7,0.2,41.2-3.1,58.2l-7.7,33H767.3z"/>
	<path d="M923.5,623.9l35-7.7c1.6,9.2,7.8,16.4,19.5,16.4c11.1,0,15.5-4.2,15.5-9.8c0-4.8-3.6-8.6-12-9.5l-13.6-1.7
		c-27-3.3-38.9-13.3-38.9-33.9c0-20.1,18.7-35,49-35c29,0,46.9,12,51.1,30.6l-35,7.2c-2.2-7.7-7.8-13.4-17.3-13.4
		c-8.9,0-13.1,4.1-13.1,9.2c0,5.3,3.7,8.1,11.6,9.1l13.7,1.6c25.8,3,41.1,15,41.1,34.5c0,21.6-18.3,35.9-52.5,35.9
		C945,657.3,927.2,643.6,923.5,623.9z"/>
</g>
</svg>
