<?xml version="1.0" encoding="utf-8"?>
<!-- Generator: Adobe Illustrator 22.0.0, SVG Export Plug-In . SVG Version: 6.00 Build 0)  -->
<svg version="1.1" id="Layer_1" xmlns="http://www.w3.org/2000/svg" xmlns:xlink="http://www.w3.org/1999/xlink" x="0px" y="0px"
	 viewBox="0 0 2963 1377" style="enable-background:new 0 0 2963 1377;" xml:space="preserve">
<style type="text/css">
	.st0{fill:#F1EC9B;}
	.st1{fill:#D83928;}
	.st2{fill:#F4CBCA;}
	.st3{fill:#9EC4D6;}
	.st4{fill:#201F24;}
	.st5{fill:#FFFFFF;}
	.st6{opacity:0.35;fill:#201F24;}
	.st7{opacity:0.2;fill:#201F24;}
	.st8{opacity:0.1;fill:#201F24;}
	.st9{opacity:0.7;fill:#201F24;}
	.st10{opacity:0.55;fill:#201F24;}
	.st11{opacity:0.85;fill:#201F24;}
</style>
<rect y="897" class="st0" width="741.3" height="480"/>
<rect x="739.2" y="897" class="st1" width="741.3" height="480"/>
<rect x="1480.5" y="897" class="st2" width="741.3" height="480"/>
<rect x="2221.7" y="897" class="st3" width="741.3" height="480"/>
<rect x="1481.6" class="st4" width="1480.4" height="805"/>
<rect x="0" class="st5" width="1480.4" height="805"/>
<g>
	<path d="M62.2,243.9v-87.2h53.7v10H73v25.7h23.3c16.7,0,28,8.5,28,25.7c0,16.3-11.2,25.9-27.9,25.9H62.2z M73,234h22.4
		c11,0,17.8-6.1,17.8-15.8s-7-15.8-17.9-15.8H73V234z"/>
	<path d="M133,212.2c0-19.3,12.2-32.5,30.1-32.5s29.6,11.3,30.1,30.1c0,1.4-0.1,2.9-0.2,4.4h-49.3v0.9c0.4,12.1,8,20.6,20.1,20.6
		c9,0,15.9-4.7,18.1-13h10.3c-2.5,12.7-13,22-27.7,22C145.4,244.7,133,231.6,133,212.2z M182.3,205.7c-1-11-8.5-17.1-19.1-17.1
		c-9.3,0-17.9,6.7-18.9,17.1H182.3z"/>
	<path d="M196.4,243.9v-9.3h1.9c7.2,0,10-4.4,10-23.4v-30.8h48.1v63.5h-10.2v-54.2h-27.9v21.8c0,25.3-6,32.4-18.3,32.4H196.4z"/>
	<path d="M270.3,243.9v-63.5h10.2v20.7h16.2c15.8,0,24.9,7.8,24.9,21.4c0,13.5-9.1,21.4-24.9,21.4H270.3z M280.5,235.2H295
		c10.5,0,16.2-4.6,16.2-12.7c0-8.3-5.7-12.7-16.2-12.7h-14.6V235.2z M331.9,243.9v-63.5h10.2v63.5H331.9z"/>
	<path d="M356.1,243.9v-63.5h10v48.1l37.9-48.1h9v63.5h-10v-48.2l-37.9,48.2H356.1z M366.1,156.1h8.5c0,6.1,2.7,9.8,9.8,9.8
		s10.1-3.7,10.1-9.8h8.5c-0.2,10.5-6.6,17.1-18.7,17.1C372.3,173.2,366.3,166.6,366.1,156.1z"/>
</g>
<g>
	<path d="M62.2,68.2h8.5c5.1,0,8,2.5,8,6.4c0,2.8-1.5,4.4-3.8,5.2c2.5,0.5,4.8,2.1,4.8,5.6c0,4.3-3,6.9-8.7,6.9h-8.8V68.2z
		 M65.2,70.9v7.7h5.7c3.1,0,4.9-1.4,4.9-3.9c0-2.4-1.7-3.9-4.9-3.9H65.2z M65.2,81.4v8.2H71c3.7,0,5.7-1.5,5.7-4
		c0-2.7-2.1-4.2-5.7-4.2H65.2z"/>
	<path d="M82.5,83.5c0-5.3,3.4-9,8.3-9c5,0,8.2,3.1,8.3,8.3c0,0.4,0,0.8-0.1,1.2H85.4v0.2c0.1,3.3,2.2,5.7,5.5,5.7
		c2.5,0,4.4-1.3,5-3.6h2.9c-0.7,3.5-3.6,6.1-7.6,6.1C85.9,92.5,82.5,88.9,82.5,83.5z M96.1,81.7c-0.3-3-2.3-4.7-5.3-4.7
		c-2.6,0-5,1.9-5.2,4.7H96.1z"/>
	<path d="M117.4,89.7h2.8V97h-2.8v-4.6H103V97h-2.8v-7.2h1.8c1.3-1,2-2.2,2-7.6v-7.3h13.4V89.7z M114.5,89.7V77.3h-7.9v5.1
		c0,4-0.4,6-1.3,7.3H114.5z"/>
	<path d="M120.7,74.8h3l5.4,14l5.2-14h3l-8.1,20.5c-1.1,2.8-1.8,3.9-4.2,3.9h-3.4v-2.6h2.5c1.6,0,1.9-0.4,2.5-2.1l0.9-2.1
		L120.7,74.8z"/>
	<path d="M163.2,89.7h2.9V97h-2.8v-4.6h-23.9V74.8h2.8v15h7.6v-15h2.8v15h7.6v-15h2.8V89.7z"/>
	<path d="M168.4,92.3V74.8h2.8V88l10.5-13.3h2.5v17.6h-2.8V79l-10.5,13.3H168.4z"/>
	<path d="M188,92.3V74.8h2.8V88l10.5-13.3h2.5v17.6H201V79l-10.5,13.3H188z M190.8,68h2.3c0,1.7,0.8,2.7,2.7,2.7c2,0,2.8-1,2.8-2.7
		h2.3c-0.1,2.9-1.8,4.7-5.2,4.7C192.5,72.8,190.8,70.9,190.8,68z"/>
	<path d="M231.5,89.7h2.9V97h-2.8v-4.6h-15V74.8h2.8v15h9.2v-15h2.8V89.7z"/>
	<path d="M236.7,92.3V74.8h7.5c4.3,0,6.4,1.7,6.4,4.7c0,2.2-1.4,3.4-2.9,3.8c2,0.3,3.5,1.6,3.5,4c0,3.4-2.4,5.1-7,5.1H236.7z
		 M239.5,82.2h4.9c2.3,0,3.3-1,3.3-2.5c0-1.7-1-2.5-3.3-2.5h-4.9V82.2z M239.5,89.9h5.2c2.4,0,3.7-0.8,3.7-2.7
		c0-1.7-1.3-2.7-3.7-2.7h-5.2V89.9z"/>
	<path d="M253.8,83.5c0-5.3,3.4-9,8.3-9c5,0,8.2,3.1,8.3,8.3c0,0.4,0,0.8-0.1,1.2h-13.6v0.2c0.1,3.3,2.2,5.7,5.5,5.7
		c2.5,0,4.4-1.3,5-3.6h2.9c-0.7,3.5-3.6,6.1-7.6,6.1C257.2,92.5,253.8,88.9,253.8,83.5z M267.4,81.7c-0.3-3-2.3-4.7-5.3-4.7
		c-2.6,0-5,1.9-5.2,4.7H267.4z"/>
	<path d="M277.4,92.3v-15h-6.3v-2.6h15.5v2.6h-6.3v15H277.4z"/>
</g>
<g>
	<path class="st5" d="M1603.5,156.7h10.8v87.2h-10.8v-37.4c-6,3.6-14.1,5.7-23.4,5.7c-17.3,0-29.9-8.6-29.9-27.2v-28.4h10.8V183
		c0,13.5,8.1,19.3,20.2,19.3c9,0,16.4-2.4,22.3-6.5V156.7z"/>
	<path class="st5" d="M1627.6,212.2c0-19.3,12.2-32.5,30.1-32.5s29.6,11.3,30.1,30.1c0,1.4-0.1,2.9-0.2,4.4h-49.3v0.9
		c0.4,12.1,8,20.6,20.1,20.6c9,0,15.9-4.7,18.1-13h10.3c-2.5,12.7-13,22-27.7,22C1640,244.7,1627.6,231.6,1627.6,212.2z
		 M1676.9,205.7c-1-11-8.5-17.1-19.1-17.1c-9.3,0-17.9,6.7-18.9,17.1H1676.9z"/>
	<path class="st5" d="M1762.1,212.2c0,19.4-13,32.5-30.5,32.5c-10.7,0-17.9-4.4-21.8-10.5v34.6h-10.2v-88.4h8.8l1.4,10.2
		c4.2-5.9,11.1-11,21.8-11C1749.2,179.6,1762.1,191.5,1762.1,212.2z M1751.6,212.2c0-13.8-8.5-23.4-21.1-23.4
		c-12.5,0-20.9,9.6-20.9,23.2c0,14,8.5,23.7,20.9,23.7C1743.2,235.6,1751.6,226,1751.6,212.2z"/>
	<path class="st5" d="M1819.8,180.4h10.2v63.5h-10.2v-27.7H1784v27.7h-10.2v-63.5h10.2v26.5h35.8V180.4z"/>
	<path class="st5" d="M1844,243.9v-63.5h10.2v20.7h16.2c15.8,0,24.9,7.8,24.9,21.4c0,13.5-9.1,21.4-24.9,21.4H1844z M1854.2,235.2
		h14.6c10.5,0,16.2-4.6,16.2-12.7c0-8.3-5.7-12.7-16.2-12.7h-14.6V235.2z M1905.6,243.9v-63.5h10.2v63.5H1905.6z"/>
	<path class="st5" d="M1929.8,243.9v-63.5h10v48.1l37.9-48.1h9v63.5h-10v-48.2l-37.9,48.2H1929.8z M1939.8,156.1h8.5
		c0,6.1,2.7,9.8,9.8,9.8c7.1,0,10.1-3.7,10.1-9.8h8.5c-0.3,10.5-6.6,17.1-18.7,17.1C1946,173.2,1940,166.6,1939.8,156.1z"/>
	<path class="st5" d="M1552.1,344.9v-63.5h40.7v9.3h-30.5v54.2H1552.1z"/>
	<path class="st5" d="M1663.8,313.2c0,19.4-13,32.5-30.5,32.5c-10.7,0-17.9-4.4-21.8-10.5v34.6h-10.2v-88.4h8.8l1.4,10.2
		c4.2-5.9,11.1-11,21.8-11C1650.9,280.6,1663.8,292.5,1663.8,313.2z M1653.4,313.2c0-13.8-8.5-23.4-21.1-23.4
		c-12.5,0-20.9,9.6-20.9,23.2c0,14,8.5,23.7,20.9,23.7C1644.9,336.6,1653.4,327,1653.4,313.2z"/>
	<path class="st5" d="M1735,335.6v9.3h-5.6c-8.5,0-11.3-3.6-11.5-9.8c-4,5.7-10.3,10.6-21.3,10.6c-14,0-23.4-7-23.4-18.6
		c0-12.7,8.8-19.8,25.5-19.8h18.7v-4.4c0-8.2-5.9-13.2-15.8-13.2c-9,0-14.9,4.2-16.2,10.7h-10.2c1.5-12.5,11.6-19.8,26.9-19.8
		c16.2,0,25.5,8.1,25.5,22.9v27.8c0,3.4,1.2,4.2,4.1,4.2H1735z M1717.4,315.9h-19.7c-9.1,0-14.2,3.4-14.2,10.6
		c0,6.2,5.4,10.5,13.8,10.5c12.7,0,20.1-7.3,20.1-17.9V315.9z"/>
	<path class="st5" d="M1776.7,369.8v-24.4c-21.8-0.5-36.1-13-36.1-32.3c0-19.1,14.5-31.6,36.1-32.3v-21.2h10v21.2
		c21.7,0.6,36,13,36,32.3c0,19.1-14.3,31.8-36,32.3v24.4H1776.7z M1776.7,289.9c-15.6,0.4-25.7,9-25.7,23.3s10.1,22.9,25.7,23.3
		V289.9z M1786.5,336.5c15.7-0.4,25.7-9,25.7-23.3s-10-22.9-25.7-23.3V336.5z"/>
	<path class="st5" d="M1834.4,344.9v-63.5h10v48.1l37.9-48.1h9v63.5h-10v-48.2l-37.9,48.2H1834.4z"/>
	<path class="st5" d="M1922.8,344.9v-54.2h-22.9v-9.3h56.1v9.3H1933v54.2H1922.8z"/>
</g>
<g>
	<path class="st5" d="M1550.2,68.2h8.5c5.1,0,8,2.5,8,6.4c0,2.8-1.5,4.4-3.8,5.2c2.5,0.5,4.8,2.1,4.8,5.6c0,4.3-3,6.9-8.7,6.9h-8.8
		V68.2z M1553.2,70.9v7.7h5.7c3.1,0,4.9-1.4,4.9-3.9c0-2.4-1.7-3.9-4.9-3.9H1553.2z M1553.2,81.4v8.2h5.8c3.7,0,5.7-1.5,5.7-4
		c0-2.7-2.1-4.2-5.7-4.2H1553.2z"/>
	<path class="st5" d="M1570.5,83.5c0-5.3,3.4-9,8.3-9s8.2,3.1,8.3,8.3c0,0.4,0,0.8-0.1,1.2h-13.6v0.2c0.1,3.3,2.2,5.7,5.5,5.7
		c2.5,0,4.4-1.3,5-3.6h2.9c-0.7,3.5-3.6,6.1-7.6,6.1C1573.9,92.5,1570.5,88.9,1570.5,83.5z M1584.1,81.7c-0.3-3-2.3-4.7-5.3-4.7
		c-2.6,0-5,1.9-5.2,4.7H1584.1z"/>
	<path class="st5" d="M1605.4,89.7h2.8V97h-2.8v-4.6H1591V97h-2.8v-7.2h1.8c1.3-1,2-2.2,2-7.6v-7.3h13.4V89.7z M1602.5,89.7V77.3
		h-7.9v5.1c0,4-0.4,6-1.3,7.3H1602.5z"/>
	<path class="st5" d="M1608.7,74.8h3l5.4,14l5.2-14h3l-8.1,20.5c-1.1,2.8-1.8,3.9-4.2,3.9h-3.4v-2.6h2.5c1.6,0,1.9-0.4,2.5-2.1
		l0.9-2.1L1608.7,74.8z"/>
	<path class="st5" d="M1651.2,89.7h2.9V97h-2.8v-4.6h-23.9V74.8h2.8v15h7.6v-15h2.8v15h7.6v-15h2.8V89.7z"/>
	<path class="st5" d="M1656.4,92.3V74.8h2.8V88l10.5-13.3h2.5v17.6h-2.8V79l-10.5,13.3H1656.4z"/>
	<path class="st5" d="M1676,92.3V74.8h2.8V88l10.5-13.3h2.5v17.6h-2.8V79l-10.5,13.3H1676z M1678.8,68h2.3c0,1.7,0.8,2.7,2.7,2.7
		s2.8-1,2.8-2.7h2.3c-0.1,2.9-1.8,4.7-5.2,4.7C1680.5,72.8,1678.8,70.9,1678.8,68z"/>
	<path class="st5" d="M1719.5,89.7h2.9V97h-2.8v-4.6h-15V74.8h2.8v15h9.2v-15h2.8V89.7z"/>
	<path class="st5" d="M1724.7,92.3V74.8h7.5c4.3,0,6.4,1.7,6.4,4.7c0,2.2-1.4,3.4-2.9,3.8c2,0.3,3.5,1.6,3.5,4c0,3.4-2.4,5.1-7,5.1
		H1724.7z M1727.5,82.2h4.9c2.3,0,3.3-1,3.3-2.5c0-1.7-1-2.5-3.3-2.5h-4.9V82.2z M1727.5,89.9h5.2c2.4,0,3.7-0.8,3.7-2.7
		c0-1.7-1.3-2.7-3.7-2.7h-5.2V89.9z"/>
	<path class="st5" d="M1741.8,83.5c0-5.3,3.4-9,8.3-9c5,0,8.2,3.1,8.3,8.3c0,0.4,0,0.8-0.1,1.2h-13.6v0.2c0.1,3.3,2.2,5.7,5.5,5.7
		c2.5,0,4.4-1.3,5-3.6h2.9c-0.7,3.5-3.6,6.1-7.6,6.1C1745.2,92.5,1741.8,88.9,1741.8,83.5z M1755.4,81.7c-0.3-3-2.3-4.7-5.3-4.7
		c-2.6,0-5,1.9-5.2,4.7H1755.4z"/>
	<path class="st5" d="M1765.4,92.3v-15h-6.3v-2.6h15.5v2.6h-6.3v15H1765.4z"/>
</g>
<rect x="1963" y="805" class="st6" width="255" height="92"/>
<rect x="1708" y="805" class="st7" width="255" height="92"/>
<rect x="1482.4" y="805" class="st8" width="225.6" height="92"/>
<rect x="2473" y="805" class="st9" width="255" height="92"/>
<rect x="2218" y="805" class="st10" width="255" height="92"/>
<rect x="2728" y="805" class="st11" width="234.8" height="92"/>
<g>
	<path d="M61.3,951.3c0-7.3,4.5-12.3,11.5-12.3c5.3,0,9.2,3.1,10.1,8.1h-3.2c-0.9-3.3-3.5-5.3-7.1-5.3c-5.1,0-8.3,3.9-8.3,9.5
		c0,5.5,3.1,9.5,8.2,9.5c3.7,0,6.3-2,7.2-5.3h3.2c-0.9,5-4.9,8.1-10.3,8.1C65.6,963.5,61.3,958.6,61.3,951.3z"/>
	<path d="M85.5,954.5c0-5.3,3.6-9,8.7-9c5.1,0,8.7,3.7,8.7,9c0,5.3-3.6,9-8.7,9C89.1,963.5,85.5,959.9,85.5,954.5z M100,954.5
		c0-3.8-2.3-6.5-5.8-6.5c-3.5,0-5.8,2.7-5.8,6.5c0,3.8,2.3,6.5,5.8,6.5C97.7,961,100,958.3,100,954.5z"/>
	<path d="M106.2,963.3v-17.6h15.2v17.6h-2.8v-15H109v15H106.2z"/>
	<path d="M142.5,954.5c0,5.4-3.6,9-8.4,9c-3,0-5-1.2-6-2.9v9.6h-2.8v-24.5h2.4l0.4,2.8c1.2-1.6,3.1-3,6-3
		C138.9,945.5,142.5,948.8,142.5,954.5z M139.6,954.5c0-3.8-2.3-6.5-5.8-6.5c-3.4,0-5.8,2.7-5.8,6.4c0,3.9,2.3,6.5,5.8,6.5
		C137.3,961,139.6,958.4,139.6,954.5z"/>
	<path d="M145.1,954.5c0-5.3,3.6-9,8.7-9c5.1,0,8.7,3.7,8.7,9c0,5.3-3.6,9-8.7,9C148.7,963.5,145.1,959.9,145.1,954.5z M159.6,954.5
		c0-3.8-2.3-6.5-5.8-6.5c-3.5,0-5.8,2.7-5.8,6.5c0,3.8,2.3,6.5,5.8,6.5C157.3,961,159.6,958.3,159.6,954.5z"/>
	<path d="M165.8,963.3v-17.6h7.5c4.3,0,6.4,1.7,6.4,4.7c0,2.2-1.4,3.4-2.9,3.8c2,0.3,3.5,1.6,3.5,4c0,3.4-2.4,5.1-7,5.1H165.8z
		 M168.6,953.2h4.9c2.3,0,3.3-1,3.3-2.5c0-1.7-1-2.5-3.3-2.5h-4.9V953.2z M168.6,960.9h5.2c2.4,0,3.7-0.8,3.7-2.7
		c0-1.7-1.3-2.7-3.7-2.7h-5.2V960.9z"/>
	<path d="M182.9,954.5c0-5.3,3.6-9,8.7-9c5.1,0,8.7,3.7,8.7,9c0,5.3-3.6,9-8.7,9C186.5,963.5,182.9,959.9,182.9,954.5z M197.4,954.5
		c0-3.8-2.3-6.5-5.8-6.5c-3.5,0-5.8,2.7-5.8,6.5c0,3.8,2.3,6.5,5.8,6.5C195.1,961,197.4,958.3,197.4,954.5z"/>
	<path d="M200.9,963.3l6.6-9.1l-6.1-8.5h3.1l5.3,7.3h2.7v-7.3h2.8v7.3h2.7l5.3-7.3h3.1l-6.1,8.5l6.6,9.1h-3.2l-5.6-7.6h-2.8v7.6
		h-2.8v-7.6h-2.8l-5.6,7.6H200.9z"/>
	<path d="M245.1,960.7h2.8v7.2h-2.8v-4.6h-14.3v4.6h-2.8v-7.2h1.8c1.3-1,2-2.2,2-7.6v-7.3h13.4V960.7z M242.3,960.7v-12.4h-7.9v5.1
		c0,4-0.4,6-1.3,7.3H242.3z"/>
	<path d="M266.6,960.7v2.6h-1.5c-2.3,0-3.1-1-3.2-2.7c-1.1,1.6-2.9,2.9-5.9,2.9c-3.9,0-6.5-1.9-6.5-5.1c0-3.5,2.4-5.5,7.1-5.5h5.2
		v-1.2c0-2.3-1.6-3.7-4.4-3.7c-2.5,0-4.1,1.2-4.5,3h-2.8c0.4-3.4,3.2-5.5,7.4-5.5c4.5,0,7.1,2.2,7.1,6.3v7.7c0,0.9,0.3,1.2,1.1,1.2
		H266.6z M261.8,955.3h-5.4c-2.5,0-3.9,0.9-3.9,2.9c0,1.7,1.5,2.9,3.8,2.9c3.5,0,5.5-2,5.5-5V955.3z"/>
	<path d="M293,954.5c0,5.4-3.4,9-8.6,9c-4.8,0-8.1-3.2-8.6-7.9h-4.2v7.7h-2.8v-17.6h2.8v7.5h4.2c0.5-4.6,3.8-7.7,8.5-7.7
		C289.6,945.6,293,949.2,293,954.5z M290.2,954.5c0-4-2.3-6.6-5.8-6.6c-3.4,0-5.8,2.7-5.8,6.6c0,4,2.3,6.8,5.8,6.8
		C287.9,961.2,290.2,958.5,290.2,954.5z"/>
	<path d="M320,960.7h2.9v7.2h-2.8v-4.6h-23.9v-17.6h2.8v15h7.6v-15h2.8v15h7.6v-15h2.8V960.7z"/>
	<path d="M325.3,963.3v-17.6h2.8V959l10.5-13.3h2.5v17.6h-2.8V950l-10.5,13.3H325.3z"/>
	<path d="M344.8,963.3v-17.6h2.8V959l10.5-13.3h2.5v17.6h-2.8V950l-10.5,13.3H344.8z M347.6,939h2.3c0,1.7,0.8,2.7,2.7,2.7
		c2,0,2.8-1,2.8-2.7h2.3c-0.1,2.9-1.8,4.7-5.2,4.7C349.3,943.8,347.7,941.9,347.6,939z"/>
	<path d="M76.7,996.7h2.9v7.2h-2.8v-4.6h-15v-17.6h2.8v15h9.2v-15h2.8V996.7z"/>
	<path d="M81.9,999.3v-17.6h7.5c4.3,0,6.4,1.7,6.4,4.7c0,2.2-1.4,3.4-2.9,3.8c2,0.3,3.5,1.6,3.5,4c0,3.4-2.4,5.1-7,5.1H81.9z
		 M84.7,989.2h4.9c2.3,0,3.3-1,3.3-2.5c0-1.7-1-2.5-3.3-2.5h-4.9V989.2z M84.7,996.9h5.2c2.4,0,3.7-0.8,3.7-2.7
		c0-1.7-1.3-2.7-3.7-2.7h-5.2V996.9z"/>
	<path d="M99,990.5c0-5.3,3.4-9,8.3-9c5,0,8.2,3.1,8.3,8.3c0,0.4,0,0.8-0.1,1.2H102v0.2c0.1,3.3,2.2,5.7,5.5,5.7
		c2.5,0,4.4-1.3,5-3.6h2.9c-0.7,3.5-3.6,6.1-7.6,6.1C102.4,999.5,99,995.9,99,990.5z M112.6,988.7c-0.3-3-2.3-4.7-5.3-4.7
		c-2.6,0-5,1.9-5.2,4.7H112.6z"/>
	<path d="M122.6,999.3v-15h-6.3v-2.6h15.5v2.6h-6.3v15H122.6z"/>
</g>
<g>
	<path d="M795.3,951.3c0-7.3,4.5-12.3,11.5-12.3c5.3,0,9.2,3.1,10.1,8.1h-3.2c-0.9-3.3-3.5-5.3-7.1-5.3c-5.1,0-8.3,3.9-8.3,9.5
		c0,5.5,3.1,9.5,8.2,9.5c3.7,0,6.3-2,7.2-5.3h3.2c-0.9,5-4.9,8.1-10.3,8.1C799.6,963.5,795.3,958.6,795.3,951.3z"/>
	<path d="M819.5,954.5c0-5.3,3.6-9,8.7-9c5.1,0,8.7,3.7,8.7,9c0,5.3-3.6,9-8.7,9C823.1,963.5,819.5,959.9,819.5,954.5z M834,954.5
		c0-3.8-2.3-6.5-5.8-6.5c-3.5,0-5.8,2.7-5.8,6.5c0,3.8,2.3,6.5,5.8,6.5C831.7,961,834,958.3,834,954.5z"/>
	<path d="M840.2,963.3v-17.6h15.2v17.6h-2.8v-15H843v15H840.2z"/>
	<path d="M876.5,954.5c0,5.4-3.6,9-8.4,9c-3,0-5-1.2-6-2.9v9.6h-2.8v-24.5h2.4l0.4,2.8c1.2-1.6,3.1-3,6-3
		C872.9,945.5,876.5,948.8,876.5,954.5z M873.6,954.5c0-3.8-2.3-6.5-5.8-6.5c-3.4,0-5.8,2.7-5.8,6.4c0,3.9,2.3,6.5,5.8,6.5
		C871.3,961,873.6,958.4,873.6,954.5z"/>
	<path d="M879.1,954.5c0-5.3,3.6-9,8.7-9c5.1,0,8.7,3.7,8.7,9c0,5.3-3.6,9-8.7,9C882.7,963.5,879.1,959.9,879.1,954.5z M893.6,954.5
		c0-3.8-2.3-6.5-5.8-6.5c-3.5,0-5.8,2.7-5.8,6.5c0,3.8,2.3,6.5,5.8,6.5C891.3,961,893.6,958.3,893.6,954.5z"/>
	<path d="M899.8,963.3v-17.6h7.5c4.3,0,6.4,1.7,6.4,4.7c0,2.2-1.4,3.4-2.9,3.8c2,0.3,3.5,1.6,3.5,4c0,3.4-2.4,5.1-7,5.1H899.8z
		 M902.6,953.2h4.9c2.3,0,3.3-1,3.3-2.5c0-1.7-1-2.5-3.3-2.5h-4.9V953.2z M902.6,960.9h5.2c2.4,0,3.7-0.8,3.7-2.7
		c0-1.7-1.3-2.7-3.7-2.7h-5.2V960.9z"/>
	<path d="M916.9,954.5c0-5.3,3.6-9,8.7-9c5.1,0,8.7,3.7,8.7,9c0,5.3-3.6,9-8.7,9C920.5,963.5,916.9,959.9,916.9,954.5z M931.4,954.5
		c0-3.8-2.3-6.5-5.8-6.5c-3.5,0-5.8,2.7-5.8,6.5c0,3.8,2.3,6.5,5.8,6.5C929.1,961,931.4,958.3,931.4,954.5z"/>
	<path d="M934.9,963.3l6.6-9.1l-6.1-8.5h3.1l5.3,7.3h2.7v-7.3h2.8v7.3h2.7l5.3-7.3h3.1l-6.1,8.5l6.6,9.1h-3.2l-5.6-7.6h-2.8v7.6
		h-2.8v-7.6h-2.8l-5.6,7.6H934.9z"/>
	<path d="M979.1,960.7h2.8v7.2h-2.8v-4.6h-14.3v4.6h-2.8v-7.2h1.8c1.3-1,2-2.2,2-7.6v-7.3h13.4V960.7z M976.3,960.7v-12.4h-7.9v5.1
		c0,4-0.4,6-1.3,7.3H976.3z"/>
	<path d="M1000.6,960.7v2.6h-1.5c-2.3,0-3.1-1-3.2-2.7c-1.1,1.6-2.9,2.9-5.9,2.9c-3.9,0-6.5-1.9-6.5-5.1c0-3.5,2.4-5.5,7.1-5.5h5.2
		v-1.2c0-2.3-1.6-3.7-4.4-3.7c-2.5,0-4.1,1.2-4.5,3h-2.8c0.4-3.4,3.2-5.5,7.4-5.5c4.5,0,7.1,2.2,7.1,6.3v7.7c0,0.9,0.3,1.2,1.1,1.2
		H1000.6z M995.8,955.3h-5.4c-2.5,0-3.9,0.9-3.9,2.9c0,1.7,1.5,2.9,3.8,2.9c3.5,0,5.5-2,5.5-5V955.3z"/>
	<path d="M1027,954.5c0,5.4-3.4,9-8.6,9c-4.8,0-8.1-3.2-8.6-7.9h-4.2v7.7h-2.8v-17.6h2.8v7.5h4.2c0.5-4.6,3.8-7.7,8.5-7.7
		C1023.6,945.6,1027,949.2,1027,954.5z M1024.2,954.5c0-4-2.3-6.6-5.8-6.6c-3.4,0-5.8,2.7-5.8,6.6c0,4,2.3,6.8,5.8,6.8
		C1021.9,961.2,1024.2,958.5,1024.2,954.5z"/>
	<path d="M1054,960.7h2.9v7.2h-2.8v-4.6h-23.9v-17.6h2.8v15h7.6v-15h2.8v15h7.6v-15h2.8V960.7z"/>
	<path d="M1059.3,963.3v-17.6h2.8V959l10.5-13.3h2.5v17.6h-2.8V950l-10.5,13.3H1059.3z"/>
	<path d="M1078.8,963.3v-17.6h2.8V959l10.5-13.3h2.5v17.6h-2.8V950l-10.5,13.3H1078.8z M1081.6,939h2.3c0,1.7,0.8,2.7,2.7,2.7
		s2.8-1,2.8-2.7h2.3c-0.1,2.9-1.8,4.7-5.2,4.7C1083.3,943.8,1081.7,941.9,1081.6,939z"/>
	<path d="M810.7,996.7h2.9v7.2h-2.8v-4.6h-15v-17.6h2.8v15h9.2v-15h2.8V996.7z"/>
	<path d="M815.9,999.3v-17.6h7.5c4.3,0,6.4,1.7,6.4,4.7c0,2.2-1.4,3.4-2.9,3.8c2,0.3,3.5,1.6,3.5,4c0,3.4-2.4,5.1-7,5.1H815.9z
		 M818.7,989.2h4.9c2.3,0,3.3-1,3.3-2.5c0-1.7-1-2.5-3.3-2.5h-4.9V989.2z M818.7,996.9h5.2c2.4,0,3.7-0.8,3.7-2.7
		c0-1.7-1.3-2.7-3.7-2.7h-5.2V996.9z"/>
	<path d="M833,990.5c0-5.3,3.4-9,8.3-9c5,0,8.2,3.1,8.3,8.3c0,0.4,0,0.8-0.1,1.2H836v0.2c0.1,3.3,2.2,5.7,5.5,5.7
		c2.5,0,4.4-1.3,5-3.6h2.9c-0.7,3.5-3.6,6.1-7.6,6.1C836.4,999.5,833,995.9,833,990.5z M846.6,988.7c-0.3-3-2.3-4.7-5.3-4.7
		c-2.6,0-5,1.9-5.2,4.7H846.6z"/>
	<path d="M856.6,999.3v-15h-6.3v-2.6h15.5v2.6h-6.3v15H856.6z"/>
</g>
<g>
	<path d="M1531.3,951.3c0-7.3,4.5-12.3,11.5-12.3c5.3,0,9.2,3.1,10.1,8.1h-3.2c-0.9-3.3-3.5-5.3-7.1-5.3c-5.1,0-8.3,3.9-8.3,9.5
		c0,5.5,3.1,9.5,8.2,9.5c3.7,0,6.3-2,7.2-5.3h3.2c-0.9,5-4.9,8.1-10.3,8.1C1535.7,963.5,1531.3,958.6,1531.3,951.3z"/>
	<path d="M1555.5,954.5c0-5.3,3.6-9,8.7-9c5.1,0,8.7,3.7,8.7,9c0,5.3-3.6,9-8.7,9C1559.1,963.5,1555.5,959.9,1555.5,954.5z
		 M1570,954.5c0-3.8-2.3-6.5-5.8-6.5s-5.8,2.7-5.8,6.5c0,3.8,2.3,6.5,5.8,6.5S1570,958.3,1570,954.5z"/>
	<path d="M1576.2,963.3v-17.6h15.2v17.6h-2.8v-15h-9.5v15H1576.2z"/>
	<path d="M1612.5,954.5c0,5.4-3.6,9-8.4,9c-3,0-5-1.2-6-2.9v9.6h-2.8v-24.5h2.4l0.4,2.8c1.2-1.6,3.1-3,6-3
		C1608.9,945.5,1612.5,948.8,1612.5,954.5z M1609.6,954.5c0-3.8-2.3-6.5-5.8-6.5c-3.4,0-5.8,2.7-5.8,6.4c0,3.9,2.3,6.5,5.8,6.5
		C1607.3,961,1609.6,958.4,1609.6,954.5z"/>
	<path d="M1615.1,954.5c0-5.3,3.6-9,8.7-9c5.1,0,8.7,3.7,8.7,9c0,5.3-3.6,9-8.7,9C1618.7,963.5,1615.1,959.9,1615.1,954.5z
		 M1629.7,954.5c0-3.8-2.3-6.5-5.8-6.5s-5.8,2.7-5.8,6.5c0,3.8,2.3,6.5,5.8,6.5S1629.7,958.3,1629.7,954.5z"/>
	<path d="M1635.8,963.3v-17.6h7.5c4.3,0,6.4,1.7,6.4,4.7c0,2.2-1.4,3.4-2.9,3.8c2,0.3,3.5,1.6,3.5,4c0,3.4-2.4,5.1-7,5.1H1635.8z
		 M1638.6,953.2h4.9c2.3,0,3.3-1,3.3-2.5c0-1.7-1-2.5-3.3-2.5h-4.9V953.2z M1638.6,960.9h5.2c2.4,0,3.7-0.8,3.7-2.7
		c0-1.7-1.3-2.7-3.7-2.7h-5.2V960.9z"/>
	<path d="M1652.9,954.5c0-5.3,3.6-9,8.7-9c5.1,0,8.7,3.7,8.7,9c0,5.3-3.6,9-8.7,9C1656.5,963.5,1652.9,959.9,1652.9,954.5z
		 M1667.4,954.5c0-3.8-2.3-6.5-5.8-6.5s-5.8,2.7-5.8,6.5c0,3.8,2.3,6.5,5.8,6.5S1667.4,958.3,1667.4,954.5z"/>
	<path d="M1670.9,963.3l6.6-9.1l-6.1-8.5h3.1l5.3,7.3h2.7v-7.3h2.8v7.3h2.7l5.3-7.3h3.1l-6.1,8.5l6.6,9.1h-3.2l-5.6-7.6h-2.8v7.6
		h-2.8v-7.6h-2.8l-5.6,7.6H1670.9z"/>
	<path d="M1715.1,960.7h2.8v7.2h-2.8v-4.6h-14.3v4.6h-2.8v-7.2h1.8c1.3-1,2-2.2,2-7.6v-7.3h13.4V960.7z M1712.3,960.7v-12.4h-7.9
		v5.1c0,4-0.4,6-1.3,7.3H1712.3z"/>
	<path d="M1736.6,960.7v2.6h-1.5c-2.3,0-3.1-1-3.2-2.7c-1.1,1.6-2.9,2.9-5.9,2.9c-3.9,0-6.5-1.9-6.5-5.1c0-3.5,2.4-5.5,7.1-5.5h5.2
		v-1.2c0-2.3-1.6-3.7-4.4-3.7c-2.5,0-4.1,1.2-4.5,3h-2.8c0.4-3.4,3.2-5.5,7.4-5.5c4.5,0,7.1,2.2,7.1,6.3v7.7c0,0.9,0.3,1.2,1.1,1.2
		H1736.6z M1731.8,955.3h-5.4c-2.5,0-3.9,0.9-3.9,2.9c0,1.7,1.5,2.9,3.8,2.9c3.5,0,5.5-2,5.5-5V955.3z"/>
	<path d="M1763,954.5c0,5.4-3.4,9-8.6,9c-4.8,0-8.1-3.2-8.6-7.9h-4.2v7.7h-2.8v-17.6h2.8v7.5h4.2c0.5-4.6,3.8-7.7,8.5-7.7
		C1759.6,945.6,1763,949.2,1763,954.5z M1760.2,954.5c0-4-2.3-6.6-5.8-6.6c-3.4,0-5.8,2.7-5.8,6.6c0,4,2.3,6.8,5.8,6.8
		C1757.9,961.2,1760.2,958.5,1760.2,954.5z"/>
	<path d="M1790,960.7h2.9v7.2h-2.8v-4.6h-23.9v-17.6h2.8v15h7.6v-15h2.8v15h7.6v-15h2.8V960.7z"/>
	<path d="M1795.3,963.3v-17.6h2.8V959l10.5-13.3h2.5v17.6h-2.8V950l-10.5,13.3H1795.3z"/>
	<path d="M1814.8,963.3v-17.6h2.8V959l10.5-13.3h2.5v17.6h-2.8V950l-10.5,13.3H1814.8z M1817.6,939h2.3c0,1.7,0.8,2.7,2.7,2.7
		s2.8-1,2.8-2.7h2.3c-0.1,2.9-1.8,4.7-5.2,4.7C1819.3,943.8,1817.7,941.9,1817.6,939z"/>
	<path d="M1546.7,996.7h2.9v7.2h-2.8v-4.6h-15v-17.6h2.8v15h9.2v-15h2.8V996.7z"/>
	<path d="M1551.9,999.3v-17.6h7.5c4.3,0,6.4,1.7,6.4,4.7c0,2.2-1.4,3.4-2.9,3.8c2,0.3,3.5,1.6,3.5,4c0,3.4-2.4,5.1-7,5.1H1551.9z
		 M1554.7,989.2h4.9c2.3,0,3.3-1,3.3-2.5c0-1.7-1-2.5-3.3-2.5h-4.9V989.2z M1554.7,996.9h5.2c2.4,0,3.7-0.8,3.7-2.7
		c0-1.7-1.3-2.7-3.7-2.7h-5.2V996.9z"/>
	<path d="M1569,990.5c0-5.3,3.4-9,8.3-9s8.2,3.1,8.3,8.3c0,0.4,0,0.8-0.1,1.2H1572v0.2c0.1,3.3,2.2,5.7,5.5,5.7c2.5,0,4.4-1.3,5-3.6
		h2.9c-0.7,3.5-3.6,6.1-7.6,6.1C1572.4,999.5,1569,995.9,1569,990.5z M1582.6,988.7c-0.3-3-2.3-4.7-5.3-4.7c-2.6,0-5,1.9-5.2,4.7
		H1582.6z"/>
	<path d="M1592.6,999.3v-15h-6.3v-2.6h15.5v2.6h-6.3v15H1592.6z"/>
</g>
<g>
	<path d="M2273.3,951.3c0-7.3,4.5-12.3,11.5-12.3c5.3,0,9.2,3.1,10.1,8.1h-3.2c-0.9-3.3-3.5-5.3-7.1-5.3c-5.1,0-8.3,3.9-8.3,9.5
		c0,5.5,3.1,9.5,8.2,9.5c3.7,0,6.3-2,7.2-5.3h3.2c-0.9,5-4.9,8.1-10.3,8.1C2277.7,963.5,2273.3,958.6,2273.3,951.3z"/>
	<path d="M2297.5,954.5c0-5.3,3.6-9,8.7-9c5.1,0,8.7,3.7,8.7,9c0,5.3-3.6,9-8.7,9C2301.1,963.5,2297.5,959.9,2297.5,954.5z
		 M2312,954.5c0-3.8-2.3-6.5-5.8-6.5s-5.8,2.7-5.8,6.5c0,3.8,2.3,6.5,5.8,6.5S2312,958.3,2312,954.5z"/>
	<path d="M2318.2,963.3v-17.6h15.2v17.6h-2.8v-15h-9.5v15H2318.2z"/>
	<path d="M2354.5,954.5c0,5.4-3.6,9-8.4,9c-3,0-5-1.2-6-2.9v9.6h-2.8v-24.5h2.4l0.4,2.8c1.2-1.6,3.1-3,6-3
		C2350.9,945.5,2354.5,948.8,2354.5,954.5z M2351.6,954.5c0-3.8-2.3-6.5-5.8-6.5c-3.4,0-5.8,2.7-5.8,6.4c0,3.9,2.3,6.5,5.8,6.5
		C2349.3,961,2351.6,958.4,2351.6,954.5z"/>
	<path d="M2357.1,954.5c0-5.3,3.6-9,8.7-9c5.1,0,8.7,3.7,8.7,9c0,5.3-3.6,9-8.7,9C2360.7,963.5,2357.1,959.9,2357.1,954.5z
		 M2371.7,954.5c0-3.8-2.3-6.5-5.8-6.5s-5.8,2.7-5.8,6.5c0,3.8,2.3,6.5,5.8,6.5S2371.7,958.3,2371.7,954.5z"/>
	<path d="M2377.8,963.3v-17.6h7.5c4.3,0,6.4,1.7,6.4,4.7c0,2.2-1.4,3.4-2.9,3.8c2,0.3,3.5,1.6,3.5,4c0,3.4-2.4,5.1-7,5.1H2377.8z
		 M2380.6,953.2h4.9c2.3,0,3.3-1,3.3-2.5c0-1.7-1-2.5-3.3-2.5h-4.9V953.2z M2380.6,960.9h5.2c2.4,0,3.7-0.8,3.7-2.7
		c0-1.7-1.3-2.7-3.7-2.7h-5.2V960.9z"/>
	<path d="M2394.9,954.5c0-5.3,3.6-9,8.7-9c5.1,0,8.7,3.7,8.7,9c0,5.3-3.6,9-8.7,9C2398.5,963.5,2394.9,959.9,2394.9,954.5z
		 M2409.4,954.5c0-3.8-2.3-6.5-5.8-6.5s-5.8,2.7-5.8,6.5c0,3.8,2.3,6.5,5.8,6.5S2409.4,958.3,2409.4,954.5z"/>
	<path d="M2412.9,963.3l6.6-9.1l-6.1-8.5h3.1l5.3,7.3h2.7v-7.3h2.8v7.3h2.7l5.3-7.3h3.1l-6.1,8.5l6.6,9.1h-3.2l-5.6-7.6h-2.8v7.6
		h-2.8v-7.6h-2.8l-5.6,7.6H2412.9z"/>
	<path d="M2457.1,960.7h2.8v7.2h-2.8v-4.6h-14.3v4.6h-2.8v-7.2h1.8c1.3-1,2-2.2,2-7.6v-7.3h13.4V960.7z M2454.3,960.7v-12.4h-7.9
		v5.1c0,4-0.4,6-1.3,7.3H2454.3z"/>
	<path d="M2478.6,960.7v2.6h-1.5c-2.3,0-3.1-1-3.2-2.7c-1.1,1.6-2.9,2.9-5.9,2.9c-3.9,0-6.5-1.9-6.5-5.1c0-3.5,2.4-5.5,7.1-5.5h5.2
		v-1.2c0-2.3-1.6-3.7-4.4-3.7c-2.5,0-4.1,1.2-4.5,3h-2.8c0.4-3.4,3.2-5.5,7.4-5.5c4.5,0,7.1,2.2,7.1,6.3v7.7c0,0.9,0.3,1.2,1.1,1.2
		H2478.6z M2473.8,955.3h-5.4c-2.5,0-3.9,0.9-3.9,2.9c0,1.7,1.5,2.9,3.8,2.9c3.5,0,5.5-2,5.5-5V955.3z"/>
	<path d="M2505,954.5c0,5.4-3.4,9-8.6,9c-4.8,0-8.1-3.2-8.6-7.9h-4.2v7.7h-2.8v-17.6h2.8v7.5h4.2c0.5-4.6,3.8-7.7,8.5-7.7
		C2501.6,945.6,2505,949.2,2505,954.5z M2502.2,954.5c0-4-2.3-6.6-5.8-6.6c-3.4,0-5.8,2.7-5.8,6.6c0,4,2.3,6.8,5.8,6.8
		C2499.9,961.2,2502.2,958.5,2502.2,954.5z"/>
	<path d="M2532,960.7h2.9v7.2h-2.8v-4.6h-23.9v-17.6h2.8v15h7.6v-15h2.8v15h7.6v-15h2.8V960.7z"/>
	<path d="M2537.3,963.3v-17.6h2.8V959l10.5-13.3h2.5v17.6h-2.8V950l-10.5,13.3H2537.3z"/>
	<path d="M2556.8,963.3v-17.6h2.8V959l10.5-13.3h2.5v17.6h-2.8V950l-10.5,13.3H2556.8z M2559.6,939h2.3c0,1.7,0.8,2.7,2.7,2.7
		s2.8-1,2.8-2.7h2.3c-0.1,2.9-1.8,4.7-5.2,4.7C2561.3,943.8,2559.7,941.9,2559.6,939z"/>
	<path d="M2288.7,996.7h2.9v7.2h-2.8v-4.6h-15v-17.6h2.8v15h9.2v-15h2.8V996.7z"/>
	<path d="M2293.9,999.3v-17.6h7.5c4.3,0,6.4,1.7,6.4,4.7c0,2.2-1.4,3.4-2.9,3.8c2,0.3,3.5,1.6,3.5,4c0,3.4-2.4,5.1-7,5.1H2293.9z
		 M2296.7,989.2h4.9c2.3,0,3.3-1,3.3-2.5c0-1.7-1-2.5-3.3-2.5h-4.9V989.2z M2296.7,996.9h5.2c2.4,0,3.7-0.8,3.7-2.7
		c0-1.7-1.3-2.7-3.7-2.7h-5.2V996.9z"/>
	<path d="M2311,990.5c0-5.3,3.4-9,8.3-9s8.2,3.1,8.3,8.3c0,0.4,0,0.8-0.1,1.2H2314v0.2c0.1,3.3,2.2,5.7,5.5,5.7c2.5,0,4.4-1.3,5-3.6
		h2.9c-0.7,3.5-3.6,6.1-7.6,6.1C2314.4,999.5,2311,995.9,2311,990.5z M2324.6,988.7c-0.3-3-2.3-4.7-5.3-4.7c-2.6,0-5,1.9-5.2,4.7
		H2324.6z"/>
	<path d="M2334.6,999.3v-15h-6.3v-2.6h15.5v2.6h-6.3v15H2334.6z"/>
</g>
</svg>
