<?xml version="1.0" encoding="utf-8"?>
<!-- Generator: Adobe Illustrator 22.0.0, SVG Export Plug-In . SVG Version: 6.00 Build 0)  -->
<svg version="1.1" id="Layer_1" xmlns="http://www.w3.org/2000/svg" xmlns:xlink="http://www.w3.org/1999/xlink" x="0px" y="0px"
	 viewBox="0 0 200 200" style="enable-background:new 0 0 200 200;" xml:space="preserve">
<style type="text/css">
	.st0{fill:#202134;}
	.st1{fill:#FFFFFF;}
</style>
<path class="st0" d="M100,0c55.2,0,100,44.8,100,100s-44.8,100-100,100S0,155.2,0,100S44.8,0,100,0z"/>
<path class="st1" d="M145.7,74.1c0.2-0.6,0.3-1.2,0.2-1.7c-0.1-1.5-1.1-2.6-3.5-2.6h-10.9c-2.7,0-4,1.7-4.8,3.3
	c0,0-6.8,14-14.7,23.2c-2.6,2.7-3.9,2.6-5.2,2.6c-0.7,0-2.6-0.9-2.6-3.3V73.9c0-2.9-0.7-4.2-3.1-4.2H81.9c-1.7,0-2.6,1.4-2.6,2.7
	c0,2.7,3.7,3.5,4.2,11.2v15.1c0,3.6-0.6,4.4-2,4.4c-3.7,0-11-12.5-15.9-28.9c-1-3.2-2.1-4.4-4.8-4.4h-11c-3.1,0-3.7,1.5-3.7,3.2
	c0,3,2.5,19.3,16.1,37.9c9.9,13.5,22.9,21.4,34.4,21.4c7,0,7.7-1.8,7.7-4.6v-12.4c0-3.3,0.8-3.9,3-3.9c1.6,0,4.8,1,11,8.3
	c7.2,8.4,8.5,12.5,12.7,12.5h11c2.5,0,4-1,4-3.1c0-0.6-0.1-1.1-0.2-1.8c-0.8-2.4-4.5-8.3-9.1-13.9c-2.6-3.1-5.1-6.1-6.3-7.8
	c-0.8-1-1-1.9-1-2.6c0-0.8,0.4-1.5,1-2.5C130.3,100.6,144.4,80.7,145.7,74.1z"/>
</svg>
