<?xml version="1.0" encoding="utf-8"?>
<!-- Generator: Adobe Illustrator 22.0.0, SVG Export Plug-In . SVG Version: 6.00 Build 0)  -->
<svg version="1.1" id="Layer_1" xmlns="http://www.w3.org/2000/svg" xmlns:xlink="http://www.w3.org/1999/xlink" x="0px" y="0px"
	 viewBox="0 0 200 200" style="enable-background:new 0 0 200 200;" xml:space="preserve">
<style type="text/css">
	.st0{fill:#0E2B3D;}
	.st1{fill:#FFFFFF;}
</style>
<path class="st0" d="M100,0c55.2,0,100,44.8,100,100s-44.8,100-100,100S0,155.2,0,100S44.8,0,100,0z"/>
<path class="st1" d="M157.7,72.5c0.2-0.8,0.4-1.5,0.3-2.1c-0.1-1.9-1.4-3.2-4.4-3.2h-13.5c-3.4,0-5,2.1-5.9,4.1
	c0,0-8.4,17.4-18.2,28.8c-3.2,3.3-4.8,3.2-6.5,3.2c-0.9,0-3.2-1.1-3.2-4.1V72.3c0-3.6-0.9-5.2-3.8-5.2h-24c-2.1,0-3.2,1.7-3.2,3.3
	c0,3.4,4.6,4.3,5.2,13.9V103c0,4.5-0.8,5.4-2.5,5.4c-4.6,0-13.7-15.5-19.7-35.8c-1.3-4-2.6-5.5-6-5.5H38.6c-3.9,0-4.6,1.9-4.6,4
	c0,3.7,3.1,23.9,20,47c12.3,16.8,28.4,26.5,42.7,26.5c8.7,0,9.6-2.2,9.6-5.7v-15.4c0-4.1,1-4.8,3.7-4.8c2,0,6,1.3,13.7,10.3
	c8.9,10.4,10.6,15.5,15.7,15.5H153c3.1,0,4.9-1.3,5-3.9c0-0.7-0.1-1.4-0.3-2.2c-1-3-5.6-10.3-11.3-17.2c-3.2-3.8-6.3-7.6-7.8-9.7
	c-1-1.3-1.3-2.3-1.3-3.2c0-1,0.5-1.9,1.3-3.1C138.5,105.3,156,80.7,157.7,72.5z"/>
</svg>
