<?xml version="1.0" encoding="utf-8"?>
<!-- Generator: Adobe Illustrator 22.0.0, SVG Export Plug-In . SVG Version: 6.00 Build 0)  -->
<svg version="1.1" id="Layer_1" xmlns="http://www.w3.org/2000/svg" xmlns:xlink="http://www.w3.org/1999/xlink" x="0px" y="0px"
	 viewBox="0 0 800 215.1" style="enable-background:new 0 0 800 215.1;" xml:space="preserve">
<style type="text/css">
	.st0{fill:#AD73FA;}
	.st1{fill:#251441;}
	.st2{fill:#412170;}
	.st3{fill:#691CC2;}
	.st4{fill:#8F3CF2;}
	.st5{fill:#CCADFF;}
	.st6{fill:#E3D7FF;}
</style>
<g>
	<g>
		<g>
			<g>
				<polygon class="st0" points="75.8,66.4 39,66.4 102.9,124.3 36,182.3 72.7,182.3 137.4,124.3 				"/>
				<g>
					<path class="st0" d="M109.3,0H60.8C27.2,0,0,27,0,60.3v17.9c0,33.3,27.2,60.3,60.8,60.3h50.5v-28.1H31.6
						c-1.9,0-3.3-1.5-3.3-3.3V31.2c0-1.8,1.5-3.3,3.3-3.3h107c1.9,0,3.3,1.5,3.3,3.3v151h28.3V60.4C170.2,27,142.8,0,109.3,0z"/>
				</g>
			</g>
		</g>
		<g>
			<g>
				<path class="st0" d="M233,66.2h44c26.8,0,42.4,11.3,42.4,30.6c0,14.6-8.6,22.8-21.8,25.6c15.4,2,26,10.1,26,26.6
					c0,20.2-15.9,32.9-44.3,32.9H233V66.2z M257.8,85.7v28.1h19.9c10.6,0,16.9-5.5,16.9-14.1c0-8.6-6.1-14.1-16.9-14.1H257.8z
					 M257.8,133v29.3h21.5c11.9,0,18.7-5.5,18.7-14.4c0-9.4-6.9-14.9-18.7-14.9H257.8z"/>
				<path class="st0" d="M336.6,182v-85H417v85h-23.3v-65.4h-33.8V182H336.6z"/>
				<path class="st0" d="M521.6,139.6c0,26.5-16.5,43.4-39.4,43.4c-11.7,0-20.2-4.8-25.6-11.7v43.8h-23.3V96.9h20.4l2.3,11.7
					c5.5-7.3,14.1-12.7,26.1-12.7C505,95.8,521.6,112.8,521.6,139.6z M497.9,139.3c0-14.4-8.3-24.3-21-24.3s-20.7,9.9-20.7,24.3
					c0,14.6,7.9,24.7,20.7,24.7S497.9,153.9,497.9,139.3z"/>
				<path class="st0" d="M618.2,162.3V182h-11.9c-12.1,0-15.9-5.8-15.7-13.9c-6,9.4-14.6,14.9-27.8,14.9c-18.4,0-31.6-8.8-31.6-25
					c0-18,13.6-28.3,39-28.3h16.9v-4.1c0-7.6-5.5-12.6-15.2-12.6c-9.1,0-15.2,4.1-16.2,10.4h-22.5C534.8,106.9,550,96,572.5,96
					c23.8,0,37.6,10.6,37.6,30.9V157c0,4.5,1.8,5.3,5.5,5.3H618.2z M587.1,145.3h-17c-9.8,0-15.4,4-15.4,11.1c0,6,4.8,9.8,12.6,9.8
					c12.2,0,19.7-7.6,19.9-19.2V145.3z"/>
				<path class="st0" d="M627.3,182v-85h38.1c23.3,0,35.6,7.9,35.6,22.3c0,11.7-7.1,16.9-16.4,18.7c12.1,1.7,19.2,7.8,19.2,19.7
					c0,16.5-12.4,24.3-37.6,24.3H627.3z M649.8,131.5h15.4c8.1,0,12.2-3.5,12.2-9.3c0-6.1-4.1-9.3-12.2-9.3h-15.4V131.5z
					 M649.8,165.9h17.5c8.3,0,12.9-3.1,12.9-9.6c0-6.1-4.6-9.6-12.9-9.6h-17.5V165.9z"/>
				<path class="st0" d="M713.3,139.6c0-26.5,17.4-43.7,43.7-43.7c25.5,0,42.7,15.9,43,40.9c0,2.5-0.2,5.3-0.7,7.9h-61.7v1.2
					c0.5,12.1,8.3,19.4,20,19.4c9.4,0,16-4.1,18-12.1h23c-2.6,16.5-17.4,29.8-40,29.8C730.3,183,713.3,165.9,713.3,139.6z
					 M776.5,129.5c-1.7-10.4-8.8-16.2-19.4-16.2c-10.1,0-17.7,6.1-19,16.2H776.5z"/>
			</g>
		</g>
	</g>
</g>
<rect x="-270" y="-457" transform="matrix(6.123234e-17 -1 1 6.123234e-17 187 -505)" class="st1" width="222" height="222"/>
<rect x="-48" y="-457" transform="matrix(6.123234e-17 -1 1 6.123234e-17 409 -283)" class="st2" width="222" height="222"/>
<rect x="174" y="-457" transform="matrix(6.123234e-17 -1 1 6.123234e-17 631 -61)" class="st3" width="222" height="222"/>
<rect x="397" y="-457" transform="matrix(6.123234e-17 -1 1 6.123234e-17 854 162)" class="st4" width="222" height="222"/>
<rect x="618" y="-457" transform="matrix(6.123234e-17 -1 1 6.123234e-17 1075 383)" class="st0" width="222" height="222"/>
<rect x="839" y="-457" transform="matrix(6.123234e-17 -1 1 6.123234e-17 1296 604)" class="st5" width="222" height="222"/>
<rect x="1060" y="-457" transform="matrix(6.123234e-17 -1 1 6.123234e-17 1517 825)" class="st6" width="222" height="222"/>
</svg>
