<?xml version="1.0" encoding="utf-8"?>
<!-- Generator: Adobe Illustrator 22.0.0, SVG Export Plug-In . SVG Version: 6.00 Build 0)  -->
<svg version="1.1" id="Layer_1" xmlns="http://www.w3.org/2000/svg" xmlns:xlink="http://www.w3.org/1999/xlink" x="0px" y="0px"
	 viewBox="0 0 906.7 254.3" style="enable-background:new 0 0 906.7 254.3;" xml:space="preserve">
<style type="text/css">
	.st0{fill:#AD73FA;}
</style>
<g>
	<g>
		<polygon class="st0" points="89.1,78 45.9,78 121,146.1 42.3,214.3 85.5,214.3 161.4,146.1 		"/>
		<g>
			<path class="st0" d="M128.4,0H71.5C32,0,0,31.7,0,70.9v21c0,39.1,32,70.9,71.5,70.9h59.4v-33H37.1c-2.2,0-3.9-1.8-3.9-3.8V36.7
				c0-2.2,1.8-3.8,3.9-3.8h125.7c2.2,0,3.9,1.8,3.9,3.8v177.5H200V71C200,31.7,167.9,0,128.4,0z"/>
		</g>
	</g>
</g>
<g>
	<path class="st0" d="M251.4,78.5h49.9c29.9,0,46.9,13.6,46.9,35.9c0,16.1-9.1,25.8-23.3,29.7c16.1,2.5,28.5,12,28.5,31.4
		c0,24.1-17.7,38.8-50.4,38.8h-51.6V78.5z M273.7,97.1v39h28.1c15.3,0,24.1-7.4,24.1-19.6c0-12-8.5-19.4-24.1-19.4H273.7z
		 M273.7,154.5v40.9h29.5c17.8,0,27.4-7.6,27.4-20.2c0-13.4-10.1-20.8-27.4-20.8H273.7z"/>
	<path class="st0" d="M370.9,214.3V115h89.4v99.3h-21v-80.9h-47.5v80.9H370.9z"/>
	<path class="st0" d="M581,164.6c0,30.7-19.8,50.8-46.9,50.8c-15.3,0-26-6.2-32.2-15.1v52.8h-21V115h18.2l2.5,14.7
		c6.6-8.7,16.9-15.9,32.4-15.9C561.2,113.8,581,132.8,581,164.6z M559.7,164.6c0-19.6-11.6-33-29.1-33c-17.5,0-28.9,13.4-28.9,32.6
		c0,19.8,11.4,33.6,28.9,33.6C548,197.8,559.7,184,559.7,164.6z"/>
	<path class="st0" d="M693,196.1v18.2h-11.1c-13.6,0-18.2-6-18.2-15.9c-6.6,10.1-16.7,17.1-32.8,17.1c-21.7,0-36.9-10.7-36.9-29.1
		c0-20.4,14.7-31.8,42.5-31.8h25v-6c0-11.1-8-17.8-21.7-17.8c-12.4,0-20.8,5.8-22.3,14.6h-20.6c2.1-19.4,18.8-31.4,43.8-31.4
		c26.4,0,41.5,12.6,41.5,36.1v39.8c0,5,2.1,6.4,6.4,6.4H693z M661.5,170.1h-26c-13,0-20.2,4.8-20.2,14.9c0,8.3,7,14.2,18.4,14.2
		c17.5,0,27.5-10.3,27.7-25.6V170.1z"/>
	<path class="st0" d="M704.4,214.3V115h43.3c25.8,0,38.6,9.5,38.6,26.4c0,13.2-8.1,19.6-17.5,21.5c12.6,1.9,21,8.9,21,22.9
		c0,19.2-14,28.5-41.3,28.5H704.4z M725,156.5h23.3c11.6,0,16.9-4.9,16.9-12.8c0-8.5-5.2-12.8-16.9-12.8H725V156.5z M725,198.4h25.2
		c11.8,0,18.4-4.3,18.4-13.2c0-8.7-6.6-13.6-18.4-13.6H725V198.4z"/>
	<path class="st0" d="M802.8,164.8c0-30.7,19.6-51,48.9-51c28.7,0,47.9,18.2,48.5,47.3c0,2.5-0.2,5.2-0.6,8h-74.9v1.4
		c0.6,16.9,11.3,27.9,27.7,27.9c12.8,0,22.1-6.4,25-17.5h21c-3.5,19.6-20.2,34.5-44.8,34.5C822.4,215.5,802.8,195.3,802.8,164.8z
		 M878.4,153.8c-1.7-14.7-12-23.1-26.6-23.1c-13.4,0-24.8,8.9-26.4,23.1H878.4z"/>
</g>
</svg>
