<?xml version="1.0" encoding="utf-8"?>
<!-- Generator: Adobe Illustrator 22.0.0, SVG Export Plug-In . SVG Version: 6.00 Build 0)  -->
<svg version="1.1" id="Layer_1" xmlns="http://www.w3.org/2000/svg" xmlns:xlink="http://www.w3.org/1999/xlink" x="0px" y="0px"
	 viewBox="0 0 200 214.3" style="enable-background:new 0 0 200 214.3;" xml:space="preserve">
<style type="text/css">
	.st0{fill:#AD73FA;}
</style>
<g>
	<g>
		<polygon class="st0" points="89.1,78 45.9,78 121,146.1 42.3,214.3 85.5,214.3 161.4,146.1 		"/>
		<g>
			<path class="st0" d="M128.4,0H71.5C32,0,0,31.7,0,70.9v21c0,39.1,32,70.9,71.5,70.9h59.4v-33H37.1c-2.2,0-3.9-1.8-3.9-3.8V36.7
				c0-2.2,1.8-3.8,3.9-3.8h125.7c2.2,0,3.9,1.8,3.9,3.8v177.5H200V71C200,31.7,167.9,0,128.4,0z"/>
		</g>
	</g>
</g>
</svg>
