<?xml version="1.0" encoding="utf-8"?>
<!-- Generator: Adobe Illustrator 22.0.0, SVG Export Plug-In . SVG Version: 6.00 Build 0)  -->
<svg version="1.1" id="Layer_1" xmlns="http://www.w3.org/2000/svg" xmlns:xlink="http://www.w3.org/1999/xlink" x="0px" y="0px"
	 viewBox="0 0 200 200" style="enable-background:new 0 0 200 200;" xml:space="preserve">
<style type="text/css">
	.st0{fill:#0E2B3D;}
	.st1{fill:#FFFFFF;}
</style>
<path class="st0" d="M100,0c55.2,0,100,44.8,100,100s-44.8,100-100,100S0,155.2,0,100S44.8,0,100,0z"/>
<path class="st1" d="M108.7,61.8h-8.2c-15,0-22.9,7.5-22.9,18.7c0,12.6,5.5,18.5,16.7,26l9.2,6.2l-26.7,39.6H57l23.9-35.4
	c-13.8-9.8-21.5-19.3-21.5-35.4c0-20.2,14.1-33.9,40.9-33.9H127v104.6h-18.3V61.8z"/>
</svg>
