<?xml version="1.0" encoding="utf-8"?>
<!-- Generator: Adobe Illustrator 22.0.0, SVG Export Plug-In . SVG Version: 6.00 Build 0)  -->
<svg version="1.1" id="Layer_1" xmlns="http://www.w3.org/2000/svg" xmlns:xlink="http://www.w3.org/1999/xlink" x="0px" y="0px"
	 viewBox="0 0 200 200" style="enable-background:new 0 0 200 200;" xml:space="preserve">
<style type="text/css">
	.st0{fill:#27283F;}
	.st1{fill:#4E507E;}
</style>
<path class="st0" d="M100,0c55.2,0,100,44.8,100,100s-44.8,100-100,100S0,155.2,0,100S44.8,0,100,0z"/>
<path class="st1" d="M106.8,66.2h-7.3c-13.3,0-20.3,6.6-20.3,16.6c0,11.2,4.9,16.4,14.8,23l8.1,5.5l-23.6,35.1H61L82.2,115
	c-12.2-8.7-19-17.1-19-31.4c0-17.9,12.5-30,36.2-30H123v92.6h-16.2V66.2z"/>
</svg>
